<svg viewBox="0 0 1448 400" xmlns="http://www.w3.org/2000/svg"><g><g><g><g><g><line x1="70" y1="378" x2="65" y2="378" style="visibility: inherit;" fill="rgb(0, 0, 0)" stroke="rgb(204, 204, 204)" stroke-width="1px"></line><line x1="70" y1="330.75" x2="65" y2="330.75" style="visibility: inherit;" fill="rgb(0, 0, 0)" stroke="rgb(204, 204, 204)" stroke-width="1px"></line><line x1="70" y1="283.5" x2="65" y2="283.5" style="visibility: inherit;" fill="rgb(0, 0, 0)" stroke="rgb(204, 204, 204)" stroke-width="1px"></line><line x1="70" y1="236.25" x2="65" y2="236.25" style="visibility: inherit;" fill="rgb(0, 0, 0)" stroke="rgb(204, 204, 204)" stroke-width="1px"></line><line x1="70" y1="189" x2="65" y2="189" style="visibility: inherit;" fill="rgb(0, 0, 0)" stroke="rgb(204, 204, 204)" stroke-width="1px"></line><line x1="70" y1="141.75" x2="65" y2="141.75" style="visibility: inherit;" fill="rgb(0, 0, 0)" stroke="rgb(204, 204, 204)" stroke-width="1px"></line><line x1="70" y1="94.5" x2="65" y2="94.5" style="visibility: inherit;" fill="rgb(0, 0, 0)" stroke="rgb(204, 204, 204)" stroke-width="1px"></line><line x1="70" y1="47.25000000000006" x2="65" y2="47.25000000000006" style="visibility: inherit;" fill="rgb(0, 0, 0)" stroke="rgb(204, 204, 204)" stroke-width="1px"></line><line x1="70" y1="0" x2="65" y2="0" style="visibility: inherit;" fill="rgb(0, 0, 0)" stroke="rgb(204, 204, 204)" stroke-width="1px"></line></g><g transform="translate(60, 0)"><text x="0" y="378" dx="0em" dy="0.3em" style="text-anchor: end; visibility: hidden; font-family: &quot;Helvetica Neue&quot;, sans-serif; font-size: 12px; font-weight: 200;" fill="rgb(50, 49, 63)" stroke="none" stroke-width="1px">-0.01</text><text x="0" y="330.75" dx="0em" dy="0.3em" style="text-anchor: end; visibility: inherit; font-family: &quot;Helvetica Neue&quot;, sans-serif; font-size: 12px; font-weight: 200;" fill="rgb(50, 49, 63)" stroke="none" stroke-width="1px">0</text><text x="0" y="283.5" dx="0em" dy="0.3em" style="text-anchor: end; visibility: inherit; font-family: &quot;Helvetica Neue&quot;, sans-serif; font-size: 12px; font-weight: 200;" fill="rgb(50, 49, 63)" stroke="none" stroke-width="1px">0.01</text><text x="0" y="236.25" dx="0em" dy="0.3em" style="text-anchor: end; visibility: inherit; font-family: &quot;Helvetica Neue&quot;, sans-serif; font-size: 12px; font-weight: 200;" fill="rgb(50, 49, 63)" stroke="none" stroke-width="1px">0.02</text><text x="0" y="189" dx="0em" dy="0.3em" style="text-anchor: end; visibility: inherit; font-family: &quot;Helvetica Neue&quot;, sans-serif; font-size: 12px; font-weight: 200;" fill="rgb(50, 49, 63)" stroke="none" stroke-width="1px">0.03</text><text x="0" y="141.75" dx="0em" dy="0.3em" style="text-anchor: end; visibility: inherit; font-family: &quot;Helvetica Neue&quot;, sans-serif; font-size: 12px; font-weight: 200;" fill="rgb(50, 49, 63)" stroke="none" stroke-width="1px">0.04</text><text x="0" y="94.5" dx="0em" dy="0.3em" style="text-anchor: end; visibility: inherit; font-family: &quot;Helvetica Neue&quot;, sans-serif; font-size: 12px; font-weight: 200;" fill="rgb(50, 49, 63)" stroke="none" stroke-width="1px">0.05</text><text x="0" y="47.25000000000006" dx="0em" dy="0.3em" style="text-anchor: end; visibility: inherit; font-family: &quot;Helvetica Neue&quot;, sans-serif; font-size: 12px; font-weight: 200;" fill="rgb(50, 49, 63)" stroke="none" stroke-width="1px">0.06</text><text x="0" y="0" dx="0em" dy="0.3em" style="text-anchor: end; visibility: hidden; font-family: &quot;Helvetica Neue&quot;, sans-serif; font-size: 12px; font-weight: 200;" fill="rgb(50, 49, 63)" stroke="none" stroke-width="1px">0.07</text></g><line x1="70" y1="0" x2="70" y2="378" fill="rgb(0, 0, 0)" stroke="rgb(204, 204, 204)" stroke-width="1px"></line></g></g><g transform="translate(70, 0)" clip-path="url(#clip_0)"><clipPath id="clip_0"><rect width="1378" height="378"></rect></clipPath><g><g><g><line x1="0" y1="0" x2="0" y2="378" fill="rgb(0, 0, 0)" stroke="rgb(60, 60, 60)" stroke-width="1px" opacity="0.25"></line><line x1="114.83333333333333" y1="0" x2="114.83333333333333" y2="378" fill="rgb(0, 0, 0)" stroke="rgb(60, 60, 60)" stroke-width="1px" opacity="0.25"></line><line x1="229.66666666666666" y1="0" x2="229.66666666666666" y2="378" fill="rgb(0, 0, 0)" stroke="rgb(60, 60, 60)" stroke-width="1px" opacity="0.25"></line><line x1="344.5" y1="0" x2="344.5" y2="378" fill="rgb(0, 0, 0)" stroke="rgb(60, 60, 60)" stroke-width="1px" opacity="0.25"></line><line x1="459.3333333333333" y1="0" x2="459.3333333333333" y2="378" fill="rgb(0, 0, 0)" stroke="rgb(60, 60, 60)" stroke-width="1px" opacity="0.25"></line><line x1="574.1666666666667" y1="0" x2="574.1666666666667" y2="378" fill="rgb(0, 0, 0)" stroke="rgb(60, 60, 60)" stroke-width="1px" opacity="0.25"></line><line x1="689" y1="0" x2="689" y2="378" fill="rgb(0, 0, 0)" stroke="rgb(60, 60, 60)" stroke-width="1px" opacity="0.25"></line><line x1="803.8333333333334" y1="0" x2="803.8333333333334" y2="378" fill="rgb(0, 0, 0)" stroke="rgb(60, 60, 60)" stroke-width="1px" opacity="0.25"></line><line x1="918.6666666666666" y1="0" x2="918.6666666666666" y2="378" fill="rgb(0, 0, 0)" stroke="rgb(60, 60, 60)" stroke-width="1px" opacity="0.25"></line><line x1="1033.5" y1="0" x2="1033.5" y2="378" fill="rgb(0, 0, 0)" stroke="rgb(60, 60, 60)" stroke-width="1px" opacity="0.25"></line><line x1="1148.3333333333335" y1="0" x2="1148.3333333333335" y2="378" fill="rgb(0, 0, 0)" stroke="rgb(60, 60, 60)" stroke-width="1px" opacity="0.25"></line><line x1="1263.1666666666665" y1="0" x2="1263.1666666666665" y2="378" fill="rgb(0, 0, 0)" stroke="rgb(60, 60, 60)" stroke-width="1px" opacity="0.25"></line><line x1="1378" y1="0" x2="1378" y2="378" fill="rgb(0, 0, 0)" stroke="rgb(60, 60, 60)" stroke-width="1px" opacity="0.25"></line></g><g><line x1="0" y1="378" x2="1378" y2="378" fill="rgb(0, 0, 0)" stroke="rgb(60, 60, 60)" stroke-width="1px" opacity="0.25"></line><line x1="0" y1="330.75" x2="1378" y2="330.75" fill="rgb(0, 0, 0)" stroke="rgb(60, 60, 60)" stroke-width="1px" opacity="0.25"></line><line x1="0" y1="283.5" x2="1378" y2="283.5" fill="rgb(0, 0, 0)" stroke="rgb(60, 60, 60)" stroke-width="1px" opacity="0.25"></line><line x1="0" y1="236.25" x2="1378" y2="236.25" fill="rgb(0, 0, 0)" stroke="rgb(60, 60, 60)" stroke-width="1px" opacity="0.25"></line><line x1="0" y1="189" x2="1378" y2="189" fill="rgb(0, 0, 0)" stroke="rgb(60, 60, 60)" stroke-width="1px" opacity="0.25"></line><line x1="0" y1="141.75" x2="1378" y2="141.75" fill="rgb(0, 0, 0)" stroke="rgb(60, 60, 60)" stroke-width="1px" opacity="0.25"></line><line x1="0" y1="94.5" x2="1378" y2="94.5" fill="rgb(0, 0, 0)" stroke="rgb(60, 60, 60)" stroke-width="1px" opacity="0.25"></line><line x1="0" y1="47.25000000000006" x2="1378" y2="47.25000000000006" fill="rgb(0, 0, 0)" stroke="rgb(60, 60, 60)" stroke-width="1px" opacity="0.25"></line><line x1="0" y1="0" x2="1378" y2="0" fill="rgb(0, 0, 0)" stroke="rgb(60, 60, 60)" stroke-width="1px" opacity="0.25"></line></g></g></g><g><g><line x1="0" y1="330.75" x2="1378" y2="330.75" fill="rgb(0, 0, 0)" stroke="rgb(153, 153, 153)" stroke-width="1.5px"></line></g></g><g><g><line x1="114.83333333333333" y1="0" x2="114.83333333333333" y2="378" fill="rgb(0, 0, 0)" stroke="rgb(153, 153, 153)" stroke-width="1.5px"></line></g></g><g><g><g><g><g><path stroke="rgb(255, 112, 67)" stroke-width="2px" d="M133.20666666666668,-2.1280608648411317L133.20666666666668,0.3597880893519232L135.50333333333333,3.071859210753189L140.09666666666666,10.708631125608633L140.09666666666666,9.038963419491438L140.09666666666666,7.79558396004154L142.39333333333335,12.481103034126022L142.39333333333335,9.189873464330503L144.69,12.386866041498763L146.98666666666668,10.838967460747654L149.28333333333333,13.358373470006654L149.28333333333333,17.73371196094888L149.28333333333333,19.041436788252497L149.28333333333333,19.167965525735156L149.28333333333333,21.166236171303353L149.28333333333333,22.655860249654495L151.58,25.461970866587592L153.87666666666667,28.76341471771252L153.87666666666667,32.69040489598433L153.87666666666667,37.19516803945828L153.87666666666667,39.83220773476188L153.87666666666667,43.148669226652316L156.17333333333332,46.683985754304615L156.17333333333332,49.20363756358006L156.17333333333332,51.8305918337274L163.06333333333333,54.59096807329712L163.06333333333333,57.3595164108163L163.06333333333333,61.44727549190668L165.35999999999999,64.84472103038195L165.35999999999999,68.76223342424817L167.65666666666667,71.3746446016649L167.65666666666667,74.37857140094366L167.65666666666667,75.11801694540696L169.95333333333335,78.52084573666042L169.95333333333335,81.63609684142489L169.95333333333335,83.4721751084885L169.95333333333335,86.72497851425385L169.95333333333335,88.81116513734577L172.25,89.07287588767025L174.54666666666668,90.93317523618595L174.54666666666668,91.36031131538158L174.54666666666668,92.35501721720533L176.84333333333333,95.23666981777848L176.84333333333333,96.91700064885521L179.14000000000001,99.29515689637645L179.14000000000001,101.88593460339018L179.14000000000001,104.3785400744444L179.14000000000001,106.73401486542139L181.43666666666664,109.2041946622357L183.73333333333332,111.66592533617734L186.03,114.05672296012119L186.03,116.07794161465296L186.03,117.95927846444516L186.03,119.85547223721125L186.03,121.82307051388239L188.32666666666665,122.97196492297928L188.32666666666665,125.22527469907871L190.62333333333333,126.68446242701947L190.62333333333333,128.52478214337458L192.92000000000002,130.49065075875245L192.92000000000002,132.45481460317066L192.92000000000002,134.5028686216652L195.21666666666667,136.15095330014623L197.51333333333335,137.7410167707769L197.51333333333335,139.32765083071263L197.51333333333335,140.68732511265677L197.51333333333335,142.45785284823427L199.80999999999997,143.34204008755725L202.10666666666665,144.8463041439736L202.10666666666665,146.58140118051531L202.10666666666665,147.95697738359684L206.7,149.34645510489878L206.7,150.90012678957785L211.29333333333332,152.14786566875145L213.59,153.6251487583283L213.59,155.07169019221263L213.59,156.60519085911838L215.88666666666668,157.9738016010534L218.18333333333334,159.30891625539675L220.48000000000002,160.76610609708948L220.48000000000002,162.2710962383316L222.77666666666664,163.5690109148663L222.77666666666664,165.0207959017579L225.07333333333332,166.3280766362185L227.37,167.31054590909116L227.37,168.52093878073364L229.66666666666666,169.66090714594066L229.66666666666666,170.90994940165214L229.66666666666666,171.8285498382054L231.96333333333334,172.76268829379813L231.96333333333334,173.67641217603338L231.96333333333334,174.3077059315715L231.96333333333334,175.33778590216474L234.26000000000002,176.131589356796L238.85333333333335,177.2170412814338L238.85333333333335,178.44494052447934L241.14999999999998,179.05478796720726L243.44666666666666,179.81412024174648L243.44666666666666,180.68054904695094L243.44666666666666,181.62056781497427L245.74333333333334,182.41402362273232L245.74333333333334,183.2701892803334L245.74333333333334,183.97719700563556L252.63333333333333,184.5662629385135L252.63333333333333,185.12966941186681L252.63333333333333,185.87853138890728L254.93,186.8134120161058L254.93,187.69267964507122L254.93,188.40719904659395L254.93,189.15654930389098L257.2266666666667,189.70186672942273L257.2266666666667,190.63964114769107L259.5233333333333,191.56920483322307L259.5233333333333,192.2123588034582L259.5233333333333,192.84483875244496L259.5233333333333,193.56763458645818L261.82,194.187832889727L264.1166666666667,194.8579704053484L264.1166666666667,195.4236933527676L264.1166666666667,196.02980463668266L266.41333333333336,196.52504401049347L266.41333333333336,197.25334649058578L268.71000000000004,197.72297704507955L268.71000000000004,198.2957039479604L268.71000000000004,198.93603899158987L271.00666666666666,199.3827908757496L273.30333333333334,200.0264363894869L275.6,200.0603529916379L275.6,200.58710863849413L277.89666666666665,201.18206316725855L277.89666666666665,201.74903446985013L280.1933333333333,201.82146417283136L280.1933333333333,201.96345335264078L282.49,202.60044346899542L282.49,203.20731629211477L282.49,203.66312184703818L282.49,204.0454699350606L284.7866666666667,204.37921553336594L284.7866666666667,204.93003605803702L284.7866666666667,205.25872764591165L287.08333333333337,205.8266967466934L287.08333333333337,206.23619435371478L289.38,206.79863834252308L289.38,207.46816357003092L293.97333333333336,208.09537257720956L293.97333333333336,208.36833812197466L296.27,208.7729854189003L298.56666666666666,209.15751913995953L300.86333333333334,209.6923654410104L300.86333333333334,210.31565820329695L303.16,210.85846557515956L303.16,211.26733210520177L303.16,211.75620582761303L303.16,212.18575535959508L305.4566666666667,212.40768545434867L305.4566666666667,212.85029107174714L310.05,212.97471379157471L310.05,213.25013527233085L310.05,213.46715000378558L310.05,213.78943152632246L312.34666666666664,213.83633546792393L312.34666666666664,213.8070049325935L312.34666666666664,213.64137990438567L316.94,213.7109261117083L323.83,213.97802625168788L323.83,213.71618641291963L326.12666666666667,213.44009129386916L328.42333333333335,213.61503256969988L328.42333333333335,213.90691210564134L333.01666666666665,214.20946444579454L333.01666666666665,214.39613990579213L333.01666666666665,214.87224832658455L333.01666666666665,215.21500303828583L333.01666666666665,215.67773053655648L335.31333333333333,215.77762560107857L335.31333333333333,216.07375071632225L335.31333333333333,216.25468650546028L339.9066666666667,216.22458837653468L339.9066666666667,216.3917028104009L339.9066666666667,216.91571702934743L342.2033333333333,217.22978930860842L342.2033333333333,217.0627499305946L342.2033333333333,217.35549565964646L342.2033333333333,217.72646428540725L344.5,217.87941182143575L346.7966666666666,218.18816401285136L346.7966666666666,218.47361362555543L351.39,218.91490900521922L351.39,218.9671716002851L353.68666666666667,219.34922880805263L353.68666666666667,219.60844796042224L355.98333333333335,220.00913820075021L355.98333333333335,220.2657196680202L358.28000000000003,220.65151622823606L358.28000000000003,220.58952542253206L358.28000000000003,220.82906041030049L358.28000000000003,221.0332965079599L358.28000000000003,221.3155446237661L360.57666666666665,221.13094203173412L365.17,221.11547069457347L365.17,221.43609081503973L367.46666666666664,221.2738267896465L367.46666666666664,221.69214701903266L369.7633333333333,221.8937034829728L369.7633333333333,222.15925483526584L372.06,222.3945752570977L374.3566666666667,222.54117645975558L374.3566666666667,222.845933268872L374.3566666666667,223.20199277063065L374.3566666666667,222.63951971331753L376.6533333333333,222.97434253307642L376.6533333333333,222.9225008286531L376.6533333333333,222.9593886742063L378.95000000000005,223.11733181996183L381.24666666666667,223.2449427328449L381.24666666666667,223.57944018026492L381.24666666666667,223.92955732591184L383.5433333333333,223.04468996614543L385.84000000000003,223.10759693679387L385.84000000000003,222.9679479973571L385.84000000000003,223.23220861316133L385.84000000000003,223.45405963742124L388.13666666666666,223.4970419120563L388.13666666666666,223.68368592631285L388.13666666666666,223.8250905483387L390.43333333333334,223.97975622969005L392.72999999999996,224.23815981594453L392.72999999999996,224.18768802306633L392.72999999999996,224.42465925132004L395.0266666666667,224.54158225827948L395.0266666666667,224.61886805979285L395.0266666666667,224.8299848476241L397.3233333333333,225.05346817570543L401.9166666666667,225.3874847362207L401.9166666666667,225.6043251550498L404.2133333333333,225.7186868924054L404.2133333333333,225.85995793659558L404.2133333333333,225.97019562975956L406.51,226.0647984850354L406.51,226.33423658859178L406.51,226.48878186829558L408.8066666666667,226.53128976688657L411.10333333333335,226.80778995925616L411.10333333333335,227.02386778189154L411.10333333333335,227.19330808381665L411.10333333333335,227.50016089131137L413.4,227.80159280354357L413.4,227.8572763177124L415.6966666666667,227.9323427318068L415.6966666666667,227.95762734488318L415.6966666666667,227.8924880422394L415.6966666666667,228.18182333993573L417.99333333333334,228.414198574793L420.28999999999996,228.68278174006508L422.58666666666664,228.88672147531787L424.8833333333333,229.10413501731247L429.47666666666663,229.19168655993747L429.47666666666663,229.2646600957714L429.47666666666663,229.08193932682812L429.47666666666663,229.37062514016097L431.77333333333337,229.5447165770645L434.07,229.75065225570907L436.3666666666667,229.99442608300706L436.3666666666667,230.11515006095632L436.3666666666667,230.07423001327996L438.66333333333336,230.29616810823794L438.66333333333336,230.2989826847195L440.96000000000004,230.3564116945673L447.85,230.46109123505278L447.85,230.6922885211611L450.14666666666665,230.94217632632098L452.4433333333333,231.09767923082705L452.4433333333333,231.27731327812842L452.4433333333333,231.46850641721642L454.74,231.6893866443576L459.3333333333333,231.6088097089112L459.3333333333333,231.78818489990323L461.63000000000005,231.8609593593196L463.9266666666667,231.93868995574365L463.9266666666667,232.00913807981172L463.9266666666667,232.14555777586946L466.2233333333333,231.912128171801L466.2233333333333,231.65263892088163L468.52000000000004,231.69308485756534L468.52000000000004,231.85872288697513L470.81666666666666,231.73777438396465L470.81666666666666,231.960929075703L470.81666666666666,232.11125763745L475.40999999999997,232.26163119493376L477.7066666666667,232.34886132015288L480.00333333333333,232.50898547365685L480.00333333333333,232.65116304413255L480.00333333333333,232.7031573312729L482.29999999999995,232.7465969141245L482.29999999999995,232.76389355241642L482.29999999999995,232.77895671257582L482.29999999999995,232.94982127067098L484.5966666666667,232.96980843666972L484.5966666666667,233.12206989890754L486.8933333333333,233.0401358584577L489.19,233.13407381949156L489.19,233.23062385650942L489.19,233.35892014451628L491.4866666666667,233.4125971467938L491.4866666666667,233.42647816573538L491.4866666666667,233.56688013526488L493.78333333333336,233.63689928071915L493.78333333333336,233.28613558274176L493.78333333333336,233.17765758403291L493.78333333333336,233.30838431266716L498.3766666666667,233.44353655084024L498.3766666666667,233.23658289080558L500.67333333333335,233.38829284893797L502.96999999999997,233.54875481712128L505.26666666666665,233.68043723215598L505.26666666666665,233.886684472641L505.26666666666665,233.96054218159406L505.26666666666665,234.06062810811616L507.56333333333333,234.03470342577398L509.86,234.15531829748508L509.86,234.13254368062678L512.1566666666666,234.11702142710467L512.1566666666666,234.08609023222684L514.4533333333334,234.21033560289183L514.4533333333334,234.43976276027396L516.75,234.64032253828887L516.75,234.73948859341698L516.75,234.89881062073565L519.0466666666666,235.00558046007043L519.0466666666666,235.18600821889342L521.3433333333334,234.91913316498807L521.3433333333334,235.04215183965312L521.3433333333334,235.09694772037253L523.64,234.9860698865062L523.64,235.08998749498153L525.9366666666666,235.18396101251966L525.9366666666666,235.2341396585366L525.9366666666666,235.37570302347194L528.2333333333333,235.44142794100105L528.2333333333333,235.60102036740653L530.53,235.74065332508408L530.53,235.70771139303378L530.53,235.74155762082165L530.53,235.80671510057803L532.8266666666667,235.7831394867165L532.8266666666667,235.7916363599167L532.8266666666667,235.88704348535111L535.1233333333333,236.06631039225354L535.1233333333333,235.99113249679473L537.4200000000001,236.0416784117737L537.4200000000001,236.24474359685158L537.4200000000001,236.30152121841758L539.7166666666667,236.26025354990023L539.7166666666667,236.25413168817295L542.0133333333333,236.3657028833589L542.0133333333333,236.32897887474334L542.0133333333333,236.42520317049346L542.0133333333333,236.49827836183633L546.6066666666667,236.4676044527164L548.9033333333333,236.53819576696495L548.9033333333333,236.69181940068813L551.2,236.80953309987515L551.2,236.82203950191186L551.2,237.07522679910954L551.2,237.0404591882061L553.4966666666667,237.15083045938655L553.4966666666667,237.1313226015401L553.4966666666667,237.25807305619216L553.4966666666667,237.32013439139104L553.4966666666667,237.45477929734452L558.09,237.67546838994508L558.09,237.17818431774532L560.3866666666667,237.29793370822446L562.6833333333333,237.3905511347708L564.98,237.49805040621007L564.98,237.6865271491835L564.98,237.86721441373402L564.98,237.62396721887424L564.98,237.6230501558515L564.98,237.79275566618557L567.2766666666666,237.84367725556768L567.2766666666666,237.93566747267462L567.2766666666666,238.0253382440378L567.2766666666666,238.14718882694402L569.5733333333334,238.30066491867777L569.5733333333334,238.47945061505342L569.5733333333334,238.62149391337425L571.87,238.61115379510082L571.87,238.4586439662491L574.1666666666667,238.598168307853L574.1666666666667,238.6546331173057L576.4633333333334,238.67574728311442L578.76,238.80401732575626L581.0566666666667,238.96296407206927L581.0566666666667,239.0266143750099L581.0566666666667,239.20707107689836L583.3533333333334,239.26553505674573L587.9466666666667,239.41513648977005L587.9466666666667,239.49130904071112L587.9466666666667,239.6292481259839L590.2433333333333,239.7612918054122L590.2433333333333,239.924561657302L592.54,240.0562478095034L594.8366666666666,240.18639153007666L597.1333333333333,240.3418981871888L597.1333333333333,240.43695413728045L599.43,240.6002551931389L599.43,240.75768003988023L601.7266666666667,240.8979966678923L601.7266666666667,240.94537368506704L601.7266666666667,241.0479579397958L604.0233333333333,241.102500538167L604.0233333333333,241.2795111433678L604.0233333333333,241.4421226531377L606.32,241.51215706960568L608.6166666666667,241.64159432983976L610.9133333333334,241.80243107998106L613.21,241.9245960283238L613.21,242.1026629861152L613.21,242.14810678997014L613.21,242.15588649087888L613.21,242.28521619463797L613.21,242.39739158431317L615.5066666666667,242.57566206450662L617.8033333333333,242.6504548929844L617.8033333333333,242.83269167999273L620.1,242.99703230156393L620.1,243.11476726267878L622.3966666666666,243.1814298443912L626.99,243.31387518059586L626.99,243.3824813985622L626.99,243.43506272627195L629.2866666666666,243.60739120323333L629.2866666666666,243.7393829436323L629.2866666666666,243.80266451789348L629.2866666666666,244.00121534029486L631.5833333333333,244.13012767227374L631.5833333333333,244.234584052962L631.5833333333333,244.3169700871648L631.5833333333333,244.39770423001016L631.5833333333333,244.5227967630022L633.88,244.5056383526992L636.1766666666666,244.63171012636448L636.1766666666666,244.72941078399043L638.4733333333334,244.87215273170634L638.4733333333334,244.97369187090834L640.77,245.08002301755496L643.0666666666667,245.23986049066008L643.0666666666667,245.35190158341578L643.0666666666667,245.364244330025L645.3633333333333,245.50400533804142L645.3633333333333,245.6970696887022L645.3633333333333,245.48451295225922L647.66,245.6011905258638L647.66,245.7427473097225L649.9566666666667,245.82357281991239L649.9566666666667,245.86032601763736L649.9566666666667,245.93785036700217L649.9566666666667,246.08716818223675L652.2533333333333,246.18370037131618L652.2533333333333,246.31320857913235L654.55,246.46879150738854L654.55,246.61029389212928L656.8466666666667,246.77478148556838L656.8466666666667,246.826516295486L656.8466666666667,246.87574009302836L661.4399999999999,247.0073675207827L661.4399999999999,247.05918350681424L661.4399999999999,247.18800939403891L666.0333333333333,247.16943826098768L666.0333333333333,247.27919716582417L666.0333333333333,247.39352284630584L668.3299999999999,247.47792826479466L668.3299999999999,247.63451033595095L670.6266666666667,247.81209472023286L670.6266666666667,247.7908383841487L670.6266666666667,247.91617201150854L670.6266666666667,248.04968872440242L672.9233333333333,248.15187266560096L675.22,248.2196049919444L675.22,248.3365237696516L677.5166666666667,248.47489420783842L677.5166666666667,248.6021068322422L682.11,248.6561234026831L682.11,248.78067363531514L682.11,248.87000617410675L684.4066666666666,248.9780299736548L691.2966666666667,248.77903449847147L691.2966666666667,248.83383161783328L691.2966666666667,248.70045653935614L691.2966666666667,248.74330444561653L691.2966666666667,248.86169379266033L693.5933333333332,248.9778389485343L693.5933333333332,249.08859666157005L693.5933333333332,249.19256965981748L695.89,249.31976893973845L695.89,249.382950073714L695.89,249.4738997481096L698.1866666666667,249.5723580559638L700.4833333333333,249.70156245359465L700.4833333333333,249.7228469188966L702.78,249.8537365149488L702.78,249.67981611304813L702.78,249.80411900295647L705.0766666666667,249.88451794580118L707.3733333333333,249.98093839168354L709.6700000000001,249.99800766439077L709.6700000000001,249.92568535954618L711.9666666666667,250.04450000652764L711.9666666666667,250.07767627615604L711.9666666666667,250.17742089853238L714.2633333333333,250.29486724875585L716.5600000000001,250.38362546878278L716.5600000000001,250.39920910907512L718.8566666666666,250.39016162043808L718.8566666666666,250.47645491007447L718.8566666666666,250.49020021421688L721.1533333333333,250.57804056636041L721.1533333333333,250.59219367587622L723.45,250.60726996447437L723.45,250.63121397029863L723.45,250.72395673221143L725.7466666666666,250.820790859174L725.7466666666666,250.8621896235416L728.0433333333333,250.96180047498098L728.0433333333333,251.0592564190535L730.34,251.16455866377518L730.34,251.24899040266334L730.34,251.36256597393498L732.6366666666667,251.352709563041L734.9333333333333,251.4407762347834L734.9333333333333,251.52363697689924L737.23,251.56383315841543L737.23,251.6535571843669L739.5266666666666,251.74863732977255L739.5266666666666,251.8029735788832L739.5266666666666,251.83352802050717L739.5266666666666,251.9274454714415L741.8233333333334,252.01887350594498L741.8233333333334,252.1426499364906L741.8233333333334,252.26421877504905L744.12,252.36966294268564L746.4166666666666,252.43343549652377L748.7133333333334,252.5740376171734L748.7133333333334,252.68465914675193L751.0100000000001,252.79085833250923L751.0100000000001,252.86152925605234L753.3066666666666,252.9648799627726L753.3066666666666,252.9456786179167L755.6033333333334,252.94599297039096L755.6033333333334,253.02982256525655L755.6033333333334,253.1254792890054L755.6033333333334,253.243010855185L757.9000000000001,253.32587841610973L760.1966666666666,253.33969065494153L764.7900000000001,253.46311712634542L764.7900000000001,253.53587513370837L764.7900000000001,253.6131140210748L767.0866666666666,253.6725213866115L769.3833333333333,253.7668648115643L771.6800000000001,253.822944409679L771.6800000000001,253.89221929395666L771.6800000000001,253.99131694973306L773.9766666666667,253.86848042486332L776.2733333333333,253.45768371711915L778.5699999999999,253.50036812190982L780.8666666666667,253.52250929384132L780.8666666666667,253.33902561292558L783.1633333333334,253.22449615348236L783.1633333333334,253.19998178426857L783.1633333333334,253.2799529771878L785.4599999999999,253.26338618280084L785.4599999999999,253.28157489796286L787.7566666666667,253.1428679656865L787.7566666666667,252.95714598451855L787.7566666666667,253.02423254429556L787.7566666666667,253.04897495193075L790.0533333333334,252.96437653567557L790.0533333333334,252.92922529922376L792.3499999999999,252.99017977952764L792.3499999999999,253.09379316727257L792.3499999999999,253.2018889262552L794.6466666666666,253.23249411279062L796.9433333333334,253.3298201736402L796.9433333333334,253.3700821656807L799.2399999999999,253.49014109556475L799.2399999999999,253.52707900494943L799.2399999999999,253.61562440183008L801.5366666666666,253.6586412802965L801.5366666666666,253.7301660294063L801.5366666666666,253.83292282225358L803.8333333333334,253.9004103844877L803.8333333333334,253.91640872148707L803.8333333333334,254.00715388143175L803.8333333333334,254.1185249291532L808.4266666666666,254.213768731953L808.4266666666666,254.29562703657209L810.7233333333334,254.35953408808223L810.7233333333334,254.41522484440102L815.3166666666667,254.44724533575936L815.3166666666667,254.45664292175098L815.3166666666667,254.51202408073488L817.6133333333333,254.6221823453226L819.91,254.70355706398777L822.2066666666667,254.74978443289052L824.5033333333334,254.76818425339948L826.8,254.7689532256531L826.8,254.8484047475205L826.8,254.95101577943967L826.8,254.93228510369346L826.8,255.0328142826512L829.0966666666667,255.11381117264102L829.0966666666667,255.21480542231762L831.3933333333334,255.2625190187646L831.3933333333334,255.32510369427308L835.9866666666667,255.4081837832989L835.9866666666667,255.42400633676402L835.9866666666667,255.33627653840128L838.2833333333333,255.38701937477032L838.2833333333333,255.4898927636093L838.2833333333333,255.59891270817684L840.5799999999999,255.6699541750756L840.5799999999999,255.77199748664822L842.8766666666667,255.82095574900927L842.8766666666667,255.86900052728205L842.8766666666667,255.95649384362773L845.1733333333333,255.9465081478254L845.1733333333333,255.7564426582506L845.1733333333333,255.74447611279822L847.47,255.8403558835858L852.0633333333333,255.79842363938187L852.0633333333333,255.86897158129625L852.0633333333333,255.91455645044562L854.36,255.97999481385946L856.6566666666668,256.03197900781356L856.6566666666668,256.0273412924365L856.6566666666668,256.11741344221406L858.9533333333333,256.1688821467645L858.9533333333333,256.22025517311965L861.25,256.29365971321755L863.5466666666667,256.346710341954L865.8433333333332,256.33664794300716L865.8433333333332,256.22424567876965L868.14,256.2179968602885L868.14,256.2173335503767L870.4366666666667,256.09903060194557L870.4366666666667,256.0824170518005L875.03,256.1399749853866L875.03,256.13089144434616L875.03,256.197480856598L875.03,256.13169347186437L875.03,256.17025307692353L879.6233333333333,256.1650396983072L881.9200000000001,256.0924146470736L881.9200000000001,256.13535576677197L881.9200000000001,256.14681644213533L881.9200000000001,256.2405670320502L881.9200000000001,256.1848621210679L881.9200000000001,256.26374778036086L884.2166666666667,256.31719299965386L886.5133333333333,256.311169845015L886.5133333333333,256.2694302897305L886.5133333333333,256.3100516685813L886.5133333333333,256.3496162051393L888.8100000000001,256.1365510170815L888.8100000000001,256.12519205302493L888.8100000000001,256.1160321684889L895.7,256.1089444787113L895.7,256.16834891496177L895.7,256.14954386754243L897.9966666666666,256.20900837138845L897.9966666666666,256.25473396496045L900.2933333333333,256.2464032447392L902.59,256.3286571944441L904.8866666666667,256.3971414619266L904.8866666666667,256.163347995157L904.8866666666667,256.22082480144917L904.8866666666667,256.2661388014768L907.1833333333333,256.3078526203085L909.48,256.2782712869133L909.48,256.3165370834189L916.37,256.36859583442487L916.37,256.451797277002L918.6666666666666,256.52518375657013L918.6666666666666,256.57526200562006L920.9633333333334,256.61144804864625L920.9633333333334,256.669625955314L920.9633333333334,256.68132219200015L923.2600000000001,256.72998618243525L923.2600000000001,256.8236325236685L923.2600000000001,256.89004961977895L925.5566666666666,257.00159463648L925.5566666666666,257.0320693590876L932.4466666666666,257.0946642764161L934.7433333333333,257.15978835573696L934.7433333333333,257.25705003369467L934.7433333333333,257.32295142330395L937.0400000000001,257.3828896807856L937.0400000000001,257.456509668111L937.0400000000001,257.50943576371145L939.3366666666666,257.60513625104096L939.3366666666666,257.6815874489553L943.9300000000001,257.76117478198137L943.9300000000001,257.8166872148395L943.9300000000001,257.8847996557597L943.9300000000001,257.92060344526857L946.2266666666667,257.99081389050366L946.2266666666667,258.0283273010011L948.5233333333333,258.0304712186662L950.8199999999999,258.1036436727459L950.8199999999999,258.19017350414856L950.8199999999999,258.22806302187706L950.8199999999999,258.2944257897471L953.1166666666667,258.3470052846029L957.7099999999999,258.36427077353414L957.7099999999999,258.41252525550493L960.0066666666667,258.48992370673045L960.0066666666667,258.51223377587115L964.5999999999999,258.5717262067494L966.8966666666666,258.65027537028584L966.8966666666666,258.72033797599477L966.8966666666666,258.77562193846313L966.8966666666666,258.79442422261064L966.8966666666666,258.8554998210268L969.1933333333334,258.8708844204509L969.1933333333334,258.89910725378405L971.4899999999999,258.97181512697546L971.4899999999999,258.9225701777766L971.4899999999999,258.929539890236L971.4899999999999,258.94710792590723L973.7866666666666,259.02879038768015L973.7866666666666,259.05305150415086L973.7866666666666,259.1142604059493L976.0833333333334,259.1142598087181L978.38,259.2017537698489L978.38,259.2093287429987L978.38,259.2614073040572L980.6766666666666,259.080471692349L980.6766666666666,259.17733272040624L982.9733333333334,259.18125918848904L982.9733333333334,259.14439721218946L987.5666666666667,259.2036843146774L987.5666666666667,259.25937291131527L989.8633333333333,259.32808753014973L992.16,259.40011077104685L992.16,259.47462955392723L994.4566666666667,259.52249863437214L996.7533333333334,259.546807954444L996.7533333333334,259.5852929532119L999.05,259.59816919718617L999.05,259.6838291134467L1001.3466666666667,259.73714268324534L1005.9399999999999,259.7740615593238L1008.2366666666667,259.7894105986931L1008.2366666666667,259.785431589269L1010.5333333333333,259.7729478466531L1010.5333333333333,259.85630281379093L1010.5333333333333,259.9111011938879L1012.8299999999999,259.9786967459744L1012.8299999999999,259.9698549430627L1012.8299999999999,260.00432221749344L1015.1266666666667,260.03688107698747L1015.1266666666667,260.06397625054115L1015.1266666666667,260.1215881882446L1015.1266666666667,260.17207269145325L1015.1266666666667,260.2357592315595L1019.72,260.3335900738621L1022.0166666666667,260.3191446815105L1024.3133333333333,260.20119104245066L1024.3133333333333,260.23095504012355L1024.3133333333333,260.21503501160055L1024.3133333333333,260.23794889556615L1026.61,260.20140418503775L1026.61,260.2837861177192L1026.61,260.3297283008777L1028.9066666666668,260.4031141670521L1028.9066666666668,260.4273919102664L1028.9066666666668,260.50088857905274L1031.2033333333334,260.5435336689679L1031.2033333333334,260.5673182812625L1033.5,260.5923605469347L1033.5,260.672218285098L1035.7966666666666,260.69395083789266L1038.0933333333332,260.7331108131459L1038.0933333333332,260.67351880514616L1040.39,260.70595755002586L1042.6866666666667,260.79922313174234L1044.9833333333333,260.8866144975058L1044.9833333333333,260.9425378121893L1047.28,260.9488768187521L1049.5766666666668,260.93574259732475L1051.8733333333332,260.9522101427699L1051.8733333333332,260.8703604749079L1054.17,260.83096321018127L1054.17,260.81999726207425L1056.4666666666667,260.757488491005L1056.4666666666667,260.7093812670786L1056.4666666666667,260.74177171500565L1056.4666666666667,260.7622675407339L1058.7633333333333,260.815407587564L1058.7633333333333,260.8394465930398L1061.06,260.90245709880503L1061.06,260.8789306400355L1063.3566666666666,260.81960431366264L1063.3566666666666,260.8340886044832L1063.3566666666666,260.83990927145794L1063.3566666666666,260.86307723734643L1065.6533333333334,260.8966470916734L1065.6533333333334,260.8815920107238L1065.6533333333334,260.80142615655666L1070.2466666666667,260.84726718436605L1070.2466666666667,260.8879142553054L1074.8400000000001,260.9103610939177L1074.8400000000001,260.924695927295L1077.1366666666665,260.95160375524813L1077.1366666666665,260.9776621802477L1079.4333333333334,261.04130654975864L1079.4333333333334,261.06143275462875L1079.4333333333334,261.10749833229295L1081.73,261.15317621158806L1081.73,261.18189232684796L1081.73,261.1362434177813L1086.3233333333333,261.1343489883683L1086.3233333333333,261.14271662614857L1086.3233333333333,261.13617026780696L1090.9166666666665,261.20008595308724L1095.51,261.2903758259827L1095.51,261.3621511664138L1095.51,261.3721829632779L1097.8066666666666,261.41523007701693L1097.8066666666666,261.44220637554696L1100.1033333333332,261.47013806995665L1104.6966666666667,261.49071814863044L1106.9933333333333,261.39250773641095L1109.29,261.40060982734644L1113.8833333333334,261.44387285480263L1118.4766666666667,261.4520377707721L1118.4766666666667,261.5309914293352L1118.4766666666667,261.56891910761385L1118.4766666666667,261.4998924849659L1120.7733333333333,261.5924672938969L1120.7733333333333,261.48360485805074L1120.7733333333333,261.52673257324426L1123.07,261.5484982463301L1123.07,261.6281791036557L1123.07,261.6977602321851L1125.3666666666666,261.7074759166645L1125.3666666666666,261.74387973707843L1127.6633333333334,261.73347323503833L1129.96,261.78146031027745L1129.96,261.8085782104765L1129.96,261.8080310216962L1132.2566666666667,261.8791604562503L1134.5533333333333,261.9373021315066L1136.85,261.9634727664197L1139.1466666666668,261.92738848234586L1141.4433333333334,261.76363984932794L1143.74,261.81077787705004L1143.74,261.88016821369854L1143.74,261.9179672597242L1143.74,261.9632342544923L1146.0366666666666,261.94681077427185L1148.3333333333335,261.9853316682099L1148.3333333333335,262.00797839744695L1150.6299999999999,262.04057616890265L1150.6299999999999,261.9602018185314L1152.9266666666667,262.00290585233023L1152.9266666666667,262.0077567382108L1155.2233333333334,262.0285999122965L1155.2233333333334,262.0909523487912L1157.52,262.13139242092404L1157.52,262.21714208787324L1159.8166666666666,262.2943329916739L1159.8166666666666,262.3256190780657L1162.1133333333335,262.3875417831952L1162.1133333333335,262.40532892460163L1164.4099999999999,262.47558353369715L1164.4099999999999,262.51775881888636L1166.7066666666667,262.49422608654396L1166.7066666666667,262.5097955425882L1166.7066666666667,262.5106343144007L1166.7066666666667,262.53582733589417L1166.7066666666667,262.5604378696512L1169.0033333333333,262.62293739394437L1169.0033333333333,262.6942480740029L1171.3,262.7222893630583L1171.3,262.7560341265791L1173.5966666666666,262.81548897384295L1173.5966666666666,262.85707132255334L1173.5966666666666,262.9150096736099L1175.8933333333334,263.00059268859013L1175.8933333333334,263.05780203999586L1175.8933333333334,263.1191952937085L1180.4866666666667,263.16628371999724L1182.7833333333333,263.24135924034147L1182.7833333333333,263.2998768231645L1182.7833333333333,263.3626012052269L1185.08,263.4316778644401L1185.08,263.4924764001227L1185.08,263.5719704943061L1185.08,263.6407896313392L1185.08,263.68270880242204L1187.3766666666668,263.7167344166464L1187.3766666666668,263.6880054605704L1187.3766666666668,263.6529279740694L1189.6733333333332,263.64237112473864L1189.6733333333332,263.6961533692452L1189.6733333333332,263.5857012164104L1189.6733333333332,263.5086969277665L1189.6733333333332,263.565062044187L1191.97,263.4377024388244L1196.5633333333333,263.4821581581198L1196.5633333333333,263.4806025210428L1201.1566666666668,263.5425853377323L1203.4533333333334,263.5977484629247L1203.4533333333334,263.6274357544614L1205.75,263.6498747615864L1205.75,263.68646550945476L1210.3433333333332,263.7334085695346L1210.3433333333332,263.76336362063466L1212.64,263.7696349173733L1212.64,263.8060228057227L1212.64,263.82143970874637L1212.64,263.8740131044988L1214.9366666666667,263.8302655883999L1214.9366666666667,263.8887734572962L1214.9366666666667,263.9680393107635L1214.9366666666667,264.0500945818943L1217.2333333333333,264.0942950350459L1217.2333333333333,264.1010493336464L1217.2333333333333,264.029947190919L1217.2333333333333,264.0388715056208L1219.53,264.05359372444383L1219.53,264.0777131019592L1219.53,264.12317698856737L1219.53,264.15991433111515L1221.8266666666668,264.2017427875939L1221.8266666666668,264.23759612301217L1221.8266666666668,264.2935529630877L1224.1233333333332,264.34955501049865L1226.42,264.41339896629745L1228.7166666666667,264.428268059114L1228.7166666666667,264.4824402588153L1228.7166666666667,264.5412654756713L1228.7166666666667,264.5889034138836L1231.0133333333333,264.4491843259718L1231.0133333333333,264.47378797703107L1231.0133333333333,264.49863423194046L1233.31,264.4903028720373L1233.31,264.5076557196992L1233.31,264.49517952362817L1233.31,264.51357515925866L1235.6066666666666,264.55337559905604L1235.6066666666666,264.5965821833303L1237.9033333333334,264.5339971599649L1237.9033333333334,264.51921969280835L1237.9033333333334,264.5532613010356L1240.2,264.56183620965214L1240.2,264.55342535225213L1240.2,264.5530762933869L1242.4966666666667,264.6043704085412L1242.4966666666667,264.6680679499056L1242.4966666666667,264.72460339159454L1244.7933333333333,264.78957723884594L1247.0900000000001,264.82082688311476L1247.0900000000001,264.8897329217892L1249.3866666666665,264.9142896521869L1251.6833333333334,264.90947914184846L1251.6833333333334,264.9141882104371L1253.98,264.93045621163935L1256.2766666666666,264.9344531361216L1256.2766666666666,264.831088314237L1256.2766666666666,264.8131208506917L1256.2766666666666,264.7747429739224L1258.5733333333333,264.7481115654616L1260.8700000000001,264.762678905639L1263.1666666666665,264.7991887654396L1263.1666666666665,264.76248981673257L1263.1666666666665,264.7273598477677L1263.1666666666665,264.73556568166725" style="fill: none;" fill="none"></path></g></g></g></g><g opacity="0.2"><g><g><g><path stroke="rgb(255, 112, 67)" stroke-width="2px" d="M117.13000000000001,-9.364721283316612L117.13000000000001,38.601265277713594L117.13000000000001,100.2598802447319L119.42666666666668,-244.37197103351355L119.42666666666668,-107.45205889642239L119.42666666666668,52.993678662926015L119.42666666666668,-40.03528515994549L119.42666666666668,214.34739761799574L121.72333333333333,-96.97844843566418L124.02,152.5620482750237L124.02,68.04732865467673L126.31666666666666,76.986027404666L126.31666666666666,59.9986396618188L126.31666666666666,0.7558283284307095L128.61333333333334,67.78324589878326L128.61333333333334,21.757298603653965L130.91,-187.11559782922268L130.91,104.71160122007132L133.20666666666668,76.61793445050722L133.20666666666668,65.55439307168132L133.20666666666668,52.03373617306357L135.50333333333333,62.05604904145008L140.09666666666666,184.2620121203363L140.09666666666666,-30.53598041832447L140.09666666666666,-22.88801848143339L142.39333333333335,132.67360505461693L142.39333333333335,-78.43995514512062L144.69,100.61628547310829L146.98666666666668,-33.38299776613712L149.28333333333333,87.78027583658695L149.28333333333333,151.22058250755072L149.28333333333333,60.20523429661995L149.28333333333333,23.27318255603319L149.28333333333333,87.93144178390503L149.28333333333333,73.86478855088359L151.58,124.63470277190208L153.87666666666667,148.62353111431003L153.87666666666667,179.04169996082783L153.87666666666667,209.41131369955838L153.87666666666667,143.17926875129342L153.87666666666667,176.30582161992788L156.17333333333332,192.01808552071452L156.17333333333332,155.19810569286346L156.17333333333332,164.85278325900435L163.06333333333333,175.99236526340246L163.06333333333333,181.76434160023928L163.06333333333333,249.03087349422276L165.35999999999999,223.9885920546949L165.35999999999999,255.9972773194313L167.65666666666667,198.71813593246043L167.65666666666667,223.66121251881123L167.65666666666667,112.56733712553978L169.95333333333335,254.0846619643271L169.95333333333335,245.31418549641967L169.95333333333335,181.67914793640375L169.95333333333335,263.7844006419182L169.95333333333335,204.33883190900087L172.25,103.81270245462656L174.54666666666668,197.46086931601167L174.54666666666668,116.22196928411722L174.54666666666668,151.18815962970257L176.84333333333333,268.3840003916994L176.84333333333333,199.45925039984286L179.14000000000001,246.65287894941866L179.14000000000001,264.8459770604968L179.14000000000001,263.4968720264733L179.14000000000001,259.3012072965503L181.43666666666664,271.50869363732636L183.73333333333332,275.7127897236496L186.03,275.60577838495374L186.03,254.53672524355352L186.03,248.5863702725619L186.03,253.27676552161574L186.03,262.0957618933171L188.32666666666665,205.94401079043746L188.32666666666665,290.04545753169805L190.62333333333333,234.7689349092543L190.62333333333333,266.54250150360167L192.92000000000002,279.7405798109248L192.92000000000002,283.3883955962956L192.92000000000002,293.7715053912252L195.21666666666667,265.8339111255482L197.51333333333335,264.3218116024509L197.51333333333335,267.0941788824275L197.51333333333335,251.42633802071214L197.51333333333335,288.2834844645113L199.80999999999997,216.97666066512465L202.10666666666665,271.4980620313436L202.10666666666665,294.25545468740165L202.10666666666665,266.2893495876342L206.7,270.143249549903L206.7,287.38847133982927L211.29333333333332,262.8972292067483L213.59,286.0935496520251L213.59,286.09886105451733L213.59,296.9021591129713L215.88666666666668,284.4273446481675L218.18333333333334,283.8779907329008L220.48000000000002,298.04483233066276L220.48000000000002,305.4146893210709L222.77666666666664,288.1902774916962L222.77666666666664,305.7270939582959L225.07333333333332,294.20836494583637L227.37,264.30263862758875L227.37,289.10397073533386L229.66666666666666,284.2532961051911L229.66666666666666,297.5889472179115L229.66666666666666,265.8183553609997L231.96333333333334,269.17994507867843L231.96333333333334,268.80507535580546L231.96333333333334,240.59723763540387L231.96333333333334,284.4230849649757L234.26000000000002,260.9041903289035L238.85333333333335,294.104086317122L238.85333333333335,311.76589016150683L241.14999999999998,245.81288526579738L243.44666666666666,263.6113070072606L243.44666666666666,277.0664712768048L243.44666666666666,287.0275159953162L245.74333333333334,272.090144793503L245.74333333333334,280.7923035118729L245.74333333333334,265.1351470621303L252.63333333333333,252.70644322782755L252.63333333333333,250.79936370067298L252.63333333333333,273.8254288332537L254.93,297.4306282592006L254.93,292.50399001222104L254.93,274.20866390503943L254.93,279.7992164622992L257.2266666666667,256.1431890707463L257.2266666666667,305.7203919980675L259.5233333333333,306.45692114531994L259.5233333333333,272.26481380686164L259.5233333333333,272.12183718848974L259.5233333333333,284.7965817321092L261.82,273.00855097174644L264.1166666666667,280.6097400030121L264.1166666666667,268.3071896787733L264.1166666666667,274.6440492924303L266.41333333333336,261.18941748328507L266.41333333333336,292.9817038010806L268.71000000000004,259.8588297497481L268.71000000000004,274.56840031128377L268.71000000000004,284.7668431587517L271.00666666666666,259.6520414929837L273.30333333333334,287.41387542150915L275.6,204.69447145052254L275.6,273.01343552581966L277.89666666666665,283.4979592245072L277.89666666666665,280.6812261119485L280.1933333333333,211.9672028236091L280.1933333333333,221.974835626781L282.49,292.92183941043913L282.49,289.7784748468548L282.49,269.0746763376519L282.49,259.2424166277051L284.7866666666667,252.84498854354024L284.7866666666667,285.38921455666423L284.7866666666667,253.55155029147863L287.08333333333337,289.7591830585152L287.08333333333337,267.0988918170333L289.38,290.87169525492936L289.38,308.1162965744734L293.97333333333336,302.91450391570106L293.97333333333336,249.8656833898276L296.27,270.6318589746952L298.56666666666666,268.2669735169038L300.86333333333334,292.35954802762717L300.86333333333334,307.17967893043533L303.16,295.67240661755204L303.16,275.497517304495L303.16,288.9665695494041L303.16,280.38802085258067L305.4566666666667,247.8313854318112L305.4566666666667,283.86895650811493L310.05,233.0434023756534L310.05,257.90480129700154L310.05,248.83381914161146L310.05,266.5807594433427L312.34666666666664,221.5586100127548L312.34666666666664,208.95354737341404L312.34666666666664,186.0965978242457L316.94,225.33493357524276L323.83,258.84354218188673L323.83,169.51666110008955L326.12666666666667,166.60500922054052L328.42333333333335,243.43608765676618L328.42333333333335,263.9034737488255L333.01666666666665,266.2846146505326L333.01666666666665,246.68098053708673L333.01666666666665,297.6067560380325L333.01666666666665,275.0591659806669L333.01666666666665,296.8503322340548L335.31333333333333,233.38369297608733L335.31333333333333,268.50814287364483L335.31333333333333,248.44140902906656L339.9066666666667,210.84570920839906L339.9066666666667,246.39404158852994L339.9066666666667,311.4222947861999L342.2033333333333,274.1302074054256L342.2033333333333,186.66364614665508L342.2033333333333,270.8707796763629L342.2033333333333,285.8440413493663L344.5,246.08847972750664L346.7966666666666,275.38475451339036L346.7966666666666,271.58566716872156L351.39,301.38307960052043L351.39,228.77631754428148L353.68666666666667,291.36736308038235L353.68666666666667,268.68159294873476L355.98333333333335,296.1888095950708L355.98333333333335,269.2548151714727L358.28000000000003,294.6233980245888L358.28000000000003,208.65348613634706L358.28000000000003,267.1435744855553L358.28000000000003,260.6872501205653L358.28000000000003,276.3432756420225L360.57666666666665,184.99197572283447L365.17,218.0742771718651L365.17,284.7175135631114L367.46666666666664,189.11738208308816L367.46666666666664,304.9271712200716L369.7633333333333,262.1595339272171L369.7633333333333,275.4218639228493L372.06,269.7815417200327L374.3566666666667,252.1795010548085L374.3566666666667,284.701372532174L374.3566666666667,295.75359802739695L374.3566666666667,107.58125473558903L376.6533333333333,291.73096752539277L376.6533333333333,212.23554526269436L376.6533333333333,230.59291400760412L378.95000000000005,255.926992546767L381.24666666666667,249.8546381369233L381.24666666666667,293.5939628519118L381.24666666666667,297.48996238969266L383.5433333333333,36.43398423492914L385.84000000000003,236.42369861528277L385.84000000000003,193.2972138170153L385.84000000000003,279.5866107456386L385.84000000000003,270.93880259245634L388.13666666666666,232.7306588999927L388.13666666666666,263.92563026212156L388.13666666666666,254.42383483797312L390.43333333333334,257.5691224196926L392.72999999999996,280.55872941669077L392.72999999999996,213.1476455256343L392.72999999999996,276.44390625692904L395.0266666666667,250.2993261795491L395.0266666666667,241.70485207624733L395.0266666666667,271.6669311868027L397.3233333333333,274.8076510503888L401.9166666666667,300.00904573872685L401.9166666666667,274.2161227511242L404.2133333333333,251.44518095813692L404.2133333333333,257.74924365151674L404.2133333333333,250.93952840007842L406.51,247.56585051119328L406.51,287.7792488671839L406.51,261.8517806176096L408.8066666666667,236.29067152552307L411.10333333333335,290.5021677380428L411.10333333333335,276.9654798209667L411.10333333333335,266.48579667136073L411.10333333333335,298.89341578865424L413.4,298.1646051169373L413.4,240.89806455932558L415.6966666666667,245.56991610489786L415.6966666666667,233.91780796274543L415.6966666666667,212.48789628781378L415.6966666666667,296.8264529253356L417.99333333333334,283.72209864947945L420.28999999999996,292.81296226009727L422.58666666666664,277.7368917251006L424.8833333333333,281.34683681465685L429.47666666666663,250.29603460617363L429.47666666666663,246.91028174757957L429.47666666666663,184.76014862582088L429.47666666666663,299.6142725581303L431.77333333333337,272.03657311666757L434.07,280.1704469723627L436.3666666666667,289.8620843309909L436.3666666666667,259.8543324396014L436.3666666666667,219.96317383646965L438.66333333333336,285.30238830763847L438.66333333333336,230.9986752346158L440.96000000000004,244.6761307194829L447.85,256.641035143286L447.85,288.6869706334546L450.14666666666665,293.812236411497L452.4433333333333,270.3373687695712L452.4433333333333,276.740394288674L452.4433333333333,279.9996591992676L454.74,287.92069851234555L459.3333333333333,211.03568755835295L459.3333333333333,277.72014342527837L461.63000000000005,250.5501194279641L463.9266666666667,251.95832316577435L463.9266666666667,250.20539312437177L463.9266666666667,267.4828529711813L466.2233333333333,171.27326995879412L466.2233333333333,164.05235006287694L468.52000000000004,242.25964060798287L468.52000000000004,275.25408169068396L470.81666666666666,199.96144416555762L470.81666666666666,290.7537970812991L470.81666666666666,271.8277518292889L475.40999999999997,272.1005079690367L477.7066666666667,255.523009121418L480.00333333333333,275.1660805083811L480.00333333333333,270.6314453277737L480.00333333333333,246.63058602064848L482.29999999999995,244.41428341716528L482.29999999999995,237.4223302938044L482.29999999999995,236.84685061499476L482.29999999999995,279.2173384577036L484.5966666666667,238.39658320695162L484.5966666666667,274.5737997237593L486.8933333333333,210.67482902482152L489.19,258.84425946325064L489.19,259.72574545349926L489.19,268.65876315906644L491.4866666666667,248.22031034901738L491.4866666666667,237.26583094149828L491.4866666666667,272.50210632383823L493.78333333333336,253.10461799427867L493.78333333333336,135.5089346766472L493.78333333333336,202.8607218414545L493.78333333333336,269.93735459446907L498.3766666666667,271.4096604036167L498.3766666666667,174.95184083282948L500.67333333333335,276.2234808532521L502.96999999999997,278.9700612081215L505.26666666666665,271.0495103504509L505.26666666666665,292.5634099524468L505.26666666666665,255.02561189979315L505.26666666666665,262.67772790789604L507.56333333333333,226.60369429551065L509.86,268.81409197859466L509.86,227.57203293778002L512.1566666666666,229.63460850343108L512.1566666666666,225.1320177577436L514.4533333333334,270.2654822152108L514.4533333333334,301.18055542744696L516.75,293.12555611878633L516.75,263.727449381724L516.75,281.5839973166585L519.0466666666666,266.3670888058841L519.0466666666666,288.31030990742147L521.3433333333334,156.1536652855575L521.3433333333334,271.43645504303277L521.3433333333334,251.34649536386132L523.64,202.027707349509L523.64,266.05235190410167L525.9366666666666,263.2493527494371L525.9366666666666,250.25524197891355L525.9366666666666,277.85209239274263L528.2333333333333,255.20826781913638L528.2333333333333,283.7100500827655L530.53,277.9303156659007L530.53,225.73145375400782L530.53,246.0152378194034L530.53,255.62992364913225L532.8266666666667,228.59422488883138L532.8266666666667,238.3884862884879L532.8266666666667,265.1119212275371L535.1233333333333,291.1030867025256L535.1233333333333,212.85872635245323L537.4200000000001,251.62971149012446L537.4200000000001,299.0089706964791L537.4200000000001,253.88975505530834L539.7166666666667,223.44815795123577L539.7166666666667,234.34930330887437L542.0133333333333,271.1580266598612L542.0133333333333,224.85174116492271L542.0133333333333,266.5639319345355L542.0133333333333,259.4365138448775L546.6066666666667,226.81807781383395L548.9033333333333,258.7934204963967L548.9033333333333,285.2295644469559L551.2,274.08185472059995L551.2,240.79054276272655L551.2,317.58864165795967L551.2,225.96070215851068L553.4966666666667,272.3990818373859L553.4966666666667,230.88802028261125L553.4966666666667,277.90939569287L553.4966666666667,257.2665000921115L553.4966666666667,280.82056791801006L558.09,308.90334785263985L558.09,76.34239279478794L560.3866666666667,276.10918668843806L562.6833333333333,267.4707339964807L564.98,272.48402027226985L564.98,299.15381312649697L564.98,296.91572365164757L564.98,157.96739262342453L564.98,237.3221221268177L564.98,293.59431929234415L567.2766666666666,254.62154046446085L567.2766666666666,268.30658681038767L567.2766666666666,267.6904597207904L567.2766666666666,278.539538372308L569.5733333333334,289.27902699261904L569.5733333333334,297.98383041098714L569.5733333333334,285.991704499349L571.87,235.15593240782619L571.87,187.39504431188107L574.1666666666667,285.40661413036287L574.1666666666667,257.63524432014674L576.4633333333334,245.78725675866008L578.76,282.0918765272945L581.0566666666667,292.70857361890376L581.0566666666667,260.5911344178021L581.0566666666667,300.4643653873354L583.3533333333334,259.1501029562205L587.9466666666667,290.3956316532567L587.9466666666667,265.4991827560589L587.9466666666667,286.817000515759L590.2433333333333,285.01901816390455L590.2433333333333,295.99214688688517L592.54,285.3641845174134L594.8366666666666,285.04887555073947L597.1333333333333,294.0491108810529L597.1333333333333,273.32848486304283L599.43,297.212783748284L599.43,295.4357609739527L601.7266666666667,289.7253520209342L601.7266666666667,257.4624631209299L601.7266666666667,276.8787107784301L604.0233333333333,260.18864276167005L604.0233333333333,303.3358891149983L604.0233333333333,298.5559063036926L606.32,266.15560081601143L608.6166666666667,287.2712464425713L610.9133333333334,298.6051126853563L613.21,285.1484632473439L613.21,305.2204204844311L613.21,258.28544447477907L613.21,244.9235091805458L613.21,288.37735151220113L613.21,282.4479429172352L615.5066666666667,306.3389239604585L617.8033333333333,269.4501005234197L617.8033333333333,308.2482389411889L620.1,302.0937734171748L620.1,285.5274342354387L622.3966666666666,267.2384404465556L626.99,291.19490311760455L626.99,268.22842074371874L626.99,262.5110281985253L629.2866666666666,306.2360292887315L629.2866666666666,291.7924953047186L629.2866666666666,266.881229926832L629.2866666666666,316.5379366725683L631.5833333333333,291.30745468474925L631.5833333333333,282.5280276015401L631.5833333333333,274.5715818721801L631.5833333333333,274.0966976042837L631.5833333333333,290.6184905329719L633.88,238.17206973955035L636.1766666666666,291.2471458436921L636.1766666666666,280.91601474490017L638.4733333333334,297.8309878734872L638.4733333333334,282.70959659758955L640.77,284.66353263985366L643.0666666666667,304.8421513759531L643.0666666666667,287.2014017198235L643.0666666666667,249.98221740871668L645.3633333333333,297.88217447977513L645.3633333333333,318.17222485598177L645.3633333333333,165.55948582291603L647.66,289.5466741528362L647.66,299.1468449360691L649.9566666666667,276.36627705115825L649.9566666666667,259.7716162567958L649.9566666666667,275.3293522289023L649.9566666666667,302.79000279307365L652.2533333333333,282.90118553023785L652.2533333333333,295.65374190034345L654.55,305.83952451171353L654.55,300.69522877503186L656.8466666666667,309.7465583011508L656.8466666666667,266.6643425244838L656.8466666666667,265.781012725085L661.4399999999999,297.64215805381536L661.4399999999999,267.02372689079493L661.4399999999999,296.90329664200544L666.0333333333333,239.99125369638205L666.0333333333333,289.77084878180176L666.0333333333333,291.7230906318873L668.3299999999999,280.25756365433335L668.3299999999999,308.5402406640351L670.6266666666667,316.99542686739005L670.6266666666667,239.4968400131911L670.6266666666667,296.8963372525759L670.6266666666667,300.30899476306513L672.9233333333333,288.209415262565L675.22,274.8127424279228L675.22,294.3121947236359L677.5166666666667,302.96976758446544L677.5166666666667,298.7796474834904L682.11,269.99498793203384L682.11,298.05858609080315L682.11,284.2680465783924L684.4066666666666,291.8475983552635L691.2966666666667,169.68725965172052L691.2966666666667,270.6461914004758L691.2966666666667,195.52946382947266L691.2966666666667,265.8506726268679L691.2966666666667,296.20058753108606L693.5933333333332,295.48896300885826L693.5933333333332,293.508575566113L693.5933333333332,290.95367215387523L695.89,300.4857672150247L695.89,274.8353081876412L695.89,286.16696317959577L698.1866666666667,289.35336902551353L700.4833333333333,301.9820689461194L700.4833333333333,258.3479183614254L702.78,302.9716465976089L702.78,178.99588196352124L702.78,300.39639087673277L705.0766666666667,282.65512721892446L707.3733333333333,289.33893538825214L709.6700000000001,256.975622696802L709.6700000000001,220.3189277909696L711.9666666666667,298.7539969738573L711.9666666666667,263.698230067268L711.9666666666667,291.18637935072184L714.2633333333333,298.6507480619475L716.5600000000001,286.97994219884276L716.5600000000001,256.8337153997272L718.8566666666666,246.64913852512836L718.8566666666666,286.20817385427654L718.8566666666666,256.1897991579026L721.1533333333333,287.05306529346853L721.1533333333333,256.4774245843291L723.45,256.8851748369634L723.45,260.6156672006473L723.45,289.4509016890079L725.7466666666666,291.3124844552949L725.7466666666666,268.1973444186151L728.0433333333333,292.73025487829L728.0433333333333,291.98061664402485L730.34,295.4415300283581L730.34,286.7992797056213L730.34,299.2496119933203L732.6366666666667,247.1912448182702L734.9333333333333,288.67410797439516L734.9333333333333,286.6037215227261L737.23,268.6045050043613L737.23,289.74254037067294L739.5266666666666,292.16598327085376L739.5266666666666,274.93179793283343L739.5266666666666,264.8568814974278L739.5266666666666,292.0120846135542L741.8233333333334,291.0933263953775L741.8233333333334,305.1128920870833L741.8233333333334,304.3591415863484L744.12,297.6149629689753L746.4166666666666,279.8341036196798L748.7133333333334,313.0655313846655L748.7133333333334,300.3404693333432L751.0100000000001,298.6018629167229L751.0100000000001,283.3868686230853L753.3066666666666,297.66441137809306L753.3066666666666,244.63015430420637L755.6033333333334,253.08230746351182L755.6033333333334,289.4287319742143L755.6033333333334,294.71376887569204L755.6033333333334,304.40805313456804L757.9000000000001,289.44734168518335L760.1966666666666,259.3681388888508L764.7900000000001,307.4028964508325L764.7900000000001,285.37343436665833L764.7900000000001,287.4547868622467L767.0866666666666,279.73475795052946L769.3833333333333,295.2085433998145L771.6800000000001,278.48808773607016L771.6800000000001,284.3997007124126L771.6800000000001,297.68759760819376L773.9766666666667,199.63619447126985L776.2733333333333,71.86205097287899L778.5699999999999,272.3930883575231L780.8666666666667,263.33482364472L780.8666666666667,171.92248440161347L783.1633333333334,202.34116370603442L783.1633333333334,242.2950998302549L783.1633333333334,288.8983618123457L785.4599999999999,245.8755219709128L785.4599999999999,261.40278448630124L787.7566666666667,191.1339812334627L787.7566666666667,169.82768838107586L787.7566666666667,283.08927606604993L787.7566666666667,264.1509886253625L790.0533333333334,214.9581869021058L790.0533333333334,237.11806217953563L792.3499999999999,280.44121848698705L792.3499999999999,299.81324992887676L792.3499999999999,302.0017017731443L794.6466666666666,267.065958481282L796.9433333333334,297.3741830564104L796.9433333333334,271.6124222036451L799.2399999999999,307.95328448340297L799.2399999999999,270.3036169409752L799.2399999999999,293.8796014529653L801.5366666666666,273.2429875647649L801.5366666666666,286.3322151247412L801.5366666666666,300.7268199585378L803.8333333333334,284.7355292066932L803.8333333333334,261.23473382368684L803.8333333333334,295.56702346354723L803.8333333333334,305.1849832646549L808.4266666666666,297.9369518933818L808.4266666666666,291.918182361871L810.7233333333334,283.7660596361384L810.7233333333334,280.0710704997182L815.3166666666667,269.2158135473728L815.3166666666667,258.79607399739325L815.3166666666667,280.1145914364606L817.6133333333333,305.6071869567968L819.91,292.4101845715195L822.2066666666667,276.1949348151684L824.5033333333334,263.31381566170603L826.8,255.1265065446496L826.8,291.83385119587183L826.8,302.7721785712056L826.8,246.1930003836751L826.8,301.9908457417041L829.0966666666667,292.99122648127377L829.0966666666667,302.4974576085806L831.3933333333334,277.6260035466403L831.3933333333334,284.6918894564733L835.9866666666667,294.4361039791256L835.9866666666667,262.86522437632084L835.9866666666667,214.03128335997462L838.2833333333333,279.30459155514836L838.2833333333333,304.0334166381508L838.2833333333333,307.1003181282431L840.5799999999999,289.26760329678655L840.5799999999999,304.08503449335694L842.8766666666667,279.0262775849551L842.8766666666667,278.6665719822049L842.8766666666667,297.51855243276805L845.1733333333333,251.19775849208236L845.1733333333333,165.27032022178173L845.1733333333333,250.04120169952512L847.47,301.58689311984926L852.0633333333333,235.7696612253785L852.0633333333333,289.60268370620906L852.0633333333333,277.7354879658669L854.36,287.3386048832908L856.6566666666668,280.97025969810784L856.6566666666668,253.80009048432112L856.6566666666668,299.42105544079095L858.9533333333333,280.9399666618556L858.9533333333333,280.9718878827989L861.25,291.69808699563146L863.5466666666667,281.96146333403885L865.8433333333332,251.4729657098651L865.8433333333332,201.8364088498056L868.14,253.19117581285536L868.14,255.8956961967051L870.4366666666667,198.67340045794845L870.4366666666667,248.00947363302112L875.03,284.13835946749896L875.03,251.70765313133597L875.03,288.6573508735746L875.03,224.0291294530034L875.03,275.00606075674295L879.6233333333333,253.6157183703035L881.9200000000001,220.5420154966414L881.9200000000001,277.177170233801L881.9200000000001,261.76855837740004L881.9200000000001,302.27519719675183L881.9200000000001,228.8036182411015L881.9200000000001,295.0793095403351L884.2166666666667,282.6419213209301L886.5133333333333,253.34138245135546L886.5133333333333,235.6681329086423L886.5133333333333,276.3799846060574L886.5133333333333,275.9173689298332L888.8100000000001,150.65170357748866L888.8100000000001,250.49584367126226L888.8100000000001,251.57190653309226L895.7,252.58924913406372L895.7,285.6980063840747L895.7,246.79220755398273L897.9966666666666,285.8281863508746L897.9966666666666,279.05348587129265L900.2933333333333,252.08854273706675L902.59,297.42270296020433L904.8866666666667,290.646059660241L904.8866666666667,139.12681386619806L904.8866666666667,285.02224372979254L904.8866666666667,278.9953816803172L907.1833333333333,277.2520139236003L909.48,241.4110307469964L909.48,275.5674852412194L916.37,282.58438919484615L916.37,298.3916752743535L918.6666666666666,293.55389190651476L918.6666666666666,281.86806713975966L920.9633333333334,274.90565016679466L920.9633333333334,286.11073360126466L920.9633333333334,262.60600417200476L923.2600000000001,281.4045009557158L923.2600000000001,304.3519995762035L923.2600000000001,290.6313883960247L925.5566666666666,313.7236711399164L925.5566666666666,272.5438054539263L932.4466666666666,288.98635859414935L934.7433333333333,290.37195256724954L934.7433333333333,306.9064013315365L934.7433333333333,290.9959521498531L937.0400000000001,288.0382182430476L937.0400000000001,295.14523121807724L937.0400000000001,284.6299876347184L939.3366666666666,306.69083847943693L939.3366666666666,296.93130581919104L943.9300000000001,298.6596194682643L943.9300000000001,286.37042025849223L943.9300000000001,292.95256369560957L943.9300000000001,276.3715576501563L946.2266666666667,294.2066883556545L946.2266666666667,277.3965791221708L948.5233333333333,259.1384152304381L950.8199999999999,295.9533388847485L950.8199999999999,302.990883379709L950.8199999999999,277.8635468920693L950.8199999999999,292.7175066322088L953.1166666666667,285.64580766297877L957.7099999999999,267.33664198592305L957.7099999999999,283.5121024288237L960.0066666666667,298.7858037818223L960.0066666666667,270.13817577436566L964.5999999999999,289.6021028403193L966.8966666666666,299.6578639028594L966.8966666666666,295.33082667086273L966.8966666666666,287.6900243461132L966.8966666666666,268.6372711211443L966.8966666666666,290.8571340031922L969.1933333333334,266.9392241053283L969.1933333333334,273.713757365942L971.4899999999999,297.17189651029184L971.4899999999999,233.02638124488294L971.4899999999999,262.5979644600302L971.4899999999999,268.20213656220585L973.7866666666666,302.09855235926807L973.7866666666666,271.8569667432457L973.7866666666666,291.4463828438893L976.0833333333334,259.1139440545812L978.38,305.50066187325865L978.38,263.22131276875734L978.38,286.8685699654743L980.6766666666666,163.08056142926216L980.6766666666666,310.61474378267303L982.9733333333334,261.26822162233293L982.9733333333334,239.53460509702563L987.5666666666667,290.77085781656206L987.5666666666667,288.9365185406059L989.8633333333333,295.97898939438164L992.16,297.8492961502634L992.16,299.29070825502276L994.4566666666667,285.1216378044337L996.7533333333334,272.55808507371694L996.7533333333334,280.2017829269171L999.05,266.50196410529315L999.05,305.65134816616774L1001.3466666666667,288.37135363183916L1005.9399999999999,279.61989172082394L1008.2366666666667,268.0474062105641L1008.2366666666667,257.64283518120646L1010.5333333333333,253.04501763358712L1010.5333333333333,304.81758998986334L1010.5333333333333,289.494281809777L1012.8299999999999,296.50153106823564L1012.8299999999999,255.18844797089696L1012.8299999999999,278.659082332626L1015.1266666666667,277.6736521515995L1015.1266666666667,274.75352051015943L1015.1266666666667,291.38199914060533L1015.1266666666667,287.5881571909413L1015.1266666666667,294.85037137102336L1019.72,313.55071502085775L1022.0166666666667,252.4546994715929L1024.3133333333333,195.93056052736938L1024.3133333333333,276.46229154244065L1024.3133333333333,251.52607093378901L1024.3133333333333,272.7544617494568L1026.61,240.22262314148247L1026.61,305.3587721781805L1026.61,285.48759211599827L1028.9066666666668,300.6222200933844L1028.9066666666668,273.74375116825104L1028.9066666666668,300.84697338799015L1031.2033333333334,283.972799487412L1031.2033333333334,273.6453076014295L1033.5,274.373119359836L1033.5,304.6537638064474L1035.7966666666666,272.6728676939383L1038.0933333333332,282.3355057630688L1038.0933333333332,227.77324136160314L1040.39,278.62962979171425L1042.6866666666667,312.3737355116755L1044.9833333333333,309.251748573035L1044.9833333333333,291.91717904806137L1047.28,264.46272878721356L1049.5766666666668,253.64931178092957L1051.8733333333332,270.0951740965247L1051.8733333333332,215.3901927061379L1054.17,238.92221403121948L1054.17,254.7169960923493L1056.4666666666667,225.9411287382245L1056.4666666666667,233.89318276941776L1056.4666666666667,278.811339603737L1056.4666666666667,272.20525745116174L1058.7633333333333,290.5073559265584L1058.7633333333333,274.2818002011627L1061.06,296.1649676905945L1061.06,247.702503612265L1063.3566666666666,227.56676113978028L1063.3566666666666,268.9589916151017L1063.3566666666666,264.10753809660673L1063.3566666666666,273.8793393485248L1065.6533333333334,279.771590128541L1065.6533333333334,252.41016642004251L1065.6533333333334,215.65748782642186L1070.2466666666667,286.68178637791425L1070.2466666666667,283.81298655923456L1074.8400000000001,273.5802110172808L1074.8400000000001,269.022050768137L1077.1366666666665,276.1627803677693L1077.1366666666665,275.71996693778783L1079.4333333333334,297.07507452741265L1079.4333333333334,272.4650717228651L1079.4333333333334,287.2284735906869L1081.73,287.07404247298837L1081.73,277.48984330147505L1081.73,235.1924389488995L1086.3233333333333,260.0568654136732L1086.3233333333333,265.9055292494595L1086.3233333333333,257.40720605291426L1090.9166666666665,297.6354516930878L1095.51,312.79917137045413L1095.51,302.33948628930375L1095.51,267.1037411671132L1097.8066666666666,286.0281406324357L1097.8066666666666,276.8778834845871L1100.1033333333332,277.464408416301L1104.6966666666667,273.28407502546906L1106.9933333333333,205.0714710149914L1109.29,266.05038928147405L1113.8833333333334,286.290859233588L1118.4766666666667,266.1448107920587L1118.4766666666667,306.9429826810956L1118.4766666666667,283.39996010810137L1118.4766666666667,221.7391800954938L1120.7733333333333,314.9565622913651L1120.7733333333333,198.68462173081934L1120.7733333333333,286.42382911685854L1123.07,274.1227309573442L1123.07,307.6941236858256L1123.07,301.95402676519006L1125.3666666666666,267.33258472569287L1125.3666666666666,282.83596133161336L1127.6633333333334,255.6996627599001L1129.96,289.62503824196756L1129.96,277.55457464419305L1129.96,261.4900771882385L1132.2566666666667,303.2399186287075L1134.5533333333333,295.7701373035088L1136.85,277.20316838286817L1139.1466666666668,240.8997367490083L1141.4433333333334,166.27307076752186L1143.74,289.3190803360194L1143.74,302.40306030074134L1143.74,284.0077174482867L1143.74,288.4360189670697L1146.0366666666666,252.3353227302432L1148.3333333333335,284.5447939708829L1148.3333333333335,275.2802206557244L1150.6299999999999,281.15814341045916L1150.6299999999999,214.79001742601395L1152.9266666666667,287.08269385434687L1152.9266666666667,264.858646097593L1155.2233333333334,274.28680796921253L1155.2233333333334,298.78704912308604L1157.52,285.9480691496283L1157.52,312.75350299011916L1159.8166666666666,307.81822876352817L1159.8166666666666,280.7896192073822L1162.1133333333335,298.9575640652329L1162.1133333333335,272.9172406140715L1164.4099999999999,304.0235815225169L1164.4099999999999,287.4770665895194L1166.7066666666667,248.55798705294728L1166.7066666666667,271.73646347410977L1166.7066666666667,263.0080425767228L1166.7066666666667,277.48601486720145L1166.7066666666667,277.1749435812235L1169.0033333333333,299.76243516476825L1169.0033333333333,305.09852005681023L1171.3,279.4081353005022L1171.3,282.84933884907514L1173.5966666666666,298.241844878532L1173.5966666666666,287.6508070975542L1173.5966666666666,297.48444856423885L1175.8933333333334,314.0989028038457L1175.8933333333334,297.23828904144466L1175.8933333333334,299.8240619553253L1180.4866666666667,291.3376861140132L1182.7833333333333,308.18657254613936L1182.7833333333333,298.3558310084045L1182.7833333333333,300.9637956395745L1185.08,304.8684509592131L1185.08,299.987747322768L1185.08,311.32123952312395L1185.08,305.0054054944776L1185.08,288.8954398809001L1187.3766666666668,284.1953283296898L1187.3766666666668,246.38583905808628L1187.3766666666668,242.51340859383345L1189.6733333333332,257.27607997879386L1189.6733333333332,296.150745277293L1189.6733333333332,196.89028299227357L1189.6733333333332,216.9800050444901L1189.6733333333332,297.64509318675846L1191.97,186.382058205083L1196.5633333333333,290.39645894709975L1196.5633333333333,262.5381792783737L1201.1566666666668,301.1168758040294L1203.4533333333334,297.0595759693533L1203.4533333333334,281.647329300642L1205.75,277.2789273764938L1205.75,285.9253625739366L1210.3433333333332,292.2825348917395L1210.3433333333332,281.99268487561494L1212.64,267.58851775713265L1212.64,285.97848539985716L1212.64,273.2215263303369L1212.64,295.94984488841146L1214.9366666666667,237.12222505174577L1214.9366666666667,299.6308008329943L1214.9366666666667,312.421730655944L1214.9366666666667,314.24071769043803L1217.2333333333333,291.14743933361024L1217.2333333333333,268.2376705929637L1217.2333333333333,220.45646979287267L1217.2333333333333,269.51139947678894L1219.53,273.0871658893302L1219.53,278.8866893509403L1219.53,292.0549014704302L1219.53,286.74442748352885L1221.8266666666668,289.932122675702L1221.8266666666668,286.3061993736774L1221.8266666666668,298.7578122066334L1224.1233333333332,298.86311175115407L1226.42,303.7842867784202L1228.7166666666667,273.60333123989403L1228.7166666666667,297.9304127516225L1228.7166666666667,300.8846328598447L1228.7166666666667,294.0387103012763L1231.0133333333333,178.02154104039073L1231.0133333333333,279.7025110926479L1231.0133333333333,279.8869624156505L1233.31,259.32717904262245L1233.31,275.2681720890105L1233.31,256.7539519518614L1233.31,275.9346584910527L1235.6066666666666,289.27885977365077L1235.6066666666666,291.45440935436636L1237.9033333333334,225.6066379956901L1237.9033333333334,255.3221879415214L1237.9033333333334,285.7525109667331L1240.2,269.9050461295992L1240.2,259.309277812019L1240.2,264.33530793339014L1242.4966666666667,296.62461963063106L1242.4966666666667,304.45500206016004L1242.4966666666667,300.05909261573106L1244.7933333333333,305.4223461896181L1247.0900000000001,284.3751283250749L1247.0900000000001,308.03304573101923L1249.3866666666665,280.29885793849826L1251.6833333333334,261.8939462006092L1251.6833333333334,267.86788344662637L1253.98,275.14037279225886L1256.2766666666666,267.4444366134703L1256.2766666666666,199.8818303346634L1256.2766666666666,253.51661032810807L1256.2766666666666,240.63157913088799L1258.5733333333333,247.9846900217235L1260.8700000000001,273.93762836046517L1263.1666666666665,287.8076760917902L1263.1666666666665,241.62130419909954L1263.1666666666665,242.5625797715038L1263.1666666666665,269.91594616603106" style="fill: none;" fill="none"></path></g></g></g></g></g></g><g transform="translate(70, 378)" clip-path="url(#clip_1)"><clipPath id="clip_1"><rect width="1378" height="22"></rect></clipPath><g><g><line x1="0" y1="0" x2="0" y2="5" style="visibility: inherit;" fill="rgb(0, 0, 0)" stroke="rgb(204, 204, 204)" stroke-width="1px"></line><line x1="114.83333333333333" y1="0" x2="114.83333333333333" y2="5" style="visibility: inherit;" fill="rgb(0, 0, 0)" stroke="rgb(204, 204, 204)" stroke-width="1px"></line><line x1="229.66666666666666" y1="0" x2="229.66666666666666" y2="5" style="visibility: inherit;" fill="rgb(0, 0, 0)" stroke="rgb(204, 204, 204)" stroke-width="1px"></line><line x1="344.5" y1="0" x2="344.5" y2="5" style="visibility: inherit;" fill="rgb(0, 0, 0)" stroke="rgb(204, 204, 204)" stroke-width="1px"></line><line x1="459.3333333333333" y1="0" x2="459.3333333333333" y2="5" style="visibility: inherit;" fill="rgb(0, 0, 0)" stroke="rgb(204, 204, 204)" stroke-width="1px"></line><line x1="574.1666666666667" y1="0" x2="574.1666666666667" y2="5" style="visibility: inherit;" fill="rgb(0, 0, 0)" stroke="rgb(204, 204, 204)" stroke-width="1px"></line><line x1="689" y1="0" x2="689" y2="5" style="visibility: inherit;" fill="rgb(0, 0, 0)" stroke="rgb(204, 204, 204)" stroke-width="1px"></line><line x1="803.8333333333334" y1="0" x2="803.8333333333334" y2="5" style="visibility: inherit;" fill="rgb(0, 0, 0)" stroke="rgb(204, 204, 204)" stroke-width="1px"></line><line x1="918.6666666666666" y1="0" x2="918.6666666666666" y2="5" style="visibility: inherit;" fill="rgb(0, 0, 0)" stroke="rgb(204, 204, 204)" stroke-width="1px"></line><line x1="1033.5" y1="0" x2="1033.5" y2="5" style="visibility: inherit;" fill="rgb(0, 0, 0)" stroke="rgb(204, 204, 204)" stroke-width="1px"></line><line x1="1148.3333333333335" y1="0" x2="1148.3333333333335" y2="5" style="visibility: inherit;" fill="rgb(0, 0, 0)" stroke="rgb(204, 204, 204)" stroke-width="1px"></line><line x1="1263.1666666666665" y1="0" x2="1263.1666666666665" y2="5" style="visibility: inherit;" fill="rgb(0, 0, 0)" stroke="rgb(204, 204, 204)" stroke-width="1px"></line><line x1="1378" y1="0" x2="1378" y2="5" style="visibility: inherit;" fill="rgb(0, 0, 0)" stroke="rgb(204, 204, 204)" stroke-width="1px"></line></g><g transform="translate(0, 8)"><text x="0" y="0" dx="0em" dy="0.95em" style="text-anchor: middle; visibility: hidden; font-family: &quot;Helvetica Neue&quot;, sans-serif; font-size: 12px; font-weight: 200;" fill="rgb(50, 49, 63)" stroke="none" stroke-width="1px">-50</text><text x="114.83333333333333" y="0" dx="0em" dy="0.95em" style="text-anchor: middle; visibility: inherit; font-family: &quot;Helvetica Neue&quot;, sans-serif; font-size: 12px; font-weight: 200;" fill="rgb(50, 49, 63)" stroke="none" stroke-width="1px">0</text><text x="229.66666666666666" y="0" dx="0em" dy="0.95em" style="text-anchor: middle; visibility: inherit; font-family: &quot;Helvetica Neue&quot;, sans-serif; font-size: 12px; font-weight: 200;" fill="rgb(50, 49, 63)" stroke="none" stroke-width="1px">50</text><text x="344.5" y="0" dx="0em" dy="0.95em" style="text-anchor: middle; visibility: inherit; font-family: &quot;Helvetica Neue&quot;, sans-serif; font-size: 12px; font-weight: 200;" fill="rgb(50, 49, 63)" stroke="none" stroke-width="1px">100</text><text x="459.3333333333333" y="0" dx="0em" dy="0.95em" style="text-anchor: middle; visibility: inherit; font-family: &quot;Helvetica Neue&quot;, sans-serif; font-size: 12px; font-weight: 200;" fill="rgb(50, 49, 63)" stroke="none" stroke-width="1px">150</text><text x="574.1666666666667" y="0" dx="0em" dy="0.95em" style="text-anchor: middle; visibility: inherit; font-family: &quot;Helvetica Neue&quot;, sans-serif; font-size: 12px; font-weight: 200;" fill="rgb(50, 49, 63)" stroke="none" stroke-width="1px">200</text><text x="689" y="0" dx="0em" dy="0.95em" style="text-anchor: middle; visibility: inherit; font-family: &quot;Helvetica Neue&quot;, sans-serif; font-size: 12px; font-weight: 200;" fill="rgb(50, 49, 63)" stroke="none" stroke-width="1px">250</text><text x="803.8333333333334" y="0" dx="0em" dy="0.95em" style="text-anchor: middle; visibility: inherit; font-family: &quot;Helvetica Neue&quot;, sans-serif; font-size: 12px; font-weight: 200;" fill="rgb(50, 49, 63)" stroke="none" stroke-width="1px">300</text><text x="918.6666666666666" y="0" dx="0em" dy="0.95em" style="text-anchor: middle; visibility: inherit; font-family: &quot;Helvetica Neue&quot;, sans-serif; font-size: 12px; font-weight: 200;" fill="rgb(50, 49, 63)" stroke="none" stroke-width="1px">350</text><text x="1033.5" y="0" dx="0em" dy="0.95em" style="text-anchor: middle; visibility: inherit; font-family: &quot;Helvetica Neue&quot;, sans-serif; font-size: 12px; font-weight: 200;" fill="rgb(50, 49, 63)" stroke="none" stroke-width="1px">400</text><text x="1148.3333333333335" y="0" dx="0em" dy="0.95em" style="text-anchor: middle; visibility: inherit; font-family: &quot;Helvetica Neue&quot;, sans-serif; font-size: 12px; font-weight: 200;" fill="rgb(50, 49, 63)" stroke="none" stroke-width="1px">450</text><text x="1263.1666666666665" y="0" dx="0em" dy="0.95em" style="text-anchor: middle; visibility: inherit; font-family: &quot;Helvetica Neue&quot;, sans-serif; font-size: 12px; font-weight: 200;" fill="rgb(50, 49, 63)" stroke="none" stroke-width="1px">500</text><text x="1378" y="0" dx="0em" dy="0.95em" style="text-anchor: middle; visibility: hidden; font-family: &quot;Helvetica Neue&quot;, sans-serif; font-size: 12px; font-weight: 200;" fill="rgb(50, 49, 63)" stroke="none" stroke-width="1px">550</text></g><line x1="0" y1="0" x2="1378" y2="0" fill="rgb(0, 0, 0)" stroke="rgb(204, 204, 204)" stroke-width="1px"></line></g></g></g></g></svg>