<svg viewBox="0 0 1448 400" xmlns="http://www.w3.org/2000/svg"><g><g><g><g><g><line x1="58" y1="334.3690936123266" x2="53" y2="334.3690936123266" style="visibility: inherit;" fill="rgb(0, 0, 0)" stroke="rgb(204, 204, 204)" stroke-width="1px"></line><line x1="58" y1="274.96782019572413" x2="53" y2="274.96782019572413" style="visibility: inherit;" fill="rgb(0, 0, 0)" stroke="rgb(204, 204, 204)" stroke-width="1px"></line><line x1="58" y1="223.51209666678812" x2="53" y2="223.51209666678812" style="visibility: inherit;" fill="rgb(0, 0, 0)" stroke="rgb(204, 204, 204)" stroke-width="1px"></line><line x1="58" y1="178.12493189591245" x2="53" y2="178.12493189591245" style="visibility: inherit;" fill="rgb(0, 0, 0)" stroke="rgb(204, 204, 204)" stroke-width="1px"></line><line x1="58" y1="137.5247295165386" x2="53" y2="137.5247295165386" style="visibility: inherit;" fill="rgb(0, 0, 0)" stroke="rgb(204, 204, 204)" stroke-width="1px"></line></g><g transform="translate(48, 0)"><text x="0" y="334.3690936123266" dx="0em" dy="0.3em" style="text-anchor: end; visibility: inherit; font-family: &quot;Helvetica Neue&quot;, sans-serif; font-size: 12px; font-weight: 200;" fill="rgb(50, 49, 63)" stroke="none" stroke-width="1px">0.06</text><text x="0" y="274.96782019572413" dx="0em" dy="0.3em" style="text-anchor: end; visibility: inherit; font-family: &quot;Helvetica Neue&quot;, sans-serif; font-size: 12px; font-weight: 200;" fill="rgb(50, 49, 63)" stroke="none" stroke-width="1px">0.07</text><text x="0" y="223.51209666678812" dx="0em" dy="0.3em" style="text-anchor: end; visibility: inherit; font-family: &quot;Helvetica Neue&quot;, sans-serif; font-size: 12px; font-weight: 200;" fill="rgb(50, 49, 63)" stroke="none" stroke-width="1px">0.08</text><text x="0" y="178.12493189591245" dx="0em" dy="0.3em" style="text-anchor: end; visibility: inherit; font-family: &quot;Helvetica Neue&quot;, sans-serif; font-size: 12px; font-weight: 200;" fill="rgb(50, 49, 63)" stroke="none" stroke-width="1px">0.09</text><text x="0" y="137.5247295165386" dx="0em" dy="0.3em" style="text-anchor: end; visibility: inherit; font-family: &quot;Helvetica Neue&quot;, sans-serif; font-size: 12px; font-weight: 200;" fill="rgb(50, 49, 63)" stroke="none" stroke-width="1px">0.1</text></g><line x1="58" y1="0" x2="58" y2="378" fill="rgb(0, 0, 0)" stroke="rgb(204, 204, 204)" stroke-width="1px"></line></g></g><g transform="translate(58, 0)" clip-path="url(#clip_0)"><clipPath id="clip_0"><rect width="1390" height="378"></rect></clipPath><g><g><g><line x1="0" y1="0" x2="0" y2="378" fill="rgb(0, 0, 0)" stroke="rgb(60, 60, 60)" stroke-width="1px" opacity="0.25"></line><line x1="154.44444444444446" y1="0" x2="154.44444444444446" y2="378" fill="rgb(0, 0, 0)" stroke="rgb(60, 60, 60)" stroke-width="1px" opacity="0.25"></line><line x1="308.8888888888889" y1="0" x2="308.8888888888889" y2="378" fill="rgb(0, 0, 0)" stroke="rgb(60, 60, 60)" stroke-width="1px" opacity="0.25"></line><line x1="463.33333333333337" y1="0" x2="463.33333333333337" y2="378" fill="rgb(0, 0, 0)" stroke="rgb(60, 60, 60)" stroke-width="1px" opacity="0.25"></line><line x1="617.7777777777778" y1="0" x2="617.7777777777778" y2="378" fill="rgb(0, 0, 0)" stroke="rgb(60, 60, 60)" stroke-width="1px" opacity="0.25"></line><line x1="772.2222222222223" y1="0" x2="772.2222222222223" y2="378" fill="rgb(0, 0, 0)" stroke="rgb(60, 60, 60)" stroke-width="1px" opacity="0.25"></line><line x1="926.6666666666666" y1="0" x2="926.6666666666666" y2="378" fill="rgb(0, 0, 0)" stroke="rgb(60, 60, 60)" stroke-width="1px" opacity="0.25"></line><line x1="1081.111111111111" y1="0" x2="1081.111111111111" y2="378" fill="rgb(0, 0, 0)" stroke="rgb(60, 60, 60)" stroke-width="1px" opacity="0.25"></line><line x1="1235.5555555555554" y1="0" x2="1235.5555555555554" y2="378" fill="rgb(0, 0, 0)" stroke="rgb(60, 60, 60)" stroke-width="1px" opacity="0.25"></line><line x1="1390" y1="0" x2="1390" y2="378" fill="rgb(0, 0, 0)" stroke="rgb(60, 60, 60)" stroke-width="1px" opacity="0.25"></line></g><g><line x1="0" y1="334.3690936123266" x2="1390" y2="334.3690936123266" fill="rgb(0, 0, 0)" stroke="rgb(60, 60, 60)" stroke-width="1px" opacity="0.25"></line><line x1="0" y1="274.96782019572413" x2="1390" y2="274.96782019572413" fill="rgb(0, 0, 0)" stroke="rgb(60, 60, 60)" stroke-width="1px" opacity="0.25"></line><line x1="0" y1="223.51209666678812" x2="1390" y2="223.51209666678812" fill="rgb(0, 0, 0)" stroke="rgb(60, 60, 60)" stroke-width="1px" opacity="0.25"></line><line x1="0" y1="178.12493189591245" x2="1390" y2="178.12493189591245" fill="rgb(0, 0, 0)" stroke="rgb(60, 60, 60)" stroke-width="1px" opacity="0.25"></line><line x1="0" y1="137.5247295165386" x2="1390" y2="137.5247295165386" fill="rgb(0, 0, 0)" stroke="rgb(60, 60, 60)" stroke-width="1px" opacity="0.25"></line></g></g></g><g><g><line x1="154.44444444444446" y1="0" x2="154.44444444444446" y2="378" fill="rgb(0, 0, 0)" stroke="rgb(153, 153, 153)" stroke-width="1.5px"></line></g></g><g><g><g><g><g><path stroke="rgb(255, 112, 67)" stroke-width="2px" d="M178.62379475308643,-0.6478052903602247L179.54381172839504,2.1176315754302095L180.52281790123456,7.519987959355831L182.2534537037037,6.420003192287254L183.10268364197532,10.588597511079115L183.6715540123457,11.55199315227651L184.58856790123454,13.39849881800859L186.95328395061728,14.063257663091008L187.01441820987657,15.882265112074492L187.61374845679012,18.50358900846129L188.4237237654321,21.607726184447927L189.24785648148148,23.802371380481702L190.8530061728395,26.59320301811465L192.54953549382716,28.403457551650376L192.74366358024693,30.674090550501603L193.6731188271605,32.092032087308326L194.1924382716049,32.823439553893024L194.3915,35.62003709867844L195.80016203703704,38.830077670786125L197.7712592592593,41.61414848257829L198.04561265432102,41.90606973132054L199.88864969135804,44.83438982366522L200.8695864197531,48.351091393258116L201.26063117283948,50.30767574693937L202.1109336419753,52.15938743153259L205.2991388888889,54.946415650196684L205.66101080246915,54.00000000000006L206.06985956790123,53.61288650978656L207.8873703703704,54.42914795409422L208.15078395061727,55.8682120715406L208.60339197530865,57.34268480284436L211.0558410493827,58.4128370981108L211.18454475308644,59.09143397786022L213.1882469135803,60.68894544429372L213.2103410493827,61.675106541847185L214.08874382716053,63.88804580318151L214.67906481481486,65.78574215804554L217.51633796296295,68.41190493042683L218.27375925925924,68.82582990261233L218.4153333333333,70.5071492845359L221.20112500000002,71.85992144820483L224.7119475308642,73.4097144194825L226.62319753086422,74.0245130247306L227.10926851851852,75.96194452496809L227.52283641975308,76.21608527425786L230.3094861111111,77.90461719711999L231.8410601851852,78.85114898067451L233.6753024691358,80.63608744732278L237.2202314814815,82.00282744633233L238.3860725308642,83.42774518094393L238.5381574074074,84.21162446341253L239.49464043209875,86.32234587091153L240.6313086419753,87.22257875696533L250.02389043209877,88.45914798336656L250.51746913580246,90.60677071460293L251.13631944444444,91.61319623485718L252.2521805555556,92.88605396708283L252.45832098765433,94.35048872967604L252.4926419753086,95.32221926792226L253.4405447530864,96.23468018031559L253.76916820987657,97.36249366338876L254.70377160493825,99.18110471354277L255.07980092592598,100.4974637928292L255.98737654320985,101.66198137975425L256.00089043209874,103.01176040639325L256.29283333333336,104.51098825002788L257.54018672839504,106.06360005318874L257.83684876543214,106.92000784813325L258.5856898148148,108.14643166974463L261.1490385802469,109.24146013958881L262.98735648148147,110.54354994893794L263.3309953703704,111.6342706781868L263.4444691358025,112.69686894632679L267.1573564814815,114.01655528539243L267.8982608024691,115.35936623304843L268.40320833333334,116.2591981449728L268.69407870370367,116.98438490516361L269.73293209876545,118.24371969508655L269.86120679012345,118.72900783521465L272.0480972222222,119.52066403385516L272.8023009259259,120.97578764297003L272.8134552469136,122.3691047464967L272.99900308641975,123.50429958555674L274.2939768518519,124.17102380545279L274.8997422839506,125.47248369854134L275.7197993827161,126.4490158973139L277.4633055555555,127.37346144093934L278.08580246913584,127.7148722688095L280.04252777777776,128.70127598276446L280.2218549382716,129.70192531492805L280.58158179012344,130.77525201085825L284.8504691358025,131.53929938559887L284.8543302469136,132.65222285733452L288.3246111111111,133.31864337844067L288.8023163580247,133.6121058500208L290.5250154320987,133.71550660729486L292.96395061728396,134.72369880737185L293.3800925925926,135.82068561007247L295.4039583333333,136.6832119078334L295.5174320987655,137.00619754798973L295.8068009259259,137.93473527162917L296.4466728395062,138.86367579377912L296.85380555555554,139.51055225204414L297.7277037037037,140.65165107092184L299.4789320987654,141.94265681124202L300.26209413580244,142.4948492651115L300.3762114197531,143.2885047166784L301.2074228395062,143.822290002957L302.4768703703704,144.0329526295648L303.1864567901235,144.90546177439262L303.79072067901234,145.61683386544303L303.8589336419753,146.59507840823355L307.0432777777778,147.15642436873773L307.2082330246913,147.6239711206644L309.2687793209877,148.54879939967236L309.4841435185185,149.36692570827694L311.78214814814817,149.63605684157113L312.4376790123457,150.17962007160682L312.981237654321,150.78765556891474L313.46001543209877,151.21438523484244L314.03317592592595,151.9501360986621L314.0679259259259,152.797913151909L314.82105709876544,153.66978246182384L315.5979984567901,154.58010636469226L316.6389969135803,155.42344695128634L316.755688271605,156.2090107171992L318.2846882716049,157.26611066370825L318.34303395061727,157.97493586679192L318.5006959876543,158.34510822615502L318.9142638888889,159.20568005025225L319.0727839506173,160.0270812718455L319.24589043209875,160.19356619339024L319.7634938271605,160.866167247961L321.3306759259259,161.4578373294469L322.0505586419753,161.55022522551272L322.3821851851852,162.13354640080473L326.0566759259259,162.78969006915466L326.56848765432096,163.01360687032488L327.95226697530865,163.6217660772094L328.8583410493827,164.1995816036596L329.2159228395062,164.90752627389085L332.2631975308642,164.97373462625103L332.38911265432097,165.93353350566036L333.17377623456787,166.4447311542102L334.9374459876543,167.153418403617L336.4771712962963,167.62899391165027L337.7504799382716,168.49035798834595L338.2642222222222,169.0161948609797L341.31492901234566,168.9873503469869L342.5324660493827,169.32381738527693L343.0710910493827,170.090860722157L343.950137345679,170.36106154225723L345.24596913580245,170.83275869423224L347.30780246913577,171.14694438349719L348.4446851851852,171.36122911329008L348.9187438271604,172.02654351666118L350.27292129629626,172.59202527349782L351.2107422839506,173.32056326439354L351.97138117283953,174.05391529795807L352.42549074074077,174.687468055909L352.7588333333333,174.78650855401065L353.86718672839504,175.26301758280056L355.1655925925926,176.23040827293212L356.28660185185186,176.79368897343093L359.2774614197531,177.40148960912734L360.75455092592586,178.07391578027017L360.82555246913586,178.5119695802411L361.72261728395057,178.65474918616144L365.3185987654321,179.04553484941025L365.7883672839506,179.62344556874825L366.06765432098763,180.06499993707783L366.1929259259259,180.91124899072705L366.4376774691358,181.49672336715759L367.3759274691358,182.11272073359183L367.6876049382716,182.74236671765817L368.19705709876547,183.16319622467427L368.23009104938274,183.38875977623695L368.44974537037035,184.03892161840415L368.69642746913587,184.32845442214648L371.43738734567904,184.627006105738L372.0959212962963,185.07374089153123L374.09855092592596,185.36060864090678L374.68286574074074,185.94365235316587L375.37893827160497,186.15320540628673L378.6973487654321,186.79255724346245L378.76706327160497,187.3350949903991L379.09439969135803,187.29742985398397L383.43450308641974,187.99328247195825L385.1031466049382,188.48419820716987L385.4047422839506,188.93050998550984L385.5763472222222,189.06870012913777L386.6559567901234,189.84600794374376L387.3732654320988,190.45617193714537L387.8505416666667,191.23637250400205L389.511462962963,191.62296397385094L392.99289814814813,191.99754786460724L393.3509089506173,192.3762437680886L394.07701234567907,192.92908388498188L396.5920972222222,193.50897172137203L396.84564351851856,193.63012194634095L397.41022376543214,194.27681975947056L397.56488271604934,194.73342038959174L400.85497839506183,195.44350066460578L401.5592021604937,195.56571192140805L402.20550925925926,195.822198902784L402.6692716049383,196.16913988266109L405.3381574074074,196.67336935603058L406.34483487654325,197.14906018938362L407.848737654321,197.51458172993287L408.09520524691357,198.07741858334293L409.8101820987654,198.22277726087037L410.82222222222225,198.84167164390743L410.964225308642,199.28416590138278L411.81667283950617,199.7196260009177L411.8816682098766,199.59773429730555L413.48617438271606,200.15370362530774L414.6713209876543,200.8830245953636L414.7197993827161,200.9860388321436L415.37575925925927,201.3630694571949L415.5911234567901,201.19631931609294L416.78184722222227,201.5942157994781L420.1124845679012,202.02415016694445L421.01791512345676,201.9458833313265L421.22448456790124,202.13077676000844L422.83113580246913,202.50857861082446L423.9495709876542,202.7608139455739L423.9821759259259,203.00660409309285L425.068649691358,203.02950301703638L427.74761728395055,203.45328019823032L428.48466049382716,203.8801851326653L428.5460092592593,204.10116794645296L428.9520694444445,204.29152485752573L429.92592746913584,204.50905279145704L430.06492746913574,204.72208237990202L432.69756172839504,205.2591923106457L433.50753703703697,205.4059052889478L438.0786635802469,205.89780780161544L439.4933317901234,206.4268540422524L439.62825617283943,206.88517020933858L439.71641820987657,207.24732735953611L442.26089043209873,207.60227851761925L442.4854783950617,208.00755091641682L443.33556635802466,208.31672525809245L444.25365277777775,208.80107994628864L446.9991172839507,209.01958831587444L447.0342962962963,209.45738250350877L447.1411203703703,209.7750944240857L447.54417746913583,210.22292376177333L448.4751342592593,210.50602760667738L451.87419907407406,211.00756745111164L452.3555509259259,211.21103816354986L454.13874074074073,211.59434016468836L456.45883950617275,212.1214402476339L458.5374043209877,212.49373735654783L460.1329012345679,213.15987404157875L463.09372993827157,213.55891764533672L464.05986574074075,214.0748550734766L464.9223950617284,214.2614036915813L468.28477932098764,214.61344417083274L469.9032283950618,214.83977468410671L471.8046111111111,215.1125807909749L473.359137345679,215.00138559994787L473.54618672839507,215.56350572732939L475.5546080246914,215.8847081547789L479.4037067901235,216.25733708411352L480.25701234567896,216.5774766859647L480.46208024691356,217.22821442462322L482.4859459876543,217.6816524432039L486.5920231481482,217.86846296707967L486.9989413580247,218.11065236738287L487.19971913580247,218.50898418644957L488.1958858024692,218.7458675993326L491.0121373456791,219.20059887775142L491.0784197530864,219.8015371293642L492.29037962962957,220.36064001533774L493.6308287037037,220.7433515145257L493.9774706790123,221.18152542627894L494.45839351851856,221.22614101538272L497.3409274691358,221.63125387988765L497.8604614197531,221.9228649672939L498.1865108024691,222.39495794606896L500.0379135802468,222.7431785658289L502.17546759259255,223.13690887571934L502.7872391975309,223.55677932033223L504.58501543209877,224.10529872520655L504.80402623456797,224.48592403639654L504.8973364197531,224.8248621881383L505.03440586419754,225.36467119026887L505.14916666666664,225.8841130648041L506.41175000000004,225.83858005204445L506.4203302469136,226.02453110075075L506.7723348765432,226.15239241421983L506.78070061728397,226.61143287080478L507.41799845679014,226.88816634851258L508.3798441358025,227.29950357487806L509.1271836419753,227.5175813205914L509.72286728395056,227.71966977803237L510.77244598765435,227.9792659259709L513.7585864197531,228.1934466215938L514.3699290123458,228.52583528463376L515.7803070987654,228.78970433663585L522.263112654321,229.17244592546587L525.9324552469135,229.5482010104431L527.3243858024692,229.91932541972886L527.9865663580247,230.33955357450276L528.1845555555556,230.58622911628618L528.9080848765432,230.912962948537L529.4038086419753,231.42541435779208L529.438987654321,231.77104905420913L530.7090787037038,232.15793837041753L532.4508688271605,232.51213693942998L534.5028348765433,232.9064479622702L535.5715046296297,233.17028529217512L536.0710895061728,233.2887668632629L538.8937762345678,233.39716122273148L539.203737654321,233.54604309282158L539.5578873456791,233.7090368795912L539.6226682098766,234.0611295754403L539.8077870370371,234.45204880726047L539.9433549382717,234.82218371770335L542.8464814814815,235.28103597469462L544.8053518518518,235.42773402016005L545.0490308641976,235.6745383945019L545.3313209876544,235.98489703863345L545.5895864197531,236.36631350383928L546.6867854938271,236.6956213252713L546.7565,237.05415715657116L547.6902453703703,237.40411375496367L547.8090817901235,237.56945902757064L547.9914120370371,237.86758124437932L549.9423456790124,238.13727089708783L550.0292206790124,238.5251115668145L550.4837592592593,238.8219933290786L551.7993256172839,238.7646215238928L552.2813209876543,239.08201653319642L558.6382114197531,239.38598111622844L558.7909398148148,239.4897782754866L559.1442314814815,239.5217582790834L561.0647052469135,239.4579833051705L563.1923919753086,239.61090702996967L565.9273456790123,239.78708864271064L566.8810401234567,240.12254202784084L567.2289691358025,240.3713169168582L567.7871141975309,240.22449586401527L569.1738966049381,240.50224362574758L569.5548595679013,240.81677256077708L571.2882839506173,240.94850507407364L571.429,241.3530978850531L571.5688580246913,241.7495547722522L572.069086419753,242.02308476873657L573.8973225308642,242.3250341472117L577.4401064814815,242.44019420727074L578.0447993827161,242.71025863470365L578.6632206790124,242.87429293522507L580.5978518518517,243.2563412087293L580.8891512345679,243.61778176586887L581.9275756172839,243.65171898096594L582.9106574074074,243.8372071751892L584.3336913580248,244.01497742704595L587.2423950617284,244.28639003921597L587.8741157407408,244.52385044854296L590.3641033950618,244.9293307981414L590.4325308641976,245.23778910283926L592.3439953703704,245.41077981628138L593.499325617284,245.69995831625064L593.9845385802469,245.86313348521733L594.9217160493827,245.93046380672L595.9316111111111,246.06463073955192L599.2474475308642,246.3207728956731L600.1374336419752,246.50770200662316L601.6857391975308,246.62606056413853L601.7814089506174,246.86319826019692L602.0890108024691,247.05933981913617L602.1025246913581,247.3028702314382L604.0225694444445,247.63346913175837L607.069200617284,248.00996257060544L607.5170895061729,248.2127368284215L609.0261404320988,248.45249504699032L609.4624459876543,248.65019813640424L610.7827314814815,248.85251228989236L613.0065169753087,249.09364098808638L616.0222592592593,249.10985714353612L617.3530555555556,249.33749399559426L618.7258950617285,249.70484751976565L619.3413132716049,249.90462850471752L620.0208688271606,250.39426307588448L620.2804212962963,250.59891640626427L620.4395848765432,250.925205427945L620.7821512345679,251.24728800733163L623.0606358024692,251.48040931958926L623.4246527777779,251.67666822414742L624.8940200617283,251.80098906520647L626.1300046296296,252.01741939151594L626.4569120370371,252.32483465330841L629.5179151234568,252.53371594596317L630.5205169753085,252.76874858601576L631.328776234568,253.05005998445057L632.3155046296296,253.33842259143253L632.8807283950617,253.71732333043832L633.3736635802469,254.0204760901757L634.4080123456789,254.2701644334387L635.4968456790124,254.69659317161017L635.7986558641976,254.97404901495602L635.9957870370371,254.75921098505586L638.4503811728396,254.8646893523255L640.6552901234568,255.19147665262363L641.1381435185185,255.51036849329552L641.1486543209876,255.7977655278495L642.5343641975309,255.93149702035092L646.0209475308642,256.1730873918709L646.1251975308642,256.3721612317166L647.3073410493827,256.41433224124313L647.5812654320988,256.6148036109878L648.0724845679011,256.99178773052245L648.3981049382717,257.1019544057999L648.703561728395,257.1797010447584L648.9927160493827,257.3495914346962L649.4644151234569,257.7492090411944L649.9058688271605,258.03167109303814L650.3998765432099,258.1413360991691L652.5385030864198,258.1740709317418L652.6348163580248,258.43250633872765L655.4677993827161,258.57701258398777L655.6012222222223,258.8200283167005L656.283137345679,259.0183991421471L657.4543410493826,259.31303996736693L657.5804706790124,259.51192699994493L657.8370200617285,259.57895372643924L657.9899629629629,259.69342332563315L658.0335077160494,259.624617122097L658.8900308641976,259.9290839956352L660.2918287037037,260.05583456021475L662.3247037037037,260.1632671117065L664.0287407407408,260.1934631453911L664.2672716049383,260.4247066945539L666.6437854938271,260.5700626869216L666.8941141975308,260.7297327521235L666.9603966049382,260.95020343451137L667.0386913580247,261.2160743919369L667.1054027777778,261.4276820228739L667.8992901234568,261.6505275399102L669.6998549382716,261.7274308838697L670.6767160493828,262.02966793631646L671.3577731481481,262.28990009941094L671.4163333333333,262.3388749694002L673.4204645061727,262.61470231000845L673.687524691358,262.83257050466693L674.2137083333332,262.91179094199714L675.1721219135803,263.0634251925524L675.6614104938271,263.19760135260753L677.7820185185185,263.5084900831507L681.3958040123457,263.6884418542129L684.3667145061728,263.9079905621815L684.9868518518518,264.12855628777055L688.2591435185184,264.1134031085928L688.2636481481481,264.32088250480456L688.5613827160494,264.36676055858726L689.448151234568,264.38813126731156L691.2952638888888,264.33350967301385L692.3954660493827,264.51235609039725L693.1511712962964,264.6655479152003L693.2981080246913,264.8159787249999L694.1273888888888,264.89760898386896L694.8163827160492,265.07503634113505L695.129561728395,265.23692383432467L695.5538549382716,265.6510671911363L697.8945462962963,265.9982262405557L698.0755895061727,266.0964087784046L698.4569814814814,266.3895709076222L700.2318055555555,266.63200484115873L701.2457762345678,266.77275946634245L705.0953040123457,266.9189941603833L705.272486111111,266.8872276933565L706.2905324074075,266.83056316192636L708.1136203703703,267.0984418432858L709.5433040123456,267.47379997880967L710.2168533950618,267.5085526062916L711.5592330246914,267.59607173922865L713.1892654320986,267.6694627759815L713.9711404320987,267.8379671569692L717.0304274691357,268.1195425714071L718.8878364197531,268.33322191822293L718.9408194444443,268.6037427738608L720.199112654321,268.81021130579165L720.6877577160494,269.06908476587887L721.3928395061728,269.26808064502575L724.7342021604939,269.42266498808306L724.8959398148148,269.4195729236304L725.2475154320988,269.7144315189037L725.4354228395061,269.9124810703753L726.4719166666666,270.07908219315624L726.5345524691359,270.21872038188604L726.6164938271604,270.27378475693484L727.0673858024691,270.4789692453222L729.3439398148148,270.7938691721106L730.2633132716049,270.8020364735392L730.9900601851851,270.9505866480858L732.0797515432099,271.2672659748016L732.2078117283952,271.4206309175289L734.5098919753087,271.6932432792636L735.7100540123457,271.83847207334725L735.8276033950617,272.0325497499062L736.0717114197532,272.3502960789925L737.3999336419753,272.5829661232673L738.072839506173,272.79473453331053L740.2161851851853,272.96959467921954L746.1093132716048,272.9525132616453L746.1138179012347,273.0404870803097L746.7798595679012,273.22721933962873L746.9476033950616,273.45689728381353L747.1509552469136,273.5832027693369L749.3485709876544,273.7292236044261L751.1424861111111,273.7799074763798L753.0359320987654,273.9537196324521L753.0891296296296,274.15589332309366L753.5453842592592,274.1474216185255L755.2929660493828,274.26972183473663L758.0017499999999,274.5572022833339L758.1128641975309,274.56577615689736L758.2660216049383,274.5953618583815L760.8563981481481,274.6853458152528L763.5218518518518,274.9508297138004L763.89037345679,275.13039337120244L764.935662037037,275.20213791598087L766.2773981481481,275.1960815531712L772.0572669753087,275.2861717989398L773.3116990740741,275.5846431855084L774.4324938271606,275.6429483746247L774.6448549382715,275.86608599733836L775.244614197531,276.10126990328365L776.658424382716,276.2458457039387L777.4450185185186,276.36229525360073L777.8446435185185,276.50988377209933L778.5507978395061,276.637285707468L778.6891543209877,276.8676580374306L778.986888888889,277.083118274419L779.0671141975309,277.1380926959681L780.3088904320988,277.29834085167784L781.1218688271605,277.5280147340614L781.5948549382716,277.59548242072367L783.790325617284,277.8850777502687L785.2539012345678,278.0798464875324L785.9724969135802,278.27283784732816L786.5130524691358,278.60423895649444L786.5626033950617,278.8064678165344L786.6052901234569,279.0160191915422L786.9534336419754,279.0872795928354L787.1623626543211,279.2042779010186L789.0564521604938,279.22298251201244L789.7924228395062,279.4963259784255L793.2631327160493,279.70518510689897L794.3343765432098,279.86477044117476L796.9558564814815,279.9752889955365L797.0036913580245,280.080084965195L797.9367932098767,280.0486601275666L798.1817592592591,280.1001255810563L798.8205586419754,280.32192488384817L802.9633163580247,280.5750364237941L804.0467870370371,280.83806929922406L805.510362654321,281.00041600783476L806.0725833333333,281.0324181240093L807.1511203703703,281.1117582071021L807.4615108024692,281.19509843209886L808.502938271605,281.278171970926L809.4070817901235,281.3140171697423L811.2968811728396,281.32731025040636L811.352438271605,281.5344452889598L811.7705108024692,281.720952570314L813.9125694444444,281.69643995267165L814.4044320987654,281.9403125324094L817.5066203703703,282.126840149447L818.8558641975309,282.215507099846L820.4884706790123,282.3047036258842L821.1588024691357,282.41240594545945L822.8340956790123,282.6007266794804L822.8564043209876,282.71172209337567L822.9173240740739,282.68802619508506L824.3212669753086,282.8495653205789L824.4898688271605,283.015805178291L827.3033317901234,283.33299088315323L827.3923518518518,283.4245116497264L827.8580447530865,283.6879267779176L829.1094737654321,283.81994899001046L831.2719104938271,283.84791023565634L831.9993009259259,283.9248559275593L834.0343209876542,284.1316428459972L835.4530648148148,284.1287776920636L836.392387345679,284.40477949038325L836.6062499999999,284.57873942430433L839.2508966049384,284.81668176990627L839.4362299382717,285.0453795425758L839.5724413580248,285.2242704065104L839.6234938271606,285.3872057788765L839.9688487654321,285.54495198126676L840.123936728395,285.7524149714099L840.6389660493827,285.942331789608L842.7707283950617,286.13652462276275L844.0877962962963,286.3414001837178L845.319276234568,286.522710890045L848.4349783950616,286.63446195256904L848.5988611111111,286.5909579284173L849.0508256172839,286.82890310407606L850.1475956790124,286.9250661772262L850.1527438271605,287.1173958995982L851.5847870370371,287.2111282544944L852.8508024691358,287.3624964839748L853.4520632716049,287.5315163417695L854.9171404320987,287.73945450881445L855.6252253086421,287.86500000627643L856.8047947530864,287.98043972798644L857.7224521604938,288.2505276625647L857.8432191358024,288.31823321398474L858.4474830246913,288.50753577623306L860.1583842592593,288.76425695718626L860.4130030864197,288.8337686861963L860.9160200617284,289.00361645044273L861.6410509259259,289.18315424827233L866.830813271605,289.06307701748193L867.2257191358024,289.1765277289708L867.4202762345678,289.23612514867244L867.8096049382716,289.3730078624825L870.6177052469135,289.55128467610814L872.4021820987655,289.57551171617473L875.7225231481482,289.76744585123356L876.2632932098766,289.8781984671852L879.8961697530865,290.1276297728425L880.3266836419753,290.22159860055024L880.9828580246914,290.3709427011839L881.8567561728394,290.59898334759134L882.1238163580248,290.8339984832458L882.4541558641974,290.9724540509793L882.4801111111111,291.16845587915145L882.9646805555554,291.3357778163409L883.4282283950618,291.4289751676391L886.4250941358024,291.5803991093328L887.4261944444444,291.68584476999763L888.3200416666666,291.92335821238476L888.7366126543211,291.9300171028497L889.0530092592593,291.89181518074264L891.7497808641974,291.91689639265144L891.8426620370369,292.1155384749805L892.7691141975308,292.1361700982894L893.5192422839506,292.41949499906787L894.3373688271605,292.69598304205505L894.4098719135801,292.9291317730788L894.5728966049383,293.18871068718204L894.7571574074072,293.27618472659606L895.210837962963,293.450195815913L895.577,293.51241014097L896.4564753086419,293.62505269808844L896.8421574074075,293.68077660753784L896.9251712962963,293.73778687602703L897.5189243827159,293.8399357031434L901.5621512345679,293.9270733069861L902.9133256172838,294.13180479751134L906.9138657407406,294.14232558689235L907.2167484567901,294.11445791147224L907.5084768518519,294.1727974952042L911.6102638888888,294.13898585096L912.3022608024693,294.31245651784866L914.9640679012346,294.51436855008853L917.1468827160493,294.7421233635128L917.7936188271605,294.7584629398735L917.8605447530864,294.9141358592984L920.5815555555556,295.07488915551073L920.9196172839505,295.26169277055953L922.0108101851852,295.4011982837594L922.8608981481482,295.45024245036143L923.1594907407407,295.69983243199846L923.74037345679,295.75823158645187L923.8201697530864,295.8498433352882L924.0835833333333,296.0468179659897L924.854089506173,296.250403009973L925.2153179012346,296.4739912397694L925.4079444444443,296.77727417067797L926.1771635802469,296.97279167703346L927.0725123456789,297.1339485577786L927.5873271604938,297.29567228126655L927.8927839506173,297.46483381075427L928.1027854938271,297.4729603234629L931.5076419753085,297.357643563434L932.2125092592591,297.3344157098869L932.7571404320988,297.4528141201107L933.6261049382715,297.5976684891898L934.9009151234568,297.81378833254814L935.5740354938272,298.02625758009566L936.7349429012346,298.2610017008507L938.7620262345678,298.45447305040585L939.0168595679012,298.6150096432808L939.974200617284,298.7685738197366L940.1286450617284,298.81078639769356L941.281401234568,299.063306478493L943.4871682098765,299.1837259116203L943.6345339506173,299.3503926188788L944.6594444444445,299.5095105098883L947.4844907407409,299.7268860729744L947.5895987654321,299.97220083121374L948.4231697530864,299.98917628316167L948.4270308641976,299.94224338273324L948.7129675925926,299.871087131886L949.8856728395061,299.9973150864969L950.1149799382716,300.0109485178889L950.562225308642,300.19239492011127L950.8964259259258,300.3605412338105L951.6615694444444,300.5049867321971L953.2559938271604,300.4002313308665L954.2223441358026,300.4564973534144L957.3528472222221,300.6380711403834L960.848010802469,300.88904865658697L961.6852283950616,300.8862820848702L961.813074074074,300.95324436113253L964.8105833333333,301.1545592688665L965.4242854938271,301.22186726413986L966.3232808641975,301.47628839447657L967.411899691358,301.5124287873626L968.7611435185185,301.66124474020666L968.8664660493828,301.7992838175617L969.9149722222222,301.8625162821563L971.8176419753086,301.90725997040613L972.1627824074072,302.0256242114931L973.0594182098765,302.1412518812637L973.4101358024691,302.32663371657395L974.0163302469135,302.54046388965975L974.226975308642,302.6434992446282L975.4095478395061,302.72864226915163L977.4510030864196,302.7621312481863L978.3103148148148,302.85900143643215L979.2537129629629,302.8468106379289L979.9963333333333,302.9734012955157L980.9624691358026,303.00373134462694L981.690074074074,303.0655071688258L983.9867916666665,303.1170747904112L985.139547839506,303.23889066947527L986.264847222222,303.4318776311966L986.5808148148149,303.5874831753895L987.038785493827,303.65592004956216L988.3030848765433,303.885292903278L989.909950617284,303.97466976663736L993.5196604938271,304.05046339802635L995.6226790123455,304.2125024732425L995.8002901234569,304.44593821851004L995.8436203703702,304.63052381303385L998.5107901234567,304.7547157792353L999.5923302469135,304.96553920428767L1002.3305015432098,304.987753931781L1002.8880030864196,304.89845933481655L1003.2876280864197,305.00655913669095L1004.0321790123456,305.087875494859L1005.2413503086418,305.15089175544136L1006.3170987654321,305.3619277839925L1009.3671620370369,305.32769487864084L1010.6361805555555,305.5188870825095L1013.0337160493826,305.5481960922505L1013.3295200617283,305.70262872000535L1013.8035787037037,305.80587906477484L1014.3010185185185,305.8771988417426L1015.29075,306.0357780574683L1018.0083287037038,306.2418736182824L1018.9375694444444,306.2321791684287L1019.0062114197532,306.4010074760349L1020.3044027777778,306.48174311478937L1022.8190586419753,306.33932992206917L1025.7901836419753,306.4376440579478L1026.4032422839505,306.5048529753358L1026.949375,306.69397889270505L1028.2173209876544,306.8695947289024L1030.5466435185185,306.8783009111866L1030.5741003086418,307.0383055808487L1030.8917839506173,307.01991683013165L1031.4576512345677,307.2415727288771L1033.2341913580246,307.51495413540863L1034.6241913580247,307.56682538095185L1035.558151234568,307.5284917505952L1036.7645339506173,307.68547811536195L1038.7096759259257,307.87300500778815L1038.8619753086418,308.03450881970707L1040.2886558641974,308.1619328144182L1042.4746882716047,308.4428301783715L1042.4965679012346,308.64672378371154L1042.7314521604937,308.6652426778518L1043.3829074074074,308.8252173233442L1044.0045462962962,308.99955831970004L1044.4781759259258,309.06379810842816L1045.331910493827,309.1539767606851L1047.50550154321,309.19261677679503L1049.649061728395,309.27566364397865L1051.5498009259259,309.37472403705567L1051.7964830246913,309.43702880530304L1052.0530324074073,309.69102899453424L1052.0792021604939,309.90353121566534L1053.3619490740741,310.06023619655025L1053.748060185185,310.2431230407823L1053.7577129629628,310.269244847278L1054.6775154320985,310.3809730390447L1055.1097453703703,310.3131646257503L1056.313339506173,310.3926268961353L1056.855825617284,310.51967601926776L1056.9006574074074,310.5917302312355L1057.9008996913578,310.7497384886496L1060.987214506173,310.9208545377037L1061.0339768518518,311.0309369805815L1061.383836419753,311.2320882182924L1062.4600138888889,311.44284313256617L1065.4326404320987,311.5023909239579L1067.2932669753086,311.6816359613411L1068.3464922839505,311.86871613883983L1068.4102006172839,312.0724746651749L1069.373547839506,312.0226949021015L1069.9917546296297,312.24366930640235L1070.746172839506,312.3738268199221L1070.8682268518517,312.53330416736145L1072.0900540123455,312.72665998861703L1072.5690462962964,312.86718808539854L1072.8253811728393,312.9037874153273L1073.071848765432,313.05072288244685L1073.128049382716,313.0508520902255L1075.3947361111111,313.1774341084895L1075.7246466049382,313.294391205635L1077.0650956790123,313.49853265378755L1077.2557916666665,313.6007545868404L1077.5925663580247,313.69933161123964L1079.1074089506171,313.943985756227L1083.536961419753,314.14891251632037L1083.6497916666667,314.1556215306712L1083.6881882716048,314.0486611447169L1083.8025200617283,314.15656410756634L1083.9932160493827,314.37940422561564L1085.2392824074072,314.50144127050476L1086.182037037037,314.56041603872836L1087.149674382716,314.70297254534233L1088.5849351851853,314.8448574842878L1089.1046836419753,315.01046245612406L1089.515462962963,315.1278336824387L1098.6287577160492,315.34391102632213L1104.129125,315.33875068747545L1104.8284151234568,315.38775082638256L1105.7484320987655,315.3608740557029L1106.037800925926,315.4493380952875L1109.1406327160491,315.72932686141394L1109.7800756172837,315.8647002824138L1111.3406080246912,315.866759816096L1113.074675925926,315.94816233141546L1113.134523148148,316.046316730664L1113.6270293209875,316.2474658704077L1114.1420586419752,316.44320863905324L1114.782788580247,316.64840450147807L1119.0669058641977,316.79673865240215L1120.3288456790124,317.0228299871026L1120.5474274691358,317.02311364233924L1121.704259259259,317.0506076984933L1122.2917916666665,317.23619966800203L1126.1505432098763,317.41156585329355L1127.4305015432099,317.3949266095312L1128.599774691358,317.5861580554408L1130.857023148148,317.64533620389227L1130.8765432098764,317.69333620118744L1132.8570787037036,317.7947901399252L1132.97312654321,317.8946750563588L1134.5718410493826,317.849847178218L1134.583424382716,318.0156134403661L1135.3464228395062,318.07078833762387L1136.4884537037035,318.1603019141328L1137.482260802469,318.2759845515853L1137.7527530864197,318.32710110146434L1140.9366682098764,318.3668486649371L1143.4802824074075,318.55501980418524L1144.5828441358024,318.71023958847053L1145.2752700617282,318.83351114984526L1145.8975524691357,318.9640912804572L1148.0634212962964,319.1449688579315L1148.8193410493827,319.1694870434722L1149.9699521604937,319.3290906226836L1151.3794722222221,319.4419433941034L1152.6090216049383,319.5034606469861L1154.076672839506,319.59286643743275L1157.079973765432,319.76676651165326L1157.498260802469,319.9065085623273L1160.277188271605,319.986403200853L1161.0867345679012,320.2016827383491L1163.106739197531,320.2406482485467L1163.7515447530864,320.20135626529174L1164.4077191358026,320.3450594452853L1167.225686728395,320.51163426216976L1169.0657206790122,320.6181754025594L1171.7575586419753,320.63645336271253L1174.6465277777777,320.71375619829513L1175.6027962962962,320.87503422834243L1175.9515833333335,320.88703790487256L1178.1489845679012,321.0000865279502L1178.7133503086418,320.98370881530616L1178.7719104938271,321.0412128842226L1180.1657716049383,321.18542401600854L1181.2213564814815,321.3216220284767L1181.370223765432,321.41016660015123L1183.6673703703702,321.5167462741917L1183.9468719135803,321.5912826555965L1186.4190555555556,321.7604343073183L1186.5179429012344,321.91829227255283L1187.478287037037,321.89832022741774L1188.2307746913582,322.0354167633901L1189.4369429012345,322.17451159252846L1190.9953302469135,322.20357042533243L1191.3055061728394,322.27777112261015L1192.6242901234568,322.0873186656259L1193.1236604938272,322.2126832067122L1194.0966604938271,322.2631824900599L1194.9570447530862,322.268238125269L1199.479049382716,322.4861076793785L1202.0048595679013,322.47740060627007L1202.3532175925925,322.6103309942207L1205.5946203703704,322.7044920136811L1205.8812006172839,322.9007187522518L1206.79649845679,323.050380467895L1206.9526589506174,323.1585008849943L1209.3952407407407,323.23837410685513L1209.6801049382714,323.2699296111324L1209.945449074074,323.26225948035545L1213.0478518518516,323.34447796287543L1215.840936728395,323.48428351828716L1216.1916543209875,323.6869659339556L1216.3229320987652,323.7397451178128L1216.523709876543,323.68601437524285L1219.6563580246914,323.7663624937992L1219.8165941358025,323.80382822742456L1221.0838966049382,323.95992903969255L1223.3471512345677,323.99999999999994L1223.9805879629628,324.17899148135757L1224.603084876543,324.369530132557L1225.2691265432097,324.35094807381506L1227.1462700617283,324.49501069895246L1227.2689675925926,324.525325630716L1228.0459089506173,324.6264988267004L1230.0888657407406,324.6310529210467L1232.6891095679011,324.7526485440468L1234.0746049382715,324.7565055138319L1234.5705432098764,324.8812191468072L1235.318311728395,325.02133851322924L1235.7511851851852,325.1192060573403L1236.9635740740741,325.2618923296957L1237.459297839506,325.39190673067793L1239.8347391975308,325.4939971555564L1240.5655617283949,325.451746949281L1242.7756188271603,325.60841368566156L1243.0948040123455,325.6755064818344L1245.1866682098764,325.7694678799782L1246.1901280864197,325.8817727725546L1246.608200617284,325.94674886513656L1250.6005895061728,325.9677135258365L1251.273709876543,326.01557068667984L1254.2834459876542,326.08614779181386L1255.0854845679012,326.0876356444833L1256.4285077160491,326.1888295192874L1257.037061728395,326.37656244697985L1259.5193271604937,326.53209552581103L1260.3338070987654,326.6829780605999L1260.9086836419751,326.7723753300876L1261.0341697530862,326.8040438626755L1262.506111111111,326.88978251699587L1263.643637345679,326.92047238708324L1267.9845987654319,327.04494273544685L1268.4438564814814,327.19835938995914L1268.4985555555556,327.1547823604234L1268.949662037037,327.2753792910754L1269.5637932098764,327.3270382870705L1270.128587962963,327.44401586901756L1270.530787037037,327.515308861345L1273.6469182098765,327.5185922026255L1274.0463287037037,327.5162216668067L1275.307839506173,327.61224362400776L1275.551947530864,327.6124943248007L1276.3514120370369,327.726421274753L1276.3595632716049,327.80760974817326L1277.567662037037,327.94897650931836L1278.6150956790123,328.0454600471038L1278.8263842592592,328.12226200445L1279.023300925926,328.29936972073557" style="fill: none;" fill="none"></path></g></g></g></g><g opacity="0.2"><g><g><g><path stroke="rgb(255, 112, 67)" stroke-width="2px" d="M159.2912114197531,-78.81408095180012L160.78825,19.69269016097627L161.2078240740741,-8.337634664335553L161.4300524691358,53.58881387086376L162.73660956790124,-34.195026521233956L162.75291203703702,50.611838290044375L163.52105864197532,-30.73316156533599L165.66869444444444,90.55097424340465L166.03893209876543,75.63394796091546L166.4638688271605,65.9893643885191L167.41799228395064,98.76812636840225L170.11519290123456,41.35710068419593L170.3813950617284,121.09711852039163L175.4338734567901,83.92546633129507L175.7655,130.69356726342082L176.16576851851852,89.05545455249086L176.2541450617284,149.7221530091099L178.62379475308643,43.6017424477526L179.54381172839504,77.52734484755678L180.52281790123456,180.79744227974916L182.2534537037037,-21.768957882992993L183.10268364197532,148.12338243908994L183.6715540123457,40.1447466056062L184.58856790123454,72.36405966159856L186.95328395061728,34.91601480857611L187.01441820987657,78.02754058781767L187.61374845679012,114.96902742622427L188.4237237654321,143.0026181592175L189.24785648148148,108.03330114271319L190.8530061728395,141.00575421542592L192.54953549382716,100.64814160623735L192.74366358024693,126.54049590879674L193.6731188271605,90.62872830211927L194.1924382716049,62.63923055384788L194.3915,168.92711902337362L195.80016203703704,201.22038220827656L197.7712592592593,181.83617427211132L198.04561265432102,54.679858908701476L199.88864969135804,202.32503854759364L200.8695864197531,252.95332284477587L201.26063117283948,152.82601723870388L202.1109336419753,150.69629032061107L205.2991388888889,219.1297378827146L205.66101080246915,10.47619393692139L206.06985956790123,34.84896849530401L207.8873703703704,98.2079071830284L208.15078395061727,138.51515761020178L208.60339197530865,144.01744067610434L211.0558410493827,120.47136556246994L211.18454475308644,97.9577282938883L213.1882469135803,161.43098435056783L213.2103410493827,121.73425085989004L214.08874382716053,218.0934535243093L214.67906481481486,196.3268544512991L217.51633796296295,268.13367214741146L218.27375925925924,94.55018220780642L218.4153333333333,190.11660692613756L221.20112500000002,166.57032369621658L224.7119475308642,186.0601640669789L226.62319753086422,115.45132082095392L227.10926851851852,228.26256133512186L227.52283641975308,93.29290496987244L230.3094861111111,211.31888992596447L231.8410601851852,148.88318600155836L233.6753024691358,228.14220804907708L237.2202314814815,191.16905311706844L238.3860725308642,199.804438489857L238.5381574074074,144.6541686601104L239.49464043209875,281.0298091148652L240.6313086419753,159.52598993546655L250.02389043209877,193.2383149693962L250.51746913580246,299.9445806682951L251.13631944444444,176.9001937943978L252.2521805555556,205.93113916036683L252.45832098765433,229.650991760485L252.4926419753086,180.67263429490134L253.4405447530864,176.82944683902704L253.76916820987657,201.10666041434695L254.70377160493825,286.6880034604095L255.07980092592598,228.06917160666768L255.98737654320985,213.57466569478888L256.00089043209874,237.94941272367558L256.29283333333336,259.85510655752887L257.54018672839504,270.4674198398821L257.83684876543214,189.75415470073256L258.5856898148148,234.75465135859068L261.1490385802469,221.42959363628677L262.98735648148147,249.92378900474614L263.3309953703704,225.97448655479454L263.4444691358025,224.90665321404913L267.1573564814815,260.91546241949015L267.8982608024691,267.2144147750837L268.40320833333334,212.123549150584L268.69407870370367,193.06308315479052L269.73293209876545,263.6413529315943L269.86120679012345,168.924315703393L272.0480972222222,206.07290989875406L272.8023009259259,301.16403965010466L272.8134552469136,294.8650732048441L272.99900308641975,259.0622026753339L274.2939768518519,198.59513526145733L274.8997422839506,289.1988556561924L275.7197993827161,243.4675126440153L277.4633055555555,238.26254591301148L278.08580246913584,165.36138531345327L280.04252777777776,250.72851705267868L280.2218549382716,255.04761284107798L280.58158179012344,268.41668005225796L284.8504691358025,225.06332826183436L284.8543302469136,279.3494090057616L288.3246111111111,215.0030074418826L288.8023163580247,167.73825592466397L290.5250154320987,145.48974284861836L292.96395061728396,270.0172163766946L293.3800925925926,287.12049079284446L295.4039583333333,251.2709514714068L295.5174320987655,176.32238867163153L295.8068009259259,265.16523426145244L296.4466728395062,267.30334294010686L296.85380555555554,224.91720669450206L297.7277037037037,308.73914411946544L299.4789320987654,340.7073182268057L300.26209413580244,215.90582379452263L300.3762114197531,254.76203074820316L301.2074228395062,215.67309918033823L302.4768703703704,170.99838740577303L303.1864567901235,272.64232836830496L303.79072067901234,247.13661826520155L303.8589336419753,295.675058561669L307.0432777777778,226.1134220419998L307.2082330246913,212.68398766188056L309.2687793209877,291.2958936535707L309.4841435185185,273.6408109360223L311.78214814814817,186.49745694693692L312.4376790123457,229.26353352307314L312.981237654321,241.1021335572378L313.46001543209877,212.7351103064133L314.03317592592595,265.99120460119906L314.0679259259259,288.661340246822L314.82105709876544,295.2834070940967L315.5979984567901,304.986578996254L316.6389969135803,293.5507619597947L316.755688271605,284.0514842744678L318.2846882716049,342.9898183826597L318.34303395061727,272.91365467812125L318.5006959876543,214.4313717641737L318.9142638888889,306.1311286725107L319.0727839506173,299.8995527518694L319.24589043209875,184.86369149437883L319.7634938271605,272.85438132417283L321.3306759259259,258.7569566123789L322.0505586419753,175.28911570918797L322.3821851851852,259.1522214778048L326.0566759259259,274.59296006746456L326.56848765432096,197.8300588253537L327.95226697530865,267.4000132829268L328.8583410493827,262.7103682723566L329.2159228395062,290.4216975663012L332.2631975308642,175.17367646074464L332.38911265432097,350.91274745377797L333.17377623456787,254.39072077664673L334.9374459876543,296.1659850199512L336.4771712962963,249.74123168020134L337.7504799382716,334.2879079754215L338.2642222222222,262.058658222532L341.31492901234566,164.45867270955642L342.5324660493827,226.85938542268033L343.0710910493827,317.59418698236806L343.950137345679,216.37236445691457L345.24596913580245,255.64640614883373L347.30780246913577,225.8070069286538L348.4446851851852,207.97866619447413L348.9187438271604,300.25541239811787L350.27292129629626,279.24932112974966L351.2107422839506,318.06799552804193L351.97138117283953,320.85961315078185L352.42549074074077,298.62149495719746L352.7588333333333,191.79462509577118L353.86718672839504,265.5456371524711L355.1655925925926,390.4091639029286L356.28660185185186,287.32080169491286L359.2774614197531,298.87954316836743L360.75455092592586,315.8529022564377L360.82555246913586,262.9198067874497L361.72261728395057,204.30560612548837L365.3185987654321,254.18182416328523L365.7883672839506,297.3655276023958L366.06765432098763,267.0505625013148L366.1929259259259,370.93367478329304L366.4376774691358,303.0240940886414L367.3759274691358,311.8759110980198L367.6876049382716,316.67317572753825L368.19705709876547,267.7399594365725L368.23009104938274,226.6008146459773L368.44974537037035,325.52838795968546L368.69642746913587,241.28571626984535L371.43738734567904,243.78592051803702L372.0959212962963,277.8362682365688L374.09855092592596,242.56653805281536L374.68286574074074,313.46169493687273L375.37893827160497,227.46166453437402L378.6973487654321,330.71211886993876L378.76706327160497,306.2824443152675L379.09439969135803,180.23249986208808L383.43450308641974,350.23480024282424L385.1031466049382,295.9612408186684L385.4047422839506,285.76335822344197L385.5763472222222,216.6449240834915L386.6559567901234,380.584538684869L387.3732654320988,332.1483936942421L387.8505416666667,384.9692503954626L389.511462962963,275.9270801937192L392.99289814814813,273.75629720275765L393.3509089506173,275.5136630396472L394.07701234567907,321.9412009079824L396.5920972222222,330.76075314401504L396.84564351851856,218.63036477201706L397.41022376543214,352.58291388307777L397.56488271604934,299.85299880603554L400.85497839506183,375.25471534312874L401.5592021604937,221.2090636739882L402.20550925925926,252.00584622998474L402.6692716049383,274.64561665500275L405.3381574074074,317.35599011880265L406.34483487654325,310.39463642906514L407.848737654321,281.76506918819507L408.09520524691357,337.5262040852081L409.8101820987654,229.79800781975356L410.82222222222225,356.8869696030385L410.964225308642,305.74772379421125L411.81667283950617,304.68878829253924L411.8816682098766,174.62671275153892L413.48617438271606,341.338484692832L414.6713209876543,400.3010362535142L414.7197993827161,223.69417272125713L415.37575925925927,292.33971876893906L415.5911234567901,166.83042930587393L416.78184722222227,299.0978957100605L420.1124845679012,309.01566376536607L421.01791512345676,185.2556253960129L421.22448456790124,244.86818832845552L422.83113580246913,295.9495035999064L423.9495709876542,262.7872551481599L423.9821759259259,261.5991900972676L425.068649691358,208.1436414322035L427.74761728395055,311.733844023698L428.48466049382716,313.52565207851273L428.5460092592593,257.1446924804726L428.9520694444445,249.6973247725877L429.92592746913584,257.0503257037394L430.06492746913574,256.2890325408884L432.69756172839504,352.1810364001582L433.50753703703697,240.41303263960077L438.0786635802469,339.11442321445566L439.4933317901234,352.4554610565082L439.62825617283943,330.3512983202687L439.71641820987657,301.6699259419943L442.26089043209873,300.2474414668848L442.4854783950617,316.21376816670136L443.33556635802466,288.26439468922433L444.25365277777775,343.2572095638403L446.9991172839507,264.13492580040383L447.0342962962963,329.6542556670089L447.1411203703703,293.3905093118444L447.54417746913583,334.6115906495099L448.4751342592593,284.6007278324763L451.87419907407406,354.53858006568606L452.3555509259259,263.3330563093822L454.13874074074073,316.9097617493553L456.45883950617275,366.41484946362755L458.5374043209877,315.08238628169846L460.1329012345679,422.8552353948865L463.09372993827157,325.4975005927552L464.05986574074075,366.68329032678986L464.9223950617284,262.88876137022123L468.28477932098764,312.5684025766027L469.9032283950618,275.08353915618113L471.8046111111111,289.2384366222706L473.359137345679,188.38682346622042L473.54618672839507,389.28974671095125L475.5546080246914,305.70983072155605L479.4037067901235,323.00529701873603L480.25701234567896,306.67377415863575L480.46208024691356,430.62516473062044L482.4859459876543,353.53444809200846L486.5920231481482,268.32277787676935L486.9989413580247,285.106202110614L487.19971913580247,336.2574879948823L488.1958858024692,284.5596440577467L491.0121373456791,357.9408347722111L491.0784197530864,417.16081052442604L492.29037962962957,400.8313581306001L493.6308287037037,335.03482697046513L493.9774706790123,355.7251220520233L494.45839351851856,232.99465669298104L497.3409274691358,345.03184997412905L497.8604614197531,306.8411186112361L498.1865108024691,371.66830868928554L500.0379135802468,327.24175056532334L502.17546759259255,344.0571859921588L502.7872391975309,354.46376096988655L504.58501543209877,406.69334784074925L504.80402623456797,341.8415238351879L504.8973364197531,327.7592098510185L505.03440586419754,406.1540089909555L505.14916666666664,398.6558010874602L506.41175000000004,213.7993719887355L506.4203302469136,279.68698762878876L506.7723348765432,262.33453878770644L506.78070061728397,376.7936025865177L507.41799845679014,310.5011269722899L508.3798441358025,359.6884105871117L509.1271836419753,292.199698077966L509.72286728395056,287.44236847696186L510.77244598765435,306.7752768013853L513.7585864197531,292.16868934731656L514.3699290123458,333.2954874838411L515.7803070987654,309.7345393832307L522.263112654321,353.39923970185214L525.9324552469135,351.4792704735072L527.3243858024692,350.4518610640236L527.9865663580247,370.5120755739696L528.1845555555556,306.78676935149656L528.9080848765432,335.79856539424867L529.4038086419753,412.4017512865161L529.438987654321,344.361387118279L530.7090787037038,361.07672709682754L532.4508688271605,349.0439665382293L534.5028348765433,365.57082212397916L535.5715046296297,316.921789227594L536.0710895061728,268.75393271824294L538.8937762345678,265.79615037631675L539.203737654321,278.9032995673339L539.5578873456791,283.78907357809805L539.6226682098766,352.1659522204197L539.8077870370371,368.50786609340946L539.9433549382717,360.8066786156752L542.8464814814815,399.2704938352826L544.8053518518518,280.7818137964995L545.0490308641976,315.5841036951199L545.3313209876544,339.76435877903515L545.5895864197531,368.8208051750597L546.6867854938271,348.44018677522223L546.7565,360.8335340047064L547.6902453703703,358.0416707741778L547.8090817901235,290.02643269352507L547.9914120370371,338.61117972302947L549.9423456790124,328.2887398282274L550.0292206790124,376.37427128095715L550.4837592592593,339.8977298581834L551.7993256172839,221.9247468752597L552.2813209876543,348.8204190007566L558.6382114197531,344.0656750364218L558.7909398148148,272.2063553865606L559.1442314814815,249.33089917314226L561.0647052469135,220.57180663201663L563.1923919753086,289.2035370638429L565.9273456790123,297.65840632449704L566.8810401234567,359.3783045773752L567.2289691358025,325.30963434410603L567.7871141975309,197.60386846047314L569.1738966049381,337.1678421703041L569.5548595679013,352.61078256297475L571.2882839506173,283.988457498735L571.429,393.04871211855124L571.5688580246913,390.12481557519567L572.069086419753,338.2329333545641L573.8973225308642,350.33962455572714L577.4401064814815,280.23004108558825L578.0447993827161,338.25045446836276L578.6632206790124,298.15809657939263L580.5978518518517,387.3890019088192L580.8891512345679,378.78284852025854L581.9275756172839,254.52675491757572L582.9106574074074,307.5758526818731L584.3336913580248,305.0217848317979L587.2423950617284,342.03950659360413L587.8741157407408,328.80027380682895L590.3641033950618,402.84835972211465L590.4325308641976,359.3380719163189L592.3439953703704,305.3310604190637L593.499325617284,352.1025149247956L593.9845385802469,302.3777694210444L594.9217160493827,268.30028345808313L595.9316111111111,292.11023845638766L599.2474475308642,339.8504525859981L600.1374336419752,312.58852547705476L601.6857391975308,287.2168438100066L601.7814089506174,333.2152585804241L602.0890108024691,317.18539043621536L602.1025246913581,336.6869416567876L604.0225694444445,375.10204165269124L607.069200617284,397.4274614114279L607.5170895061729,321.60738327673516L609.0261404320988,337.0897185373565L609.4624459876543,320.34630106759226L610.7827314814815,322.55503478276034L613.0065169753087,338.9110617966659L616.0222592592593,254.54526985116203L617.3530555555556,333.91275630377066L618.7258950617285,397.58600163848894L619.3413132716049,323.3958774505209L620.0208688271606,464.6802646732261L620.2804212962963,326.4011544206947L620.4395848765432,380.36767488887773L620.7821512345679,379.00792873256125L623.0606358024692,339.70103823874626L623.4246527777779,324.6847507903726L624.8940200617283,296.5050094997479L626.1300046296296,333.73244721551526L626.4569120370371,374.6370788738318L629.5179151234568,331.4235206769901L630.5205169753085,342.97668000182426L631.328776234568,364.0641339186686L632.3155046296296,367.8468904535213L632.8807283950617,412.9432819748987L633.3736635802469,375.9771710043068L634.4080123456789,351.9242599230593L635.4968456790124,440.8531425754561L635.7986558641976,365.67839784439815L635.9957870370371,186.56677339394037L638.4503811728396,293.44222697004886L640.6552901234568,390.31697665489116L641.1381435185185,387.0353851410411L641.1486543209876,372.3909046579574L642.5343641975309,305.9311558340794L646.0209475308642,352.04990897549317L646.1251975308642,333.7053615534219L647.3073410493827,271.57580121394835L647.5812654320988,334.8675033587147L648.0724845679011,420.80933215191465L648.3981049382717,298.28125770400027L648.703561728395,285.82988223368875L648.9927160493827,323.10571077920133L649.4644151234569,435.6603761125653L649.9058688271605,375.0028627675008L650.3998765432099,299.5153010912143L652.5385030864198,270.08630091892525L652.6348163580248,364.6014277397266L655.4677993827161,314.40703826503375L655.6012222222223,358.1638845747233L656.283137345679,338.236630847431L657.4543410493826,384.0456120921695L657.5804706790124,339.27114622161497L657.8370200617285,284.69893454007195L657.9899629629629,303.72311822847087L658.0335077160494,235.3575648001984L658.8900308641976,390.9660208430652L660.2918287037037,309.39771619058956L662.3247037037037,301.6393764530542L664.0287407407408,271.42581154861847L664.2672716049383,356.3849146604689L666.6437854938271,318.1458886287825L666.8941141975308,324.59015273161475L666.9603966049382,352.3948341898551L667.0386913580247,374.75460207095864L667.1054027777778,349.0788384268908L667.8992901234568,354.7442057192674L669.6998549382716,291.42616911257534L670.6767160493828,395.1445418095894L671.3577731481481,374.1283757713555L671.4163333333333,281.0816025507994L673.4204645061727,382.78316401993595L673.687524691358,354.6187847226519L674.2137083333332,293.86418735082265L675.1721219135803,324.78044559664903L675.6614104938271,317.37924915870417L677.7820185185185,403.4315418697083L681.3958040123457,338.52345172015646L684.3667145061728,357.5394059468759L684.9868518518518,358.42620384528993L688.2591435185184,258.4016981356574L688.2636481481481,352.65297822565185L688.5613827160494,282.2554658192496L689.448151234568,272.63099497638893L691.2952638888888,244.00341031261286L692.3954660493827,339.91595791226246L693.1511712962964,328.41263718013136L693.2981080246913,327.4243578274444L694.1273888888888,297.65649221459387L694.8163827160492,340.3488058402254L695.129561728395,333.41491944981175L695.5538549382716,472.66871296251816L697.8945462962963,431.3643707556443L698.0755895061727,306.1862750529592L698.4569814814814,401.4002471594368L700.2318055555555,374.822013442092L701.2457762345678,325.93593079397414L705.0953040123457,328.6849980313367L705.272486111111,254.66921834547952L706.2905324074075,245.26802179937135L708.1136203703703,389.75058680028053L709.5433040123456,453.3217350633588L710.2168533950618,281.42308007141224L711.5592330246914,303.70840234628497L713.1892654320986,297.7657422006314L713.9711404320987,340.93331322887894L717.0304274691357,399.6672387997711L718.8878364197531,363.9715272878039L718.9408194444443,394.4946636412997L720.199112654321,361.11770589815245L720.6877577160494,389.0254120975423L721.3928395061728,358.1193253557301L724.7342021604939,336.6996025497167L724.8959398148148,268.1851712899646L725.2475154320988,410.7739797049716L725.4354228395061,358.8865850916397L726.4719166666666,343.59697213891496L726.5345524691359,330.94102842432346L726.6164938271604,293.1220934610682L727.0673858024691,363.70045010914407L729.3439398148148,425.29506862850144L730.2633132716049,274.12109313665354L730.9900601851851,336.41820042695775L732.0797515432099,427.69121825179377L732.2078117283952,339.4256542949425L734.5098919753087,402.6076908969279L735.7100540123457,336.12041956983103L735.8276033950617,360.74413434011683L736.0717114197532,430.84216175284547L737.3999336419753,382.0306539649737L738.072839506173,371.19459526049195L740.2161851851853,352.4327687425766L746.1093132716048,265.9930478517725L746.1138179012347,311.0834326548506L746.7798595679012,359.14209988060134L746.9476033950616,382.35385323164314L747.1509552469136,329.7141500089307L749.3485709876544,339.51266657482483L751.1424861111111,295.3926782160389L753.0359320987654,353.8904957773128L753.0891296296296,369.0223127770709L753.5453842592592,270.6358140437475L755.2929660493828,328.9827011529181L758.0017499999999,418.46192412255897L758.1128641975309,278.16780858242953L758.2660216049383,287.18796924425806L760.8563981481481,314.3994506792481L763.5218518518518,406.5954504345968L763.89037345679,359.18578237038963L764.935662037037,306.66330919332876L766.2773981481481,272.6509713228539L772.0572669753087,315.33876533881636L773.3116990740741,428.5277135716458L774.4324938271606,301.15521581674193L774.6448549382715,384.44640548142127L775.244614197531,391.6974699512202L776.658424382716,343.2102527670895L777.4450185185186,329.4297701910945L777.8446435185185,345.2039667390824L778.5507978395061,335.26430519355074L778.6891543209877,390.60127307645314L778.986888888889,382.5063645643749L779.0671141975309,301.4484860158102L780.3088904320988,353.0558005118097L781.1218688271605,391.56511767198634L781.5948549382716,307.77641311323634L783.790325617284,428.7019358932039L785.2539012345678,372.87878289546455L785.9724969135802,372.23178557005104L786.5130524691358,457.9448154147959L786.6052901234569,382.6835887763232L786.9534336419754,311.3447366061552L787.1623626543211,333.76553061133416L789.0564521604938,287.4531291964611L789.7924228395062,422.09859968680956L793.2631327160493,383.75120558636735L794.3343765432098,356.81793185221795L796.9558564814815,331.6592203678148L797.0036913580245,328.9770859898949L797.9367932098767,266.50388779253626L798.1817592592591,303.3989245450101L798.8205586419754,392.841595326699L804.0467870370371,418.878879932978L805.510362654321,360.32326868082725L806.0725833333333,295.4460061630409L807.1511203703703,317.9372916064974L807.4615108024692,320.0253409413595L808.502938271605,320.0287525329498L809.4070817901235,297.5785873100517L811.2968811728396,287.2864988444561L811.352438271605,387.02156099805796L811.7705108024692,375.43890860281687L813.9125694444444,270.9045131769218L814.4044320987654,410.1436462548406L817.5066203703703,376.250971991196L818.8558641975309,324.15846927627865L820.4884706790123,324.56727072153063L821.1588024691357,334.1245426406069L822.8340956790123,378.28277699485267L822.8564043209876,336.26013272662243L822.9173240740739,272.1492672341023L824.3212669753086,363.7124038576742L824.4898688271605,366.6194208097869L827.3033317901234,463.0017103723608L827.3923518518518,327.3026100383366L827.8580447530865,426.78947449562304L829.1094737654321,349.00800432485187L831.2719104938271,296.77761588987823L831.9993009259259,320.65577630175903L834.0343209876542,392.25897343090634L835.4530648148148,282.82345959450856L836.392387345679,437.2174143507642L836.6062499999999,373.7360993683109L839.2508966049384,412.9501175352398L839.4362299382717,407.4860720245925L839.5724413580248,377.6052098303668L839.6234938271606,368.67502648121007L839.9688487654321,365.98730652614165L840.123936728395,395.6296625465755L845.319276234568,381.19141859838163L848.4349783950616,342.2513636640872L848.5988611111111,266.92100095022965L849.0508256172839,417.11315023967074L850.1475956790124,334.45895257353857L850.1527438271605,389.0352827729839L851.5847870370371,333.5810642155355L852.8508024691358,365.39450027016517L853.4520632716049,375.8997506628105L854.9171404320987,399.83864109257377L855.6252253086421,351.65103892018044L856.8047947530864,346.293163318524L857.7224521604938,441.99787132641205L857.8432191358024,321.51640699626176L858.4474830246913,389.7689291086085L860.1583842592593,433.86322317112035L860.4130030864197,323.0785253873662L860.9160200617284,378.8801854192974L861.6410509259259,385.00103601784855L866.830813271605,236.09662815234094L867.2257191358024,347.03214269799423L867.4202762345678,318.57550093971855L867.8096049382716,360.5176916404416L870.6177052469135,385.2058364808019L872.4021820987655,301.2729274572833L875.7225231481482,394.09622179129093L876.2632932098766,346.65537439946206L879.8961697530865,432.5231601755989L880.3266836419753,337.94811555484495L880.9828580246914,369.3673447219252L881.8567561728394,418.9906172281874L882.1238163580248,424.0883800176672L882.4541558641974,363.88886159807856L882.4801111111111,399.12563714964693L882.9646805555554,381.5854936589627L883.4282283950618,339.1221742840933L886.4250941358024,372.47853137025805L887.4261944444444,346.23653303993433L888.3200416666666,428.09958120240884L888.7366126543211,295.1621511267849L889.0530092592593,273.8376693731323L891.7497808641974,304.26184989434137L891.8426620370369,402.9852171480289L892.7691141975308,302.28371431789606L893.5192422839506,462.83638346608075L894.5728966049383,446.63687164990296L894.7571574074072,338.5213718389465L895.210837962963,389.50799248062805L895.577,325.2057476683025L896.4564753086419,353.1405703071832L896.8421574074075,322.0041946382528L896.9251712962963,322.77160296494054L897.5189243827159,347.5846160461963L901.5621512345679,339.3371590324252L902.9133256172838,410.93875045664475L906.9138657407406,299.35962775617486L907.2167484567901,280.6137558881352L907.5084768518519,324.1022976370775L911.6102638888888,277.7862312495975L912.3022608024693,391.3891162703867L917.1468827160493,428.3499364679858L917.7936188271605,302.95100646108574L917.8605447530864,381.21732829782013L920.9196172839505,401.66332497623415L922.0108101851852,372.041546705298L922.8608981481482,320.7156505633878L923.1594907407407,446.2297916710496L923.74037345679,326.1004737360592L923.8201697530864,344.63167317405316L924.0835833333333,409.9745862620079L927.8927839506173,393.8665956715444L928.1027854938271,301.59538065348386L931.5076419753085,243.12553907457254L932.2125092592591,285.76707010410905L932.7571404320988,362.5848344197196L933.6261049382715,379.01238815811627L939.974200617284,386.24182149503025L940.1286450617284,320.9644373350981L941.281401234568,456.0554023929522L943.4871682098765,366.2318259908916L943.6345339506173,395.71468532504184L947.5895987654321,452.359513759859L948.4231697530864,308.8045611208055L948.4270308641976,276.55034502544447L948.7129675925926,264.9091769083827L949.8856728395061,371.18522380163176L950.1149799382716,307.1017005771992L950.562225308642,407.4385522124446L951.6615694444444,383.4942021445606L953.2559938271604,249.7066973057598L954.2223441358026,330.7504664358127L957.3528472222221,408.55004740243226L960.848010802469,459.81043889375144L961.6852283950616,299.4525784126059L961.813074074074,337.4276291690565L964.8105833333333,423.38435809186655L965.4242854938271,337.96477848269365L966.3232808641975,464.03592700381733L967.411899691358,320.84032417135995L968.7611435185185,388.4458844133211L968.8664660493828,381.6786990633234L969.9149722222222,336.44304793857276L971.8176419753086,326.07377872905045L972.1627824074072,369.6565452386035L973.0594182098765,368.1316610378636L973.4101358024691,414.5154519747548L974.0163302469135,435.3995367199322L974.226975308642,361.0433933638635L975.4095478395061,350.3755616219487L977.4510030864196,320.82191391433685L978.3103148148148,357.66204510336934L979.2537129629629,296.4662797226137L979.9963333333333,376.4296647648302L980.9624691358026,319.3829788818196L981.690074074074,337.228433831851L983.9867916666665,331.44735959777125L985.139547839506,373.92948340562225L986.264847222222,422.4865503852793L986.5808148148149,396.6148717743279L987.038785493827,341.867601770682L988.3030848765433,450.6607361585681L989.909950617284,354.77457720713153L993.5196604938271,346.72377621710706L995.6226790123455,402.10338549069576L995.8436203703702,418.5839895160592L998.5107901234567,377.6619049035424L999.5923302469135,438.525365528723L1002.3305015432098,317.0762133223026L1002.8880030864196,259.775450933202L1003.2876280864197,367.88635104245174L1004.0321790123456,351.44678167564086L1005.2413503086418,340.6108198937594L1006.3170987654321,439.91267906684806L1009.3671620370369,287.32224163442794L1010.6361805555555,425.45456135746184L1013.0337160493826,321.6914125052368L1013.3295200617283,399.6706116787789L1013.8035787037037,366.07816485388344L1014.3010185185185,346.5183108779835L1015.29075,403.153039585685L1018.0083287037038,438.1053708854958L1018.9375694444444,301.01195557267954L1019.0062114197532,411.02920444821103L1020.3044027777778,353.03241988794457L1022.8190586419753,235.81566820766218L1025.7901836419753,364.0202825249793L1026.4032422839505,344.9543044636083L1026.949375,426.6439891244497L1028.2173209876544,417.0003846284942L1030.5466435185185,311.65962713595957L1030.5741003086418,406.18563082877137L1030.8917839506173,297.0960236898846L1031.4576512345677,452.928623715963L1033.2341913580246,497.12452246826365L1034.6241913580247,337.10012768119617L1035.558151234568,287.0570447346192L1036.7645339506173,405.2529986281624L1042.4965679012346,441.56169006947545L1042.7314521604937,319.0192032311034L1043.3829074074074,409.1640071399897L1044.0045462962962,419.87738007719366L1044.4781759259258,346.3362770011507L1045.331910493827,362.60957423137506L1047.50550154321,331.212857277138L1049.649061728395,358.30645270145385L1051.5498009259259,368.674660338244L1051.7964830246913,345.68473113651334L1052.0530324074073,485.52657883828965L1053.748060185185,428.57585974271075L1053.7577129629628,325.11296031153745L1054.6775154320985,378.381516393117L1055.1097453703703,274.2043844006554L1056.313339506173,357.5703034735807L1056.855825617284,389.06329701665953L1056.9006574074074,353.18915494560395L1057.9008996913578,411.31500809464603L1062.4600138888889,452.95791496493706L1065.4326404320987,346.53117548844546L1067.2932669753086,428.65010706318833L1068.4102006172839,448.4576172329672L1069.373547839506,284.9241263573295L1069.9917546296297,462.99756798356793L1072.5690462962964,402.0032822339024L1072.8253811728393,334.22110420513815L1073.071848765432,406.9498981264849L1073.128049382716,313.12418073062764L1075.3947361111111,392.75458712111805L1077.0650956790123,451.7073074830383L1077.2557916666665,376.68584309646207L1077.5925663580247,374.3974150282642L1079.1074089506171,487.1486019469419L1083.536961419753,453.5032688107436L1083.6497916666667,318.00506866762026L1083.6881882716048,257.3327901451117L1083.8025200617283,381.4008263853057L1085.2392824074072,391.62029594087386L1086.182037037037,349.9333026009345L1087.149674382716,406.60849428956584L1098.6287577160492,465.4395979972951L1104.129125,312.37988621574243L1104.8284151234568,344.7018547519742L1105.7484320987655,300.17181341696954L1106.037800925926,370.1985482542019L1109.1406327160491,525.3749527602278L1109.7800756172837,403.2936675229502L1111.3406080246912,317.05928586082393L1113.074675925926,366.18562247388724L1113.134523148148,377.53752394668413L1113.6270293209875,455.08015394560135L1120.3288456790124,477.73953451757325L1120.5474274691358,317.18809051370147L1121.704259259259,333.39169830870804L1122.2917916666665,444.1062090247219L1126.1505432098763,436.18841225480844L1127.4305015432099,307.8120534259333L1128.599774691358,449.3862369213337L1130.857023148148,353.8564440677185L1130.8765432098764,346.81981615970636L1132.8570787037036,382.234043944501L1132.97312654321,381.2993376301855L1134.5718410493826,292.453823488392L1134.583424382716,429.98456472862347L1135.3464228395062,351.8714529668171L1136.4884537037035,374.6449675322214L1137.482260802469,393.02960012485914L1137.7527530864197,349.6063778047365L1140.9366682098764,342.48339751179066L1143.4802824074075,449.1552256704043L1148.0634212962964,444.17485671134204L1148.8193410493827,333.9288632738097L1149.9699521604937,427.5369215528203L1151.3794722222221,392.74158630201487L1152.6090216049383,357.7489021125313L1154.076672839506,376.55593082949144L1157.079973765432,439.72013797054456L1157.498260802469,413.2329754651464L1160.277188271605,370.58395276594945L1161.0867345679012,475.5872154608664L1163.106739197531,344.12147184833344L1163.7515447530864,297.5187882559497L1164.4077191358026,417.051114691955L1169.0657206790122,389.99684432728384L1171.7575586419753,331.6921499992801L1174.6465277777777,369.8449279665667L1175.6027962962962,431.70090163291337L1175.9515833333335,328.12648513107115L1178.1489845679012,395.3264430721068L1178.7133503086418,311.30818214555137L1178.7719104938271,357.1057553804185L1180.1657716049383,419.0272741186226L1183.6673703703702,391.4864995130765L1183.9468719135803,369.1892251417056L1186.4190555555556,439.8266984128242L1186.5179429012344,430.95084443641406L1187.478287037037,310.06195318106325L1188.2307746913582,414.9760197574979L1189.4369429012345,416.7209997671615L1190.9953302469135,340.13910907382115L1191.3055061728394,369.8809470128983L1192.6242901234568,221.47078749048046L1193.1236604938272,406.5695948944019L1194.0966604938271,354.0763609051259L1194.9570447530862,325.339244605059L1199.479049382716,484.00264249453704L1202.0048595679013,317.23838863608574L1202.3532175925925,413.032945998633L1206.9526589506174,395.2167652734936L1209.3952407407407,375.1663221389124L1209.6801049382714,342.96904673489433L1209.945449074074,318.6196874147127L1213.0478518518516,377.01899344064776L1215.840936728395,419.84688443272796L1216.1916543209875,472.86185790568413L1216.3229320987652,357.39138119839095L1216.523709876543,292.18773175760987L1219.6563580246914,376.3118430836596L1219.8165941358025,347.4313316354854L1221.0838966049382,433.7854872793268L1223.3471512345677,349.358847553537L1223.9805879629628,453.30261236180604L1224.603084876543,463.6261500033682L1225.2691265432097,313.11467118994346L1227.1462700617283,425.0024935783818L1227.2689675925926,343.61586615442616L1228.0459089506173,392.46780799083166L1230.0888657407406,327.4427102609258L1232.6891095679011,407.98461668223433L1234.0746049382715,327.1394080626169L1234.5705432098764,410.6226930985093L1239.8347391975308,394.42883852463933L1240.5655617283949,300.1660335396282L1242.7756188271603,437.3385053525976L1243.0948040123455,369.64870560376943L1245.1866682098764,388.907727908298L1246.1901280864197,402.7057230152616L1246.608200617284,368.5356296202076L1250.6005895061728,339.2090696008431L1251.273709876543,356.9577194980293L1254.2834459876542,372.66718920926877L1255.0854845679012,327.0141823302656L1256.4285077160491,394.9651623340201L1260.9086836419751,387.02583984646225L1261.0341697530862,347.0990535047797L1262.506111111111,384.55769289950877L1263.643637345679,346.5961964915528L1267.9845987654319,414.013098507292L1268.4438564814814,437.63212539184605L1268.4985555555556,300.7944896667751L1268.949662037037,411.38682084937443L1269.5637932098764,361.1546110637412L1270.128587962963,408.85186876594406L1270.530787037037,375.0820974671914L1273.6469182098765,329.58600542988194L1274.0463287037037,326.02957211787486L1275.307839506173,393.2815310589996L1275.551947530864,327.7702401866762L1276.3514120370369,407.0885959064376" style="fill: none;" fill="none"></path></g></g></g></g></g></g><g transform="translate(58, 378)" clip-path="url(#clip_1)"><clipPath id="clip_1"><rect width="1390" height="22"></rect></clipPath><g><g><line x1="0" y1="0" x2="0" y2="5" style="visibility: inherit;" fill="rgb(0, 0, 0)" stroke="rgb(204, 204, 204)" stroke-width="1px"></line><line x1="154.44444444444446" y1="0" x2="154.44444444444446" y2="5" style="visibility: inherit;" fill="rgb(0, 0, 0)" stroke="rgb(204, 204, 204)" stroke-width="1px"></line><line x1="308.8888888888889" y1="0" x2="308.8888888888889" y2="5" style="visibility: inherit;" fill="rgb(0, 0, 0)" stroke="rgb(204, 204, 204)" stroke-width="1px"></line><line x1="463.33333333333337" y1="0" x2="463.33333333333337" y2="5" style="visibility: inherit;" fill="rgb(0, 0, 0)" stroke="rgb(204, 204, 204)" stroke-width="1px"></line><line x1="617.7777777777778" y1="0" x2="617.7777777777778" y2="5" style="visibility: inherit;" fill="rgb(0, 0, 0)" stroke="rgb(204, 204, 204)" stroke-width="1px"></line><line x1="772.2222222222223" y1="0" x2="772.2222222222223" y2="5" style="visibility: inherit;" fill="rgb(0, 0, 0)" stroke="rgb(204, 204, 204)" stroke-width="1px"></line><line x1="926.6666666666666" y1="0" x2="926.6666666666666" y2="5" style="visibility: inherit;" fill="rgb(0, 0, 0)" stroke="rgb(204, 204, 204)" stroke-width="1px"></line><line x1="1081.111111111111" y1="0" x2="1081.111111111111" y2="5" style="visibility: inherit;" fill="rgb(0, 0, 0)" stroke="rgb(204, 204, 204)" stroke-width="1px"></line><line x1="1235.5555555555554" y1="0" x2="1235.5555555555554" y2="5" style="visibility: inherit;" fill="rgb(0, 0, 0)" stroke="rgb(204, 204, 204)" stroke-width="1px"></line><line x1="1390" y1="0" x2="1390" y2="5" style="visibility: inherit;" fill="rgb(0, 0, 0)" stroke="rgb(204, 204, 204)" stroke-width="1px"></line></g><g transform="translate(0, 8)"><text x="0" y="0" dx="0em" dy="0.95em" style="text-anchor: middle; visibility: hidden; font-family: &quot;Helvetica Neue&quot;, sans-serif; font-size: 12px; font-weight: 200;" fill="rgb(50, 49, 63)" stroke="none" stroke-width="1px">-0.2</text><text x="154.44444444444446" y="0" dx="0em" dy="0.95em" style="text-anchor: middle; visibility: inherit; font-family: &quot;Helvetica Neue&quot;, sans-serif; font-size: 12px; font-weight: 200;" fill="rgb(50, 49, 63)" stroke="none" stroke-width="1px">0</text><text x="308.8888888888889" y="0" dx="0em" dy="0.95em" style="text-anchor: middle; visibility: inherit; font-family: &quot;Helvetica Neue&quot;, sans-serif; font-size: 12px; font-weight: 200;" fill="rgb(50, 49, 63)" stroke="none" stroke-width="1px">0.2</text><text x="463.33333333333337" y="0" dx="0em" dy="0.95em" style="text-anchor: middle; visibility: inherit; font-family: &quot;Helvetica Neue&quot;, sans-serif; font-size: 12px; font-weight: 200;" fill="rgb(50, 49, 63)" stroke="none" stroke-width="1px">0.4</text><text x="617.7777777777778" y="0" dx="0em" dy="0.95em" style="text-anchor: middle; visibility: inherit; font-family: &quot;Helvetica Neue&quot;, sans-serif; font-size: 12px; font-weight: 200;" fill="rgb(50, 49, 63)" stroke="none" stroke-width="1px">0.6</text><text x="772.2222222222223" y="0" dx="0em" dy="0.95em" style="text-anchor: middle; visibility: inherit; font-family: &quot;Helvetica Neue&quot;, sans-serif; font-size: 12px; font-weight: 200;" fill="rgb(50, 49, 63)" stroke="none" stroke-width="1px">0.8</text><text x="926.6666666666666" y="0" dx="0em" dy="0.95em" style="text-anchor: middle; visibility: inherit; font-family: &quot;Helvetica Neue&quot;, sans-serif; font-size: 12px; font-weight: 200;" fill="rgb(50, 49, 63)" stroke="none" stroke-width="1px">1</text><text x="1081.111111111111" y="0" dx="0em" dy="0.95em" style="text-anchor: middle; visibility: inherit; font-family: &quot;Helvetica Neue&quot;, sans-serif; font-size: 12px; font-weight: 200;" fill="rgb(50, 49, 63)" stroke="none" stroke-width="1px">1.2</text><text x="1235.5555555555554" y="0" dx="0em" dy="0.95em" style="text-anchor: middle; visibility: inherit; font-family: &quot;Helvetica Neue&quot;, sans-serif; font-size: 12px; font-weight: 200;" fill="rgb(50, 49, 63)" stroke="none" stroke-width="1px">1.4</text><text x="1390" y="0" dx="0em" dy="0.95em" style="text-anchor: middle; visibility: hidden; font-family: &quot;Helvetica Neue&quot;, sans-serif; font-size: 12px; font-weight: 200;" fill="rgb(50, 49, 63)" stroke="none" stroke-width="1px">1.6</text></g><line x1="0" y1="0" x2="1390" y2="0" fill="rgb(0, 0, 0)" stroke="rgb(204, 204, 204)" stroke-width="1px"></line></g></g></g></g></svg>