<svg viewBox="0 0 1448 400" xmlns="http://www.w3.org/2000/svg"><g><g><g><g><g><line x1="70" y1="378" x2="65" y2="378" style="visibility: inherit;" fill="rgb(0, 0, 0)" stroke="rgb(204, 204, 204)" stroke-width="1px"></line><line x1="70" y1="343.6363636363636" x2="65" y2="343.6363636363636" style="visibility: inherit;" fill="rgb(0, 0, 0)" stroke="rgb(204, 204, 204)" stroke-width="1px"></line><line x1="70" y1="309.27272727272725" x2="65" y2="309.27272727272725" style="visibility: inherit;" fill="rgb(0, 0, 0)" stroke="rgb(204, 204, 204)" stroke-width="1px"></line><line x1="70" y1="274.9090909090909" x2="65" y2="274.9090909090909" style="visibility: inherit;" fill="rgb(0, 0, 0)" stroke="rgb(204, 204, 204)" stroke-width="1px"></line><line x1="70" y1="240.54545454545456" x2="65" y2="240.54545454545456" style="visibility: inherit;" fill="rgb(0, 0, 0)" stroke="rgb(204, 204, 204)" stroke-width="1px"></line><line x1="70" y1="206.18181818181816" x2="65" y2="206.18181818181816" style="visibility: inherit;" fill="rgb(0, 0, 0)" stroke="rgb(204, 204, 204)" stroke-width="1px"></line><line x1="70" y1="171.81818181818184" x2="65" y2="171.81818181818184" style="visibility: inherit;" fill="rgb(0, 0, 0)" stroke="rgb(204, 204, 204)" stroke-width="1px"></line><line x1="70" y1="137.4545454545454" x2="65" y2="137.4545454545454" style="visibility: inherit;" fill="rgb(0, 0, 0)" stroke="rgb(204, 204, 204)" stroke-width="1px"></line><line x1="70" y1="103.09090909090907" x2="65" y2="103.09090909090907" style="visibility: inherit;" fill="rgb(0, 0, 0)" stroke="rgb(204, 204, 204)" stroke-width="1px"></line><line x1="70" y1="68.72727272727269" x2="65" y2="68.72727272727269" style="visibility: inherit;" fill="rgb(0, 0, 0)" stroke="rgb(204, 204, 204)" stroke-width="1px"></line><line x1="70" y1="34.36363636363643" x2="65" y2="34.36363636363643" style="visibility: inherit;" fill="rgb(0, 0, 0)" stroke="rgb(204, 204, 204)" stroke-width="1px"></line><line x1="70" y1="0" x2="65" y2="0" style="visibility: inherit;" fill="rgb(0, 0, 0)" stroke="rgb(204, 204, 204)" stroke-width="1px"></line></g><g transform="translate(60, 0)"><text x="0" y="378" dx="0em" dy="0.3em" style="text-anchor: end; visibility: hidden; font-family: &quot;Helvetica Neue&quot;, sans-serif; font-size: 12px; font-weight: 200;" fill="rgb(50, 49, 63)" stroke="none" stroke-width="1px">0.01</text><text x="0" y="343.6363636363636" dx="0em" dy="0.3em" style="text-anchor: end; visibility: inherit; font-family: &quot;Helvetica Neue&quot;, sans-serif; font-size: 12px; font-weight: 200;" fill="rgb(50, 49, 63)" stroke="none" stroke-width="1px">0.012</text><text x="0" y="309.27272727272725" dx="0em" dy="0.3em" style="text-anchor: end; visibility: inherit; font-family: &quot;Helvetica Neue&quot;, sans-serif; font-size: 12px; font-weight: 200;" fill="rgb(50, 49, 63)" stroke="none" stroke-width="1px">0.014</text><text x="0" y="274.9090909090909" dx="0em" dy="0.3em" style="text-anchor: end; visibility: inherit; font-family: &quot;Helvetica Neue&quot;, sans-serif; font-size: 12px; font-weight: 200;" fill="rgb(50, 49, 63)" stroke="none" stroke-width="1px">0.016</text><text x="0" y="240.54545454545456" dx="0em" dy="0.3em" style="text-anchor: end; visibility: inherit; font-family: &quot;Helvetica Neue&quot;, sans-serif; font-size: 12px; font-weight: 200;" fill="rgb(50, 49, 63)" stroke="none" stroke-width="1px">0.018</text><text x="0" y="206.18181818181816" dx="0em" dy="0.3em" style="text-anchor: end; visibility: inherit; font-family: &quot;Helvetica Neue&quot;, sans-serif; font-size: 12px; font-weight: 200;" fill="rgb(50, 49, 63)" stroke="none" stroke-width="1px">0.02</text><text x="0" y="171.81818181818184" dx="0em" dy="0.3em" style="text-anchor: end; visibility: inherit; font-family: &quot;Helvetica Neue&quot;, sans-serif; font-size: 12px; font-weight: 200;" fill="rgb(50, 49, 63)" stroke="none" stroke-width="1px">0.022</text><text x="0" y="137.4545454545454" dx="0em" dy="0.3em" style="text-anchor: end; visibility: inherit; font-family: &quot;Helvetica Neue&quot;, sans-serif; font-size: 12px; font-weight: 200;" fill="rgb(50, 49, 63)" stroke="none" stroke-width="1px">0.024</text><text x="0" y="103.09090909090907" dx="0em" dy="0.3em" style="text-anchor: end; visibility: inherit; font-family: &quot;Helvetica Neue&quot;, sans-serif; font-size: 12px; font-weight: 200;" fill="rgb(50, 49, 63)" stroke="none" stroke-width="1px">0.026</text><text x="0" y="68.72727272727269" dx="0em" dy="0.3em" style="text-anchor: end; visibility: inherit; font-family: &quot;Helvetica Neue&quot;, sans-serif; font-size: 12px; font-weight: 200;" fill="rgb(50, 49, 63)" stroke="none" stroke-width="1px">0.028</text><text x="0" y="34.36363636363643" dx="0em" dy="0.3em" style="text-anchor: end; visibility: inherit; font-family: &quot;Helvetica Neue&quot;, sans-serif; font-size: 12px; font-weight: 200;" fill="rgb(50, 49, 63)" stroke="none" stroke-width="1px">0.03</text><text x="0" y="0" dx="0em" dy="0.3em" style="text-anchor: end; visibility: hidden; font-family: &quot;Helvetica Neue&quot;, sans-serif; font-size: 12px; font-weight: 200;" fill="rgb(50, 49, 63)" stroke="none" stroke-width="1px">0.032</text></g><line x1="70" y1="0" x2="70" y2="378" fill="rgb(0, 0, 0)" stroke="rgb(204, 204, 204)" stroke-width="1px"></line></g></g><g transform="translate(70, 0)" clip-path="url(#clip_0)"><clipPath id="clip_0"><rect width="1378" height="378"></rect></clipPath><g><g><g><line x1="0" y1="0" x2="0" y2="378" fill="rgb(0, 0, 0)" stroke="rgb(60, 60, 60)" stroke-width="1px" opacity="0.25"></line><line x1="114.83333333333333" y1="0" x2="114.83333333333333" y2="378" fill="rgb(0, 0, 0)" stroke="rgb(60, 60, 60)" stroke-width="1px" opacity="0.25"></line><line x1="229.66666666666666" y1="0" x2="229.66666666666666" y2="378" fill="rgb(0, 0, 0)" stroke="rgb(60, 60, 60)" stroke-width="1px" opacity="0.25"></line><line x1="344.5" y1="0" x2="344.5" y2="378" fill="rgb(0, 0, 0)" stroke="rgb(60, 60, 60)" stroke-width="1px" opacity="0.25"></line><line x1="459.3333333333333" y1="0" x2="459.3333333333333" y2="378" fill="rgb(0, 0, 0)" stroke="rgb(60, 60, 60)" stroke-width="1px" opacity="0.25"></line><line x1="574.1666666666667" y1="0" x2="574.1666666666667" y2="378" fill="rgb(0, 0, 0)" stroke="rgb(60, 60, 60)" stroke-width="1px" opacity="0.25"></line><line x1="689" y1="0" x2="689" y2="378" fill="rgb(0, 0, 0)" stroke="rgb(60, 60, 60)" stroke-width="1px" opacity="0.25"></line><line x1="803.8333333333334" y1="0" x2="803.8333333333334" y2="378" fill="rgb(0, 0, 0)" stroke="rgb(60, 60, 60)" stroke-width="1px" opacity="0.25"></line><line x1="918.6666666666666" y1="0" x2="918.6666666666666" y2="378" fill="rgb(0, 0, 0)" stroke="rgb(60, 60, 60)" stroke-width="1px" opacity="0.25"></line><line x1="1033.5" y1="0" x2="1033.5" y2="378" fill="rgb(0, 0, 0)" stroke="rgb(60, 60, 60)" stroke-width="1px" opacity="0.25"></line><line x1="1148.3333333333335" y1="0" x2="1148.3333333333335" y2="378" fill="rgb(0, 0, 0)" stroke="rgb(60, 60, 60)" stroke-width="1px" opacity="0.25"></line><line x1="1263.1666666666665" y1="0" x2="1263.1666666666665" y2="378" fill="rgb(0, 0, 0)" stroke="rgb(60, 60, 60)" stroke-width="1px" opacity="0.25"></line><line x1="1378" y1="0" x2="1378" y2="378" fill="rgb(0, 0, 0)" stroke="rgb(60, 60, 60)" stroke-width="1px" opacity="0.25"></line></g><g><line x1="0" y1="378" x2="1378" y2="378" fill="rgb(0, 0, 0)" stroke="rgb(60, 60, 60)" stroke-width="1px" opacity="0.25"></line><line x1="0" y1="343.6363636363636" x2="1378" y2="343.6363636363636" fill="rgb(0, 0, 0)" stroke="rgb(60, 60, 60)" stroke-width="1px" opacity="0.25"></line><line x1="0" y1="309.27272727272725" x2="1378" y2="309.27272727272725" fill="rgb(0, 0, 0)" stroke="rgb(60, 60, 60)" stroke-width="1px" opacity="0.25"></line><line x1="0" y1="274.9090909090909" x2="1378" y2="274.9090909090909" fill="rgb(0, 0, 0)" stroke="rgb(60, 60, 60)" stroke-width="1px" opacity="0.25"></line><line x1="0" y1="240.54545454545456" x2="1378" y2="240.54545454545456" fill="rgb(0, 0, 0)" stroke="rgb(60, 60, 60)" stroke-width="1px" opacity="0.25"></line><line x1="0" y1="206.18181818181816" x2="1378" y2="206.18181818181816" fill="rgb(0, 0, 0)" stroke="rgb(60, 60, 60)" stroke-width="1px" opacity="0.25"></line><line x1="0" y1="171.81818181818184" x2="1378" y2="171.81818181818184" fill="rgb(0, 0, 0)" stroke="rgb(60, 60, 60)" stroke-width="1px" opacity="0.25"></line><line x1="0" y1="137.4545454545454" x2="1378" y2="137.4545454545454" fill="rgb(0, 0, 0)" stroke="rgb(60, 60, 60)" stroke-width="1px" opacity="0.25"></line><line x1="0" y1="103.09090909090907" x2="1378" y2="103.09090909090907" fill="rgb(0, 0, 0)" stroke="rgb(60, 60, 60)" stroke-width="1px" opacity="0.25"></line><line x1="0" y1="68.72727272727269" x2="1378" y2="68.72727272727269" fill="rgb(0, 0, 0)" stroke="rgb(60, 60, 60)" stroke-width="1px" opacity="0.25"></line><line x1="0" y1="34.36363636363643" x2="1378" y2="34.36363636363643" fill="rgb(0, 0, 0)" stroke="rgb(60, 60, 60)" stroke-width="1px" opacity="0.25"></line><line x1="0" y1="0" x2="1378" y2="0" fill="rgb(0, 0, 0)" stroke="rgb(60, 60, 60)" stroke-width="1px" opacity="0.25"></line></g></g></g><g><g><line x1="0" y1="549.8181818181819" x2="1378" y2="549.8181818181819" fill="rgb(0, 0, 0)" stroke="rgb(153, 153, 153)" stroke-width="1.5px"></line></g></g><g><g><line x1="114.83333333333333" y1="0" x2="114.83333333333333" y2="378" fill="rgb(0, 0, 0)" stroke="rgb(153, 153, 153)" stroke-width="1.5px"></line></g></g><g><g><g><g><g><path stroke="rgb(255, 112, 67)" stroke-width="2px" d="M133.20666666666668,-3.3456055957080935L133.20666666666668,3.1376462617426455L135.50333333333333,13.438576509463246L135.50333333333333,18.31941127766015L137.8,20.369583435874972L137.8,24.455838543404354L137.8,29.77535193207251L137.8,35.57049520407912L140.09666666666666,35.201340678045426L140.09666666666666,40.18792542961569L140.09666666666666,46.85238998552285L142.39333333333335,52.75147052702005L142.39333333333335,58.6860688494894L142.39333333333335,58.00210947031252L142.39333333333335,60.44840707429415L144.69,62.98286726823619L144.69,65.91965829320003L146.98666666666668,72.10461948269221L146.98666666666668,76.57340232308951L151.58,69.41583692182377L151.58,65.8666409213871L151.58,65.02748696872885L151.58,62.499970795708066L153.87666666666667,58.60514809954452L153.87666666666667,63.25366059916797L153.87666666666667,63.69962153627557L156.17333333333332,57.4174162251295L160.76666666666668,63.280590202142776L160.76666666666668,66.50215490892697L165.35999999999999,70.25807934076948L167.65666666666667,72.50894103583732L167.65666666666667,75.53149868202456L167.65666666666667,78.50558588317807L169.95333333333335,74.3977308753698L172.25,73.54909015515398L174.54666666666668,77.1145820551385L176.84333333333333,81.57495418352329L176.84333333333333,85.63419414813166L176.84333333333333,88.3180435148376L186.03,88.87696393866639L186.03,92.82494516561741L186.03,94.13532843535677L186.03,95.39123033647991L188.32666666666665,97.99426512132618L188.32666666666665,101.24480509493264L188.32666666666665,104.25664058843932L188.32666666666665,107.17520611542687L190.62333333333333,101.17574309230793L190.62333333333333,102.6133287681169L190.62333333333333,105.26495014269437L190.62333333333333,104.07820910037623L190.62333333333333,106.78416681048145L192.92000000000002,107.47130941931658L195.21666666666667,109.13056816068644L195.21666666666667,111.41710505009871L199.80999999999997,114.88391957564414L199.80999999999997,117.66429514393116L199.80999999999997,118.4679149285356L199.80999999999997,116.33327293123136L199.80999999999997,114.26282515649217L202.10666666666665,110.08203958560227L202.10666666666665,109.04429174822246L202.10666666666665,111.56787091218217L202.10666666666665,113.24203695702607L204.40333333333334,114.39323780363321L204.40333333333334,116.2059341951653L206.7,118.23003142743329L208.99666666666667,119.27714696663793L208.99666666666667,120.76790175034108L211.29333333333332,120.31483549710646L211.29333333333332,120.60955029003838L215.88666666666668,123.75307300431797L218.18333333333334,125.98698964793363L220.48000000000002,127.9128433365143L220.48000000000002,130.26921629825273L220.48000000000002,130.1597689324025L220.48000000000002,131.99119482330764L222.77666666666664,133.77119184836334L225.07333333333332,135.0592036662017L225.07333333333332,136.91551333476016L225.07333333333332,138.62038352909298L225.07333333333332,139.56899071277803L227.37,141.83934616251014L227.37,143.0649753207387L227.37,143.6873253832973L229.66666666666666,144.24317671599727L229.66666666666666,145.15429248371848L231.96333333333334,146.30087681008945L234.26000000000002,147.45945539946274L234.26000000000002,148.05279625214575L234.26000000000002,148.79747640757583L234.26000000000002,150.7418047769874L236.55666666666667,151.6571934269627L236.55666666666667,152.74917387137805L236.55666666666667,153.9709884473523L236.55666666666667,154.4800452241962L238.85333333333335,155.34142739577956L238.85333333333335,156.45325963079566L238.85333333333335,157.33267325253252L238.85333333333335,157.6875481385783L238.85333333333335,159.1084273144134L238.85333333333335,160.93466881912386L238.85333333333335,162.12122756430196L241.14999999999998,162.18842275215698L241.14999999999998,163.56939002206767L241.14999999999998,164.56176390421726L245.74333333333334,165.1229769343124L245.74333333333334,164.13108891357163L248.04,164.92352876207917L250.33666666666667,166.5450578278866L250.33666666666667,167.0893316418966L250.33666666666667,167.82118647850817L250.33666666666667,167.7506966287921L252.63333333333333,169.14935205469308L252.63333333333333,169.43751956303757L254.93,170.77338752448318L257.2266666666667,171.81505789716243L257.2266666666667,172.71989382377828L257.2266666666667,174.1176628614665L259.5233333333333,174.54966795251056L261.82,175.58327471523464L261.82,176.0088072216373L264.1166666666667,177.2128426263166L264.1166666666667,178.10314647316906L264.1166666666667,179.48275334208125L264.1166666666667,180.661821387125L266.41333333333336,181.34110558396617L266.41333333333336,182.35242991122217L271.00666666666666,182.82143265900865L271.00666666666666,183.9294716664159L275.6,184.47979015382805L275.6,185.2511614782841L275.6,186.14469360075066L277.89666666666665,186.75675966139545L277.89666666666665,187.2420109182102L277.89666666666665,188.375121204397L277.89666666666665,189.64121691265385L277.89666666666665,190.4259983900591L280.1933333333333,191.28122803037286L280.1933333333333,191.76710217282763L282.49,191.3328377484846L282.49,191.7339843353931L282.49,192.44152425178208L284.7866666666667,192.34780325979713L287.08333333333337,192.97830372545297L289.38,194.0797448934377L291.6766666666667,195.16923056564994L291.6766666666667,196.01391275525594L291.6766666666667,196.9830190310274L296.27,198.13106720163697L296.27,199.28632714362794L300.86333333333334,199.98086344494013L303.16,200.61161192357946L303.16,200.64306957515655L303.16,201.51227554467732L303.16,202.52188527983137L305.4566666666667,203.38888071012607L307.75333333333333,203.72054313162784L310.05,204.41186056306336L310.05,205.3653750837259L310.05,206.49350286477525L312.34666666666664,207.4174906549631L312.34666666666664,208.24415030398382L312.34666666666664,208.70140712105513L314.6433333333333,208.88887854256595L314.6433333333333,209.67238589116735L316.94,209.99096862418094L319.2366666666667,210.65987791078734L321.53333333333336,211.2995615930308L321.53333333333336,211.42526908286354L323.83,212.14412676221252L323.83,212.25083287928794L323.83,212.24731881080868L326.12666666666667,211.58439024100718L326.12666666666667,211.71953982935239L326.12666666666667,212.22397833724193L328.42333333333335,212.55328415903742L333.01666666666665,213.48947571859216L333.01666666666665,213.8439588070576L333.01666666666665,214.1797965279733L335.31333333333333,214.63793598841636L335.31333333333333,215.42427698479722L335.31333333333333,216.1413119857531L335.31333333333333,216.55942363446778L337.61,216.9993275831612L337.61,217.3136092826379L337.61,217.78716540725452L339.9066666666667,218.51349589486705L342.2033333333333,219.4700865530269L342.2033333333333,220.30009444032393L344.5,220.97355691986286L346.7966666666666,221.546680880543L351.39,221.930318490217L351.39,222.69445677067142L351.39,223.18712574038065L353.68666666666667,223.97672669508412L355.98333333333335,224.94000064221584L358.28000000000003,225.60984451354582L358.28000000000003,226.17594456884146L358.28000000000003,226.6650248243637L362.8733333333333,227.06521006327637L362.8733333333333,227.58906535764967L362.8733333333333,228.46078239066574L365.17,228.22100618299163L367.46666666666664,228.51626464606588L369.7633333333333,229.52394060690526L369.7633333333333,230.24871546661686L372.06,230.72988469537324L372.06,231.30454372307528L372.06,232.1423914379896L374.3566666666667,232.6173250845814L374.3566666666667,233.06314353529567L376.6533333333333,233.6355375318687L376.6533333333333,234.16867651497438L376.6533333333333,234.66562140687117L378.95000000000005,235.1379829533503L381.24666666666667,235.38013692196745L381.24666666666667,236.1403970872144L381.24666666666667,236.88613933608562L381.24666666666667,237.24264943584885L383.5433333333333,238.049537550805L383.5433333333333,238.5737682859368L383.5433333333333,238.99357022633416L383.5433333333333,239.310806274407L383.5433333333333,240.01353103426882L385.84000000000003,240.06194382326564L385.84000000000003,240.3810342394412L385.84000000000003,240.70900189591418L390.43333333333334,240.15471398436068L395.0266666666667,240.4280047935182L397.3233333333333,237.29964191415786L399.61999999999995,237.25097583765057L399.61999999999995,237.44743726515838L399.61999999999995,237.59262226113017L399.61999999999995,237.43856032356837L401.9166666666667,236.75362974128734L401.9166666666667,237.15296196101886L401.9166666666667,237.24492038422107L404.2133333333333,237.09902798380173L406.51,236.36072070799526L408.8066666666667,236.80249942716887L408.8066666666667,236.87973203020826L408.8066666666667,237.3364017339813L408.8066666666667,237.95808460508871L408.8066666666667,238.41619738562986L408.8066666666667,238.66344236989212L411.10333333333335,239.06540522106363L413.4,239.1282539311279L413.4,239.4289789748642L413.4,239.2480958001542L413.4,239.4193697934666L413.4,239.81830087668277L415.6966666666667,239.58917074833226L415.6966666666667,240.04159586206367L415.6966666666667,240.44563203481275L415.6966666666667,239.39678769222581L415.6966666666667,239.4005762657046L417.99333333333334,239.7484805147757L422.58666666666664,239.89553726067578L422.58666666666664,239.31511231960633L422.58666666666664,239.58251669487754L424.8833333333333,239.38106666144017L429.47666666666663,239.42065468823532L429.47666666666663,239.20708614220862L431.77333333333337,239.38011713238865L434.07,239.4551057769966L434.07,240.06478728601067L434.07,240.20852774971644L436.3666666666667,240.18082475036996L438.66333333333336,240.1264055358464L438.66333333333336,240.21231715014346L438.66333333333336,240.17633919424568L440.96000000000004,239.35311888734967L440.96000000000004,239.2522298209534L443.25666666666666,239.593201880165L445.5533333333333,239.81766842920285L445.5533333333333,240.14475674830922L447.85,240.28133619781616L447.85,240.80693983465426L450.14666666666665,240.74819655100515L450.14666666666665,241.03645912920513L450.14666666666665,241.14048427337426L454.74,241.43166376532884L457.0366666666667,242.05106175955027L457.0366666666667,242.40066105476888L459.3333333333333,242.75080067983046L461.63000000000005,242.38693050907744L461.63000000000005,242.49652362624323L461.63000000000005,242.79520279912174L461.63000000000005,243.1929584436696L463.9266666666667,242.52340400766653L463.9266666666667,242.65135544452556L466.2233333333333,242.9820430989036L468.52000000000004,243.37341427443582L468.52000000000004,243.72434631290196L470.81666666666666,243.96855037924115L470.81666666666666,244.22084762247573L470.81666666666666,244.37920668195665L473.11333333333334,244.04555012046896L475.40999999999997,244.072712195188L475.40999999999997,244.5089051233114L477.7066666666667,244.72461619218112L480.00333333333333,244.60432269835354L480.00333333333333,244.90544376629214L482.29999999999995,245.08701602359778L482.29999999999995,245.50171946306094L484.5966666666667,245.75407184322887L486.8933333333333,245.9557987791162L486.8933333333333,246.23052947460545L486.8933333333333,246.25218044352658L489.19,246.20342426749008L491.4866666666667,246.475243323131L491.4866666666667,247.01048368636978L491.4866666666667,247.37975979372843L491.4866666666667,247.03522021262654L491.4866666666667,247.36217836265678L493.78333333333336,247.7289103747931L493.78333333333336,248.11258039544052L496.08,248.41188144731055L496.08,248.53528285994557L498.3766666666667,248.92348683971883L498.3766666666667,249.33017731941408L498.3766666666667,249.4800983898513L498.3766666666667,249.28314687946752L498.3766666666667,249.61356915471757L498.3766666666667,249.93571713436867L500.67333333333335,250.17641121745794L500.67333333333335,250.26589770679126L502.96999999999997,250.62323924882577L502.96999999999997,251.04121197487981L505.26666666666665,251.07364221555378L505.26666666666665,251.22475713466534L507.56333333333333,250.97140739103642L507.56333333333333,250.70357382308833L507.56333333333333,251.0390780136505L509.86,251.3123971677473L509.86,251.52443879527408L509.86,251.55978403190647L512.1566666666666,251.63129339497763L512.1566666666666,251.85066084512914L512.1566666666666,251.79483919542372L512.1566666666666,251.82215247503748L512.1566666666666,252.1824256889484L516.75,251.97514100939736L521.3433333333334,251.96311833237036L523.64,251.65107813111888L523.64,251.83239973253842L523.64,251.8460549751149L525.9366666666666,252.13024701510196L525.9366666666666,252.0857222853004L528.2333333333333,252.30584526207122L528.2333333333333,252.3634842593388L528.2333333333333,252.12515423136665L530.53,252.46407127789627L530.53,252.84783732687634L532.8266666666667,251.8251272470104L532.8266666666667,252.07051314587272L535.1233333333333,252.16981572822033L535.1233333333333,252.1895129706952L537.4200000000001,252.55289178964307L537.4200000000001,252.35667870313978L539.7166666666667,252.5908302783408L539.7166666666667,252.65831162930476L539.7166666666667,252.435083287625L542.0133333333333,252.41665227945285L542.0133333333333,252.52445322121906L544.3100000000001,252.1654420279227L546.6066666666667,251.93606162306446L546.6066666666667,251.7045807129714L546.6066666666667,252.02514702084179L548.9033333333333,251.90624349052007L551.2,251.70515894972976L551.2,252.08407454532954L551.2,251.13492762575424L551.2,251.4753328186349L553.4966666666667,251.45857486538662L553.4966666666667,251.8829347154026L555.7933333333333,252.14720051697432L555.7933333333333,252.38986416313983L555.7933333333333,252.64743110522517L558.09,252.87387567952754L560.3866666666667,253.10128103035578L560.3866666666667,253.441644972228L562.6833333333333,253.79157389013187L567.2766666666666,254.12564863946494L567.2766666666666,254.4897153130531L567.2766666666666,254.60687545406108L567.2766666666666,254.77406390688674L569.5733333333334,255.06630440804494L569.5733333333334,255.31033658940993L571.87,255.55131553414446L574.1666666666667,255.44084152793738L574.1666666666667,255.61427456168536L574.1666666666667,255.91986055326538L576.4633333333334,255.95855545690858L576.4633333333334,256.12033692303345L578.76,256.1982125902275L581.0566666666667,256.5523329617623L581.0566666666667,256.7598718004849L581.0566666666667,256.44280353948807L583.3533333333334,256.3341594035406L590.2433333333333,256.5606871210976L592.54,256.4395646217256L592.54,256.5336728301125L592.54,256.7059706291673L594.8366666666666,256.90145272875833L594.8366666666666,257.02990979312915L594.8366666666666,257.35785221706476L597.1333333333333,257.6419145250959L597.1333333333333,257.83745840764885L599.43,258.075121463551L599.43,258.3393125543624L599.43,258.12322490191457L599.43,258.55983615469864L601.7266666666667,258.7593852228779L604.0233333333333,258.73898738295696L606.32,258.841169225944L606.32,258.9621532368724L608.6166666666667,259.28924089069886L610.9133333333334,259.37833468482563L610.9133333333334,259.5172642590751L613.21,259.83688195209686L615.5066666666667,260.2546842826474L615.5066666666667,260.673368427795L617.8033333333333,260.98137696859976L617.8033333333333,261.28399553849454L617.8033333333333,261.5033502073885L620.1,261.8849357966685L620.1,262.08598453091827L622.3966666666666,262.1263867109045L622.3966666666666,261.95928975024924L624.6933333333333,262.08992939215676L624.6933333333333,262.15433445291785L626.99,262.4324932441321L626.99,262.7420447539927L626.99,262.93816965513236L626.99,263.26256024113474L629.2866666666666,263.24579154354893L629.2866666666666,263.51498977078023L631.5833333333333,263.63390637822533L633.88,263.61301913856926L636.1766666666666,263.6545093903153L636.1766666666666,263.53251898148665L636.1766666666666,263.73168578369683L638.4733333333334,263.5911627727897L638.4733333333334,262.6901911191158L638.4733333333334,262.686264393616L638.4733333333334,262.6009035861776L638.4733333333334,262.784578927859L638.4733333333334,262.5541217364797L640.77,262.68541542278706L643.0666666666667,262.8410750124198L643.0666666666667,262.92686100426914L645.3633333333333,262.9830151761715L645.3633333333333,263.22173026285355L647.66,263.2437697619729L647.66,263.38855673889344L649.9566666666667,263.6796816160708L649.9566666666667,263.83220583928903L649.9566666666667,263.8199137764745L649.9566666666667,264.0477405012483L652.2533333333333,264.212682743195L652.2533333333333,264.3456386038169L654.55,264.6832878229079L654.55,264.5947624589496L654.55,264.7176988880615L659.1433333333333,265.1149807373563L661.4399999999999,265.14896583118673L661.4399999999999,265.2552153300477L663.7366666666667,265.6568529717513L666.0333333333333,265.90109818439987L668.3299999999999,265.93316192209744L670.6266666666667,266.1894675655692L670.6266666666667,266.43923635942826L670.6266666666667,266.6155940087779L670.6266666666667,266.5338243677362L670.6266666666667,266.6195618320005L670.6266666666667,266.6744557316897L672.9233333333333,266.5207186001577L675.22,266.6112330275995L675.22,266.7034487417293L675.22,266.9548530611704L679.8133333333334,266.99496464549026L679.8133333333334,267.24026186588446L679.8133333333334,267.52167400455704L679.8133333333334,267.66963161151807L679.8133333333334,267.76353974329027L679.8133333333334,267.919607432556L679.8133333333334,268.3162389068302L679.8133333333334,268.68646087832997L682.11,268.99734436738487L682.11,269.1848337871463L686.7033333333334,269.1906857440684L686.7033333333334,269.30510382241994L689,269.5041806865282L689,269.3897685567099L689,269.00738630661624L693.5933333333332,269.33599160549227L695.89,269.65666592144174L698.1866666666667,269.78202992408603L698.1866666666667,270.0290691593954L698.1866666666667,270.19006386695486L700.4833333333333,270.4325378478902L700.4833333333333,270.6440538316481L702.78,270.89173374187226L702.78,271.1987033946107L702.78,271.23521438482317L702.78,271.2996259392747L702.78,271.64072939236837L705.0766666666667,271.9572864151571L705.0766666666667,272.21912489050203L705.0766666666667,272.40792604803136L705.0766666666667,272.5685066795819L709.6700000000001,272.3885234248684L711.9666666666667,272.6148337128957L711.9666666666667,272.84725040680985L711.9666666666667,273.0327452374432L714.2633333333333,273.1641803723275L714.2633333333333,273.2909813198029L714.2633333333333,273.5001156529396L716.5600000000001,273.4912716492456L716.5600000000001,273.58872065744447L718.8566666666666,273.8431993407196L718.8566666666666,273.9918290617798L718.8566666666666,273.9754650732757L721.1533333333333,274.29504772471216L721.1533333333333,274.048069732255L721.1533333333333,274.2558104958716L721.1533333333333,274.55730581958943L721.1533333333333,274.7085975184312L723.45,274.75007996207125L723.45,274.77296963384674L725.7466666666666,274.37231863895363L728.0433333333333,274.5855988306978L730.34,274.8581968112967L732.6366666666667,275.04650460905043L734.9333333333333,275.18195846899687L734.9333333333333,275.4362727544733L734.9333333333333,275.6409061876082L737.23,275.8477922107787L737.23,276.1524859450964L737.23,276.0435860134986L737.23,275.9352294392908L739.5266666666666,275.6507707658661L739.5266666666666,275.6846249212231L741.8233333333334,275.8608641303157L741.8233333333334,275.58106495101697L741.8233333333334,275.5688383617174L741.8233333333334,275.82349065932226L744.12,275.5110271090166L744.12,275.5450611019027L746.4166666666666,275.5827772579855L746.4166666666666,275.8458146748489L746.4166666666666,275.9673851468739L748.7133333333334,276.02827120065695L748.7133333333334,276.32643921809796L751.0100000000001,276.2647024755205L751.0100000000001,276.3766675120441L751.0100000000001,276.67142120843005L753.3066666666666,276.6483853217205L755.6033333333334,276.72010307772837L757.9000000000001,276.86604728799966L757.9000000000001,276.91373973624286L757.9000000000001,277.0156708984838L760.1966666666666,277.0631009447751L760.1966666666666,276.6918658782774L762.4933333333333,276.8391432594731L762.4933333333333,276.95785013394266L762.4933333333333,276.99172764669095L764.7900000000001,277.1783179033047L764.7900000000001,277.1605333044346L764.7900000000001,276.92441569015074L767.0866666666666,276.931223024563L769.3833333333333,276.70603576941704L771.6800000000001,276.4532240194295L771.6800000000001,276.32271636617304L773.9766666666667,276.35134551053716L773.9766666666667,276.4907228470838L776.2733333333333,276.60016550736043L778.5699999999999,276.9081820451503L780.8666666666667,277.0491980651557L780.8666666666667,277.02370173577606L783.1633333333334,277.13620261365236L783.1633333333334,277.2445065566618L783.1633333333334,277.44603263136366L785.4599999999999,277.5718478957677L790.0533333333334,277.5932977044999L790.0533333333334,277.763145858248L792.3499999999999,277.9717852484013L792.3499999999999,278.2199289721051L792.3499999999999,278.3967386148162L792.3499999999999,278.50944130410045L794.6466666666666,278.5677519921977L794.6466666666666,278.67882748872694L796.9433333333334,278.6770088556191L799.2399999999999,278.89375544573767L799.2399999999999,279.0512797288533L799.2399999999999,279.13447518883527L799.2399999999999,279.34169268465655L799.2399999999999,279.5121722308723L801.5366666666666,279.6069841244923L801.5366666666666,279.67798335675684L801.5366666666666,279.80271428834055L801.5366666666666,279.8756974644376L801.5366666666666,279.9707019055121L803.8333333333334,280.1474535067664L806.13,280.4313733032308L808.4266666666666,280.50287286604606L810.7233333333334,280.7125764110541L810.7233333333334,280.77889250186234L813.02,280.8953302941807L813.02,281.1834310920483L813.02,281.4699987607877L815.3166666666667,281.28588655462306L815.3166666666667,281.4144001120417L815.3166666666667,281.604004351671L815.3166666666667,281.5345043745302L815.3166666666667,281.75760875756146L815.3166666666667,282.07635267162186L817.6133333333333,282.35972492396706L817.6133333333333,282.3384579602104L819.91,282.40210577248223L819.91,282.61173333642336L824.5033333333334,282.8003295680553L824.5033333333334,282.9142800742044L824.5033333333334,282.74605418241543L824.5033333333334,283.02503926511815L826.8,283.3025222609607L826.8,283.51409845490207L829.0966666666667,283.5324822062322L829.0966666666667,283.76846397272345L835.9866666666667,283.87613569491174L838.2833333333333,283.8804497893046L840.5799999999999,283.85242552615694L845.1733333333333,283.9111368541017L847.47,283.64280587363425L847.47,283.7720332861076L847.47,283.8872149710457L852.0633333333333,283.9616613365658L852.0633333333333,283.9794064301143L852.0633333333333,284.1041616753846L852.0633333333333,284.28531931992694L854.36,284.5453271837423L856.6566666666668,284.7338943425261L858.9533333333333,284.73379064744506L858.9533333333333,284.7269061435683L858.9533333333333,284.90776083842655L861.25,284.84490628477187L861.25,284.90822766634403L863.5466666666667,284.86269479544995L863.5466666666667,284.9894261385555L865.8433333333332,285.15792940817715L865.8433333333332,285.4089020155231L870.4366666666667,285.54632889571326L870.4366666666667,285.70920248288377L872.7333333333333,285.96890107365357L872.7333333333333,286.0197553507721L872.7333333333333,285.95892036743055L875.03,286.0223415629623L875.03,286.1536658222839L877.3266666666667,286.15866915660206L879.6233333333333,286.38839345280996L881.9200000000001,286.55896175881725L881.9200000000001,286.7669319718493L884.2166666666667,286.8792510498166L886.5133333333333,287.1231716633772L891.1066666666666,287.2952277937333L893.4033333333333,287.3601808294483L893.4033333333333,287.50422997002084L895.7,287.5748695951628L895.7,287.63937651674144L895.7,287.85114522920946L897.9966666666666,287.9071522148962L897.9966666666666,287.9783377872914L897.9966666666666,288.11968662275945L900.2933333333333,288.3108318076855L902.59,288.34819783748924L902.59,288.5261389814148L902.59,288.70864364537783L902.59,288.85136328946663L907.1833333333333,289.0559226427441L909.48,288.95444316342395L914.0733333333334,288.95002926708315L914.0733333333334,289.06884410008934L916.37,289.23093483481404L916.37,289.2158554755624L918.6666666666666,289.15110115272483L918.6666666666666,289.35104194167394L918.6666666666666,289.4799314164822L920.9633333333334,289.7173004595577L923.2600000000001,289.89860250116425L925.5566666666666,289.9042568727231L925.5566666666666,290.04828620141757L925.5566666666666,290.10157701566027L930.1500000000001,290.24314759998106L930.1500000000001,290.4260443074024L930.1500000000001,290.176442419135L932.4466666666666,289.6694947705094L932.4466666666666,289.64424969762837L932.4466666666666,289.6791615131014L934.7433333333333,289.62607733442405L937.0400000000001,289.7662242587009L937.0400000000001,289.9160116878521L939.3366666666666,289.81806993847215L939.3366666666666,289.67208291731L941.6333333333333,289.66597122125455L941.6333333333333,289.55603807751277L943.9300000000001,289.5690958662454L943.9300000000001,289.474108266044L946.2266666666667,289.57210022266116L948.5233333333333,289.41633958427724L953.1166666666667,289.2309180780419L957.7099999999999,289.153517033773L960.0066666666667,289.2970851405952L962.3033333333334,289.5465040823297L964.5999999999999,289.58551812610114L964.5999999999999,289.7505252016864L964.5999999999999,289.9368757493008L966.8966666666666,290.086818740406L966.8966666666666,290.19303304630614L969.1933333333334,290.3499510494543L969.1933333333334,290.15265273171826L969.1933333333334,290.08089088890836L971.4899999999999,290.13971775081194L971.4899999999999,290.07264668883175L971.4899999999999,290.25342438769513L973.7866666666666,289.7443559467899L973.7866666666666,289.96336598929554L973.7866666666666,289.96298635323524L976.0833333333334,289.9839854388544L976.0833333333334,290.1506072200982L976.0833333333334,290.433307533684L976.0833333333334,290.6588591927866L978.38,290.8909909285557L978.38,291.12438093768236L980.6766666666666,291.1806045732476L985.27,291.1062383842596L985.27,291.3821425596433L985.27,291.39294262936016L987.5666666666667,291.6797309172511L989.8633333333333,291.7892127650174L989.8633333333333,291.96111699441053L989.8633333333333,292.08973908242706L992.16,292.2501446569988L992.16,292.502560002207L992.16,292.59785443758153L992.16,292.7113682741601L992.16,292.8983078030408L992.16,293.026485422766L994.4566666666667,292.95697477279464L994.4566666666667,293.1093380105137L996.7533333333334,293.32933629399133L996.7533333333334,293.49729000101354L996.7533333333334,293.40453375431923L996.7533333333334,293.4265877570784L1001.3466666666667,293.3790604229954L1001.3466666666667,293.48683625826527L1003.6433333333334,293.6146211663127L1003.6433333333334,293.81999449677403L1005.9399999999999,293.6848075994382L1005.9399999999999,293.6538515650178L1008.2366666666667,293.67115840760493L1008.2366666666667,293.78192319994895L1010.5333333333333,293.9173117540583L1010.5333333333333,294.16501553974445L1012.8299999999999,294.2857416736442L1012.8299999999999,294.427827608375L1015.1266666666667,294.53283931484634L1017.4233333333333,294.7942224218803L1019.72,294.917247133889L1019.72,295.06963760451106L1022.0166666666667,295.25406969148906L1022.0166666666667,295.25491091953063L1024.3133333333333,295.32153680918896L1024.3133333333333,295.32616833226894L1028.9066666666668,295.4280697919529L1028.9066666666668,295.52811807811304L1033.5,295.6379321089945L1033.5,295.56326913059576L1035.7966666666666,295.36593742746084L1038.0933333333332,295.54089698070663L1038.0933333333332,295.64058613924453L1040.39,295.8038482300623L1040.39,295.8385008037816L1042.6866666666667,295.9436118700539L1042.6866666666667,294.87297486510306L1044.9833333333333,294.78119649361713L1044.9833333333333,294.6320477689091L1047.28,294.72338155050215L1047.28,294.77729918350565L1047.28,294.7755932875415L1049.5766666666668,294.9291955073943L1049.5766666666668,294.98653462344555L1051.8733333333332,295.11757170017296L1051.8733333333332,294.7596390408943L1051.8733333333332,294.78823253812186L1054.17,294.92612492918187L1056.4666666666667,294.9117924365502L1056.4666666666667,294.82340965301444L1056.4666666666667,294.83087421398795L1056.4666666666667,294.79674137101136L1058.7633333333333,294.53579152726337L1058.7633333333333,294.66291944649083L1058.7633333333333,294.5930381401042L1061.06,294.2778394060667L1061.06,294.2288640043794L1063.3566666666666,294.2133847373893L1063.3566666666666,294.38274440777553L1063.3566666666666,294.56482806718435L1065.6533333333334,294.6518856826806L1065.6533333333334,294.5312954847382L1067.95,294.6010304520074L1070.2466666666667,294.7539651685538L1070.2466666666667,294.74213201792963L1070.2466666666667,294.4774891837189L1072.5433333333333,294.50723978595397L1072.5433333333333,294.5017378436295L1072.5433333333333,294.700338273983L1074.8400000000001,294.5657820165807L1077.1366666666665,294.5647355473153L1077.1366666666665,294.63439617558123L1079.4333333333334,294.7030388112803L1084.0266666666666,294.6063169563953L1084.0266666666666,294.46404183797824L1084.0266666666666,294.5977836751076L1084.0266666666666,294.7340637772062L1084.0266666666666,294.86590566079155L1086.3233333333333,295.0719037799006L1086.3233333333333,295.09912362882073L1086.3233333333333,295.24786358480884L1088.6200000000001,295.502370435053L1090.9166666666665,295.47668241470274L1090.9166666666665,295.4929025840362L1090.9166666666665,295.67797153435504L1090.9166666666665,295.83890317757334L1093.2133333333334,295.81183250993377L1093.2133333333334,295.83712360548424L1100.1033333333332,295.75603369056955L1100.1033333333332,295.87743789565104L1100.1033333333332,296.1076874190455L1100.1033333333332,296.12442969883205L1100.1033333333332,296.11247177493243L1100.1033333333332,296.21737397661303L1102.4,296.28918405999735L1104.6966666666667,296.3021924801331L1106.9933333333333,296.4960416547963L1109.29,296.6336605751984L1109.29,296.8611085267104L1109.29,297.02583119227666L1109.29,296.9944590790721L1111.5866666666666,297.117656473059L1111.5866666666666,297.1499751306216L1113.8833333333334,296.81104424532964L1113.8833333333334,296.8682874723624L1113.8833333333334,296.85188225061546L1113.8833333333334,296.92560551067186L1116.18,296.8302148244019L1116.18,296.91647898908644L1116.18,296.9808761882315L1116.18,297.06963194635546L1116.18,297.0385090056217L1118.4766666666667,297.1414691757361L1118.4766666666667,297.22801277557613L1120.7733333333333,297.35671560314154L1120.7733333333333,297.48751594419247L1120.7733333333333,297.54216237361834L1120.7733333333333,297.7093942312315L1123.07,297.8140050024991L1123.07,297.8696765305991L1125.3666666666666,298.04702258377574L1125.3666666666666,298.18223116796815L1125.3666666666666,298.27546526476414L1127.6633333333334,298.468849920094L1127.6633333333334,298.6669067997533L1129.96,298.8840903082085L1129.96,299.01772999766774L1132.2566666666667,299.04590248724344L1132.2566666666667,299.1435549913883L1132.2566666666667,299.2739529730936L1132.2566666666667,299.37405315683395L1134.5533333333333,299.5428334361912L1136.85,299.537638593289L1136.85,299.6937765747305L1139.1466666666668,299.69405425058176L1139.1466666666668,299.38079534895945L1141.4433333333334,299.5578045326009L1141.4433333333334,299.5198850177063L1146.0366666666666,299.597595987566L1146.0366666666666,299.6566749341474L1148.3333333333335,299.6405854958073L1148.3333333333335,299.71947584835175L1148.3333333333335,299.8963445360973L1150.6299999999999,300.03298670705436L1152.9266666666667,300.2228716725216L1155.2233333333334,300.0773786101846L1157.52,300.13718049760854L1157.52,300.2566508558175L1159.8166666666666,300.32105862326046L1159.8166666666666,300.4239381814223L1162.1133333333335,300.45556246710703L1162.1133333333335,300.65544328806664L1164.4099999999999,300.64506109125057L1164.4099999999999,300.5750826604848L1164.4099999999999,300.7001170671723L1164.4099999999999,300.80050422229266L1166.7066666666667,300.9784128600533L1169.0033333333333,301.1025647956598L1169.0033333333333,301.0808743091079L1171.3,301.09551071861847L1171.3,301.25060594657526L1171.3,301.44472824414015L1173.5966666666666,301.50967041649744L1175.8933333333334,301.5693529456243L1178.19,301.6297906439261L1180.4866666666667,301.7100070099974L1182.7833333333333,301.75525172383226L1182.7833333333333,301.8451179386858L1182.7833333333333,301.93102772443416L1185.08,301.85816912872883L1187.3766666666668,301.79167949809965L1187.3766666666668,301.594336336893L1189.6733333333332,301.5602548813846L1189.6733333333332,301.5753680646746L1189.6733333333332,301.49273122846614L1191.97,301.30052946392766L1191.97,301.3689482095243L1191.97,301.4982574595075L1194.2666666666667,301.5409069617732L1198.86,301.54440794088237L1198.86,301.44262428712517L1198.86,301.5960000525389L1198.86,301.6242180194882L1201.1566666666668,301.3439545521826L1201.1566666666668,301.27075099676176L1203.4533333333334,301.3226856190218L1203.4533333333334,301.1117082572431L1203.4533333333334,300.9267463277836L1205.75,300.8842240692743L1205.75,300.8918759029886L1212.64,300.8423942136329L1212.64,300.8570503345113L1214.9366666666667,300.87899929880257L1214.9366666666667,300.9887596357562L1217.2333333333333,300.8864318112629L1217.2333333333333,300.9407260926513L1219.53,301.0415194507974L1224.1233333333332,301.08198447601103L1224.1233333333332,301.1647373892986L1228.7166666666667,300.86343144810047L1228.7166666666667,300.7006921122704L1231.0133333333333,300.45281745509465L1231.0133333333333,300.4157632113538L1231.0133333333333,300.4452385666692L1235.6066666666666,300.52354798455997L1235.6066666666666,300.16789864568887L1235.6066666666666,300.3193669732789L1237.9033333333334,300.1786568766023L1237.9033333333334,300.2524842065951L1237.9033333333334,300.2943268350418L1240.2,300.25278716125695L1242.4966666666667,300.23335989352086L1244.7933333333333,300.2861917918065L1244.7933333333333,300.2369121802011L1244.7933333333333,300.4177527789633L1244.7933333333333,299.89280328378067L1244.7933333333333,299.60216184384336L1247.0900000000001,299.6244003398557L1247.0900000000001,299.5434893116527L1247.0900000000001,299.4878444596295L1249.3866666666665,299.44321808571135L1249.3866666666665,299.493353048695L1251.6833333333334,298.92045374972946L1256.2766666666666,298.4468943911545L1256.2766666666666,297.61761264290067L1258.5733333333333,297.17860831502554L1260.8700000000001,297.06938585212447L1263.1666666666665,296.82918120810746L1263.1666666666665,296.850851830111" style="fill: none;" fill="none"></path></g></g></g></g><g opacity="0.2"><g><g><g><path stroke="rgb(255, 112, 67)" stroke-width="2px" d="M117.13000000000001,-200.19131056016147L117.13000000000001,244.12901035357604L117.13000000000001,-93.3493030721491L117.13000000000001,-138.7799284376881L119.42666666666668,39.11164246770471L119.42666666666668,-138.05376606637776L121.72333333333333,-101.42509913986379L124.02,222.0943828834729L124.02,134.80352115495637L128.61333333333334,154.99870797043494L128.61333333333334,141.9820954474536L130.91,118.25162761184305L130.91,315.0863553102721L130.91,218.55407729338515L133.20666666666668,-142.47442751851952L133.20666666666668,269.51233767921275L133.20666666666668,150.4761149558154L135.50333333333333,257.59418575872076L135.50333333333333,138.76662670482287L137.8,72.96041005985302L137.8,133.2534253217957L137.8,176.58131616630337L137.8,201.13213305717164L140.09666666666666,24.296713955023108L140.09666666666666,192.32326183400372L140.09666666666666,256.6325086720965L142.39333333333335,244.14677236838773L142.39333333333335,256.96985893899745L142.39333333333335,34.48958217013967L142.39333333333335,146.90473384071478L144.69,154.99736381796274L144.69,175.36815455284986L146.98666666666668,308.5543823641809L146.98666666666668,251.7075020101937L151.58,-217.96305447545922L151.58,-80.0380331250754L151.58,29.726705899292767L151.58,-46.24399174072528L153.87666666666667,-112.68922487172216L153.87666666666667,272.13474714891476L153.87666666666667,84.16436896676367L156.17333333333332,-236.85498945821416L160.76666666666668,343.50730720501053L160.76666666666668,223.53918677297506L165.35999999999999,256.9118683609095L167.65666666666667,186.50413774902168L167.65666666666667,231.47579905255273L167.65666666666667,234.766796362671L169.95333333333335,-145.32057436758816L172.25,27.355140883814215L174.54666666666668,274.56238252466375L176.84333333333333,332.78783525526524L176.84333333333333,318.0814470547167L176.84333333333333,244.5327681533315L186.03,121.93502143296331L186.03,330.0438279922713L186.03,174.10151487317953L186.03,173.2106938240203L188.32666666666665,261.72527836398643L188.32666666666665,308.7467561858622L188.32666666666665,299.3371768221259L188.32666666666665,298.9411318972707L190.62333333333333,-298.62148386240005L190.62333333333333,199.75271258435467L190.62333333333333,286.90797493132675L190.62333333333333,21.679073026234448L190.62333333333333,297.1826284236529L192.92000000000002,156.45861757343462L195.21666666666667,228.96063374795696L195.21666666666667,278.6677122075449L199.80999999999997,371.6766625602137L199.80999999999997,326.1830060448159L199.80999999999997,179.47921288555315L199.80999999999997,-47.70047695528382L202.10666666666665,-218.89173581925309L202.10666666666665,26.431900157169878L202.10666666666665,314.7835689640858L202.10666666666665,249.59491037103263L204.40333333333334,209.20936928824946L204.40333333333334,267.1662795570764L206.7,288.64922844821757L208.99666666666667,208.39711715145543L208.99666666666667,249.0083798386834L211.29333333333332,80.92668970471078L211.29333333333332,146.49991992115974L215.88666666666668,402.7723018547351L218.18333333333334,326.30293964933264L220.48000000000002,302.35593525117093L220.48000000000002,345.84915684976363L220.48000000000002,120.04731930385935L220.48000000000002,302.8671772432598L222.77666666666664,301.46088972281325L225.07333333333332,257.5654144950888L225.07333333333332,315.151930748739L225.07333333333332,303.8555773611773L225.07333333333332,232.36325972053137L227.37,365.9751358147372L227.37,265.16589264571667L227.37,206.24746530841696L229.66666666666666,200.61812275106254L229.66666666666666,238.37827802652663L231.96333333333334,264.64576964622194L234.26000000000002,268.08017522367567L234.26000000000002,210.3570514741269L234.26000000000002,227.6589820967479L234.26000000000002,358.3823385353793L236.55666666666667,250.23095051944256L236.55666666666667,271.31254188310015L236.55666666666667,287.7192189537666L236.55666666666667,210.65772558071396L238.85333333333335,251.16593657840383L238.85333333333335,281.1261350756342L238.85333333333335,256.7237190184268L238.85333333333335,198.10980622334912L238.85333333333335,322.21221962367946L238.85333333333335,372.18508823283696L238.85333333333335,300.42448415945876L241.14999999999998,170.07987468351018L241.14999999999998,326.9685991575772L241.14999999999998,282.85567526383835L245.74333333333334,232.51498893174258L245.74333333333334,44.150646060705185L248.04,261.4741778807207L250.33666666666667,365.5340457802469L250.33666666666667,234.35785397480834L250.33666666666667,258.9141114828261L250.33666666666667,158.9152802418579L252.63333333333333,345.683106013997L252.63333333333333,206.06059611114588L254.93,341.7129916690967L257.2266666666667,306.01604643125427L257.2266666666667,290.07951869138265L257.2266666666667,356.6270994320512L259.5233333333333,231.33258280699903L261.82,312.33765951544046L261.82,232.67894352972507L264.1166666666667,338.60230281203985L264.1166666666667,298.20996095781976L264.1166666666667,366.7913083962419L264.1166666666667,341.7611251290549L266.41333333333336,274.73936260017484L266.41333333333336,322.2758428406986L271.00666666666666,248.11471046642825L271.00666666666666,339.1402998390523L275.6,262.03945800255644L275.6,294.62701053036886L275.6,313.6081556325609L277.89666666666665,274.59288198433137L277.89666666666665,257.2943757501515L277.89666666666665,352.92280724035066L277.89666666666665,374.5817120908336L277.89666666666665,305.7295659347014L280.1933333333333,317.66407171027225L280.1933333333333,263.98147029226476L282.49,126.41981816020879L282.49,252.0373954312368L282.49,299.40478449111635L284.7866666666667,178.09995243088767L287.08333333333337,289.3635974817655L289.38,363.3902185979215L291.6766666666667,363.56286218152803L291.6766666666667,327.28338686512274L291.6766666666667,348.40639092637736L296.27,378.48172248358077L296.27,381.7425243685191L300.86333333333334,310.25673546845263L303.16,301.2894622771577L303.16,205.69063414497808L303.16,341.71033536778253L303.16,366.2120426879688L305.4566666666667,344.68224048208106L307.75333333333333,258.0485092943365L310.05,318.23050396279854L310.05,363.14777509664947L310.05,394.11027928915894L312.34666666666664,361.85353228585285L312.34666666666664,347.1003547778184L312.34666666666664,285.8880352357572L314.6433333333333,240.6903802969239L314.6433333333333,343.2315799282356L316.94,264.56156809492546L319.2366666666667,325.79219371351326L321.53333333333336,321.9305236698552L321.53333333333336,233.26976254853335L323.83,337.6549793536013L323.83,230.9694376140833L323.83,211.62797964025626L326.12666666666667,94.20070742612535L326.12666666666667,235.7613411776044L326.12666666666667,302.3728971752254L328.42333333333335,271.6741188981316L333.01666666666665,382.3327193165367L333.01666666666665,278.0655959072438L333.01666666666665,275.2981139814312L335.31333333333333,298.38796514950013L335.31333333333333,359.81288480758667L335.31333333333333,348.3885489024899L335.31333333333333,294.01494110104716L337.61,298.84985754367983L337.61,276.0457827922973L337.61,306.6687284674157L339.9066666666667,355.4274593523958L342.2033333333333,400.56361931562424L342.2033333333333,378.1021114228801L344.5,349.55773752792317L346.7966666666666,331.4363539516926L351.39,295.79794335365295L351.39,370.441946501759L351.39,318.84246137941426L353.68666666666667,377.9191146648743L355.98333333333335,413.51657661795616L358.28000000000003,357.2807415771214L358.28000000000003,337.9082240800966L358.28000000000003,323.58781566267663L362.8733333333333,306.691835088486L362.8733333333333,332.24196533520114L362.8733333333333,403.3042661974376L365.17,179.93676878782836L367.46666666666664,288.20858646455133L369.7633333333333,434.0484576259147L369.7633333333333,377.9307159808549L372.06,329.1568153751167L372.06,349.3120776618069L372.06,404.8612748147412L374.3566666666667,330.89950905537063L374.3566666666667,325.6733802360567L376.6533333333333,352.9923351271586L376.6533333333333,345.7613708918745L376.6533333333333,339.0748684169217L378.95000000000005,334.7548583820462L381.24666666666667,286.6391124332493L381.24666666666667,397.67028311369097L381.24666666666667,395.9180043461648L381.24666666666667,313.5496689982035L383.5433333333333,411.3883352035826L383.5433333333333,351.6021134291183L383.5433333333333,329.8351003155112L383.5433333333333,308.2062308720567L383.5433333333333,393.1764933663336L385.84000000000003,250.65160623599184L385.84000000000003,310.4268507652662L385.84000000000003,312.95917001569813L390.43333333333334,117.61533143439073L395.0266666666667,301.0584600737149L397.3233333333333,-459.16903937133884L399.61999999999995,226.37864486331287L399.61999999999995,281.4906244210222L399.61999999999995,270.25302969867533L399.61999999999995,202.6619705923579L401.9166666666667,81.61377564343542L401.9166666666667,327.91198616949L401.9166666666667,258.21592028439045L404.2133333333333,203.71597815237263L406.51,66.85286925868553L408.8066666666667,338.57031518356365L408.8066666666667,254.73034090210092L408.8066666666667,343.2361724491824L408.8066666666667,382.6006057038903L408.8066666666667,345.353100580248L408.8066666666667,296.5669265822931L411.10333333333335,333.51042922179806L413.4,253.94317961145532L413.4,310.5465123389255L413.4,196.3336687494408L413.4,280.1844922615723L413.4,335.0719343491576L415.6966666666667,184.70508567582476L415.6966666666667,348.7556625455618L415.6966666666667,337.8387762023644L415.6966666666667,-14.222695445472539L415.6966666666667,240.31955423273823L417.99333333333334,324.4012839374217L422.58666666666664,275.7888256446882L422.58666666666664,97.20808856460184L422.58666666666664,305.253527935933L424.8833333333333,189.7558025975119L429.47666666666663,249.20257786729118L429.47666666666663,186.2752157815478L431.77333333333337,282.39493500034916L434.07,258.15325717628L434.07,392.54374959184366L434.07,276.2651036706838L436.3666666666667,233.2109398760579L438.66333333333336,226.39423063126478L438.66333333333336,261.9554484730417L438.66333333333336,231.04394206540152L440.96000000000004,29.7790958420797L440.96000000000004,213.49295919185334L443.25666666666666,326.90468790788543L445.5533333333333,297.46277220140803L445.5533333333333,324.3868503001603L447.85,275.55884755741465L447.85,376.9559814130718L450.14666666666665,225.48823986134747L450.14666666666665,316.13256998631084L450.14666666666665,268.31719410961324L454.74,317.7175177728588L457.0366666666667,404.7830899459395L457.0366666666667,334.5069262581793L459.3333333333333,335.25696333768695L461.63000000000005,145.9858136041598L461.63000000000005,271.6117758263241L461.63000000000005,322.36337276954544L461.63000000000005,349.44650891084564L463.9266666666667,63.1734758913517L463.9266666666667,277.0185651386326L466.2233333333333,332.04487097805196L468.52000000000004,349.065473688597L468.52000000000004,338.751391723752L470.81666666666666,310.2731213271618L470.81666666666666,312.90636402571744L470.81666666666666,287.6060381152413L473.11333333333334,152.72600216892633L475.40999999999997,251.52648947726595L475.40999999999997,364.524395251816L477.7066666666667,304.23218008063054L480.00333333333333,211.33233010362494L480.00333333333333,328.4100906713442L482.29999999999995,295.57031753320587L482.29999999999995,361.1024550883607L484.5966666666667,316.28036275099623L486.8933333333333,302.4786691733382L486.8933333333333,323.40616305714303L486.8933333333333,252.34978286651045L489.19,232.43715610287407L491.4866666666667,323.41794039309025L491.4866666666667,398.901958827268L491.4866666666667,352.4377122142098L491.4866666666667,148.7685612616214L491.4866666666667,340.8477895259857L493.78333333333336,352.8483827981082L493.78333333333336,358.36044805226004L496.08,334.6292601349679L496.08,284.1703203889457L498.3766666666667,361.30215774137866L498.3766666666667,367.34893965043807L498.3766666666667,293.09242045608437L498.3766666666667,191.85012016377667L498.3766666666667,346.20174084468323L498.3766666666667,344.3328248465603L500.67333333333335,320.8754919936711L500.67333333333335,276.6138792335987L502.96999999999997,356.0889743905176L502.96999999999997,374.6958210346374L505.26666666666665,260.69072901118886L505.26666666666665,296.14356655898416L507.56333333333333,175.48557587238875L507.56333333333333,170.7145066721873L507.56333333333333,351.4730907935988L509.86,333.32239189202136L509.86,315.2961871122772L509.86,262.2145818675106L512.1566666666666,273.23762425238436L512.1566666666666,318.28471811251205L512.1566666666666,234.85074188492516L512.1566666666666,260.131817611781L512.1566666666666,362.04057750309056L516.75,188.62393020499837L521.3433333333334,248.28036125681618L523.64,155.85154071043837L523.64,307.6254609931599L523.64,256.0572434176098L525.9366666666666,339.96949789808554L525.9366666666666,238.29311636632139L528.2333333333333,320.64594595540655L528.2333333333333,270.29796279560435L528.2333333333333,177.8043989051472L530.53,358.38473880765116L530.53,373.04846616902137L532.8266666666667,-69.20262802459979L532.8266666666667,329.26503565094686L535.1233333333333,283.4768017205325L535.1233333333333,258.4129026288336L537.4200000000001,367.611481431533L537.4200000000001,190.0947850495577L539.7166666666667,327.0508964928714L539.7166666666667,274.16329725493085L539.7166666666667,181.14471380954436L542.0133333333333,246.5179853439331L542.0133333333333,287.09830052066934L544.3100000000001,136.78009736537933L546.6066666666667,178.05831570787862L546.6066666666667,176.9936189353466L546.6066666666667,355.70539487966084L548.9033333333333,213.36913714625618L551.2,186.39714961295775L551.2,375.40332528948784L551.2,-58.40716345472765L551.2,362.71958252516663L553.4966666666667,245.9708192768422L553.4966666666667,391.1337496502833L555.7933333333333,339.0415206341581L555.7933333333333,332.3437208777124L555.7933333333333,337.6841346607967L558.09,327.786867976866L560.3866666666667,328.4840670627626L560.3866666666667,366.49636293947697L562.6833333333333,370.25672549144787L567.2766666666666,365.53668607974595L567.2766666666666,376.1450894305652L567.2766666666666,293.83463264798576L567.2766666666666,310.8634282878854L569.5733333333334,353.3027703409845L569.5733333333334,337.5033621550961L571.87,336.87554693967104L574.1666666666667,218.08560815318063L574.1666666666667,314.37283437292683L574.1666666666667,359.6531706906178L576.4633333333334,269.1193330992352L576.4633333333334,311.25148830698294L578.76,282.78758754039353L581.0566666666667,377.69380910762334L581.0566666666667,327.893424063921L581.0566666666667,147.56016818908128L583.3533333333334,218.95405866476622L590.2433333333333,334.6481742804701L592.54,214.60758162763986L592.54,289.09726327048105L592.54,316.43745257028127L594.8366666666666,324.79788892580706L594.8366666666666,301.7303762916814L594.8366666666666,371.68869592520326L597.1333333333333,356.85954179885715L597.1333333333333,326.26431126757103L599.43,341.39503560215235L599.43,351.13073195855725L599.43,182.0871247107332L599.43,412.47548252276397L601.7266666666667,329.2340881404551L604.0233333333333,251.5219129581343L606.32,295.0606277171861L606.32,301.92422228035605L608.6166666666667,375.6504253189672L610.9133333333334,291.13069393011654L610.9133333333334,309.1199985241348L613.21,374.1567998914556L615.5066666666667,409.9609412889589L615.5066666666667,410.9638390513984L617.8033333333333,371.74097385528415L617.8033333333333,370.29885827072644L617.8033333333333,340.6634646173228L620.1,399.83400055224246L620.1,334.89636243337935L622.3966666666666,276.7838825177063L622.3966666666666,201.23192037642002L624.6933333333333,309.6507947343317L624.6933333333333,285.64263139868325L626.99,364.05245371772486L626.99,376.0268840220842L626.99,334.8370597064495L626.99,382.38846964050424L629.2866666666666,257.07723111862487L629.2866666666666,362.71258973194796L631.5833333333333,307.52879402786493L633.88,255.88989643481642L636.1766666666666,279.02176836945796L636.1766666666666,218.27273337949404L636.1766666666666,337.7498381137848L638.4733333333334,211.27917207371104L638.4733333333334,-73.27592207355929L638.4733333333334,261.2195569981228L638.4733333333334,230.66361092301932L638.4733333333334,331.6205028403889L638.4733333333334,176.04192698137328L640.77,312.0541233528744L643.0666666666667,321.46875929019666L643.0666666666667,295.2907178171656L645.3633333333333,284.20280407369137L645.3633333333333,353.5767214162783L647.66,271.59951843592256L647.66,318.3708238798109L649.9566666666667,374.4134530045769L649.9566666666667,321.9414689114148L649.9566666666667,259.1292398856445L649.9566666666667,351.12749959189784L652.2533333333333,327.35851538723165L652.2533333333333,315.3278547044505L654.55,394.36346000839364L654.55,230.54058896817943L654.55,312.08473482524806L659.1433333333333,418.43029399927366L661.4399999999999,278.2850127965212L661.4399999999999,306.3882486515424L663.7366666666667,421.3910938538611L666.0333333333333,360.75601579045707L668.3299999999999,278.4049944064834L670.6266666666667,366.04103128950703L670.6266666666667,363.89638801460916L670.6266666666667,335.53585897386074L670.6266666666667,234.52865734967318L670.6266666666667,300.22985408184206L670.6266666666667,288.2269565483386L672.9233333333333,206.06706084446475L675.22,302.25882023505187L675.22,303.07686502892864L675.22,366.2703533023596L679.8133333333334,282.86498832025313L679.8133333333334,364.43934560431677L679.8133333333334,379.20092406530273L679.8133333333334,326.47614329646933L679.8133333333334,305.14429954574865L679.8133333333334,330.1371825818311L679.8133333333334,426.6745171723041L682.11,393.49276924268764L682.11,344.3784780251709L686.7033333333334,271.54114381427115L686.7033333333334,315.3298549313437L689,349.70178586786443L689,223.23092780600894L689,114.5099871835925L693.5933333333332,402.3009043823589L695.89,399.6030303524299L698.1866666666667,320.657531269572L698.1866666666667,370.42962510409683L698.1866666666667,335.7161994305524L700.4833333333333,369.2649329887195L700.4833333333333,356.9830598099665L702.78,372.13887499069625L702.78,396.8636156103828L702.78,286.20333500138736L702.78,297.7438600862568L702.78,411.8818471844901L705.0766666666667,380.17897100882095L705.0766666666667,350.36418100581926L705.0766666666667,338.96658413383096L709.6700000000001,197.86232215030626L711.9666666666667,366.4561823816462L711.9666666666667,369.3564793731679L711.9666666666667,350.1663185615431L714.2633333333333,327.8949762399901L714.2633333333333,326.1659321080555L714.2633333333333,360.82912808385765L716.5600000000001,269.7931055277586L716.5600000000001,314.3941327888857L718.8566666666666,380.5502611256459L718.8566666666666,336.40085309337485L718.8566666666666,267.09481545063585L721.1533333333333,408.8564800057899L721.1533333333333,169.9143519076434L721.1533333333333,361.96581702273L721.1533333333333,402.0252251110294L721.1533333333333,338.7597446712581L723.45,292.336046657779L723.45,284.48992464285004L725.7466666666666,104.06073788621211L728.0433333333333,365.3706672476097L730.34,391.04882801730525L732.6366666666667,355.4176182360812L734.9333333333333,333.0721395049583L734.9333333333333,384.27031510526484L734.9333333333333,363.3308358619159L737.23,364.62103021348065L737.23,407.0679251233285L737.23,229.19137992235747L737.23,229.25516315752807L739.5266666666666,152.9442029202526L739.5266666666666,290.30746454813266L741.8233333333334,352.0849201956933L741.8233333333334,154.40846501697195L741.8233333333334,270.26695127785206L741.8233333333334,386.3938199823553L744.12,139.66250432756814L744.12,290.36108663068575L746.4166666666666,292.0230191498995L746.4166666666666,390.65033481473273L746.4166666666666,329.0960564830086L748.7133333333334,302.6708829768679L748.7133333333334,406.9666496352716L751.0100000000001,249.18055936965075L751.0100000000001,325.5588872486895L751.0100000000001,406.31111927601427L753.3066666666666,266.5037724064155L755.6033333333334,308.3434464369308L757.9000000000001,341.3003688637506L757.9000000000001,297.99652874740684L757.9000000000001,322.1318425062028L760.1966666666666,298.0826985219663L760.1966666666666,111.96509050645608L762.4933333333333,342.2717750539834L762.4933333333333,329.7629801346497L762.4933333333333,292.08044966445726L764.7900000000001,360.3871419477192L764.7900000000001,269.2197604910894L764.7900000000001,171.36811681362715L767.0866666666666,279.9781968607144L769.3833333333333,175.7876901423389L771.6800000000001,163.0156173584136L771.6800000000001,217.69161146066406L773.9766666666667,289.2288461964239L773.9766666666667,339.25973738729954L776.2733333333333,325.9480513930321L778.5699999999999,415.96219803392887L780.8666666666667,340.7880707518621L780.8666666666667,265.4854808978059L783.1633333333334,328.10932055386627L783.1633333333334,326.3751558410851L783.1633333333334,368.97557216544044L785.4599999999999,334.78343762389636L790.0533333333334,287.3587780676105L790.0533333333334,355.1824715625156L792.3499999999999,373.1860657774589L792.3499999999999,391.5969861969352L792.3499999999999,359.2770480256189L792.3499999999999,330.1255172585899L794.6466666666666,305.3046857389537L794.6466666666666,329.6698015650565L796.9433333333334,277.8411544480107L799.2399999999999,378.62866715206343L799.2399999999999,351.62021148204803L799.2399999999999,317.5060857893391L799.2399999999999,375.0264825428074L799.2399999999999,358.3244279663671L801.5366666666666,323.4891644723036L801.5366666666666,312.57691865549845L801.5366666666666,337.66613261875784L801.5366666666666,313.7720782269131L801.5366666666666,324.1454469168728L803.8333333333334,362.42702133885837L806.13,412.75023368881506L808.4266666666666,313.8628565242345L810.7233333333334,378.6668794866313L810.7233333333334,311.7909735028039L813.02,335.4082124944438L813.02,416.2170109383085L813.02,415.9369631714442L815.3166666666667,194.79685442285103L815.3166666666667,341.85327958247876L815.3166666666667,370.8735794634982L815.3166666666667,248.775777453726L815.3166666666667,387.03530074791473L817.6133333333333,416.3749968592416L817.6133333333333,272.2694824324413L819.91,312.57000587135553L819.91,382.0814268114892L824.5033333333334,372.3894314122471L824.5033333333334,337.104036858136L824.5033333333334,202.65729806233534L824.5033333333334,415.9897691614249L826.8,384.57258939336646L829.0966666666667,292.3229891766201L829.0966666666667,396.7301124666225L835.9866666666667,335.4733238802715L838.2833333333333,285.9500422694466L840.5799999999999,270.3938456719572L845.1733333333333,312.1375568170439L847.47,154.49929131973875L847.47,346.0340738255869L847.47,339.44156601279974L852.0633333333333,319.90704613924026L852.0633333333333,292.55653566867113L852.0633333333333,344.4692083170468L852.0633333333333,372.0349912067706L854.36,410.62250433252615L856.6566666666668,376.2665912129662L858.9533333333333,284.6834025897763L858.9533333333333,281.3780196478421L858.9533333333333,372.9751138483936L861.25,254.20564138347453L861.25,315.80744510618126L863.5466666666667,262.62054791775614L863.5466666666667,346.9605469188907L865.8433333333332,367.6412928131494L865.8433333333332,408.3893710198728L870.4366666666667,352.9575791846622L870.4366666666667,365.6855029606006L872.7333333333333,413.6213885071603L872.7333333333333,311.0425206029957L872.7333333333333,255.99432428045708L875.03,317.29290960796857L875.03,350.97108184884894L877.3266666666667,288.6306823444637L879.6233333333333,400.004995948889L881.9200000000001,371.00434629686856L881.9200000000001,389.8341462314129L884.2166666666667,342.5996042408726L886.5133333333333,408.2523794804107L891.1066666666666,372.82349664988845L893.4033333333333,319.6806204549291L893.4033333333333,359.25488551164216L895.7,322.7957418147813L895.7,319.83476594022727L895.7,393.65072315999055L897.9966666666666,315.91619344191116L897.9966666666666,323.6136905977672L897.9966666666666,358.94907482239336L900.2933333333333,384.188161786307L902.59,307.1093704510819L902.59,377.95732699944216L902.59,380.52400214699185L902.59,360.7222519604997L907.1833333333333,392.16945113377136L909.48,237.75081485103476L914.0733333333334,286.7207216904922L914.0733333333334,349.1368257823316L916.37,371.25744700702757L916.37,281.5774662718177L918.6666666666666,256.318169015375L918.6666666666666,390.8270748630166L918.6666666666666,354.95860616862774L920.9633333333334,410.4225136468356L923.2600000000001,382.1819502142343L925.5566666666666,292.785121598027L925.5566666666666,363.5007751387629L925.5566666666666,317.30503898384893L930.1500000000001,362.58011070435697L930.1500000000001,383.9682808443904L930.1500000000001,162.39625110138547L932.4466666666666,29.89782931046051L932.4466666666666,276.6958085271445L932.4466666666666,307.60273841565305L934.7433333333333,262.347108900547L937.0400000000001,361.85310023684394L937.0400000000001,367.03423195196825L939.3366666666666,239.34523571214893L939.3366666666666,214.36921858923003L941.6333333333333,286.5104898431084L941.6333333333333,232.74426293914968L943.9300000000001,296.32345896485174L943.9300000000001,240.29439937932923L946.2266666666667,340.35446956685996L948.5233333333333,208.62162261794913L953.1166666666667,192.96173425831577L957.7099999999999,248.930450998924L960.0066666666667,363.9740608253262L962.3033333333334,419.4012441377748L964.5999999999999,309.9160248203711L964.5999999999999,375.8157880766825L964.5999999999999,387.2235461012884L966.8966666666666,368.43797518380666L966.8966666666666,345.7448250150139L969.1933333333334,372.4952834194357L969.1933333333334,186.7747284431349L969.1933333333334,252.44592177190566L971.4899999999999,321.018948266452L971.4899999999999,254.8340966715054L971.4899999999999,385.3180659555576L973.7866666666666,21.802287002856076L973.7866666666666,405.34019314023584L973.7866666666666,289.7628107660196L976.0833333333334,301.06634896858174L976.0833333333334,378.1645345037634L978.38,414.84584740210664L980.6766666666666,321.0114594169638L985.27,251.61456346782768L985.27,438.02834907986903L985.27,297.1383514011448L987.5666666666667,444.37897345491433L989.8633333333333,350.13345083323395L989.8633333333333,383.6511408700184L989.8633333333333,360.7538875490427L992.16,377.9563348869031L992.16,427.48772141709924L992.16,343.60307806865734L992.16,353.5209550904957L992.16,393.1287919553844L992.16,361.8101993704384L994.4566666666667,255.62346621264112L994.4566666666667,375.0125609636307L996.7533333333334,411.69145758788693L996.7533333333334,383.93613319776273L996.7533333333334,243.41491335088557L996.7533333333334,305.32241575013506L1001.3466666666667,267.72119050269777L1001.3466666666667,351.7196467613632L1003.6433333333334,362.7172302583402L1003.6433333333334,404.9744236496362L1005.9399999999999,220.45557298714462L1005.9399999999999,276.87115641751075L1008.2366666666667,303.06190333176744L1008.2366666666667,353.9337859194387L1010.5333333333333,367.5030691339211L1010.5333333333333,428.9086505984041L1012.8299999999999,360.0121714134108L1012.8299999999999,371.84767395867544L1015.1266666666667,351.7993518026038L1017.4233333333333,437.45404393429106L1019.72,362.11844233558935L1019.72,378.38062301549047L1022.0166666666667,396.1654404137622L1022.0166666666667,295.71556600928307L1024.3133333333333,331.83583926680416L1024.3133333333333,297.86656200479376L1028.9066666666668,351.36699875918305L1028.9066666666668,350.49477181922305L1033.5,356.01927048374307L1033.5,254.47623207758772L1035.7966666666666,186.685758350925L1038.0933333333332,391.9780694246292L1038.0933333333332,350.6335875656117L1040.39,385.9395604540001L1040.39,314.98539985851806L1042.6866666666667,354.06850520115006L1042.6866666666667,-297.65126180648804L1044.9833333333333,243.9472617371516L1044.9833333333333,211.95560080354863L1047.28,345.3923370309851L1047.28,324.712967292829L1047.28,293.8277038620277L1049.5766666666668,380.34711808237165L1049.5766666666668,326.8981111618606L1051.8733333333332,368.103073194623L1051.8733333333332,95.2388091818853L1051.8733333333332,310.73960624228823L1054.17,371.9125933227214L1056.4666666666667,286.90352642671627L1056.4666666666667,245.40070660683241L1056.4666666666667,299.0082595118067L1056.4666666666667,275.68001330169767L1058.7633333333333,148.27148087593642L1058.7633333333333,365.97479977661914L1058.7633333333333,255.36279664391822L1061.06,117.19240346009082L1061.06,266.6920177597891L1063.3566666666666,285.50327159057963L1063.3566666666666,389.75455320287836L1063.3566666666666,397.1812836446545L1065.6533333333334,343.7526470348239L1065.6533333333334,226.46559872681442L1067.95,333.9924038939855L1070.2466666666667,381.20899184793234L1070.2466666666667,288.04764020781624L1070.2466666666667,144.64367736063218L1072.5433333333333,311.3641250837933L1072.5433333333333,291.38192242790353L1072.5433333333333,407.4002988257191L1074.8400000000001,218.15095956623554L1077.1366666666665,293.96999200230294L1077.1366666666665,334.2548656660048L1079.4333333333334,333.7740431245078L1084.0266666666666,239.5112065388398L1084.0266666666666,213.35960006442937L1084.0266666666666,370.89516591212964L1084.0266666666666,372.53788025135344L1084.0266666666666,370.19233418730175L1086.3233333333333,412.85478954897684L1086.3233333333333,310.67415881834245L1086.3233333333333,380.4194622886452L1088.6200000000001,441.3468135056848L1090.9166666666665,280.7452918751673L1090.9166666666665,304.80163667621935L1090.9166666666665,401.9674745601687L1090.9166666666665,388.334120077843L1093.2133333333334,280.24152273075146L1093.2133333333334,310.39459110593253L1100.1033333333332,249.04662417688152L1100.1033333333332,365.8600347583944L1100.1033333333332,428.9306930987672L1100.1033333333332,305.78954073786736L1100.1033333333332,289.2042674083601L1100.1033333333332,356.8645503669977L1102.4,337.8350157758052L1104.6966666666667,303.83370287987316L1106.9933333333333,408.81069881265813L1109.29,376.42670537531376L1109.29,428.83341006358916L1109.29,392.67197213660586L1109.29,278.76513125815177L1111.5866666666666,368.7551951672543L1111.5866666666666,315.95630999248135L1113.8833333333334,99.44466226751155L1113.8833333333334,330.226040661335L1113.8833333333334,287.28512171249497L1113.8833333333334,339.948231485757L1116.18,241.12351742928678L1116.18,347.3292287398468L1116.18,334.6412774981423L1116.18,349.01202762601054L1116.18,278.8116005293348L1118.4766666666667,357.4818523898721L1118.4766666666667,347.9831109121442L1120.7733333333333,372.8899681900035L1120.7733333333333,374.30566477775574L1120.7733333333333,329.6581362418153L1120.7733333333333,396.06115658445793L1123.07,359.3802757351236L1123.07,330.6567295159806L1125.3666666666666,402.5654943957925L1125.3666666666666,377.9224750460549L1125.3666666666666,353.29910592531616L1127.6633333333334,412.67705738815397L1129.96,378.105615820397L1132.2566666666667,315.7298363027247L1132.2566666666667,357.0137352896008L1132.2566666666667,376.60253332013434L1132.2566666666667,358.77607919885355L1134.5533333333333,399.7698492753235L1136.85,296.4506733952598L1136.85,392.5398611507633L1139.1466666666668,299.8592840466987L1139.1466666666668,112.85091898928988L1141.4433333333334,405.0292778719555L1141.4433333333334,276.91013683920556L1146.0366666666666,345.964545938779L1146.0366666666666,334.9304302978245L1148.3333333333335,290.0277368175713L1148.3333333333335,346.8852423768152L1148.3333333333335,405.71085918627L1152.9266666666667,413.97669281065464L1155.2233333333334,212.85909529030323L1157.52,336.0103287947449L1157.52,371.97059990262443L1159.8166666666666,339.0085088895126L1159.8166666666666,362.2610025067221L1162.1133333333335,319.4763252809644L1162.1133333333335,420.9553484256295L1164.4099999999999,294.39232790944254L1164.4099999999999,258.40243744172835L1164.4099999999999,376.1019165333022L1164.4099999999999,361.3785664086992L1166.7066666666667,408.40674899112093L1169.0033333333333,376.1195185299624L1169.0033333333333,287.9661589650945L1171.3,309.9508927755735L1171.3,395.14807701043105L1171.3,419.04629987512124L1173.5966666666666,340.87793694572014L1175.8933333333334,337.7726407003674L1178.19,338.3148782083934L1180.4866666666667,350.43199669840664L1182.7833333333333,329.2538023767146L1182.7833333333333,356.4986048564315L1182.7833333333333,354.2119294703007L1185.08,257.49119807644325L1187.3766666666668,261.2771315290169L1187.3766666666668,181.2690799168565L1189.6733333333332,280.76663829657167L1189.6733333333332,310.8020293231715L1189.6733333333332,251.01049494607884L1191.97,183.81128828904843L1191.97,343.2185384488919L1191.97,380.64273561537266L1194.2666666666667,327.6612857316028L1198.86,303.68991056897426L1198.86,239.02731164883483L1198.86,395.70756447518414L1198.86,318.9496735408902L1201.1566666666668,129.15801676430485L1201.1566666666668,256.26840337027204L1203.4533333333334,333.2697779238224L1203.4533333333334,171.24999141422185L1203.4533333333334,187.0072348172014L1205.75,274.6781396554275L1205.75,305.61056043546307L1212.64,270.30942009524864L1212.64,309.90629571676254L1214.9366666666667,314.4394979348237L1214.9366666666667,368.8426770906557L1217.2333333333333,237.58833242004567L1217.2333333333333,334.5468187833374L1219.53,363.4670753160661L1224.1233333333332,326.1590353257277L1224.1233333333332,352.4798929989338L1228.7166666666667,113.90918303213334L1228.7166666666667,199.66262236508456L1231.0133333333333,146.46404385160315L1231.0133333333333,277.3823184005239L1231.0133333333333,318.7786621424285L1235.6066666666666,349.26087185334075L1235.6066666666666,78.68896387111062L1235.6066666666666,394.7025384713303L1237.9033333333334,212.44628046317533L1237.9033333333334,346.31135327843106L1237.9033333333334,326.41450430452824L1240.2,274.3061614605513L1242.4966666666667,288.0913731686094L1244.7933333333333,333.3257362713868L1244.7933333333333,269.40045298771423L1244.7933333333333,413.645311220803L1244.7933333333333,-28.983281793919502L1244.7933333333333,117.40967610613865L1247.0900000000001,313.57317566465247L1247.0900000000001,248.7631360197609L1247.0900000000001,264.5440621091561L1249.3866666666665,271.4022480588068L1249.3866666666665,331.0142260681499L1251.6833333333334,-61.485144601626814L1256.2766666666666,0.3599507185545576L1256.2766666666666,-224.68900142474615L1258.5733333333333,20.518397366458714L1260.8700000000001,228.19718714735725L1263.1666666666665,145.27530100806192L1263.1666666666665,310.53161464902485" style="fill: none;" fill="none"></path></g></g></g></g></g></g><g transform="translate(70, 378)" clip-path="url(#clip_1)"><clipPath id="clip_1"><rect width="1378" height="22"></rect></clipPath><g><g><line x1="0" y1="0" x2="0" y2="5" style="visibility: inherit;" fill="rgb(0, 0, 0)" stroke="rgb(204, 204, 204)" stroke-width="1px"></line><line x1="114.83333333333333" y1="0" x2="114.83333333333333" y2="5" style="visibility: inherit;" fill="rgb(0, 0, 0)" stroke="rgb(204, 204, 204)" stroke-width="1px"></line><line x1="229.66666666666666" y1="0" x2="229.66666666666666" y2="5" style="visibility: inherit;" fill="rgb(0, 0, 0)" stroke="rgb(204, 204, 204)" stroke-width="1px"></line><line x1="344.5" y1="0" x2="344.5" y2="5" style="visibility: inherit;" fill="rgb(0, 0, 0)" stroke="rgb(204, 204, 204)" stroke-width="1px"></line><line x1="459.3333333333333" y1="0" x2="459.3333333333333" y2="5" style="visibility: inherit;" fill="rgb(0, 0, 0)" stroke="rgb(204, 204, 204)" stroke-width="1px"></line><line x1="574.1666666666667" y1="0" x2="574.1666666666667" y2="5" style="visibility: inherit;" fill="rgb(0, 0, 0)" stroke="rgb(204, 204, 204)" stroke-width="1px"></line><line x1="689" y1="0" x2="689" y2="5" style="visibility: inherit;" fill="rgb(0, 0, 0)" stroke="rgb(204, 204, 204)" stroke-width="1px"></line><line x1="803.8333333333334" y1="0" x2="803.8333333333334" y2="5" style="visibility: inherit;" fill="rgb(0, 0, 0)" stroke="rgb(204, 204, 204)" stroke-width="1px"></line><line x1="918.6666666666666" y1="0" x2="918.6666666666666" y2="5" style="visibility: inherit;" fill="rgb(0, 0, 0)" stroke="rgb(204, 204, 204)" stroke-width="1px"></line><line x1="1033.5" y1="0" x2="1033.5" y2="5" style="visibility: inherit;" fill="rgb(0, 0, 0)" stroke="rgb(204, 204, 204)" stroke-width="1px"></line><line x1="1148.3333333333335" y1="0" x2="1148.3333333333335" y2="5" style="visibility: inherit;" fill="rgb(0, 0, 0)" stroke="rgb(204, 204, 204)" stroke-width="1px"></line><line x1="1263.1666666666665" y1="0" x2="1263.1666666666665" y2="5" style="visibility: inherit;" fill="rgb(0, 0, 0)" stroke="rgb(204, 204, 204)" stroke-width="1px"></line><line x1="1378" y1="0" x2="1378" y2="5" style="visibility: inherit;" fill="rgb(0, 0, 0)" stroke="rgb(204, 204, 204)" stroke-width="1px"></line></g><g transform="translate(0, 8)"><text x="0" y="0" dx="0em" dy="0.95em" style="text-anchor: middle; visibility: hidden; font-family: &quot;Helvetica Neue&quot;, sans-serif; font-size: 12px; font-weight: 200;" fill="rgb(50, 49, 63)" stroke="none" stroke-width="1px">-50</text><text x="114.83333333333333" y="0" dx="0em" dy="0.95em" style="text-anchor: middle; visibility: inherit; font-family: &quot;Helvetica Neue&quot;, sans-serif; font-size: 12px; font-weight: 200;" fill="rgb(50, 49, 63)" stroke="none" stroke-width="1px">0</text><text x="229.66666666666666" y="0" dx="0em" dy="0.95em" style="text-anchor: middle; visibility: inherit; font-family: &quot;Helvetica Neue&quot;, sans-serif; font-size: 12px; font-weight: 200;" fill="rgb(50, 49, 63)" stroke="none" stroke-width="1px">50</text><text x="344.5" y="0" dx="0em" dy="0.95em" style="text-anchor: middle; visibility: inherit; font-family: &quot;Helvetica Neue&quot;, sans-serif; font-size: 12px; font-weight: 200;" fill="rgb(50, 49, 63)" stroke="none" stroke-width="1px">100</text><text x="459.3333333333333" y="0" dx="0em" dy="0.95em" style="text-anchor: middle; visibility: inherit; font-family: &quot;Helvetica Neue&quot;, sans-serif; font-size: 12px; font-weight: 200;" fill="rgb(50, 49, 63)" stroke="none" stroke-width="1px">150</text><text x="574.1666666666667" y="0" dx="0em" dy="0.95em" style="text-anchor: middle; visibility: inherit; font-family: &quot;Helvetica Neue&quot;, sans-serif; font-size: 12px; font-weight: 200;" fill="rgb(50, 49, 63)" stroke="none" stroke-width="1px">200</text><text x="689" y="0" dx="0em" dy="0.95em" style="text-anchor: middle; visibility: inherit; font-family: &quot;Helvetica Neue&quot;, sans-serif; font-size: 12px; font-weight: 200;" fill="rgb(50, 49, 63)" stroke="none" stroke-width="1px">250</text><text x="803.8333333333334" y="0" dx="0em" dy="0.95em" style="text-anchor: middle; visibility: inherit; font-family: &quot;Helvetica Neue&quot;, sans-serif; font-size: 12px; font-weight: 200;" fill="rgb(50, 49, 63)" stroke="none" stroke-width="1px">300</text><text x="918.6666666666666" y="0" dx="0em" dy="0.95em" style="text-anchor: middle; visibility: inherit; font-family: &quot;Helvetica Neue&quot;, sans-serif; font-size: 12px; font-weight: 200;" fill="rgb(50, 49, 63)" stroke="none" stroke-width="1px">350</text><text x="1033.5" y="0" dx="0em" dy="0.95em" style="text-anchor: middle; visibility: inherit; font-family: &quot;Helvetica Neue&quot;, sans-serif; font-size: 12px; font-weight: 200;" fill="rgb(50, 49, 63)" stroke="none" stroke-width="1px">400</text><text x="1148.3333333333335" y="0" dx="0em" dy="0.95em" style="text-anchor: middle; visibility: inherit; font-family: &quot;Helvetica Neue&quot;, sans-serif; font-size: 12px; font-weight: 200;" fill="rgb(50, 49, 63)" stroke="none" stroke-width="1px">450</text><text x="1263.1666666666665" y="0" dx="0em" dy="0.95em" style="text-anchor: middle; visibility: inherit; font-family: &quot;Helvetica Neue&quot;, sans-serif; font-size: 12px; font-weight: 200;" fill="rgb(50, 49, 63)" stroke="none" stroke-width="1px">500</text><text x="1378" y="0" dx="0em" dy="0.95em" style="text-anchor: middle; visibility: hidden; font-family: &quot;Helvetica Neue&quot;, sans-serif; font-size: 12px; font-weight: 200;" fill="rgb(50, 49, 63)" stroke="none" stroke-width="1px">550</text></g><line x1="0" y1="0" x2="1378" y2="0" fill="rgb(0, 0, 0)" stroke="rgb(204, 204, 204)" stroke-width="1px"></line></g></g></g></g></svg>