<svg viewBox="0 0 1448 400" xmlns="http://www.w3.org/2000/svg"><g><g><g><g><g><line x1="70" y1="378" x2="65" y2="378" style="visibility: inherit;" fill="rgb(0, 0, 0)" stroke="rgb(204, 204, 204)" stroke-width="1px"></line><line x1="70" y1="340.2" x2="65" y2="340.2" style="visibility: inherit;" fill="rgb(0, 0, 0)" stroke="rgb(204, 204, 204)" stroke-width="1px"></line><line x1="70" y1="302.4" x2="65" y2="302.4" style="visibility: inherit;" fill="rgb(0, 0, 0)" stroke="rgb(204, 204, 204)" stroke-width="1px"></line><line x1="70" y1="264.6" x2="65" y2="264.6" style="visibility: inherit;" fill="rgb(0, 0, 0)" stroke="rgb(204, 204, 204)" stroke-width="1px"></line><line x1="70" y1="226.79999999999998" x2="65" y2="226.79999999999998" style="visibility: inherit;" fill="rgb(0, 0, 0)" stroke="rgb(204, 204, 204)" stroke-width="1px"></line><line x1="70" y1="188.99999999999997" x2="65" y2="188.99999999999997" style="visibility: inherit;" fill="rgb(0, 0, 0)" stroke="rgb(204, 204, 204)" stroke-width="1px"></line><line x1="70" y1="151.19999999999996" x2="65" y2="151.19999999999996" style="visibility: inherit;" fill="rgb(0, 0, 0)" stroke="rgb(204, 204, 204)" stroke-width="1px"></line><line x1="70" y1="113.40000000000003" x2="65" y2="113.40000000000003" style="visibility: inherit;" fill="rgb(0, 0, 0)" stroke="rgb(204, 204, 204)" stroke-width="1px"></line><line x1="70" y1="75.59999999999997" x2="65" y2="75.59999999999997" style="visibility: inherit;" fill="rgb(0, 0, 0)" stroke="rgb(204, 204, 204)" stroke-width="1px"></line><line x1="70" y1="37.80000000000001" x2="65" y2="37.80000000000001" style="visibility: inherit;" fill="rgb(0, 0, 0)" stroke="rgb(204, 204, 204)" stroke-width="1px"></line><line x1="70" y1="0" x2="65" y2="0" style="visibility: inherit;" fill="rgb(0, 0, 0)" stroke="rgb(204, 204, 204)" stroke-width="1px"></line></g><g transform="translate(60, 0)"><text x="0" y="378" dx="0em" dy="0.3em" style="text-anchor: end; visibility: hidden; font-family: &quot;Helvetica Neue&quot;, sans-serif; font-size: 12px; font-weight: 200;" fill="rgb(50, 49, 63)" stroke="none" stroke-width="1px">-0.02</text><text x="0" y="340.2" dx="0em" dy="0.3em" style="text-anchor: end; visibility: inherit; font-family: &quot;Helvetica Neue&quot;, sans-serif; font-size: 12px; font-weight: 200;" fill="rgb(50, 49, 63)" stroke="none" stroke-width="1px">0</text><text x="0" y="302.4" dx="0em" dy="0.3em" style="text-anchor: end; visibility: inherit; font-family: &quot;Helvetica Neue&quot;, sans-serif; font-size: 12px; font-weight: 200;" fill="rgb(50, 49, 63)" stroke="none" stroke-width="1px">0.02</text><text x="0" y="264.6" dx="0em" dy="0.3em" style="text-anchor: end; visibility: inherit; font-family: &quot;Helvetica Neue&quot;, sans-serif; font-size: 12px; font-weight: 200;" fill="rgb(50, 49, 63)" stroke="none" stroke-width="1px">0.04</text><text x="0" y="226.79999999999998" dx="0em" dy="0.3em" style="text-anchor: end; visibility: inherit; font-family: &quot;Helvetica Neue&quot;, sans-serif; font-size: 12px; font-weight: 200;" fill="rgb(50, 49, 63)" stroke="none" stroke-width="1px">0.06</text><text x="0" y="188.99999999999997" dx="0em" dy="0.3em" style="text-anchor: end; visibility: inherit; font-family: &quot;Helvetica Neue&quot;, sans-serif; font-size: 12px; font-weight: 200;" fill="rgb(50, 49, 63)" stroke="none" stroke-width="1px">0.08</text><text x="0" y="151.19999999999996" dx="0em" dy="0.3em" style="text-anchor: end; visibility: inherit; font-family: &quot;Helvetica Neue&quot;, sans-serif; font-size: 12px; font-weight: 200;" fill="rgb(50, 49, 63)" stroke="none" stroke-width="1px">0.1</text><text x="0" y="113.40000000000003" dx="0em" dy="0.3em" style="text-anchor: end; visibility: inherit; font-family: &quot;Helvetica Neue&quot;, sans-serif; font-size: 12px; font-weight: 200;" fill="rgb(50, 49, 63)" stroke="none" stroke-width="1px">0.12</text><text x="0" y="75.59999999999997" dx="0em" dy="0.3em" style="text-anchor: end; visibility: inherit; font-family: &quot;Helvetica Neue&quot;, sans-serif; font-size: 12px; font-weight: 200;" fill="rgb(50, 49, 63)" stroke="none" stroke-width="1px">0.14</text><text x="0" y="37.80000000000001" dx="0em" dy="0.3em" style="text-anchor: end; visibility: inherit; font-family: &quot;Helvetica Neue&quot;, sans-serif; font-size: 12px; font-weight: 200;" fill="rgb(50, 49, 63)" stroke="none" stroke-width="1px">0.16</text><text x="0" y="0" dx="0em" dy="0.3em" style="text-anchor: end; visibility: hidden; font-family: &quot;Helvetica Neue&quot;, sans-serif; font-size: 12px; font-weight: 200;" fill="rgb(50, 49, 63)" stroke="none" stroke-width="1px">0.18</text></g><line x1="70" y1="0" x2="70" y2="378" fill="rgb(0, 0, 0)" stroke="rgb(204, 204, 204)" stroke-width="1px"></line></g></g><g transform="translate(70, 0)" clip-path="url(#clip_0)"><clipPath id="clip_0"><rect width="1378" height="378"></rect></clipPath><g><g><g><line x1="0" y1="0" x2="0" y2="378" fill="rgb(0, 0, 0)" stroke="rgb(60, 60, 60)" stroke-width="1px" opacity="0.25"></line><line x1="114.83333333333333" y1="0" x2="114.83333333333333" y2="378" fill="rgb(0, 0, 0)" stroke="rgb(60, 60, 60)" stroke-width="1px" opacity="0.25"></line><line x1="229.66666666666666" y1="0" x2="229.66666666666666" y2="378" fill="rgb(0, 0, 0)" stroke="rgb(60, 60, 60)" stroke-width="1px" opacity="0.25"></line><line x1="344.5" y1="0" x2="344.5" y2="378" fill="rgb(0, 0, 0)" stroke="rgb(60, 60, 60)" stroke-width="1px" opacity="0.25"></line><line x1="459.3333333333333" y1="0" x2="459.3333333333333" y2="378" fill="rgb(0, 0, 0)" stroke="rgb(60, 60, 60)" stroke-width="1px" opacity="0.25"></line><line x1="574.1666666666667" y1="0" x2="574.1666666666667" y2="378" fill="rgb(0, 0, 0)" stroke="rgb(60, 60, 60)" stroke-width="1px" opacity="0.25"></line><line x1="689" y1="0" x2="689" y2="378" fill="rgb(0, 0, 0)" stroke="rgb(60, 60, 60)" stroke-width="1px" opacity="0.25"></line><line x1="803.8333333333334" y1="0" x2="803.8333333333334" y2="378" fill="rgb(0, 0, 0)" stroke="rgb(60, 60, 60)" stroke-width="1px" opacity="0.25"></line><line x1="918.6666666666666" y1="0" x2="918.6666666666666" y2="378" fill="rgb(0, 0, 0)" stroke="rgb(60, 60, 60)" stroke-width="1px" opacity="0.25"></line><line x1="1033.5" y1="0" x2="1033.5" y2="378" fill="rgb(0, 0, 0)" stroke="rgb(60, 60, 60)" stroke-width="1px" opacity="0.25"></line><line x1="1148.3333333333335" y1="0" x2="1148.3333333333335" y2="378" fill="rgb(0, 0, 0)" stroke="rgb(60, 60, 60)" stroke-width="1px" opacity="0.25"></line><line x1="1263.1666666666665" y1="0" x2="1263.1666666666665" y2="378" fill="rgb(0, 0, 0)" stroke="rgb(60, 60, 60)" stroke-width="1px" opacity="0.25"></line><line x1="1378" y1="0" x2="1378" y2="378" fill="rgb(0, 0, 0)" stroke="rgb(60, 60, 60)" stroke-width="1px" opacity="0.25"></line></g><g><line x1="0" y1="378" x2="1378" y2="378" fill="rgb(0, 0, 0)" stroke="rgb(60, 60, 60)" stroke-width="1px" opacity="0.25"></line><line x1="0" y1="340.2" x2="1378" y2="340.2" fill="rgb(0, 0, 0)" stroke="rgb(60, 60, 60)" stroke-width="1px" opacity="0.25"></line><line x1="0" y1="302.4" x2="1378" y2="302.4" fill="rgb(0, 0, 0)" stroke="rgb(60, 60, 60)" stroke-width="1px" opacity="0.25"></line><line x1="0" y1="264.6" x2="1378" y2="264.6" fill="rgb(0, 0, 0)" stroke="rgb(60, 60, 60)" stroke-width="1px" opacity="0.25"></line><line x1="0" y1="226.79999999999998" x2="1378" y2="226.79999999999998" fill="rgb(0, 0, 0)" stroke="rgb(60, 60, 60)" stroke-width="1px" opacity="0.25"></line><line x1="0" y1="188.99999999999997" x2="1378" y2="188.99999999999997" fill="rgb(0, 0, 0)" stroke="rgb(60, 60, 60)" stroke-width="1px" opacity="0.25"></line><line x1="0" y1="151.19999999999996" x2="1378" y2="151.19999999999996" fill="rgb(0, 0, 0)" stroke="rgb(60, 60, 60)" stroke-width="1px" opacity="0.25"></line><line x1="0" y1="113.40000000000003" x2="1378" y2="113.40000000000003" fill="rgb(0, 0, 0)" stroke="rgb(60, 60, 60)" stroke-width="1px" opacity="0.25"></line><line x1="0" y1="75.59999999999997" x2="1378" y2="75.59999999999997" fill="rgb(0, 0, 0)" stroke="rgb(60, 60, 60)" stroke-width="1px" opacity="0.25"></line><line x1="0" y1="37.80000000000001" x2="1378" y2="37.80000000000001" fill="rgb(0, 0, 0)" stroke="rgb(60, 60, 60)" stroke-width="1px" opacity="0.25"></line><line x1="0" y1="0" x2="1378" y2="0" fill="rgb(0, 0, 0)" stroke="rgb(60, 60, 60)" stroke-width="1px" opacity="0.25"></line></g></g></g><g><g><line x1="0" y1="340.2" x2="1378" y2="340.2" fill="rgb(0, 0, 0)" stroke="rgb(153, 153, 153)" stroke-width="1.5px"></line></g></g><g><g><line x1="114.83333333333333" y1="0" x2="114.83333333333333" y2="378" fill="rgb(0, 0, 0)" stroke="rgb(153, 153, 153)" stroke-width="1.5px"></line></g></g><g><g><g><g><g><path stroke="rgb(255, 112, 67)" stroke-width="2px" d="M149.28333333333333,-0.1695198678069687L149.28333333333333,3.5688149678297236L151.58,9.078468851052037L151.58,14.107742255563608L156.17333333333332,19.010769285092465L156.17333333333332,23.251757782997572L156.17333333333332,27.504216778100158L158.47,30.35890545489832L158.47,32.96972125427101L158.47,35.559306959825335L158.47,39.623696183020684L160.76666666666668,42.35057500417639L165.35999999999999,46.97814554210288L165.35999999999999,51.49878260597467L169.95333333333335,55.64038767538585L172.25,60.427671190069816L172.25,64.52330819960332L172.25,68.58582664547254L174.54666666666668,72.9585205368179L176.84333333333333,76.94007096102035L179.14000000000001,80.80681988249796L181.43666666666664,84.42420801388681L181.43666666666664,88.23096469754705L181.43666666666664,91.94104894273602L190.62333333333333,95.69051088869264L190.62333333333333,98.97350903535653L190.62333333333333,101.82674908437178L190.62333333333333,105.0741316767706L192.92000000000002,108.05610008252717L192.92000000000002,111.06043362347333L192.92000000000002,113.9465675816619L192.92000000000002,116.02532298447773L195.21666666666667,118.88338767225918L195.21666666666667,120.9467606384132L195.21666666666667,123.499031939363L195.21666666666667,125.98666018758536L197.51333333333335,128.5702209076643L197.51333333333335,130.93725820961387L199.80999999999997,133.1967729190688L199.80999999999997,135.01091251706046L204.40333333333334,137.35717012391916L204.40333333333334,139.6889824312377L204.40333333333334,141.65903642049784L204.40333333333334,143.65316613980858L204.40333333333334,145.70795334211337L206.7,147.8602743975974L206.7,149.49317257239773L206.7,151.50551408776602L206.7,153.2270679555813L208.99666666666667,155.2245082490106L208.99666666666667,156.9884143130981L211.29333333333332,158.78194451629824L213.59,160.46516801003455L213.59,162.32020761612583L218.18333333333334,163.99954833688363L218.18333333333334,165.48687212938415L220.48000000000002,167.07770913905293L222.77666666666664,168.63228365175772L225.07333333333332,170.20814418933202L225.07333333333332,171.79778912678162L225.07333333333332,173.21503347173447L227.37,174.6025159324025L227.37,176.04618349526731L229.66666666666666,177.40073192674436L229.66666666666666,178.8061971015767L229.66666666666666,180.04540900258357L231.96333333333334,181.34949818398613L231.96333333333334,182.70420908556233L231.96333333333334,183.97965383282013L231.96333333333334,185.27635806663878L234.26000000000002,186.3786620870753L234.26000000000002,187.6206055800824L236.55666666666667,188.86410299264196L238.85333333333335,189.73005998814858L238.85333333333335,190.80595848622946L241.14999999999998,191.9806569201314L241.14999999999998,192.70087957486902L241.14999999999998,193.69087905977244L241.14999999999998,194.7661581667101L241.14999999999998,195.90513011503984L241.14999999999998,196.92853569021847L243.44666666666666,197.96438206187418L243.44666666666666,199.05290216259365L243.44666666666666,200.0418860084326L243.44666666666666,201.0840489510766L243.44666666666666,201.94508719870032L243.44666666666666,202.85016265943045L243.44666666666666,203.83792682666575L245.74333333333334,204.58568395489596L245.74333333333334,205.48967570061546L245.74333333333334,206.38423338878962L250.33666666666667,207.2498953476713L252.63333333333333,207.86842772852884L252.63333333333333,208.61878952426832L254.93,209.4967411654569L254.93,210.30005294394087L254.93,211.1335991092179L257.2266666666667,212.01031137418468L257.2266666666667,212.7374380056802L259.5233333333333,213.52584391982955L259.5233333333333,214.30185922470085L261.82,215.14054819539135L261.82,215.84608059756042L261.82,216.64453530426005L264.1166666666667,217.3964059270317L266.41333333333336,218.16106885390477L266.41333333333336,218.93992262752948L268.71000000000004,219.6909513933348L268.71000000000004,220.4465973592334L268.71000000000004,221.12286603588015L268.71000000000004,221.81608001974615L271.00666666666666,222.46329810481333L271.00666666666666,223.0336772316717L275.6,223.54758343624482L275.6,224.13051334238975L280.1933333333333,224.79065488407397L280.1933333333333,225.35048512951695L280.1933333333333,225.961527370235L282.49,226.56631810219477L282.49,227.19159437611745L282.49,227.8744349271965L282.49,228.48633131636132L282.49,228.98234787489343L284.7866666666667,229.5878771511363L284.7866666666667,230.22055445817688L287.08333333333337,230.78723720484524L287.08333333333337,231.2335591756645L287.08333333333337,231.68339213059923L291.6766666666667,232.2806827738035L291.6766666666667,232.74582430620575L293.97333333333336,233.2511554874031L296.27,233.75787315461312L296.27,234.35860604249808L298.56666666666666,234.87801188136038L300.86333333333334,235.35611737340852L303.16,235.88883220730878L305.4566666666667,236.41173630089818L307.75333333333333,236.95020037783422L307.75333333333333,237.4417490658425L307.75333333333333,237.90610062570124L310.05,238.38359124188835L312.34666666666664,238.73207883183684L312.34666666666664,239.1781718471568L314.6433333333333,239.62995104934396L314.6433333333333,240.07632693026235L314.6433333333333,240.45676061020455L316.94,240.87991341193353L316.94,241.30625748494052L316.94,241.73315200242857L319.2366666666667,242.11817045279528L319.2366666666667,242.52980753972676L321.53333333333336,242.94713699127465L323.83,243.10329568907892L326.12666666666667,243.46529922633212L326.12666666666667,243.9030860330058L328.42333333333335,244.31638708861576L328.42333333333335,244.53988514073882L328.42333333333335,244.90960509564343L330.71999999999997,245.264081216181L330.71999999999997,245.61695876492092L333.01666666666665,246.03958097063565L333.01666666666665,246.461477414092L337.61,246.80042995708718L337.61,247.02018479695084L337.61,247.34865554129172L339.9066666666667,247.64454952653045L339.9066666666667,247.9747742344205L339.9066666666667,248.33331918071653L339.9066666666667,248.68341345016006L342.2033333333333,248.9851065583453L342.2033333333333,249.28498328752758L344.5,249.5214951728837L344.5,249.8172662434684L346.7966666666666,250.02097032614338L346.7966666666666,250.28801839603756L351.39,250.65805782288217L351.39,251.01568305908202L355.98333333333335,251.28938048962613L355.98333333333335,251.51371947555265L355.98333333333335,251.80299007480605L358.28000000000003,252.11296415759978L360.57666666666665,252.3975296731621L362.8733333333333,252.41972629398995L362.8733333333333,252.70842413233544L362.8733333333333,253.03498420452263L367.46666666666664,253.26200214263883L367.46666666666664,253.5877355305053L369.7633333333333,253.89796103284056L369.7633333333333,254.09934161229572L374.3566666666667,254.3335837212099L374.3566666666667,254.62100566141743L374.3566666666667,254.85927236712033L376.6533333333333,255.1044555118905L376.6533333333333,255.39997822854724L378.95000000000005,255.65306921557578L378.95000000000005,255.82358757220294L378.95000000000005,256.0953228349915L381.24666666666667,256.22931156558604L381.24666666666667,256.4233894709735L383.5433333333333,256.6087615672451L383.5433333333333,256.8896663555186L385.84000000000003,257.1364914019211L388.13666666666666,257.4181397754205L388.13666666666666,257.6793373834164L388.13666666666666,257.91456886855536L388.13666666666666,258.15091243086204L388.13666666666666,258.38271578120555L388.13666666666666,258.5453636280328L388.13666666666666,258.6443993289887L388.13666666666666,258.77582066300306L390.43333333333334,258.6714825684208L390.43333333333334,258.8900444458828L392.72999999999996,259.10533320683317L395.0266666666667,259.304482370154L395.0266666666667,259.45509219448843L399.61999999999995,259.4772095161465L404.2133333333333,259.51322295566615L404.2133333333333,259.7925933389332L404.2133333333333,259.99515532301274L404.2133333333333,260.1727374112106L406.51,260.35235085661486L406.51,260.49760929649955L406.51,260.6115024280313L406.51,260.8221394460137L408.8066666666667,261.02032069847974L411.10333333333335,261.22255316015156L413.4,261.4265153825193L413.4,261.44364146685393L413.4,261.62643440548163L413.4,261.6759165178627L413.4,261.81617175426106L413.4,262.049202565743L415.6966666666667,261.991702806573L417.99333333333334,261.88816074213975L417.99333333333334,261.99466155788866L417.99333333333334,262.2174487480511L420.28999999999996,262.2925344440562L420.28999999999996,262.40303317372593L420.28999999999996,262.4659490805693L420.28999999999996,262.5894269259353L420.28999999999996,262.715013718259L420.28999999999996,262.64346512845674L422.58666666666664,262.6641750340072L422.58666666666664,262.84430642517884L427.18,262.9628011154574L427.18,263.16009756022186L429.47666666666663,263.3504170947293L429.47666666666663,263.5432642916344L434.07,263.7037145845637L434.07,263.90110386206595L436.3666666666667,264.0646895494496L438.66333333333336,264.26781847097055L438.66333333333336,264.4185560132563L438.66333333333336,264.58564632302136L440.96000000000004,264.78117502329746L443.25666666666666,264.94782682490484L443.25666666666666,265.12956431078874L443.25666666666666,265.2776461912073L445.5533333333333,265.445047208277L445.5533333333333,265.63979547345156L447.85,265.80171489534354L450.14666666666665,266.01417352397556L450.14666666666665,266.0878889951702L452.4433333333333,266.2057743605263L452.4433333333333,266.36968632142674L454.74,266.49937074756997L454.74,266.6221695985855L457.0366666666667,266.8396857090717L459.3333333333333,267.0470939440259L461.63000000000005,267.19152183717995L461.63000000000005,267.3213867496995L463.9266666666667,267.48435256071184L466.2233333333333,267.66065166406065L466.2233333333333,267.8739248877419L466.2233333333333,268.0469894292624L468.52000000000004,268.17182487992056L468.52000000000004,268.2307505287288L470.81666666666666,268.432151683434L473.11333333333334,268.5851388750291L473.11333333333334,268.7798975228647L475.40999999999997,268.94900328749395L475.40999999999997,269.0401914803824L475.40999999999997,269.23258005404557L475.40999999999997,269.3693647311053L480.00333333333333,269.55045205406617L480.00333333333333,269.7178735396102L480.00333333333333,269.8917315264796L482.29999999999995,270.03696111843516L484.5966666666667,270.1102844253898L484.5966666666667,270.2663712090954L486.8933333333333,270.40476662681397L486.8933333333333,270.60757143673237L489.19,270.74507242029335L491.4866666666667,270.91603263283696L491.4866666666667,271.0762710249785L493.78333333333336,271.17342926380593L496.08,271.2928868219018L496.08,271.46837386421987L496.08,271.6161045338414L496.08,271.7864315768925L496.08,271.94586249724654L498.3766666666667,272.08803422436074L498.3766666666667,272.1006289722369L498.3766666666667,272.18218601626603L500.67333333333335,272.3161236744905L500.67333333333335,272.30817197604443L502.96999999999997,272.45989087012276L502.96999999999997,272.5940699060728L502.96999999999997,272.71520280429854L505.26666666666665,272.7994964396264L505.26666666666665,272.9337622648078L505.26666666666665,273.0306543860165L505.26666666666665,273.1798195045094L505.26666666666665,273.19168784951705L507.56333333333333,273.2956476217596L509.86,273.39239744651684L509.86,273.50723366690227L512.1566666666666,273.551681545693L512.1566666666666,273.6750465564772L512.1566666666666,273.81441378458146L514.4533333333334,273.93771989120967L514.4533333333334,274.04095160771186L514.4533333333334,274.21051479942815L514.4533333333334,274.2951301065074L516.75,274.36572300854266L516.75,274.47647801027847L516.75,274.59091415128927L516.75,274.7390922539313L519.0466666666666,274.8751435366279L523.64,275.0223080651999L525.9366666666666,275.11250300477303L528.2333333333333,275.22682600896854L528.2333333333333,275.3281804515167L528.2333333333333,275.450867935585L530.53,275.577801431024L530.53,275.6815076314376L532.8266666666667,275.7669120682433L532.8266666666667,275.8324665246987L532.8266666666667,275.91905599704717L535.1233333333333,275.9310193845764L535.1233333333333,276.03252857889845L537.4200000000001,276.10428830379715L537.4200000000001,276.1795147019869L539.7166666666667,276.3259533438778L542.0133333333333,276.4754534221053L542.0133333333333,276.56389857298L544.3100000000001,276.6195854337532L544.3100000000001,276.76630454714694L544.3100000000001,276.8548727909463L546.6066666666667,276.948866380576L546.6066666666667,277.0656891180501L546.6066666666667,277.19668878033497L548.9033333333333,277.24695522739864L551.2,277.3588022958346L551.2,277.4960463848553L553.4966666666667,277.58372624130084L553.4966666666667,277.6811596160098L555.7933333333333,277.81694438797973L555.7933333333333,277.81735154864265L555.7933333333333,277.91635509922435L558.09,278.0389811438932L558.09,278.10505570899437L560.3866666666667,278.2001305669384L560.3866666666667,278.27975414787966L560.3866666666667,278.3617947614595L562.6833333333333,278.4550849636048L562.6833333333333,278.5419247423753L564.98,278.6594167120627L564.98,278.78387951498087L569.5733333333334,278.8904850203935L574.1666666666667,278.9937637686869L574.1666666666667,279.06520801466496L574.1666666666667,279.13030721539997L574.1666666666667,279.1790173984531L574.1666666666667,279.273685291124L576.4633333333334,279.3900670843238L576.4633333333334,279.4499111770714L578.76,279.56539538213843L578.76,279.69063859792345L581.0566666666667,279.78344728891443L583.3533333333334,279.89330377700185L583.3533333333334,279.9977012574443L583.3533333333334,280.0907013140609L585.65,280.17883495594447L585.65,280.30088036906494L587.9466666666667,280.407513799017L587.9466666666667,280.5093848763207L594.8366666666666,280.59504334184305L597.1333333333333,280.65509391552627L597.1333333333333,280.4808245198596L597.1333333333333,280.56725706722847L599.43,280.6415563590822L599.43,280.70682707256174L599.43,280.8089319770809L604.0233333333333,280.8672291518474L604.0233333333333,280.9331911477024L604.0233333333333,281.0142732922952L604.0233333333333,281.1167522433449L604.0233333333333,281.18888340182457L606.32,281.2586115540672L606.32,281.33247189795827L608.6166666666667,281.44146907141436L613.21,281.4486890830391L613.21,281.5301570306957L613.21,281.6161140883032L615.5066666666667,281.65056605374303L617.8033333333333,281.6843217963878L617.8033333333333,281.76779705894836L620.1,281.8584183307538L622.3966666666666,281.91679467085817L622.3966666666666,282.00317798624894L622.3966666666666,282.0905695102838L622.3966666666666,282.1453244796973L624.6933333333333,282.1904569084092L624.6933333333333,282.2253979402793L626.99,282.23001794373977L629.2866666666666,282.1764818731149L629.2866666666666,282.24085327604496L629.2866666666666,282.22924124756986L631.5833333333333,282.3119275868401L631.5833333333333,282.3942871772731L631.5833333333333,282.45556088425667L633.88,282.52260674274186L633.88,282.57236418709743L636.1766666666666,282.59470194060054L636.1766666666666,282.63822195906386L640.77,282.731502259498L640.77,282.81855474524974L640.77,282.8879636202553L640.77,282.9187195229649L643.0666666666667,282.97462785853406L643.0666666666667,283.0642777110807L643.0666666666667,283.11402816644755L643.0666666666667,283.0551374549175L645.3633333333333,283.10149746112126L645.3633333333333,283.18941572653887L647.66,283.25423885789473L647.66,283.3310240579857L647.66,283.38644450976534L649.9566666666667,283.43593745985896L649.9566666666667,283.5122662529152L652.2533333333333,283.5677144324372L652.2533333333333,283.63033106198594L654.55,283.6827801790175L654.55,283.7713216963678L656.8466666666667,283.8202187638059L656.8466666666667,283.9025924523688L659.1433333333333,283.9425866756628L659.1433333333333,283.9982171993957L659.1433333333333,284.0393402541508L659.1433333333333,284.0274519932659L661.4399999999999,284.04836838372L666.0333333333333,284.12425549649663L666.0333333333333,284.2084957821263L668.3299999999999,284.2894749977851L668.3299999999999,284.3811911965848L672.9233333333333,284.46321512466216L675.22,284.52629188700286L675.22,284.619730501554L675.22,284.6536492330012L675.22,284.7503763391494L677.5166666666667,284.82317746866534L677.5166666666667,284.84809885724735L677.5166666666667,284.9417172610199L679.8133333333334,285.01243667087243L679.8133333333334,285.0453934879787L682.11,285.14115629283936L682.11,285.2271491807786L684.4066666666666,285.30323725607684L684.4066666666666,285.3512316059042L686.7033333333334,285.4258955772239L686.7033333333334,285.4899800230471L686.7033333333334,285.52826370096875L686.7033333333334,285.6069894316888L686.7033333333334,285.6795702003915L686.7033333333334,285.77438072661994L686.7033333333334,285.8606646802589L689,285.9345730169695L691.2966666666667,286.0127279634536L691.2966666666667,286.0968572901184L695.89,286.17869701253437L695.89,286.25704000081794L695.89,286.24054880467895L698.1866666666667,286.2777498468523L700.4833333333333,286.35191844446484L702.78,286.43140377192884L702.78,286.4536662769299L702.78,286.506885313087L705.0766666666667,286.5355719179777L707.3733333333333,286.58645725377374L707.3733333333333,286.63585178662646L707.3733333333333,286.7151392012412L707.3733333333333,286.7623770363843L709.6700000000001,286.83188308498177L709.6700000000001,286.90345391162236L709.6700000000001,286.93652848361165L709.6700000000001,286.9713228309522L709.6700000000001,287.0305269565426L711.9666666666667,287.08196595653584L716.5600000000001,287.1299116038334L716.5600000000001,287.1924417550642L716.5600000000001,287.27467082479075L718.8566666666666,287.302958782117L721.1533333333333,287.3589578534743L721.1533333333333,287.40109281829086L721.1533333333333,287.4503445390138L721.1533333333333,287.4940692241499L721.1533333333333,287.52112585067607L723.45,287.58131289175464L723.45,287.6194617669765L723.45,287.684207469225L725.7466666666666,287.73917007083753L725.7466666666666,287.7678533353813L728.0433333333333,287.84339427569165L728.0433333333333,287.7205560168203L728.0433333333333,287.771462286798L728.0433333333333,287.83974582803205L730.34,287.8659962326307L732.6366666666667,287.9528882298635L734.9333333333333,287.99985651356474L737.23,288.0456848467839L737.23,288.1034238783754L739.5266666666666,288.1748045349672L739.5266666666666,288.2312286700599L741.8233333333334,288.31968299897005L741.8233333333334,288.36686390706285L744.12,288.44076847618135L744.12,288.5225066542677L744.12,288.5800410297735L746.4166666666666,288.63959930226963L746.4166666666666,288.69523338222183L746.4166666666666,288.7630905924334L746.4166666666666,288.8250395757498L746.4166666666666,288.8696393273671L748.7133333333334,288.940820129527L748.7133333333334,289.02452234945696L751.0100000000001,289.09423381318027L751.0100000000001,289.173738068494L753.3066666666666,289.2172542735906L753.3066666666666,289.2918876342372L755.6033333333334,289.3405791868167L755.6033333333334,289.41677588480104L755.6033333333334,289.4560475855999L757.9000000000001,289.51977976750896L757.9000000000001,289.5568171000092L757.9000000000001,289.6327716788679L762.4933333333333,289.6948624179512L762.4933333333333,289.768780992493L762.4933333333333,289.83407450639623L762.4933333333333,289.908678318811L764.7900000000001,289.97901511352194L767.0866666666666,290.0115797242693L769.3833333333333,290.0141552305652L769.3833333333333,290.07097509474437L769.3833333333333,290.1475068362177L769.3833333333333,290.19638183663733L769.3833333333333,290.25052339957244L771.6800000000001,290.31332934332215L773.9766666666667,290.3514444590918L773.9766666666667,290.40621118392374L776.2733333333333,290.4752144960259L776.2733333333333,290.5497550715573L780.8666666666667,290.5977376274714L780.8666666666667,290.67462808290804L780.8666666666667,290.7170539166131L783.1633333333334,290.772695683932L785.4599999999999,290.79616243372675L785.4599999999999,290.83819983435603L787.7566666666667,290.8909208153995L790.0533333333334,290.9631577240709L790.0533333333334,291.00523544690765L792.3499999999999,291.05862455702635L794.6466666666666,291.1238141165397L796.9433333333334,291.15916851814893L796.9433333333334,291.22910942208136L799.2399999999999,291.23251245385603L799.2399999999999,291.25962765893166L799.2399999999999,291.306018405212L799.2399999999999,291.3717932559741L801.5366666666666,291.39609291386176L801.5366666666666,291.44096402584285L803.8333333333334,291.5041224178083L806.13,291.5651088930684L806.13,291.61608873804903L806.13,291.6580691851127L806.13,291.6819619662991L806.13,291.63466472615903L806.13,291.69141169059594L806.13,291.74659834643296L808.4266666666666,291.7921366411116L808.4266666666666,291.85542748800503L810.7233333333334,291.917418560029L813.02,291.94668201199966L813.02,291.9954331737348L815.3166666666667,292.07234404753706L817.6133333333333,292.09179149114516L817.6133333333333,292.1514108600577L817.6133333333333,292.2141787284374L819.91,292.2212451020071L819.91,292.2396948302238L819.91,292.30520859962616L819.91,292.35575070439074L822.2066666666667,292.38699856238685L822.2066666666667,292.43621941197273L822.2066666666667,292.475100510534L824.5033333333334,292.534103334253L824.5033333333334,292.5916831280474L824.5033333333334,292.59447036980663L824.5033333333334,292.66397158232564L829.0966666666667,292.69898590656936L829.0966666666667,292.7449718431593L829.0966666666667,292.8043758343153L829.0966666666667,292.83355233051446L831.3933333333334,292.8842730700163L831.3933333333334,292.8855107169092L833.6899999999999,292.9342105249735L833.6899999999999,292.981724232061L840.5799999999999,293.0355545979285L845.1733333333333,293.07971262350776L847.47,293.1175574317238L849.7666666666667,293.1142158249371L852.0633333333333,293.1673759690125L852.0633333333333,293.2149539785428L854.36,293.19147766182334L856.6566666666668,293.24436487553976L858.9533333333333,293.2837833393352L858.9533333333333,293.285071758994L858.9533333333333,293.34652182875124L858.9533333333333,293.39008935488073L863.5466666666667,293.32067414667085L863.5466666666667,293.32975887664054L865.8433333333332,293.2816283625216L865.8433333333332,293.2922498917924L868.14,293.25602622829365L868.14,293.25693608173526L868.14,293.2626364158316L868.14,293.25323983308795L870.4366666666667,293.2681357488589L870.4366666666667,293.2715367835081L875.03,293.2838966103799L877.3266666666667,293.3063424090916L877.3266666666667,293.32350661021394L879.6233333333333,293.3605770731185L879.6233333333333,293.39210359233994L879.6233333333333,293.4383001318916L881.9200000000001,293.449349934852L881.9200000000001,293.4256573108267L886.5133333333333,293.4038045197704L888.8100000000001,293.4233440619563L888.8100000000001,293.41609876282416L891.1066666666666,293.4258375942667L893.4033333333333,293.43614250620544L895.7,293.4676975000634L897.9966666666666,293.5015130417628L900.2933333333333,293.53276235243027L902.59,293.56052076060064L902.59,293.6078204977103L902.59,293.63465877800473L902.59,293.65213570519575L904.8866666666667,293.6959630696085L904.8866666666667,293.7317449640587L904.8866666666667,293.7552867372027L907.1833333333333,293.7639964564376L907.1833333333333,293.80208614962237L909.48,293.80756819173575L909.48,293.8101533712233L911.7766666666666,293.8036007721759L911.7766666666666,293.8363554716154L914.0733333333334,293.87046626214067L918.6666666666666,293.92230671164197L920.9633333333334,293.96724777800137L923.2600000000001,294.01126156640737L923.2600000000001,294.0424894149671L923.2600000000001,294.09718727766074L925.5566666666666,294.12384713973177L925.5566666666666,294.16247027950135L925.5566666666666,294.22266957873785L927.8533333333334,294.2365590875123L930.1500000000001,294.2663206898773L930.1500000000001,294.31088625850225L930.1500000000001,294.3610670789844L937.0400000000001,294.3514375781452L937.0400000000001,294.3679955084623L937.0400000000001,294.3512285962982L937.0400000000001,294.3802926403591L939.3366666666666,294.42850617010856L939.3366666666666,294.4677235418001L939.3366666666666,294.45224512709683L943.9300000000001,294.4945770519312L943.9300000000001,294.5299268578801L943.9300000000001,294.58275253680546L946.2266666666667,294.6216117849793L946.2266666666667,294.674817433851L948.5233333333333,294.7010459930054L948.5233333333333,294.66139797411154L950.8199999999999,294.7056352654297L953.1166666666667,294.74625440570804L953.1166666666667,294.7743047775377L960.0066666666667,294.80913500306616L964.5999999999999,294.85956812558294L964.5999999999999,294.8858652399378L969.1933333333334,294.9185439432L969.1933333333334,294.93235571368507L969.1933333333334,294.9697263037227L971.4899999999999,294.94037773028606L973.7866666666666,294.9799768550738L973.7866666666666,294.96672771668614L976.0833333333334,294.98148772505937L976.0833333333334,295.0159362379282L976.0833333333334,295.02394177941403L976.0833333333334,295.061994154793L978.38,295.06681794603287L978.38,295.09938915064345L978.38,295.11115149195837L980.6766666666666,295.13270462460855L980.6766666666666,295.11982586405406L980.6766666666666,295.13396282670385L980.6766666666666,295.1460159152565L982.9733333333334,295.17731586349663L982.9733333333334,295.1961409042395L985.27,295.2311844494515L985.27,295.26986416903526L987.5666666666667,295.28090007282816L992.16,295.29234023523367L992.16,295.31343581429155L992.16,295.3010994020764L992.16,295.32660974286335L996.7533333333334,295.3490500029535L996.7533333333334,295.40671471605197L996.7533333333334,295.4270506391847L996.7533333333334,295.45305690801365L996.7533333333334,295.4640360973811L999.05,295.49558371947L999.05,295.5363211135525L999.05,295.553707665386L999.05,295.59551000432447L999.05,295.6333034710045L1001.3466666666667,295.67315842828566L1001.3466666666667,295.7153169294193L1001.3466666666667,295.75795098498696L1003.6433333333334,295.78717356868543L1003.6433333333334,295.82380576979364L1005.9399999999999,295.8239984223269L1008.2366666666667,295.8459953369347L1008.2366666666667,295.88044751268626L1010.5333333333333,295.91755038421223L1010.5333333333333,295.9540981719167L1010.5333333333333,295.9736940149003L1012.8299999999999,296.003168981715L1015.1266666666667,296.0339348465019L1015.1266666666667,296.05206667239685L1017.4233333333333,296.0568930543934L1019.72,296.0357311148532L1019.72,296.06495549517905L1022.0166666666667,296.0826398435744L1024.3133333333333,296.1116791249762L1024.3133333333333,296.1252402303195L1026.61,296.17751039703734L1026.61,296.2123519881654L1028.9066666666668,296.2588385447672L1028.9066666666668,296.2987338956349L1028.9066666666668,296.3365678037604L1033.5,296.3832911495987L1035.7966666666666,296.4267111957638L1038.0933333333332,296.40772254641274L1040.39,296.4495791154085L1042.6866666666667,296.4463707215117L1044.9833333333333,296.44706072793997L1044.9833333333333,296.4235945309658L1047.28,296.40171827306807L1047.28,296.4360443393093L1049.5766666666668,296.40954847780966L1049.5766666666668,296.427267157693L1049.5766666666668,296.422797649058L1049.5766666666668,296.4093291399872L1051.8733333333332,296.4093020174875L1051.8733333333332,296.42450934429723L1054.17,296.45253735104336L1054.17,296.45752033672915L1054.17,296.467524590533L1056.4666666666667,296.4792224476049L1058.7633333333333,296.4671281486236L1058.7633333333333,296.48278003856706L1058.7633333333333,296.473827142933L1061.06,296.486719545154L1063.3566666666666,296.5220682620452L1063.3566666666666,296.540822608158L1063.3566666666666,296.563202141338L1065.6533333333334,296.59915317166065L1065.6533333333334,296.6208566362211L1065.6533333333334,296.64905374621935L1065.6533333333334,296.69288262469917L1067.95,296.7280359237287L1067.95,296.7256251779542L1070.2466666666667,296.7444981028808L1070.2466666666667,296.73647722957577L1070.2466666666667,296.7785993905276L1072.5433333333333,296.7947188410161L1074.8400000000001,296.8333326177536L1074.8400000000001,296.877705947871L1077.1366666666665,296.90998582658017L1077.1366666666665,296.9527532625058L1077.1366666666665,296.9831621253569L1079.4333333333334,297.0230394584508L1079.4333333333334,297.05384801312726L1081.73,297.05947933885113L1084.0266666666666,297.0847964198804L1084.0266666666666,297.10490047713375L1084.0266666666666,297.1182634310321L1088.6200000000001,297.1450265025269L1088.6200000000001,297.18207561094334L1090.9166666666665,297.2129291425789L1090.9166666666665,297.23565375698035L1090.9166666666665,297.2118983171532L1093.2133333333334,297.25165534314675L1093.2133333333334,297.2866418043756L1093.2133333333334,297.32217793673175L1095.51,297.35352057288696L1095.51,297.39556697155336L1095.51,297.39542622184456L1097.8066666666666,297.4310418842569L1097.8066666666666,297.44934317927095L1097.8066666666666,297.4922061111547L1100.1033333333332,297.51817822865314L1104.6966666666667,297.55409575697945L1106.9933333333333,297.58739753496496L1106.9933333333333,297.6270460371799L1106.9933333333333,297.66797294762455L1106.9933333333333,297.7076639643808L1106.9933333333333,297.7223527763718L1109.29,297.7666498384395L1111.5866666666666,297.80773002476155L1111.5866666666666,297.84798860434853L1113.8833333333334,297.87404601715303L1116.18,297.9144649179152L1116.18,297.95202368747096L1116.18,297.99046404470175L1118.4766666666667,298.01721382233126L1118.4766666666667,298.05763604021905L1118.4766666666667,298.0830094234588L1120.7733333333333,298.1131759191504L1120.7733333333333,298.1400223811619L1120.7733333333333,298.1813340369755L1120.7733333333333,298.2271332648148L1123.07,298.2355689515941L1123.07,298.26082080187734L1123.07,298.2919796945117L1123.07,298.29492800607795L1125.3666666666666,298.3306886549808L1125.3666666666666,298.37356070675054L1125.3666666666666,298.39168006582736L1125.3666666666666,298.4303250605849L1125.3666666666666,298.4717243328878L1127.6633333333334,298.50565594976393L1129.96,298.53151285839766L1129.96,298.58126546900223L1132.2566666666667,298.62393494771624L1132.2566666666667,298.6551678647859L1132.2566666666667,298.69539321657834L1134.5533333333333,298.7454203617318L1134.5533333333333,298.7551066384549L1134.5533333333333,298.7968256632204L1136.85,298.8254084121715L1136.85,298.85411685591964L1139.1466666666668,298.8973331134838L1139.1466666666668,298.92309246087694L1139.1466666666668,298.9678110374246L1139.1466666666668,299.00680146931927L1141.4433333333334,299.0199108688285L1143.74,299.06962890474074L1143.74,299.10577841054936L1143.74,299.14297942266523L1146.0366666666666,299.1833863020689L1148.3333333333335,299.2216690652342L1148.3333333333335,299.25407843350837L1152.9266666666667,299.2754047480802L1152.9266666666667,299.31051813921465L1155.2233333333334,299.3070658627238L1155.2233333333334,299.33667633634354L1155.2233333333334,299.34067706047836L1157.52,299.36156745131177L1159.8166666666666,299.3911793611318L1162.1133333333335,299.4374733631337L1164.4099999999999,299.4714445130627L1164.4099999999999,299.4913195344177L1166.7066666666667,299.49506429383746L1166.7066666666667,299.52410140910644L1166.7066666666667,299.5512606344036L1169.0033333333333,299.5867702330461L1169.0033333333333,299.6022120769185L1169.0033333333333,299.6265205309452L1169.0033333333333,299.6610306842742L1171.3,299.697761682476L1173.5966666666666,299.7151782524968L1173.5966666666666,299.7494506384054L1175.8933333333334,299.76650819033523L1175.8933333333334,299.7859350005147L1178.19,299.8170406111119L1178.19,299.8329775681742L1180.4866666666667,299.86554801352065L1182.7833333333333,299.9027865045458L1182.7833333333333,299.92060238640926L1185.08,299.936192663296L1187.3766666666668,299.95019413260343L1189.6733333333332,299.95781442842116L1189.6733333333332,299.98619094059194L1189.6733333333332,300.0211464522283L1191.97,300.0406650785574L1191.97,300.05379738321L1194.2666666666667,300.0542991807405L1196.5633333333333,300.0705632334008L1196.5633333333333,300.0821699496023L1196.5633333333333,300.1084321803981L1198.86,300.0941019946241L1198.86,300.10854222947034L1198.86,300.129630997291L1205.75,300.0953143753825L1205.75,300.1217056404521L1205.75,300.1526003743166L1205.75,300.15848875952724L1205.75,300.16762620642214L1208.0466666666666,300.19534353493395L1208.0466666666666,300.20771985584554L1210.3433333333332,300.2130648695348L1210.3433333333332,300.2524390728432L1212.64,300.247079329552L1212.64,300.2587866776824L1219.53,300.1748615130755L1219.53,300.1755907572132L1221.8266666666668,300.1965118618809L1221.8266666666668,300.1967776370597L1224.1233333333332,300.18854162259254L1224.1233333333332,300.17900992527603L1226.42,300.1933353618277L1231.0133333333333,300.2091265264192L1231.0133333333333,300.2139272668105L1235.6066666666666,300.24146268685365L1235.6066666666666,300.2611206808216L1235.6066666666666,300.28124153546423L1237.9033333333334,300.2991623134377L1237.9033333333334,300.2978735759524L1240.2,300.3176942007886L1240.2,300.3482834171729L1242.4966666666667,300.3600597304149L1244.7933333333333,300.39036753557457L1244.7933333333333,300.40864780890274L1244.7933333333333,300.41692578280436L1244.7933333333333,300.4388697127598L1249.3866666666665,300.46332707160155L1249.3866666666665,300.4579458935461L1249.3866666666665,300.48439138056915L1251.6833333333334,300.4906913031829L1251.6833333333334,300.4995275704162L1251.6833333333334,300.50221249433207L1253.98,300.51605585188776L1253.98,300.5282453190802L1253.98,300.52995953710416L1256.2766666666666,300.5530529275162L1256.2766666666666,300.5439699527828L1258.5733333333333,300.55263099106475L1263.1666666666665,300.5112274944523L1263.1666666666665,300.53507088881867L1263.1666666666665,300.5372441590132" style="fill: none;" fill="none"></path></g></g></g></g><g opacity="0.2"><g><g><g><path stroke="rgb(255, 112, 67)" stroke-width="2px" d="M121.72333333333333,-109.70773871541024L124.02,17.63814468383788L124.02,9.294375818967808L124.02,-79.32559411525727L126.31666666666666,-89.34586163163186L128.61333333333334,15.08974168896674L128.61333333333334,-112.9775137782097L133.20666666666668,-11.79816718697549L133.20666666666668,1.5658319413661843L135.50333333333333,-6.048369365930569L135.50333333333333,-16.023688423633587L137.8,151.48807850182052L137.8,115.38991783261298L137.8,138.6859210252762L140.09666666666666,76.0941502869129L142.39333333333335,189.03146166801451L142.39333333333335,95.36982927918433L142.39333333333335,117.89945561885833L142.39333333333335,131.25862475931646L142.39333333333335,173.9111353129148L144.69,130.36778066754343L144.69,168.47186487615105L144.69,229.70138188898562L146.98666666666668,234.1963052049279L146.98666666666668,212.52014335691928L146.98666666666668,170.81909817159172L146.98666666666668,148.95472873449322L149.28333333333333,189.7713510364294L149.28333333333333,142.889291909337L151.58,219.7113757252693L151.58,211.20778073072432L156.17333333333332,215.86911332309245L156.17333333333332,197.59548079669474L156.17333333333332,206.392874237895L158.47,153.1791516065597L158.47,147.79344756603237L158.47,151.92243945300575L158.47,226.13487236648797L160.76666666666668,170.08361634314056L165.35999999999999,268.14997237622737L165.35999999999999,271.8598466411233L169.95333333333335,261.4608968093991L172.25,302.8802959665656L172.25,275.83151892274617L172.25,282.03419147506355L174.54666666666668,306.842357558012L176.84333333333333,293.66728418022393L179.14000000000001,294.93746186122297L181.43666666666664,288.1593377932906L181.43666666666664,306.22008121088146L181.43666666666664,307.88826115876435L190.62333333333333,317.45719411857425L190.62333333333333,296.2361371748149L190.62333333333333,275.9458262890577L190.62333333333333,306.29173541888593L192.92000000000002,295.6220563173294L192.92000000000002,302.845514421165L192.92000000000002,300.8852504611015L192.92000000000002,252.61107054054736L195.21666666666667,309.3414890438318L195.21666666666667,260.3713402569294L195.21666666666667,298.33631588593124L195.21666666666667,298.7104568861425L197.51333333333335,310.35650114044546L197.51333333333335,299.6864876009524L199.80999999999997,296.3767454445362L199.80999999999997,267.7076342001557L204.40333333333334,311.148390327394L204.40333333333334,314.5669744301587L204.40333333333334,291.2267215780914L204.40333333333334,296.88943528085946L204.40333333333334,305.50020179226993L206.7,317.2201163459569L206.7,279.48392618894576L206.7,313.55289171896874L206.7,293.4394544966519L208.99666666666667,319.73929474577307L208.99666666666667,303.8855283938348L211.29333333333332,309.7885128714144L213.59,303.72426594123243L213.59,321.89787160120903L218.18333333333334,309.9961143404245L218.18333333333334,296.1466275013983L220.48000000000002,308.28047940954565L222.77666666666664,308.0314287588L225.07333333333332,312.9489900961518L225.07333333333332,317.2312865730375L225.07333333333332,304.1621050469577L227.37,304.0576195947826L227.37,312.0510048743337L229.66666666666666,306.23541607037185L229.66666666666666,313.75408958159386L229.66666666666666,300.14922649115323L231.96333333333334,308.91758367866277L231.96333333333334,316.44502826482056L231.96333333333334,311.0433521725237L231.96333333333334,315.6242172371596L234.26000000000002,298.1753350652754L234.26000000000002,314.6943829625845L236.55666666666667,317.2118962135166L238.85333333333335,279.88566711992024L238.85333333333335,303.7815850831568L241.14999999999998,316.38102740496396L241.14999999999998,269.61557094454764L241.14999999999998,300.2991145335138L241.14999999999998,311.51615412421523L241.14999999999998,320.58483657874166L241.14999999999998,309.8679049171507L243.44666666666666,313.19717120826243L243.44666666666666,321.1117224253714L243.44666666666666,311.8165233962238L243.44666666666666,319.7923066791147L243.44666666666666,300.7843170918524L243.44666666666666,307.5447335511446L243.44666666666666,318.97002764493226L245.74333333333334,292.40282714813947L245.74333333333334,312.45204876624047L245.74333333333334,313.01816418282687L250.33666666666667,311.20097629241644L252.63333333333333,282.68714458197354L252.63333333333333,300.04266048297285L254.93,317.2362274535L254.93,309.5838967010379L254.93,314.8838983800262L257.2266666666667,321.90014577917754L257.2266666666667,304.5130043707788L259.5233333333333,313.72399016730486L259.5233333333333,313.60190447866916L261.82,323.1909371584654L261.82,307.35550856664776L261.82,320.900327726081L264.1166666666667,316.22256895042955L266.41333333333336,319.33204791024326L266.41333333333336,322.6634898081422L268.71000000000004,320.3591930631548L268.71000000000004,322.38733384273945L268.71000000000004,312.9395360637456L268.71000000000004,316.53180962875484L271.00666666666666,311.4526214774698L271.00666666666666,301.9494038119912L275.6,295.09219749346374L275.6,305.78561112731694L280.1933333333333,317.8283410191536L280.1933333333333,304.7310719870031L280.1933333333333,313.1274585004896L282.49,313.35837557427584L282.49,317.45840161554514L282.49,327.0349791225046L282.49,317.86695275902747L282.49,301.85929567068814L284.7866666666667,319.07087476439773L284.7866666666667,324.2539428591728L287.08333333333337,315.49389557428657L287.08333333333337,298.32807815149425L287.08333333333337,299.687469792366L291.6766666666667,323.08326398469507L291.6766666666667,303.8525176092982L293.97333333333336,310.92925955057143L296.27,312.07742371112107L296.27,327.71666572876273L298.56666666666666,316.03545092493295L300.86333333333334,310.46327837258576L303.16,320.02325015589594L305.4566666666667,319.43648935742675L307.75333333333333,322.89793960265814L307.75333333333333,316.31361703835427L307.75333333333333,312.80340926237403L310.05,315.80015271417795L312.34666666666664,295.52474543899297L312.34666666666664,312.2504425372928L314.6433333333333,314.0109713606536L314.6433333333333,313.94018141068517L314.6433333333333,303.72595925331115L316.94,311.6060035161674L316.94,312.92039741277694L316.94,313.7945125669241L319.2366666666667,307.43033817484974L319.2366666666667,312.6987953156233L321.53333333333336,314.43223642632364L323.83,269.98124890476464L326.12666666666667,306.07249198928474L326.12666666666667,319.97835450321435L328.42333333333335,316.47777501940726L328.42333333333335,283.74636937379836L328.42333333333335,310.0711270093918L330.71999999999997,308.030590903759L330.71999999999997,308.39045316427945L333.01666666666665,321.5669927883893L333.01666666666665,322.205264069885L337.61,307.93091783747076L337.61,286.8331294365227L337.61,307.1262742437422L339.9066666666667,301.73534945100545L339.9066666666667,308.61091817244886L339.9066666666667,314.4619996424764L339.9066666666667,313.5386569842696L342.2033333333333,305.11949876770376L342.2033333333333,305.3251921802759L344.5,293.9123180553317L344.5,305.5703844733536L346.7966666666666,288.5844788186252L346.7966666666666,301.05949262604116L351.39,321.30967976041137L351.39,319.5860500026494L355.98333333333335,303.98853879868983L355.98333333333335,294.89005968421696L355.98333333333335,307.9670230530202L358.28000000000003,312.54621240757405L360.57666666666665,308.10586760267614L362.8733333333333,256.78290568739175L362.8733333333333,309.689283375442L362.8733333333333,317.75056659691035L367.46666666666664,298.4327642664313L367.46666666666664,318.6609418641776L369.7633333333333,316.12102831229566L369.7633333333333,294.6517708942294L374.3566666666667,301.69024609476327L374.3566666666667,312.9580463234335L374.3566666666667,303.40911275222896L376.6533333333333,305.2585862249136L376.6533333333333,316.0862379658967L378.95000000000005,307.82674218043684L378.95000000000005,291.1104463085532L378.95000000000005,312.54311445616185L381.24666666666667,284.1689229056239L381.24666666666667,297.04633595868944L383.5433333333333,295.5558587282896L383.5433333333333,316.1300035703927L385.84000000000003,309.38423725292085L388.13666666666666,317.25900971777736L388.13666666666666,313.38054352886974L388.13666666666666,308.2632505752146L388.13666666666666,308.92314238920807L388.13666666666666,308.36137466579675L388.13666666666666,293.740959097445L388.13666666666666,280.15237961411475L388.13666666666666,287.41986735239624L390.43333333333334,235.84889330416917L390.43333333333334,306.86812336072325L392.72999999999996,306.53272083476185L395.0266666666667,303.3314492225647L395.0266666666667,292.86837179660796L399.61999999999995,264.40119769871234L404.2133333333333,267.5588691651821L404.2133333333333,322.4225061524659L404.2133333333333,305.56292826756834L404.2133333333333,300.2585595332086L406.51,301.0356031961739L406.51,293.5115100301802L406.51,286.5846842944622L406.51,309.02003081962465L408.8066666666667,306.52072331383823L411.10333333333335,307.80867197066544L413.4,308.56787424981593L413.4,265.41510791033505L413.4,304.1555641449988L413.4,273.22648678421973L413.4,294.6632157124579L413.4,316.80202492028474L415.6966666666667,248.43765121400355L417.99333333333334,237.4018188983202L417.99333333333334,287.2619175955653L417.99333333333334,315.2432871468365L420.28999999999996,280.22090770751237L420.28999999999996,288.87105692625045L420.28999999999996,277.58412860780953L420.28999999999996,292.35383023023604L420.28999999999996,293.08296829909085L420.28999999999996,245.2882315635681L422.58666666666664,267.70335339456796L422.58666666666664,306.810381770879L427.18,291.97417980507015L427.18,311.6135195687413L429.47666666666663,310.2337905809283L429.47666666666663,311.1944512322545L434.07,303.47049795538186L434.07,312.97129534631966L436.3666666666667,304.8541979536414L438.66333333333336,315.0695677611977L438.66333333333336,302.23031407669185L438.66333333333336,306.6244237169623L440.96000000000004,314.12099616117774L443.25666666666666,307.12526740953325L443.25666666666666,311.26055905111133L443.25666666666666,302.9760789915919L445.5533333333333,308.1863298498094L445.5533333333333,315.508281686157L447.85,307.3841329336166L450.14666666666665,320.7332161299884L450.14666666666665,285.12807682603597L452.4433333333333,296.74205376282333L452.4433333333333,308.94969324097036L454.74,300.28383248001336L454.74,298.7035357810557L457.0366666666667,323.82653645686804L459.3333333333333,321.53865357376634L461.63000000000005,305.24283947870134L461.63000000000005,301.63142726272343L463.9266666666667,310.65932941138743L466.2233333333333,314.49746942594646L466.2233333333333,324.6899390358478L466.2233333333333,314.2781925525516L468.52000000000004,301.61082236543297L468.52000000000004,284.0579282350838L470.81666666666666,322.6747462850064L473.11333333333334,309.9002186626196L473.11333333333334,321.5175699021667L475.40999999999997,314.86341141611337L475.40999999999997,293.86530664265155L475.40999999999997,321.74835320077835L475.40999999999997,306.80640724003314L480.00333333333333,319.2441734623164L480.00333333333333,315.78274609968065L480.00333333333333,317.85341154299675L482.29999999999995,310.2060322321951L484.5966666666667,290.4437566034496L484.5966666666667,313.66383886411785L486.8933333333333,308.98320744261144L486.8933333333333,327.28653365727513L489.19,309.27215477898716L491.4866666666667,318.94110932461916L491.4866666666667,316.2045057814568L493.78333333333336,298.60598199516534L496.08,305.1072442576289L496.08,321.2684030782431L496.08,313.6450399316847L496.08,320.36566707752644L496.08,317.53119819313287L498.3766666666667,312.8399087626487L498.3766666666667,275.71973920315503L498.3766666666667,295.67570368275045L500.67333333333335,310.9937479857355L500.67333333333335,270.00628598481416L502.96999999999997,316.487663821131L502.96999999999997,311.6270044583827L502.96999999999997,308.038765271008L505.26666666666665,297.4399905323982L505.26666666666665,312.27687897607683L505.26666666666665,301.4907802686095L505.26666666666665,317.0992962408811L505.26666666666665,276.69450961500405L507.56333333333333,304.0514940999448L509.86,302.0832564353943L509.86,307.64222396984695L512.1566666666666,286.794975348562L512.1566666666666,310.51827053055166L512.1566666666666,315.5343396820128L514.4533333333334,310.9359799928963L514.4533333333334,305.08800175487994L514.4533333333334,325.3252250187099L514.4533333333334,299.86138103976845L516.75,295.74434090852736L516.75,308.09503885433077L516.75,309.4064333707094L516.75,319.9230578307062L519.0466666666666,316.45570563599466L523.64,320.1013871792704L525.9366666666666,302.80327314957975L528.2333333333333,310.404269438982L528.2333333333333,306.585234631598L528.2333333333333,313.37162283696233L530.53,314.89850451685487L530.53,307.87847444862126L532.8266666666667,302.3406574733555L532.8266666666667,296.2749460570514L532.8266666666667,302.98058862313627L535.1233333333333,279.67811141610144L535.1233333333333,307.89617149606346L537.4200000000001,298.67876273095607L537.4200000000001,299.8960358507931L539.7166666666667,322.59358347840606L542.0133333333333,323.8124671809375L542.0133333333333,304.62911418154835L544.3100000000001,294.32797512486576L544.3100000000001,323.52281400449573L544.3100000000001,305.14009310379623L546.6066666666667,307.0306109122932L546.6066666666667,314.5330008164048L546.6066666666667,319.29966903738676L548.9033333333333,293.4365325652063L551.2,313.4576842792332L551.2,321.8846824251115L553.4966666666667,306.0011158928275L553.4966666666667,309.325460665673L555.7933333333333,322.00851775221525L555.7933333333333,277.95013748556374L555.7933333333333,310.2706667639315L558.09,318.1955415520817L558.09,299.78697739988564L560.3866666666667,309.4620838433504L560.3866666666667,304.51447237730025L560.3866666666667,305.44781472980975L562.6833333333333,309.3175960935652L562.6833333333333,307.3285141445696L564.98,317.68535295948385L564.98,320.20823305919765L569.5733333333334,314.44249839037656L574.1666666666667,313.5050653338432L574.1666666666667,302.9862916700542L574.1666666666667,300.97016953378915L574.1666666666667,295.552915674448L574.1666666666667,311.1589902497828L576.4633333333334,318.6659461118281L576.4633333333334,299.6853505119681L578.76,318.6910764824599L578.76,322.205327437073L581.0566666666667,311.3492203082889L583.3533333333334,317.3296975761652L583.3533333333334,315.6425162728876L583.3533333333334,311.90520577579736L585.65,310.38647734075784L585.65,322.2118120126426L587.9466666666667,317.09581104554235L587.9466666666667,315.62586654424666L594.8366666666666,310.1788406677544L597.1333333333333,301.4339645437896L597.1333333333333,220.0658376932144L597.1333333333333,310.5877139277756L599.43,306.4962107732892L599.43,303.4622109353542L599.43,316.4722567934543L604.0233333333333,301.26721378862857L604.0233333333333,304.0581476546824L604.0233333333333,309.49262682795523L604.0233333333333,317.17665525600313L604.0233333333333,306.6167985320091L606.32,305.88448858335613L606.32,307.46541543379425L608.6166666666667,320.0766950983554L613.21,284.01255380809306L613.21,310.51231753528117L613.21,312.2505639910698L615.5066666666667,293.9511269375682L617.8033333333333,293.7579767078161L617.8033333333333,311.67851846180855L620.1,314.38774561956524L622.3966666666666,302.90887456834315L622.3966666666666,313.121774815768L622.3966666666666,313.6281842596829L622.3966666666666,301.9400888353586L624.6933333333333,298.5352958969772L624.6933333333333,294.90164531841873L626.99,283.9090470269322L629.2866666666666,262.6860591441393L629.2866666666666,305.71687533035873L629.2866666666666,277.9870101481676L631.5833333333333,312.5721859138459L631.5833333333333,312.58710360601543L631.5833333333333,304.9570957057178L633.88,307.186205521971L633.88,300.9076225988567L636.1766666666666,290.8400866806507L636.1766666666666,298.72988597005605L640.77,317.28088371902703L640.77,315.1159859865904L640.77,308.6830089099705L640.77,294.3681076772511L643.0666666666667,303.8224604398012L643.0666666666667,316.5502195570618L643.0666666666667,301.7278967656195L643.0666666666667,260.9846923917532L645.3633333333333,300.50475514009594L645.3633333333333,316.2482115391642L647.66,307.66924655511974L647.66,312.29921767003833L647.66,304.3289719752967L649.9566666666667,302.1692949950695L649.9566666666667,312.45050155073403L652.2533333333333,304.6239356741309L652.2533333333333,307.4475177235901L654.55,303.66504578366875L654.55,317.5589283786714L656.8466666666667,302.5096190392971L656.8466666666667,315.4382081374526L659.1433333333333,299.27845923677086L659.1433333333333,305.36410667449235L659.1433333333333,299.85866681188344L659.1433333333333,279.4469408735633L661.4399999999999,292.12022709175943L666.0333333333333,313.45642925687133L666.0333333333333,316.82096466869115L668.3299999999999,315.68901370726525L668.3299999999999,320.0000366427004L672.9233333333333,316.3680635344237L675.22,309.09973970130085L675.22,321.0784933760762L675.22,297.90903093740343L675.22,322.60999205969273L677.5166666666667,313.36224449314176L677.5166666666667,294.63276073783635L677.5166666666667,321.75504195950924L679.8133333333334,312.86408862546085L679.8133333333334,298.0448268212378L682.11,322.97157579548656L682.11,319.24996803961693L684.4066666666666,315.45315575301646L684.4066666666666,304.3979330778122L686.7033333333334,315.1014749005437L686.7033333333334,310.99922220669686L686.7033333333334,300.7903440155089L686.7033333333334,317.03886506594716L686.7033333333334,314.70155049562453L686.7033333333334,323.74190605692564L686.7033333333334,320.46531022042035L689,315.6201036505401L691.2966666666667,317.45060921162366L691.2966666666667,319.98814121335744L695.89,319.1964086841792L695.89,317.9106743585318L695.89,279.5676483258605L698.1866666666667,301.352671482414L700.4833333333333,316.4511854432523L702.78,318.73546695783733L702.78,295.514684137702L702.78,308.1989645630121L705.0766666666667,298.2451973900199L707.3733333333333,307.38747731298207L707.3733333333333,306.85661165490745L707.3733333333333,319.21997071690856L707.3733333333333,306.1559219330549L709.6700000000001,315.4085681352764L709.6700000000001,316.3711245216429L709.6700000000001,300.5736599162221L709.6700000000001,301.33795621320604L709.6700000000001,311.5106904644519L711.9666666666667,308.38146558478473L716.5600000000001,307.01095300242304L716.5600000000001,313.15760191977023L716.5600000000001,321.4676559202373L718.8566666666666,299.0823237083852L721.1533333333333,310.71010941155254L721.1533333333333,304.99554902762173L721.1533333333333,308.04520760178565L721.1533333333333,305.8031708791852L721.1533333333333,298.86641057655214L723.45,312.853610156849L723.45,303.66011370420455L723.45,314.9456197813153L725.7466666666666,310.9131378818303L725.7466666666666,299.8781839057803L728.0433333333333,319.78102555945514L728.0433333333333,235.7155124142766L728.0433333333333,309.35254309773444L728.0433333333333,316.8269722301513L730.34,299.0247053325176L732.6366666666667,324.9394262161106L734.9333333333333,308.0193537890911L737.23,307.60554492920636L737.23,312.77989299483596L739.5266666666666,318.72222497574984L739.5266666666666,312.4102123405784L741.8233333333334,326.27477088924496L741.8233333333334,308.6387258067727L744.12,320.2368591863662L744.12,323.7353545937687L744.12,313.3985697336495L746.4166666666666,314.36498095728456L746.4166666666666,312.75716177634894L746.4166666666666,318.15000518672167L746.4166666666666,315.6883377905935L746.4166666666666,308.234904319793L748.7133333333334,319.8878115925938L748.7133333333334,325.4626279648393L751.0100000000001,319.4810347303748L751.0100000000001,323.8739263124764L753.3066666666666,308.2346860550344L753.3066666666666,321.9500668019056L755.6033333333334,310.6744389653206L755.6033333333334,322.844556267187L755.6033333333334,306.70669544935225L757.9000000000001,317.5507117666304L757.9000000000001,305.86742872819303L757.9000000000001,323.12430656030773L762.4933333333333,317.1079036172479L762.4933333333333,322.4450173459947L762.4933333333333,318.73390566073357L762.4933333333333,322.97088755741714L764.7900000000001,321.1893032256514L767.0866666666666,304.4794373631477L769.3833333333333,291.1598339907825L769.3833333333333,315.37800226807593L769.3833333333333,324.2763854049146L769.3833333333333,312.01893051601945L769.3833333333333,314.4544906307012L771.6800000000001,318.42537082247435L773.9766666666667,307.4328482195735L773.9766666666667,314.9802517097443L776.2733333333333,321.4752388603985L776.2733333333333,324.07839638628064L780.8666666666667,312.20683007016777L780.8666666666667,325.3446681842208L780.8666666666667,309.8701896563172L783.1633333333334,315.9226291671395L785.4599999999999,301.41590841561555L785.4599999999999,309.8849612519145L787.7566666666667,314.8070955879986L790.0533333333334,323.77186993584036L790.0533333333334,310.1391094408929L792.3499999999999,315.36514929011463L794.6466666666666,320.83818915747105L796.9433333333334,307.2934368856251L796.9433333333334,323.18516194336115L799.2399999999999,292.7892050564289L799.2399999999999,303.6779691696167L799.2399999999999,312.577355620265L799.2399999999999,321.5667850848287L801.5366666666666,302.5643577285111L801.5366666666666,312.0881926126778L803.8333333333334,320.6001890402287L806.13,319.6934380240738L806.13,315.15655154809355L806.13,311.0655218873173L806.13,302.7403565727174L806.13,269.7185285434127L806.13,318.0166647814214L806.13,317.3775450836867L808.4266666666666,312.9663315832615L808.4266666666666,321.317924535647L810.7233333333334,320.80792956501244L813.02,305.600307867676L813.02,314.76751397810875L815.3166666666667,328.03897324930875L817.6133333333333,301.19653473123907L817.6133333333333,320.09516135305165L817.6133333333333,321.66692460402845L819.91,295.5407632559538L819.91,300.91645176038145L819.91,323.1504384845495L819.91,316.1787082951516L822.2066666666667,307.1321251474321L822.2066666666667,315.6883219487965L822.2066666666667,310.86314293071626L824.5033333333334,320.46935515925287L824.5033333333334,319.8834533382207L824.5033333333334,293.91703539043664L824.5033333333334,325.6792187735438L829.0966666666667,309.3502301953733L829.0966666666667,314.63789463490247L829.0966666666667,321.1164115972817L829.0966666666667,306.75435813590883L831.3933333333334,317.11082378849386L831.3933333333334,293.4773128710687L833.6899999999999,316.2462260339409L833.6899999999999,315.75068934336304L840.5799999999999,318.8594959069043L845.1733333333333,314.28649013377725L847.47,311.3120607331395L849.7666666666667,291.50595261231064L852.0633333333333,318.78004577457904L852.0633333333333,316.1627468045801L854.36,281.8562669724226L856.6566666666668,318.80751369036733L858.9533333333333,312.35710887685417L858.9533333333333,293.90916025713085L858.9533333333333,323.14351033866404L858.9533333333333,314.5382743746042L863.5466666666667,259.59007211476563L863.5466666666667,297.7489196553826L865.8433333333332,269.844432105124L865.8433333333332,298.46985167339443L868.14,275.5798033297062L868.14,293.70138628855346L868.14,296.0500770293176L868.14,288.6535560943186L870.4366666666667,300.5673654422164L870.4366666666667,294.9398275695741L875.03,299.3529790498316L877.3266666666667,304.3393712349236L877.3266666666667,301.7691241621971L879.6233333333333,311.61983164474367L879.6233333333333,308.9366255186498L879.6233333333333,316.23942110203205L881.9200000000001,298.90876098051666L881.9200000000001,281.7078046917915L886.5133333333333,282.5848699405789L888.8100000000001,303.1068759083748L888.8100000000001,289.82177949026226L891.1066666666666,298.2620706640184L893.4033333333333,298.5586643077433L895.7,309.1693696796894L897.9966666666666,310.344982393831L900.2933333333333,309.11364879906176L902.59,307.4147357650101L902.59,317.23875334002076L902.59,307.05645768418907L902.59,302.4010499238968L904.8866666666667,315.65769623480736L904.8866666666667,311.6797382801771L904.8866666666667,305.5754151239991L907.1833333333333,298.1414019361138L907.1833333333333,312.9644393686205L909.48,296.5682199642062L909.48,295.11328116506337L911.7766666666666,290.4973476424813L911.7766666666666,310.379630164057L914.0733333333334,311.1155045170337L918.6666666666666,320.1563247710466L920.9633333333334,316.7319654531777L923.2600000000001,316.3279450636357L923.2600000000001,309.8915725618601L923.2600000000001,321.88489892967044L925.5566666666666,307.6807300977409L925.5566666666666,313.8217780597508L925.5566666666666,324.89381240196525L927.8533333333334,301.3199704930186L930.1500000000001,309.45878170877694L930.1500000000001,317.0821272533387L930.1500000000001,320.02596966437994L937.0400000000001,289.42174947336315L937.0400000000001,302.85266083180903L937.0400000000001,285.7513177625835L937.0400000000001,309.30164868459104L939.3366666666666,319.20453904643654L939.3366666666666,314.6398238137364L939.3366666666666,286.48316653892397L943.9300000000001,316.3097093950957L943.9300000000001,312.76402479484676L943.9300000000001,321.8567603778094L946.2266666666667,314.7034796744585L946.2266666666667,322.1963433779776L948.5233333333333,308.2808490514755L948.5233333333333,274.11460608690976L950.8199999999999,317.6519936554134L953.1166666666667,315.8353479065001L953.1166666666667,309.3512651927769L960.0066666666667,312.9260828576982L964.5999999999999,321.116515449062L964.5999999999999,308.58948598131536L969.1933333333334,311.96327476277946L969.1933333333334,302.1429659284651L969.1933333333334,314.49734093137084L971.4899999999999,279.59060132950543L973.7866666666666,315.7098051857203L973.7866666666666,288.02460859045385L976.0833333333334,302.72226524055003L976.0833333333334,313.09855250157415L976.0833333333334,299.2299833379686L976.0833333333334,315.07240168266L978.38,297.60576261654495L978.38,312.258247262612L978.38,301.3132324486971L980.6766666666666,306.5074690103531L980.6766666666666,288.316931989789L980.6766666666666,302.6081268534064L980.6766666666666,301.52411140948533L982.9733333333334,311.7549181681126L982.9733333333334,305.1754097498953L985.27,313.8244130786508L985.27,315.8104745250195L987.5666666666667,301.146608427912L992.16,301.378264785558L992.16,306.5456899859011L992.16,288.7268719308078L992.16,308.93327761888503L996.7533333333334,307.3286514401436L996.7533333333334,326.21750719361006L996.7533333333334,306.30217340290545L996.7533333333334,309.3726058535278L996.7533333333334,301.3456095613539L999.05,312.4103232331574L999.05,317.39715194776653L999.05,304.89185918569564L999.05,318.0664573095739L999.05,315.9667116075754L1001.3466666666667,317.13404962308704L1001.3466666666667,318.4360235508531L1001.3466666666667,318.7545651242137L1003.6433333333334,311.56313209310173L1003.6433333333334,315.61670294478535L1005.9399999999999,295.92817968204616L1008.2366666666667,307.7514091551304L1008.2366666666667,314.5428068887442L1010.5333333333333,316.0327296562493L1010.5333333333333,315.7850378796458L1010.5333333333333,306.6154009334743L1012.8299999999999,312.02326588779687L1015.1266666666667,312.76966799497603L1015.1266666666667,305.92350164875387L1017.4233333333333,298.68669419065117L1019.72,284.4953941784799L1019.72,312.01527810171245L1022.0166666666667,305.7425636842847L1024.3133333333333,311.9872856464237L1024.3133333333333,303.54515154361724L1026.61,324.80056758485733L1026.61,315.3072774454951L1028.9066666666668,321.7567475929856L1028.9066666666668,318.199334782362L1028.9066666666668,317.12256432026624L1033.5,322.0741626385599L1035.7966666666666,320.3207626238465L1038.0933333333332,285.9497485913336L1040.39,319.52079236023127L1042.6866666666667,294.6764770567417L1044.9833333333333,296.8280078329146L1044.9833333333333,283.4576050981879L1047.28,284.30446532070636L1047.28,315.43317044600843L1049.5766666666668,281.7340985544026L1049.5766666666668,306.24912450537084L1049.5766666666668,293.9432623654604L1049.5766666666668,288.93146345838903L1051.8733333333332,296.3942312680185L1051.8733333333332,304.8812768653035L1054.17,312.0512759450823L1054.17,299.2329615958035L1054.17,302.0441518396139L1056.4666666666667,303.00507300049065L1058.7633333333333,289.71478047296404L1058.7633333333333,305.228257984668L1058.7633333333333,291.4674640864134L1061.06,303.70168257951735L1063.3566666666666,316.319768936187L1063.3566666666666,307.0527718260884L1063.3566666666666,309.11690868884324L1065.6533333333334,316.78148339018225L1065.6533333333334,308.81433036625384L1065.6533333333334,312.50312447994946L1065.6533333333334,321.35519324317573L1067.95,316.5239749800414L1067.95,295.36700690612196L1070.2466666666667,307.3888854727149L1070.2466666666667,292.2091911032796L1070.2466666666667,320.5722546715289L1072.5433333333333,305.90715291425585L1074.8400000000001,318.67870755940675L1074.8400000000001,322.0007183074951L1077.1366666666665,315.19997567385434L1077.1366666666665,321.2035538021475L1077.1366666666665,314.23930622152983L1079.4333333333334,319.6694729056209L1079.4333333333334,314.56338186264037L1081.73,300.26237564608454L1084.0266666666666,311.4951373402029L1084.0266666666666,308.55665825754403L1084.0266666666666,304.735863250494L1088.6200000000001,312.4128913644701L1088.6200000000001,318.3338210776448L1090.9166666666665,314.8407594066113L1090.9166666666665,310.2288338586688L1090.9166666666665,283.6191773459315L1093.2133333333334,320.0173570074141L1093.2133333333334,317.3355361584574L1093.2133333333334,317.7011965166777L1095.51,315.3410187128931L1095.51,321.5438144791871L1095.51,297.31453054100274L1097.8066666666666,317.91619962528347L1097.8066666666666,307.98350556269287L1097.8066666666666,322.18211040347813L1100.1033333333332,312.4896219883114L1104.6966666666667,318.27367857545613L1106.9933333333333,316.8121020633727L1106.9933333333333,320.5323562256992L1106.9933333333333,321.3290736403316L1106.9933333333333,320.6709613882005L1106.9933333333333,306.2267629288137L1109.29,323.43201234452425L1111.5866666666666,321.6264980982989L1111.5866666666666,321.20725550204514L1113.8833333333334,313.00427092686294L1116.18,321.40059055276214L1116.18,319.79191591478883L1116.18,320.35903640538453L1118.4766666666667,313.5941560797393L1118.4766666666667,321.6131628256291L1118.4766666666667,312.87958366312085L1120.7733333333333,315.71741452887653L1120.7733333333333,313.8179443448782L1120.7733333333333,322.3238522417843L1120.7733333333333,325.011175474897L1123.07,303.1723729379475L1123.07,313.0493707627058L1123.07,316.55282289236783L1123.07,300.02401996850966L1125.3666666666666,319.31793638952075L1125.3666666666666,323.5520245179534L1125.3666666666666,309.04051602333783L1125.3666666666666,321.1580720029771L1125.3666666666666,322.83631677255033L1127.6633333333334,318.48925902955233L1129.96,313.7702200513333L1129.96,327.9232286799699L1132.2566666666667,323.80603189095854L1132.2566666666667,317.1005583040416L1132.2566666666667,322.46792282424866L1134.5533333333333,328.3310625420883L1134.5533333333333,304.48743923082947L1134.5533333333333,323.50310680903493L1136.85,315.7639278050512L1136.85,315.8787913944572L1139.1466666666668,324.5429729249328L1139.1466666666668,314.21979968883096L1139.1466666666668,325.54122087992727L1139.1466666666668,322.1921206589788L1141.4433333333334,306.82060149013995L1143.74,328.6742117067799L1143.74,320.64557402841746L1143.74,321.32431582063435L1146.0366666666666,323.29251476079224L1148.3333333333335,322.0788271676749L1148.3333333333335,318.6174860548228L1152.9266666666667,312.025657999143L1152.9266666666667,320.3176646724343L1155.2233333333334,297.24030292108654L1155.2233333333334,317.0753346428275L1155.2233333333334,301.7389789827168L1157.52,311.8930128727108L1159.8166666666666,317.1661908689886L1162.1133333333335,327.2446303440258L1164.4099999999999,319.8902353875339L1164.4099999999999,311.4453624140471L1166.7066666666667,301.7488783456385L1166.7066666666667,317.01185832247137L1166.7066666666667,315.9188236154616L1169.0033333333333,321.00077704042195L1169.0033333333333,308.92050561010836L1169.0033333333333,314.3049352660775L1169.0033333333333,320.5132756613195L1171.3,321.90641913078724L1173.5966666666666,310.25262471735476L1173.5966666666666,320.4985762339085L1175.8933333333334,310.1001738242805L1175.8933333333334,311.5625635486096L1178.19,318.68563394509255L1178.19,309.5065535277128L1180.4866666666667,319.6482554588467L1182.7833333333333,322.53536487445234L1182.7833333333333,310.7555982515216L1185.08,309.4237466946244L1187.3766666666668,308.47633682638406L1189.6733333333332,304.6011375680566L1189.6733333333332,317.28808821626006L1189.6733333333332,321.34803803153335L1191.97,311.95686763599514L1191.97,308.0762258403003L1194.2666666666667,300.36103835776447L1196.5633333333333,310.0187716305256L1196.5633333333333,307.18612807318567L1196.5633333333333,316.1925452247262L1198.86,291.3121440678835L1198.86,308.9635178491473L1198.86,313.0697257116437L1205.75,279.02536601275204L1205.75,316.3357515491545L1205.75,319.1453329704702L1205.75,303.7806732997298L1205.75,305.7919478461146L1208.0466666666666,317.2666648261249L1208.0466666666666,307.83513481244444L1210.3433333333332,303.5091941848397L1210.3433333333332,324.5485281150788L1212.64,296.93777036368846L1212.64,307.49181490838527L1219.53,248.2922657623887L1219.53,300.6266876913607L1221.8266666666668,313.1458789899945L1221.8266666666668,300.361383356899L1224.1233333333332,295.0845054209232L1224.1233333333332,294.2683958865702L1226.42,309.0819792866707L1231.0133333333333,310.0132023587823L1231.0133333333333,303.1963222146034L1235.6066666666666,317.35787133201956L1235.6066666666666,312.4882279101759L1235.6066666666666,312.8038299500942L1237.9033333333334,311.4592415884137L1237.9033333333334,299.49483354091643L1240.2,312.675801827386L1240.2,319.43206597566603L1242.4966666666667,307.71139981672167L1244.7933333333333,319.3213124524802L1244.7933333333333,311.83376631215214L1244.7933333333333,305.59373176172375L1244.7933333333333,314.17016909904777L1249.3866666666665,315.7765202734619L1249.3866666666665,297.08668677583336L1249.3866666666665,317.06209970153867L1251.6833333333334,304.442226742208L1251.6833333333334,306.0452335372567L1251.6833333333334,302.1882875494659L1253.98,309.21452584192156L1253.98,308.1920117743313L1253.98,301.60835808590053L1256.2766666666666,315.08943161442875L1256.2766666666666,294.8232389844954L1258.5733333333333,306.01081107258796L1263.1666666666665,274.4035041376948L1263.1666666666665,315.57873895838856L1263.1666666666665,301.9092395760119" style="fill: none;" fill="none"></path></g></g></g></g></g></g><g transform="translate(70, 378)" clip-path="url(#clip_1)"><clipPath id="clip_1"><rect width="1378" height="22"></rect></clipPath><g><g><line x1="0" y1="0" x2="0" y2="5" style="visibility: inherit;" fill="rgb(0, 0, 0)" stroke="rgb(204, 204, 204)" stroke-width="1px"></line><line x1="114.83333333333333" y1="0" x2="114.83333333333333" y2="5" style="visibility: inherit;" fill="rgb(0, 0, 0)" stroke="rgb(204, 204, 204)" stroke-width="1px"></line><line x1="229.66666666666666" y1="0" x2="229.66666666666666" y2="5" style="visibility: inherit;" fill="rgb(0, 0, 0)" stroke="rgb(204, 204, 204)" stroke-width="1px"></line><line x1="344.5" y1="0" x2="344.5" y2="5" style="visibility: inherit;" fill="rgb(0, 0, 0)" stroke="rgb(204, 204, 204)" stroke-width="1px"></line><line x1="459.3333333333333" y1="0" x2="459.3333333333333" y2="5" style="visibility: inherit;" fill="rgb(0, 0, 0)" stroke="rgb(204, 204, 204)" stroke-width="1px"></line><line x1="574.1666666666667" y1="0" x2="574.1666666666667" y2="5" style="visibility: inherit;" fill="rgb(0, 0, 0)" stroke="rgb(204, 204, 204)" stroke-width="1px"></line><line x1="689" y1="0" x2="689" y2="5" style="visibility: inherit;" fill="rgb(0, 0, 0)" stroke="rgb(204, 204, 204)" stroke-width="1px"></line><line x1="803.8333333333334" y1="0" x2="803.8333333333334" y2="5" style="visibility: inherit;" fill="rgb(0, 0, 0)" stroke="rgb(204, 204, 204)" stroke-width="1px"></line><line x1="918.6666666666666" y1="0" x2="918.6666666666666" y2="5" style="visibility: inherit;" fill="rgb(0, 0, 0)" stroke="rgb(204, 204, 204)" stroke-width="1px"></line><line x1="1033.5" y1="0" x2="1033.5" y2="5" style="visibility: inherit;" fill="rgb(0, 0, 0)" stroke="rgb(204, 204, 204)" stroke-width="1px"></line><line x1="1148.3333333333335" y1="0" x2="1148.3333333333335" y2="5" style="visibility: inherit;" fill="rgb(0, 0, 0)" stroke="rgb(204, 204, 204)" stroke-width="1px"></line><line x1="1263.1666666666665" y1="0" x2="1263.1666666666665" y2="5" style="visibility: inherit;" fill="rgb(0, 0, 0)" stroke="rgb(204, 204, 204)" stroke-width="1px"></line><line x1="1378" y1="0" x2="1378" y2="5" style="visibility: inherit;" fill="rgb(0, 0, 0)" stroke="rgb(204, 204, 204)" stroke-width="1px"></line></g><g transform="translate(0, 8)"><text x="0" y="0" dx="0em" dy="0.95em" style="text-anchor: middle; visibility: hidden; font-family: &quot;Helvetica Neue&quot;, sans-serif; font-size: 12px; font-weight: 200;" fill="rgb(50, 49, 63)" stroke="none" stroke-width="1px">-50</text><text x="114.83333333333333" y="0" dx="0em" dy="0.95em" style="text-anchor: middle; visibility: inherit; font-family: &quot;Helvetica Neue&quot;, sans-serif; font-size: 12px; font-weight: 200;" fill="rgb(50, 49, 63)" stroke="none" stroke-width="1px">0</text><text x="229.66666666666666" y="0" dx="0em" dy="0.95em" style="text-anchor: middle; visibility: inherit; font-family: &quot;Helvetica Neue&quot;, sans-serif; font-size: 12px; font-weight: 200;" fill="rgb(50, 49, 63)" stroke="none" stroke-width="1px">50</text><text x="344.5" y="0" dx="0em" dy="0.95em" style="text-anchor: middle; visibility: inherit; font-family: &quot;Helvetica Neue&quot;, sans-serif; font-size: 12px; font-weight: 200;" fill="rgb(50, 49, 63)" stroke="none" stroke-width="1px">100</text><text x="459.3333333333333" y="0" dx="0em" dy="0.95em" style="text-anchor: middle; visibility: inherit; font-family: &quot;Helvetica Neue&quot;, sans-serif; font-size: 12px; font-weight: 200;" fill="rgb(50, 49, 63)" stroke="none" stroke-width="1px">150</text><text x="574.1666666666667" y="0" dx="0em" dy="0.95em" style="text-anchor: middle; visibility: inherit; font-family: &quot;Helvetica Neue&quot;, sans-serif; font-size: 12px; font-weight: 200;" fill="rgb(50, 49, 63)" stroke="none" stroke-width="1px">200</text><text x="689" y="0" dx="0em" dy="0.95em" style="text-anchor: middle; visibility: inherit; font-family: &quot;Helvetica Neue&quot;, sans-serif; font-size: 12px; font-weight: 200;" fill="rgb(50, 49, 63)" stroke="none" stroke-width="1px">250</text><text x="803.8333333333334" y="0" dx="0em" dy="0.95em" style="text-anchor: middle; visibility: inherit; font-family: &quot;Helvetica Neue&quot;, sans-serif; font-size: 12px; font-weight: 200;" fill="rgb(50, 49, 63)" stroke="none" stroke-width="1px">300</text><text x="918.6666666666666" y="0" dx="0em" dy="0.95em" style="text-anchor: middle; visibility: inherit; font-family: &quot;Helvetica Neue&quot;, sans-serif; font-size: 12px; font-weight: 200;" fill="rgb(50, 49, 63)" stroke="none" stroke-width="1px">350</text><text x="1033.5" y="0" dx="0em" dy="0.95em" style="text-anchor: middle; visibility: inherit; font-family: &quot;Helvetica Neue&quot;, sans-serif; font-size: 12px; font-weight: 200;" fill="rgb(50, 49, 63)" stroke="none" stroke-width="1px">400</text><text x="1148.3333333333335" y="0" dx="0em" dy="0.95em" style="text-anchor: middle; visibility: inherit; font-family: &quot;Helvetica Neue&quot;, sans-serif; font-size: 12px; font-weight: 200;" fill="rgb(50, 49, 63)" stroke="none" stroke-width="1px">450</text><text x="1263.1666666666665" y="0" dx="0em" dy="0.95em" style="text-anchor: middle; visibility: inherit; font-family: &quot;Helvetica Neue&quot;, sans-serif; font-size: 12px; font-weight: 200;" fill="rgb(50, 49, 63)" stroke="none" stroke-width="1px">500</text><text x="1378" y="0" dx="0em" dy="0.95em" style="text-anchor: middle; visibility: hidden; font-family: &quot;Helvetica Neue&quot;, sans-serif; font-size: 12px; font-weight: 200;" fill="rgb(50, 49, 63)" stroke="none" stroke-width="1px">550</text></g><line x1="0" y1="0" x2="1378" y2="0" fill="rgb(0, 0, 0)" stroke="rgb(204, 204, 204)" stroke-width="1px"></line></g></g></g></g></svg>