<svg viewBox="0 0 1448 400" xmlns="http://www.w3.org/2000/svg"><g><g><g><g><g><line x1="58" y1="361.2663777632176" x2="53" y2="361.2663777632176" style="visibility: inherit;" fill="rgb(0, 0, 0)" stroke="rgb(204, 204, 204)" stroke-width="1px"></line><line x1="58" y1="201.9422679648886" x2="53" y2="201.9422679648886" style="visibility: inherit;" fill="rgb(0, 0, 0)" stroke="rgb(204, 204, 204)" stroke-width="1px"></line><line x1="58" y1="108.743638272086" x2="53" y2="108.743638272086" style="visibility: inherit;" fill="rgb(0, 0, 0)" stroke="rgb(204, 204, 204)" stroke-width="1px"></line><line x1="58" y1="42.61815816655968" x2="53" y2="42.61815816655968" style="visibility: inherit;" fill="rgb(0, 0, 0)" stroke="rgb(204, 204, 204)" stroke-width="1px"></line></g><g transform="translate(48, 0)"><text x="0" y="361.2663777632176" dx="0em" dy="0.3em" style="text-anchor: end; visibility: inherit; font-family: &quot;Helvetica Neue&quot;, sans-serif; font-size: 12px; font-weight: 200;" fill="rgb(50, 49, 63)" stroke="none" stroke-width="1px">0.01</text><text x="0" y="201.9422679648886" dx="0em" dy="0.3em" style="text-anchor: end; visibility: inherit; font-family: &quot;Helvetica Neue&quot;, sans-serif; font-size: 12px; font-weight: 200;" fill="rgb(50, 49, 63)" stroke="none" stroke-width="1px">0.02</text><text x="0" y="108.743638272086" dx="0em" dy="0.3em" style="text-anchor: end; visibility: inherit; font-family: &quot;Helvetica Neue&quot;, sans-serif; font-size: 12px; font-weight: 200;" fill="rgb(50, 49, 63)" stroke="none" stroke-width="1px">0.03</text><text x="0" y="42.61815816655968" dx="0em" dy="0.3em" style="text-anchor: end; visibility: inherit; font-family: &quot;Helvetica Neue&quot;, sans-serif; font-size: 12px; font-weight: 200;" fill="rgb(50, 49, 63)" stroke="none" stroke-width="1px">0.04</text></g><line x1="58" y1="0" x2="58" y2="378" fill="rgb(0, 0, 0)" stroke="rgb(204, 204, 204)" stroke-width="1px"></line></g></g><g transform="translate(58, 0)" clip-path="url(#clip_0)"><clipPath id="clip_0"><rect width="1390" height="378"></rect></clipPath><g><g><g><line x1="0" y1="0" x2="0" y2="378" fill="rgb(0, 0, 0)" stroke="rgb(60, 60, 60)" stroke-width="1px" opacity="0.25"></line><line x1="115.83333333333333" y1="0" x2="115.83333333333333" y2="378" fill="rgb(0, 0, 0)" stroke="rgb(60, 60, 60)" stroke-width="1px" opacity="0.25"></line><line x1="231.66666666666666" y1="0" x2="231.66666666666666" y2="378" fill="rgb(0, 0, 0)" stroke="rgb(60, 60, 60)" stroke-width="1px" opacity="0.25"></line><line x1="347.5" y1="0" x2="347.5" y2="378" fill="rgb(0, 0, 0)" stroke="rgb(60, 60, 60)" stroke-width="1px" opacity="0.25"></line><line x1="463.3333333333333" y1="0" x2="463.3333333333333" y2="378" fill="rgb(0, 0, 0)" stroke="rgb(60, 60, 60)" stroke-width="1px" opacity="0.25"></line><line x1="579.1666666666667" y1="0" x2="579.1666666666667" y2="378" fill="rgb(0, 0, 0)" stroke="rgb(60, 60, 60)" stroke-width="1px" opacity="0.25"></line><line x1="695" y1="0" x2="695" y2="378" fill="rgb(0, 0, 0)" stroke="rgb(60, 60, 60)" stroke-width="1px" opacity="0.25"></line><line x1="810.8333333333334" y1="0" x2="810.8333333333334" y2="378" fill="rgb(0, 0, 0)" stroke="rgb(60, 60, 60)" stroke-width="1px" opacity="0.25"></line><line x1="926.6666666666666" y1="0" x2="926.6666666666666" y2="378" fill="rgb(0, 0, 0)" stroke="rgb(60, 60, 60)" stroke-width="1px" opacity="0.25"></line><line x1="1042.5" y1="0" x2="1042.5" y2="378" fill="rgb(0, 0, 0)" stroke="rgb(60, 60, 60)" stroke-width="1px" opacity="0.25"></line><line x1="1158.3333333333335" y1="0" x2="1158.3333333333335" y2="378" fill="rgb(0, 0, 0)" stroke="rgb(60, 60, 60)" stroke-width="1px" opacity="0.25"></line><line x1="1274.1666666666665" y1="0" x2="1274.1666666666665" y2="378" fill="rgb(0, 0, 0)" stroke="rgb(60, 60, 60)" stroke-width="1px" opacity="0.25"></line><line x1="1390" y1="0" x2="1390" y2="378" fill="rgb(0, 0, 0)" stroke="rgb(60, 60, 60)" stroke-width="1px" opacity="0.25"></line></g><g><line x1="0" y1="361.2663777632176" x2="1390" y2="361.2663777632176" fill="rgb(0, 0, 0)" stroke="rgb(60, 60, 60)" stroke-width="1px" opacity="0.25"></line><line x1="0" y1="201.9422679648886" x2="1390" y2="201.9422679648886" fill="rgb(0, 0, 0)" stroke="rgb(60, 60, 60)" stroke-width="1px" opacity="0.25"></line><line x1="0" y1="108.743638272086" x2="1390" y2="108.743638272086" fill="rgb(0, 0, 0)" stroke="rgb(60, 60, 60)" stroke-width="1px" opacity="0.25"></line><line x1="0" y1="42.61815816655968" x2="1390" y2="42.61815816655968" fill="rgb(0, 0, 0)" stroke="rgb(60, 60, 60)" stroke-width="1px" opacity="0.25"></line></g></g></g><g><g><line x1="115.83333333333333" y1="0" x2="115.83333333333333" y2="378" fill="rgb(0, 0, 0)" stroke="rgb(153, 153, 153)" stroke-width="1.5px"></line></g></g><g><g><g><g><g><path stroke="rgb(255, 112, 67)" stroke-width="2px" d="M141.31666666666666,-2.8333653493577913L143.63333333333333,0.21678722505168935L143.63333333333333,3.2411484309910747L143.63333333333333,6.891192021950474L143.63333333333333,8.578932381466586L145.95,10.549939944963285L145.95,13.959827868081561L145.95,16.960449426525486L148.26666666666668,19.388799437928355L148.26666666666668,20.906132432106347L148.26666666666668,25.097158200399065L148.26666666666668,27.703164741789976L150.58333333333334,30.139389585635627L150.58333333333334,33.38241743616737L152.9,35.44263144962599L152.9,35.75974065860527L157.53333333333333,38.81655567805706L157.53333333333333,40.59891481133559L157.53333333333333,42.84947559344846L157.53333333333333,43.60441206795758L159.85,45.34262088832321L159.85,46.993820692697795L159.85,48.79511103285205L162.16666666666666,50.309888888606054L166.79999999999998,52.06068516400126L166.79999999999998,53.999999999999886L171.43333333333334,56.24474314611615L173.75,58.68151395564564L173.75,60.83880847103677L173.75,62.241659502585264L176.0666666666667,64.3863540750225L178.38333333333333,67.02674229866534L180.70000000000002,68.89105593208939L183.01666666666665,69.45041610660843L183.01666666666665,71.51500322685422L183.01666666666665,70.48806839485417L192.28333333333333,71.56516042597201L192.28333333333333,72.69555022371952L192.28333333333333,73.70768270357792L192.28333333333333,75.0284986863075L194.60000000000002,75.03241642954004L194.60000000000002,75.23208203591713L194.60000000000002,75.02334119456071L194.60000000000002,76.17941965144348L196.91666666666666,77.05131731905686L196.91666666666666,78.42868235555517L196.91666666666666,78.94574160258497L196.91666666666666,80.05782090118186L196.91666666666666,79.68904119914572L199.23333333333335,81.0570920390013L201.54999999999998,81.19364656975199L201.54999999999998,82.57455232251908L206.18333333333334,83.57419709239576L206.18333333333334,84.65943535474565L206.18333333333334,85.41983438012596L206.18333333333334,86.44094913961908L206.18333333333334,87.78809432312949L208.5,88.65276173899969L208.5,89.6010807028793L208.5,90.45313808903148L208.5,91.96868011196824L210.81666666666666,93.53241327886843L210.81666666666666,94.38338096774709L213.13333333333333,95.50776128773936L215.45,95.8408917929512L215.45,96.99580137156505L217.76666666666668,98.72223085541162L217.76666666666668,99.71547427078701L222.4,101.09104595315L224.71666666666664,101.84136820997628L227.03333333333333,102.93353262266794L227.03333333333333,104.4873929769264L227.03333333333333,105.48002094342479L227.03333333333333,106.00036931458067L229.35000000000002,106.76812348850825L231.66666666666666,108.09965247444848L231.66666666666666,109.36804099815032L231.66666666666666,110.33444662268977L231.66666666666666,110.98544228606073L233.98333333333335,111.81207316811265L233.98333333333335,112.57578674627729L233.98333333333335,113.71351498726045L236.3,114.83388151452897L236.3,114.95998932857162L238.61666666666665,115.75370410391497L240.93333333333334,116.25177324549662L240.93333333333334,116.65409483849402L240.93333333333334,117.56413224567689L240.93333333333334,117.72145085237275L243.24999999999997,118.07644441243878L243.24999999999997,117.26368467651861L243.24999999999997,118.11062501726656L243.24999999999997,118.35456804613801L245.56666666666666,118.93944699575565L245.56666666666666,119.88063924224679L245.56666666666666,120.57433535429675L245.56666666666666,121.17958459821875L245.56666666666666,121.87651837905565L245.56666666666666,122.67754804864816L245.56666666666666,123.29162702467119L247.88333333333335,124.11732959044153L247.88333333333335,124.66631564473883L247.88333333333335,125.16259578021752L252.51666666666668,126.01018250465452L252.51666666666668,126.64005475297279L254.83333333333331,127.13286880985174L257.15,128.22654155590726L257.15,128.76459725373198L257.15,129.59154205091923L257.15,130.06919792530059L259.4666666666667,130.422897816332L259.4666666666667,131.20532963953625L261.7833333333333,131.96270117595375L264.1,132.55061944956648L264.1,132.74993760597525L264.1,133.43160752166241L266.4166666666667,134.14658181161136L268.73333333333335,135.1172285984308L268.73333333333335,135.76931056838376L271.05,136.46116781025916L271.05,137.08433838019855L271.05,137.83693624092828L271.05,138.6396557644018L273.3666666666667,139.51356209437947L273.3666666666667,140.06107137125045L278,140.81722054022782L278,140.96892260139785L282.6333333333333,141.80519009683576L282.6333333333333,142.48876032705675L282.6333333333333,143.26952282186045L284.95,144.0416177423963L284.95,144.79744641357988L284.95,145.16881906183502L284.95,145.40191254760933L284.95,146.12684648682105L287.26666666666665,146.92166783701103L287.26666666666665,147.1347256958637L289.58333333333337,147.7228398405986L289.58333333333337,148.61090302516908L289.58333333333337,149.33526805681532L291.9,150.03915137976136L294.2166666666667,150.8611103631889L296.53333333333336,151.56110031509124L298.85,152.15312880588473L298.85,152.32450000583017L298.85,153.08370944224325L303.4833333333333,153.51809409418027L303.4833333333333,154.35454963241472L308.1166666666667,154.65770345298145L310.43333333333334,154.89193137734762L310.43333333333334,155.4407874424048L310.43333333333334,156.1758321047605L310.43333333333334,156.77871077891683L312.75,157.4124888780653L315.06666666666666,158.2764195355344L317.3833333333333,158.51786023181717L317.3833333333333,158.7947697080765L317.3833333333333,159.04843665197404L319.7,159.63225920560447L319.7,160.4603879555564L319.7,161.09898862950254L322.01666666666665,161.39523168439834L322.01666666666665,162.11363708632885L324.3333333333333,162.59535182615127L326.65,162.67205921357814L328.96666666666664,163.28067614574343L328.96666666666664,163.9328777497966L331.28333333333336,164.44979228718896L331.28333333333336,164.8332516500274L331.28333333333336,165.49041080905877L333.59999999999997,166.0987728331442L333.59999999999997,166.55044136411942L333.59999999999997,167.07499500839205L335.9166666666667,167.294613159779L340.55,167.96689831146264L340.55,168.55874912496722L340.55,168.91074320501602L342.8666666666667,169.56909124094358L342.8666666666667,170.1485338900198L342.8666666666667,170.595435998852L342.8666666666667,170.85037442650994L345.18333333333334,171.3451330303722L345.18333333333334,171.60611775026882L345.18333333333334,172.06260253418168L347.5,172.5821727837068L349.81666666666666,172.97941059311498L349.81666666666666,173.26286947457845L352.1333333333334,173.62143422495996L354.45,174.32120973523251L359.08333333333337,174.91390265564135L359.08333333333337,175.300416895213L359.08333333333337,175.57121503965803L361.40000000000003,175.96461123905564L363.71666666666664,176.20271668230785L366.0333333333333,176.80645998877853L366.0333333333333,177.10080719754322L366.0333333333333,177.5764946583363L370.6666666666667,177.82396267597542L370.6666666666667,178.2734133340585L370.6666666666667,178.74695309987177L372.9833333333333,179.48023484100895L375.3,180.1483285211039L377.6166666666667,180.60252792243062L377.6166666666667,181.2797681946698L379.93333333333334,181.77217721484078L379.93333333333334,182.43649178168346L379.93333333333334,182.6631449137131L382.25000000000006,183.2335140014626L382.25000000000006,183.7725818825311L384.56666666666666,183.97500309810073L384.56666666666666,184.627754432324L384.56666666666666,185.1813391984602L386.8833333333333,185.53441707948855L389.20000000000005,186.15361269461167L389.20000000000005,186.58969429723638L389.20000000000005,186.86441833444474L389.20000000000005,187.36803421057482L391.5166666666667,187.82586025306355L391.5166666666667,188.31659553279619L391.5166666666667,188.6787507925623L391.5166666666667,189.08233275016943L391.5166666666667,189.57245487765775L393.8333333333333,189.97422566348607L393.8333333333333,190.21742877287727L393.8333333333333,190.70998687907368L398.4666666666667,191.14672737247085L398.4666666666667,191.38941310602033L403.09999999999997,192.05831977411876L405.4166666666667,192.43679422069604L407.73333333333335,192.92394325997617L407.73333333333335,193.3874260615314L407.73333333333335,194.00166502353608L407.73333333333335,194.276434879026L410.04999999999995,194.6667308531466L410.04999999999995,195.06561039358252L410.04999999999995,195.5802232999048L412.3666666666667,196.08084628519856L414.68333333333334,196.3275049785496L417,196.8364842392483L417,197.25476523475194L417,197.46025978170016L417,197.8152464415145L417,198.07987569761087L417,198.06581069561727L419.3166666666667,198.49233505241193L421.6333333333333,198.74878093471062L421.6333333333333,199.15372806649722L421.6333333333333,199.72261322718484L421.6333333333333,199.80101396249202L421.6333333333333,200.0425628253149L423.95,200.22331843404913L423.95,200.6149741801597L423.95,200.4872059264092L423.95,200.70871105429052L423.95,201.1957855719152L426.26666666666665,201.64977472320317L430.9,202.1151939470213L430.9,202.61984069059793L430.9,202.87047297320206L433.21666666666664,203.0629974245877L437.85,203.41436139465367L437.85,203.83419460228933L440.16666666666663,204.08359249370338L442.48333333333335,204.50139642172425L442.48333333333335,205.03147076104256L442.48333333333335,205.50559507870824L444.8,206.00301251770685L447.1166666666667,206.24649560750572L447.1166666666667,206.66720749963795L447.1166666666667,206.8815308025434L449.4333333333333,207.2099799575675L449.4333333333333,207.34344698094984L451.75,207.67855073167485L454.06666666666666,207.61010254032973L454.06666666666666,207.85359150581L456.3833333333333,208.3050792387161L456.3833333333333,208.49688304958212L458.70000000000005,208.72611870840439L458.70000000000005,209.22587670569885L458.70000000000005,209.65550669908447L463.3333333333333,210.02206875863962L465.65000000000003,210.2349265029617L465.65000000000003,210.61097307118274L467.9666666666667,211.06277891531272L470.2833333333333,211.46849559927875L470.2833333333333,211.58377233791956L470.2833333333333,211.82668859000069L470.2833333333333,212.1468366608814L472.6,212.2742449206128L472.6,212.694705009158L474.9166666666667,212.96087180825825L477.2333333333333,213.4512088183712L477.2333333333333,213.38751934140848L479.54999999999995,213.87702223779576L479.54999999999995,214.3696635029187L479.54999999999995,214.6951128514035L481.8666666666667,214.9160225503369L484.18333333333334,215.32978610076452L484.18333333333334,215.81178445731186L486.49999999999994,216.19504254800162L488.81666666666666,216.3635577637652L488.81666666666666,216.79159102692697L491.1333333333333,217.04044059057028L491.1333333333333,217.5470827193851L493.45,217.89282363325222L495.7666666666667,218.27969676040695L495.7666666666667,218.70394585485192L495.7666666666667,218.87914757258758L498.0833333333333,219.318060823746L500.4,219.74576636221875L500.4,219.81131445336393L500.4,220.35916721978867L500.4,220.57501150217306L500.4,220.8836103500246L502.7166666666667,221.08098610581087L502.7166666666667,221.45256559855045L505.03333333333336,221.91253662221533L505.03333333333336,222.3426090185822L507.34999999999997,222.68645278503078L507.34999999999997,223.00177800900232L507.34999999999997,223.31915207286355L507.34999999999997,223.52458791043784L507.34999999999997,223.80605795523812L507.34999999999997,224.14326285289084L509.66666666666663,224.34713083109304L509.66666666666663,224.7344836911423L511.98333333333335,225.04433820473284L511.98333333333335,225.2681469152188L514.3,225.54155366551413L514.3,225.820894729905L516.6166666666667,226.10076844371173L516.6166666666667,226.29855276281688L516.6166666666667,226.5434726741817L518.9333333333334,226.9127549306463L518.9333333333334,227.09749810734527L518.9333333333334,227.46811830947874L521.25,227.84090930255473L521.25,228.19933025045574L521.25,228.2726341136768L521.25,228.68543900533496L521.25,229.0597720552771L525.8833333333333,229.15963883895682L530.5166666666667,229.48738993677918L532.8333333333334,229.7785934798071L532.8333333333334,230.03062038658305L532.8333333333334,230.41852979538368L535.15,230.8277002015952L535.15,231.23360188085437L537.4666666666667,231.5951549036676L537.4666666666667,231.81685295522124L537.4666666666667,232.15840123065772L539.7833333333333,232.464690447133L539.7833333333333,232.82305673173283L542.1,233.05144938561762L542.1,233.38478139197895L544.4166666666666,233.72823903140693L544.4166666666666,234.099974457418L546.7333333333333,234.3138283327588L546.7333333333333,234.62479208561055L549.0500000000001,234.95546143444605L549.0500000000001,234.97602553141053L549.0500000000001,235.32631792179544L551.3666666666667,235.702555991165L551.3666666666667,235.87378066162532L553.6833333333333,236.21009965863476L556,236.12050241278615L556,236.49944482335002L556,236.73955808993458L558.3166666666667,236.92259773180788L560.6333333333333,237.01680859586284L560.6333333333333,237.37753322307563L560.6333333333333,237.82674009868498L560.6333333333333,238.13864723289046L562.95,238.3311160928631L562.95,238.54909404677085L565.2666666666667,238.90283105677096L565.2666666666667,239.13064647123434L565.2666666666667,239.42951656460474L567.5833333333334,239.78174188193637L569.9,240.07691811762302L569.9,240.44165909223324L572.2166666666667,240.62230542976658L576.85,240.5802220211039L576.85,240.7963052533969L576.85,241.027613496717L576.85,241.33514430670996L579.1666666666667,241.58752784369102L579.1666666666667,241.81001384130218L581.4833333333333,242.04705756698255L583.8,242.17842922696823L583.8,242.44883800578978L583.8,242.76314564530304L586.1166666666667,243.07748460108934L586.1166666666667,243.27299180697565L588.4333333333334,243.59452706443744L590.75,243.67534782681514L590.75,243.9903888435139L590.75,244.05996714814228L593.0666666666667,244.2318844870009L600.0166666666667,244.50661204525616L602.3333333333334,244.55913577215688L602.3333333333334,244.69431380221957L602.3333333333334,245.05725294631367L604.65,245.3271066033869L604.65,245.5969686661843L604.65,245.759714775617L606.9666666666666,245.9871889132233L606.9666666666666,246.27007400152195L609.2833333333334,246.38497677135388L609.2833333333334,246.70853034155158L609.2833333333334,246.94166108812016L609.2833333333334,247.2281553036517L611.6,247.44431932917462L613.9166666666666,247.6372352461799L616.2333333333333,247.89859646266572L616.2333333333333,248.11957250077586L618.55,248.283816139883L620.8666666666667,248.5654880995773L620.8666666666667,248.82136697173553L623.1833333333333,249.19173172792753L625.5,249.5205741835022L625.5,249.90328170925943L627.8166666666666,249.7950609264798L627.8166666666666,249.98656785945178L627.8166666666666,250.02537162240975L630.1333333333333,250.23423989722593L630.1333333333333,250.509212741777L632.45,250.77005767503502L632.45,250.94898947677854L634.7666666666667,251.29209604116858L634.7666666666667,251.54928045141145L637.0833333333333,251.6835896507891L637.0833333333333,251.87847394509612L637.0833333333333,251.91605903248592L637.0833333333333,252.28711085387076L639.4,252.5630620156718L639.4,252.6255556162106L641.7166666666667,252.91276824566006L644.0333333333333,252.9761248825166L646.35,253.1694440620467L646.35,253.40748659243258L646.35,253.75997202441397L648.6666666666666,254.00821279222478L648.6666666666666,254.3128815282317L648.6666666666666,254.45286190947155L648.6666666666666,254.73000035070893L648.6666666666666,254.93447964184088L648.6666666666666,255.1744835598916L650.9833333333333,255.30505422255158L653.3,255.41937448829987L653.3,255.64860141495524L655.6166666666667,255.96276849097893L655.6166666666667,256.17588425526276L657.9333333333333,256.4547701690652L657.9333333333333,256.7803996702785L660.25,256.97431040854474L660.25,257.2491926814332L660.25,257.4492446581877L660.25,257.6606410242902L662.5666666666667,257.769860919124L662.5666666666667,257.7697844165643L664.8833333333333,257.92969697795104L664.8833333333333,258.25421645293375L664.8833333333333,258.3538131199507L669.5166666666667,258.63379859865074L671.8333333333334,258.86537987724836L671.8333333333334,259.0975311815702L674.15,259.3735276229337L676.4666666666667,259.4524050375376L678.7833333333333,259.74794819237013L681.1,259.94962254959404L681.1,259.8517482741297L681.1,260.0106986871074L681.1,260.20193140468587L681.1,260.42229436494415L681.1,260.6436042054786L683.4166666666666,260.97657682974784L685.7333333333333,261.1991611927322L685.7333333333333,261.4057793985752L685.7333333333333,261.64841695793405L690.3666666666667,261.94319003569757L690.3666666666667,262.00809502081125L690.3666666666667,262.2992286405418L690.3666666666667,262.4813627101237L690.3666666666667,262.2465868475015L690.3666666666667,262.36784594224326L690.3666666666667,262.6421100659085L690.3666666666667,262.8248806858945L692.6833333333334,263.0569573687166L692.6833333333334,263.2758062946688L697.3166666666667,263.5208332260181L697.3166666666667,263.77110787877524L699.6333333333333,263.92420374561186L699.6333333333333,264.16718156647113L699.6333333333333,264.3621833664993L704.2666666666668,264.33609511217946L706.5833333333333,264.4442032271321L708.9,264.70633046908273L708.9,264.98429680287734L708.9,265.3136112130363L711.2166666666667,265.5182933136213L711.2166666666667,265.71560121495816L713.5333333333333,265.846208632587L713.5333333333333,266.02052885590047L713.5333333333333,266.2146176735767L713.5333333333333,266.5208360725939L713.5333333333333,266.7357534117857L715.85,266.95412102845347L715.85,267.10999084734055L715.85,267.4299485048778L715.85,267.6502193281182L720.4833333333333,267.68432786621855L722.8000000000001,267.9515615849986L722.8000000000001,268.11853877334L722.8000000000001,268.4069333850307L725.1166666666666,268.67356181650763L725.1166666666666,268.93842971869776L725.1166666666666,269.0693770627294L727.4333333333333,269.3199999990926L727.4333333333333,269.60591164186883L729.75,269.8524054213808L729.75,270.16177505541265L729.75,270.21277797485004L732.0666666666666,270.4208441115014L732.0666666666666,270.621596011782L732.0666666666666,270.8245497831948L732.0666666666666,271.05432259788716L732.0666666666666,271.10545822460665L734.3833333333333,271.3040758111206L734.3833333333333,271.55023853928935L736.7,271.72366590282496L739.0166666666667,271.94214694611264L741.3333333333334,272.1705155524709L743.6500000000001,272.3867031307812L745.9666666666666,272.66400046332205L745.9666666666666,272.9434400883365L745.9666666666666,273.15080269273165L748.2833333333333,273.3998229435076L748.2833333333333,273.5956622317018L748.2833333333333,273.78446198341356L748.2833333333333,274.03278901197893L750.6,274.2722258149413L750.6,274.5785912393068L752.9166666666666,274.8465031879411L752.9166666666666,275.05044190453367L752.9166666666666,275.29110709305337L752.9166666666666,275.47066992750104L755.2333333333333,275.72444551356807L755.2333333333333,275.907605707249L757.5500000000001,276.1422833221602L757.5500000000001,276.44544986937063L757.5500000000001,276.6843878942817L759.8666666666667,276.9963547019331L759.8666666666667,277.2245997546558L762.1833333333334,277.4894204755895L762.1833333333334,277.54394560669886L762.1833333333334,277.79772916271713L764.5000000000001,277.96911679000567L766.8166666666666,278.0281453797966L769.1333333333333,277.90926402704497L769.1333333333333,278.08226682503516L769.1333333333333,278.2444868316848L771.45,278.471892523495L771.45,278.50592930408334L773.7666666666667,278.2024598517065L773.7666666666667,278.42391791652335L773.7666666666667,278.3925529188368L776.0833333333334,278.5170358778198L776.0833333333334,278.648770727946L776.0833333333334,278.87060364243644L778.4000000000001,279.17638064779993L780.7166666666666,279.4934458364636L783.0333333333334,279.64611178235623L783.0333333333334,279.8640868298082L785.3499999999999,279.99078692321996L785.3499999999999,280.20308328490324L787.6666666666666,280.2311102442219L789.9833333333333,280.4703661495756L792.3,280.5389782765742L792.3,280.7127382913168L794.6166666666667,280.9488031437467L794.6166666666667,281.14278057896445L794.6166666666667,281.3857192670969L796.9333333333334,281.5966601004552L801.5666666666666,281.82715418727884L801.5666666666666,281.97866178250354L803.8833333333333,282.19600614160004L803.8833333333333,282.41864535792075L803.8833333333333,282.64600760914084L803.8833333333333,282.749837733938L806.1999999999999,282.923145962431L806.1999999999999,283.16617587320934L808.5166666666667,283.24896048023436L810.8333333333334,283.4225129394098L810.8333333333334,283.588502650506L810.8333333333334,283.78921003340287L810.8333333333334,283.9917965555896L810.8333333333334,284.18311289770486L813.15,284.44362915052363L813.15,284.65228589978847L813.15,284.8854137791992L813.15,285.0031359423449L813.15,285.2530538463699L815.4666666666667,285.41003959564523L817.7833333333334,285.4390213337019L820.0999999999999,285.7075273579469L822.4166666666666,285.9417377093588L822.4166666666666,286.15310453192615L824.7333333333333,286.42296787384464L824.7333333333333,286.6223403698308L824.7333333333333,286.81924912405714L827.05,287.0625228643904L827.05,287.3100152946546L827.05,287.4731509878104L827.05,287.56466637310325L827.05,287.8070542956959L827.05,287.9399922707804L829.3666666666667,288.0756228818253L829.3666666666667,288.27404212034753L831.6833333333334,288.50597822650707L831.6833333333334,288.65708444664176L836.3166666666667,288.8655436667216L836.3166666666667,289.121171776671L836.3166666666667,289.3100698199777L836.3166666666667,289.38079166225737L838.6333333333334,289.50368485171816L838.6333333333334,289.64099407482547L840.9499999999999,289.7582041652068L840.9499999999999,289.9812427115203L847.9,290.012321360747L850.2166666666667,290.17735651817316L852.5333333333333,290.35597202254087L857.1666666666667,290.5291517261352L859.4833333333332,290.67956160067035L859.4833333333332,290.9199901754981L859.4833333333332,291.09231251936217L864.1166666666667,291.24850714329637L864.1166666666667,291.3331348542618L864.1166666666667,291.4805402907627L864.1166666666667,291.70663306811076L866.4333333333333,291.884080282788L868.75,292.0555819283224L871.0666666666667,292.2163974141658L871.0666666666667,292.51905316811826L871.0666666666667,292.709611074671L873.3833333333333,292.7016648272121L873.3833333333333,292.90309251920814L875.7,293.04669301195645L875.7,293.24640392071916L878.0166666666668,293.39750308813973L878.0166666666668,293.58987592730466L882.65,293.7605233671358L882.65,294.0330841913426L884.9666666666667,294.29022760190827L884.9666666666667,294.55527755409463L884.9666666666667,294.72601566085586L887.2833333333333,294.8215514209524L887.2833333333333,294.9768298083137L889.6,295.20265472321444L891.9166666666667,295.28014286367045L894.2333333333333,295.3752292967104L894.2333333333333,295.47237956497685L896.5500000000001,295.6679025536956L898.8666666666666,295.86346394441034L903.5,295.88811487668426L905.8166666666666,296.00750127729486L905.8166666666666,296.1724855615959L908.1333333333333,296.2853566806187L908.1333333333333,296.39825926797675L908.1333333333333,296.61174001588887L910.45,296.8026540809459L910.45,297.00228525490536L910.45,297.09607411339306L912.7666666666667,297.366458503554L915.0833333333334,297.53623177505847L915.0833333333334,297.5223967667878L915.0833333333334,297.7601004830981L915.0833333333334,297.90667085865573L917.4000000000001,298.0963864876452L919.7166666666666,298.0542499029975L922.0333333333333,298.0145469739984L926.6666666666666,298.1203760715753L926.6666666666666,298.2397793857151L928.9833333333333,298.34752019348474L928.9833333333333,298.5095380272842L931.3000000000001,298.75103394641064L931.3000000000001,298.96146116094553L931.3000000000001,299.16791352138296L933.6166666666667,299.3660014833333L935.9333333333334,299.51077214794935L938.2500000000001,299.7800437077822L938.2500000000001,299.8463184172651L938.2500000000001,300.0201550335717L942.8833333333333,300.234323790603L942.8833333333333,300.352065586304L942.8833333333333,300.6227856585421L945.2,300.5313378217665L945.2,300.611531123012L945.2,300.82864263805783L947.5166666666667,301.05351975652985L949.8333333333334,301.2736437624836L949.8333333333334,301.21215341672564L952.1500000000001,301.31087264836987L952.1500000000001,301.38382320490246L954.4666666666666,301.4382757420664L954.4666666666666,301.64719335236L956.7833333333334,301.88859937706684L956.7833333333334,302.05401417344535L959.0999999999999,302.27953943655166L961.4166666666666,302.4270306176247L966.05,302.5548369346895L970.6833333333334,302.7048669111466L972.9999999999999,302.90369352941644L975.3166666666666,303.08038912618724L977.6333333333333,303.18348728347496L977.6333333333333,303.3241726283238L977.6333333333333,303.4496286362725L979.9499999999999,303.6302508872104L979.9499999999999,303.68967156389255L982.2666666666667,303.825906761608L982.2666666666667,303.9349743440523L982.2666666666667,303.94352201567585L984.5833333333334,304.0717741327667L984.5833333333334,304.26929648418184L984.5833333333334,304.3471501681537L986.9,304.529284445466L986.9,304.654251052954L986.9,304.84004024187124L989.2166666666667,305.0563630354858L989.2166666666667,305.19253813574994L989.2166666666667,305.26319308295837L989.2166666666667,305.34922806263194L991.5333333333334,305.4522805599691L991.5333333333334,305.5915703820615L993.8499999999999,305.74903723468196L998.4833333333333,305.78613245943086L998.4833333333333,305.6805652717328L998.4833333333333,305.72769548349714L1000.8,305.7737533456576L1003.1166666666667,305.8899636488433L1003.1166666666667,306.0999754568753L1003.1166666666667,306.1927819604735L1005.4333333333334,306.2490038041242L1005.4333333333334,306.2503479368234L1005.4333333333334,306.523513866765L1005.4333333333334,306.62766801265184L1005.4333333333334,306.6644379110762L1005.4333333333334,306.7096535117015L1007.75,306.91483381667825L1007.75,307.0819888491501L1010.0666666666667,307.2121482272173L1010.0666666666667,307.3463787325811L1010.0666666666667,307.10123728624137L1010.0666666666667,307.2436256924066L1014.6999999999999,307.37155964611077L1014.6999999999999,307.4719313312031L1017.0166666666667,307.64486042004654L1017.0166666666667,307.69187959266003L1019.3333333333333,307.7274012542306L1019.3333333333333,307.7459251293751L1021.65,307.96715935338017L1021.65,308.07073196484316L1023.9666666666667,308.1393686014391L1023.9666666666667,308.30751064532944L1026.2833333333333,308.31224642398183L1026.2833333333333,308.4460115280182L1028.6,308.49227755708375L1030.9166666666667,308.6342072791366L1033.2333333333333,308.73611957441926L1033.2333333333333,308.4811513814822L1035.55,308.6634968140006L1035.55,308.814192322892L1037.8666666666668,308.8190906454921L1037.8666666666668,308.97811397526044L1042.5,308.92212360145317L1042.5,309.0854021699868L1047.1333333333332,309.2264165838646L1047.1333333333332,309.3881016689686L1049.45,309.47901336008164L1051.7666666666667,309.59959817818697L1051.7666666666667,309.72023116771743L1054.0833333333333,309.8221113498614L1054.0833333333333,309.82062844825606L1056.4,309.83298857596037L1056.4,309.9047869772827L1058.7166666666667,310.0555950196833L1058.7166666666667,310.22415498343656L1061.0333333333333,310.30083330605896L1061.0333333333333,310.4507906658164L1061.0333333333333,310.55028626000654L1063.35,310.55860685440484L1063.35,310.7306796386722L1065.6666666666667,310.7447247031349L1065.6666666666667,310.87576299533566L1065.6666666666667,310.9000133293204L1067.9833333333333,311.07840773205106L1070.3,311.1480487045223L1070.3,311.3259214552291L1070.3,311.48794055599626L1070.3,311.6826881880505L1072.6166666666666,311.79043343903606L1072.6166666666666,311.9246909401264L1072.6166666666666,312.08736647076444L1074.9333333333334,312.06143089827003L1074.9333333333334,312.1862794126158L1077.25,312.2569912234921L1077.25,312.32702472755204L1077.25,312.47116913508444L1079.5666666666666,312.5165123773122L1079.5666666666666,312.6306786048249L1081.8833333333332,312.7300531619982L1084.2,312.84252149954443L1084.2,313.0346052316745L1084.2,313.1081359379258L1086.5166666666667,313.250145001839L1086.5166666666667,313.3415906754509L1086.5166666666667,313.4664390521885L1088.8333333333333,313.60134286329765L1091.15,313.68665935907836L1091.15,313.7367333850405L1093.4666666666667,313.7998131569036L1098.1000000000001,313.8982460278477L1098.1000000000001,314.04503805832803L1098.1000000000001,314.238213796463L1098.1000000000001,314.39899583021463L1098.1000000000001,314.53366291578516L1100.4166666666665,314.688123875286L1100.4166666666665,314.7458069530391L1100.4166666666665,314.9241097769279L1102.7333333333333,315.0240634173554L1105.05,315.0833342098928L1105.05,315.1947302201572L1105.05,315.3731686966761L1105.05,315.559423587361L1107.3666666666666,315.6121467455515L1107.3666666666666,315.62815362247585L1114.3166666666666,315.653504008431L1114.3166666666666,315.7522620763722L1114.3166666666666,315.6302458559953L1114.3166666666666,315.8082716278997L1114.3166666666666,315.9666172743912L1114.3166666666666,315.9574422874948L1116.6333333333334,316.0818401040664L1118.95,316.15275358240854L1121.2666666666667,316.26109312288827L1123.5833333333333,316.43356140738103L1123.5833333333333,316.6177991021266L1123.5833333333333,316.7196277776563L1123.5833333333333,316.7235645984414L1125.9,316.7899698604842L1125.9,316.93242289830454L1128.2166666666667,316.9391719784113L1128.2166666666667,317.01446691782706L1128.2166666666667,317.03850215075005L1128.2166666666667,317.0586021551901L1130.5333333333333,317.2162080281743L1130.5333333333333,317.28435433281936L1130.5333333333333,317.3850824463583L1130.5333333333333,317.55655753963697L1130.5333333333333,317.6544028888865L1132.85,317.752637863674L1132.85,317.5790752931276L1135.1666666666667,317.7169463390993L1135.1666666666667,317.6848035632501L1135.1666666666667,317.73366757835043L1135.1666666666667,317.909999760704L1137.4833333333333,317.9451006799301L1137.4833333333333,318.06230006974397L1139.8,318.1970906249558L1139.8,318.2734425786365L1139.8,318.43439467460365L1142.1166666666666,318.594023752866L1142.1166666666666,318.70030003953906L1144.4333333333334,318.72467002377863L1144.4333333333334,318.85361991022006L1146.75,318.9545098503221L1146.75,318.96775827855566L1146.75,318.93780577359405L1146.75,318.985810428661L1149.0666666666666,318.9680696001675L1151.3833333333334,319.023126422342L1151.3833333333334,319.11731784232643L1153.7,319.31858378031745L1153.7,319.5517327203052L1156.0166666666667,319.66231269955836L1156.0166666666667,319.75637477182073L1160.6499999999999,319.9693575123416L1160.6499999999999,320.1750927561595L1162.9666666666667,320.3504877229572L1162.9666666666667,320.3314486819973L1162.9666666666667,320.4594249894705L1165.2833333333333,320.63520751946413L1167.6,320.59942344314146L1169.9166666666667,320.6488365073333L1172.2333333333333,320.6976578880763L1172.2333333333333,320.8223680302658L1174.55,320.8356569069455L1174.55,320.97401304035674L1176.8666666666668,321.1297238109414L1176.8666666666668,321.2582811947185L1179.1833333333334,321.3351126623591L1179.1833333333334,321.34831387449293L1179.1833333333334,321.38928960584144L1179.1833333333334,321.4165258794459L1181.5,321.56214827957353L1183.8166666666666,321.7386898950174L1183.8166666666666,321.8881591703499L1186.1333333333334,322.10744613887346L1186.1333333333334,322.27965033914643L1186.1333333333334,322.381392950107L1188.45,322.43267231572736L1190.7666666666667,322.620777756522L1193.0833333333333,322.68761631236265L1195.4,322.7873907716928L1197.7166666666667,322.90909763491214L1197.7166666666667,322.91415741049593L1197.7166666666667,323.0093235611893L1200.0333333333333,323.1315355283285L1202.35,323.18198697626644L1202.35,323.37658548785737L1204.6666666666667,323.53823179217306L1204.6666666666667,323.6981026661086L1204.6666666666667,323.8999843814928L1206.9833333333333,323.832739491686L1206.9833333333333,324.0000000000001L1206.9833333333333,324.0844106120809L1209.3,324.22606940640014L1213.9333333333332,324.3524055991468L1213.9333333333332,324.4424524218207L1213.9333333333332,324.53785023739545L1213.9333333333332,324.6231242259807L1216.25,324.44609573285555L1216.25,324.5067782791775L1218.5666666666668,324.5108848834831L1218.5666666666668,324.65366542520644L1218.5666666666668,324.642012099112L1220.8833333333332,324.7050405854585L1220.8833333333332,324.80701126709045L1227.8333333333333,324.9080132186769L1227.8333333333333,325.0001808200937L1230.15,325.18465788562776L1230.15,325.334755366369L1232.4666666666667,325.3920779406118L1232.4666666666667,325.5555822257198L1234.7833333333333,325.6585328263213L1239.4166666666667,325.75772510292074L1239.4166666666667,325.83452302399905L1244.05,325.93134458765854L1244.05,326.027853904862L1246.3666666666666,326.17508001010566L1246.3666666666666,326.17532624198134L1246.3666666666666,326.3061960143182L1251,326.4332925180513L1251,326.6408945935965L1251,326.79215600848954L1253.3166666666666,326.93922881044546L1253.3166666666666,327.0227645787007L1253.3166666666666,327.23055210714966L1255.6333333333332,327.255889580697L1257.95,327.3883425809084L1260.2666666666667,327.52228527521027L1260.2666666666667,327.65799453580917L1260.2666666666667,327.87359126235754L1260.2666666666667,328.0451403303802L1260.2666666666667,328.2155417127087L1262.5833333333333,328.2664794565002L1262.5833333333333,328.37235038291095L1262.5833333333333,328.4595147540724L1264.9,328.59451207794467L1264.9,328.7600033310667L1267.2166666666667,328.9074836618046L1271.8500000000001,329.0480124207623L1271.8500000000001,329.2283765617612L1274.1666666666665,329.37352830908475L1274.1666666666665,329.47574114174313" style="fill: none;" fill="none"></path></g></g></g></g><g opacity="0.2"><g><g><g><path stroke="rgb(255, 112, 67)" stroke-width="2px" d="M120.46666666666667,-61.68327764376113L122.78333333333333,77.6450831031172L122.78333333333333,2.210849985671757L122.78333333333333,2.6854860891297676L122.78333333333333,23.809463863072608L125.1,-30.22195163385004L125.1,38.020752347252596L125.1,-25.98459903020722L127.41666666666666,45.507766570381136L129.73333333333335,129.54791162170048L129.73333333333335,9.072587760245028L134.36666666666667,154.8312020077576L134.36666666666667,61.95112317716843L136.68333333333334,50.61528954470765L136.68333333333334,32.06969826563238L136.68333333333334,81.9971638431104L139,150.4865995562276L139,142.42929973517843L139,172.2646906137663L141.31666666666666,140.70692814077745L141.31666666666666,102.17998834555351L143.63333333333333,96.65559577954781L143.63333333333333,103.19473229365536L143.63333333333333,140.88126589874756L143.63333333333333,62.91915475069999L145.95,78.02446926942946L145.95,153.88494585365325L145.95,139.6511637611234L148.26666666666668,116.50047245002338L148.26666666666668,78.39592826230347L148.26666666666668,255.22515773546772L148.26666666666668,146.25962266503294L150.58333333333334,142.57019220266443L150.58333333333334,206.70407740255877L152.9,132.4174236544446L152.9,48.545083478945685L157.53333333333333,216.0699470054013L157.53333333333333,129.24910712040875L157.53333333333333,165.65718064443104L157.53333333333333,78.68392629848188L159.85,138.71762023484467L159.85,136.98271338367343L159.85,151.74618091691937L162.16666666666666,135.50619444546444L166.79999999999998,156.60319274891452L166.79999999999998,176.45537850828225L171.43333333333334,209.98291319283203L173.75,237.0513546629509L173.75,214.04165494322396L173.75,151.44579877556015L176.0666666666667,224.35704291776716L178.38333333333333,294.86873995628054L180.70000000000002,206.7178683978564L183.01666666666665,103.37762087717817L183.01666666666665,238.63063995469295L183.01666666666665,17.463018330023772L192.28333333333333,146.37455692448643L192.28333333333333,153.44164985852504L192.28333333333333,145.82742396379527L192.28333333333333,176.56446442836L194.60000000000002,75.27897695969949L194.60000000000002,88.35085015697297L194.60000000000002,61.891427090163575L194.60000000000002,168.6792199384517L196.91666666666666,144.17704560442422L196.91666666666666,198.20240260106752L196.91666666666666,117.45917000428466L196.91666666666666,174.43475765025684L196.91666666666666,55.12238454487186L199.23333333333335,208.48597381363336L201.54999999999998,91.27635526284098L201.54999999999998,216.1617499310958L206.18333333333334,173.18286136823116L206.18333333333334,185.42565596421434L206.18333333333334,152.02784894292952L206.18333333333334,182.6928648425935L206.18333333333334,228.19526488146187L208.5,169.51008140228248L208.5,181.34994841749733L208.5,172.1285922918456L208.5,269.8489935472365L210.81666666666666,283.4089660158297L210.81666666666666,179.30401594488876L213.13333333333333,217.90584889156557L215.45,126.12428485834369L215.45,227.54241541636588L217.76666666666668,343.62658001169723L217.76666666666668,209.75435246613176L222.4,275.9993766775656L224.71666666666664,181.59996780279155L227.03333333333333,232.71107811046474L227.03333333333333,327.2360238053283L227.03333333333333,222.84688826557718L227.03333333333333,160.60682259957792L229.35000000000002,193.79636965081198L231.66666666666666,292.96066862206584L231.66666666666666,283.5520083677695L231.66666666666666,230.97044345321848L231.66666666666666,185.67887413274389L233.98333333333335,212.84600995762514L233.98333333333335,205.1622019612151L233.98333333333335,272.4836255438117L236.3,272.12285234838765L236.3,128.2432165643257L238.61666666666665,217.27051074322304L240.93333333333334,175.08954544373518L240.93333333333334,163.38048769219628L240.93333333333334,242.8148602462929L240.93333333333334,135.17381818733415L243.24999999999997,159.9214351570349L243.24999999999997,42.69130131326381L243.24999999999997,237.09986757892005L243.24999999999997,147.0029291288585L245.56666666666666,195.54521742559268L245.56666666666666,261.5538537253848L245.56666666666666,216.64235515920592L245.56666666666666,203.2711371917827L245.56666666666666,220.39257257801196L245.56666666666666,241.5624143420307L245.56666666666666,209.18700278255724L247.88333333333335,250.37328431522178L247.88333333333335,201.11469230566425L247.88333333333335,193.6440404145523L252.51666666666668,260.77510501047715L252.51666666666668,219.35348574216738L254.83333333333331,196.8119639431763L257.15,330.53894941616295L257.15,207.37491484408696L257.15,266.42469984624705L257.15,199.51060653109147L259.4666666666667,180.10196789445806L259.4666666666667,261.7670354788139L261.7833333333333,258.0952121197472L264.1,224.58404279365882L264.1,160.18758316626932L264.1,246.22258788366108L266.4166666666667,255.2259404954411L268.73333333333335,323.7709938658161L268.73333333333335,245.03466789834675L271.05,255.43973372765004L271.05,241.91927635984442L271.05,273.2838131015445L271.05,288.06300352889195L273.3666666666667,310.02244756103295L273.3666666666667,232.0973264220228L278,281.9122728010818L278,163.27397130265717L282.6333333333333,307.5106197937291L282.6333333333333,268.6147677794584L282.6333333333333,295.966215735038L284.95,295.6172633786598L284.95,293.119696967803L284.95,206.68672509118494L284.95,182.27270883625638L284.95,289.5173722160997L287.26666666666665,311.7740820314644L287.26666666666665,181.22293773029537L289.58333333333337,258.6975108182063L289.58333333333337,349.0662631637944L289.58333333333337,298.39500417231636L291.9,294.3507593416194L294.2166666666667,333.2013345392365L296.53333333333336,296.9869178663829L298.85,269.0383099837653L298.85,180.64147570336698L298.85,320.33278933297447L303.4833333333333,234.570468048161L303.4833333333333,351.4565792607808L308.1166666666667,208.7078085708868L310.43333333333334,195.71781307422458L310.43333333333334,266.65812235743323L310.43333333333334,323.27043531134234L310.43333333333334,284.3004280823001L312.75,294.81706088552414L315.06666666666666,378.77279865986384L317.3833333333333,202.18717136534266L317.3833333333333,209.9330602643029L317.3833333333333,205.68544141703856L319.7,286.85861605457376L319.7,374.7043861016772L319.7,306.87054309843063L322.01666666666665,218.14294051082373L322.01666666666665,337.4319870649585L324.3333333333333,264.9461815638387L326.65,176.27159042076872L328.96666666666664,304.29297502664383L328.96666666666664,320.4097648228086L331.28333333333336,279.2332735881583L331.28333333333336,244.49540631183535L331.28333333333336,326.94253140440674L333.59999999999997,311.7126268645969L333.59999999999997,265.53284881572785L333.59999999999997,287.69414146003L335.9166666666667,210.57190241390788L340.55,340.66642502629026L340.55,313.2311491120649L340.55,244.06959096078677L342.8666666666667,340.3617155843846L342.8666666666667,313.26554410150504L342.8666666666667,272.79776050589635L342.8666666666667,223.7500575652398L345.18333333333334,289.1180325912837L345.18333333333334,226.4603102885637L345.18333333333334,279.4033189063255L347.5,300.41053048299216L349.81666666666666,264.1588909318125L349.81666666666666,234.7171158945832L352.1333333333334,254.97386767321814L354.45,376.26289277147987L359.08333333333337,332.9206994925834L359.08333333333337,265.7812486016629L359.08333333333337,235.31209483925008L361.40000000000003,269.37991691889954L363.71666666666664,228.3275750667585L366.0333333333333,344.0773412791914L366.0333333333333,244.12012251130338L366.0333333333333,299.0685754732138L370.6666666666667,233.27109550306102L370.6666666666667,292.2722594026559L370.6666666666667,301.44876300403126L372.9833333333333,416.5190064974442L375.3,384.2347842396113L377.6166666666667,298.579577979489L377.6166666666667,392.6110541216878L379.93333333333334,314.5072738654787L379.93333333333334,389.829605580738L379.93333333333334,234.9254020695325L382.25000000000006,349.15127674538104L382.25000000000006,337.5333264012933L384.56666666666666,230.63373438703206L384.56666666666666,392.5327774683926L384.56666666666666,347.56883899890744L386.8833333333333,275.6037284111843L389.20000000000005,380.6798546001226L389.20000000000005,305.3404074158016L389.20000000000005,254.53744093900002L389.20000000000005,333.0708300438393L391.5166666666667,316.35233883978685L391.5166666666667,330.2948428574563L391.5166666666667,284.60907695631016L391.5166666666667,299.57418085641217L391.5166666666667,333.44925082992L393.8333333333333,300.84551740295086L393.8333333333333,251.0072910892971L393.8333333333333,337.7619768879838L398.4666666666667,316.5363039129533L398.4666666666667,252.77088992073757L403.09999999999997,432.59446310478666L405.4166666666667,297.96745389635345L407.73333333333335,341.3085178673834L407.73333333333335,332.5078967478257L407.73333333333335,406.94007343930275L407.73333333333335,266.90613730387304L410.04999999999995,306.87295921546706L410.04999999999995,310.9876929298564L410.04999999999995,360.89659598105595L412.3666666666667,355.6754320253872L414.68333333333334,261.6365492136222L417,361.91522404032304L417,323.40752819333045L417,251.0894055302643L417,300.6786043859094L417,270.3486619881539L417,194.78473444722357L419.3166666666667,330.8733997670829L421.6333333333333,269.20263903459454L421.6333333333333,323.70591920693266L421.6333333333333,404.54877083679025L421.6333333333333,219.33078786039403L421.6333333333333,266.73562311561267L423.95,248.3855665787478L423.95,322.3158325056992L423.95,171.50656866869497L423.95,261.94185043409504L423.95,368.0697752797619L426.26666666666665,353.09087320094466L430.9,359.7202494292084L430.9,380.9977522618481L430.9,274.81633556428955L433.21666666666664,256.38806183396315L437.85,312.97956215381834L437.85,343.12923717336486L440.16666666666663,276.63979477860914L442.48333333333335,344.02001931664495L442.48333333333335,403.9641303803458L442.48333333333335,373.9721151104634L444.8,387.8481542433913L447.1166666666667,278.02913238761744L447.1166666666667,350.4495057002374L447.1166666666667,269.2032987667467L449.4333333333333,311.6308156892309L449.4333333333333,244.35605766370978L451.75,315.59097275086674L454.06666666666666,190.62694270842024L454.06666666666666,281.3779311793407L456.3833333333333,371.94425702078644L456.3833333333333,264.68349380695196L458.70000000000005,277.918098873094L458.70000000000005,402.48966421014467L458.70000000000005,364.49482184812337L463.3333333333333,334.95987789956354L465.65000000000003,274.5567791784524L465.65000000000003,340.8617578320329L467.9666666666667,380.3764928562983L470.2833333333333,357.1130253915878L470.2833333333333,244.55711135867395L470.2833333333333,288.1220776758214L470.2833333333333,319.5729124104968L472.6,249.33908575292827L472.6,368.87338323089267L474.9166666666667,299.2195650819413L477.2333333333333,411.90339104783413L477.2333333333333,196.71681534014212L479.54999999999995,413.48682409729616L479.54999999999995,416.8924687504953L479.54999999999995,327.48166975216816L481.8666666666667,285.3303812143194L484.18333333333334,372.69957991131525L484.18333333333334,414.7135976095207L486.49999999999994,358.4968617302301L488.81666666666666,268.62814367002994L488.81666666666666,384.6537701698727L491.1333333333333,299.6664490271395L491.1333333333333,437.95928349820815L493.45,343.80654829860634L495.7666666666667,365.60537374552746L495.7666666666667,387.5513170626987L495.7666666666667,274.60723980178085L498.0833333333333,398.3253955760337L500.4,392.5791858551913L500.4,239.26248894009325L500.4,482.6971619548674L500.4,292.47960845652824L500.4,332.65853280495526L502.7166666666667,286.24368966751246L502.7166666666667,365.67687247691526L505.03333333333336,420.466344233668L505.03333333333336,401.9070377264786L507.34999999999997,353.6851945051103L507.34999999999997,340.16698284032236L507.34999999999997,341.8564808192037L507.34999999999997,293.1638326762852L507.34999999999997,326.04409289167376L507.34999999999997,353.84459088184906L509.66666666666663,293.95016043254526L509.66666666666663,383.0440413456529L511.98333333333335,342.10747524877485L511.98333333333335,303.63111185142304L514.3,325.8999860170913L514.3,329.2360479810657L516.6166666666667,330.07364698780685L516.6166666666667,294.7944559471671L516.6166666666667,315.152049014799L518.9333333333334,378.80481904957475L518.9333333333334,290.90017696472603L518.9333333333334,381.15007370307825L521.25,383.3192998034584L521.25,375.734722529149L521.25,251.73560179727073L521.25,411.27126599832496L521.25,387.52626195572816L525.8833333333333,261.9946891861875L530.5166666666667,361.97433175413875L532.8333333333334,343.42329851963177L532.8333333333334,324.9568135722367L532.8333333333334,400.11272593070396L537.4666666666667,386.28303851561975L537.4666666666667,314.1020565657617L537.4666666666667,375.817242577348L539.7833333333333,356.7413750565412L539.7833333333333,387.4956187609974L542.1,319.2561542912547L542.1,373.9686310951094L544.4166666666666,380.7273784290569L544.4166666666666,399.24059255653174L546.7333333333333,314.7804392382127L546.7333333333333,364.0332573737853L549.0500000000001,376.07144176758567L549.0500000000001,241.63933972779066L549.0500000000001,389.2447476411032L551.3666666666667,407.00878640240734L551.3666666666667,298.80512857608096L553.6833333333333,382.8341161683942L556,208.88735901228517L556,411.8361069830998L556,331.811233886493L558.3166666666667,305.7398547012472L560.6333333333333,269.93251275384L560.6333333333333,402.38373160065L560.6333333333333,472.2050185265172L560.6333333333333,373.3383059374772L562.95,312.21235500565666L562.95,324.4975560880099L565.2666666666667,401.6776361432113L565.2666666666667,330.2874344279786L565.2666666666667,368.8100414168259L567.5833333333334,402.98014553827346L569.9,368.006412015796L569.9,413.282079749697L572.2166666666667,310.51670818588843L576.85,226.9323647343964L576.85,327.72815202166606L576.85,335.762876985956L576.85,378.77023444927215L579.1666666666667,347.7983915934984L579.1666666666667,332.7710451565971L581.4833333333333,340.6727272824819L583.8,291.66369854029944L583.8,359.7048339038952L583.8,386.7061607743707L586.1166666666667,387.4284915678349L586.1166666666667,322.1696009938939L588.4333333333334,393.4048916902908L590.75,273.1987902144461L590.75,390.3521487470542L590.75,269.3436639778722L593.0666666666667,312.79776187717385L600.0166666666667,366.9726049816513L602.3333333333334,263.4945860096869L602.3333333333334,297.1199138552456L602.3333333333334,428.0169694371285L604.65,366.12885207455645L604.65,366.7011946335543L604.65,311.08693085328264L606.9666666666666,343.7624852879256L606.9666666666666,376.1737027194699L609.2833333333334,290.77548791923607L609.2833333333334,404.0470695198824L609.2833333333334,348.7085437413431L609.2833333333334,380.6950192251381L611.6,340.4922223599008L613.9166666666666,328.84105099388006L616.2333333333333,366.8553163904979L616.2333333333333,344.3853090762686L618.55,315.87005081211646L620.8666666666667,380.9344780098885L620.8666666666667,365.62278274005035L623.1833333333333,447.40210619726236L625.5,460.0743674587244L627.8166666666666,213.79178117753864L627.8166666666666,332.23129499653146L627.8166666666666,264.5011159011829L630.1333333333333,342.02408186320275L630.1333333333333,381.43947770543264L632.45,373.08695204053924L632.45,327.5823941456857L634.7666666666667,432.1877565384256L634.7666666666667,372.4376188728093L637.0833333333333,307.0040251499167L637.0833333333333,337.487322456522L637.0833333333333,266.1514014412942L637.0833333333333,459.6558998810746L639.4,386.9304486122074L639.4,276.93818647681405L641.7166666666667,395.5311358890175L644.0333333333333,277.7320755747895L646.35,339.1840403381463L646.35,365.1759550293409L646.35,448.45307503399L648.6666666666666,372.55208048218884L648.6666666666666,411.5406318585015L648.6666666666666,313.9091575949068L648.6666666666666,393.03992663746016L648.6666666666666,348.3968175770647L648.6666666666666,369.8577422391079L650.9833333333333,310.65780439846867L653.3,303.1976105118631L653.3,364.4325665401886L655.6166666666667,423.56878642582944L655.6166666666667,355.7879244244429L657.9333333333333,398.52685244089497L657.9333333333333,434.8871401063409L660.25,346.1424728955321L660.25,397.45173590556647L660.25,350.4653953079121L660.25,357.47662304016546L662.5666666666667,304.01571550759996L662.5666666666667,257.74040413408585L664.8833333333333,329.5509835045476L664.8833333333333,438.93359708161915L664.8833333333333,300.42286793764833L669.5166666666667,405.0453538997997L671.8333333333334,372.57227228063005L671.8333333333334,373.4005385670497L674.15,403.8330666133269L676.4666666666667,292.3897040917982L678.7833333333333,419.64019127517696L681.1,356.330742456625L681.1,224.47790531570388L681.1,332.5881720438457L681.1,350.98095303243014L681.1,369.0395752819792L681.1,370.0746007444242L683.4166666666666,455.46349286422713L685.7333333333333,371.87517618351694L685.7333333333333,362.2931699424405L685.7333333333333,386.0138652736788L690.3666666666667,425.202353631307L690.3666666666667,289.3309138154821L690.3666666666667,423.34540072484765L690.3666666666667,349.62502062579904L690.3666666666667,183.7628356637247L690.3666666666667,316.748441013515L690.3666666666667,411.80233897994344L690.3666666666667,350.98242689361587L692.6833333333334,382.44875686770513L692.6833333333334,374.121706088853L697.3166666666667,392.3358423331653L697.3166666666667,396.58340629528635L699.6333333333333,335.88594804389055L699.6333333333333,392.29955290034474L699.6333333333333,361.066143269027L704.2666666666668,254.00086952005054L706.5833333333333,313.13954110915256L708.9,407.93770625468676L708.9,467.1270457258498L711.2166666666667,369.41399167859925L711.2166666666667,365.10467722130977L713.5333333333333,326.7230630091888L713.5333333333333,351.6546319549801L713.5333333333333,364.1083649030546L713.5333333333333,449.0903966982075L715.85,381.28549305192325L715.85,342.6477934300668L715.85,464.6361376724707L715.85,383.91859421723376L720.4833333333333,282.28266786481925L722.8000000000001,419.61129990440423L722.8000000000001,350.82050198429874L722.8000000000001,438.4521909402621L725.1166666666666,419.8919923880315L725.1166666666666,331.6331118215393L727.4333333333333,409.60309228633616L729.75,462.18936750602967L729.75,292.7607665951805L732.0666666666666,380.9813781163113L732.0666666666666,376.4260099873714L732.0666666666666,378.2949407251441L732.0666666666666,397.6226115571544L732.0666666666666,293.8778971067373L734.3833333333333,376.405774054976L734.3833333333333,411.27171835989515L736.7,360.80503260031224L739.0166666666667,391.4109410316917L748.2833333333333,378.60269872669306L748.2833333333333,374.22045325511596L748.2833333333333,418.3577801776271L752.9166666666666,414.7467694879439L752.9166666666666,370.899502704978L755.2333333333333,426.4304322618649L755.2333333333333,374.03601317253873L757.5500000000001,411.82666424560165L762.1833333333334,439.7628055480751L762.1833333333334,302.87404137657575L762.1833333333334,430.995478525391L764.5000000000001,369.64492900356686L766.8166666666666,305.6925479956921L769.1333333333333,230.59272613700406L769.1333333333333,371.2563039147428L769.1333333333333,364.4958639214388L771.45,411.42397528972265L771.45,294.1494214369724L773.7666666666667,172.05730261860614L773.7666666666667,407.35812710950444L773.7666666666667,264.8154685231574L776.0833333333334,342.1656617756212L776.0833333333334,346.70886725650706L776.0833333333334,408.96047185695807L780.7166666666666,501.5192644127228L783.0333333333334,361.13307724717L783.0333333333334,407.76619747105894L785.3499999999999,345.5988260224831L785.3499999999999,404.0872478821184L787.6666666666666,293.24626961419006L789.9833333333333,426.716280851825L792.3,313.9018930613957L792.3,377.144200354992L794.6166666666667,425.2069337565808L801.5666666666666,422.31883781385164L801.5666666666666,364.2594560674064L803.8833333333333,412.305371201578L803.8833333333333,421.42038301244065L803.8833333333333,336.11039366038966L806.1999999999999,380.6223499289125L806.1999999999999,436.2341748936934L808.5166666666667,324.9053639744974L810.8333333333334,381.7238879683544L810.8333333333334,376.7378227315909L810.8333333333334,402.5037768792942L813.15,431.37656853990603L813.15,347.54066518966323L813.15,447.54504684215476L815.4666666666667,373.5180773788811L817.7833333333334,299.3761814694235L820.0999999999999,467.20047985559984L827.05,381.1258233849757L827.05,335.40821394415195L827.05,446.4068087786847L827.05,361.41441727718075L829.3666666666667,363.40989842777986L829.3666666666667,409.293956492241L831.6833333333334,438.3920148912529L831.6833333333334,374.74447044417525L836.3166666666667,418.67052324575076L836.3166666666667,403.62031803401857L836.3166666666667,325.8793752325648L838.6333333333334,357.3033684891664L838.6333333333334,366.98568463517336L840.9499999999999,354.10041961887947L840.9499999999999,433.8484191585973L847.9,305.4282198982809L850.2166666666667,387.41242041675304L857.1666666666667,394.1004345532559L859.4833333333332,377.7693079545796L859.4833333333332,452.4465441113465L864.1166666666667,382.80893520476934L864.1166666666667,336.43918199858797L864.1166666666667,377.0156686658424L864.1166666666667,440.77826923143294L871.0666666666667,411.77521614363206L873.3833333333333,288.85650800211477L873.3833333333333,421.40800757360375L875.7,376.87394291613424L875.7,420.6425553419546L884.9666666666667,399.612332868206L887.2833333333333,347.607243223816L887.2833333333333,388.36468978715914L889.6,448.2432090558176L891.9166666666667,337.26004407287155L894.2333333333333,348.12333707956526L894.2333333333333,349.5731751084643L896.5500000000001,421.90846454770656L898.8666666666666,422.30740500476793L903.5,308.49446462627327L905.8166666666666,364.8389845006599L905.8166666666666,398.0403965574321L908.1333333333333,360.9273104691141L908.1333333333333,361.13583716801577L908.1333333333333,440.24960851338636L910.45,428.39416676298356L910.45,349.7438943617888L912.7666666666667,502.84912567596825L915.0833333333334,404.23187590581875L915.0833333333334,290.6657141909063L915.0833333333334,466.9675159502265L917.4000000000001,421.97292259028376L919.7166666666666,277.7026216724265L922.0333333333333,278.7724491128935L926.6666666666666,359.1082930403813L926.6666666666666,368.44791467878355L928.9833333333333,360.7401590002518L928.9833333333333,400.32664049541484L938.2500000000001,509.4530965756684L938.2500000000001,336.48601445811255L938.2500000000001,412.4895842600112L942.8833333333333,449.31747497525214L942.8833333333333,370.3568185647747L942.8833333333333,513.809825646764L945.2,257.8180534888803L945.2,346.0352233259366L945.2,453.83942575252826L949.8333333333334,457.7434275321756L949.8333333333334,271.50383171043893L952.1500000000001,358.94946529996116L952.1500000000001,342.56832830703826L954.4666666666666,331.4896904392753L954.4666666666666,447.92457118367156L975.3166666666666,420.9218605781297L977.6333333333333,364.521504755175L977.6333333333333,391.9448994145626L979.9499999999999,425.50465382023805L979.9499999999999,337.1495730431723L982.2666666666667,389.42654079922573L982.2666666666667,369.7952838619427L982.2666666666667,308.47892988525655L984.5833333333334,383.9302175796837L984.5833333333334,442.7298872572495L984.5833333333334,349.53222378914245L986.9,428.93743963710415L989.2166666666667,391.683018803763L989.2166666666667,346.11477398725117L989.2166666666667,356.19679184995016L991.5333333333334,367.90763191873083L991.5333333333334,394.8825917160198L993.8499999999999,409.8607765866569L998.4833333333333,326.42069522811266L998.4833333333333,255.4063973073916L998.4833333333333,332.32802622760676L1000.8,331.7573045437933L1003.1166666666667,378.2181865549776L1003.1166666666667,460.1539425837473L1003.1166666666667,362.11669922831726L1005.4333333333334,338.50588531936165L1005.4333333333334,306.97153478866414L1005.4333333333334,539.8094055541592L1005.4333333333334,370.6834037647838L1005.4333333333334,327.3152726886842L1005.4333333333334,332.40161149102033L1007.75,457.43199164549264L1010.0666666666667,394.33821365746047L1010.0666666666667,202.62248044577342L1010.0666666666667,400.95222963712945L1014.6999999999999,389.706647133005L1014.6999999999999,369.46427795186816L1017.0166666666667,428.0245396628999L1017.0166666666667,334.71362717193864L1019.3333333333333,327.85950759114337L1019.3333333333333,318.03268121230616L1021.65,478.2987388224981L1021.65,372.7198296730773L1023.9666666666667,348.92637493875L1023.9666666666667,425.2383892429563L1026.2833333333333,310.90947519595977L1026.2833333333333,396.32170066727036L1028.6,335.26794327758734L1030.9166666666667,403.33384874565957L1033.2333333333333,372.6183063186379L1033.2333333333333,199.43201451169097L1035.55,439.87144740069226L1035.55,411.2952423884026L1037.8666666666668,311.5239115709053L1037.8666666666668,418.9422961209556L1042.5,280.03341428681864L1042.5,423.0965974211838L1047.1333333333332,422.1996518480774L1049.45,366.06757350387227L1051.7666666666667,388.2289115856543L1051.7666666666667,388.4629556720122L1054.0833333333333,374.4679943859367L1054.0833333333333,309.00140825487574L1056.4,316.78319000373375L1056.4,353.61513485754796L1058.7166666666667,414.11489628231834L1058.7166666666667,430.45477360056236L1061.0333333333333,357.43280767637305L1061.0333333333333,414.08192320882375L1061.0333333333333,373.92081040341714L1063.35,315.2404851534802L1063.35,434.93162821848983L1065.6666666666667,318.7169112248841L1065.6666666666667,398.97428190105825L1065.6666666666667,324.8664234638741L1067.9833333333333,441.9696809389087L1070.3,353.860779121746L1070.3,441.9778769971173L1072.6166666666666,428.76438921066693L1074.9333333333334,297.9129447295205L1074.9333333333334,396.1334519636934L1077.25,356.02945805891153L1077.25,355.67417847268666L1077.25,412.93450741339876L1079.5666666666666,339.67530771284765L1079.5666666666666,388.41069775649703L1081.8833333333332,377.21915110241923L1084.2,387.4259488929874L1084.2,460.5727745996407L1084.2,359.12284148292076L1086.5166666666667,412.5164704788325L1086.5166666666667,372.220541201368L1086.5166666666667,398.3513792793803L1088.8333333333333,406.99846900657104L1091.15,368.2500835301002L1091.15,344.19496954777696L1093.4666666666667,352.9099509566691L1098.1000000000001,378.2998510983562L1100.4166666666665,426.4006178880468L1100.4166666666665,350.43823250589185L1100.4166666666665,450.2705049135996L1102.7333333333333,381.031857147235L1105.05,351.92998512247095L1105.05,390.2600660211302L1105.05,460.02072409721706L1107.3666666666666,348.1883449364041L1107.3666666666666,325.04584949453294L1114.3166666666666,330.7640430909908L1114.3166666666666,381.2918690670152L1114.3166666666666,254.16225755695427L1114.3166666666666,452.36594931190587L1114.3166666666666,432.8839348363417L1114.3166666666666,310.70593806817294L1116.6333333333334,402.59257082070695L1118.95,361.4616550156401L1121.2666666666667,389.71926951740187L1123.5833333333333,385.20521456492287L1123.5833333333333,319.02592582545526L1125.9,359.13656367125407L1125.9,419.96812958062304L1128.2166666666667,320.9090645504487L1128.2166666666667,365.78893261836623L1128.2166666666667,331.5223399063194L1128.2166666666667,329.11635524273856L1130.5333333333333,435.06521802074815L1130.5333333333333,361.09317976831954L1130.5333333333333,385.57250181817165L1132.85,384.14566328893903L1132.85,233.23856713730763L1135.1666666666667,417.6632968983837L1135.1666666666667,299.5195184699717L1135.1666666666667,348.45963517088614L1135.1666666666667,456.1520353674387L1137.4833333333333,339.62427497378616L1137.4833333333333,400.30347688427753L1139.8,415.8692183713043L1139.8,368.4767392492267L1139.8,441.2656381290502L1142.1166666666666,392.2025723332001L1144.4333333333334,333.6305327309012L1144.4333333333334,411.7826566031723L1146.75,388.2738571119557L1146.75,326.96755256949285L1146.75,301.8067712380358L1146.75,349.4470285532738L1149.0666666666666,308.65395635718164L1151.3833333333334,354.3723838043918L1151.3833333333334,383.42825556482427L1162.9666666666667,460.5798149146291L1162.9666666666667,309.20745200606154L1162.9666666666667,413.7616248571589L1165.2833333333333,461.6817969828347L1167.6,300.07926045253794L1169.9166666666667,352.4096204051915L1172.2333333333333,352.07323588622154L1172.2333333333333,411.5744413672844L1174.55,328.9709051495678L1174.55,424.41310926804L1176.8666666666668,415.7782120857961L1179.1833333333334,373.08850707761013L1179.1833333333334,329.45606608418103L1179.1833333333334,347.5702709740578L1179.1833333333334,338.49355434116586L1181.5,432.6224054685533L1186.1333333333334,394.2670814457533L1188.45,355.8821736995163L1190.7666666666667,480.68952155879447L1193.0833333333333,367.3954588718986L1195.4,393.258329283861L1197.7166666666667,412.3383042575106L1197.7166666666667,326.01616042160316L1197.7166666666667,389.85081614220115L1200.0333333333333,413.2266013802398L1202.35,356.23283249170856L1202.35,490.68881219702575L1204.6666666666667,501.12515723736897L1206.9833333333333,285.9768661112533L1206.9833333333333,459.6767567267698L1213.9333333333332,384.1358734438827L1216.25,235.3319218389633L1216.25,365.27393821485293L1218.5666666666668,327.0542165501783L1218.5666666666668,435.62663869258927L1218.5666666666668,317.56593872323435L1220.8833333333332,367.3195554349487L1220.8833333333332,398.39983302241166L1230.15,444.41133038529256L1232.4666666666667,363.96099008978763L1232.4666666666667,459.23522580545034L1246.3666666666666,443.02598612528294L1246.3666666666666,326.328624423566L1246.3666666666666,426.9796055164644L1253.3166666666666,518.6951164240263L1255.6333333333332,343.67478119447816L1257.95,430.21631916791955L1260.2666666666667,472.1781030523051L1262.5833333333333,362.7149697535667L1262.5833333333333,406.9283229938789" style="fill: none;" fill="none"></path></g></g></g></g></g></g><g transform="translate(58, 378)" clip-path="url(#clip_1)"><clipPath id="clip_1"><rect width="1390" height="22"></rect></clipPath><g><g><line x1="0" y1="0" x2="0" y2="5" style="visibility: inherit;" fill="rgb(0, 0, 0)" stroke="rgb(204, 204, 204)" stroke-width="1px"></line><line x1="115.83333333333333" y1="0" x2="115.83333333333333" y2="5" style="visibility: inherit;" fill="rgb(0, 0, 0)" stroke="rgb(204, 204, 204)" stroke-width="1px"></line><line x1="231.66666666666666" y1="0" x2="231.66666666666666" y2="5" style="visibility: inherit;" fill="rgb(0, 0, 0)" stroke="rgb(204, 204, 204)" stroke-width="1px"></line><line x1="347.5" y1="0" x2="347.5" y2="5" style="visibility: inherit;" fill="rgb(0, 0, 0)" stroke="rgb(204, 204, 204)" stroke-width="1px"></line><line x1="463.3333333333333" y1="0" x2="463.3333333333333" y2="5" style="visibility: inherit;" fill="rgb(0, 0, 0)" stroke="rgb(204, 204, 204)" stroke-width="1px"></line><line x1="579.1666666666667" y1="0" x2="579.1666666666667" y2="5" style="visibility: inherit;" fill="rgb(0, 0, 0)" stroke="rgb(204, 204, 204)" stroke-width="1px"></line><line x1="695" y1="0" x2="695" y2="5" style="visibility: inherit;" fill="rgb(0, 0, 0)" stroke="rgb(204, 204, 204)" stroke-width="1px"></line><line x1="810.8333333333334" y1="0" x2="810.8333333333334" y2="5" style="visibility: inherit;" fill="rgb(0, 0, 0)" stroke="rgb(204, 204, 204)" stroke-width="1px"></line><line x1="926.6666666666666" y1="0" x2="926.6666666666666" y2="5" style="visibility: inherit;" fill="rgb(0, 0, 0)" stroke="rgb(204, 204, 204)" stroke-width="1px"></line><line x1="1042.5" y1="0" x2="1042.5" y2="5" style="visibility: inherit;" fill="rgb(0, 0, 0)" stroke="rgb(204, 204, 204)" stroke-width="1px"></line><line x1="1158.3333333333335" y1="0" x2="1158.3333333333335" y2="5" style="visibility: inherit;" fill="rgb(0, 0, 0)" stroke="rgb(204, 204, 204)" stroke-width="1px"></line><line x1="1274.1666666666665" y1="0" x2="1274.1666666666665" y2="5" style="visibility: inherit;" fill="rgb(0, 0, 0)" stroke="rgb(204, 204, 204)" stroke-width="1px"></line><line x1="1390" y1="0" x2="1390" y2="5" style="visibility: inherit;" fill="rgb(0, 0, 0)" stroke="rgb(204, 204, 204)" stroke-width="1px"></line></g><g transform="translate(0, 8)"><text x="0" y="0" dx="0em" dy="0.95em" style="text-anchor: middle; visibility: hidden; font-family: &quot;Helvetica Neue&quot;, sans-serif; font-size: 12px; font-weight: 200;" fill="rgb(50, 49, 63)" stroke="none" stroke-width="1px">-50</text><text x="115.83333333333333" y="0" dx="0em" dy="0.95em" style="text-anchor: middle; visibility: inherit; font-family: &quot;Helvetica Neue&quot;, sans-serif; font-size: 12px; font-weight: 200;" fill="rgb(50, 49, 63)" stroke="none" stroke-width="1px">0</text><text x="231.66666666666666" y="0" dx="0em" dy="0.95em" style="text-anchor: middle; visibility: inherit; font-family: &quot;Helvetica Neue&quot;, sans-serif; font-size: 12px; font-weight: 200;" fill="rgb(50, 49, 63)" stroke="none" stroke-width="1px">50</text><text x="347.5" y="0" dx="0em" dy="0.95em" style="text-anchor: middle; visibility: inherit; font-family: &quot;Helvetica Neue&quot;, sans-serif; font-size: 12px; font-weight: 200;" fill="rgb(50, 49, 63)" stroke="none" stroke-width="1px">100</text><text x="463.3333333333333" y="0" dx="0em" dy="0.95em" style="text-anchor: middle; visibility: inherit; font-family: &quot;Helvetica Neue&quot;, sans-serif; font-size: 12px; font-weight: 200;" fill="rgb(50, 49, 63)" stroke="none" stroke-width="1px">150</text><text x="579.1666666666667" y="0" dx="0em" dy="0.95em" style="text-anchor: middle; visibility: inherit; font-family: &quot;Helvetica Neue&quot;, sans-serif; font-size: 12px; font-weight: 200;" fill="rgb(50, 49, 63)" stroke="none" stroke-width="1px">200</text><text x="695" y="0" dx="0em" dy="0.95em" style="text-anchor: middle; visibility: inherit; font-family: &quot;Helvetica Neue&quot;, sans-serif; font-size: 12px; font-weight: 200;" fill="rgb(50, 49, 63)" stroke="none" stroke-width="1px">250</text><text x="810.8333333333334" y="0" dx="0em" dy="0.95em" style="text-anchor: middle; visibility: inherit; font-family: &quot;Helvetica Neue&quot;, sans-serif; font-size: 12px; font-weight: 200;" fill="rgb(50, 49, 63)" stroke="none" stroke-width="1px">300</text><text x="926.6666666666666" y="0" dx="0em" dy="0.95em" style="text-anchor: middle; visibility: inherit; font-family: &quot;Helvetica Neue&quot;, sans-serif; font-size: 12px; font-weight: 200;" fill="rgb(50, 49, 63)" stroke="none" stroke-width="1px">350</text><text x="1042.5" y="0" dx="0em" dy="0.95em" style="text-anchor: middle; visibility: inherit; font-family: &quot;Helvetica Neue&quot;, sans-serif; font-size: 12px; font-weight: 200;" fill="rgb(50, 49, 63)" stroke="none" stroke-width="1px">400</text><text x="1158.3333333333335" y="0" dx="0em" dy="0.95em" style="text-anchor: middle; visibility: inherit; font-family: &quot;Helvetica Neue&quot;, sans-serif; font-size: 12px; font-weight: 200;" fill="rgb(50, 49, 63)" stroke="none" stroke-width="1px">450</text><text x="1274.1666666666665" y="0" dx="0em" dy="0.95em" style="text-anchor: middle; visibility: inherit; font-family: &quot;Helvetica Neue&quot;, sans-serif; font-size: 12px; font-weight: 200;" fill="rgb(50, 49, 63)" stroke="none" stroke-width="1px">500</text><text x="1390" y="0" dx="0em" dy="0.95em" style="text-anchor: middle; visibility: hidden; font-family: &quot;Helvetica Neue&quot;, sans-serif; font-size: 12px; font-weight: 200;" fill="rgb(50, 49, 63)" stroke="none" stroke-width="1px">550</text></g><line x1="0" y1="0" x2="1390" y2="0" fill="rgb(0, 0, 0)" stroke="rgb(204, 204, 204)" stroke-width="1px"></line></g></g></g></g></svg>