<svg viewBox="0 0 1448 400" xmlns="http://www.w3.org/2000/svg"><g><g><g><g><g><line x1="70" y1="378" x2="65" y2="378" style="visibility: inherit;" fill="rgb(0, 0, 0)" stroke="rgb(204, 204, 204)" stroke-width="1px"></line><line x1="70" y1="340.2" x2="65" y2="340.2" style="visibility: inherit;" fill="rgb(0, 0, 0)" stroke="rgb(204, 204, 204)" stroke-width="1px"></line><line x1="70" y1="302.4" x2="65" y2="302.4" style="visibility: inherit;" fill="rgb(0, 0, 0)" stroke="rgb(204, 204, 204)" stroke-width="1px"></line><line x1="70" y1="264.6" x2="65" y2="264.6" style="visibility: inherit;" fill="rgb(0, 0, 0)" stroke="rgb(204, 204, 204)" stroke-width="1px"></line><line x1="70" y1="226.79999999999998" x2="65" y2="226.79999999999998" style="visibility: inherit;" fill="rgb(0, 0, 0)" stroke="rgb(204, 204, 204)" stroke-width="1px"></line><line x1="70" y1="188.99999999999997" x2="65" y2="188.99999999999997" style="visibility: inherit;" fill="rgb(0, 0, 0)" stroke="rgb(204, 204, 204)" stroke-width="1px"></line><line x1="70" y1="151.19999999999996" x2="65" y2="151.19999999999996" style="visibility: inherit;" fill="rgb(0, 0, 0)" stroke="rgb(204, 204, 204)" stroke-width="1px"></line><line x1="70" y1="113.40000000000003" x2="65" y2="113.40000000000003" style="visibility: inherit;" fill="rgb(0, 0, 0)" stroke="rgb(204, 204, 204)" stroke-width="1px"></line><line x1="70" y1="75.59999999999997" x2="65" y2="75.59999999999997" style="visibility: inherit;" fill="rgb(0, 0, 0)" stroke="rgb(204, 204, 204)" stroke-width="1px"></line><line x1="70" y1="37.80000000000001" x2="65" y2="37.80000000000001" style="visibility: inherit;" fill="rgb(0, 0, 0)" stroke="rgb(204, 204, 204)" stroke-width="1px"></line><line x1="70" y1="0" x2="65" y2="0" style="visibility: inherit;" fill="rgb(0, 0, 0)" stroke="rgb(204, 204, 204)" stroke-width="1px"></line></g><g transform="translate(60, 0)"><text x="0" y="378" dx="0em" dy="0.3em" style="text-anchor: end; visibility: hidden; font-family: &quot;Helvetica Neue&quot;, sans-serif; font-size: 12px; font-weight: 200;" fill="rgb(50, 49, 63)" stroke="none" stroke-width="1px">-0.02</text><text x="0" y="340.2" dx="0em" dy="0.3em" style="text-anchor: end; visibility: inherit; font-family: &quot;Helvetica Neue&quot;, sans-serif; font-size: 12px; font-weight: 200;" fill="rgb(50, 49, 63)" stroke="none" stroke-width="1px">0</text><text x="0" y="302.4" dx="0em" dy="0.3em" style="text-anchor: end; visibility: inherit; font-family: &quot;Helvetica Neue&quot;, sans-serif; font-size: 12px; font-weight: 200;" fill="rgb(50, 49, 63)" stroke="none" stroke-width="1px">0.02</text><text x="0" y="264.6" dx="0em" dy="0.3em" style="text-anchor: end; visibility: inherit; font-family: &quot;Helvetica Neue&quot;, sans-serif; font-size: 12px; font-weight: 200;" fill="rgb(50, 49, 63)" stroke="none" stroke-width="1px">0.04</text><text x="0" y="226.79999999999998" dx="0em" dy="0.3em" style="text-anchor: end; visibility: inherit; font-family: &quot;Helvetica Neue&quot;, sans-serif; font-size: 12px; font-weight: 200;" fill="rgb(50, 49, 63)" stroke="none" stroke-width="1px">0.06</text><text x="0" y="188.99999999999997" dx="0em" dy="0.3em" style="text-anchor: end; visibility: inherit; font-family: &quot;Helvetica Neue&quot;, sans-serif; font-size: 12px; font-weight: 200;" fill="rgb(50, 49, 63)" stroke="none" stroke-width="1px">0.08</text><text x="0" y="151.19999999999996" dx="0em" dy="0.3em" style="text-anchor: end; visibility: inherit; font-family: &quot;Helvetica Neue&quot;, sans-serif; font-size: 12px; font-weight: 200;" fill="rgb(50, 49, 63)" stroke="none" stroke-width="1px">0.1</text><text x="0" y="113.40000000000003" dx="0em" dy="0.3em" style="text-anchor: end; visibility: inherit; font-family: &quot;Helvetica Neue&quot;, sans-serif; font-size: 12px; font-weight: 200;" fill="rgb(50, 49, 63)" stroke="none" stroke-width="1px">0.12</text><text x="0" y="75.59999999999997" dx="0em" dy="0.3em" style="text-anchor: end; visibility: inherit; font-family: &quot;Helvetica Neue&quot;, sans-serif; font-size: 12px; font-weight: 200;" fill="rgb(50, 49, 63)" stroke="none" stroke-width="1px">0.14</text><text x="0" y="37.80000000000001" dx="0em" dy="0.3em" style="text-anchor: end; visibility: inherit; font-family: &quot;Helvetica Neue&quot;, sans-serif; font-size: 12px; font-weight: 200;" fill="rgb(50, 49, 63)" stroke="none" stroke-width="1px">0.16</text><text x="0" y="0" dx="0em" dy="0.3em" style="text-anchor: end; visibility: hidden; font-family: &quot;Helvetica Neue&quot;, sans-serif; font-size: 12px; font-weight: 200;" fill="rgb(50, 49, 63)" stroke="none" stroke-width="1px">0.18</text></g><line x1="70" y1="0" x2="70" y2="378" fill="rgb(0, 0, 0)" stroke="rgb(204, 204, 204)" stroke-width="1px"></line></g></g><g transform="translate(70, 0)" clip-path="url(#clip_0)"><clipPath id="clip_0"><rect width="1378" height="378"></rect></clipPath><g><g><g><line x1="0" y1="0" x2="0" y2="378" fill="rgb(0, 0, 0)" stroke="rgb(60, 60, 60)" stroke-width="1px" opacity="0.25"></line><line x1="91.86666666666666" y1="0" x2="91.86666666666666" y2="378" fill="rgb(0, 0, 0)" stroke="rgb(60, 60, 60)" stroke-width="1px" opacity="0.25"></line><line x1="183.73333333333332" y1="0" x2="183.73333333333332" y2="378" fill="rgb(0, 0, 0)" stroke="rgb(60, 60, 60)" stroke-width="1px" opacity="0.25"></line><line x1="275.6000000000001" y1="0" x2="275.6000000000001" y2="378" fill="rgb(0, 0, 0)" stroke="rgb(60, 60, 60)" stroke-width="1px" opacity="0.25"></line><line x1="367.46666666666664" y1="0" x2="367.46666666666664" y2="378" fill="rgb(0, 0, 0)" stroke="rgb(60, 60, 60)" stroke-width="1px" opacity="0.25"></line><line x1="459.3333333333333" y1="0" x2="459.3333333333333" y2="378" fill="rgb(0, 0, 0)" stroke="rgb(60, 60, 60)" stroke-width="1px" opacity="0.25"></line><line x1="551.1999999999999" y1="0" x2="551.1999999999999" y2="378" fill="rgb(0, 0, 0)" stroke="rgb(60, 60, 60)" stroke-width="1px" opacity="0.25"></line><line x1="643.0666666666666" y1="0" x2="643.0666666666666" y2="378" fill="rgb(0, 0, 0)" stroke="rgb(60, 60, 60)" stroke-width="1px" opacity="0.25"></line><line x1="734.9333333333333" y1="0" x2="734.9333333333333" y2="378" fill="rgb(0, 0, 0)" stroke="rgb(60, 60, 60)" stroke-width="1px" opacity="0.25"></line><line x1="826.8" y1="0" x2="826.8" y2="378" fill="rgb(0, 0, 0)" stroke="rgb(60, 60, 60)" stroke-width="1px" opacity="0.25"></line><line x1="918.6666666666666" y1="0" x2="918.6666666666666" y2="378" fill="rgb(0, 0, 0)" stroke="rgb(60, 60, 60)" stroke-width="1px" opacity="0.25"></line><line x1="1010.5333333333334" y1="0" x2="1010.5333333333334" y2="378" fill="rgb(0, 0, 0)" stroke="rgb(60, 60, 60)" stroke-width="1px" opacity="0.25"></line><line x1="1102.4000000000003" y1="0" x2="1102.4000000000003" y2="378" fill="rgb(0, 0, 0)" stroke="rgb(60, 60, 60)" stroke-width="1px" opacity="0.25"></line><line x1="1194.2666666666667" y1="0" x2="1194.2666666666667" y2="378" fill="rgb(0, 0, 0)" stroke="rgb(60, 60, 60)" stroke-width="1px" opacity="0.25"></line><line x1="1286.1333333333334" y1="0" x2="1286.1333333333334" y2="378" fill="rgb(0, 0, 0)" stroke="rgb(60, 60, 60)" stroke-width="1px" opacity="0.25"></line><line x1="1378" y1="0" x2="1378" y2="378" fill="rgb(0, 0, 0)" stroke="rgb(60, 60, 60)" stroke-width="1px" opacity="0.25"></line></g><g><line x1="0" y1="378" x2="1378" y2="378" fill="rgb(0, 0, 0)" stroke="rgb(60, 60, 60)" stroke-width="1px" opacity="0.25"></line><line x1="0" y1="340.2" x2="1378" y2="340.2" fill="rgb(0, 0, 0)" stroke="rgb(60, 60, 60)" stroke-width="1px" opacity="0.25"></line><line x1="0" y1="302.4" x2="1378" y2="302.4" fill="rgb(0, 0, 0)" stroke="rgb(60, 60, 60)" stroke-width="1px" opacity="0.25"></line><line x1="0" y1="264.6" x2="1378" y2="264.6" fill="rgb(0, 0, 0)" stroke="rgb(60, 60, 60)" stroke-width="1px" opacity="0.25"></line><line x1="0" y1="226.79999999999998" x2="1378" y2="226.79999999999998" fill="rgb(0, 0, 0)" stroke="rgb(60, 60, 60)" stroke-width="1px" opacity="0.25"></line><line x1="0" y1="188.99999999999997" x2="1378" y2="188.99999999999997" fill="rgb(0, 0, 0)" stroke="rgb(60, 60, 60)" stroke-width="1px" opacity="0.25"></line><line x1="0" y1="151.19999999999996" x2="1378" y2="151.19999999999996" fill="rgb(0, 0, 0)" stroke="rgb(60, 60, 60)" stroke-width="1px" opacity="0.25"></line><line x1="0" y1="113.40000000000003" x2="1378" y2="113.40000000000003" fill="rgb(0, 0, 0)" stroke="rgb(60, 60, 60)" stroke-width="1px" opacity="0.25"></line><line x1="0" y1="75.59999999999997" x2="1378" y2="75.59999999999997" fill="rgb(0, 0, 0)" stroke="rgb(60, 60, 60)" stroke-width="1px" opacity="0.25"></line><line x1="0" y1="37.80000000000001" x2="1378" y2="37.80000000000001" fill="rgb(0, 0, 0)" stroke="rgb(60, 60, 60)" stroke-width="1px" opacity="0.25"></line><line x1="0" y1="0" x2="1378" y2="0" fill="rgb(0, 0, 0)" stroke="rgb(60, 60, 60)" stroke-width="1px" opacity="0.25"></line></g></g></g><g><g><line x1="0" y1="340.2" x2="1378" y2="340.2" fill="rgb(0, 0, 0)" stroke="rgb(153, 153, 153)" stroke-width="1.5px"></line></g></g><g><g><line x1="91.86666666666666" y1="0" x2="91.86666666666666" y2="378" fill="rgb(0, 0, 0)" stroke="rgb(153, 153, 153)" stroke-width="1.5px"></line></g></g><g><g><g><g><g><path stroke="rgb(255, 112, 67)" stroke-width="2px" d="M91.86666666666666,142.0914426863193L92.34641481481482,177.34269635519368L92.44593703703704,171.18444434489624L92.53065851851852,185.4904587534881L93.93519777777779,197.33949853525635L94.41354240740742,202.22697876816125L95.33118833333334,210.89617054251906L95.51173185185186,218.0585483031469L95.67109500000001,204.4324352844175L96.89725981481482,210.266965554247L98.83092555555555,214.31595142268364L99.89492018518519,219.1526371934976L101.19508870370369,224.76240140995733L102.48453944444445,229.88294418198984L102.84805074074073,233.99292237279997L103.77871111111112,237.4730550003667L104.31077222222224,240.5084726666992L106.71487185185187,242.9039882954901L107.08386962962963,243.9295599207411L108.47399092592593,246.68341895137328L109.28292796296297,247.46616924633156L109.38512962962963,250.38002697224448L111.07432796296297,252.61389702742775L114.8251674074074,254.12298140709032L115.4335288888889,255.9437783360097L115.59416796296297,257.11280827202506L117.49453203703702,258.49636743102985L118.58289685185186,260.0178939408525L119.6692201851852,261.57782147455225L123.08436351851853,263.3304632454274L123.75001407407407,263.8671290086215L124.43671740740741,264.8732062127403L124.4992377777778,265.78481049654954L124.9537225925926,267.09712336232394L125.42109425925928,267.9452980742542L125.70205314814817,268.37286519804934L127.48528722222224,269.5240419815357L129.05901425925927,270.3746939840881L129.17218888888888,271.38895784679363L129.63943296296296,272.02719550024653L129.68383518518522,271.8516885708016L130.4038401851852,272.2553562140991L130.7071277777778,273.193917700484L131.3684401851852,273.5068530418864L132.2069787037037,274.3605551009993L138.2098274074074,275.0724028851784L138.24887074074076,274.06214541282606L139.61896000000002,274.8538519985122L140.84321092592594,275.20154898557075L140.959065,275.6750016021286L142.18663333333333,275.986683087228L142.98025925925927,275.72122636679114L143.78141314814815,276.20267841225336L145.00961944444444,276.27007408398055L145.96898814814816,276.8004476501415L146.02053555555554,277.0933369483163L146.1027051851852,277.79686816157925L146.16165296296296,278.23375968721825L147.17205870370373,278.5313865505261L149.56633370370372,279.06569179695794L150.68493796296298,279.45205879498917L150.73635777777778,279.9316825993642L152.43550833333333,280.1033237611646L152.616945,280.4142967133837L154.0296501851852,280.9557558838765L154.21950796296298,281.43416831659215L154.96860407407408,281.63270211748903L155.63132,281.5450134083321L158.09717444444445,282.09629953224726L159.98528962962965,282.4671693023558L161.98466555555555,282.7788142827838L162.09350203703704,283.31538039563L162.51289888888888,283.761951377057L162.811337962963,284.00778822275555L162.86645796296298,284.4913458962695L164.04949648148147,284.8509923828435L164.7025153703704,285.12683943581055L166.26042092592593,285.4897646708698L166.3880135185185,285.7457543414442L168.48869796296296,286.0750756854719L168.85055055555557,286.21362636758624L169.1930090740741,286.54430657549494L170.92992703703706,286.8281400730478L172.31698611111113,287.0475782664425L173.48994481481483,287.2655644105496L173.942132962963,287.6083378589227L174.07380851851855,286.9160688146417L174.99617537037034,287.0773576927999L176.79880351851853,287.27549638900757L177.12186796296294,287.63789916220946L178.37763425925928,287.9232758481219L182.55756759259262,288.18348503728487L183.04777833333335,288.2483030602907L186.1453437037037,288.3224286694333L188.53170796296297,288.46553893556586L188.5412774074074,288.7498472288928L189.0052040740741,288.9300314238952L191.61536574074074,288.9521496231426L194.0415388888889,288.91003678808147L195.44135722222222,289.13852289863433L197.15735,289.2884539377071L199.05784166666666,289.5285947304025L199.43551574074075,289.8368178999081L200.1042285185185,289.98343774858256L202.78737314814813,290.00840522021366L203.69991537037038,290.2422373239939L205.09386444444448,290.3795021601513L205.21431185185182,290.64596653456306L206.4229964814815,290.7700005703746L207.20654259259263,290.835628848642L207.2893501851852,290.8986803105055L207.38415148148147,291.0436758412594L208.52840185185184,291.00147421466266L209.01031907407406,291.3031797175545L213.68888425925925,291.5270880744078L214.7560687037037,291.6716280232265L216.84016611111113,291.8564848949086L218.0655653703704,291.6862615067052L218.14467277777777,291.8161203981284L218.20183425925924,291.988334364856L220.34334833333335,291.8922916692637L220.70099037037036,292.14688770602055L221.3037377777778,292.31770780116415L226.8087201851852,292.5332631760648L227.11060425925925,292.6379770715127L227.89517111111113,292.7013376752098L229.4181162962963,292.93074564818426L230.64606740740737,293.01325861339626L230.77429796296298,293.21125721020815L230.98801555555556,293.31705453033646L231.5679238888889,293.2858753041051L232.75274870370367,293.45805319511777L233.7071412962963,293.44784940699094L234.79537851851853,293.5750240926619L234.821535,293.62826399887194L235.7801381481481,293.79587220776205L236.20221444444442,293.9375366030393L238.44644055555554,293.9595145681866L238.4840803703704,294.0722024259527L239.25422925925926,294.2400822083373L241.4816131481482,294.3711003424738L242.108347962963,294.59972040195555L243.88826462962962,294.72161818640814L244.40539740740738,294.84334439606243L244.57547833333334,295.02778586364093L245.95998555555556,295.1772603496804L249.33863740740742,295.36345783594055L250.30859629629626,295.4693021629686L251.66669185185185,295.5315533099028L253.24909518518515,295.6666077853195L254.01222648148152,295.80629085028903L254.96891574074073,295.82651666653476L254.9995379629629,295.906009866437L256.62481240740743,296.0113918303527L256.73620074074074,295.98627729630186L256.7922138888889,296.11856142575164L258.3061,296.1173688700145L258.86980407407407,296.15465990442186L259.7683111111111,296.2607945034365L259.81347888888894,296.349891376075L261.2106177777778,296.478001115764L262.5260974074074,296.63330575301035L264.59003518518523,296.7577265703106L265.8007612962963,296.7048958811064L268.47816425925924,296.8103645314553L270.0911898148148,296.94931385174425L270.71026907407406,296.9666886271794L272.6670290740741,297.1299359164288L276.1991748148148,297.18207445732907L276.8488762962963,297.34782037411765L277.418322037037,297.5325388115706L278.78356277777783,297.67386417484306L278.8950787037037,297.6339803507186L279.3310625925926,297.7408272071135L280.2460290740741,297.8833573059431L281.0986027777778,297.9001952109926L285.9242822222222,297.99163463774L285.9255581481481,298.12685818971653L286.1371066666667,298.1864430377291L286.2417325925926,298.2217164241117L286.9382605555556,298.19786408976097L287.59178981481483,298.2807956830773L288.2750481481482,298.397655169556L292.5122705555556,298.44063181474144L299.04322499999995,298.37983426128926L299.18306648148143,298.4508959719615L300.23072925925925,298.57980365789103L302.8605401851852,298.7088114034118L303.1492822222222,298.75961236375775L307.12761925925923,298.8021042321044L307.14816166666674,298.8837281615673L307.2991037037037,299.02087871363926L307.88016037037033,299.13776342766715L308.88137944444446,299.1604596411987L310.4138940740741,299.2562026555669L310.42116685185186,299.3093487791039L310.9408514814815,299.4201929077987L314.7144024074075,299.5150281725726L314.7945305555555,299.63441286057633L315.63408981481484,299.71947407508196L315.7567062962963,299.7587945011462L316.8025827777778,299.8348070264033L317.14976222222225,299.95944112469914L317.53305037037035,300.057019100722L320.2965783333333,300.1172320663925L322.46284537037036,300.2100310630126L322.54246314814816,300.3447448071459L325.86484666666666,300.44232891714205L326.49349537037034,300.5447352261051L327.74619944444447,300.6252039257515L329.50787037037037,300.7094366353966L329.62078981481477,300.760680021833L331.2669894444445,300.77641223184634L333.043205925926,300.83827061315395L333.2088211111111,300.8917053664121L333.52856814814817,300.9563566878558L333.66100925925923,300.9600162064878L333.8391285185186,301.02128912470494L336.20444,300.8272447396682L340.1017557407407,300.8555741413949L341.01710499999996,300.82062348676243L342.5635272222222,300.9142503484452L343.32959314814815,300.9992016266609L343.86612,300.9997751878218L344.172725,301.0446117971918L347.5233064814815,301.075033877118L348.30315240740737,301.15770670263305L349.8184420370371,301.2301297297673L349.8579957407407,301.1431200238974L350.1164983333333,301.2048533680972L350.98667981481486,301.25342047564857L351.99364055555554,301.2743062809043L352.31096333333335,301.310509593937L353.21074629629635,301.3948736215268L355.4114633333333,301.3808398682136L356.682795925926,301.4493565106079L356.89255814814817,301.55010371024605L357.2117948148149,301.5958304074067L359.5611572222222,301.6760420508601L359.844667962963,301.72480081004267L360.31203962962957,301.75689309808104L360.9308637037037,301.8283891482708L362.91850111111114,301.8475180286491L363.2852022222222,301.8446496844293L363.9966585185186,301.8192129886702L364.3759912962963,301.8325503377671L366.7327540740741,301.8490003217321L366.795402037037,301.87017595869406L366.8073957407408,301.95909904796804L368.8700575925926,301.98470806053876L369.0786714814815,302.03158671159514L369.8212603703704,302.1016817554206L371.59505259259265,302.1729528013568L376.58124351851853,302.1679366341617L377.2780266666667,302.2057781980915L378.0064527777777,302.18501840520213L378.0678248148148,302.26528182101265L378.81845203703705,302.2428794031585L380.64468481481475,302.30047242964747L381.8445655555555,302.3764320993744L381.9357942592593,302.3766154249034L383.5870975925926,302.4168079553037L384.8852246296297,302.4815930419408L384.8940285185185,302.4648355438123L385.4373177777779,302.5722191325393L385.96172333333334,302.65514909927776L387.8890094444445,302.7005761360227L388.4021868518519,302.75395331012214L389.92564240740745,302.7859034630727L390.2425824074074,302.88370207855394L391.679912962963,302.9327695534393L391.75621333333333,303.02931430002326L393.0623787037037,303.0770653813334L395.29575944444446,303.127676278815L396.8976844444444,303.19055471126387L399.99588777777774,303.1743449395114L403.89664851851853,303.1556425768562L405.02469462962966,303.21270725002387L405.19898611111114,303.3039046878337L405.56696314814815,303.3893659121238L407.2488887037037,303.41270731438823L409.66472685185187,303.4814389992826L410.8172707407407,303.52197722508754L410.8232675925925,303.5832349693967L411.5079294444444,303.67328797071804L412.9610814814815,303.64009029293913L414.91171703703696,303.6687179881731L415.7682461111112,303.70008271591604L422.01390351851853,303.735149677105L423.5271516666666,303.7903748585621L424.4328038888889,303.84814885673717L426.21527240740744,303.9095437688231L426.5274914814815,303.9570047240038L428.2359562962963,303.9362289525145L428.575862962963,303.99546727100017L433.2898988888889,304.0665676016987L434.55574499999994,304.1023075064056L436.82727592592596,304.080416644917L437.90402981481486,304.14945864720613L438.0142698148148,304.2041964398366L438.0576512962963,304.2742213696735L441.09218592592595,304.3361228521978L441.65716592592594,304.39762591036276L443.68154999999996,304.3856037953701L444.22688074074074,304.45105432793974L444.93782666666675,304.5135812675426L445.8682318518519,304.56377836121425L446.565652962963,304.6442631674418L450.3898581481482,304.6214662546913L452.57513648148154,304.67631263458554L454.71830925925923,304.74779756542114L454.87882074074076,304.66669252783544L454.89898037037034,304.6465303901383L456.65618555555557,304.685864362588L457.87354648148147,304.68291754864134L458.55412537037046,304.69935042426414L458.55884629629634,304.7264879991217L459.7435435185185,304.78428776533474L460.1518398148148,304.8196460566312L462.4895912962963,304.83846297658204L464.2956644444444,304.80557366279186L464.4739112962963,304.8175731996699L464.50032296296297,304.8341505504398L466.73893499999997,304.8974806962991L467.0229561111111,304.9512892275998L467.22468,305.0091883133682L468.0738087037037,305.0835319098677L468.8602894444445,304.6735216777613L469.09773925925924,304.5897521390772L469.35471074074076,304.67715033463355L474.14874722222226,304.73269712530293L475.10237425925925,304.77836223844224L476.3609475925926,304.8276806880418L477.5156605555556,304.86343631123924L479.8257244444445,304.8321207385444L479.9751353703704,304.89021931772606L480.6947575925925,304.8622460350564L481.14439388888894,304.8632654482549L483.2241531481481,304.89414039860833L485.2910255555556,304.89254491164445L486.60765351851853,304.94901897781233L487.23630222222226,304.9524837469129L488.7070620370371,305.0173366329099L489.6799555555556,305.0651172465881L490.9667268518519,305.1021870598639L492.06925444444437,305.1291468408376L493.2653074074075,305.1865568488558L493.8477675925926,305.2407541415871L495.27029740740744,305.2808937052798L495.9113225925926,305.2941942600673L496.52083240740745,305.25575269495414L496.68300259259263,305.3134615774041L497.10303740740744,305.3572708850811L499.41437722222224,305.430251153712L500.76035148148145,305.4662472394869L500.9527611111111,305.52924800588585L501.2275955555555,305.5813280027372L501.3555709259259,305.564799425617L503.5251553703704,305.6152012077877L505.08140222222227,305.637300436144L506.9092937037037,305.65939179288637L507.12364925925925,305.67532620898845L507.3054687037037,305.64965277813127L507.6619624074074,305.62576263576915L508.33309944444443,305.67524851812095L508.56965611111116,305.68389431422133L508.59032611111115,305.754158026241L510.407755,305.79982118528585L511.67104925925923,305.8627880787443L514.1813059259259,305.857779235565L514.327271851852,305.91213806669316L514.7413098148149,305.94441816179153L516.2599168518518,305.93347249214634L516.6289146296295,305.8699652259188L517.7711235185186,305.8083305164901L518.1929446296297,305.87995951589664L518.6725651851852,305.90658005391083L518.8185311111112,305.9597638757945L522.4857974074074,305.9924308410332L523.9374183333334,306.0416505323618L524.9918435185185,306.08898379754623L527.0204381481482,306.1135427124467L527.4659914814815,306.1437834379234L527.9620714814815,306.1543862712912L528.2656142592592,306.16207592652L529.2197516666668,306.1990355930131L530.2598864814814,306.1986812637805L530.7567320370371,306.25339105139756L531.4939620370371,306.28391687350506L531.8074570370371,306.31160969880733L536.2703907407407,306.35537698645095L536.4880637037037,306.4028474293756L538.8435505555555,306.3902250695864L540.0565733333333,306.4454086087601L542.38769,306.50265077188146L542.6988883333333,306.54336768904466L543.0046001851852,306.56626863702627L543.7706661111112,306.60283775586765L543.8131544444445,306.5912941456417L544.5898105555555,306.6212703217464L545.6276487037037,306.63242528553667L545.910393888889,306.66854212849853L546.401752962963,306.6573208179955L547.0776109259259,306.7136796984301L547.7830703703704,306.7141871564953L548.8392818518519,306.7328405222966L549.625635,306.78259487426396L551.6122516666667,306.784933731952L552.705465,306.8270046053939L553.7467481481481,306.8864451999568L554.9088614814815,306.91003318711626L557.8425979629629,306.93587597485197L558.3034624074074,306.9586798470101L560.8104016666666,306.9954928391152L561.7427207407408,306.97908512351574L561.9478896296296,307.00453397704325L564.6366483333333,307.0306071547612L568.6334862962963,307.06495433175144L570.1954748148148,307.0625886735749L570.5070559259259,307.1011597984909L573.1066274074074,307.07642439184775L573.3999627777778,307.111251411858L575.6376816666667,307.14231289030226L578.163377037037,307.1952529447434L579.6497031481481,307.2352161127184L580.2233594444443,307.25377061262117L582.2795140740741,307.27769555663093L582.4702649999999,307.3058221883155L584.3142331481481,307.3236774841125L585.3356118518518,307.3555834227416L585.4447035185185,307.39836251589526L586.5423825925926,307.443540937374L588.1117714814815,307.4798233109834L588.5092224074074,307.5088948588691L590.3739881481482,307.53808244271625L592.5012118518518,307.5429828868838L595.9129101851851,307.6040133251514L596.6614959259259,307.591483815798L596.9362027777778,307.6297368666951L598.2821770370371,307.65061782084547L598.3098646296296,307.6925123362253L598.5589253703704,307.7294323163869L598.6088140740741,307.78711847542365L599.2192170370371,307.8057812836284L601.5685794444444,307.81305323667266L603.6542079629629,307.83001257612295L605.319036111111,307.86639659365846L606.3131099999999,307.92113571875143L607.9147798148149,307.9444731391787L612.321827962963,307.96531789800173L612.8805559259259,307.99257785378984L613.6568292592592,308.0218242514212L614.4083496296296,308.05438388155L614.9074918518518,308.0356489889836L615.3950231481481,308.020271473603L616.2667357407407,308.03470407529284L616.8599137037038,308.052630781227L617.087538888889,308.0560862875839L617.9632068518517,308.098957391171L618.1475781481481,308.10011115916524L618.9426075925925,308.148490683353L620.8082664814814,308.18087310128396L621.9640001851852,308.23420069467727L624.0449077777778,308.263853842215L624.6999681481482,308.29387777309097L625.3402277777777,308.3418844073884L628.2116990740741,308.34154278920823L630.6400412962963,308.391468499063L631.5745294444445,308.37498215910375L631.5760605555556,308.39568795730736L632.6223198148149,308.43150061853635L633.8218177777777,308.4679561829408L634.4276274074074,308.4904457364278L634.9478224074074,308.5041147452081L636.0442255555555,308.5154029430996L637.2905499999999,308.56201660456617L637.8950837037037,308.59460096914484L637.9477794444443,308.61997739979984L638.1814014814814,308.6502435282179L640.1333129629629,308.68581877401823L641.1369562962963,308.71505493573636L642.3558483333333,308.7152310381061L642.4053542592592,308.7347849879771L645.823177037037,308.7732819634041L646.3567692592593,308.7907538420009L649.6406198148147,308.8163871394746L649.6874462962963,308.8636772791953L649.9250237037037,308.87394595838566L655.0957135185184,308.8961608902024L655.1914079629629,308.91653798520196L655.2180748148148,308.94760530131623L657.432827037037,308.96133551457814L657.5808344444445,309.006521317032L660.0442646296295,309.0153501734115L660.0968327777778,309.0558973364846L660.4583025925925,309.07766269983347L661.4814675925926,309.0541641838301L664.7880296296296,309.07368515441135L666.6926042592593,309.09540678606146L667.3542994444445,309.07869324091797L668.0769838888888,309.12337942979724L668.8583609259259,309.1545734821877L674.5139025925926,309.14947223830745L674.6344775925926,309.18179344105823L674.6430262962963,309.1680115348043L675.6626187037036,309.1020192091064L684.278180925926,309.1291876874107L684.5417872222222,309.13876274559925L684.6695074074074,309.15201977272227L684.7401937037037,309.19444340294876L685.4419529629629,309.2372242957381L685.8280481481481,309.2232243740139L686.934531111111,309.2673772505653L687.7101664814815,309.26205448438174L688.9950238888889,309.2825685991434L689.6120616666667,309.27532306546146L690.2950648148149,309.2925078489452L691.7196361111112,309.25700310861595L693.793908888889,309.2894555410223L696.1570512962963,309.2981974872968L697.001459074074,309.31018385236507L697.052496111111,309.3440924392903L698.0683883333334,309.3723583047312L700.6500968518518,309.3804658566208L703.3434488888888,309.41998063987285L704.0839962962963,309.45059056832395L706.3672657407407,309.4968241702684L707.8632888888889,309.543028751678L708.3347435185185,309.5120276591073L708.65717,309.4955166753572L709.4496475925926,309.4640825436304L713.2402959259259,309.481260689451L714.2099996296297,309.48873112084664L715.0755877777777,309.46849669590415L715.4421612962964,309.5241099005037L716.2801894444444,309.5197670678558L718.8384209259259,309.5321940706711L719.1076412962962,309.5802591167452L719.3954901851852,309.6142353991855L719.5426044444445,309.6274477395864L720.576232037037,309.645207712044L723.956415,309.6558094212034L724.1372137037037,309.6644479873981L725.0913511111112,309.6755966069519L725.5312903703702,309.5535989393595L727.3040618518518,309.5598969915955L729.1253185185184,309.5917820492691L729.606852962963,309.6115573118744L729.9720229629629,309.66255096902387L734.2972842592592,309.6802814666808L734.7216572222222,309.7024491625474L735.4665427777777,309.67543514177544L735.7367838888888,309.6847635714491L738.2665622222222,309.6795140705987L738.3810127777778,309.7071293852719L738.8846207407407,309.70956014870853L739.082772037037,309.7494525864663L740.4560511111112,309.777705939442L741.084955,309.8019302927288L741.8822811111111,309.8282818173115L744.935189074074,309.85394178157793L746.7545318518519,309.8605400824441L749.0122827777777,309.8863478850293L750.6677966666666,309.9082843357348L751.745316111111,309.9398911167933L752.9233785185186,309.9759553597037L753.6417248148148,310.0070557813675L755.0743344444445,310.01025640827646L756.1889833333333,310.03379614640187L756.7168338888888,310.06518556723404L757.0439812962962,310.08325555889695L757.5413372222222,310.11092711064964L759.539182037037,310.07077282992657L761.1546318518518,310.09862892212004L766.3740620370369,310.11516683987065L766.9435077777778,310.10162873620726L768.2564355555555,310.12201025290744L771.0648761111112,310.1510788992926L771.222452962963,310.1801005862521L774.27753,310.1793639216603L775.1178548148148,310.213053946522L776.1687074074074,310.2430433442082L778.8554246296296,310.2804072802484L781.190369074074,310.2945327407265L782.6371414814814,310.2935543045641L784.5956877777777,310.28533524792215L785.4407335185185,310.27544219194596L788.0607198148148,310.27477161021545L788.2819653703702,310.30343355621324L789.1042996296296,310.3180400040592L789.9881335185186,310.3481106569762L791.9335377777777,310.37442558088117L792.684802962963,310.4030230513L793.1013927777777,310.43148296998163L793.1138968518519,310.4362888845146L794.0531059259258,310.45932341752314L795.6191774074074,310.48036315735203L796.7810355555556,310.47989417582403L798.0630859259259,310.47858701737556L799.7928587037037,310.5073138597586L799.858824074074,310.5522410019727L801.760464074074,310.5865272870093L803.4270785185186,310.6218923507744L803.9550566666666,310.60881963827774L806.2008138888889,310.62454880838266L806.2082142592593,310.6507060385659L807.2455420370369,310.66476640261334L808.8344525925927,310.6959715699986L808.9674040740741,310.70474556727714L809.8328646296296,310.7133488293707L810.5219922222221,310.7514806951838L811.7370564814814,310.7103709691463L811.8989714814815,310.7143172964928L812.4613996296296,310.74668246116164L815.2814511111111,310.77863979738686L816.3263068518519,310.7932694439107L818.7046327777778,310.81968679491365L819.0455601851852,310.8143731707141L823.8249235185184,310.85825735589924L824.9907370370371,310.86126997922844L825.2372459259259,310.87569924419097L826.2679388888889,310.8877991797122L830.0731327777778,310.9202534912911L830.9139679629629,310.94549852396676L834.9854475925924,310.97131821638686L836.4978025925926,310.95638219913405L837.1097366666665,310.9578755014254L837.1714914814814,310.97719686928735L837.5778738888889,310.9966966874978L837.7517825925926,311.00959600470384L838.5098101851852,311.0239812701459L840.0194857407407,311.052122000656L841.9076009259259,311.0812174523798L842.7717855555555,311.0890294813497L846.6118122222223,311.1274470703619L848.1942155555555,311.15066970984253L848.6520177777777,311.16809667128825L849.2844942592592,311.1814512011805L849.7239231481482,311.19674705291504L850.1166531481481,311.1886018154027L851.8758998148147,311.21070478453646L852.0185483333333,310.79608036669254L854.5933668518519,310.822128813349L855.1279798148148,310.8572778150093L855.7177127777778,310.88042010347783L856.6542424074073,310.87115986643187L858.2747959259259,310.8965284910624L858.9105898148148,310.915755140748L861.1401427777777,310.95104013609694L864.36428,310.9801772878734L866.3048357407408,311.0101889900943L866.4039751851851,311.0082687665414L868.9921909259259,311.0380668260496L869.6230087037036,311.06152756563927L870.7407198148148,311.08699667371275L871.260532037037,311.0979614207399L871.8200255555555,311.1143204124625L873.2932096296296,311.1276292141531L874.891562037037,311.1480242599599L877.1179251851853,311.1650321896569L880.2684414814814,311.1377863020486L881.5993598148148,311.13116837446404L884.4229838888889,311.157977701705L884.4579442592592,311.1647412265344L885.1819046296296,311.1848716572606L886.8746755555557,311.20620910240154L890.5922133333332,311.2098464434247L890.9946403703703,311.23653390433816L891.5633205555556,311.22607350014454L891.7914561111111,311.2050151175912L891.9645992592593,311.19409313281403L896.8931183333334,311.1969036506551L898.4455374074074,311.1751345837424L898.6382022222223,311.16905019576603L899.0193212962962,311.1419062458963L899.4616848148147,311.1725430330897L899.8707466666666,311.1801702307706L899.8892475925925,311.1914855846286L902.4430133333333,311.20222400800753L902.9048985185185,311.224000540093L903.4649024074074,311.2472724449534L903.7498166666667,311.276756075662L904.8504303703704,311.3074390207888L905.9645688888888,311.3211639985216L907.2433018518519,311.33730648311536L907.5181362962963,311.3595274330846L914.2406072222223,311.3579459948259L914.2899855555556,311.3812577022171L914.4766535185184,311.38376542628356L917.2329087037036,311.40514457286616L917.9045561111111,311.41189070241165L920.6483072222221,311.38501676297585L921.321102962963,311.36958972109994L924.017262037037,311.3441587809085L924.4093540740741,311.34927708836534L924.5272496296298,311.37233236105874L925.5604944444444,311.3809114793648L928.1307196296298,311.40355084583217L931.4319227777778,311.4203710507361L931.5694675925927,311.4324019386904L937.6900842592593,311.4493117491121L939.4388683333334,311.4865117087327L939.8507372222222,311.5129278401116L940.2469122222224,311.53661171538124L943.1405846296295,311.54988497188845L944.3502900000001,311.55232931452224L944.4499398148149,311.57976071869444L944.9035314814815,311.57106760135423L946.5989818518519,311.5950228387162L947.187438888889,311.62819992979576L948.4733170370371,311.6376214336384L949.550964074074,311.65958715256727L956.7853364814815,311.68307506852494L958.0386785185186,311.6976456990899L959.9521846296295,311.71780565440133L959.9548640740742,311.7415243852426L961.2554153703704,311.77279340106907L961.9769514814815,311.8018901626948L962.5503525925927,311.80597034585924L963.7150177777777,311.8325544353476L965.5913944444446,311.847804789472L968.5080335185187,311.86991836940854L970.4484616666666,311.90549565466256L970.4923535185185,311.8877323259833L970.7826266666666,311.88787803468915L972.455237962963,311.9025900981991L973.0170281481483,311.9070734741514L975.763331111111,311.91238138519964L976.5304177777779,311.94670507562387L976.6042938888888,311.9278473155635L976.8340881481482,311.94819733997883L976.9679327777778,311.9723934259417L979.8567566666667,311.9824864687773L984.6413512962964,312.0099168312589L985.3355825925927,312.0261003405471L987.6518985185186,312.04383361824296L988.4993685185185,312.07034272807914L992.7852037037038,312.09002324427337L994.3669690740741,312.0980412030168L994.5949770370372,312.12527157042507L995.2064007407407,312.1155849140653L995.431856851852,312.12697722446296L995.6978874074074,312.15547045551835L997.2328262962963,312.15751667242205L997.4738487037038,312.1534677168366L999.7684738888888,312.184025108754L1001.3880066666667,312.1844423234416L1001.6504646296297,312.19558632579657L1001.829477037037,312.21188462585206L1002.3156048148147,312.20875176862427L1002.7549061111112,312.21000263797725L1004.1524277777778,312.2149358269381L1004.9501366666667,312.2441835398297L1007.7067746296295,312.26719936289226L1008.5220912962964,312.2912287576273L1009.1388738888888,312.320910249694L1009.8526268518519,312.2998442623485L1009.9531698148149,312.322309536487L1012.7690107407409,312.3373072191425L1014.4735201851854,312.3658174623275L1017.6194431481483,312.39544786718494L1019.283760925926,312.4047714010468L1021.7700301851853,312.425240955453L1024.2869216666668,312.42325437956174L1025.6210298148148,312.43563973085924L1028.2532650000003,312.453661840916L1028.7733324074075,312.45795582150333L1030.3977137037039,312.4777122544907L1032.2804700000002,312.4936174057214L1032.762514814815,312.51544297949465L1034.5671844444446,312.54356559073847L1039.5008072222222,312.5657382203984L1041.9747,312.59068190721723L1042.944658888889,312.60664450353L1045.2663337037038,312.6057290769778L1045.9346637037038,312.6355275296695L1046.117503888889,312.6384742654749L1046.891990925926,312.637911740487L1048.3695131481484,312.66442413467456L1048.4806462962963,312.66318474277193L1049.6456942592592,312.69070627309065L1050.0917579629631,312.7028026952703L1050.2897816666666,312.71759180313825L1050.5204690740743,312.7253232669691L1051.5209225925928,312.747743992305L1056.3122796296295,312.7670221687209L1058.1078901851854,312.7637870300463L1059.9578551851853,312.7780287681529L1060.653872777778,312.8076351157564L1060.9390422222223,312.8370246512242L1061.3682637037039,312.8587951572854L1062.6207125925926,312.8524298196423L1063.6759033333335,312.84333961630585L1063.7372753703705,312.8584580437818L1065.6204144444446,312.88415384303636L1065.6614992592592,312.89691019926676L1065.8867001851854,312.892979021762L1068.0182620370372,312.89537052875585L1068.5399881481483,312.906573272951L1070.463956851852,312.87875124480854L1071.025109074074,312.8925273372055L1074.1221640740741,312.91109903459136L1075.9057809259261,312.93207523677296L1077.6888874074075,312.9576948607951L1079.716588888889,312.9881052457583L1081.9827609259262,312.9815029112629L1083.9123437037038,313.0088995291694L1084.6105303703705,313.0258199490562L1088.1509696296296,313.0192033791388L1090.8440664814814,313.03610193823505L1091.6592555555558,313.03268575721904L1093.700481851852,313.0418466385079L1094.127661851852,313.04484993235224L1095.0463285185185,313.0499845479718L1096.9757837037039,313.0393695473667L1097.9139720370372,313.0424251699203L1098.6339770370373,313.05298577617725L1098.8533087037038,313.0451720913292L1099.285082037037,313.0639875918084L1100.764007777778,313.04746922593745L1101.896774814815,313.06205962637506L1103.930217962963,313.0730102737254L1105.168504074074,313.09356877405247L1105.2234964814816,313.1028998112053L1105.3448370370372,313.12544389757556L1106.1347627777777,313.14079003357995L1107.4261274074074,313.15507391433675L1107.4747401851853,313.17574858016826L1107.9366253703704,313.1844617123926L1112.7082055555557,313.1905108029837L1113.3001075925927,313.2008990922538L1118.2741772222223,313.1659440779285L1118.4098081481482,313.1850855670201L1120.5523429629632,313.19708752460417L1120.9598737037038,313.21571425453857L1124.0127816666668,313.22455677839946L1124.6549551851851,313.2329329297884L1124.6851946296297,313.2368866263099L1125.531899074074,313.2498753311921L1126.5187001851853,313.22963670413816L1127.4822794444444,313.2477893625572L1131.3947787037039,313.25692841627676L1132.524355925926,313.27505537091696L1132.6347235185185,313.301317923784L1137.4538957407408,313.31338770610483L1140.9466153703704,313.33059135088195L1141.6233664814815,313.3261523942183L1142.9713822222222,313.34716697944157L1144.1343887037037,313.3575241489446L1144.6761468518519,313.37057404689494L1147.63974,313.38106891005384L1152.2917659259258,313.382954190072L1154.6339831481482,313.4014341912068L1156.779962962963,313.41362007762365L1163.9414800000002,313.43452928732665L1167.3519024074076,313.44163223210876L1167.9357661111112,313.44528302411186L1168.2575546296298,313.44773113527697L1169.0821855555557,313.47085215401046L1169.9023507407408,313.45827821401235L1170.1623844444446,313.4571627150252L1171.7709442592593,313.46427996410864L1172.5977442592593,313.4794452437234L1173.0411285185185,313.5019915841737L1174.1782337037039,313.5230324506678L1176.8585712962965,313.5220395875544L1177.532642962963,313.5253069633305L1178.918170925926,313.53925841064796L1181.6626875925926,313.5580710430213L1182.0630731481483,313.5564862401829L1182.7314031481483,313.5783124619061L1185.4967174074075,313.5951553085083L1186.2817946296298,313.5926400030378L1191.3208088888891,313.61456200401955L1193.7776042592595,313.6378323470344L1194.5668920370372,313.66451900343594L1198.0574425925927,313.66532689650967L1198.1208561111112,313.6812274659751L1198.3242387037037,313.7075488738662L1198.454765925926,313.7283362168143L1200.9745920370372,313.7366633746919L1201.3934785185186,313.75158902349284L1203.0264085185186,313.7538505690427L1203.2901424074075,313.77394055490174L1204.3111383333335,313.79541019593904L1206.8552070370372,313.8222435197367L1207.4198042592595,313.82708166113946L1208.7044064814816,313.84163819388925L1208.746256851852,313.8662902217241L1210.5718516666668,313.88830838093315L1211.3019364814813,313.90201129423576L1213.224756851852,313.9298178197856L1213.5048225925927,313.9538755704351L1216.0760685185185,313.96673645164424L1217.395631111111,313.9802854263651L1218.2100546296297,313.99878494022397L1218.4242825925928,314.0100938164838L1220.1910572222223,314.01802099601014L1221.0350822222224,314.02828392915546L1221.2480342592594,314.0415614791382L1221.354318888889,314.055308996677L1221.649950925926,314.0775500840296L1223.125942037037,314.0938534137569L1223.5588637037035,314.1070918448256L1225.0796398148148,314.123952805531L1226.0760103703706,314.12107201705356L1228.2505709259262,314.1344485435831L1229.1997322222223,314.1447686315568L1229.5222862962962,314.1565555371691L1230.4820377777778,314.1742597250417L1232.010341851852,314.18381911300196L1232.149672962963,314.19343594927284L1236.1410244444446,314.20148520676014L1237.359406111111,314.2207438301848L1237.6938262962965,314.22024244809336L1238.0011968518518,314.2356468645149L1240.5183435185186,314.24532929845634L1240.8516153703706,314.241039169907L1241.3492264814815,314.21747783426184L1241.7563744444446,314.21349034382763L1241.835481851852,314.2143896462631L1244.0000901851854,314.2332080356608L1244.1937757407409,314.25996136048246L1244.217507962963,314.2600387632334L1244.4027724074076,314.27212647659496L1244.5095674074075,314.2829052161336L1244.6693133333333,314.29165256456L1245.4597494444445,314.2930001114284L1246.1015401851853,314.29680266856496L1247.5485677777779,314.29026455890613L1252.9106464814818,314.2833317598955L1253.5993912962965,314.30501680679316L1256.729365185185,314.3349099629264L1259.5939464814817,314.34044363783073L1259.6591462962965,314.3368173178103L1261.1679287037036,314.35169053738207L1263.4374181481483,314.3030709663252L1266.075139814815,314.28902135744556L1267.9548338888887,314.2946691402659L1268.7645364814816,314.3070459394075L1268.819784074074,314.31819048775213L1269.457491851852,314.32933824596404L1269.6547500000001,314.35048004522497L1271.421397037037,314.36786716082054L1272.1303014814816,314.3796792703599L1272.585807037037,314.3941874958226L1273.0358261111114,314.39615663052564L1273.5154466666668,314.4026965886466L1274.014844074074,314.4202100319601L1274.519472777778,314.439631679153L1275.046557777778,314.45529178907873L1276.1548270370372,314.4751385052865L1276.2769331481481,314.4877634342189L1276.4434414814816,314.4843860791957L1277.7547105555557,314.49571917137683L1278.5069964814816,314.50152256624176L1279.316443888889,314.52346359602245L1280.1953016666669,314.53148902996685L1280.6654803703705,314.5351458069183L1283.5207474074075,314.5426844458799L1286.019775925926,314.5563071066411L1286.1093459259262,314.55258217049493L1286.2143546296297,314.5664655406623L1286.2193307407408,314.5773361063887L1288.13373,314.557410089878L1288.6521387037037,314.5611057180098L1289.2514411111113,314.56548430507814L1289.9992612962963,314.5821406279291L1290.323474074074,314.5777185598002L1290.6013707407408,314.56877193229127L1290.6820092592593,314.59061886666416L1293.768218888889,314.6067704199959L1294.184170740741,314.61425778978287L1295.5746748148151,314.6185400618493L1295.9532420370372,314.6398323261872L1296.0675650000003,314.66085835048153L1297.820432037037,314.66998081151917L1298.037849814815,314.6917361786782L1298.9223216666667,314.70810948570033L1299.1902661111112,314.7138251455042L1299.2637594444445,314.720559789575L1299.5613053703705,314.7132996141196L1302.7201151851855,314.72948189850723L1305.2040877777779,314.71910899920374L1306.055257962963,314.7339171685186L1306.1475074074074,314.71126821784173L1308.7307470370372,314.72729201520485L1310.6488464814815,314.7412487526652L1311.2739225925927,314.74003277549605L1314.5986027777778,314.759082907024L1314.8502153703703,314.76924943917567L1315.1365331481481,314.74418456852135L1315.5607785185186,314.7128907766725L1316.627325,314.73006735876766L1318.383637037037,314.75142746284973L1320.6147211111113,314.75436326217454L1321.8988129629631,314.770447490246L1322.0313816666667,314.78346441892035L1323.2497633333335,314.7862767353644L1323.632923888889,314.7959176033542" style="fill: none;" fill="none"></path></g></g></g></g><g opacity="0.2"><g><g><g><path stroke="rgb(255, 112, 67)" stroke-width="2px" d="M91.86666666666666,142.0914426863193L92.34641481481482,212.55869877040385L92.44593703703704,158.88640892207619L92.53065851851852,228.32272310256957L93.93519777777779,244.61728569567202L94.41354240740742,226.59116540551184L95.33118833333334,262.7295712798834L95.51173185185186,267.99504664242266L95.67109500000001,95.91292832493781L96.89725981481482,262.51588304042815L98.83092555555555,254.58378263264893L99.89492018518519,272.0380210921168L101.19508870370369,291.64361078739165L102.48453944444445,295.9858895882964L102.84805074074073,291.1029337763786L103.77871111111112,289.2593710541725L104.31077222222224,288.664395403862L106.71487185185187,283.2631875246763L107.08386962962963,262.21546624302863L108.47399092592593,298.4866334170103L109.28292796296297,262.95783397257327L109.38512962962963,310.9024041842669L111.07432796296297,301.19780559539794L114.8251674074074,288.41845326572655L115.4335288888889,299.1008304476738L115.59416796296297,285.9616440206766L117.49453203703702,293.98729904070495L118.58289685185186,300.52892620190977L119.6692201851852,304.62812494933604L123.08436351851853,313.4017433736473L123.75001407407407,279.7199478417635L124.43671740740741,295.5675394132733L124.4992377777778,294.47975714206694L124.9537225925926,309.6750327989459L125.42109425925928,296.28408149331807L125.70205314814817,283.0713750466704L127.48528722222224,310.2085915625095L129.05901425925927,301.2579234547913L129.17218888888888,309.18860162124037L129.63943296296296,296.42688649222254L129.68383518518522,264.9734738141298L130.4038401851852,288.4627610117197L130.7071277777778,311.77744696363806L131.3684401851852,286.6711382612586L132.2069787037037,311.0902685344219L138.2098274074074,306.3794813722372L138.24887074074076,228.66618734300135L139.61896000000002,311.1845571499318L140.84321092592594,291.48844566643237L140.959065,298.30337198898195L142.18663333333333,291.17977705299853L142.98025925925927,262.529133823514L143.78141314814815,300.58588274270295L145.00961944444444,279.74725205898284L145.96898814814816,304.66675077080725L146.02053555555554,292.75921125411986L146.1027051851852,316.09209062978624L146.16165296296296,302.4276923060417L147.17205870370373,295.2940466299653L149.56633370370372,309.6620073214173L150.68493796296298,301.9407330684364L150.73635777777778,308.29964094311L152.43550833333333,290.41657560020684L152.616945,299.39143237173556L154.0296501851852,314.5061964958906L154.21950796296298,311.52633335888385L154.96860407407408,294.30633523017167L155.63132,275.8653006747365L158.09717444444445,318.31885233968495L159.98528962962965,307.18149874806403L161.98466555555555,303.8370384134352L162.09350203703704,320.0715676367283L162.51289888888888,314.7687690004706L162.811337962963,301.30552981495856L162.86645796296298,318.9648139335215L164.04949648148147,310.82431468628346L164.7025153703704,305.30389728471636L166.26042092592593,312.37224307358264L166.3880135185185,304.94410895258187L168.48869796296296,311.07735042907296L168.85055055555557,296.8603708639741L169.1930090740741,312.2599300134927L170.92992703703706,309.16216694265603L172.31698611111113,304.5164790049195L173.48994481481483,304.8192861534655L173.942132962963,315.52560733146964L174.07380851851855,229.89884812831878L174.99617537037034,300.50940558761357L176.79880351851853,303.95781627371906L177.12186796296294,318.481987644732L178.37763425925928,312.472479403764L182.55756759259262,310.8052482035011L183.04777833333335,293.942494918406L186.1453437037037,294.90182133838533L188.53170796296297,301.29827779233455L188.5412774074074,314.502383903414L189.0052040740741,305.4147300168872L191.61536574074074,290.9957728207111L194.0415388888889,284.98081852197646L195.44135722222222,310.6637087881565L197.15735,303.5487916365266L199.05784166666666,312.5860809300095L199.43551574074075,319.70965826399623L200.1042285185185,304.3260254010558L202.78737314814813,292.47326329797505L203.69991537037038,313.5373051509261L205.09386444444448,304.17769689559935L205.21431185185182,317.6710249342024L206.4229964814815,303.4609752751887L207.20654259259263,297.60946255624293L207.2893501851852,297.4630280256271L207.38415148148147,306.26905348598956L208.52840185185184,286.532328915596L209.01031907407406,323.52319596782326L213.68888425925925,315.6386913590133L214.7560687037037,307.36526359319686L216.84016611111113,312.09219002611934L218.0655653703704,272.90101882517337L218.14467277777777,306.2622802376747L218.20183425925924,311.2991707909852L220.34334833333335,281.0375769853592L220.70099037037036,321.14681728631257L221.3037377777778,311.92627536579965L226.8087201851852,317.46762330159544L227.11060425925925,304.84324951171874L227.89517111111113,300.14245324283837L229.4181162962963,320.07482224591075L230.64606740740737,302.84904890209435L230.77429796296298,316.9874760366976L230.98801555555556,306.11447627171873L231.5679238888889,289.4870071157813L232.75274870370367,314.58718680292367L233.7071412962963,292.1867309555411L234.79537851851853,309.40427536591886L234.821535,300.30151896625756L235.7801381481481,314.9508370131254L236.20221444444442,311.94159966409205L238.44644055555554,296.77184690237044L238.4840803703704,308.5900598064065L239.25422925925926,316.01453623250126L241.4816131481482,311.4783943209797L242.108347962963,324.6496287032962L243.88826462962962,310.84966332167386L244.40539740740738,311.05418796166776L244.57547833333334,319.750405126065L245.95998555555556,315.342178684473L249.33863740740742,320.6434001818299L250.30859629629626,309.9311031259596L251.66669185185185,304.09078175649046L253.24909518518515,314.35228815749286L254.01222648148152,315.25258452147244L254.96891574074073,298.65968920737504L254.9995379629629,307.10946081653236L256.62481240740743,310.9539252284914L256.73620074074074,292.4036579623818L256.7922138888889,315.10233739838003L258.3061,295.9452078536153L258.86980407407407,301.56997869238256L259.7683111111111,311.76403424218296L259.81347888888894,309.440398183465L261.2106177777778,315.4096101734787L262.5260974074074,319.7158805698156L264.59003518518523,315.355913522467L265.8007612962963,288.76298418715595L268.47816425925924,312.7547238998115L270.0911898148148,318.07296124733983L270.71026907407406,299.6227894954383L272.6670290740741,322.22385529875754L276.1991748148148,305.2407378003001L276.8488762962963,323.1058860708028L277.418322037037,326.3948930751532L278.78356277777783,319.8751293540001L278.8950787037037,291.3349210515618L279.3310625925926,314.7055707916617L280.2460290740741,320.63350961990653L281.0986027777778,300.6019357636571L285.9242822222222,312.74030258394777L285.9255581481481,320.0509380966425L286.1371066666667,307.8969248615205L286.2417325925926,303.9996738217771L286.9382605555556,294.270810880512L287.59178981481483,312.00386496707796L288.2750481481482,317.8323331519961L292.5122705555556,305.6237818904221L299.04322499999995,288.1675086401403L299.18306648148143,310.4463734149933L300.23072925925925,320.4469126135111L302.8605401851852,320.69988850951194L303.1492822222222,307.4613986581564L307.12761925925923,306.1157823398709L307.14816166666674,313.0002893552184L307.2991037037037,322.8538606826216L307.88016037037033,319.5455583695322L308.88137944444446,303.141875718534L310.4138940740741,316.13048938550054L310.42116685185186,308.71984636858105L310.9408514814815,319.13828865140675L314.7144024074075,316.46317240297793L314.7945305555555,321.0677491173148L315.63408981481484,315.06036367714404L315.7567062962963,306.88246898800134L316.8025827777778,313.6681478329003L317.14976222222225,322.7431353226304L317.53305037037035,317.9743707038462L320.2965783333333,311.2226848348975L322.46284537037036,317.40111943781375L322.54246314814816,325.4101968973875L325.86484666666666,318.6786019474268L326.49349537037034,319.7653351396322L327.74619944444447,315.793627654016L329.50787037037037,316.6556502364576L329.62078981481477,310.50312929302453L331.2669894444445,303.78016284182667L333.043205925926,312.6988762848079L333.2088211111111,311.1803168289363L333.52856814814817,313.4568041794002L333.66100925925923,301.67053889930247L333.8391285185186,312.9671958412975L336.20444,262.83989355415105L340.1017557407407,306.4242714129388L341.01710499999996,293.92234415262936L342.5635272222222,319.46862180233L343.32959314814815,317.90233277231454L343.86612,301.1143580496311L344.172725,310.0376550525427L347.5233064814815,307.2011918619275L348.30315240740737,317.8716489717364L349.8184420370371,315.9295819558203L349.8579957407407,283.4137972488999L350.1164983333333,313.83289196044205L350.98667981481486,311.22678610011934L351.99364055555554,305.5798297047615L352.31096333333335,308.80237861052154L353.21074629629635,318.9198830768466L355.4114633333333,298.4544921711087L356.682795925926,315.7907514877617L356.89255814814817,322.71731847412883L357.2117948148149,311.2391867067665L359.5611572222222,318.65518425107L359.844667962963,312.08440818339585L360.31203962962957,308.6006738103926L360.9308637037037,317.13132307380437L362.91850111111114,305.956857432425L363.2852022222222,301.2262116976082L363.9966585185186,296.3149307526648L364.3759912962963,304.7290759205818L366.7327540740741,305.43437032476066L366.795402037037,306.5020687177777L366.8073957407408,321.47924155443906L368.8700575925926,307.6262871220708L369.0786714814815,312.3952999290079L369.8212603703704,317.6524953123182L371.59505259259265,318.04005431458353L376.58124351851853,301.0472909219563L377.2780266666667,310.68918943852185L378.0064527777777,297.5149539157748L378.0678248148148,320.383240910992L378.81845203703705,297.1686311110854L380.64468481481475,315.39004203379153L381.8445655555555,319.6989368878305L381.9357942592593,302.4185639105737L383.5870975925926,311.6446046948433L384.8852246296297,317.4054372075945L384.8940285185185,298.5917102962732L385.4373177777779,327.4740186844021L385.96172333333334,321.94987317994236L387.8890094444445,313.3045733112842L388.4021868518519,315.25460875108837L389.92564240740745,310.2928980857134L390.2425824074074,325.9371461112052L391.679912962963,314.53658458292483L391.75621333333333,325.9344987709075L393.0623787037037,314.4423558142036L395.29575944444446,315.21214921474456L396.8976844444444,318.25197531357406L399.99588777777774,299.2792689286172L403.89664851851853,298.6474276565015L405.02469462962966,317.0114305939525L405.19898611111114,325.42527476772665L405.56696314814815,324.1839731622487L407.2488887037037,309.10982564538716L409.66472685185187,320.3092051528394L410.8172707407407,313.4776343822479L410.8232675925925,318.6734868071973L411.5079294444444,325.9247516652569L412.9610814814815,295.4122158743441L414.91171703703696,310.78544947765766L415.7682461111112,311.5207658473402L422.01390351851853,312.50525960214435L423.5271516666666,317.6433352332562L424.4328038888889,318.3836910545826L426.21527240740744,319.40197008177637L426.5274914814815,315.96876576058565L428.2359562962963,298.6626498632133L428.575862962963,319.0762574549764L433.2898988888889,322.2200972724706L434.55574499999994,313.2540960654616L436.82727592592596,298.45863920152186L437.90402981481486,321.93133123666047L438.0142698148148,318.3425833515823L438.0576512962963,322.4130362782627L441.09218592592595,320.4164963632822L441.65716592592594,320.41996395662426L443.68154999999996,301.2448099672794L444.22688074074074,321.59838066883384L444.93782666666675,320.9410411443561L445.8682318518519,317.78882453665136L446.565652962963,325.9081820257008L450.3898581481482,298.58181797415017L452.57513648148154,319.24717460274695L454.71830925925923,323.7913923103362L454.87882074074076,283.0008825704455L454.89898037037034,299.2458075329661L456.65618555555557,315.25080143921076L457.87354648148147,303.8892635375261L458.55412537037046,309.13714394420384L458.55884629629634,312.0749295081943L459.7435435185185,320.4776738628745L460.1518398148148,314.4456033825874L462.4895912962963,309.9748652100563L464.2956644444444,295.80399055480956L464.4739112962963,308.1104687646031L464.50032296296297,309.3952948272228L466.73893499999997,322.3681775897741L467.0229561111111,319.8341976709664L467.22468,321.0653306029737L468.0738087037037,325.75359601043164L468.8602894444445,190.38104195594786L469.09773925925924,281.1782239794731L469.35471074074076,329.1656840963289L474.14874722222226,320.3365551352501L475.10237425925925,317.6391125142574L476.3609475925926,318.75270635336636L477.5156605555556,314.98463284671305L479.8257244444445,295.9453310675919L479.9751353703704,321.4190920114517L480.6947575925925,296.88394345790147L481.14439388888894,305.1547414854169L483.2241531481481,313.74408636689185L485.2910255555556,304.43408053815364L486.60765351851853,321.2170738957822L487.23630222222226,305.95301667675375L488.7070620370371,323.7911810863763L489.6799555555556,318.9307206261903L490.9667268518519,315.88586563691496L492.06925444444437,312.99088812880217L493.2653074074075,321.9684996128082L493.8477675925926,321.121864695847L495.27029740740744,317.07108904123305L495.9113225925926,309.2103471279144L496.52083240740745,293.91011428534983L496.68300259259263,322.38627244234084L497.10303740740744,318.3487845350057L499.41437722222224,327.1235875736922L500.76035148148145,316.19132012575864L500.9527611111111,324.344561458379L501.2275955555555,321.1716044180095L501.3555709259259,300.6053646326065L503.5251553703704,320.77359158992766L505.08140222222227,312.29909797646104L506.9092937037037,312.33422628119587L507.12364925925925,310.5009642474353L507.3054687037037,297.85674244612454L507.6619624074074,298.3575368531048L508.33309944444443,320.7649842135608L508.56965611111116,308.3262586824596L508.59032611111115,327.2771667547524L510.407755,319.818878653273L511.67104925925923,325.2378416664898L514.1813059259259,304.3130844131112L514.327271851852,322.7135903712362L514.7413098148149,315.9439539860934L516.2599168518518,302.53524402603506L516.6289146296295,286.10956415981053L517.7711235185186,286.58818357139825L518.1929446296297,328.26594307534396L518.6725651851852,314.24448648914694L518.8185311111112,322.6541167449206L522.4857974074074,316.26894141063093L523.9374183333334,321.5590736500919L524.9918435185185,321.04403922781347L527.0204381481482,313.88976401165127L527.4659914814815,315.7397021770477L527.9620714814815,309.5260811828077L528.2656142592592,308.61261852532624L529.2197516666668,318.0025022149086L530.2598864814814,306.08528160005807L530.7567320370371,323.7998782329261L531.4939620370371,316.0948435820639L531.8074570370371,315.2307826884091L536.2703907407407,320.4813632413745L536.4880637037037,321.7561368037015L538.8435505555555,302.29926813840865L540.0565733333333,324.36785594075917L542.38769,325.1322895333171L542.6988883333333,319.8222388744354L543.0046001851852,314.0502871803939L543.7706661111112,318.5781895972788L543.8131544444445,302.80333651676773L544.5898105555555,316.47785950899123L545.6276487037037,310.3078104972839L545.910393888889,318.5926549181342L546.401752962963,302.9450572326779L547.0776109259259,325.3961311418563L547.7830703703704,306.88274357914923L548.8392818518519,312.94115016683935L549.625635,323.375240624696L551.6122516666667,307.56647905781864L552.705465,320.91324583142995L553.7467481481481,326.8279250755906L554.9088614814815,314.83912066072224L557.8425979629629,315.6400431923568L558.3034624074074,314.6544035475701L560.8104016666666,319.4432890087366L561.7427207407408,301.42020330280064L561.9478896296296,315.64332596473395L564.6366483333333,315.89852675311266L568.6334862962963,318.7696289129555L570.1954748148148,306.2548733174801L570.5070559259259,320.29600365534424L573.1066274074074,298.5984096162021L573.3999627777778,319.07100325897335L575.6376816666667,317.8293249707669L578.163377037037,325.4444803062826L579.6497031481481,321.03726421929895L580.2233594444443,313.6740515425801L582.2795140740741,315.57189530208706L582.4702649999999,317.0749931640923L584.3142331481481,313.53696015179156L585.3356118518518,318.4789777033031L585.4447035185185,322.3402960270643L586.5423825925926,323.25286802351474L588.1117714814815,320.1996978510171L588.5092224074074,317.71964868977665L590.3739881481482,317.8084982883185L592.5012118518518,309.2705037117004L595.9129101851851,329.158120518364L596.6614959259259,303.1583476670086L596.9362027777778,321.1889441449195L598.2821770370371,315.0655562661588L598.3098646296296,322.59645436406134L598.5589253703704,320.88743602372705L598.6088140740741,328.38310196511446L599.2192170370371,314.4810397222638L601.5685794444444,310.4187277190387L603.6542079629629,313.9177212629467L605.319036111111,320.9500568870455L606.3131099999999,327.64027658365666L607.9147798148149,316.36641774773597L612.321827962963,315.50101910233496L612.8805559259259,317.8648493204266L613.6568292592592,318.6321168344468L614.4083496296296,319.88739794567226L614.9074918518518,301.2149957053363L615.3950231481481,302.4121462225914L616.2667357407407,313.30737730935215L616.8599137037038,314.61316734999417L617.087538888889,309.3228661313653L617.9632068518517,323.84250674843787L618.1475781481481,308.52453813403844L618.9426075925925,325.975995478034L620.8082664814814,320.1339772760868L621.9640001851852,327.9522464515641L624.0449077777778,319.24685776680707L624.6999681481482,319.4330868914723L625.3402277777777,326.18302224185317L628.2116990740741,308.21436983048915L630.6400412962963,327.0084212299436L631.5745294444445,302.2170175284147L631.5760605555556,316.14265236519276L632.6223198148149,321.85299531072377L633.8218177777777,322.1531480781734L634.4276274074074,316.9469087149948L634.9478224074074,313.65241516828536L636.0442255555555,312.77401920855044L637.2905499999999,326.1765948727727L637.8950837037037,320.92796462103723L637.9477794444443,318.24084381088613L638.1814014814814,320.14368301704525L640.1333129629629,322.21740416698157L641.1369562962963,319.85355986729263L642.3558483333333,308.78243202790617L642.4053542592592,316.2086809750646L645.823177037037,323.51131109967827L646.3567692592593,315.49038397595285L649.6406198148147,318.6613097459078L649.6874462962963,327.0553745560348L649.9250237037037,312.8304371282458L655.0957135185184,317.46914059370755L655.1914079629629,316.7927697904408L655.2180748148148,320.97488978393375L657.432827037037,314.28519990742205L657.5808344444445,326.5548512198031L660.0442646296295,312.44951055832206L660.0968327777778,324.85226288884877L660.4583025925925,317.5702781461179L661.4814675925926,299.87098468914627L664.7880296296296,316.7143194515258L666.6926042592593,317.61059199906884L667.3542994444445,302.5166035115719L668.0769838888888,326.6952148217708L668.8583609259259,321.43982716351746L674.5139025925926,307.1373458996415L674.6344775925926,321.9500562407076L674.6430262962963,303.7152431577444L675.6626187037036,282.9525439672172L684.278180925926,319.91107967197894L684.5417872222222,312.94441885761916L684.6695074074074,314.4290680669248L684.7401937037037,326.1069472923875L685.4419529629629,326.3178368143737L685.8280481481481,303.62524766921996L686.934531111111,326.9486994154751L687.7101664814815,307.12733036354183L688.9950238888889,317.5221314046532L689.6120616666667,306.36080213338136L690.2950648148149,316.2153538919985L691.7196361111112,294.9328430972993L693.793908888889,322.40150873064994L696.1570512962963,312.83548714108764L697.001459074074,314.1674003049731L697.052496111111,323.10495140478014L698.0683883333334,320.8600420363247L700.6500968518518,312.6803044181317L703.3434488888888,325.5262063767761L704.0839962962963,321.94530018121003L706.3672657407407,328.39629818201064L707.8632888888889,328.45791045092045L708.3347435185185,296.8027560085058L708.65717,302.7169142335653L709.4496475925926,296.54026799350976L713.2402959259259,316.5539740629494L714.2099996296297,312.5688996210694L715.0755877777777,301.1136750921607L715.4421612962964,332.5194726090878L716.2801894444444,307.72151744440197L718.8384209259259,314.6851489551365L719.1076412962962,329.5388965912163L719.3954901851852,323.7424569994211L719.5426044444445,315.12918748408555L720.576232037037,317.0509699590504L723.956415,314.08280510902404L724.1372137037037,313.276709350571L725.0913511111112,314.3439254488796L725.5312903703702,258.3979874521494L727.3040618518518,312.2044238772243L729.1253185185184,322.99865470714866L729.606852962963,317.9380032185465L729.9720229629629,331.1630865091458L734.2972842592592,317.16625599637626L734.7216572222222,319.07463455088435L735.4665427777777,298.2387268960476L735.7367838888888,313.6394354559481L738.2665622222222,307.45103460252284L738.3810127777778,321.44604418873786L738.8846207407407,310.7442414432764L739.082772037037,326.7529810544103L740.4560511111112,321.83643887266516L741.084955,320.1549183715135L741.8822811111111,321.105442032963L744.935189074074,320.8498011946678L746.7545318518519,312.6918214045465L749.0122827777777,320.9749901153147L750.6677966666666,319.34604149758815L751.745316111111,323.55610818117856L752.9233785185186,325.5329409006983L753.6417248148148,323.44045778252183L755.0743344444445,311.39453840889036L756.1889833333333,320.22814795821904L756.7168338888888,323.6767628274858L757.0439812962962,317.929267347604L757.5413372222222,322.14157652556895L759.539182037037,292.59040106534957L761.1546318518518,322.24092923551797L766.3740620370369,317.3332566998899L766.9435077777778,304.1852129481733L768.2564355555555,319.0405852485448L771.0648761111112,322.8873009558767L771.222452962963,322.91202472038566L774.27753,309.8557736210525L775.1178548148148,325.03072953298687L776.1687074074074,323.44986428953706L778.8554246296296,326.7557216852903L781.190369074074,316.53091896772384L782.6371414814814,309.86102957725524L784.5956877777777,306.64746473059057L785.4407335185185,305.8911315768957L788.0607198148148,309.9772168368101L788.2819653703702,323.0374090231955L789.1042996296296,316.81551861092447L789.9881335185186,323.74129350744187L791.9335377777777,322.10941063687204L792.684802962963,323.17171225771307L793.1013927777777,323.1544799029827L793.1138968518519,312.58742396235465L794.0531059259258,320.7823186598718L795.6191774074074,319.9209755145013L796.7810355555556,310.26920227780937L798.0630859259259,309.8906220540404L799.7928587037037,323.444536165148L799.858824074074,330.80996757354586L801.760464074074,326.0650651015341L803.4270785185186,326.60680879354476L803.9550566666666,304.6928369298577L806.2008138888889,317.75129179917275L806.2082142592593,322.5165870644152L807.2455420370369,317.0507323320955L808.8344525925927,324.8858017332852L808.9674040740741,314.6992939196527L809.8328646296296,314.63484420888125L810.5219922222221,328.1532674141228L811.7370564814814,291.92730568796395L811.8989714814815,312.51953658163546L812.4613996296296,325.5694236790761L815.2814511111111,325.43189135827123L816.3263068518519,317.5092414624989L818.7046327777778,322.96125574484466L819.0455601851852,308.3693342886865L823.8249235185184,331.0750034775585L824.9907370370371,312.2507593732327L825.2372459259259,317.5385593481362L826.2679388888889,316.48156824968754L830.0731327777778,325.9412165729329L830.9139679629629,322.64329679757356L834.9854475925924,322.94922654032706L836.4978025925926,304.0194831088185L837.1097366666665,311.6522245991975L837.1714914814814,319.97147916331886L837.5778738888889,320.08445229828357L837.7517825925926,317.0281084857881L838.5098101851852,317.7434606708586L840.0194857407407,324.21186352595686L841.9076009259259,324.7028853043914L842.7717855555555,314.75054741352795L846.6118122222223,329.1542419183999L848.1942155555555,322.0597976490855L848.6520177777777,319.3638547182083L849.2844942592592,317.4690385021269L849.7239231481482,318.4064275536686L850.1166531481481,307.3450565010309L851.8758998148147,321.6522251766175L852.0185483333333,114.70770668685435L854.5933668518519,323.15492699369787L855.1279798148148,327.5172623896971L855.7177127777778,321.8615921258926L856.6542424074073,306.47225797623395L858.2747959259259,322.9607100829482L858.9105898148148,320.0691526427865L861.1401427777777,327.767924503237L864.36428,324.8822109259665L866.3048357407408,325.3451539993286L866.4039751851851,310.0900808393955L868.9921909259259,325.3020414289087L869.6230087037036,322.3041098423302L870.7407198148148,323.3052445247769L871.260532037037,316.3637528054416L871.8200255555555,318.9791701219976L873.2932096296296,317.5329478316009L874.891562037037,320.9744004484266L877.1179251851853,319.3682851407677L880.2684414814814,297.98249111026524L881.5993598148148,307.93237880319356L884.4229838888889,324.1301480166614L884.4579442592592,314.44087724648415L885.1819046296296,320.9460682746023L886.8746755555557,321.56365368962287L890.5922133333332,312.9773222699761L890.9946403703703,324.2183375403285L891.5633205555556,306.1323704615235L891.7914561111111,300.9398342527449L891.9645992592593,305.86444342955946L896.8931183333334,312.5698008432984L898.4455374074074,300.530147780478L898.6382022222223,308.19070570617913L899.0193212962962,297.840949934721L899.4616848148147,326.2006374400109L899.8707466666666,314.9253757249564L899.8892475925925,316.75344516970216L902.4430133333333,316.48604795783757L902.9048985185185,321.95014777109026L903.4649024074074,322.7217594578862L903.7498166666667,325.82892463523893L904.8504303703704,326.4670586211607L905.9645688888888,318.1092372022569L907.2433018518519,319.32916822358965L907.5181362962963,322.3719285752624L914.2406072222223,310.5734105452895L914.2899855555556,322.95768253952264L914.4766535185184,312.6303429108113L917.2329087037036,322.0433450628072L917.9045561111111,314.7721274614334L920.6483072222221,297.98568763285874L921.321102962963,303.66995674073695L924.017262037037,298.6388695657253L924.4093540740741,313.90893786661326L924.5272496296298,322.91375499665736L925.5604944444444,315.6798765107989L928.1307196296298,322.75932739935814L931.4319227777778,319.86565595939754L931.5694675925927,317.47898891083895L937.6900842592593,319.95638369098305L939.4388683333334,330.2197013374418L939.8507372222222,324.8286744531244L940.2469122222224,323.4868144009262L943.1405846296295,318.2537513550371L944.3502900000001,312.78809024468063L944.4499398148149,325.46150671765207L944.9035314814815,307.16760373190044L946.5989818518519,323.7412495024502L947.187438888889,328.46658295467495L948.4733170370371,316.4239516340196L949.550964074074,322.8294379122555L956.7853364814815,323.6385031275451L958.0386785185186,319.12128512263297L959.9521846296295,321.99903731681405L959.9548640740742,323.84926943555473L961.2554153703704,327.7500223925337L961.9769514814815,326.6833836397156L962.5503525925927,313.8947629787028L963.7150177777777,325.45485492311417L965.5913944444446,319.6698583893478L968.5080335185187,323.222935828194L970.4484616666666,330.18799838125705L970.4923535185185,302.75087200552224L970.7826266666666,311.96289631985127L972.455237962963,319.48423477336763L973.0170281481483,314.219683515653L975.763331111111,314.65286689326166L976.5304177777779,329.68466576635836L976.6042938888888,302.1733504951L976.8340881481482,322.484396532923L976.9679327777778,324.51153047829865L979.8567566666667,317.21785624958574L984.6413512962964,326.25151513125746L985.3355825925927,320.436198278144L987.6518985185186,321.26780108995735L988.4993685185185,325.87175469361244L992.7852037037038,322.3456857584417L994.3669690740741,316.2800905153155L994.5949770370372,326.341230748035L995.2064007407407,307.05392299667L995.431856851852,318.0853389713913L995.6978874074074,327.0714513396844L997.2328262962963,313.22966801449655L997.4738487037038,310.0300228267908L999.7684738888888,328.2241251317784L1001.3880066666667,312.4036432754248L1001.6504646296297,318.0558257035911L1001.829477037037,320.79029940515755L1002.3156048148147,310.558329154551L1002.7549061111112,312.86956460662185L1004.1524277777778,314.81844887584447L1004.9501366666667,327.69358071014284L1007.7067746296295,324.4355866637081L1008.5220912962964,325.0067890573293L1009.1388738888888,328.04131871536373L1009.8526268518519,301.1326359629631L1009.9531698148149,324.2418221242726L1012.7690107407409,320.30172782465814L1014.4735201851854,327.5193359049037L1017.6194431481483,328.1581968532875L1019.283760925926,317.3690485998988L1021.7700301851853,323.33372103497385L1024.2869216666668,311.36365746594964L1025.6210298148148,319.0474869914353L1028.2532650000003,322.083042845875L1028.7733324074075,314.7542649552226L1030.3977137037039,323.0521102108061L1032.2804700000002,321.01403838470577L1032.762514814815,324.21755777187644L1034.5671844444446,327.63494933936744L1039.5008072222222,324.4744465917349L1041.9747,325.99922043252735L1042.944658888889,321.1947422426194L1045.2663337037038,312.1127949234098L1045.9346637037038,328.6949671011418L1046.117503888889,314.2279300510883L1046.891990925926,312.3342298015952L1048.3695131481484,326.9894462775439L1048.4806462962963,311.99295524954795L1049.6456942592592,327.5862138111144L1050.0917579629631,319.2552996844053L1050.2897816666666,320.7354498233646L1050.5204690740743,316.9204388324171L1051.5209225925928,324.9235298529267L1056.3122796296295,323.2450069718063L1058.1078901851854,311.0039659447968L1059.9578551851853,320.5315993398428L1060.653872777778,328.9395547656342L1060.9390422222223,328.8641539726406L1061.3682637037039,324.74088097438215L1062.6207125925926,309.3754186525941L1063.6759033333335,307.8737782359123L1063.7372753703705,321.13045271001755L1065.6204144444446,326.95513118505477L1065.6614992592592,319.8880280971527L1065.8867001851854,310.7367253907025L1068.0182620370372,314.20819117203354L1068.5399881481483,319.0613749668002L1070.463956851852,297.5807853832841L1071.025109074074,320.47351099066435L1074.1221640740741,323.13943723663687L1075.9057809259261,324.494093940407L1077.6888874074075,327.09062607474624L1079.716588888889,329.7774388499558L1081.9827609259262,309.3334554925561L1083.9123437037038,328.1588314052671L1084.6105303703705,322.3901131980121L1088.1509696296296,309.3544370725751L1090.8440664814814,322.40334813930093L1091.6592555555558,311.13750173226L1093.700481851852,318.1280695784837L1094.127661851852,314.7136448275298L1095.0463285185185,315.90533520542084L1096.9757837037039,307.1316850975156L1097.9139720370372,314.74435679130255L1098.6339770370373,318.93973812907933L1098.8533087037038,308.68617374897L1099.285082037037,323.56883794516324L1100.764007777778,303.8178487166762L1101.896774814815,321.22085480466484L1103.930217962963,319.20131084024905L1105.168504074074,324.6077359512448L1105.2234964814816,318.3330149061978L1105.3448370370372,325.77145587634294L1106.1347627777777,321.7558639727533L1107.4261274074074,321.1800656978041L1107.4747401851853,324.8002595499158L1107.9366253703704,318.0873015940189L1112.7082055555557,316.59694581739603L1113.3001075925927,319.0554026093334L1118.2741772222223,293.4512091100216L1118.4098081481482,323.9892704363912L1120.5523429629632,319.97666471153497L1120.9598737037038,323.745530308038L1124.0127816666668,318.22713009528815L1124.6549551851851,317.97528952807187L1124.6851946296297,315.4770768664777L1125.531899074074,320.614976477623L1126.5187001851853,301.7448052436113L1127.4822794444444,323.556727771461L1131.3947787037039,318.45095884501933L1132.524355925926,323.5850177004933L1132.6347235185185,328.24981612600385L1137.4538957407408,320.1886279553175L1140.9466153703704,323.1375907871872L1141.6233664814815,310.7938051454723L1142.9713822222222,325.3446259394288L1144.1343887037037,319.2749804768711L1144.6761468518519,320.8320724636316L1147.63974,319.3861670091748L1152.2917659259258,314.4625048197806L1154.6339831481482,323.99134747199713L1156.779962962963,320.40189902745186L1163.9414800000002,325.4342975512147L1167.3519024074076,317.5210224788636L1167.9357661111112,315.5435701690614L1168.2575546296298,314.85581791475414L1169.0821855555557,326.77923091202973L1169.9023507407408,306.2154378041625L1170.1623844444446,312.8141411997378L1171.7709442592593,317.56997539177536L1172.5977442592593,322.23417358919977L1173.0411285185185,326.5272231258452L1174.1782337037039,325.68740194179117L1176.8585712962965,312.9476171404123L1177.532642962963,315.41702589467167L1178.918170925926,321.62261509783565L1181.6626875925926,324.46585329696535L1182.0630731481483,312.63693485856055L1182.7314031481483,326.25169819202273L1185.4967174074075,323.38199275061487L1186.2817946296298,312.1300255179405L1191.3208088888891,326.3710476502776L1193.7776042592595,327.1886287115514L1194.5668920370372,329.2158242639154L1198.0574425925927,314.1364524744451L1198.1208561111112,322.960310517624L1198.3242387037037,329.07884728610514L1198.454765925926,325.87645266652106L1200.9745920370372,318.6065041691065L1201.3934785185186,322.4865034919232L1203.0264085185186,315.0783071525395L1203.2901424074075,325.54778906498103L1204.3111383333335,326.3866791034117L1206.8552070370372,329.57021318357437L1207.4198042592595,316.66848913282155L1208.7044064814816,322.3965836919844L1208.746256851852,328.3645468203351L1210.5718516666668,326.84659111294894L1211.3019364814813,321.97217138931154L1213.224756851852,330.31752707418053L1213.5048225925927,328.14210862834005L1216.0760685185185,321.5567977119237L1217.395631111111,321.9819757014513L1218.2100546296297,324.93169717937707L1218.4242825925928,320.69807022325693L1220.1910572222223,318.7093209519982L1221.0350822222224,320.10606050938367L1221.2480342592594,321.9100152187049L1221.354318888889,322.2078586041927L1221.649950925926,327.2759839005768L1223.125942037037,323.7752812027931L1223.5588637037035,321.9738506197929L1225.0796398148148,324.1501755684614L1226.0760103703706,312.4068714816123L1228.2505709259262,322.09949543215333L1229.1997322222223,320.2940251909196L1229.5222862962962,321.1845718089491L1230.4820377777778,324.73762284480034L1232.010341851852,319.8913601551205L1232.149672962963,319.93914253525435L1236.1410244444446,319.0138530962169L1237.359406111111,325.7425225943327L1237.6938262962965,313.92008169069885L1238.0011968518518,323.46392476446925L1240.5183435185186,320.04962850809096L1240.8516153703706,311.66753481589257L1241.3492264814815,300.07441800534724L1241.7563744444446,311.8183469630778L1241.835481851852,314.754926790297L1244.0000901851854,325.5517283918336L1244.1937757407409,330.36166848130523L1244.217507962963,314.3066549811512L1244.4027724074076,321.55681179352104L1244.5095674074075,320.7830068979412L1244.6693133333333,319.57019060365855L1245.4597494444445,315.10670269355177L1246.1015401851853,316.5944410532713L1247.5485677777779,310.3371283829212L1252.9106464814818,310.08882053643464L1253.5993912962965,327.4335384925827L1256.729365185185,332.4445356287062L1259.5939464814817,317.69498477205633L1259.6591462962965,312.13709976039826L1261.1679287037036,323.3795883178711L1263.4374181481483,284.7724108815193L1266.075139814815,305.7500374920666L1267.9548338888887,317.7294530019164L1268.7645364814816,321.83901932537555L1268.819784074074,321.10462177991866L1269.457491851852,321.1220723994076L1269.6547500000001,327.24118475317954L1271.421397037037,324.97601196616887L1272.1303014814816,321.5910212740302L1272.585807037037,323.25715586990117L1273.0358261111114,315.59985079318284L1273.5154466666668,318.4029828429222L1274.014844074074,325.13941482156514L1274.519472777778,326.33427883945404L1275.046557777778,324.05226622223853L1276.1548270370372,326.64545221701263L1276.2769331481481,322.23443585895L1276.4434414814816,312.41073511987923L1277.7547105555557,321.458450075984L1278.5069964814816,318.0691961802542L1279.316443888889,328.0202808089554L1280.1953016666669,319.47133955061435L1280.6654803703705,316.78738357946276L1283.5207474074075,319.18867964744567L1286.019775925926,322.95704358704387L1286.1093459259262,312.25408791080116L1286.2143546296297,323.1385852999985L1286.2193307407408,321.2933838319033L1288.13373,302.23913267701863L1288.6521387037037,316.84715291932224L1289.2514411111113,317.2756629668176L1289.9992612962963,324.8981002483517L1290.323474074074,311.83726734928786L1290.6013707407408,309.0209602050483L1290.6820092592593,328.1462002124637L1293.768218888889,324.63459659814833L1294.184170740741,319.26568486243485L1295.5746748148151,317.2804612711072L1295.9532420370372,327.88344200681894L1296.0675650000003,327.7467959465459L1297.820432037037,320.3509500481188L1298.037849814815,328.2479731969535L1298.9223216666667,324.91682349219917L1299.1902661111112,318.2796702951193L1299.2637594444445,318.9246479373425L1299.5613053703705,310.17842878103255L1302.7201151851855,324.84336331933736L1305.2040877777779,308.23219713270663L1306.055257962963,324.0000516593456L1306.1475074074074,300.53035196363925L1308.7307470370372,324.7660553500056L1310.6488464814815,323.49021686688064L1311.2739225925927,313.9773286644369L1314.5986027777778,326.7150848357007L1314.8502153703703,321.15361517742275L1315.1365331481481,298.9946798466146L1315.5607785185186,295.0378460481763L1316.627325,325.5356947330758L1318.383637037037,328.1967707488686L1320.6147211111113,316.603418071568L1321.8988129629631,324.90671642571687L1322.0313816666667,322.9915241383016L1323.2497633333335,316.56066986247896L1323.632923888889,320.8822416745126" style="fill: none;" fill="none"></path></g></g></g></g></g></g><g transform="translate(70, 378)" clip-path="url(#clip_1)"><clipPath id="clip_1"><rect width="1378" height="22"></rect></clipPath><g><g><line x1="0" y1="0" x2="0" y2="5" style="visibility: inherit;" fill="rgb(0, 0, 0)" stroke="rgb(204, 204, 204)" stroke-width="1px"></line><line x1="91.86666666666666" y1="0" x2="91.86666666666666" y2="5" style="visibility: inherit;" fill="rgb(0, 0, 0)" stroke="rgb(204, 204, 204)" stroke-width="1px"></line><line x1="183.73333333333332" y1="0" x2="183.73333333333332" y2="5" style="visibility: inherit;" fill="rgb(0, 0, 0)" stroke="rgb(204, 204, 204)" stroke-width="1px"></line><line x1="275.6000000000001" y1="0" x2="275.6000000000001" y2="5" style="visibility: inherit;" fill="rgb(0, 0, 0)" stroke="rgb(204, 204, 204)" stroke-width="1px"></line><line x1="367.46666666666664" y1="0" x2="367.46666666666664" y2="5" style="visibility: inherit;" fill="rgb(0, 0, 0)" stroke="rgb(204, 204, 204)" stroke-width="1px"></line><line x1="459.3333333333333" y1="0" x2="459.3333333333333" y2="5" style="visibility: inherit;" fill="rgb(0, 0, 0)" stroke="rgb(204, 204, 204)" stroke-width="1px"></line><line x1="551.1999999999999" y1="0" x2="551.1999999999999" y2="5" style="visibility: inherit;" fill="rgb(0, 0, 0)" stroke="rgb(204, 204, 204)" stroke-width="1px"></line><line x1="643.0666666666666" y1="0" x2="643.0666666666666" y2="5" style="visibility: inherit;" fill="rgb(0, 0, 0)" stroke="rgb(204, 204, 204)" stroke-width="1px"></line><line x1="734.9333333333333" y1="0" x2="734.9333333333333" y2="5" style="visibility: inherit;" fill="rgb(0, 0, 0)" stroke="rgb(204, 204, 204)" stroke-width="1px"></line><line x1="826.8" y1="0" x2="826.8" y2="5" style="visibility: inherit;" fill="rgb(0, 0, 0)" stroke="rgb(204, 204, 204)" stroke-width="1px"></line><line x1="918.6666666666666" y1="0" x2="918.6666666666666" y2="5" style="visibility: inherit;" fill="rgb(0, 0, 0)" stroke="rgb(204, 204, 204)" stroke-width="1px"></line><line x1="1010.5333333333334" y1="0" x2="1010.5333333333334" y2="5" style="visibility: inherit;" fill="rgb(0, 0, 0)" stroke="rgb(204, 204, 204)" stroke-width="1px"></line><line x1="1102.4000000000003" y1="0" x2="1102.4000000000003" y2="5" style="visibility: inherit;" fill="rgb(0, 0, 0)" stroke="rgb(204, 204, 204)" stroke-width="1px"></line><line x1="1194.2666666666667" y1="0" x2="1194.2666666666667" y2="5" style="visibility: inherit;" fill="rgb(0, 0, 0)" stroke="rgb(204, 204, 204)" stroke-width="1px"></line><line x1="1286.1333333333334" y1="0" x2="1286.1333333333334" y2="5" style="visibility: inherit;" fill="rgb(0, 0, 0)" stroke="rgb(204, 204, 204)" stroke-width="1px"></line><line x1="1378" y1="0" x2="1378" y2="5" style="visibility: inherit;" fill="rgb(0, 0, 0)" stroke="rgb(204, 204, 204)" stroke-width="1px"></line></g><g transform="translate(0, 8)"><text x="0" y="0" dx="0em" dy="0.95em" style="text-anchor: middle; visibility: hidden; font-family: &quot;Helvetica Neue&quot;, sans-serif; font-size: 12px; font-weight: 200;" fill="rgb(50, 49, 63)" stroke="none" stroke-width="1px">-0.2</text><text x="91.86666666666666" y="0" dx="0em" dy="0.95em" style="text-anchor: middle; visibility: inherit; font-family: &quot;Helvetica Neue&quot;, sans-serif; font-size: 12px; font-weight: 200;" fill="rgb(50, 49, 63)" stroke="none" stroke-width="1px">0</text><text x="183.73333333333332" y="0" dx="0em" dy="0.95em" style="text-anchor: middle; visibility: inherit; font-family: &quot;Helvetica Neue&quot;, sans-serif; font-size: 12px; font-weight: 200;" fill="rgb(50, 49, 63)" stroke="none" stroke-width="1px">0.2</text><text x="275.6000000000001" y="0" dx="0em" dy="0.95em" style="text-anchor: middle; visibility: inherit; font-family: &quot;Helvetica Neue&quot;, sans-serif; font-size: 12px; font-weight: 200;" fill="rgb(50, 49, 63)" stroke="none" stroke-width="1px">0.4</text><text x="367.46666666666664" y="0" dx="0em" dy="0.95em" style="text-anchor: middle; visibility: inherit; font-family: &quot;Helvetica Neue&quot;, sans-serif; font-size: 12px; font-weight: 200;" fill="rgb(50, 49, 63)" stroke="none" stroke-width="1px">0.6</text><text x="459.3333333333333" y="0" dx="0em" dy="0.95em" style="text-anchor: middle; visibility: inherit; font-family: &quot;Helvetica Neue&quot;, sans-serif; font-size: 12px; font-weight: 200;" fill="rgb(50, 49, 63)" stroke="none" stroke-width="1px">0.8</text><text x="551.1999999999999" y="0" dx="0em" dy="0.95em" style="text-anchor: middle; visibility: inherit; font-family: &quot;Helvetica Neue&quot;, sans-serif; font-size: 12px; font-weight: 200;" fill="rgb(50, 49, 63)" stroke="none" stroke-width="1px">1</text><text x="643.0666666666666" y="0" dx="0em" dy="0.95em" style="text-anchor: middle; visibility: inherit; font-family: &quot;Helvetica Neue&quot;, sans-serif; font-size: 12px; font-weight: 200;" fill="rgb(50, 49, 63)" stroke="none" stroke-width="1px">1.2</text><text x="734.9333333333333" y="0" dx="0em" dy="0.95em" style="text-anchor: middle; visibility: inherit; font-family: &quot;Helvetica Neue&quot;, sans-serif; font-size: 12px; font-weight: 200;" fill="rgb(50, 49, 63)" stroke="none" stroke-width="1px">1.4</text><text x="826.8" y="0" dx="0em" dy="0.95em" style="text-anchor: middle; visibility: inherit; font-family: &quot;Helvetica Neue&quot;, sans-serif; font-size: 12px; font-weight: 200;" fill="rgb(50, 49, 63)" stroke="none" stroke-width="1px">1.6</text><text x="918.6666666666666" y="0" dx="0em" dy="0.95em" style="text-anchor: middle; visibility: inherit; font-family: &quot;Helvetica Neue&quot;, sans-serif; font-size: 12px; font-weight: 200;" fill="rgb(50, 49, 63)" stroke="none" stroke-width="1px">1.8</text><text x="1010.5333333333334" y="0" dx="0em" dy="0.95em" style="text-anchor: middle; visibility: inherit; font-family: &quot;Helvetica Neue&quot;, sans-serif; font-size: 12px; font-weight: 200;" fill="rgb(50, 49, 63)" stroke="none" stroke-width="1px">2</text><text x="1102.4000000000003" y="0" dx="0em" dy="0.95em" style="text-anchor: middle; visibility: inherit; font-family: &quot;Helvetica Neue&quot;, sans-serif; font-size: 12px; font-weight: 200;" fill="rgb(50, 49, 63)" stroke="none" stroke-width="1px">2.2</text><text x="1194.2666666666667" y="0" dx="0em" dy="0.95em" style="text-anchor: middle; visibility: inherit; font-family: &quot;Helvetica Neue&quot;, sans-serif; font-size: 12px; font-weight: 200;" fill="rgb(50, 49, 63)" stroke="none" stroke-width="1px">2.4</text><text x="1286.1333333333334" y="0" dx="0em" dy="0.95em" style="text-anchor: middle; visibility: inherit; font-family: &quot;Helvetica Neue&quot;, sans-serif; font-size: 12px; font-weight: 200;" fill="rgb(50, 49, 63)" stroke="none" stroke-width="1px">2.6</text><text x="1378" y="0" dx="0em" dy="0.95em" style="text-anchor: middle; visibility: hidden; font-family: &quot;Helvetica Neue&quot;, sans-serif; font-size: 12px; font-weight: 200;" fill="rgb(50, 49, 63)" stroke="none" stroke-width="1px">2.8</text></g><line x1="0" y1="0" x2="1378" y2="0" fill="rgb(0, 0, 0)" stroke="rgb(204, 204, 204)" stroke-width="1px"></line></g></g></g></g></svg>