<svg viewBox="0 0 1448 400" xmlns="http://www.w3.org/2000/svg"><g><g><g><g><g><line x1="70" y1="378" x2="65" y2="378" style="visibility: inherit;" fill="rgb(0, 0, 0)" stroke="rgb(204, 204, 204)" stroke-width="1px"></line><line x1="70" y1="336" x2="65" y2="336" style="visibility: inherit;" fill="rgb(0, 0, 0)" stroke="rgb(204, 204, 204)" stroke-width="1px"></line><line x1="70" y1="294" x2="65" y2="294" style="visibility: inherit;" fill="rgb(0, 0, 0)" stroke="rgb(204, 204, 204)" stroke-width="1px"></line><line x1="70" y1="252" x2="65" y2="252" style="visibility: inherit;" fill="rgb(0, 0, 0)" stroke="rgb(204, 204, 204)" stroke-width="1px"></line><line x1="70" y1="210" x2="65" y2="210" style="visibility: inherit;" fill="rgb(0, 0, 0)" stroke="rgb(204, 204, 204)" stroke-width="1px"></line><line x1="70" y1="168" x2="65" y2="168" style="visibility: inherit;" fill="rgb(0, 0, 0)" stroke="rgb(204, 204, 204)" stroke-width="1px"></line><line x1="70" y1="125.99999999999997" x2="65" y2="125.99999999999997" style="visibility: inherit;" fill="rgb(0, 0, 0)" stroke="rgb(204, 204, 204)" stroke-width="1px"></line><line x1="70" y1="84.00000000000006" x2="65" y2="84.00000000000006" style="visibility: inherit;" fill="rgb(0, 0, 0)" stroke="rgb(204, 204, 204)" stroke-width="1px"></line><line x1="70" y1="42" x2="65" y2="42" style="visibility: inherit;" fill="rgb(0, 0, 0)" stroke="rgb(204, 204, 204)" stroke-width="1px"></line><line x1="70" y1="0" x2="65" y2="0" style="visibility: inherit;" fill="rgb(0, 0, 0)" stroke="rgb(204, 204, 204)" stroke-width="1px"></line></g><g transform="translate(60, 0)"><text x="0" y="378" dx="0em" dy="0.3em" style="text-anchor: end; visibility: hidden; font-family: &quot;Helvetica Neue&quot;, sans-serif; font-size: 12px; font-weight: 200;" fill="rgb(50, 49, 63)" stroke="none" stroke-width="1px">-5e-3</text><text x="0" y="336" dx="0em" dy="0.3em" style="text-anchor: end; visibility: inherit; font-family: &quot;Helvetica Neue&quot;, sans-serif; font-size: 12px; font-weight: 200;" fill="rgb(50, 49, 63)" stroke="none" stroke-width="1px">0</text><text x="0" y="294" dx="0em" dy="0.3em" style="text-anchor: end; visibility: inherit; font-family: &quot;Helvetica Neue&quot;, sans-serif; font-size: 12px; font-weight: 200;" fill="rgb(50, 49, 63)" stroke="none" stroke-width="1px">5e-3</text><text x="0" y="252" dx="0em" dy="0.3em" style="text-anchor: end; visibility: inherit; font-family: &quot;Helvetica Neue&quot;, sans-serif; font-size: 12px; font-weight: 200;" fill="rgb(50, 49, 63)" stroke="none" stroke-width="1px">0.01</text><text x="0" y="210" dx="0em" dy="0.3em" style="text-anchor: end; visibility: inherit; font-family: &quot;Helvetica Neue&quot;, sans-serif; font-size: 12px; font-weight: 200;" fill="rgb(50, 49, 63)" stroke="none" stroke-width="1px">0.015</text><text x="0" y="168" dx="0em" dy="0.3em" style="text-anchor: end; visibility: inherit; font-family: &quot;Helvetica Neue&quot;, sans-serif; font-size: 12px; font-weight: 200;" fill="rgb(50, 49, 63)" stroke="none" stroke-width="1px">0.02</text><text x="0" y="125.99999999999997" dx="0em" dy="0.3em" style="text-anchor: end; visibility: inherit; font-family: &quot;Helvetica Neue&quot;, sans-serif; font-size: 12px; font-weight: 200;" fill="rgb(50, 49, 63)" stroke="none" stroke-width="1px">0.025</text><text x="0" y="84.00000000000006" dx="0em" dy="0.3em" style="text-anchor: end; visibility: inherit; font-family: &quot;Helvetica Neue&quot;, sans-serif; font-size: 12px; font-weight: 200;" fill="rgb(50, 49, 63)" stroke="none" stroke-width="1px">0.03</text><text x="0" y="42" dx="0em" dy="0.3em" style="text-anchor: end; visibility: inherit; font-family: &quot;Helvetica Neue&quot;, sans-serif; font-size: 12px; font-weight: 200;" fill="rgb(50, 49, 63)" stroke="none" stroke-width="1px">0.035</text><text x="0" y="0" dx="0em" dy="0.3em" style="text-anchor: end; visibility: hidden; font-family: &quot;Helvetica Neue&quot;, sans-serif; font-size: 12px; font-weight: 200;" fill="rgb(50, 49, 63)" stroke="none" stroke-width="1px">0.04</text></g><line x1="70" y1="0" x2="70" y2="378" fill="rgb(0, 0, 0)" stroke="rgb(204, 204, 204)" stroke-width="1px"></line></g></g><g transform="translate(70, 0)" clip-path="url(#clip_0)"><clipPath id="clip_0"><rect width="1378" height="378"></rect></clipPath><g><g><g><line x1="0" y1="0" x2="0" y2="378" fill="rgb(0, 0, 0)" stroke="rgb(60, 60, 60)" stroke-width="1px" opacity="0.25"></line><line x1="114.83333333333333" y1="0" x2="114.83333333333333" y2="378" fill="rgb(0, 0, 0)" stroke="rgb(60, 60, 60)" stroke-width="1px" opacity="0.25"></line><line x1="229.66666666666666" y1="0" x2="229.66666666666666" y2="378" fill="rgb(0, 0, 0)" stroke="rgb(60, 60, 60)" stroke-width="1px" opacity="0.25"></line><line x1="344.5" y1="0" x2="344.5" y2="378" fill="rgb(0, 0, 0)" stroke="rgb(60, 60, 60)" stroke-width="1px" opacity="0.25"></line><line x1="459.3333333333333" y1="0" x2="459.3333333333333" y2="378" fill="rgb(0, 0, 0)" stroke="rgb(60, 60, 60)" stroke-width="1px" opacity="0.25"></line><line x1="574.1666666666667" y1="0" x2="574.1666666666667" y2="378" fill="rgb(0, 0, 0)" stroke="rgb(60, 60, 60)" stroke-width="1px" opacity="0.25"></line><line x1="689" y1="0" x2="689" y2="378" fill="rgb(0, 0, 0)" stroke="rgb(60, 60, 60)" stroke-width="1px" opacity="0.25"></line><line x1="803.8333333333334" y1="0" x2="803.8333333333334" y2="378" fill="rgb(0, 0, 0)" stroke="rgb(60, 60, 60)" stroke-width="1px" opacity="0.25"></line><line x1="918.6666666666666" y1="0" x2="918.6666666666666" y2="378" fill="rgb(0, 0, 0)" stroke="rgb(60, 60, 60)" stroke-width="1px" opacity="0.25"></line><line x1="1033.5" y1="0" x2="1033.5" y2="378" fill="rgb(0, 0, 0)" stroke="rgb(60, 60, 60)" stroke-width="1px" opacity="0.25"></line><line x1="1148.3333333333335" y1="0" x2="1148.3333333333335" y2="378" fill="rgb(0, 0, 0)" stroke="rgb(60, 60, 60)" stroke-width="1px" opacity="0.25"></line><line x1="1263.1666666666665" y1="0" x2="1263.1666666666665" y2="378" fill="rgb(0, 0, 0)" stroke="rgb(60, 60, 60)" stroke-width="1px" opacity="0.25"></line><line x1="1378" y1="0" x2="1378" y2="378" fill="rgb(0, 0, 0)" stroke="rgb(60, 60, 60)" stroke-width="1px" opacity="0.25"></line></g><g><line x1="0" y1="378" x2="1378" y2="378" fill="rgb(0, 0, 0)" stroke="rgb(60, 60, 60)" stroke-width="1px" opacity="0.25"></line><line x1="0" y1="336" x2="1378" y2="336" fill="rgb(0, 0, 0)" stroke="rgb(60, 60, 60)" stroke-width="1px" opacity="0.25"></line><line x1="0" y1="294" x2="1378" y2="294" fill="rgb(0, 0, 0)" stroke="rgb(60, 60, 60)" stroke-width="1px" opacity="0.25"></line><line x1="0" y1="252" x2="1378" y2="252" fill="rgb(0, 0, 0)" stroke="rgb(60, 60, 60)" stroke-width="1px" opacity="0.25"></line><line x1="0" y1="210" x2="1378" y2="210" fill="rgb(0, 0, 0)" stroke="rgb(60, 60, 60)" stroke-width="1px" opacity="0.25"></line><line x1="0" y1="168" x2="1378" y2="168" fill="rgb(0, 0, 0)" stroke="rgb(60, 60, 60)" stroke-width="1px" opacity="0.25"></line><line x1="0" y1="125.99999999999997" x2="1378" y2="125.99999999999997" fill="rgb(0, 0, 0)" stroke="rgb(60, 60, 60)" stroke-width="1px" opacity="0.25"></line><line x1="0" y1="84.00000000000006" x2="1378" y2="84.00000000000006" fill="rgb(0, 0, 0)" stroke="rgb(60, 60, 60)" stroke-width="1px" opacity="0.25"></line><line x1="0" y1="42" x2="1378" y2="42" fill="rgb(0, 0, 0)" stroke="rgb(60, 60, 60)" stroke-width="1px" opacity="0.25"></line><line x1="0" y1="0" x2="1378" y2="0" fill="rgb(0, 0, 0)" stroke="rgb(60, 60, 60)" stroke-width="1px" opacity="0.25"></line></g></g></g><g><g><line x1="0" y1="336" x2="1378" y2="336" fill="rgb(0, 0, 0)" stroke="rgb(153, 153, 153)" stroke-width="1.5px"></line></g></g><g><g><line x1="114.83333333333333" y1="0" x2="114.83333333333333" y2="378" fill="rgb(0, 0, 0)" stroke="rgb(153, 153, 153)" stroke-width="1.5px"></line></g></g><g><g><g><g><g><path stroke="rgb(255, 112, 67)" stroke-width="2px" d="M135.50333333333333,-3.3659175912007413L135.50333333333333,5.396163708326924L135.50333333333333,12.920548425000618L137.8,16.417588943841963L137.8,20.39746349430436L137.8,25.42953841236357L140.09666666666666,29.00582982245146L140.09666666666666,32.33939543226887L142.39333333333335,33.63799393157308L142.39333333333335,39.211060253813685L142.39333333333335,41.55411816004175L142.39333333333335,43.18455868310053L144.69,47.95919390945937L144.69,47.94643256688272L144.69,50.9355440756778L146.98666666666668,51.43154800379773L146.98666666666668,53.99493020342538L146.98666666666668,56.503108197092956L146.98666666666668,57.46169590182194L149.28333333333333,58.786764242243294L149.28333333333333,59.61656418521375L151.58,60.374390816829816L151.58,62.76966428763569L156.17333333333332,65.72167678901423L156.17333333333332,68.3470591290764L156.17333333333332,70.10737837871199L156.17333333333332,72.67140660994949L158.47,74.37501902790495L158.47,75.73841780239661L158.47,77.50272395235686L160.76666666666668,78.33828368661801L165.35999999999999,79.4718207034199L165.35999999999999,80.80506277243427L169.95333333333335,84.04109873934692L172.25,84.66517829530392L172.25,87.21693187160861L172.25,89.3361293890323L174.54666666666668,90.6361039063874L176.84333333333333,91.84118731886542L179.14000000000001,93.32345286184056L181.43666666666664,95.66033921519607L181.43666666666664,98.01100094853075L181.43666666666664,99.00389602089257L190.62333333333333,99.91319007363654L190.62333333333333,100.67656693201519L190.62333333333333,102.47330809015614L190.62333333333333,103.2306470566806L192.92000000000002,104.79514099228516L192.92000000000002,106.03377987905208L192.92000000000002,106.59444833251536L192.92000000000002,108.49368887005346L195.21666666666667,109.35451020214515L195.21666666666667,110.86329746952231L195.21666666666667,112.36582008372915L195.21666666666667,113.7476551926668L195.21666666666667,114.30600145480923L197.51333333333335,114.97338253423976L199.80999999999997,116.31100782530831L199.80999999999997,116.60961917547257L204.40333333333334,117.51154458428175L204.40333333333334,119.36806407626875L204.40333333333334,120.65705512137498L204.40333333333334,120.43427216439056L204.40333333333334,121.37299228705598L206.7,121.39582566749453L206.7,122.46986919878643L206.7,123.06420525433973L206.7,123.7906645001384L208.99666666666667,125.08529320658548L208.99666666666667,125.25759260663133L211.29333333333332,126.12664166977433L213.59,125.98969054455497L213.59,127.21938592285383L215.88666666666668,127.7749671467626L215.88666666666668,128.68577929199117L220.48000000000002,128.87624489708978L222.77666666666664,129.31814034521494L225.07333333333332,130.68549317014916L225.07333333333332,131.63683145866798L225.07333333333332,132.24012394292717L225.07333333333332,132.3506314250967L227.37,132.66333963105407L229.66666666666666,133.52082390598477L229.66666666666666,134.02050847795604L229.66666666666666,135.0015147228386L229.66666666666666,135.7314484041317L231.96333333333334,136.16371005825837L231.96333333333334,136.51903912106152L231.96333333333334,137.36396727072506L234.26000000000002,137.44037966841213L234.26000000000002,138.24886711588564L236.55666666666667,138.57432483853975L238.85333333333335,139.84506442024502L238.85333333333335,140.56620193719135L238.85333333333335,140.66311631530996L238.85333333333335,141.05571367659363L241.14999999999998,141.61201236287545L241.14999999999998,142.48280217357097L241.14999999999998,142.88191611952692L241.14999999999998,143.40851721611787L243.44666666666666,143.99130107987114L243.44666666666666,144.6729386669676L243.44666666666666,145.1034924154713L243.44666666666666,145.42324880945225L243.44666666666666,145.86233687641283L243.44666666666666,145.92736015876474L243.44666666666666,146.45703150292437L245.74333333333334,146.80555580695824L245.74333333333334,147.49892847845513L245.74333333333334,148.01260257605693L250.33666666666667,148.70097106020748L250.33666666666667,148.91952902779587L252.63333333333333,149.23149671310279L254.93,149.41601159647124L254.93,149.857040618546L254.93,150.4096903979143L254.93,150.9190350611977L257.2266666666667,151.39540009949184L257.2266666666667,151.91037020103298L259.5233333333333,152.36422180425703L261.82,152.7425075322743L261.82,152.99323692318288L261.82,152.6906266951515L264.1166666666667,152.71479808890084L266.41333333333336,153.0134439022317L266.41333333333336,153.22792800775287L268.71000000000004,153.67850493375047L268.71000000000004,154.19874646186236L268.71000000000004,154.474901160454L268.71000000000004,154.5840807447424L271.00666666666666,155.03425650434477L271.00666666666666,155.40160408573539L275.6,155.74217433284326L275.6,156.08950873143692L280.1933333333333,156.1956464325534L280.1933333333333,156.53167128802917L280.1933333333333,156.90608392968778L282.49,157.62761492491396L282.49,157.77024885039864L282.49,158.38946155205343L282.49,159.01847992555963L282.49,159.56240903087306L284.7866666666667,160.08681718118635L284.7866666666667,160.17810108937775L287.08333333333337,160.6010186460868L287.08333333333337,160.65782265081572L287.08333333333337,161.10701316530742L289.38,161.35915602784988L291.6766666666667,161.70184600223374L293.97333333333336,162.09781582179852L296.27,162.66631035830412L296.27,162.9657680016523L296.27,163.38964643889346L300.86333333333334,163.41326964200678L300.86333333333334,163.89380896292826L305.4566666666667,164.3132205669762L307.75333333333333,164.86299292236643L307.75333333333333,165.4601627118824L307.75333333333333,165.89695777797942L307.75333333333333,166.00609130183838L310.05,165.95052959022402L312.34666666666664,166.33165771808086L314.6433333333333,166.65026223358154L314.6433333333333,166.9772862525532L314.6433333333333,167.3482115712511L316.94,167.77010535453297L316.94,168.28808981042746L316.94,168.6499878428577L319.2366666666667,168.95611514268717L319.2366666666667,168.99985099097165L321.53333333333336,169.22680475649568L323.83,169.64358911731483L326.12666666666667,169.41721980405006L326.12666666666667,169.44183114408037L328.42333333333335,169.78817637794555L328.42333333333335,170.14772841912585L328.42333333333335,170.17357043633183L330.71999999999997,170.63220900078537L330.71999999999997,170.99144881445554L330.71999999999997,171.5617485771878L333.01666666666665,171.75534234426271L337.61,172.18623909682012L337.61,172.5625568770767L337.61,172.85453393168964L339.9066666666667,172.86532864883355L339.9066666666667,173.11525906066143L339.9066666666667,173.4940923657388L339.9066666666667,173.99654593614378L342.2033333333333,174.11475137512065L342.2033333333333,173.68388321307802L342.2033333333333,173.4744866325642L344.5,173.7678336387032L346.7966666666666,174.09955198313875L346.7966666666666,174.54528248268315L349.09333333333336,174.0632892393592L351.39,173.80978383350487L355.98333333333335,174.03253038084978L355.98333333333335,174.32079405973278L355.98333333333335,174.70518913714224L358.28000000000003,174.74571562851975L360.57666666666665,175.13373059181168L362.8733333333333,175.43513042461558L362.8733333333333,175.86617971384788L362.8733333333333,176.09816342973423L367.46666666666664,176.40113463166762L367.46666666666664,176.61961738365446L367.46666666666664,177.0105354746069L369.7633333333333,177.26602383371224L372.06,177.47766928827534L374.3566666666667,177.849123922752L374.3566666666667,177.9579554034396L376.6533333333333,178.37321388280048L376.6533333333333,178.68862260939153L376.6533333333333,179.06761045207048L378.95000000000005,179.3235078470946L378.95000000000005,179.3477004785174L381.24666666666667,179.57024632794108L381.24666666666667,179.80930144261438L381.24666666666667,178.48991876457495L383.5433333333333,178.76363818682194L385.84000000000003,179.090365193408L385.84000000000003,179.14120602751368L385.84000000000003,179.3556286984719L385.84000000000003,179.47179794775553L388.13666666666666,179.52710172385824L388.13666666666666,179.69825826074575L388.13666666666666,179.9637876643573L388.13666666666666,180.3050014132516L388.13666666666666,180.64975833967557L390.43333333333334,180.96057785748513L390.43333333333334,181.3190827222301L390.43333333333334,181.58571932602305L395.0266666666667,181.82844059139583L395.0266666666667,182.2626750424124L399.61999999999995,181.8649065038175L401.9166666666667,182.10848967207312L404.2133333333333,182.15221194433084L404.2133333333333,182.27375448644034L404.2133333333333,182.0951339704755L404.2133333333333,182.09934771120038L406.51,182.4543845792526L406.51,182.78788896368434L406.51,182.74710238402065L408.8066666666667,182.95121570620265L411.10333333333335,183.18856335923178L413.4,183.41814898954502L413.4,183.2833587565396L413.4,183.3577334858832L413.4,183.3584120020073L413.4,183.70343808347454L413.4,183.72657068427154L415.6966666666667,183.48697435030718L417.99333333333334,183.6076216951027L417.99333333333334,183.64208983516724L417.99333333333334,183.72366581547317L417.99333333333334,183.8333567159821L417.99333333333334,184.11651793719324L420.28999999999996,184.27188394722592L420.28999999999996,184.54211415339515L420.28999999999996,184.41452342970004L420.28999999999996,184.74071984315094L420.28999999999996,184.92332466540515L422.58666666666664,185.1030861462672L427.18,185.3859834693652L427.18,185.6392987694538L427.18,185.75246288650186L429.47666666666663,185.87687068962146L434.07,186.1908561967971L434.07,186.24653068875458L436.3666666666667,186.3990190305706L438.66333333333336,186.67618203607523L438.66333333333336,186.79048918729498L438.66333333333336,187.00693729563085L440.96000000000004,187.0392338141131L443.25666666666666,186.9753773899648L443.25666666666666,187.05617562035812L443.25666666666666,187.04311732554126L445.5533333333333,187.3057157542382L445.5533333333333,187.53762730186554L447.85,187.73501304860292L450.14666666666665,188.02901669032036L450.14666666666665,188.21213510561762L452.4433333333333,188.4902810916537L452.4433333333333,188.79858405983467L454.74,188.8765812677165L454.74,189.059321336168L454.74,189.35720595671896L459.3333333333333,189.38010026012077L461.63000000000005,189.55984282116964L461.63000000000005,189.61908077984933L463.9266666666667,189.8811099335633L466.2233333333333,190.01594573377568L466.2233333333333,190.15169643375347L466.2233333333333,190.39672809197552L466.2233333333333,190.59883994374124L468.52000000000004,190.63447361031302L468.52000000000004,190.87563887568L470.81666666666666,191.1025575504736L473.11333333333334,190.8275788628203L473.11333333333334,190.9953783321642L475.40999999999997,191.26546355194208L475.40999999999997,191.3552100360651L475.40999999999997,191.43411026826783L477.7066666666667,191.66554976358714L480.00333333333333,191.62998610455512L480.00333333333333,191.75315346206736L482.29999999999995,191.86426147079698L484.5966666666667,191.87377200032319L484.5966666666667,192.07416892534258L486.8933333333333,192.12861773576037L486.8933333333333,192.26362042436855L489.19,192.00222875946037L491.4866666666667,192.03109436942663L491.4866666666667,192.036730747413L491.4866666666667,191.95498579147025L493.78333333333336,192.0321057960334L496.08,192.13388273470565L496.08,192.3245631145288L496.08,192.39091503532654L496.08,192.47312019632204L496.08,192.57754206416573L498.3766666666667,192.68147356432885L498.3766666666667,192.68053998381964L500.67333333333335,192.89769120078182L500.67333333333335,192.90918851164128L502.96999999999997,193.00735924889764L502.96999999999997,193.12677130688078L502.96999999999997,193.13252988076192L502.96999999999997,193.06387562402293L502.96999999999997,193.06689130039496L502.96999999999997,193.0587965955958L505.26666666666665,193.05609766808647L505.26666666666665,193.06086443421404L507.56333333333333,193.16546967696942L507.56333333333333,193.13389098217036L509.86,193.1958098715972L509.86,193.26698822915301L512.1566666666666,193.37653487515306L512.1566666666666,193.43759383042246L512.1566666666666,193.40250362501078L514.4533333333334,193.5786847306262L514.4533333333334,193.73778900451575L514.4533333333334,193.8427936971169L516.75,194.0784835818455L516.75,194.19576259628568L516.75,194.3525290470755L516.75,194.49832534535398L516.75,194.76576056897608L521.3433333333334,194.68977075709608L525.9366666666666,194.9300033784836L528.2333333333333,194.9363916955739L528.2333333333333,195.1305481259941L528.2333333333333,195.22531101326067L530.53,195.28045401086385L530.53,195.36034353256986L532.8266666666667,195.49355020466905L532.8266666666667,195.6348588316288L532.8266666666667,195.6392626971387L535.1233333333333,195.73004200500478L535.1233333333333,195.73809654781473L537.4200000000001,195.9787434880878L537.4200000000001,196.09296607491268L539.7166666666667,196.25164369912562L539.7166666666667,196.41292178466992L542.0133333333333,196.58242527869132L542.0133333333333,196.69678327805198L544.3100000000001,196.68560775184514L544.3100000000001,196.71286933763412L544.3100000000001,196.86374165545487L546.6066666666667,197.00662506903495L546.6066666666667,197.23580802523398L548.9033333333333,197.14191867238088L551.2,197.316936690634L551.2,197.1940125360847L551.2,197.1440674576709L553.4966666666667,197.1560347830583L555.7933333333333,197.26117602938567L555.7933333333333,197.42011328392846L555.7933333333333,197.59680225263148L555.7933333333333,197.7391777860375L558.09,197.82406290105544L558.09,197.8441826536183L560.3866666666667,198.02000244147558L560.3866666666667,198.10928088583742L560.3866666666667,198.10227077501128L562.6833333333333,198.18768895828737L564.98,198.4327505679755L564.98,198.49298543023656L567.2766666666666,198.69544993248212L571.87,198.75865979482296L571.87,198.95076565685508L571.87,198.92429875195648L571.87,199.0893866532852L574.1666666666667,199.1391397321099L574.1666666666667,199.13084957041485L576.4633333333334,199.07858409276432L578.76,199.16895161063724L578.76,199.2641253853453L578.76,199.09795968041863L581.0566666666667,199.28647233069418L581.0566666666667,199.41532311670613L583.3533333333334,199.51486253203984L585.65,199.66216377145682L585.65,199.48265217997732L585.65,199.50150323438254L587.9466666666667,199.57563985866008L594.8366666666666,199.7324981537092L597.1333333333333,199.83168006842348L597.1333333333333,199.8566077355066L597.1333333333333,199.78618429959403L599.43,199.76100769010552L599.43,199.82891604626076L599.43,199.81957190889585L601.7266666666667,199.92754303943457L601.7266666666667,200.00006021166578L604.0233333333333,200.22824139023808L604.0233333333333,200.3810051311491L604.0233333333333,200.48028127850517L604.0233333333333,200.59079296196887L606.32,200.73437345577634L608.6166666666667,200.84269339341222L610.9133333333334,200.80959818140443L610.9133333333334,200.85322000830703L613.21,200.8076744435115L615.5066666666667,200.88397602841152L615.5066666666667,201.00749473110804L617.8033333333333,201.17155462439717L620.1,201.23303710582118L620.1,201.21833163519764L622.3966666666666,201.37654498834425L622.3966666666666,201.49646052720001L622.3966666666666,201.67491591090348L624.6933333333333,201.82745400706622L624.6933333333333,201.96926784180616L626.99,202.10232918684017L626.99,202.20644578725705L629.2866666666666,202.19438912654826L629.2866666666666,202.0461952347956L631.5833333333333,202.1115739421375L631.5833333333333,202.2411408464354L631.5833333333333,202.3158812928326L631.5833333333333,202.5377109880036L633.88,202.59516236092327L633.88,202.5440309577956L636.1766666666666,202.5694277967492L638.4733333333334,202.52043138050124L640.77,202.64914879876045L640.77,202.66061988083808L640.77,202.75350473836335L643.0666666666667,202.9049970997211L643.0666666666667,203.04939074250933L643.0666666666667,203.07596945915165L643.0666666666667,203.14943223299215L643.0666666666667,203.18247656019588L643.0666666666667,203.3477439786366L645.3633333333333,203.56362893551236L647.66,203.5810597380191L647.66,203.7024080917359L649.9566666666667,203.74276556934714L649.9566666666667,203.86580079708511L652.2533333333333,204.0319288427801L652.2533333333333,204.13467259940737L654.55,204.30407337942003L654.55,204.39426424137673L654.55,204.59454932551358L654.55,204.62609454601613L656.8466666666667,204.82212203624616L656.8466666666667,204.96908433975022L659.1433333333333,205.03114319427695L659.1433333333333,205.04340271777315L659.1433333333333,205.2495535486572L663.7366666666667,205.33149164380683L666.0333333333333,205.37704939207265L666.0333333333333,205.42473111910124L668.3299999999999,205.57441647550587L670.6266666666667,205.79881389879938L672.9233333333333,205.91442481443198L675.22,205.82770598341077L675.22,205.89292643981156L675.22,205.9025355044598L675.22,206.11381174911392L675.22,206.25566245716186L675.22,206.33776001278434L677.5166666666667,206.35334205401512L679.8133333333334,206.4599983890551L679.8133333333334,206.56911785183274L679.8133333333334,206.67347026786746L684.4066666666666,206.76708067741865L684.4066666666666,206.9111206071495L684.4066666666666,206.9926758154696L684.4066666666666,207.04636649837403L684.4066666666666,207.06650846728198L684.4066666666666,207.17976460995425L684.4066666666666,207.39068825148706L684.4066666666666,207.55063317701538L686.7033333333334,207.61130780341426L686.7033333333334,207.63898821454154L691.2966666666667,207.46497161179568L691.2966666666667,207.3768757866047L693.5933333333332,207.4697213093531L693.5933333333332,207.59356123244217L693.5933333333332,207.76433961247585L698.1866666666667,207.88641674283548L700.4833333333333,207.91990188066418L702.78,207.95035960016796L702.78,208.10675535177822L702.78,208.13514944906623L705.0766666666667,208.27812522084142L705.0766666666667,208.2334698283726L707.3733333333333,208.2915306108735L707.3733333333333,208.25056017010286L707.3733333333333,208.3802843183898L707.3733333333333,208.44773180333743L707.3733333333333,208.56469751918658L709.6700000000001,208.50003805532677L709.6700000000001,208.5349793068331L709.6700000000001,208.6119796575305L709.6700000000001,208.65133093486253L714.2633333333333,208.7789485988575L716.5600000000001,208.8705585155228L716.5600000000001,208.92899407755343L716.5600000000001,208.82440451544062L718.8566666666666,208.97226835573306L718.8566666666666,209.06164179968349L718.8566666666666,209.06084140028204L721.1533333333333,209.0722567289304L721.1533333333333,209.01065294885177L723.45,209.0475209083369L723.45,209.1629574302404L723.45,209.0808390706261L725.7466666666666,209.1914356106127L725.7466666666666,209.30864117987144L725.7466666666666,209.4694680366404L725.7466666666666,209.54263732526076L725.7466666666666,209.6350100716928L728.0433333333333,209.73608379121592L728.0433333333333,209.69210095896653L730.34,209.7388115714751L732.6366666666667,209.8351113944632L734.9333333333333,209.9568916874349L737.23,209.94861785217074L739.5266666666666,210.0602038223053L739.5266666666666,210.21731632985103L739.5266666666666,210.32015681491217L741.8233333333334,210.3636546660438L741.8233333333334,210.37592395666596L741.8233333333334,210.3703434363006L741.8233333333334,209.9327343294182L744.12,210.01463551663846L744.12,210.0663774573712L746.4166666666666,210.1452843265758L746.4166666666666,210.19840797410296L746.4166666666666,210.24876251854096L746.4166666666666,210.26614298934066L748.7133333333334,210.2350165787517L748.7133333333334,210.2730087741891L751.0100000000001,210.37682359073582L751.0100000000001,210.51502050546966L751.0100000000001,210.59034799215712L753.3066666666666,210.7357955997979L753.3066666666666,210.84863424265353L755.6033333333334,210.96579426077736L755.6033333333334,211.05829427326836L755.6033333333334,211.1959833704726L757.9000000000001,211.15684752189483L760.1966666666666,211.18740158193344L762.4933333333333,211.23379982655723L762.4933333333333,211.3417149397403L762.4933333333333,211.37348314962568L764.7900000000001,211.46444041966075L764.7900000000001,211.54143282246181L767.0866666666666,211.63017216379944L767.0866666666666,211.76600916642246L767.0866666666666,211.7951114790651L769.3833333333333,211.75571122890076L769.3833333333333,211.82593901014965L769.3833333333333,211.85845898362126L771.6800000000001,212.02737741272776L773.9766666666667,212.14714492387364L776.2733333333333,212.24411089676718L776.2733333333333,212.31334562941714L778.5699999999999,212.40187625556155L778.5699999999999,212.54570276133754L780.8666666666667,212.58570979558564L783.1633333333334,212.68887547039392L785.4599999999999,212.8389025605233L785.4599999999999,213.02123752170908L787.7566666666667,213.04158209541342L787.7566666666667,213.15877859741468L787.7566666666667,213.2656161322873L790.0533333333334,213.3978888115927L794.6466666666666,213.3367250112072L794.6466666666666,213.44761203773652L796.9433333333334,213.53395728335553L796.9433333333334,213.68156375556694L796.9433333333334,213.77178835994252L796.9433333333334,213.81681497476828L799.2399999999999,213.92171773510213L799.2399999999999,214.0186932093544L801.5366666666666,214.13593948561314L803.8333333333334,214.25762663384845L803.8333333333334,214.3525417273931L803.8333333333334,214.44944780582847L803.8333333333334,214.54642927850108L803.8333333333334,214.60737571740134L806.13,214.71646012466786L806.13,214.8382332787001L806.13,214.91717597617603L806.13,214.99580193568207L806.13,215.09014488354043L808.4266666666666,215.18460821311822L810.7233333333334,215.2521491084149L813.02,215.3746882563408L815.3166666666667,215.39591038219532L815.3166666666667,215.4584546358164L817.6133333333333,215.5440785249842L817.6133333333333,215.61863092373403L817.6133333333333,215.64750043984694L819.91,215.59146568396477L819.91,215.68739694243544L819.91,215.83751429983062L819.91,215.93854432168538L819.91,215.99571034616383L819.91,216.03281305586503L822.2066666666667,216.11982153024928L822.2066666666667,216.1368979200241L824.5033333333334,216.2463290477475L824.5033333333334,216.2023791311873L829.0966666666667,216.1415522913336L829.0966666666667,216.25187613829087L829.0966666666667,216.29754107221765L829.0966666666667,216.41751226533083L831.3933333333334,216.44356029708172L831.3933333333334,216.50431870829902L833.6899999999999,216.43866185026755L833.6899999999999,216.51765919489853L840.5799999999999,216.55628201032246L842.8766666666667,216.62375138017532L845.1733333333333,216.66879332881157L849.7666666666667,216.7226119401993L852.0633333333333,216.71179026814502L852.0633333333333,216.75580225533093L852.0633333333333,216.87702508565255L856.6566666666668,216.96324556073878L856.6566666666668,217.04654356848383L856.6566666666668,217.16987802675914L856.6566666666668,217.22026006610687L858.9533333333333,217.27114527094096L861.25,217.3327146749122L863.5466666666667,217.45622110842078L863.5466666666667,217.53584454719206L863.5466666666667,217.65672385342305L865.8433333333332,217.67404550421972L865.8433333333332,217.77398556221766L868.14,217.86183803838253L868.14,217.94971097490787L870.4366666666667,218.01020114618623L870.4366666666667,218.09489139339897L875.03,218.2006374137052L875.03,218.0948122169379L877.3266666666667,218.13896344341788L877.3266666666667,218.17604981072776L877.3266666666667,218.25288171784211L879.6233333333333,218.26275085459136L879.6233333333333,218.22255169554614L881.9200000000001,218.27978177453753L884.2166666666667,218.3323888868086L886.5133333333333,218.43648969073308L886.5133333333333,218.52801974421817L888.8100000000001,218.63380395980658L891.1066666666666,218.7023242957171L895.7,218.7141740467958L897.9966666666666,218.84331257774227L897.9966666666666,218.88827728037654L900.2933333333333,218.95543428581416L900.2933333333333,219.0100014709172L900.2933333333333,219.12213820108158L902.59,219.1631803439025L902.59,219.3135149539684L902.59,219.3974625029237L904.8866666666667,219.54390182040623L907.1833333333333,219.66060350776837L907.1833333333333,219.62929146993542L907.1833333333333,219.67549351120292L907.1833333333333,219.70809571911445L909.48,219.79091739427986L911.7766666666666,219.83106773343954L914.0733333333334,219.9427880774639L918.6666666666666,220.05319420657494L918.6666666666666,220.13001566154512L920.9633333333334,220.24680012328963L920.9633333333334,220.3190801583094L923.2600000000001,220.41175081058512L923.2600000000001,220.4825039240336L923.2600000000001,220.5207284067965L925.5566666666666,220.56940123260682L927.8533333333334,220.67242394684058L930.1500000000001,220.75350831754315L930.1500000000001,220.83033274921902L930.1500000000001,220.92833707476206L934.7433333333333,220.9746082039952L934.7433333333333,221.04907803789231L934.7433333333333,221.12829731847123L937.0400000000001,221.13888082496698L937.0400000000001,221.21297620299623L937.0400000000001,221.18703402831903L939.3366666666666,221.28396966721448L941.6333333333333,221.25096351924296L941.6333333333333,221.2790580988893L943.9300000000001,221.3520996964937L943.9300000000001,221.4128953588636L946.2266666666667,221.5222712377057L946.2266666666667,221.6270423694359L948.5233333333333,221.6710803676201L948.5233333333333,221.67380003619715L950.8199999999999,221.72129346794287L953.1166666666667,221.7527980925068L957.7099999999999,221.73621016942934L962.3033333333334,221.7619668312635L964.5999999999999,221.79079705267353L966.8966666666666,221.8590220001418L969.1933333333334,221.895356918313L969.1933333333334,221.8466463886832L969.1933333333334,221.93855399704825L971.4899999999999,222.05886246238205L971.4899999999999,222.093465754767L973.7866666666666,222.20261495785775L973.7866666666666,222.26430782242667L973.7866666666666,222.3371739258216L976.0833333333334,222.42864236424765L976.0833333333334,222.4949810484234L976.0833333333334,222.52917460641456L978.38,222.60153018923685L978.38,222.65295368143447L978.38,222.72135400237053L980.6766666666666,222.80930782900077L980.6766666666666,222.9006818110386L980.6766666666666,222.94361288659672L980.6766666666666,222.99654364834595L982.9733333333334,223.04852743284476L982.9733333333334,223.1266766847349L985.27,223.18810369966084L989.8633333333333,223.23583251231062L989.8633333333333,223.29709799313966L989.8633333333333,223.24330208601341L992.16,223.29241890997415L994.4566666666667,223.29770659431406L994.4566666666667,223.3161157378983L994.4566666666667,223.4081160180709L996.7533333333334,223.4066261743131L996.7533333333334,223.4029454125831L996.7533333333334,223.47412200549232L996.7533333333334,223.3847863974372L996.7533333333334,223.39145539574545L996.7533333333334,223.47766128994064L999.05,223.56511116072318L999.05,223.5723967650865L1001.3466666666667,223.60000835540478L1001.3466666666667,223.6466456479268L1001.3466666666667,223.7175442285282L1001.3466666666667,223.7568566591051L1005.9399999999999,223.67117409348953L1005.9399999999999,223.6566668843681L1008.2366666666667,223.71126312997518L1008.2366666666667,223.72763737287173L1010.5333333333333,223.79149650145487L1010.5333333333333,223.74175891941053L1012.8299999999999,223.7621426628108L1012.8299999999999,223.7395633443432L1015.1266666666667,223.73942879632833L1015.1266666666667,223.59898367692966L1017.4233333333333,223.59507205636345L1017.4233333333333,223.67469222670567L1019.72,223.60240991646535L1022.0166666666667,223.57001074601536L1024.3133333333333,223.41992578963368L1024.3133333333333,223.5151636433178L1026.61,223.4985439847394L1026.61,223.4773607390787L1028.9066666666668,223.48775849962584L1028.9066666666668,223.54638156655398L1033.5,223.57019681756785L1033.5,223.58813517883618L1038.0933333333332,223.5940656111728L1038.0933333333332,223.65064526457058L1040.39,223.65519448052217L1042.6866666666667,223.7291091389198L1042.6866666666667,223.76886375640527L1044.9833333333333,223.7367752304587L1044.9833333333333,223.82516433121492L1047.28,223.85988591225032L1047.28,223.90793249423876L1049.5766666666668,223.84167128552457L1049.5766666666668,223.7900048861123L1051.8733333333332,223.77912265278795L1051.8733333333332,223.7767198455053L1051.8733333333332,223.78785890380644L1054.17,223.72573032675584L1054.17,223.80274730645522L1056.4666666666667,223.7828118720955L1056.4666666666667,223.75828282308345L1056.4666666666667,223.74493199007983L1058.7633333333333,223.7854641430744L1061.06,223.78527375248586L1061.06,223.79638555417552L1061.06,223.71458140791657L1061.06,223.80520195449637L1063.3566666666666,223.8511482909505L1063.3566666666666,223.8162714953024L1063.3566666666666,223.74739223676602L1065.6533333333334,223.7495121069635L1065.6533333333334,223.76523831555892L1067.95,223.84220615716248L1067.95,223.8434150339206L1067.95,223.7829674596366L1070.2466666666667,223.83169529540578L1070.2466666666667,223.81123882486008L1072.5433333333333,223.86620174313748L1074.8400000000001,223.9571244873327L1074.8400000000001,223.9975647618604L1074.8400000000001,224.04492320041567L1077.1366666666665,224.06164041525554L1077.1366666666665,224.11059203268417L1077.1366666666665,224.07759784971887L1079.4333333333334,224.15164039303073L1081.73,224.24219075001835L1081.73,224.33910795677858L1084.0266666666666,224.4411849526457L1088.6200000000001,224.48013805017408L1088.6200000000001,224.53649079537226L1088.6200000000001,224.5447227185327L1088.6200000000001,224.59546137557186L1088.6200000000001,224.66996457682194L1090.9166666666665,224.75898566338486L1090.9166666666665,224.8071679150159L1090.9166666666665,224.81505037282056L1093.2133333333334,224.85636566614264L1095.51,224.88670797952216L1095.51,224.98044372769442L1095.51,224.9730129432176L1095.51,224.9897179450315L1097.8066666666666,225.0974726996962L1097.8066666666666,225.1478608839268L1104.6966666666667,225.19191360089962L1104.6966666666667,225.25376691520765L1104.6966666666667,225.27136007244442L1104.6966666666667,225.3352457808111L1104.6966666666667,225.4038686162113L1104.6966666666667,225.4631218278924L1106.9933333333333,225.47225767272607L1109.29,225.49614475755465L1111.5866666666666,225.5811656772006L1113.8833333333334,225.58889095758707L1113.8833333333334,225.59629944418276L1113.8833333333334,225.6180993271175L1113.8833333333334,225.64313468890768L1116.18,225.69530627796627L1116.18,225.77489634107602L1118.4766666666667,225.86816068071016L1118.4766666666667,225.85545047463071L1118.4766666666667,225.9123772069284L1118.4766666666667,225.98052527415538L1120.7733333333333,226.00272307019216L1120.7733333333333,226.0943869512861L1120.7733333333333,226.1641686088714L1120.7733333333333,226.22876375521128L1120.7733333333333,226.25971488349285L1123.07,226.3526180132476L1123.07,226.37925658784854L1125.3666666666666,226.31494185669106L1125.3666666666666,226.38244519063684L1125.3666666666666,226.29841762802238L1125.3666666666666,226.36158839650102L1127.6633333333334,226.40536202685306L1127.6633333333334,226.47035591267675L1129.96,226.55333726892115L1129.96,226.5873331486442L1129.96,226.6943651796473L1132.2566666666667,226.76107061636247L1132.2566666666667,226.78575920302234L1134.5533333333333,226.82429555656833L1134.5533333333333,226.84323699332958L1136.85,226.8493696315508L1136.85,226.85831749117673L1136.85,226.84791639645618L1136.85,226.8698874034457L1139.1466666666668,226.82020645706731L1141.4433333333334,226.84031214512817L1141.4433333333334,226.90020171322826L1143.74,226.9420216394975L1143.74,226.93779241837308L1146.0366666666666,226.88558208950204L1146.0366666666666,226.9020049457257L1150.6299999999999,226.91248261826917L1150.6299999999999,226.94878550061898L1152.9266666666667,227.03542440359632L1152.9266666666667,227.06706678809962L1152.9266666666667,227.10355683412493L1155.2233333333334,226.88662148102583L1157.52,226.8290088211665L1159.8166666666666,226.83748891174258L1162.1133333333335,226.8494848357057L1162.1133333333335,226.91620757288487L1164.4099999999999,226.92488481004983L1164.4099999999999,226.9652402985448L1166.7066666666667,226.9027789319903L1166.7066666666667,227.00130668474026L1169.0033333333333,227.06076527758822L1169.0033333333333,227.13519714361206L1169.0033333333333,227.22514097673917L1169.0033333333333,227.28215280434563L1171.3,227.23116380546153L1173.5966666666666,227.2868709326195L1173.5966666666666,227.3340211286255L1175.8933333333334,227.383708768682L1175.8933333333334,227.48229364432407L1175.8933333333334,227.4972031169328L1178.19,227.5223430064776L1180.4866666666667,227.61399553464196L1182.7833333333333,227.63683459614734L1185.08,227.64189188947844L1187.3766666666668,227.654385485664L1187.3766666666668,227.73915240823973L1187.3766666666668,227.71018100675934L1189.6733333333332,227.79810418039182L1191.97,227.8584009855279L1191.97,227.9233017027039L1194.2666666666667,227.96939044732508L1194.2666666666667,227.84920220089188L1194.2666666666667,227.869165908354L1196.5633333333333,227.86015392050132L1196.5633333333333,227.87845576300415L1196.5633333333333,227.93827173900235L1198.86,228.01376476079884L1203.4533333333334,228.07652331359503L1203.4533333333334,227.95972412511676L1203.4533333333334,228.00103755377546L1203.4533333333334,227.9867945378362L1205.75,228.07636084797912L1205.75,228.10068273959143L1208.0466666666666,228.16736392396834L1208.0466666666666,228.1824165075558L1208.0466666666666,228.26787009018892L1210.3433333333332,228.24662183197094L1210.3433333333332,228.31565115729478L1217.2333333333333,228.37575752545385L1217.2333333333333,228.22606590755223L1219.53,228.29130249906893L1219.53,228.35585563369554L1221.8266666666668,228.42084436970987L1221.8266666666668,228.50763737450603L1224.1233333333332,228.5809444293929L1228.7166666666667,228.61089226647508L1228.7166666666667,228.6682024534828L1233.31,228.69629129223424L1233.31,228.74427398697532L1235.6066666666666,228.8120740829476L1235.6066666666666,228.85228968345112L1235.6066666666666,228.91624396227797L1240.2,228.9438696791639L1240.2,229.04084444561664L1240.2,229.09293391417924L1242.4966666666667,229.1733725810771L1242.4966666666667,229.20878719545505L1242.4966666666667,229.2437346868238L1244.7933333333333,229.32507230872676L1247.0900000000001,229.40097133243322L1249.3866666666665,229.4540493610184L1249.3866666666665,229.5090066998969L1249.3866666666665,229.52480060980332L1249.3866666666665,229.5977978440207L1249.3866666666665,229.69196302777644L1251.6833333333334,229.7614909542441L1251.6833333333334,229.80933429599204L1251.6833333333334,229.87787588962175L1253.98,229.9153899869973L1253.98,229.9254258291787L1256.2766666666666,229.99748902611262L1260.8700000000001,230.01103684276598L1260.8700000000001,229.99743581564576L1263.1666666666665,229.94450222228994L1263.1666666666665,229.98321583417152" style="fill: none;" fill="none"></path></g></g></g></g><g opacity="0.2"><g><g><g><path stroke="rgb(255, 112, 67)" stroke-width="2px" d="M117.13000000000001,-493.1400343179704L117.13000000000001,33.884680330753326L117.13000000000001,17.719163060188293L119.42666666666668,34.332224786281586L121.72333333333333,-11.362715005874634L121.72333333333333,108.0921479165554L121.72333333333333,-59.07739394903183L121.72333333333333,69.35960358381271L124.02,139.71711552143094L124.02,121.7581190764904L124.02,83.95751050114632L126.31666666666666,89.73198240995407L128.61333333333334,122.63757741451263L128.61333333333334,86.61279907822609L133.20666666666668,-11.743543982505798L133.20666666666668,147.81783601641652L135.50333333333333,71.80598384141922L135.50333333333333,170.2208594083786L135.50333333333333,161.83808451890945L137.8,89.0529834330082L137.8,106.95480859279633L137.8,139.78854051232338L140.09666666666666,113.77211666107178L140.09666666666666,114.60374450683594L142.39333333333335,66.94952255487442L142.39333333333335,187.59537568688393L142.39333333333335,106.21696418523788L142.39333333333335,89.76466736197472L144.69,188.99935787916183L144.69,47.55709773302078L144.69,145.02504846453664L146.98666666666668,67.52436465024948L146.98666666666668,139.6413565278053L146.98666666666668,142.72694742679596L146.98666666666668,91.33981919288635L149.28333333333333,106.89385092258453L149.28333333333333,90.5415960252285L151.58,89.34594324231148L151.58,156.6417717039585L156.17333333333332,184.24606776237488L156.17333333333332,176.27447551488876L156.17333333333332,144.15892070531845L156.17333333333332,182.9862654805183L158.47,149.2999241352081L158.47,137.0027937591076L158.47,158.46515080332753L160.76666666666668,117.47775158286095L165.35999999999999,133.6485103368759L165.35999999999999,145.7947172820568L169.95333333333335,244.85859802365303L172.25,116.27177229523653L172.25,218.8708067536354L172.25,200.68066871166226L174.54666666666668,160.16830435395238L176.84333333333333,157.43733501434323L179.14000000000001,175.4075185060501L181.43666666666664,227.27625301480293L181.43666666666664,232.61867804825306L181.43666666666664,156.79582437872887L190.62333333333333,153.69454032182693L190.62333333333333,146.54492220282552L190.62333333333333,212.11950226128099L190.62333333333333,150.15764987468717L192.92000000000002,203.20188483595845L192.92000000000002,185.10371527075765L192.92000000000002,142.90967962145805L192.92000000000002,233.2843151539564L195.21666666666667,166.71864098310468L195.21666666666667,212.81385800242424L195.21666666666667,215.29256334900856L195.21666666666667,209.69278147816658L195.21666666666667,153.5927460193634L197.51333333333335,162.55186504125595L199.80999999999997,212.91301591694355L199.80999999999997,138.45179012417793L204.40333333333334,184.31866621971128L204.40333333333334,258.6007115095854L204.40333333333334,218.51803144812584L204.40333333333334,103.31480956077576L204.40333333333334,194.37334915995595L206.7,123.19251751899716L206.7,207.97166606783864L206.7,170.92417261004448L206.7,182.9573199748993L208.99666666666667,231.71454562246797L208.99666666666667,139.60659062862393L211.29333333333332,199.29636946320534L213.59,114.33378463983536L213.59,233.00252674520016L215.88666666666668,176.07543995976445L215.88666666666668,208.69962206482884L220.48000000000002,145.7819812595844L222.77666666666664,168.943032681942L225.07333333333332,254.53979006409645L225.07333333333332,218.67290554940698L225.07333333333332,187.98166519403455L225.07333333333332,142.6612176597118L227.37,162.12290829420087L229.66666666666666,215.07842136919498L229.66666666666666,181.99848836660385L229.66666666666666,230.08016502857205L229.66666666666666,207.1347263306379L231.96333333333334,178.83777996897695L231.96333333333334,171.91800481081006L231.96333333333334,222.29819713532925L234.26000000000002,145.19019430875778L234.26000000000002,220.97207835316655L236.55666666666667,172.1664980649948L238.85333333333335,272.14297192543745L238.85333333333335,216.2898533642292L238.85333333333335,150.92633298039436L238.85333333333335,182.98233827948567L241.14999999999998,201.51711559295651L241.14999999999998,237.0300748050213L241.14999999999998,186.57167485356328L241.14999999999998,201.52232578396794L243.44666666666666,208.8231254965067L243.44666666666666,221.10687835514543L243.44666666666666,193.76453912258145L243.44666666666666,181.84531188011167L243.44666666666666,196.26558727025986L243.44666666666666,153.44892597198483L243.44666666666666,208.19461686909196L245.74333333333334,187.73650458455083L245.74333333333334,229.54037046432495L245.74333333333334,209.24407920241353L250.33666666666667,231.36216147243977L250.33666666666667,175.35666829347608L252.63333333333333,187.24155208468437L254.93,172.05910241603848L254.93,204.3652125298977L254.93,219.19721817970276L254.93,214.761874884367L257.2266666666667,211.52065104246137L257.2266666666667,217.3576843589544L259.5233333333333,210.43973198533058L261.82,201.4780000448227L261.82,185.5135053992271L261.82,113.1782174706459L264.1166666666667,155.89189535379407L266.41333333333336,192.52665719389913L266.41333333333336,181.79177051782608L268.71000000000004,214.0740436166525L268.71000000000004,224.38214837014672L268.71000000000004,191.96829056739804L268.71000000000004,169.50158706307408L271.00666666666666,216.9312231838703L271.00666666666666,206.22657282650468L275.6,203.15543121099472L275.6,204.74308437108994L280.1933333333333,171.15426591038704L280.1933333333333,204.17798987030983L280.1933333333333,210.31651018559933L282.49,261.1727856695652L282.49,178.36132130026814L282.49,248.31011487543583L282.49,250.90013524889946L282.49,239.4788802266121L284.7866666666667,237.5820186585188L284.7866666666667,173.74542063474655L287.08333333333337,223.81793005764482L287.08333333333337,169.19703340530396L287.08333333333337,229.01396906375882L289.38,199.69095146656034L291.6766666666667,214.08923609554765L293.97333333333336,222.96519546210763L296.27,250.53424841165543L296.27,209.50356392562387L296.27,229.62087808549404L300.86333333333334,167.1243161559105L300.86333333333334,239.78787741065022L305.4566666666667,230.90582384169102L307.75333333333333,252.61571972072124L307.75333333333333,261.27955546975136L307.75333333333333,236.34955814480782L307.75333333333333,183.70013988018033L310.05,156.89569419622418L312.34666666666664,228.76235438883305L314.6433333333333,219.10537487268448L314.6433333333333,221.09144335985184L314.6433333333333,229.03609281778336L316.94,238.2857621312141L316.94,255.29530687630177L316.94,229.73970329761502L319.2366666666667,220.8856721073389L319.2366666666667,176.4552049934864L321.53333333333336,208.10211642086506L323.83,241.38029484450814L326.12666666666667,130.26747187972066L326.12666666666667,173.71860301494596L328.42333333333335,230.25923600792885L328.42333333333335,233.22108095884323L328.42333333333335,174.7281127274036L330.71999999999997,251.84259308874607L330.71999999999997,234.89672845602036L330.71999999999997,273.4808253720403L333.01666666666665,206.5115608870983L337.61,249.89897279441357L337.61,240.73998114466667L337.61,225.99075181782246L339.9066666666667,174.83865326642987L339.9066666666667,219.0076955258846L339.9066666666667,243.36468136310577L339.9066666666667,267.0764718800783L342.2033333333333,196.1085931062698L342.2033333333333,93.16432482004166L342.2033333333333,134.1729246675968L344.5,229.0640134960413L346.7966666666666,236.89762173593041L346.7966666666666,259.288057744503L349.09333333333336,82.03632688522339L351.39,125.20315057039258L355.98333333333335,216.92133477330205L355.98333333333335,230.0570868551731L355.98333333333335,249.33834528923035L358.28000000000003,182.64685204625127L360.57666666666665,251.0939840823412L362.8733333333333,234.68115484714505L362.8733333333333,260.94322434067726L362.8733333333333,222.07120960950851L367.46666666666664,236.68465322256088L367.46666666666664,220.26688760519028L367.46666666666664,255.41841132938862L369.7633333333333,228.714250087738L372.06,220.26597230136395L374.3566666666667,253.2419909387827L374.3566666666667,200.13373947143552L376.6533333333333,263.3175850510597L376.6533333333333,243.45851956307885L376.6533333333333,257.1944058537483L378.95000000000005,232.27859964966774L378.95000000000005,184.37325587868688L381.24666666666667,225.97597396373746L381.24666666666667,229.84654350578782L381.24666666666667,-98.71536934375763L383.5433333333333,236.48864521086216L385.84000000000003,248.25169971585274L385.84000000000003,189.94318476319313L385.84000000000003,225.08193334937093L385.84000000000003,204.33653301000592L388.13666666666666,191.40767088532448L388.13666666666666,216.60097843408582L388.13666666666666,237.42206735908982L388.13666666666666,254.40775944292545L388.13666666666666,255.79154236614704L390.43333333333334,248.9482693970203L390.43333333333334,260.01704639196396L390.43333333333334,240.32486347854137L395.0266666666667,235.48812425136563L395.0266666666667,278.59900096803904L399.61999999999995,93.30953738093376L401.9166666666667,236.52661858499047L404.2133333333333,191.95397427678108L404.2133333333333,209.61562214791772L404.2133333333333,141.77490627765656L404.2133333333333,183.05377891659737L406.51,263.1460946649313L406.51,258.84313403069973L406.51,173.4143309891224L408.8066666666667,229.81356127560136L411.10333333333335,237.8637914210558L413.4,236.48179216682908L413.4,152.02607443928716L413.4,200.6619714796543L413.4,183.51679748296735L413.4,264.5067446529865L413.4,189.1617969274521L415.6966666666667,127.00845828652382L417.99333333333334,212.1391382664442L417.99333333333334,191.8196358382702L417.99333333333334,203.13965982198715L417.99333333333334,210.02448914945123L417.99333333333334,251.94279929995534L420.28999999999996,221.60506962239742L420.28999999999996,249.68125565350053L420.28999999999996,153.56200119853017L420.28999999999996,263.8647802770138L420.28999999999996,229.35511922836304L422.58666666666664,228.97887459397313L427.18,254.64850781857967L427.18,247.85021772980687L427.18,213.62934677302837L429.47666666666663,216.6171644479036L434.07,264.010556101799L434.07,200.08698856830594L436.3666666666667,224.421443849802L438.66333333333336,255.99356634914875L438.66333333333336,215.46386598050594L438.66333333333336,241.4637987166643L440.96000000000004,195.18895527720449L443.25666666666666,170.8141327500343L443.25666666666666,207.56544327735898L443.25666666666666,183.71875888109207L445.5533333333333,254.35306026041508L445.5533333333333,246.9223812818527L447.85,238.42551416158673L450.14666666666665,263.75010131299496L450.14666666666665,235.51033405959606L452.4433333333333,260.5394580066204L452.4433333333333,268.88756869733334L454.74,209.19585755467412L454.74,236.8004117757082L454.74,267.3997305929661L459.3333333333333,195.3950316309929L461.63000000000005,236.91524720191956L461.63000000000005,205.2696265876293L463.9266666666667,259.3012083917856L466.2233333333333,225.83734063804147L466.2233333333333,226.31570032238957L466.2233333333333,255.85270343720913L466.2233333333333,244.73744934797284L468.52000000000004,200.20552432537076L468.52000000000004,255.82774771749973L470.81666666666666,252.3832638412714L473.11333333333334,116.3675428032875L473.11333333333334,236.5551103502512L475.40999999999997,264.7935867905617L475.40999999999997,215.85305786132812L475.40999999999997,213.02857106924057L477.7066666666667,255.1768415272236L480.00333333333333,181.84488943219182L480.00333333333333,225.73096199333665L482.29999999999995,222.59563958644867L484.5966666666667,194.51116105914116L484.5966666666667,247.79137229919434L486.8933333333333,207.30650617182255L486.8933333333333,229.99355538189408L489.19,118.76160210371012L491.4866666666667,200.1398414969444L491.4866666666667,193.62411430478096L491.4866666666667,168.8743614256382L493.78333333333336,213.86214686930177L496.08,221.01632586121556L496.08,246.57256311178205L496.08,211.31524747610092L496.08,215.97765652835366L496.08,222.5088578313589L498.3766666666667,222.5462679415941L498.3766666666667,192.41161054372785L500.67333333333335,255.6051724255085L500.67333333333335,196.23747101426122L502.96999999999997,221.4958277195692L502.96999999999997,227.863964125514L502.96999999999997,194.81178751587865L502.96999999999997,172.995043605566L502.96999999999997,193.9505570232868L502.96999999999997,190.68113869428635L505.26666666666665,192.2614381313324L505.26666666666665,194.4677271544933L507.56333333333333,224.11227455735204L507.56333333333333,183.7693274617195L509.86,211.60115866363046L509.86,214.47465723752973L512.1566666666666,226.0928746908903L512.1566666666666,211.7157437503338L512.1566666666666,182.87361270189282L514.4533333333334,246.56534238159654L514.4533333333334,241.6996654719114L514.4533333333334,225.56963382661343L516.75,265.45568785071373L516.75,229.79462152719495L516.75,242.04642480611798L516.75,238.95600704848763L516.75,276.5004322528839L521.3433333333334,171.41275709867475L525.9366666666666,268.6838783919811L528.2333333333333,196.9020911157131L528.2333333333333,255.00713481009007L528.2333333333333,224.51501606404778L530.53,212.36232376098633L530.53,220.16310623288155L532.8266666666667,236.94104781746864L532.8266666666667,239.7004932761192L532.8266666666667,197.01558879017827L535.1233333333333,224.16332817077634L535.1233333333333,198.2664101421833L537.4200000000001,271.68246457725763L537.4200000000001,232.10376097261903L539.7166666666667,246.38620881736279L539.7166666666667,247.47926934063435L542.0133333333333,250.3688913434744L542.0133333333333,233.062561288476L544.3100000000001,193.12418630719185L544.3100000000001,205.41914968192577L544.3100000000001,245.14897620677948L546.6066666666667,242.8320997059345L546.6066666666667,270.89466570317745L548.9033333333333,166.90248405933377L551.2,253.80437864363194L551.2,157.43684998154637L551.2,180.95666921138763L553.4966666666667,201.04276916384697L555.7933333333333,231.47971934080124L555.7933333333333,249.2537852972746L555.7933333333333,255.33867037296295L555.7933333333333,244.3631370216608L558.09,225.67853933572766L558.09,204.4598408639431L560.3866666666667,255.949858635664L560.3866666666667,227.58489815890786L560.3866666666667,195.78316739201543L562.6833333333333,226.50303250551224L564.98,279.8320051878691L564.98,218.54066370427608L567.2766666666666,266.2156090736389L571.87,219.88066850602627L571.87,263.27197632193565L571.87,190.0450260043144L571.87,254.5835838317871L574.1666666666667,215.89658564329144L574.1666666666667,196.3331319987774L576.4633333333334,181.4057469964027L578.76,229.78517903387547L578.76,231.571531355381L578.76,142.5822511911392L581.0566666666667,263.52695493400097L581.0566666666667,243.40932002663612L583.3533333333334,233.56642431020737L585.65,250.14939053356647L585.65,137.83758214116094L585.65,205.98739689588544L587.9466666666667,225.13164138793942L594.8366666666666,253.90652498602867L597.1333333333333,234.15088883042336L597.1333333333333,208.49842733144757L597.1333333333333,175.32614251971245L599.43,191.00005558133125L599.43,223.50386349856853L599.43,196.55584028363228L601.7266666666667,237.70998126268387L601.7266666666667,225.42313045263288L604.0233333333333,280.37195621430874L604.0233333333333,254.13492849469185L604.0233333333333,235.4774378836155L604.0233333333333,239.6201812326908L606.32,251.53539521992207L608.6166666666667,239.23786586523056L610.9133333333334,189.05731147527695L610.9133333333334,216.37165179848668L613.21,184.57557713985443L615.5066666666667,228.1263199299574L615.5066666666667,245.18730162084103L617.8033333333333,259.9572308957577L620.1,223.30273135006425L620.1,195.930257499218L622.3966666666666,258.3710875958204L622.3966666666666,244.77125300467011L622.3966666666666,266.18928430974483L624.6933333333333,257.0695646703243L624.6933333333333,253.41787008941174L626.99,250.4602730870247L626.99,240.11129258573052L629.2866666666666,197.79736778140065L629.2866666666666,147.9064092636108L631.5833333333333,226.03785476088524L631.5833333333333,249.74003849923608L631.5833333333333,229.76280494034287L631.5833333333333,284.14034420996904L633.88,223.7655778080225L633.88,183.67023995518684L636.1766666666666,211.95998905599117L638.4733333333334,184.37302118539807L640.77,250.40472900867462L640.77,206.92372141778466L640.77,237.3314131647348L643.0666666666667,259.3954533934593L643.0666666666667,256.98318971693516L643.0666666666667,213.0202551037073L643.0666666666667,230.68104243278503L643.0666666666667,215.58711124956608L643.0666666666667,265.49116565287113L645.3633333333333,284.87461736798286L647.66,210.15705174207687L647.66,249.5580651462078L649.9566666666667,219.01829583942887L649.9566666666667,250.51166309416294L652.2533333333333,267.1183802783489L652.2533333333333,243.21482187509537L654.55,268.84303173422813L654.55,238.81126387417316L654.55,281.1473632827401L654.55,216.70274144411087L656.8466666666667,279.9892927184701L656.8466666666667,261.4125639796257L659.1433333333333,228.9041091352701L659.1433333333333,209.76696020364759L659.1433333333333,284.8053632900119L663.7366666666667,237.00251398980618L666.0333333333333,223.01410554349422L666.0333333333333,223.91323117911813L668.3299999999999,263.7061276137829L670.6266666666667,293.08268266171217L672.9233333333333,250.9541303515434L675.22,171.9909318387508L675.22,231.38096822798252L675.22,209.66358563303947L675.22,288.93707214295864L675.22,261.94923712313175L675.22,238.62077115476131L677.5166666666667,212.49006731808183L679.8133333333334,248.5293496996164L679.8133333333334,249.67599070072174L679.8133333333334,247.96017935872078L684.4066666666666,243.8602284193039L684.4066666666666,264.0737981200218L684.4066666666666,239.40721271932122L684.4066666666666,228.41830185055733L684.4066666666666,215.096258059144L684.4066666666666,252.39818251132965L684.4066666666666,291.73013350367546L684.4066666666666,271.601675324142L686.7033333333334,231.94519436359403L686.7033333333334,218.7569179236889L691.2966666666667,137.46667286753652L691.2966666666667,171.88769808411598L693.5933333333332,244.9276526123285L693.5933333333332,257.6297384351492L693.5933333333332,276.8670974895358L698.1866666666667,257.35554626584053L700.4833333333333,221.5089157819748L702.78,220.3288466334343L702.78,271.76107900589705L702.78,219.7085835635662L705.0766666666667,266.6396059691906L705.0766666666667,189.97913977503777L707.3733333333333,232.06001414358616L707.3733333333333,191.45423403382298L707.3733333333333,261.63867531716824L707.3733333333333,236.17805993556973L707.3733333333333,256.72268798947334L709.6700000000001,181.8399921655655L709.6700000000001,222.96226961910722L709.6700000000001,240.4506590813398L709.6700000000001,224.9456313103437L714.2633333333333,261.6966210901737L716.5600000000001,246.91086566448212L716.5600000000001,233.22802005708218L716.5600000000001,165.27235141396523L718.8566666666666,270.6302719786763L718.8566666666666,246.38164794445035L718.8566666666666,208.72615022957325L721.1533333333333,213.85226628184319L721.1533333333333,183.17918336391446L723.45,224.52822929620743L723.45,257.7011399567127L723.45,174.50460648536682L725.7466666666666,255.82242800295353L725.7466666666666,258.7938797324896L725.7466666666666,277.4647674188018L725.7466666666666,240.51972931623456L725.7466666666666,248.79528848826885L728.0433333333333,252.64315536618233L728.0433333333333,190.99556511640546L730.34,229.62169951200482L732.6366666666667,250.88140672445297L734.9333333333333,261.9335909038782L737.23,206.41255161166188L739.5266666666666,257.8135267496109L739.5266666666666,277.54348354786634L739.5266666666666,254.44823621213436L741.8233333333334,229.05304549634454L741.8233333333334,215.6545621007681L741.8233333333334,207.96625247597692L741.8233333333334,21.161863267421722L744.12,245.39073376357553L744.12,232.44494242966175L746.4166666666666,244.31747353076932L746.4166666666666,233.2347244620323L746.4166666666666,232.11276537179944L746.4166666666666,217.82258047163486L748.7133333333334,196.6847494840622L748.7133333333334,226.8335745334625L751.0100000000001,255.6875263005495L751.0100000000001,270.90977212786674L751.0100000000001,243.55226388573647L753.3066666666666,274.46263736486435L753.3066666666666,260.3513748049736L755.6033333333334,262.429982855916L755.6033333333334,251.74200354516506L755.6033333333334,271.83192117512226L757.9000000000001,193.90022313594818L760.1966666666666,224.67700919508934L762.4933333333333,231.74447683990002L762.4933333333333,259.10646772384644L762.4933333333333,225.4522167742252L764.7900000000001,251.82457646727562L764.7900000000001,245.74774137139318L767.0866666666666,251.1046548038721L767.0866666666666,272.2665183842182L767.0866666666666,224.7731160968542L769.3833333333333,194.16361159086225L769.3833333333333,243.22124464809892L769.3833333333333,226.41445143520832L771.6800000000001,287.7286794260144L773.9766666666667,265.88728880882263L776.2733333333333,255.80647668242455L776.2733333333333,243.45539814233777L778.5699999999999,252.27191752195358L778.5699999999999,277.3973243907094L780.8666666666667,230.6468789130449L783.1633333333334,259.3194909989834L785.4599999999999,280.7328206151724L785.4599999999999,295.63553935289383L787.7566666666667,222.2706284970045L787.7566666666667,266.38733415305614L787.7566666666667,261.8475210517645L790.0533333333334,273.6178314909339L794.6466666666666,185.4573511183262L794.6466666666666,264.05180735886097L796.9433333333334,252.98516607284546L796.9433333333334,281.2030912041664L796.9433333333334,255.09325160086155L796.9433333333334,234.46266321837902L799.2399999999999,262.078999042511L799.2399999999999,258.58918806910515L801.5366666666666,268.0862554013729L803.8333333333334,270.316960349679L803.8333333333334,258.12950997054577L803.8333333333334,259.196816816926L803.8333333333334,259.3807146549225L803.8333333333334,242.815467774868L806.13,265.26293425261974L806.13,271.3295210748911L806.13,251.5814029276371L806.13,251.554952993989L806.13,259.00769314169884L808.4266666666666,259.2085905969143L810.7233333333334,246.76511330902576L813.02,272.61376275122166L815.3166666666667,225.32023309171197L815.3166666666667,244.73990580439568L817.6133333333333,255.6762140840292L817.6133333333333,250.60106559097767L817.6133333333333,229.2093199342489L819.91,189.23877632617948L819.91,260.8538061976433L819.91,286.59514213353395L819.91,263.61222682893276L819.91,243.00114145874977L819.91,233.57980182766914L822.2066666666667,257.31452187895775L822.2066666666667,224.23079466819763L824.5033333333334,268.1721374988556L824.5033333333334,195.32479575276375L829.0966666666667,187.21503174304962L829.0966666666667,268.7747046947479L829.0966666666667,238.0615205168724L829.0966666666667,273.65864465385675L831.3933333333334,228.88529455661774L831.3933333333334,245.55699831247327L833.6899999999999,185.00950938463208L833.6899999999999,254.3738462626934L840.5799999999999,235.08473342657086L842.8766666666667,249.02574165165424L845.1733333333333,238.32343822717667L849.7666666666667,242.62466995418072L852.0633333333333,211.4978857934475L852.0633333333333,237.98363363742826L852.0633333333333,275.4077707082033L856.6566666666668,258.6380981504917L856.6566666666668,257.3517677038908L856.6566666666668,276.910985134542L856.6566666666668,241.6503877043724L858.9533333333333,241.97141683101654L861.25,247.25084236264226L863.5466666666667,277.53448306024075L863.5466666666667,256.3085482120514L863.5466666666667,276.5809046700597L865.8433333333332,226.1265688240528L865.8433333333332,266.593254044652L868.14,260.8213481158018L868.14,260.9640416353941L870.4366666666667,247.65132299065587L870.4366666666667,259.6375316977501L875.03,270.12541933357716L875.03,166.07739633321762L877.3266666666667,239.86350341141224L877.3266666666667,236.4431381821632L877.3266666666667,256.1357591897249L879.6233333333333,223.13383823633194L879.6233333333333,198.36122623085973L881.9200000000001,246.5845246464014L884.2166666666667,244.37724991142747L886.5133333333333,270.02743488550186L886.5133333333333,263.9351491481066L888.8100000000001,271.16547828912735L891.1066666666666,252.76345132291317L895.7,224.6105753481388L897.9966666666666,283.1670163795352L897.9966666666666,241.30764944851398L900.2933333333333,252.4734799414873L900.2933333333333,246.27174890041348L900.2933333333333,275.20161221176386L902.59,239.70879359543324L902.59,294.6456421762705L902.59,261.50507225096226L904.8866666666667,293.0698644965887L907.1833333333333,278.313539609313L907.1833333333333,203.87667497992513L907.1833333333333,242.94195963442326L907.1833333333333,236.1420971006155L909.48,261.58035403490067L911.7766666666666,240.10962626338005L914.0733333333334,276.42408261448145L918.6666666666666,275.9245535954833L918.6666666666666,259.04361686110497L920.9633333333334,279.46101377159357L920.9633333333334,257.0033968091011L923.2600000000001,267.490470841527L923.2600000000001,256.46137265861034L923.2600000000001,239.97711843252182L925.5566666666666,245.36788246035573L927.8533333333334,273.212242372334L930.1500000000001,262.14479921758175L930.1500000000001,260.08457547426224L930.1500000000001,271.05249693989754L934.7433333333333,244.66246484220025L934.7433333333333,259.20913821458817L934.7433333333333,261.76062977313995L937.0400000000001,226.5724078416824L937.0400000000001,259.28920774161816L937.0400000000001,207.8432497233152L939.3366666666666,271.1913884282112L941.6333333333333,204.24173256754872L941.6333333333333,235.77077320218086L943.9300000000001,259.06362837553024L943.9300000000001,252.8311681598425L946.2266666666667,278.0988030731678L946.2266666666667,275.8721622303128L948.5233333333333,244.49289111793038L948.5233333333333,223.08452135324478L950.8199999999999,246.37945747375488L953.1166666666667,238.12483294308183L957.7099999999999,213.10799910128114L962.3033333333334,235.17163252830505L964.5999999999999,236.81443861126897L966.8966666666666,257.4441508054733L969.1933333333334,240.86446246504784L969.1933333333334,196.393463820219L969.1933333333334,270.0077128261328L971.4899999999999,285.0393916144967L971.4899999999999,240.224469512701L973.7866666666666,279.44510938972235L973.7866666666666,254.64795237779617L973.7866666666666,260.62038807570934L976.0833333333334,270.5286810770631L976.0833333333334,257.4115519076586L976.0833333333334,240.5427057892084L978.38,260.75338876247406L978.38,249.79193700850007L978.38,258.85216972231865L980.6766666666666,269.31019654870033L980.6766666666666,271.25276854634285L980.6766666666666,245.68148745596406L980.6766666666666,251.05546309053898L982.9733333333334,250.62982334196568L982.9733333333334,264.62732224166393L985.27,255.83726061880589L989.8633333333333,248.62655183672905L989.8633333333333,255.91765089333057L989.8633333333333,194.57479423284528L992.16,249.49027790129182L994.4566666666667,226.12050591409206L994.4566666666667,233.15229235589504L994.4566666666667,272.60747297108173L996.7533333333334,222.60920485854146L996.7533333333334,221.4311540722847L996.7533333333334,261.6365396082401L996.7533333333334,175.44478780031204L996.7533333333334,226.97331091761586L996.7533333333334,269.81784595549107L999.05,270.61435195058584L999.05,227.49551130831242L1001.3466666666667,238.4808704853058L1001.3466666666667,248.80258744955063L1001.3466666666667,261.9924989193678L1001.3466666666667,244.99791978299615L1005.9399999999999,177.33636876940727L1005.9399999999999,215.80491444468495L1008.2366666666667,253.28544048964977L1008.2366666666667,232.6048702597618L1010.5333333333333,258.4416520446539L1010.5333333333333,196.73129698634148L1012.8299999999999,234.84102009236813L1012.8299999999999,211.4570726305246L1015.1266666666667,223.66617737710473L1015.1266666666667,147.07318550348282L1017.4233333333333,221.4619301855564L1017.4233333333333,267.1304435133934L1019.72,184.11881706118584L1022.0166666666667,205.85757239162922L1024.3133333333333,141.3014673292637L1024.3133333333333,275.66725543141365L1026.61,214.39014418423176L1026.61,211.8583355695009L1028.9066666666668,229.19562166929242L1028.9066666666668,255.75396797060966L1033.5,236.66503286361691L1033.5,233.45961539447308L1038.0933333333332,226.86024351418018L1038.0933333333332,254.8371777534485L1040.39,226.16474559903142L1042.6866666666667,264.5368088632822L1042.6866666666667,245.73484106361866L1044.9833333333333,205.99228633940217L1044.9833333333333,272.7424763739109L1047.28,243.09137320518494L1047.28,250.54121880233288L1049.5766666666668,187.0821484029293L1049.5766666666668,195.10424664616585L1051.8733333333332,217.7323565483093L1051.8733333333332,222.44052296876907L1051.8733333333332,229.98720301687717L1054.17,189.1211324036121L1054.17,266.73398396372795L1056.4666666666667,212.66148729622364L1056.4666666666667,210.06351082026958L1056.4666666666667,216.28516732156274L1058.7633333333333,246.45060865581036L1061.06,223.6787256449461L1061.06,230.01975497603414L1061.06,177.8627545237541L1061.06,274.6384226381779L1063.3566666666666,249.64468261599538L1063.3566666666666,204.2217366993427L1063.3566666666666,185.01942908763885L1065.6533333333334,224.9423534274101L1065.6533333333334,232.62116579711437L1067.95,267.2187898904085L1067.95,224.52522522211072L1067.95,189.66405621170998L1070.2466666666667,251.35671539604664L1070.2466666666667,212.24705806374547L1072.5433333333333,254.96094717085361L1074.8400000000001,275.43519070744514L1074.8400000000001,246.91128811240196L1074.8400000000001,250.89900089800355L1077.1366666666665,233.54817299544808L1077.1366666666665,251.91033339500427L1077.1366666666665,205.32589821517467L1079.4333333333334,266.2643861621618L1081.73,275.78294748812914L1081.73,279.54549553245306L1084.0266666666666,282.63054272532463L1088.6200000000001,246.70219986140728L1088.6200000000001,256.70889584720135L1088.6200000000001,229.24794262647626L1088.6200000000001,253.60614104568958L1088.6200000000001,267.3002519309521L1090.9166666666665,275.7343151271343L1090.9166666666665,252.41787327826023L1090.9166666666665,229.33542846143243L1093.2133333333334,248.56715878844258L1095.51,242.31302073597905L1095.51,278.8549222648144L1095.51,220.69902835786343L1095.51,234.6050594598055L1097.8066666666666,287.1663621291518L1097.8066666666666,254.1937739253044L1104.6966666666667,250.6044060587883L1104.6966666666667,260.960920214653L1104.6966666666667,235.4350913912058L1104.6966666666667,262.26953087747097L1104.6966666666667,265.10571321845055L1104.6966666666667,259.7690694630146L1106.9933333333333,230.76549290120602L1109.29,239.3461533486843L1111.5866666666666,274.912919908762L1113.8833333333334,230.0745715051889L1113.8833333333334,229.90113316476345L1113.8833333333334,238.29442231357095L1113.8833333333334,240.21129539608955L1116.18,256.07588893175125L1116.18,272.15498039871454L1118.4766666666667,280.2555757239461L1118.4766666666667,218.43816532194612L1118.4766666666667,259.1567155569792L1118.4766666666667,265.80623356997967L1120.7733333333333,238.9843110591173L1120.7733333333333,279.7386989593506L1120.7733333333333,267.0312543064356L1120.7733333333333,264.08511033654213L1120.7733333333333,244.41157771646976L1123.07,280.8757058009505L1123.07,242.02390989661217L1125.3666666666666,188.51685976982117L1125.3666666666666,266.08224852383137L1125.3666666666666,176.84592238068578L1125.3666666666666,263.5652255862951L1127.6633333333334,252.2032462656498L1127.6633333333334,264.80097180604935L1129.96,275.5261539146304L1129.96,246.66446118056774L1129.96,289.94855719059706L1132.2566666666667,266.2101172506809L1132.2566666666667,241.39644956588742L1134.5533333333333,249.64577785134315L1134.5533333333333,238.0681858062744L1136.85,230.4861453026533L1136.85,232.1682077497244L1136.85,220.67142060399055L1136.85,239.92586141824722L1139.1466666666668,197.2778663635254L1141.4433333333334,238.8041135519743L1141.4433333333334,262.5614189207554L1143.74,251.86055494844913L1143.74,224.41609284281728L1146.0366666666666,195.7338192164898L1146.0366666666666,236.7074575871229L1150.6299999999999,233.17250727117062L1150.6299999999999,248.65300177037716L1152.9266666666667,278.86853056401014L1152.9266666666667,246.0103083997965L1152.9266666666667,248.9635401070118L1155.2233333333334,96.84104552865028L1157.52,192.2691047787666L1159.8166666666666,231.92779576778412L1162.1133333333335,234.05500879883763L1162.1133333333335,267.02075569331646L1164.4099999999999,232.143901348114L1164.4099999999999,251.25352075695992L1166.7066666666667,189.28508913516998L1166.7066666666667,286.3792595118284L1169.0033333333333,262.91717483103275L1169.0033333333333,272.05068661272526L1169.0033333333333,281.5368172377348L1169.0033333333333,261.73069855570793L1171.3,196.40169373154637L1173.5966666666666,260.99103136360645L1173.5966666666666,255.8796071112156L1175.8933333333334,257.48506566882133L1175.8933333333334,287.2449335306883L1175.8933333333334,236.54125562310216L1178.19,242.7820083349943L1180.4866666666667,283.2821060568094L1182.7833333333333,241.51781728863716L1185.08,230.71756070852277L1187.3766666666668,235.25743639469144L1187.3766666666668,279.3576548472047L1187.3766666666668,210.0568533539772L1189.6733333333332,281.4071491956711L1191.97,264.6464028060436L1191.97,267.54545947909355L1194.2666666666667,256.12466602027416L1194.2666666666667,154.3804392814636L1194.2666666666667,240.08033654093742L1196.5633333333333,222.34431436657906L1196.5633333333333,239.08728665113446L1196.5633333333333,264.5952553153038L1198.86,274.30725476145744L1203.4533333333334,266.5852510035038L1203.4533333333334,156.24657949805257L1203.4533333333334,253.38283820450306L1203.4533333333334,219.2308106124401L1205.75,283.17223048210144L1205.75,243.0714008063078L1208.0466666666666,269.2368314266205L1208.0466666666666,237.45918801426888L1208.0466666666666,280.96484622359276L1210.3433333333332,215.13525626063344L1210.3433333333332,270.93697699159384L1217.2333333333333,265.5106451958418L1217.2333333333333,135.68660250306127L1219.53,268.64545127749443L1219.53,268.31178782880306L1221.8266666666668,268.671095430851L1221.8266666666668,282.2951386347413L1224.1233333333332,274.0387147888541L1228.7166666666667,247.19292005896568L1228.7166666666667,264.24970856308937L1233.31,246.14610193669793L1233.31,258.5709993392229L1235.6066666666666,270.9831646308303L1235.6066666666666,253.88121722638607L1235.6066666666666,268.74346701800823L1240.2,246.15804782509804L1240.2,289.50435711443424L1240.2,261.59014074504375L1242.4966666666667,279.3870501816273L1242.4966666666667,251.32956138253212L1242.4966666666667,251.08581675589085L1244.7933333333333,280.19127367436886L1247.0900000000001,276.8943884074688L1249.3866666666665,262.68715976178646L1249.3866666666665,263.9392797499895L1249.3866666666665,239.42542491853237L1249.3866666666665,275.38425835222006L1249.3866666666665,288.79072131961584L1251.6833333333334,273.4235484749079L1251.6833333333334,259.87168519198895L1251.6833333333334,272.97137273848057L1253.98,253.51515828073025L1253.98,236.24259276688096L1256.2766666666666,275.3850602209568L1260.8700000000001,238.54886113107204L1260.8700000000001,221.42106226086617L1263.1666666666665,196.54676547646523L1263.1666666666665,254.42329613864422" style="fill: none;" fill="none"></path></g></g></g></g></g></g><g transform="translate(70, 378)" clip-path="url(#clip_1)"><clipPath id="clip_1"><rect width="1378" height="22"></rect></clipPath><g><g><line x1="0" y1="0" x2="0" y2="5" style="visibility: inherit;" fill="rgb(0, 0, 0)" stroke="rgb(204, 204, 204)" stroke-width="1px"></line><line x1="114.83333333333333" y1="0" x2="114.83333333333333" y2="5" style="visibility: inherit;" fill="rgb(0, 0, 0)" stroke="rgb(204, 204, 204)" stroke-width="1px"></line><line x1="229.66666666666666" y1="0" x2="229.66666666666666" y2="5" style="visibility: inherit;" fill="rgb(0, 0, 0)" stroke="rgb(204, 204, 204)" stroke-width="1px"></line><line x1="344.5" y1="0" x2="344.5" y2="5" style="visibility: inherit;" fill="rgb(0, 0, 0)" stroke="rgb(204, 204, 204)" stroke-width="1px"></line><line x1="459.3333333333333" y1="0" x2="459.3333333333333" y2="5" style="visibility: inherit;" fill="rgb(0, 0, 0)" stroke="rgb(204, 204, 204)" stroke-width="1px"></line><line x1="574.1666666666667" y1="0" x2="574.1666666666667" y2="5" style="visibility: inherit;" fill="rgb(0, 0, 0)" stroke="rgb(204, 204, 204)" stroke-width="1px"></line><line x1="689" y1="0" x2="689" y2="5" style="visibility: inherit;" fill="rgb(0, 0, 0)" stroke="rgb(204, 204, 204)" stroke-width="1px"></line><line x1="803.8333333333334" y1="0" x2="803.8333333333334" y2="5" style="visibility: inherit;" fill="rgb(0, 0, 0)" stroke="rgb(204, 204, 204)" stroke-width="1px"></line><line x1="918.6666666666666" y1="0" x2="918.6666666666666" y2="5" style="visibility: inherit;" fill="rgb(0, 0, 0)" stroke="rgb(204, 204, 204)" stroke-width="1px"></line><line x1="1033.5" y1="0" x2="1033.5" y2="5" style="visibility: inherit;" fill="rgb(0, 0, 0)" stroke="rgb(204, 204, 204)" stroke-width="1px"></line><line x1="1148.3333333333335" y1="0" x2="1148.3333333333335" y2="5" style="visibility: inherit;" fill="rgb(0, 0, 0)" stroke="rgb(204, 204, 204)" stroke-width="1px"></line><line x1="1263.1666666666665" y1="0" x2="1263.1666666666665" y2="5" style="visibility: inherit;" fill="rgb(0, 0, 0)" stroke="rgb(204, 204, 204)" stroke-width="1px"></line><line x1="1378" y1="0" x2="1378" y2="5" style="visibility: inherit;" fill="rgb(0, 0, 0)" stroke="rgb(204, 204, 204)" stroke-width="1px"></line></g><g transform="translate(0, 8)"><text x="0" y="0" dx="0em" dy="0.95em" style="text-anchor: middle; visibility: hidden; font-family: &quot;Helvetica Neue&quot;, sans-serif; font-size: 12px; font-weight: 200;" fill="rgb(50, 49, 63)" stroke="none" stroke-width="1px">-50</text><text x="114.83333333333333" y="0" dx="0em" dy="0.95em" style="text-anchor: middle; visibility: inherit; font-family: &quot;Helvetica Neue&quot;, sans-serif; font-size: 12px; font-weight: 200;" fill="rgb(50, 49, 63)" stroke="none" stroke-width="1px">0</text><text x="229.66666666666666" y="0" dx="0em" dy="0.95em" style="text-anchor: middle; visibility: inherit; font-family: &quot;Helvetica Neue&quot;, sans-serif; font-size: 12px; font-weight: 200;" fill="rgb(50, 49, 63)" stroke="none" stroke-width="1px">50</text><text x="344.5" y="0" dx="0em" dy="0.95em" style="text-anchor: middle; visibility: inherit; font-family: &quot;Helvetica Neue&quot;, sans-serif; font-size: 12px; font-weight: 200;" fill="rgb(50, 49, 63)" stroke="none" stroke-width="1px">100</text><text x="459.3333333333333" y="0" dx="0em" dy="0.95em" style="text-anchor: middle; visibility: inherit; font-family: &quot;Helvetica Neue&quot;, sans-serif; font-size: 12px; font-weight: 200;" fill="rgb(50, 49, 63)" stroke="none" stroke-width="1px">150</text><text x="574.1666666666667" y="0" dx="0em" dy="0.95em" style="text-anchor: middle; visibility: inherit; font-family: &quot;Helvetica Neue&quot;, sans-serif; font-size: 12px; font-weight: 200;" fill="rgb(50, 49, 63)" stroke="none" stroke-width="1px">200</text><text x="689" y="0" dx="0em" dy="0.95em" style="text-anchor: middle; visibility: inherit; font-family: &quot;Helvetica Neue&quot;, sans-serif; font-size: 12px; font-weight: 200;" fill="rgb(50, 49, 63)" stroke="none" stroke-width="1px">250</text><text x="803.8333333333334" y="0" dx="0em" dy="0.95em" style="text-anchor: middle; visibility: inherit; font-family: &quot;Helvetica Neue&quot;, sans-serif; font-size: 12px; font-weight: 200;" fill="rgb(50, 49, 63)" stroke="none" stroke-width="1px">300</text><text x="918.6666666666666" y="0" dx="0em" dy="0.95em" style="text-anchor: middle; visibility: inherit; font-family: &quot;Helvetica Neue&quot;, sans-serif; font-size: 12px; font-weight: 200;" fill="rgb(50, 49, 63)" stroke="none" stroke-width="1px">350</text><text x="1033.5" y="0" dx="0em" dy="0.95em" style="text-anchor: middle; visibility: inherit; font-family: &quot;Helvetica Neue&quot;, sans-serif; font-size: 12px; font-weight: 200;" fill="rgb(50, 49, 63)" stroke="none" stroke-width="1px">400</text><text x="1148.3333333333335" y="0" dx="0em" dy="0.95em" style="text-anchor: middle; visibility: inherit; font-family: &quot;Helvetica Neue&quot;, sans-serif; font-size: 12px; font-weight: 200;" fill="rgb(50, 49, 63)" stroke="none" stroke-width="1px">450</text><text x="1263.1666666666665" y="0" dx="0em" dy="0.95em" style="text-anchor: middle; visibility: inherit; font-family: &quot;Helvetica Neue&quot;, sans-serif; font-size: 12px; font-weight: 200;" fill="rgb(50, 49, 63)" stroke="none" stroke-width="1px">500</text><text x="1378" y="0" dx="0em" dy="0.95em" style="text-anchor: middle; visibility: hidden; font-family: &quot;Helvetica Neue&quot;, sans-serif; font-size: 12px; font-weight: 200;" fill="rgb(50, 49, 63)" stroke="none" stroke-width="1px">550</text></g><line x1="0" y1="0" x2="1378" y2="0" fill="rgb(0, 0, 0)" stroke="rgb(204, 204, 204)" stroke-width="1px"></line></g></g></g></g></svg>