<svg viewBox="0 0 1448 400" xmlns="http://www.w3.org/2000/svg"><g><g><g><g><g><line x1="70" y1="378" x2="65" y2="378" style="visibility: inherit;" fill="rgb(0, 0, 0)" stroke="rgb(204, 204, 204)" stroke-width="1px"></line><line x1="70" y1="336" x2="65" y2="336" style="visibility: inherit;" fill="rgb(0, 0, 0)" stroke="rgb(204, 204, 204)" stroke-width="1px"></line><line x1="70" y1="294" x2="65" y2="294" style="visibility: inherit;" fill="rgb(0, 0, 0)" stroke="rgb(204, 204, 204)" stroke-width="1px"></line><line x1="70" y1="252" x2="65" y2="252" style="visibility: inherit;" fill="rgb(0, 0, 0)" stroke="rgb(204, 204, 204)" stroke-width="1px"></line><line x1="70" y1="210" x2="65" y2="210" style="visibility: inherit;" fill="rgb(0, 0, 0)" stroke="rgb(204, 204, 204)" stroke-width="1px"></line><line x1="70" y1="168" x2="65" y2="168" style="visibility: inherit;" fill="rgb(0, 0, 0)" stroke="rgb(204, 204, 204)" stroke-width="1px"></line><line x1="70" y1="125.99999999999997" x2="65" y2="125.99999999999997" style="visibility: inherit;" fill="rgb(0, 0, 0)" stroke="rgb(204, 204, 204)" stroke-width="1px"></line><line x1="70" y1="84.00000000000006" x2="65" y2="84.00000000000006" style="visibility: inherit;" fill="rgb(0, 0, 0)" stroke="rgb(204, 204, 204)" stroke-width="1px"></line><line x1="70" y1="42" x2="65" y2="42" style="visibility: inherit;" fill="rgb(0, 0, 0)" stroke="rgb(204, 204, 204)" stroke-width="1px"></line><line x1="70" y1="0" x2="65" y2="0" style="visibility: inherit;" fill="rgb(0, 0, 0)" stroke="rgb(204, 204, 204)" stroke-width="1px"></line></g><g transform="translate(60, 0)"><text x="0" y="378" dx="0em" dy="0.3em" style="text-anchor: end; visibility: hidden; font-family: &quot;Helvetica Neue&quot;, sans-serif; font-size: 12px; font-weight: 200;" fill="rgb(50, 49, 63)" stroke="none" stroke-width="1px">-0.01</text><text x="0" y="336" dx="0em" dy="0.3em" style="text-anchor: end; visibility: inherit; font-family: &quot;Helvetica Neue&quot;, sans-serif; font-size: 12px; font-weight: 200;" fill="rgb(50, 49, 63)" stroke="none" stroke-width="1px">0</text><text x="0" y="294" dx="0em" dy="0.3em" style="text-anchor: end; visibility: inherit; font-family: &quot;Helvetica Neue&quot;, sans-serif; font-size: 12px; font-weight: 200;" fill="rgb(50, 49, 63)" stroke="none" stroke-width="1px">0.01</text><text x="0" y="252" dx="0em" dy="0.3em" style="text-anchor: end; visibility: inherit; font-family: &quot;Helvetica Neue&quot;, sans-serif; font-size: 12px; font-weight: 200;" fill="rgb(50, 49, 63)" stroke="none" stroke-width="1px">0.02</text><text x="0" y="210" dx="0em" dy="0.3em" style="text-anchor: end; visibility: inherit; font-family: &quot;Helvetica Neue&quot;, sans-serif; font-size: 12px; font-weight: 200;" fill="rgb(50, 49, 63)" stroke="none" stroke-width="1px">0.03</text><text x="0" y="168" dx="0em" dy="0.3em" style="text-anchor: end; visibility: inherit; font-family: &quot;Helvetica Neue&quot;, sans-serif; font-size: 12px; font-weight: 200;" fill="rgb(50, 49, 63)" stroke="none" stroke-width="1px">0.04</text><text x="0" y="125.99999999999997" dx="0em" dy="0.3em" style="text-anchor: end; visibility: inherit; font-family: &quot;Helvetica Neue&quot;, sans-serif; font-size: 12px; font-weight: 200;" fill="rgb(50, 49, 63)" stroke="none" stroke-width="1px">0.05</text><text x="0" y="84.00000000000006" dx="0em" dy="0.3em" style="text-anchor: end; visibility: inherit; font-family: &quot;Helvetica Neue&quot;, sans-serif; font-size: 12px; font-weight: 200;" fill="rgb(50, 49, 63)" stroke="none" stroke-width="1px">0.06</text><text x="0" y="42" dx="0em" dy="0.3em" style="text-anchor: end; visibility: inherit; font-family: &quot;Helvetica Neue&quot;, sans-serif; font-size: 12px; font-weight: 200;" fill="rgb(50, 49, 63)" stroke="none" stroke-width="1px">0.07</text><text x="0" y="0" dx="0em" dy="0.3em" style="text-anchor: end; visibility: hidden; font-family: &quot;Helvetica Neue&quot;, sans-serif; font-size: 12px; font-weight: 200;" fill="rgb(50, 49, 63)" stroke="none" stroke-width="1px">0.08</text></g><line x1="70" y1="0" x2="70" y2="378" fill="rgb(0, 0, 0)" stroke="rgb(204, 204, 204)" stroke-width="1px"></line></g></g><g transform="translate(70, 0)" clip-path="url(#clip_0)"><clipPath id="clip_0"><rect width="1378" height="378"></rect></clipPath><g><g><g><line x1="0" y1="0" x2="0" y2="378" fill="rgb(0, 0, 0)" stroke="rgb(60, 60, 60)" stroke-width="1px" opacity="0.25"></line><line x1="114.83333333333333" y1="0" x2="114.83333333333333" y2="378" fill="rgb(0, 0, 0)" stroke="rgb(60, 60, 60)" stroke-width="1px" opacity="0.25"></line><line x1="229.66666666666666" y1="0" x2="229.66666666666666" y2="378" fill="rgb(0, 0, 0)" stroke="rgb(60, 60, 60)" stroke-width="1px" opacity="0.25"></line><line x1="344.5" y1="0" x2="344.5" y2="378" fill="rgb(0, 0, 0)" stroke="rgb(60, 60, 60)" stroke-width="1px" opacity="0.25"></line><line x1="459.3333333333333" y1="0" x2="459.3333333333333" y2="378" fill="rgb(0, 0, 0)" stroke="rgb(60, 60, 60)" stroke-width="1px" opacity="0.25"></line><line x1="574.1666666666667" y1="0" x2="574.1666666666667" y2="378" fill="rgb(0, 0, 0)" stroke="rgb(60, 60, 60)" stroke-width="1px" opacity="0.25"></line><line x1="689" y1="0" x2="689" y2="378" fill="rgb(0, 0, 0)" stroke="rgb(60, 60, 60)" stroke-width="1px" opacity="0.25"></line><line x1="803.8333333333334" y1="0" x2="803.8333333333334" y2="378" fill="rgb(0, 0, 0)" stroke="rgb(60, 60, 60)" stroke-width="1px" opacity="0.25"></line><line x1="918.6666666666666" y1="0" x2="918.6666666666666" y2="378" fill="rgb(0, 0, 0)" stroke="rgb(60, 60, 60)" stroke-width="1px" opacity="0.25"></line><line x1="1033.5" y1="0" x2="1033.5" y2="378" fill="rgb(0, 0, 0)" stroke="rgb(60, 60, 60)" stroke-width="1px" opacity="0.25"></line><line x1="1148.3333333333335" y1="0" x2="1148.3333333333335" y2="378" fill="rgb(0, 0, 0)" stroke="rgb(60, 60, 60)" stroke-width="1px" opacity="0.25"></line><line x1="1263.1666666666665" y1="0" x2="1263.1666666666665" y2="378" fill="rgb(0, 0, 0)" stroke="rgb(60, 60, 60)" stroke-width="1px" opacity="0.25"></line><line x1="1378" y1="0" x2="1378" y2="378" fill="rgb(0, 0, 0)" stroke="rgb(60, 60, 60)" stroke-width="1px" opacity="0.25"></line></g><g><line x1="0" y1="378" x2="1378" y2="378" fill="rgb(0, 0, 0)" stroke="rgb(60, 60, 60)" stroke-width="1px" opacity="0.25"></line><line x1="0" y1="336" x2="1378" y2="336" fill="rgb(0, 0, 0)" stroke="rgb(60, 60, 60)" stroke-width="1px" opacity="0.25"></line><line x1="0" y1="294" x2="1378" y2="294" fill="rgb(0, 0, 0)" stroke="rgb(60, 60, 60)" stroke-width="1px" opacity="0.25"></line><line x1="0" y1="252" x2="1378" y2="252" fill="rgb(0, 0, 0)" stroke="rgb(60, 60, 60)" stroke-width="1px" opacity="0.25"></line><line x1="0" y1="210" x2="1378" y2="210" fill="rgb(0, 0, 0)" stroke="rgb(60, 60, 60)" stroke-width="1px" opacity="0.25"></line><line x1="0" y1="168" x2="1378" y2="168" fill="rgb(0, 0, 0)" stroke="rgb(60, 60, 60)" stroke-width="1px" opacity="0.25"></line><line x1="0" y1="125.99999999999997" x2="1378" y2="125.99999999999997" fill="rgb(0, 0, 0)" stroke="rgb(60, 60, 60)" stroke-width="1px" opacity="0.25"></line><line x1="0" y1="84.00000000000006" x2="1378" y2="84.00000000000006" fill="rgb(0, 0, 0)" stroke="rgb(60, 60, 60)" stroke-width="1px" opacity="0.25"></line><line x1="0" y1="42" x2="1378" y2="42" fill="rgb(0, 0, 0)" stroke="rgb(60, 60, 60)" stroke-width="1px" opacity="0.25"></line><line x1="0" y1="0" x2="1378" y2="0" fill="rgb(0, 0, 0)" stroke="rgb(60, 60, 60)" stroke-width="1px" opacity="0.25"></line></g></g></g><g><g><line x1="0" y1="336" x2="1378" y2="336" fill="rgb(0, 0, 0)" stroke="rgb(153, 153, 153)" stroke-width="1.5px"></line></g></g><g><g><line x1="114.83333333333333" y1="0" x2="114.83333333333333" y2="378" fill="rgb(0, 0, 0)" stroke="rgb(153, 153, 153)" stroke-width="1.5px"></line></g></g><g><g><g><g><g><path stroke="rgb(255, 112, 67)" stroke-width="2px" d="M135.50333333333333,-3.062061631753636L137.8,7.207744030388653L137.8,13.408280206238544L137.8,18.16723893238037L140.09666666666666,24.447830144557827L140.09666666666666,30.917079250890026L142.39333333333335,31.497028640524604L142.39333333333335,35.94422210609122L142.39333333333335,42.70324918217801L142.39333333333335,46.123902400538384L144.69,50.247669156870415L144.69,54.10484015560775L144.69,58.454984520951484L146.98666666666668,58.78250507685658L146.98666666666668,62.44453557769771L146.98666666666668,62.60108416152963L146.98666666666668,66.54733287429087L149.28333333333333,68.75568611870335L149.28333333333333,70.50471284862545L151.58,74.68151640760829L151.58,78.46558147059199L156.17333333333332,79.17611260822656L156.17333333333332,82.51897618087861L156.17333333333332,85.93815226193266L156.17333333333332,87.63788924642535L158.47,90.93022975914812L158.47,93.68734069148144L158.47,94.69988112276576L160.76666666666668,96.95018102733144L165.35999999999999,99.58448475475024L165.35999999999999,101.46077602236704L169.95333333333335,101.86366448709657L172.25,103.02256240776637L172.25,104.21734444678157L172.25,106.4082629745086L174.54666666666668,108.95789530447865L176.84333333333333,111.23517717235904L179.14000000000001,113.46448027310453L181.43666666666664,116.0528732927321L181.43666666666664,117.76598344792473L181.43666666666664,119.7412664567064L190.62333333333333,121.72046962963515L190.62333333333333,123.97276427635396L190.62333333333333,126.12742397292516L190.62333333333333,127.76561070204983L192.92000000000002,129.39729123214948L192.92000000000002,131.09132507475863L192.92000000000002,132.18019169561867L192.92000000000002,134.0933714976639L195.21666666666667,135.3648801416826L195.21666666666667,137.25419371371626L195.21666666666667,138.60194454312017L195.21666666666667,139.99258489307164L195.21666666666667,141.08682575210247L197.51333333333335,141.67449238046518L199.80999999999997,143.3162276013521L199.80999999999997,144.56169772503847L204.40333333333334,146.14340072058314L204.40333333333334,146.62267914924104L204.40333333333334,147.9889364726496L204.40333333333334,149.58287769565553L204.40333333333334,151.27982382950822L206.7,152.44377582187877L206.7,153.57948388471172L206.7,154.75049281884267L206.7,155.92976698862165L208.99666666666667,157.26491655495565L208.99666666666667,158.3159759778294L211.29333333333332,159.32936075693533L213.59,160.76122957017247L213.59,161.87974679359718L215.88666666666668,162.75889486670124L215.88666666666668,163.71655654679128L220.48000000000002,165.09534328374033L222.77666666666664,166.00913258386538L225.07333333333332,167.08691589668615L225.07333333333332,167.9454641573147L225.07333333333332,168.85275010216145L225.07333333333332,170.0841180345293L227.37,170.97029348267094L229.66666666666666,172.00455943603654L229.66666666666666,172.4535766634043L229.66666666666666,173.6099761005225L229.66666666666666,174.49572442509842L231.96333333333334,175.39204006530323L231.96333333333334,176.3524131815523L231.96333333333334,177.25286981652044L234.26000000000002,178.1759165060183L234.26000000000002,178.7958763374283L236.55666666666667,179.62387389289103L238.85333333333335,180.09045734433298L238.85333333333335,181.10686356120127L238.85333333333335,181.96957895732757L238.85333333333335,182.11531122453343L241.14999999999998,182.61628995222088L241.14999999999998,183.33767499184893L241.14999999999998,184.21832023417878L241.14999999999998,185.1063660063243L243.44666666666666,185.5313136025239L243.44666666666666,186.14498126800783L243.44666666666666,186.83951148967282L243.44666666666666,187.1030395585463L243.44666666666666,187.82440745731788L243.44666666666666,188.5458680745284L243.44666666666666,189.4758833817138L245.74333333333334,189.8560158329605L245.74333333333334,190.40966510725806L245.74333333333334,190.89170160504906L250.33666666666667,191.5842477016549L250.33666666666667,192.23838694392904L252.63333333333333,192.82260080325085L254.93,193.52834792071653L254.93,194.0988051824352L254.93,194.6877581188431L254.93,195.11979928312974L257.2266666666667,195.8563062306607L257.2266666666667,196.1421735323397L259.5233333333333,196.38617158047765L261.82,196.9858449430638L261.82,197.48218111001128L261.82,197.81195100112552L264.1166666666667,198.01786499197834L266.41333333333336,198.68106381450465L266.41333333333336,199.1937585100083L268.71000000000004,199.56108917928003L268.71000000000004,200.2497376143276L268.71000000000004,200.7510627204603L268.71000000000004,201.25164767103132L271.00666666666666,201.6313222739285L271.00666666666666,202.1663251107462L275.6,202.60352250826696L275.6,203.14363537181075L280.1933333333333,203.42591693103617L280.1933333333333,203.89663346309268L280.1933333333333,204.52603946379367L282.49,205.1515599381478L282.49,205.5484936214129L282.49,205.9703266747101L282.49,206.3499247521478L282.49,206.76879961909668L284.7866666666667,207.30202081507457L284.7866666666667,207.75608984701054L287.08333333333337,208.1187781395434L287.08333333333337,208.25581737567816L287.08333333333337,208.65660358814492L289.38,209.19691562259612L291.6766666666667,209.49517058020203L293.97333333333336,209.86064903987156L296.27,210.29355876596344L296.27,210.74911448012017L296.27,210.61845813404548L300.86333333333334,210.92519619982008L300.86333333333334,211.3906355913356L305.4566666666667,211.85763484452144L307.75333333333333,212.26747839196233L307.75333333333333,212.40624236923924L307.75333333333333,212.67575976501885L307.75333333333333,213.10430163338918L310.05,213.52893732696376L312.34666666666664,213.84664736297728L314.6433333333333,214.27586966016563L314.6433333333333,214.65627668843237L314.6433333333333,215.00253699753304L316.94,215.3707895612345L316.94,215.69376507450593L316.94,216.07264017025994L319.2366666666667,216.46580151174481L319.2366666666667,216.71669572618623L321.53333333333336,217.04451837889866L323.83,217.25499961267022L326.12666666666667,217.672466276316L326.12666666666667,218.00041714767528L328.42333333333335,218.33647654212427L328.42333333333335,218.65504270275758L328.42333333333335,219.0177980027882L330.71999999999997,219.38409161134024L330.71999999999997,219.75467062820564L330.71999999999997,220.09128017442882L333.01666666666665,220.51638353446353L337.61,220.65489662355125L337.61,221.01914187084762L337.61,221.27645148138393L339.9066666666667,221.56499232896638L339.9066666666667,221.7273338942346L339.9066666666667,222.02724201033328L339.9066666666667,222.23265117201538L342.2033333333333,222.63614814041674L342.2033333333333,222.95858663535694L342.2033333333333,223.30771398733535L344.5,223.64673504079195L346.7966666666666,223.98430592534902L346.7966666666666,224.16350132667432L349.09333333333336,224.55955042593484L351.39,224.8052108601348L355.98333333333335,225.06001210706253L355.98333333333335,225.20253052152106L355.98333333333335,225.52404146948976L358.28000000000003,225.82202614475898L360.57666666666665,226.16538489981755L362.8733333333333,226.47017199444696L362.8733333333333,226.68758120255868L362.8733333333333,226.958323071934L367.46666666666664,227.10039834820873L367.46666666666664,227.09314358946784L367.46666666666664,227.3546654272649L369.7633333333333,227.64098728216456L372.06,227.8971104845838L374.3566666666667,228.21432884529682L374.3566666666667,228.25895707155883L376.6533333333333,228.5292369321238L376.6533333333333,228.7284213728951L376.6533333333333,229.05408749854033L378.95000000000005,229.35716512703598L378.95000000000005,229.66757491646072L381.24666666666667,229.870576992256L381.24666666666667,229.9397748572785L381.24666666666667,230.03544355303896L383.5433333333333,230.32540224396834L385.84000000000003,230.18018846308684L385.84000000000003,230.41844276262967L385.84000000000003,230.65544957402238L385.84000000000003,230.86777582558045L388.13666666666666,231.03736028413266L388.13666666666666,231.26712642024532L388.13666666666666,231.57958330540194L388.13666666666666,231.7873950396156L388.13666666666666,231.95279374730526L390.43333333333334,232.26519296128023L390.43333333333334,232.51746230889773L390.43333333333334,232.7691164593516L395.0266666666667,233.0672764867896L395.0266666666667,233.3137280748662L399.61999999999995,233.59302284678665L401.9166666666667,233.8356350135795L404.2133333333333,234.0014137062407L404.2133333333333,234.26783225153517L404.2133333333333,234.52342266108138L404.2133333333333,234.71322051090914L406.51,234.9158395699828L406.51,235.23650582525377L406.51,235.5027975894764L408.8066666666667,235.64318609505725L411.10333333333335,235.92402400804576L413.4,236.1706615470994L413.4,236.35807769663728L413.4,236.59973833795527L413.4,236.7140483072912L413.4,236.86413809864794L413.4,237.1046728892916L415.6966666666667,237.29422067196865L417.99333333333334,237.5042089861193L417.99333333333334,237.67408351424984L417.99333333333334,237.80948273574174L417.99333333333334,238.03409870235453L417.99333333333334,238.3106806914118L420.28999999999996,238.47926135788768L420.28999999999996,238.70544400864014L420.28999999999996,238.91111246397782L420.28999999999996,239.1412274103136L420.28999999999996,239.34118070560547L422.58666666666664,239.5235560136717L427.18,239.7809326094658L427.18,239.91932841521373L427.18,240.12650762538104L429.47666666666663,240.2854798486074L434.07,240.4718218482165L434.07,240.70970353826925L436.3666666666667,240.7970780033428L438.66333333333336,240.9604470931837L438.66333333333336,240.99419261218836L438.66333333333336,241.1393923822336L440.96000000000004,241.299806899516L443.25666666666666,241.42522892447525L443.25666666666666,241.52793696770706L443.25666666666666,241.72805122806668L445.5533333333333,241.9113926436256L445.5533333333333,242.0546879345447L447.85,242.20332833770948L450.14666666666665,242.34757928001622L450.14666666666665,242.43199176075163L452.4433333333333,242.58244528540789L452.4433333333333,242.70675618542683L454.74,242.91713878476892L454.74,243.0511110975929L454.74,243.1748099540707L459.3333333333333,243.3707732413536L461.63000000000005,243.49512495999605L461.63000000000005,243.70637241211165L463.9266666666667,243.86403160211486L466.2233333333333,244.07664843334567L466.2233333333333,244.24115601273968L466.2233333333333,244.34324529695667L466.2233333333333,244.49842197020718L468.52000000000004,244.63400068202327L468.52000000000004,244.80246696789519L470.81666666666666,244.7560964477959L473.11333333333334,244.93153180598864L473.11333333333334,245.0733919842406L475.40999999999997,245.28838154271514L475.40999999999997,245.46121767891688L475.40999999999997,245.48049849541925L477.7066666666667,245.6370033686487L480.00333333333333,245.77787428194412L480.00333333333333,245.82625523821844L482.29999999999995,246.04831487804125L484.5966666666667,246.15782430960496L484.5966666666667,246.29555011455494L486.8933333333333,246.48029886876762L486.8933333333333,246.60449216485122L489.19,246.64460408766138L491.4866666666667,246.83956725377124L491.4866666666667,246.7371839991716L491.4866666666667,246.8866901414011L493.78333333333336,246.99620175450397L496.08,247.1888331762279L496.08,247.3169526180115L496.08,247.54155337827808L496.08,247.70458027417166L496.08,247.88569271838313L498.3766666666667,247.96522689073788L498.3766666666667,248.1294959800086L500.67333333333335,248.24296171158338L500.67333333333335,248.3711809665548L502.96999999999997,248.5400486322116L502.96999999999997,248.68466351822957L502.96999999999997,248.80945790560116L502.96999999999997,248.98039626913223L502.96999999999997,249.1557132663566L502.96999999999997,249.2632635914783L505.26666666666665,249.4243402946746L505.26666666666665,249.60757752333492L507.56333333333333,249.77461113773566L507.56333333333333,249.83593995638736L509.86,249.97432119171273L509.86,250.01662726031213L512.1566666666666,250.17463445528443L512.1566666666666,250.30674283261453L512.1566666666666,250.3696114020851L514.4533333333334,250.4995834054044L514.4533333333334,250.60800236506714L514.4533333333334,250.68982277425124L516.75,250.79990368950064L516.75,250.94685173434152L516.75,251.05665432656957L516.75,251.1576700671177L516.75,251.318127779995L521.3433333333334,251.48760072008167L525.9366666666666,251.6486001799935L528.2333333333333,251.80228876947902L528.2333333333333,251.97555433356064L528.2333333333333,252.0703979804751L530.53,252.19849333102212L530.53,252.37863957832292L532.8266666666667,252.51165238549146L532.8266666666667,252.62269568893913L532.8266666666667,252.68144903509904L535.1233333333333,252.74459232941535L535.1233333333333,252.78926727685803L537.4200000000001,252.90698028956973L537.4200000000001,252.96324739486312L539.7166666666667,253.0785384692736L539.7166666666667,253.23377453297275L542.0133333333333,253.35002605558026L542.0133333333333,253.43098398897445L544.3100000000001,253.54573879904427L544.3100000000001,253.7165304246626L544.3100000000001,253.79782928012548L546.6066666666667,253.93019281495174L546.6066666666667,254.04640895248184L548.9033333333333,254.20209702151504L551.2,254.28772737889136L551.2,254.4453488656206L551.2,254.55883144433318L553.4966666666667,254.68691098445368L555.7933333333333,254.81171526769415L555.7933333333333,254.91630259471953L555.7933333333333,254.96722742170664L555.7933333333333,255.06228268012592L558.09,255.19741094394254L558.09,255.319579370469L560.3866666666667,255.46233756265195L560.3866666666667,255.58112061966244L560.3866666666667,255.7279396867397L562.6833333333333,255.80498745877497L564.98,255.88281565861303L564.98,255.96617794967534L567.2766666666666,256.0621175515855L571.87,256.1560115121173L571.87,256.29305460888196L571.87,256.4232866386177L571.87,256.5031331411092L574.1666666666667,256.58488567888685L574.1666666666667,256.6740164729589L576.4633333333334,256.76288929537503L578.76,256.84814903203204L578.76,256.9734495080287L578.76,257.06660338265976L581.0566666666667,257.07393313137146L581.0566666666667,257.1332905213749L583.3533333333334,257.2341875937714L585.65,257.34999056016017L585.65,257.4390374144909L585.65,257.5405754353444L587.9466666666667,257.6388649384829L594.8366666666666,257.7383749816535L597.1333333333333,257.78949251184713L597.1333333333333,257.87968027355566L597.1333333333333,257.9842025259264L599.43,258.0824914282047L599.43,258.097454226773L599.43,258.0845180350493L601.7266666666667,258.2241042710739L601.7266666666667,258.3419756532651L604.0233333333333,258.40144207583006L604.0233333333333,258.4537156772074L604.0233333333333,258.5240774388627L604.0233333333333,258.5703603330366L606.32,258.61482464329515L608.6166666666667,258.6408794824459L610.9133333333334,258.67441094411413L610.9133333333334,258.7037533421183L613.21,258.810340000465L615.5066666666667,258.94283430478856L615.5066666666667,259.0054224351922L617.8033333333333,259.0236078123344L620.1,259.1423575967025L620.1,259.25188525995156L622.3966666666666,259.37593415979944L622.3966666666666,259.47102775050985L622.3966666666666,259.4266956198933L624.6933333333333,259.493226582737L624.6933333333333,259.5557681539498L626.99,259.67028644308317L626.99,259.7657744359348L629.2866666666666,259.84277832110615L629.2866666666666,259.901780812438L631.5833333333333,259.9462092227344L631.5833333333333,259.997487387245L631.5833333333333,260.1043708391914L631.5833333333333,260.17969398377926L633.88,260.31134046883574L633.88,260.41440289529436L636.1766666666666,260.5356917586522L638.4733333333334,260.63190147058725L640.77,260.72631871366275L640.77,260.76734054605146L640.77,260.88377256272724L643.0666666666667,260.97144260648037L643.0666666666667,261.0681629485458L643.0666666666667,261.1794513304223L643.0666666666667,261.2592408989432L643.0666666666667,261.35557337828396L643.0666666666667,261.35231672645796L645.3633333333333,261.39266230176315L647.66,261.4839831088407L647.66,261.5451506848709L649.9566666666667,261.3974318261555L649.9566666666667,261.5221048525025L652.2533333333333,261.6329697916273L652.2533333333333,261.64726355860734L654.55,261.7247751619781L654.55,261.81169455409326L654.55,261.94878558390985L654.55,262.06857218185115L656.8466666666667,262.17568628381616L656.8466666666667,262.27169383214385L659.1433333333333,262.38198065372836L659.1433333333333,262.5103268900408L659.1433333333333,262.53566216473644L663.7366666666667,262.5824982038806L666.0333333333333,262.68072349877116L666.0333333333333,262.75959103227524L668.3299999999999,262.80620155598507L670.6266666666667,262.9053556768923L672.9233333333333,263.0004264637256L675.22,263.0439900939424L675.22,263.1234713042945L675.22,263.2089266979197L675.22,263.24607940377985L675.22,263.3146043957928L675.22,263.3946871235228L677.5166666666667,263.48290107396735L679.8133333333334,263.58405313121705L679.8133333333334,263.6561006407014L679.8133333333334,263.69127414709914L684.4066666666666,263.6828943299848L684.4066666666666,263.75448710762595L684.4066666666666,263.79829524700915L684.4066666666666,263.85869320988627L684.4066666666666,263.95933996549087L684.4066666666666,264.0254638567873L684.4066666666666,264.0695508885283L684.4066666666666,264.11606892890995L686.7033333333334,264.2109900064981L686.7033333333334,264.1893875474606L691.2966666666667,264.2711169927955L691.2966666666667,264.3132207172148L693.5933333333332,264.3268008113617L693.5933333333332,264.40073234774974L693.5933333333332,264.4705113691286L698.1866666666667,264.5682049536025L700.4833333333333,264.66264304420406L702.78,264.75573289316964L702.78,264.82429367734824L702.78,264.87844146339626L705.0766666666667,264.9418262685551L705.0766666666667,265.0396278571729L707.3733333333333,265.0932972219414L707.3733333333333,265.1617538399649L707.3733333333333,265.2487041510702L707.3733333333333,265.2943103451418L707.3733333333333,265.3694980002929L709.6700000000001,265.45971858629935L709.6700000000001,265.5630974885675L709.6700000000001,265.65429629307096L709.6700000000001,265.70631183615365L714.2633333333333,265.8060821965767L716.5600000000001,265.87052824563926L716.5600000000001,265.9703785203706L716.5600000000001,266.0413878345371L718.8566666666666,266.1098031478837L718.8566666666666,266.18428626263204L718.8566666666666,266.21922355661184L721.1533333333333,266.2893118257095L721.1533333333333,266.39340990176237L723.45,266.46508782108856L723.45,266.57624410091233L723.45,266.64372184774084L725.7466666666666,266.70247108386764L725.7466666666666,266.7992667525238L725.7466666666666,266.8982308421419L725.7466666666666,266.9810565104678L725.7466666666666,267.0868065480559L728.0433333333333,267.102830465662L728.0433333333333,267.1442709307538L730.34,267.19384638854984L732.6366666666667,267.25172372193657L734.9333333333333,267.30902199915613L737.23,267.34654807300603L739.5266666666666,267.37650950607474L739.5266666666666,267.39810680781596L739.5266666666666,267.4393439751022L741.8233333333334,267.4449061770164L741.8233333333334,267.5181431523627L741.8233333333334,267.6047140987724L741.8233333333334,267.64502146742456L744.12,267.7326791400841L744.12,267.79234458956876L746.4166666666666,267.8615583662289L746.4166666666666,267.90913887273587L746.4166666666666,267.93209875921525L746.4166666666666,267.96757252302325L748.7133333333334,268.037049311181L748.7133333333334,268.13484307878116L751.0100000000001,268.22313255400934L751.0100000000001,268.2791268657464L751.0100000000001,268.3367512844258L753.3066666666666,268.4150157856633L753.3066666666666,268.45724781670503L755.6033333333334,268.522025096234L755.6033333333334,268.57216282433586L755.6033333333334,268.6090853483699L757.9000000000001,268.6896001402648L760.1966666666666,268.694407521721L762.4933333333333,268.7492085826002L762.4933333333333,268.79991082567307L762.4933333333333,268.861466864621L764.7900000000001,268.8887400894215L764.7900000000001,268.97805927967283L767.0866666666666,268.99116464766206L767.0866666666666,269.03238940908443L767.0866666666666,269.10951326279815L769.3833333333333,269.181465964522L769.3833333333333,269.2500592649174L769.3833333333333,269.3314617356088L771.6800000000001,269.39090107283164L773.9766666666667,269.4197281467584L776.2733333333333,269.49321365144806L776.2733333333333,269.56647874931855L778.5699999999999,269.6501774215054L778.5699999999999,269.69225516717256L780.8666666666667,269.76619159936143L783.1633333333334,269.7106818227728L785.4599999999999,269.77421074169354L785.4599999999999,269.83127759595357L787.7566666666667,269.88176243849284L787.7566666666667,269.91932862856174L787.7566666666667,269.9496432033616L790.0533333333334,270.00677717650865L794.6466666666666,270.0830884449325L794.6466666666666,270.1194934477159L796.9433333333334,270.1718251284268L796.9433333333334,270.2207282615806L796.9433333333334,270.2699762718474L796.9433333333334,270.32559899750754L799.2399999999999,270.381850528496L799.2399999999999,270.4456706557115L801.5366666666666,270.47713441834526L803.8333333333334,270.5623656737704L803.8333333333334,270.612140828764L803.8333333333334,270.61785247985813L803.8333333333334,270.6444151245916L803.8333333333334,270.7025890418107L806.13,270.75077873914285L806.13,270.79362585666127L806.13,270.81625640998504L806.13,270.83829260842293L806.13,270.77869892842995L808.4266666666666,270.77416890520607L810.7233333333334,270.7882902856736L813.02,270.83630470161404L815.3166666666667,270.8314465963534L815.3166666666667,270.8395544253931L817.6133333333333,270.83192925303644L817.6133333333333,270.819134261176L817.6133333333333,270.836090534496L819.91,270.8226990325909L819.91,270.8458410843516L819.91,270.8620918317319L819.91,270.8563256325577L819.91,270.92894249852475L819.91,270.9790207876436L822.2066666666667,271.0240652055048L822.2066666666667,270.99834718982504L824.5033333333334,271.02056553858046L824.5033333333334,270.98004203616404L829.0966666666667,270.96886596509216L829.0966666666667,270.9666709074024L829.0966666666667,270.9331222911036L829.0966666666667,270.88300179622684L831.3933333333334,270.9022014894298L831.3933333333334,270.9508144840389L833.6899999999999,270.92322114358154L833.6899999999999,270.9035298109299L840.5799999999999,270.89390314759356L842.8766666666667,270.88846363869015L845.1733333333333,270.88862679864167L849.7666666666667,270.86066774081223L852.0633333333333,270.8753386861834L852.0633333333333,270.8696662033956L852.0633333333333,270.86240788396873L856.6566666666668,270.8736846827632L856.6566666666668,270.9118470099563L856.6566666666668,270.9205890745619L856.6566666666668,270.8994045909419L858.9533333333333,270.7084974862626L861.25,270.71143631364845L863.5466666666667,270.7261097431964L863.5466666666667,270.74002568099644L863.5466666666667,270.690736847776L865.8433333333332,270.70966913756536L865.8433333333332,270.70231291823325L868.14,270.7576100415683L868.14,270.78700102182387L870.4366666666667,270.7673955801186L870.4366666666667,270.7496348782932L875.03,270.68535048880113L875.03,270.68532884023443L877.3266666666667,270.74180218582103L877.3266666666667,270.7809439392928L877.3266666666667,270.8123349143887L879.6233333333333,270.847963239962L879.6233333333333,270.883861879591L881.9200000000001,270.90545483030195L884.2166666666667,270.9209748416917L886.5133333333333,270.9490273404083L886.5133333333333,270.959116205018L888.8100000000001,270.9919564820208L891.1066666666666,271.0048985562462L895.7,271.0510136404473L897.9966666666666,270.99752709945454L897.9966666666666,270.9885101648997L900.2933333333333,270.94291532421215L900.2933333333333,270.96271159326943L900.2933333333333,270.9518583071566L902.59,270.89330960039655L902.59,270.89498208217265L902.59,270.91975452374595L904.8866666666667,270.94486366870444L907.1833333333333,270.94098811821846L907.1833333333333,270.95946333129336L907.1833333333333,270.96441690908193L907.1833333333333,271.00221036243335L909.48,271.05623012483164L911.7766666666666,271.11154257706715L914.0733333333334,271.1374259207272L918.6666666666666,271.1406980503686L918.6666666666666,271.17960905295297L920.9633333333334,271.2313256666801L920.9633333333334,271.23541723079137L923.2600000000001,271.31447734958135L923.2600000000001,271.3511727795191L923.2600000000001,271.3614258151239L925.5566666666666,271.3483997731074L927.8533333333334,271.3888784175895L930.1500000000001,271.3650837915054L930.1500000000001,271.4175576772028L930.1500000000001,271.4289020617158L934.7433333333333,271.3319972282409L934.7433333333333,271.37169843464244L934.7433333333333,271.39954659369516L937.0400000000001,271.4473415426986L937.0400000000001,271.51550851153064L937.0400000000001,271.54706722619983L939.3366666666666,271.5592046731142L941.6333333333333,271.5830285962207L941.6333333333333,271.5989933253224L943.9300000000001,271.62177048787396L943.9300000000001,271.6469456685745L946.2266666666667,271.6171158918569L946.2266666666667,271.6430495042602L948.5233333333333,271.6999686566665L948.5233333333333,271.75796597079943L950.8199999999999,271.8021729780158L953.1166666666667,271.85039879551096L957.7099999999999,271.87419043897364L962.3033333333334,271.87485907624233L964.5999999999999,271.93669110008267L966.8966666666666,271.9841262895146L969.1933333333334,272.0521712003115L969.1933333333334,272.1140984571748L969.1933333333334,272.1401936275793L971.4899999999999,272.152042679913L971.4899999999999,272.1665938768953L973.7866666666666,272.1693626815446L973.7866666666666,272.163719859586L973.7866666666666,272.2077627191533L976.0833333333334,272.2437385198438L976.0833333333334,272.291766375087L976.0833333333334,272.3268616004294L978.38,272.35113178326725L978.38,272.355760104565L978.38,272.3983246958635L980.6766666666666,272.43513668294423L980.6766666666666,272.4581222005094L980.6766666666666,272.52222668235726L980.6766666666666,272.5517494383663L982.9733333333334,272.56133275615076L982.9733333333334,272.59396567921726L985.27,272.60001841973576L989.8633333333333,272.6499994224821L989.8633333333333,272.6802720107719L989.8633333333333,272.6581151675683L992.16,272.66128945292337L994.4566666666667,272.65902191593267L994.4566666666667,272.6869824221242L994.4566666666667,272.67148035735704L996.7533333333334,272.68930003715286L996.7533333333334,272.7056845060308L996.7533333333334,272.7442899403304L996.7533333333334,272.74727730218893L996.7533333333334,272.7612992030225L996.7533333333334,272.7830066044405L999.05,272.815648774912L999.05,272.82775189521743L1001.3466666666667,272.87250317316705L1001.3466666666667,272.9369510932645L1001.3466666666667,272.9907097349867L1001.3466666666667,273.02276467995307L1005.9399999999999,273.0379479949735L1005.9399999999999,273.07112866563045L1008.2366666666667,273.06912979709773L1008.2366666666667,273.0834486672934L1010.5333333333333,273.1270194728866L1010.5333333333333,273.1505630917493L1012.8299999999999,273.19028702202536L1012.8299999999999,273.221409591417L1015.1266666666667,273.2619395702757L1015.1266666666667,273.32289576814225L1017.4233333333333,273.35222573474323L1017.4233333333333,273.37876871572104L1019.72,273.43606377706124L1022.0166666666667,273.4071914144972L1024.3133333333333,273.4575637688132L1024.3133333333333,273.510121853698L1026.61,273.56345422847363L1026.61,273.57305497761286L1028.9066666666668,273.6316129498047L1028.9066666666668,273.6268358516362L1033.5,273.58852673884326L1033.5,273.60895937893355L1038.0933333333332,273.62247928388047L1038.0933333333332,273.65927363698296L1040.39,273.6983307971831L1042.6866666666667,273.70033187933393L1042.6866666666667,273.71805650687065L1044.9833333333333,273.7568620837147L1044.9833333333333,273.7794122316242L1047.28,273.79044388851037L1047.28,273.76012903644573L1049.5766666666668,273.7850992381275L1049.5766666666668,273.82427012198616L1051.8733333333332,273.87194393173434L1051.8733333333332,273.86537995847436L1051.8733333333332,273.8667057026003L1054.17,273.8969957994214L1054.17,273.8868624080971L1056.4666666666667,273.9174237722068L1056.4666666666667,273.9861225805098L1056.4666666666667,274.0231368515532L1058.7633333333333,274.02578528430354L1061.06,274.0752220628163L1061.06,274.1223666102333L1061.06,274.1798607769689L1061.06,274.2010148301772L1063.3566666666666,274.2332029819457L1063.3566666666666,274.2591174140646L1063.3566666666666,274.2918661906699L1065.6533333333334,274.31002294002906L1065.6533333333334,274.29640291370004L1067.95,274.3197114449877L1067.95,274.3111672253L1067.95,274.32590350234506L1070.2466666666667,274.3038425126131L1070.2466666666667,274.3302252823359L1072.5433333333333,274.37575347397535L1074.8400000000001,274.37293721777286L1074.8400000000001,274.4098383445552L1074.8400000000001,274.43891695260237L1077.1366666666665,274.4742146373771L1077.1366666666665,274.45564236105724L1077.1366666666665,274.40336380288875L1079.4333333333334,274.3650405500039L1081.73,274.3997558702148L1081.73,274.38651271257754L1084.0266666666666,274.3641872794709L1088.6200000000001,274.4109658811366L1088.6200000000001,274.4537872493512L1088.6200000000001,274.4293492183974L1088.6200000000001,274.4383560831358L1088.6200000000001,274.44426948186776L1090.9166666666665,274.4882595079908L1090.9166666666665,274.5108933341572L1090.9166666666665,274.53085991277777L1093.2133333333334,274.55740733754067L1095.51,274.55687784649695L1095.51,274.54476654801334L1095.51,274.58450109847337L1095.51,274.60293688465936L1097.8066666666666,274.62429853649496L1097.8066666666666,274.66088000334054L1104.6966666666667,274.6615755266993L1104.6966666666667,274.6981356553717L1104.6966666666667,274.7082206745198L1104.6966666666667,274.7269966772238L1104.6966666666667,274.7368153650159L1104.6966666666667,274.73145739278567L1106.9933333333333,274.73236464074466L1109.29,274.76398147831344L1111.5866666666666,274.7477195356438L1113.8833333333334,274.7549624640222L1113.8833333333334,274.79476578960646L1113.8833333333334,274.79850612901447L1113.8833333333334,274.8313104997007L1116.18,274.8245982753212L1116.18,274.8420905961971L1118.4766666666667,274.8809817570221L1118.4766666666667,274.92845540352823L1118.4766666666667,274.96501461814006L1118.4766666666667,274.99637745295297L1120.7733333333333,275.0476207329726L1120.7733333333333,275.05031193055413L1120.7733333333333,275.08233271192677L1120.7733333333333,275.0554850437227L1120.7733333333333,275.0742006475648L1123.07,275.0802884785944L1123.07,275.12288771727594L1125.3666666666666,275.1552575951879L1125.3666666666666,275.1710567993895L1125.3666666666666,275.19655819985604L1125.3666666666666,275.2323727798088L1127.6633333333334,275.27859840137785L1127.6633333333334,275.3180195845747L1129.96,275.36317528160413L1129.96,275.4116167368475L1129.96,275.45773511935397L1132.2566666666667,275.50575615287045L1132.2566666666667,275.50882514128443L1134.5533333333333,275.5339962192603L1134.5533333333333,275.55075713128144L1136.85,275.5903591544801L1136.85,275.6330689414315L1136.85,275.63898670358094L1136.85,275.6827187935962L1139.1466666666668,275.7095665645146L1141.4433333333334,275.7544897885773L1141.4433333333334,275.80245737733213L1143.74,275.83364893794817L1143.74,275.8753137283102L1146.0366666666666,275.8749643692626L1146.0366666666666,275.9158771458765L1150.6299999999999,275.9505204917308L1150.6299999999999,275.98615010535866L1152.9266666666667,276.0249883834589L1152.9266666666667,276.04698545504743L1152.9266666666667,276.07989886784463L1155.2233333333334,276.12833123915163L1157.52,276.1475515241591L1159.8166666666666,276.1483703495671L1162.1133333333335,276.19050585306775L1162.1133333333335,276.2362353245873L1164.4099999999999,276.2300039027032L1164.4099999999999,276.25231234085663L1166.7066666666667,276.30188618850366L1166.7066666666667,276.3241711592599L1169.0033333333333,276.3214425610125L1169.0033333333333,276.2902183954041L1169.0033333333333,276.32181131740595L1169.0033333333333,276.35520136636444L1171.3,276.40931005040295L1173.5966666666666,276.4033657033778L1173.5966666666666,276.4382016170865L1175.8933333333334,276.44398140379576L1175.8933333333334,276.4431236955818L1175.8933333333334,276.4821991083843L1178.19,276.538577215293L1180.4866666666667,276.5910660152549L1182.7833333333333,276.63240581915227L1185.08,276.674934802965L1187.3766666666668,276.70053923378146L1187.3766666666668,276.69370317749247L1187.3766666666668,276.7384357240761L1189.6733333333332,276.7573276061581L1191.97,276.77770973440335L1191.97,276.80826203345964L1194.2666666666667,276.8481737028163L1194.2666666666667,276.86061476675286L1194.2666666666667,276.8828983198347L1196.5633333333333,276.92253245808564L1196.5633333333333,276.96013410485693L1196.5633333333333,276.9867577375388L1198.86,276.99439444195093L1203.4533333333334,277.0274189269509L1203.4533333333334,277.05263246141226L1203.4533333333334,277.0588436813924L1203.4533333333334,277.10757147407907L1205.75,277.1304441337877L1205.75,277.1496627398175L1208.0466666666666,277.1805425858157L1208.0466666666666,277.2012763272684L1208.0466666666666,277.1958319750176L1210.3433333333332,277.239788076151L1210.3433333333332,277.2692887221536L1217.2333333333333,277.3055600405404L1217.2333333333333,277.2449036618448L1219.53,277.24858791726444L1219.53,277.2668690031578L1221.8266666666668,277.29000280181526L1221.8266666666668,277.3293455102831L1224.1233333333332,277.3618729732443L1228.7166666666667,277.38007416645144L1228.7166666666667,277.3293347928254L1233.31,277.36376393648396L1233.31,277.3931771882788L1235.6066666666666,277.3912777747301L1235.6066666666666,277.3914775842639L1235.6066666666666,277.22374325249694L1240.2,277.2593902622803L1240.2,277.3051155732285L1240.2,277.354207027666L1242.4966666666667,277.3781513001113L1242.4966666666667,277.4027542451998L1242.4966666666667,277.44071598228277L1244.7933333333333,277.4737153629153L1247.0900000000001,277.5063593744304L1249.3866666666665,277.54064603863765L1249.3866666666665,277.56182529495163L1249.3866666666665,277.5927218737326L1249.3866666666665,277.595899505807L1249.3866666666665,277.587880219279L1251.6833333333334,277.62361637919173L1251.6833333333334,277.6690570264175L1251.6833333333334,277.71159612696886L1253.98,277.73246833108857L1253.98,277.7492098990388L1256.2766666666666,277.76845331849086L1260.8700000000001,277.7828078167337L1260.8700000000001,277.80581063133513L1263.1666666666665,277.81785617682647L1263.1666666666665,277.86293510857007" style="fill: none;" fill="none"></path></g></g></g></g><g opacity="0.2"><g><g><g><path stroke="rgb(255, 112, 67)" stroke-width="2px" d="M117.13000000000001,-638.2895096540452L117.13000000000001,28.126089334487915L117.13000000000001,54.72168928384781L117.13000000000001,-16.23904699087143L119.42666666666668,-44.6479811668396L121.72333333333333,151.51347300410268L121.72333333333333,28.07157790660858L121.72333333333333,57.48424834012985L121.72333333333333,11.076717138290405L124.02,-227.75305652618408L124.02,41.41536211967468L124.02,26.090171992778778L126.31666666666666,139.58642265200615L128.61333333333334,67.2141627073288L128.61333333333334,67.05391412973404L133.20666666666668,174.30203488469124L133.20666666666668,197.7954276502132L135.50333333333333,134.013474047184L135.50333333333333,177.59230962395665L135.50333333333333,177.7989648878574L137.8,220.517078474164L137.8,148.26226687431333L137.8,126.31939879059789L140.09666666666666,173.3122081160545L140.09666666666666,190.56252470612523L142.39333333333335,46.37383675575256L142.39333333333335,154.3518849313259L142.39333333333335,229.23638007044792L142.39333333333335,143.84865617752072L144.69,172.0615275800228L144.69,171.78297793865204L144.69,195.38628539443016L146.98666666666668,69.40888917446136L146.98666666666668,184.79844188690183L146.98666666666668,67.9827675819397L146.98666666666668,206.01448832452297L149.28333333333333,148.93075159192085L149.28333333333333,135.68754127621648L151.58,234.35983626544473L151.58,226.76520837843415L156.17333333333332,107.70419991016388L156.17333333333332,219.94148536026475L156.17333333333332,229.77300627529618L156.17333333333332,160.76744502782822L158.47,235.72742535173893L158.47,217.5782256424427L158.47,141.16445338726044L160.76666666666668,202.35921075940132L165.35999999999999,225.4893765449524L165.35999999999999,192.92167729139325L169.95333333333335,121.88554188609118L172.25,161.7151052355766L172.25,165.86032068729398L172.25,221.52108854055402L174.54666666666668,245.33098867535588L176.84333333333333,235.19416308403015L179.14000000000001,236.9175706654787L181.43666666666664,261.8339088410139L181.43666666666664,215.86507415771482L181.43666666666664,234.71355034410954L190.62333333333333,238.78295204043388L190.62333333333333,259.3044158667326L190.62333333333333,257.61560989916325L190.62333333333333,229.27259324491024L192.92000000000002,232.03007510304448L192.92000000000002,239.23192030191422L192.92000000000002,202.70751124620435L192.92000000000002,259.79988469183445L195.21666666666667,220.096734970808L195.21666666666667,264.91737185418606L195.21666666666667,230.92641426622868L195.21666666666667,236.54908655583858L195.21666666666667,218.08055533468723L197.51333333333335,183.5700259208679L199.80999999999997,261.88076144456863L199.80999999999997,235.6626265347004L204.40333333333334,263.3027837276459L204.40333333333334,182.5669311583042L204.40333333333334,251.7160151749849L204.40333333333334,272.06718946248293L204.40333333333334,283.2442617639899L206.7,244.0317500978708L206.7,243.99023285508156L206.7,249.04806880652902L206.7,251.97604751586914L208.99666666666667,267.2315806746483L208.99666666666667,245.84761901199818L211.29333333333332,244.6514577269554L213.59,282.62753865122795L213.59,258.09891378879547L215.88666666666668,239.18924523890018L215.88666666666668,247.84607930481434L220.48000000000002,287.47652104496956L222.77666666666664,247.94888278841972L225.07333333333332,264.7121169269085L225.07333333333332,246.49236059188843L225.07333333333332,252.68193452060223L225.07333333333332,284.9733997732401L227.37,254.45497973263264L229.66666666666666,270.37632992863655L229.66666666666666,215.56665381789205L229.66666666666666,285.6876496821642L229.66666666666666,261.14103949069977L231.96333333333334,263.8788071125746L231.96333333333334,272.02771405130625L231.96333333333334,267.76895789802074L234.26000000000002,271.79214848577976L234.26000000000002,242.22922740876675L236.55666666666667,265.08577993512154L238.85333333333335,228.6669046282768L238.85333333333335,287.8354531377554L238.85333333333335,273.3309971764684L238.85333333333335,197.67848780751228L241.14999999999998,236.5642555654049L241.14999999999998,261.66310688853264L241.14999999999998,280.61980797350407L241.14999999999998,283.10791278630495L243.44666666666666,232.80463336408135L243.44666666666666,254.9572624862194L243.44666666666666,265.33509461581707L243.44666666666666,217.12037815153596L243.44666666666666,270.63077265769243L243.44666666666666,272.00079864263535L243.44666666666666,297.8768759071827L245.74333333333334,234.49904850125313L245.74333333333334,255.91871483623981L245.74333333333334,248.35188245773313L250.33666666666667,274.74709736555815L250.33666666666667,271.36416962742805L252.63333333333333,264.00305373966694L254.93,280.135432317853L254.93,264.60342264175415L254.93,267.99388794600964L254.93,249.27317878603935L257.2266666666667,288.81582567840815L257.2266666666667,232.47291786968708L259.5233333333333,227.6085161268711L261.82,274.24325781315565L261.82,261.8583012968302L261.82,240.87065054476258L264.1166666666667,225.08327892422673L266.41333333333336,286.4275359213352L266.41333333333336,267.4716875553131L268.71000000000004,248.798261269927L268.71000000000004,293.15214405208826L268.71000000000004,268.8157290816307L268.71000000000004,269.6479436606169L271.00666666666666,253.83472448587418L271.00666666666666,276.1875078678131L275.6,263.46894657611847L275.6,278.8010484203696L280.1933333333333,243.2095412760973L280.1933333333333,270.6414277330041L280.1933333333333,294.31158366054296L282.49,294.91849268227816L282.49,262.8510617315769L282.49,267.2279585748911L282.49,261.79838410019875L282.49,268.31174871325493L284.7866666666667,286.0995833426714L284.7866666666667,275.24333676695824L287.08333333333337,262.33273378014565L287.08333333333337,228.85659939050674L287.08333333333337,269.2459766417742L289.38,291.3373742848635L291.6766666666667,255.0897312015295L293.97333333333336,266.04098162055016L296.27,277.20516926050186L296.27,281.54563388228416L296.27,190.2033344507217L300.86333333333334,259.1116857379675L300.86333333333334,284.89989383518696L305.4566666666667,286.00602677464485L307.75333333333333,277.6852617636323L307.75333333333333,234.67173582315445L307.75333333333333,256.1474077999592L307.75333333333333,282.58469930291176L310.05,282.7313826084137L312.34666666666664,265.8891428858042L314.6433333333333,284.94311651587486L314.6433333333333,277.6039640083909L314.6433333333333,272.58842761069536L316.94,276.9208109602332L316.94,269.94481502473354L316.94,280.02814619243145L319.2366666666667,283.1592793241143L319.2366666666667,259.4849341213703L321.53333333333336,273.1978400275111L323.83,253.48291924595833L326.12666666666667,289.8718046620488L326.12666666666667,274.9892304316163L328.42333333333335,277.01165290921926L328.42333333333335,274.5385684669018L328.42333333333335,282.95183001458645L330.71999999999997,284.2431046664715L330.71999999999997,285.67708457261324L330.71999999999997,280.2472480237484L333.01666666666665,296.8359133824706L337.61,245.63589437305924L337.61,287.00938752293587L337.61,268.10362270474434L339.9066666666667,274.3116044104099L339.9066666666667,251.5366312712431L339.9066666666667,277.34116619825363L339.9066666666667,260.2848627269268L342.2033333333333,297.71262972056866L342.2033333333333,283.2150815650821L342.2033333333333,288.83528957515955L344.5,287.552514731884L346.7966666666666,287.8903283402324L346.7966666666666,258.2323291003704L349.09333333333336,300.1771987080574L351.39,271.90766452252865L355.98333333333335,274.120798766613L355.98333333333335,252.75871834158897L355.98333333333335,287.94777734577656L358.28000000000003,283.9177923873067L360.57666666666665,293.3834577575326L362.8733333333333,286.3820288926363L362.8733333333333,269.5980635136366L362.8733333333333,280.6122117340565L367.46666666666664,255.36974376440048L367.46666666666664,225.64382819831368L367.46666666666664,279.80906000733376L369.7633333333333,285.2982191964984L372.06,279.67746748030186L374.3566666666667,292.5990462899208L374.3566666666667,237.35251991450787L376.6533333333333,283.8170972317457L376.6533333333333,269.63139778375626L376.6533333333333,296.18882878124714L378.95000000000005,292.0756763443351L378.95000000000005,294.1492580473423L381.24666666666667,272.2009959295392L381.24666666666667,244.42375829815865L381.24666666666667,250.13565315306187L383.5433333333333,291.47512751072645L385.84000000000003,199.44144120812416L385.84000000000003,281.0395217165351L385.84000000000003,281.1978927478194L385.84000000000003,276.31384717673063L388.13666666666666,267.4681436866522L388.13666666666666,280.80654560029507L388.13666666666666,299.1925664842129L388.13666666666666,276.9187026321888L388.13666666666666,268.0024073123932L390.43333333333334,300.5984223112464L390.43333333333334,287.89490877091885L390.43333333333334,288.2076766937971L395.0266666666667,298.9831027239561L395.0266666666667,287.989814825356L399.61999999999995,295.7725298255682L401.9166666666667,288.0368356257677L404.2133333333333,271.166072845459L404.2133333333333,294.200597204268L404.2133333333333,292.21815863996744L404.2133333333333,277.7032862082124L406.51,280.9664890766144L406.51,308.36403208225965L406.51,296.43558921664953L408.8066666666667,267.8749610334635L411.10333333333335,300.61763586848974L413.4,293.1754764765501L413.4,279.8190892338753L413.4,292.8251967430115L413.4,263.397333830595L413.4,272.01438347250223L413.4,293.62062706053257L415.6966666666667,281.9751108661294L417.99333333333334,287.1636944487691L417.99333333333334,277.9767156243324L417.99333333333334,270.0360090136528L417.99333333333334,291.66613655537367L417.99333333333334,304.5610229149461L420.28999999999996,278.98782125115395L420.28999999999996,293.22689777612686L420.28999999999996,288.64349430799484L420.28999999999996,294.9592197909951L420.28999999999996,287.99424270540476L422.58666666666664,284.0373216792941L427.18,302.7951475828886L427.18,273.907525151968L427.18,291.1630988717079L429.47666666666663,279.5663988813758L434.07,286.6557321175933L434.07,299.8461481779814L436.3666666666667,262.58358961343765L438.66333333333336,281.81841789186L438.66333333333336,249.4590871632099L438.66333333333336,277.67065992951393L440.96000000000004,281.77889554202557L443.25666666666666,273.1679401025176L443.25666666666666,267.59864097833633L443.25666666666666,292.6727986559272L445.5533333333333,288.7226211503148L445.5533333333333,278.7477965131402L447.85,280.3755704909563L450.14666666666665,279.4996286407113L450.14666666666665,264.2351419329643L452.4433333333333,281.5549746751785L452.4433333333333,274.9994513243437L454.74,297.7245130240917L454.74,278.05155931413174L454.74,275.58256244659424L459.3333333333333,294.855446241796L461.63000000000005,276.25712572038174L461.63000000000005,299.5175110772252L463.9266666666667,285.63311087340117L466.2233333333333,300.56188056617975L466.2233333333333,288.0659962669015L466.2233333333333,271.6146343052387L466.2233333333333,286.0647587701678L468.52000000000004,281.0498638674617L468.52000000000004,290.1748406365514L470.81666666666666,232.2334681302309L473.11333333333334,292.43675196915865L473.11333333333334,283.59027007967234L475.40999999999997,303.8172368556261L475.40999999999997,292.6398164257407L475.40999999999997,250.75752778351307L477.7066666666667,288.58484445512295L480.00333333333333,284.5375391319394L480.00333333333333,259.172964155674L482.29999999999995,307.4678185991943L484.5966666666667,276.52616246044636L484.5966666666667,284.5880373045802L486.8933333333333,297.9799727573991L486.8933333333333,281.3134674578905L489.19,257.88376262784004L491.4866666666667,301.60740396380424L491.4866666666667,217.90279863774776L491.4866666666667,289.0996324494481L493.78333333333336,277.9952016323805L496.08,301.8541252836585L496.08,283.76655212044716L496.08,311.6002784706652L496.08,294.31809639930725L496.08,299.79947159439325L498.3766666666667,270.8194308578968L498.3766666666667,295.44924373179674L500.67333333333335,281.0088394805789L500.67333333333335,285.4885476306081L502.96999999999997,297.54427640140057L502.96999999999997,290.7534065321088L502.96999999999997,285.20074716210365L502.96999999999997,298.9486497491598L502.96999999999997,300.52781092375517L502.96999999999997,280.85402405261993L505.26666666666665,296.85100807249546L505.26666666666665,303.6881887950003L507.56333333333333,299.19045815616846L507.56333333333333,268.0228099822998L509.86,291.10805156081915L509.86,262.6217663884163L512.1566666666666,297.36382073163986L512.1566666666666,289.8537137210369L512.1566666666666,269.23345966637135L514.4533333333334,289.5888036713004L514.4533333333334,283.29082491248846L514.4533333333334,275.41160403192043L516.75,284.13721887767315L516.75,295.55144483596087L516.75,284.4624842181802L516.75,281.9604112431407L516.75,300.3578851595521L521.3433333333334,303.40013798698783L525.9366666666666,301.07708318531513L528.2333333333333,299.09261061251163L528.2333333333333,305.4095330312848L528.2333333333333,281.3850645571947L530.53,291.87910898029804L530.53,308.3074338398874L532.8266666666667,293.89882857352495L532.8266666666667,287.2504018843174L532.8266666666667,271.04344560205936L535.1233333333333,272.52191162109375L535.1233333333333,266.8126922696829L537.4200000000001,289.9376322180033L537.4200000000001,270.7024988383055L539.7166666666667,289.5050220787525L539.7166666666667,302.38700421899557L542.0133333333333,290.2386967688799L542.0133333333333,279.1755602359772L544.3100000000001,290.1158504784107L544.3100000000001,308.26067120209336L544.3100000000001,279.81674621254206L546.6066666666667,296.38173884153366L546.6066666666667,291.3979994729161L548.9033333333333,304.3453671634197L551.2,281.9251094609499L551.2,305.4246140308678L551.2,291.3389858454466L553.4966666666667,296.2844389155507L555.7933333333333,295.4296546652913L555.7933333333333,289.025015629828L555.7933333333333,271.60943584889174L555.7933333333333,286.19019059836864L558.09,299.5388368740678L558.09,295.49027985334396L560.3866666666667,302.49891771376133L560.3866666666667,294.79779774695635L560.3866666666667,304.2990113273263L562.6833333333333,281.3456165269017L564.98,281.7341004163027L564.98,283.7112466469407L567.2766666666666,288.0571444183588L571.87,287.5313219279051L571.87,302.17805678397417L571.87,300.11429308354855L571.87,283.34348617494106L574.1666666666667,284.1201410293579L574.1666666666667,286.75338017195463L576.4633333333334,286.8139858022332L578.76,285.7338764369488L578.76,299.5075757279992L578.76,288.74977907538414L581.0566666666667,259.57173152267933L581.0566666666667,277.3999021053314L583.3533333333334,291.7501919567585L585.65,297.0412426292896L585.65,288.01811883598566L585.65,292.4757462590933L587.9466666666667,291.5207245051861L594.8366666666666,292.1060808598995L597.1333333333333,275.4773259758949L597.1333333333333,289.1455971300602L597.1333333333333,294.2877231761813L599.43,292.2850462272763L599.43,263.3139473050833L599.43,253.56614930927753L601.7266666666667,307.0696457885206L601.7266666666667,299.6653248220682L604.0233333333333,279.28773971647024L604.0233333333333,276.8475514501333L604.0233333333333,283.3282389342785L604.0233333333333,274.9160804450512L606.32,274.3469922468066L608.6166666666667,267.87629878520966L610.9133333333334,270.5816122367978L610.9133333333334,269.14228914678097L613.21,296.79702470451593L615.5066666666667,306.247951336205L615.5066666666667,281.3917611390352L617.8033333333333,265.5397628098726L620.1,301.7686695456505L620.1,298.6379353925586L622.3966666666666,304.0631250143051L622.3966666666666,293.7881433069706L622.3966666666666,243.39994794130322L624.6933333333333,283.5876063108444L624.6933333333333,282.24520763754845L626.99,301.2892028912902L626.99,294.5292773321271L629.2866666666666,287.925821788609L629.2866666666666,281.45720536261797L631.5833333333333,276.2054267004132L631.5833333333333,278.7959321066737L631.5833333333333,299.3551659062505L631.5833333333333,287.88818871974945L633.88,308.82211817801L633.88,298.4571433290839L636.1766666666666,305.38263131305575L638.4733333333334,296.2662853896618L640.77,295.75615605711937L640.77,276.0126535445452L640.77,304.2274963706732L643.0666666666667,293.66299702227116L643.0666666666667,297.1950684338808L643.0666666666667,302.8174082413316L643.0666666666667,291.16194105148315L643.0666666666667,297.5181863307953L643.0666666666667,260.127759039402L645.3633333333333,276.58843441307545L647.66,295.9359193816781L647.66,284.6594270914793L649.9566666666667,205.48502026498318L649.9566666666667,308.7888992987573L652.2533333333333,303.7334806881845L652.2533333333333,267.08411505818367L654.55,291.2554428577423L654.55,294.98029524832964L654.55,314.347615711391L654.55,307.92719746381044L656.8466666666667,303.24882340058684L656.8466666666667,299.14509585499763L659.1433333333333,304.8074097968638L659.1433333333333,311.9617452509701L659.1433333333333,272.31281554698944L663.7366666666667,280.6857411414385L666.0333333333333,300.70729652792215L666.0333333333333,293.3403289541602L668.3299999999999,280.9078353121877L670.6266666666667,301.4733354225755L672.9233333333333,300.03810773044825L675.22,280.04205959290266L675.22,294.1845911219716L675.22,296.6567211449146L675.22,277.8104628100991L675.22,290.21895906329155L675.22,294.88541266322136L677.5166666666667,298.2244840487838L679.8133333333334,303.4823060631752L679.8133333333334,292.11796025186777L679.8133333333334,277.6075626388192L684.4066666666666,260.3623897433281L684.4066666666666,292.16629533469677L684.4066666666666,281.2100655063987L684.4066666666666,287.9005062058568L684.4066666666666,304.0829370394349L684.4066666666666,290.42595463246107L684.4066666666666,281.69809064269066L684.4066666666666,282.7445371672511L686.7033333333334,302.27960074692965L686.7033333333334,255.51268762350082L691.2966666666667,297.1468428745866L691.2966666666667,281.2745983377099L693.5933333333332,269.80560278892517L693.5933333333332,294.271967433393L693.5933333333332,292.7054836079478L698.1866666666667,304.1564273312688L700.4833333333333,302.9877212494612L702.78,302.5888834744692L702.78,292.729082018137L702.78,286.9490791708231L705.0766666666667,290.8149587586522L705.0766666666667,305.01917746290565L707.3733333333333,287.06405541300774L707.3733333333333,293.22636971622705L707.3733333333333,300.94624949991703L707.3733333333333,284.04482012987137L707.3733333333333,296.3263160213828L709.6700000000001,302.6589902713895L709.6700000000001,308.2483869642019L709.6700000000001,303.3638583160937L709.6700000000001,287.24454237520695L714.2633333333333,307.17665028199553L716.5600000000001,292.6312501206994L716.5600000000001,307.49071879684925L716.5600000000001,295.6103176474571L718.8566666666666,294.6384253576398L718.8566666666666,297.2864814698696L718.8566666666666,280.82843466103077L721.1533333333333,295.63779632002115L721.1533333333333,310.0434307605028L723.45,296.5623587965965L723.45,313.3146914318204L723.45,295.0554714202881L725.7466666666666,291.4730035364628L725.7466666666666,307.66726291179657L725.7466666666666,308.7388353087008L725.7466666666666,302.0462921485305L725.7466666666666,311.9182213805616L728.0433333333333,273.9051860421896L728.0433333333333,284.7600792199373L730.34,288.2961873561144L732.6366666666667,291.9210330247879L734.9333333333333,291.7643361389637L737.23,283.3844166845083L739.5266666666666,280.1985335201025L739.5266666666666,276.6530259177089L739.5266666666666,285.1339026018977L741.8233333333334,269.8347751647234L741.8233333333334,299.02701383829117L741.8233333333334,304.8995210453868L741.8233333333334,285.03235863894224L744.12,305.5952125824988L744.12,293.59785398840904L746.4166666666666,297.8359610438347L746.4166666666666,288.5417508557439L746.4166666666666,277.90130867064L746.4166666666666,283.39035833626986L748.7133333333334,298.28239461779594L748.7133333333334,310.7625485993922L751.0100000000001,306.7576914690435L751.0100000000001,292.74973502755165L751.0100000000001,293.5521318241954L753.3066666666666,302.70605409890413L753.3066666666666,286.98460000008345L755.6033333333334,296.9763577580452L755.6033333333334,290.6239301562309L755.6033333333334,284.8691372796893L757.9000000000001,304.19192273542285L760.1966666666666,270.8168648779392L762.4933333333333,292.9744108244777L762.4933333333333,291.2414394915104L762.4933333333333,296.14128774404526L764.7900000000001,280.99058816581964L764.7900000000001,308.6609327830374L767.0866666666666,274.8209084048867L767.0866666666666,287.3935061171651L767.0866666666666,303.5024407915771L769.3833333333333,301.3081426396966L769.3833333333333,299.91467079520226L769.3833333333333,305.7673385962844L771.6800000000001,296.028818808496L773.9766666666667,282.354547329247L776.2733333333333,302.5068816393614L776.2733333333333,302.5214052423835L778.5699999999999,307.34413328021765L778.5699999999999,288.66518387943506L780.8666666666667,303.144781909883L783.1633333333334,244.62040780484676L785.4599999999999,298.52386663109064L785.4599999999999,295.6877468749881L787.7566666666667,292.78354259580374L787.7566666666667,286.9812204167247L787.7566666666667,283.73449692875147L790.0533333333334,296.01823022961617L794.6466666666666,304.8669045455754L794.6466666666666,286.7332121953368L796.9433333333334,294.08221008628607L796.9433333333334,292.5911175683141L796.9433333333334,292.8247977644205L796.9433333333334,295.8300335928798L799.2399999999999,296.2050108835101L799.2399999999999,299.7777741998434L801.5366666666666,284.95503502339125L803.8333333333334,309.8270494155586L803.8333333333334,293.569557800889L803.8333333333334,273.2552655637264L803.8333333333334,282.9242574647069L803.8333333333334,297.6274634376168L806.13,293.08045307546854L806.13,290.6706575900316L806.13,281.3268136829138L806.13,281.0845867395401L806.13,243.03726857900617L808.4266666666666,268.662982866168L810.7233333333334,277.3769882172346L813.02,293.26424530148506L815.3166666666667,268.55960047245026L815.3166666666667,274.63541074097157L817.6133333333333,267.25799149274826L817.6133333333333,264.8153037428856L817.6133333333333,278.8015138953924L819.91,264.52478474378586L819.91,281.7415949553251L819.91,278.52186119556427L819.91,268.13539235293865L819.91,305.2334054969251L819.91,294.66255182772875L822.2066666666667,292.3506234437227L822.2066666666667,258.80847765505314L824.5033333333334,281.5633219331503L824.5033333333334,251.73011241853237L829.0966666666667,265.65402714908123L829.0966666666667,269.9216507971287L829.0966666666667,254.94379891455173L829.0966666666667,246.9693121165037L831.3933333333334,280.07285526394844L831.3933333333334,294.1959541887045L833.6899999999999,257.71461917459965L833.6899999999999,261.46727880835533L840.5799999999999,266.275721848011L842.8766666666667,268.2761535644531L845.1733333333333,270.9670685827732L849.7666666666667,257.40440940856934L852.0633333333333,277.9438311830163L852.0633333333333,268.1337182074785L852.0633333333333,267.3578300178051L856.6566666666668,276.32434970140457L856.6566666666668,289.3773684874177L856.6566666666668,275.1550960019231L856.6566666666668,260.6271003037691L858.9533333333333,178.0399636030197L861.25,272.1394867300987L863.5466666666667,277.86382815241814L863.5466666666667,277.5164038538933L863.5466666666667,246.66425777971745L865.8433333333332,279.9481431618333L865.8433333333332,267.1089064925909L868.14,297.7976825684309L868.14,285.17406253516674L870.4366666666667,261.1604251563549L870.4366666666667,262.03757567703724L875.03,239.11959609389302L875.03,270.6746876835823L877.3266666666667,298.52942103892565L877.3266666666667,290.06042374670506L877.3266666666667,286.29002521187067L879.6233333333333,288.4329548701644L879.6233333333333,288.62041613459587L881.9200000000001,281.584855042398L884.2166666666667,278.604660987854L886.5133333333333,284.85146487504244L886.5133333333333,275.9640994146466L888.8100000000001,287.3001998886466L891.1066666666666,277.43834095448256L895.7,293.99774397164583L897.9966666666666,244.35596323013306L897.9966666666666,266.4926723241806L900.2933333333333,248.18654103577137L900.2933333333333,280.85292099416256L900.2933333333333,265.52414005994797L902.59,241.58394603431222L902.59,271.73305662721395L902.59,283.34546933323145L904.8866666666667,283.55195640027523L907.1833333333333,268.99318067729473L907.1833333333333,280.2540658637881L907.1833333333333,273.4589441344142L907.1833333333333,290.05299570411444L909.48,298.31304947286844L911.7766666666666,299.04796412587166L914.0733333333334,284.2229992747307L918.6666666666666,272.7965692654252L918.6666666666666,290.8898220062256L920.9633333333334,297.4536378532648L920.9633333333334,273.3120104894042L923.2600000000001,311.47874841839075L923.2600000000001,290.01127114892006L923.2600000000001,276.58025535196066L925.5566666666666,264.7117179483175L927.8533333333334,292.0322932898998L930.1500000000001,259.21859635412693L930.1500000000001,298.229635566473L930.1500000000001,277.23096987605095L934.7433333333333,221.7229247689247L934.7433333333333,291.715512111783L934.7433333333333,285.68313574790955L937.0400000000001,295.9850641563535L937.0400000000001,306.5452412366867L937.0400000000001,287.779811270535L939.3366666666666,277.8081823736429L941.6333333333333,283.8603355586529L941.6333333333333,279.83390229195356L943.9300000000001,283.3816668614745L943.9300000000001,284.6570958048105L946.2266666666667,256.1871570199728L946.2266666666667,285.07014425843954L948.5233333333333,301.1971796527505L948.5233333333333,301.8417960628867L950.8199999999999,294.75405482947826L953.1166666666667,296.911950096488L957.7099999999999,284.2494179159403L962.3033333333334,272.2229710444808L964.5999999999999,304.15781593322754L966.8966666666666,296.7256231829524L969.1933333333334,307.57588116824627L969.1933333333334,304.47354490309954L969.1933333333334,285.7883878648281L971.4899999999999,278.35492777079344L971.4899999999999,279.7909495085478L973.7866666666666,273.62144185602665L973.7866666666666,269.2017056643963L973.7866666666666,295.34749636799097L976.0833333333334,291.16214836388826L976.0833333333334,297.5706520155072L976.0833333333334,290.8154007643461L978.38,285.14838317781687L978.38,274.7983778491616L978.38,294.8820409029722L980.6766666666666,291.8975089341402L980.6766666666666,284.6212972551584L980.6766666666666,306.474314969033L980.6766666666666,288.2019423544407L982.9733333333334,277.64600148797035L982.9733333333334,289.9234645664692L985.27,275.81711883097887L989.8633333333333,299.2388362661004L989.8633333333333,288.79878694564104L989.8633333333333,260.850457906723L992.16,274.3543850854039L994.4566666666667,271.44851057231426L994.4566666666667,287.6265409067273L994.4566666666667,264.38137932121754L996.7533333333334,282.2270736694336L996.7533333333334,281.4828768968582L996.7533333333334,293.4431832879782L996.7533333333334,274.350379653275L996.7533333333334,280.29232869297266L996.7533333333334,284.45187216997147L999.05,290.37758825719357L999.05,279.3449774980545L1001.3466666666667,296.99054887890816L1001.3466666666667,307.6998637653887L1001.3466666666667,302.01258236914873L1001.3466666666667,290.3425055220723L1005.9399999999999,281.2486725524068L1005.9399999999999,291.0295388326049L1008.2366666666667,271.98636500537395L1008.2366666666667,280.84636913985014L1010.5333333333333,296.7686698436737L1010.5333333333333,285.93614684790373L1012.8299999999999,294.78085289150476L1012.8299999999999,290.1511796414852L1015.1266666666667,295.3275083228946L1015.1266666666667,306.536735560745L1017.4233333333333,289.34687009453773L1017.4233333333333,287.8656151369214L1019.72,304.73300028964877L1022.0166666666667,257.6228384524584L1024.3133333333333,301.0186210870743L1024.3133333333333,302.2908425554633L1026.61,302.7922491207719L1026.61,278.83907264471054L1028.9066666666668,305.77708227932453L1028.9066666666668,271.00229213386774L1033.5,252.52422845363617L1033.5,284.85304123163223L1038.0933333333332,281.0685493648052L1038.0933333333332,293.94020891189575L1040.39,295.24400836229324L1042.6866666666667,274.8051135465503L1042.6866666666667,283.51160480082035L1044.9833333333333,295.21578258275986L1044.9833333333333,286.259374268353L1047.28,279.9006255939603L1047.28,256.9559340029955L1049.5766666666668,287.63773968815804L1049.5766666666668,295.5723794773221L1051.8733333333332,300.3621291965246L1051.8733333333332,270.21516604721546L1051.8733333333332,274.6045368388295L1054.17,290.7680826857686L1054.17,268.2382505983114L1056.4666666666667,290.96660582721233L1056.4666666666667,312.3412384316325L1056.4666666666667,294.704824000597L1058.7633333333333,275.50676042586565L1061.06,301.74148032814264L1061.06,300.5265396684408L1061.06,306.40576497092843L1061.06,286.0672934576869L1063.3566666666666,292.30311369895935L1063.3566666666666,288.81840339303017L1063.3566666666666,292.7051511257887L1065.6533333333334,284.52674324065447L1065.6533333333334,266.62653355300426L1067.95,287.4556450769305L1067.95,269.49220119416714L1067.95,282.6436190530658L1070.2466666666667,261.84219351410866L1070.2466666666667,289.2445829361677L1072.5433333333333,300.1328925266862L1074.8400000000001,272.7784470319748L1074.8400000000001,295.3182574957609L1074.8400000000001,290.9276193603873L1077.1366666666665,294.50462280213833L1077.1366666666665,263.90840193629265L1077.1366666666665,244.69170762598515L1079.4333333333334,252.56814739108086L1081.73,294.1595219671726L1081.73,266.8428894728422L1084.0266666666666,261.6374940276146L1088.6200000000001,301.09734112769365L1088.6200000000001,298.9009796306491L1088.6200000000001,260.4669456034899L1088.6200000000001,279.58818233013153L1088.6200000000001,277.8278809636831L1090.9166666666665,299.6778652667999L1090.9166666666665,287.481144502759L1090.9166666666665,285.98115710914135L1093.2133333333334,289.79293989390135L1095.51,274.25277853757143L1095.51,267.5838161855936L1095.51,297.438730917871L1095.51,285.21451192349195L1097.8066666666666,286.9290363639593L1097.8066666666666,295.7480082884431L1104.6966666666667,275.06279895454645L1104.6966666666667,295.80384573340416L1104.6966666666667,280.5344304665923L1104.6966666666667,285.5819790288806L1104.6966666666667,280.41743195056915L1104.6966666666667,271.62934175133705L1106.9933333333333,275.25801683217287L1109.29,293.0957902818918L1111.5866666666666,265.312039911747L1113.8833333333334,278.9605655372143L1113.8833333333334,297.9232004508376L1113.8833333333334,276.9734604880214L1113.8833333333334,293.92028345167637L1116.18,270.9159328266978L1116.18,285.03551526367664L1118.4766666666667,297.56049370765686L1118.4766666666667,302.63261465728283L1118.4766666666667,296.315035097301L1118.4766666666667,293.3248079046607L1120.7733333333333,305.0154223702848L1120.7733333333333,276.6252773478627L1120.7733333333333,293.8350545838475L1120.7733333333333,259.32125902175903L1120.7733333333333,286.050313398242L1123.07,278.65312124043703L1123.07,300.1411302611232L1125.3666666666666,294.17919317632914L1125.3666666666666,284.46282452344894L1125.3666666666666,290.204822704196L1125.3666666666666,296.32492350786924L1127.6633333333334,302.5215577930212L1127.6633333333334,298.56694849580526L1129.96,302.01255498826504L1129.96,304.01994536072016L1129.96,302.71295017004013L1132.2566666666667,303.905000410974L1132.2566666666667,277.3250505924225L1134.5533333333333,290.44047432392836L1134.5533333333333,285.483497813344L1136.85,299.07514160871506L1136.85,300.9781560525298L1136.85,279.15313920378685L1136.85,301.6699223443866L1139.1466666666668,291.6743586435914L1141.4433333333334,302.48585703223944L1141.4433333333334,304.3647371828556L1143.74,294.41923747211695L1143.74,300.7182058542967L1146.0366666666666,275.6665161475539L1146.0366666666666,300.34331461787224L1150.6299999999999,296.6486476957798L1150.6299999999999,297.2878426909447L1152.9266666666667,299.2606079801917L1152.9266666666667,289.21589950472116L1152.9266666666667,295.79723911732435L1155.2233333333334,305.16193747892976L1157.52,287.6771564260125L1159.8166666666666,276.6398830935359L1162.1133333333335,301.49980100244284L1162.1133333333335,303.7225146442652L1164.4099999999999,272.48204896599054L1164.4099999999999,289.67882810533047L1166.7066666666667,306.157999265939L1166.7066666666667,289.75425461679697L1169.0033333333333,274.67596574127674L1169.0033333333333,257.4481718838215L1169.0033333333333,295.3988785520196L1169.0033333333333,296.5306399986148L1171.3,309.12503485009074L1173.5966666666666,272.8068918585777L1173.5966666666666,297.52849718928337L1175.8933333333334,279.94544418901205L1175.8933333333334,275.923176728189L1175.8933333333334,300.185256510973L1178.19,310.75953279063106L1180.4866666666667,308.4718267098069L1182.7833333333333,301.757654607296L1185.08,302.53957441449165L1187.3766666666668,292.282265111804L1187.3766666666668,272.53091210871935L1187.3766666666668,303.99560179933906L1189.6733333333332,288.276199311018L1191.97,289.213157504797L1191.97,295.4605676829815L1194.2666666666667,301.2299193665385L1194.2666666666667,284.46559781581163L1194.2666666666667,290.5130454003811L1196.5633333333333,301.18083717674017L1196.5633333333333,299.98899033665657L1196.5633333333333,293.30250030755997L1198.86,281.67733984440565L1203.4533333333334,297.29128485918045L1203.4533333333334,292.5334064885974L1203.4533333333334,280.87484134733677L1203.4533333333334,307.0632895119488L1205.75,291.20034469664097L1205.75,288.97918394207954L1208.0466666666666,296.1996833458543L1208.0466666666666,289.97929418832064L1208.0466666666666,273.8384431824088L1210.3433333333332,304.3631647378206L1210.3433333333332,295.48410741984844L1217.2333333333333,299.71468864381313L1217.2333333333333,239.74708771705627L1219.53,279.5276001691818L1219.53,288.5821650400758L1221.8266666666668,291.61773497611284L1221.8266666666668,301.7108724117279L1224.1233333333332,297.5321818739176L1228.7166666666667,288.6735467836261L1228.7166666666667,245.82737280428407L1233.31,298.7524031326175L1233.31,295.67687275260687L1235.6066666666666,276.2098584920168L1235.6066666666666,277.5158327668905L1235.6066666666666,172.76798567175865L1240.2,299.4718084707856L1240.2,305.81472708284855L1240.2,307.98103414848447L1242.4966666666667,292.3253156840801L1242.4966666666667,292.77031371742487L1242.4966666666667,301.16669299453497L1244.7933333333333,298.1105756610632L1247.0900000000001,297.93317882716656L1249.3866666666665,299.0081444978714L1249.3866666666665,290.8304367810488L1249.3866666666665,296.96065677702427L1249.3866666666665,279.5890233144164L1249.3866666666665,272.5549173206091L1251.6833333333334,300.06516395509243L1251.6833333333334,306.2216754667461L1251.6833333333334,304.4567956253886L1253.98,290.8629770055413L1253.98,288.2873668000102L1256.2766666666666,289.8885382935405L1260.8700000000001,286.8290022611618L1260.8700000000001,292.31065126508474L1263.1666666666665,285.4178306311369L1263.1666666666665,306.3214709647" style="fill: none;" fill="none"></path></g></g></g></g></g></g><g transform="translate(70, 378)" clip-path="url(#clip_1)"><clipPath id="clip_1"><rect width="1378" height="22"></rect></clipPath><g><g><line x1="0" y1="0" x2="0" y2="5" style="visibility: inherit;" fill="rgb(0, 0, 0)" stroke="rgb(204, 204, 204)" stroke-width="1px"></line><line x1="114.83333333333333" y1="0" x2="114.83333333333333" y2="5" style="visibility: inherit;" fill="rgb(0, 0, 0)" stroke="rgb(204, 204, 204)" stroke-width="1px"></line><line x1="229.66666666666666" y1="0" x2="229.66666666666666" y2="5" style="visibility: inherit;" fill="rgb(0, 0, 0)" stroke="rgb(204, 204, 204)" stroke-width="1px"></line><line x1="344.5" y1="0" x2="344.5" y2="5" style="visibility: inherit;" fill="rgb(0, 0, 0)" stroke="rgb(204, 204, 204)" stroke-width="1px"></line><line x1="459.3333333333333" y1="0" x2="459.3333333333333" y2="5" style="visibility: inherit;" fill="rgb(0, 0, 0)" stroke="rgb(204, 204, 204)" stroke-width="1px"></line><line x1="574.1666666666667" y1="0" x2="574.1666666666667" y2="5" style="visibility: inherit;" fill="rgb(0, 0, 0)" stroke="rgb(204, 204, 204)" stroke-width="1px"></line><line x1="689" y1="0" x2="689" y2="5" style="visibility: inherit;" fill="rgb(0, 0, 0)" stroke="rgb(204, 204, 204)" stroke-width="1px"></line><line x1="803.8333333333334" y1="0" x2="803.8333333333334" y2="5" style="visibility: inherit;" fill="rgb(0, 0, 0)" stroke="rgb(204, 204, 204)" stroke-width="1px"></line><line x1="918.6666666666666" y1="0" x2="918.6666666666666" y2="5" style="visibility: inherit;" fill="rgb(0, 0, 0)" stroke="rgb(204, 204, 204)" stroke-width="1px"></line><line x1="1033.5" y1="0" x2="1033.5" y2="5" style="visibility: inherit;" fill="rgb(0, 0, 0)" stroke="rgb(204, 204, 204)" stroke-width="1px"></line><line x1="1148.3333333333335" y1="0" x2="1148.3333333333335" y2="5" style="visibility: inherit;" fill="rgb(0, 0, 0)" stroke="rgb(204, 204, 204)" stroke-width="1px"></line><line x1="1263.1666666666665" y1="0" x2="1263.1666666666665" y2="5" style="visibility: inherit;" fill="rgb(0, 0, 0)" stroke="rgb(204, 204, 204)" stroke-width="1px"></line><line x1="1378" y1="0" x2="1378" y2="5" style="visibility: inherit;" fill="rgb(0, 0, 0)" stroke="rgb(204, 204, 204)" stroke-width="1px"></line></g><g transform="translate(0, 8)"><text x="0" y="0" dx="0em" dy="0.95em" style="text-anchor: middle; visibility: hidden; font-family: &quot;Helvetica Neue&quot;, sans-serif; font-size: 12px; font-weight: 200;" fill="rgb(50, 49, 63)" stroke="none" stroke-width="1px">-50</text><text x="114.83333333333333" y="0" dx="0em" dy="0.95em" style="text-anchor: middle; visibility: inherit; font-family: &quot;Helvetica Neue&quot;, sans-serif; font-size: 12px; font-weight: 200;" fill="rgb(50, 49, 63)" stroke="none" stroke-width="1px">0</text><text x="229.66666666666666" y="0" dx="0em" dy="0.95em" style="text-anchor: middle; visibility: inherit; font-family: &quot;Helvetica Neue&quot;, sans-serif; font-size: 12px; font-weight: 200;" fill="rgb(50, 49, 63)" stroke="none" stroke-width="1px">50</text><text x="344.5" y="0" dx="0em" dy="0.95em" style="text-anchor: middle; visibility: inherit; font-family: &quot;Helvetica Neue&quot;, sans-serif; font-size: 12px; font-weight: 200;" fill="rgb(50, 49, 63)" stroke="none" stroke-width="1px">100</text><text x="459.3333333333333" y="0" dx="0em" dy="0.95em" style="text-anchor: middle; visibility: inherit; font-family: &quot;Helvetica Neue&quot;, sans-serif; font-size: 12px; font-weight: 200;" fill="rgb(50, 49, 63)" stroke="none" stroke-width="1px">150</text><text x="574.1666666666667" y="0" dx="0em" dy="0.95em" style="text-anchor: middle; visibility: inherit; font-family: &quot;Helvetica Neue&quot;, sans-serif; font-size: 12px; font-weight: 200;" fill="rgb(50, 49, 63)" stroke="none" stroke-width="1px">200</text><text x="689" y="0" dx="0em" dy="0.95em" style="text-anchor: middle; visibility: inherit; font-family: &quot;Helvetica Neue&quot;, sans-serif; font-size: 12px; font-weight: 200;" fill="rgb(50, 49, 63)" stroke="none" stroke-width="1px">250</text><text x="803.8333333333334" y="0" dx="0em" dy="0.95em" style="text-anchor: middle; visibility: inherit; font-family: &quot;Helvetica Neue&quot;, sans-serif; font-size: 12px; font-weight: 200;" fill="rgb(50, 49, 63)" stroke="none" stroke-width="1px">300</text><text x="918.6666666666666" y="0" dx="0em" dy="0.95em" style="text-anchor: middle; visibility: inherit; font-family: &quot;Helvetica Neue&quot;, sans-serif; font-size: 12px; font-weight: 200;" fill="rgb(50, 49, 63)" stroke="none" stroke-width="1px">350</text><text x="1033.5" y="0" dx="0em" dy="0.95em" style="text-anchor: middle; visibility: inherit; font-family: &quot;Helvetica Neue&quot;, sans-serif; font-size: 12px; font-weight: 200;" fill="rgb(50, 49, 63)" stroke="none" stroke-width="1px">400</text><text x="1148.3333333333335" y="0" dx="0em" dy="0.95em" style="text-anchor: middle; visibility: inherit; font-family: &quot;Helvetica Neue&quot;, sans-serif; font-size: 12px; font-weight: 200;" fill="rgb(50, 49, 63)" stroke="none" stroke-width="1px">450</text><text x="1263.1666666666665" y="0" dx="0em" dy="0.95em" style="text-anchor: middle; visibility: inherit; font-family: &quot;Helvetica Neue&quot;, sans-serif; font-size: 12px; font-weight: 200;" fill="rgb(50, 49, 63)" stroke="none" stroke-width="1px">500</text><text x="1378" y="0" dx="0em" dy="0.95em" style="text-anchor: middle; visibility: hidden; font-family: &quot;Helvetica Neue&quot;, sans-serif; font-size: 12px; font-weight: 200;" fill="rgb(50, 49, 63)" stroke="none" stroke-width="1px">550</text></g><line x1="0" y1="0" x2="1378" y2="0" fill="rgb(0, 0, 0)" stroke="rgb(204, 204, 204)" stroke-width="1px"></line></g></g></g></g></svg>