<svg viewBox="0 0 1448 400" xmlns="http://www.w3.org/2000/svg"><g><g><g><g><g><line x1="70" y1="378" x2="65" y2="378" style="visibility: inherit;" fill="rgb(0, 0, 0)" stroke="rgb(204, 204, 204)" stroke-width="1px"></line><line x1="70" y1="348.9230769230769" x2="65" y2="348.9230769230769" style="visibility: inherit;" fill="rgb(0, 0, 0)" stroke="rgb(204, 204, 204)" stroke-width="1px"></line><line x1="70" y1="319.8461538461538" x2="65" y2="319.8461538461538" style="visibility: inherit;" fill="rgb(0, 0, 0)" stroke="rgb(204, 204, 204)" stroke-width="1px"></line><line x1="70" y1="290.7692307692308" x2="65" y2="290.7692307692308" style="visibility: inherit;" fill="rgb(0, 0, 0)" stroke="rgb(204, 204, 204)" stroke-width="1px"></line><line x1="70" y1="261.6923076923077" x2="65" y2="261.6923076923077" style="visibility: inherit;" fill="rgb(0, 0, 0)" stroke="rgb(204, 204, 204)" stroke-width="1px"></line><line x1="70" y1="232.6153846153846" x2="65" y2="232.6153846153846" style="visibility: inherit;" fill="rgb(0, 0, 0)" stroke="rgb(204, 204, 204)" stroke-width="1px"></line><line x1="70" y1="203.53846153846152" x2="65" y2="203.53846153846152" style="visibility: inherit;" fill="rgb(0, 0, 0)" stroke="rgb(204, 204, 204)" stroke-width="1px"></line><line x1="70" y1="174.46153846153848" x2="65" y2="174.46153846153848" style="visibility: inherit;" fill="rgb(0, 0, 0)" stroke="rgb(204, 204, 204)" stroke-width="1px"></line><line x1="70" y1="145.38461538461536" x2="65" y2="145.38461538461536" style="visibility: inherit;" fill="rgb(0, 0, 0)" stroke="rgb(204, 204, 204)" stroke-width="1px"></line><line x1="70" y1="116.30769230769232" x2="65" y2="116.30769230769232" style="visibility: inherit;" fill="rgb(0, 0, 0)" stroke="rgb(204, 204, 204)" stroke-width="1px"></line><line x1="70" y1="87.23076923076928" x2="65" y2="87.23076923076928" style="visibility: inherit;" fill="rgb(0, 0, 0)" stroke="rgb(204, 204, 204)" stroke-width="1px"></line><line x1="70" y1="58.15384615384613" x2="65" y2="58.15384615384613" style="visibility: inherit;" fill="rgb(0, 0, 0)" stroke="rgb(204, 204, 204)" stroke-width="1px"></line><line x1="70" y1="29.076923076923094" x2="65" y2="29.076923076923094" style="visibility: inherit;" fill="rgb(0, 0, 0)" stroke="rgb(204, 204, 204)" stroke-width="1px"></line><line x1="70" y1="0" x2="65" y2="0" style="visibility: inherit;" fill="rgb(0, 0, 0)" stroke="rgb(204, 204, 204)" stroke-width="1px"></line></g><g transform="translate(60, 0)"><text x="0" y="378" dx="0em" dy="0.3em" style="text-anchor: end; visibility: hidden; font-family: &quot;Helvetica Neue&quot;, sans-serif; font-size: 12px; font-weight: 200;" fill="rgb(50, 49, 63)" stroke="none" stroke-width="1px">-5e-3</text><text x="0" y="348.9230769230769" dx="0em" dy="0.3em" style="text-anchor: end; visibility: inherit; font-family: &quot;Helvetica Neue&quot;, sans-serif; font-size: 12px; font-weight: 200;" fill="rgb(50, 49, 63)" stroke="none" stroke-width="1px">0</text><text x="0" y="319.8461538461538" dx="0em" dy="0.3em" style="text-anchor: end; visibility: inherit; font-family: &quot;Helvetica Neue&quot;, sans-serif; font-size: 12px; font-weight: 200;" fill="rgb(50, 49, 63)" stroke="none" stroke-width="1px">5e-3</text><text x="0" y="290.7692307692308" dx="0em" dy="0.3em" style="text-anchor: end; visibility: inherit; font-family: &quot;Helvetica Neue&quot;, sans-serif; font-size: 12px; font-weight: 200;" fill="rgb(50, 49, 63)" stroke="none" stroke-width="1px">0.01</text><text x="0" y="261.6923076923077" dx="0em" dy="0.3em" style="text-anchor: end; visibility: inherit; font-family: &quot;Helvetica Neue&quot;, sans-serif; font-size: 12px; font-weight: 200;" fill="rgb(50, 49, 63)" stroke="none" stroke-width="1px">0.015</text><text x="0" y="232.6153846153846" dx="0em" dy="0.3em" style="text-anchor: end; visibility: inherit; font-family: &quot;Helvetica Neue&quot;, sans-serif; font-size: 12px; font-weight: 200;" fill="rgb(50, 49, 63)" stroke="none" stroke-width="1px">0.02</text><text x="0" y="203.53846153846152" dx="0em" dy="0.3em" style="text-anchor: end; visibility: inherit; font-family: &quot;Helvetica Neue&quot;, sans-serif; font-size: 12px; font-weight: 200;" fill="rgb(50, 49, 63)" stroke="none" stroke-width="1px">0.025</text><text x="0" y="174.46153846153848" dx="0em" dy="0.3em" style="text-anchor: end; visibility: inherit; font-family: &quot;Helvetica Neue&quot;, sans-serif; font-size: 12px; font-weight: 200;" fill="rgb(50, 49, 63)" stroke="none" stroke-width="1px">0.03</text><text x="0" y="145.38461538461536" dx="0em" dy="0.3em" style="text-anchor: end; visibility: inherit; font-family: &quot;Helvetica Neue&quot;, sans-serif; font-size: 12px; font-weight: 200;" fill="rgb(50, 49, 63)" stroke="none" stroke-width="1px">0.035</text><text x="0" y="116.30769230769232" dx="0em" dy="0.3em" style="text-anchor: end; visibility: inherit; font-family: &quot;Helvetica Neue&quot;, sans-serif; font-size: 12px; font-weight: 200;" fill="rgb(50, 49, 63)" stroke="none" stroke-width="1px">0.04</text><text x="0" y="87.23076923076928" dx="0em" dy="0.3em" style="text-anchor: end; visibility: inherit; font-family: &quot;Helvetica Neue&quot;, sans-serif; font-size: 12px; font-weight: 200;" fill="rgb(50, 49, 63)" stroke="none" stroke-width="1px">0.045</text><text x="0" y="58.15384615384613" dx="0em" dy="0.3em" style="text-anchor: end; visibility: inherit; font-family: &quot;Helvetica Neue&quot;, sans-serif; font-size: 12px; font-weight: 200;" fill="rgb(50, 49, 63)" stroke="none" stroke-width="1px">0.05</text><text x="0" y="29.076923076923094" dx="0em" dy="0.3em" style="text-anchor: end; visibility: inherit; font-family: &quot;Helvetica Neue&quot;, sans-serif; font-size: 12px; font-weight: 200;" fill="rgb(50, 49, 63)" stroke="none" stroke-width="1px">0.055</text><text x="0" y="0" dx="0em" dy="0.3em" style="text-anchor: end; visibility: hidden; font-family: &quot;Helvetica Neue&quot;, sans-serif; font-size: 12px; font-weight: 200;" fill="rgb(50, 49, 63)" stroke="none" stroke-width="1px">0.06</text></g><line x1="70" y1="0" x2="70" y2="378" fill="rgb(0, 0, 0)" stroke="rgb(204, 204, 204)" stroke-width="1px"></line></g></g><g transform="translate(70, 0)" clip-path="url(#clip_0)"><clipPath id="clip_0"><rect width="1378" height="378"></rect></clipPath><g><g><g><line x1="0" y1="0" x2="0" y2="378" fill="rgb(0, 0, 0)" stroke="rgb(60, 60, 60)" stroke-width="1px" opacity="0.25"></line><line x1="114.83333333333333" y1="0" x2="114.83333333333333" y2="378" fill="rgb(0, 0, 0)" stroke="rgb(60, 60, 60)" stroke-width="1px" opacity="0.25"></line><line x1="229.66666666666666" y1="0" x2="229.66666666666666" y2="378" fill="rgb(0, 0, 0)" stroke="rgb(60, 60, 60)" stroke-width="1px" opacity="0.25"></line><line x1="344.5" y1="0" x2="344.5" y2="378" fill="rgb(0, 0, 0)" stroke="rgb(60, 60, 60)" stroke-width="1px" opacity="0.25"></line><line x1="459.3333333333333" y1="0" x2="459.3333333333333" y2="378" fill="rgb(0, 0, 0)" stroke="rgb(60, 60, 60)" stroke-width="1px" opacity="0.25"></line><line x1="574.1666666666667" y1="0" x2="574.1666666666667" y2="378" fill="rgb(0, 0, 0)" stroke="rgb(60, 60, 60)" stroke-width="1px" opacity="0.25"></line><line x1="689" y1="0" x2="689" y2="378" fill="rgb(0, 0, 0)" stroke="rgb(60, 60, 60)" stroke-width="1px" opacity="0.25"></line><line x1="803.8333333333334" y1="0" x2="803.8333333333334" y2="378" fill="rgb(0, 0, 0)" stroke="rgb(60, 60, 60)" stroke-width="1px" opacity="0.25"></line><line x1="918.6666666666666" y1="0" x2="918.6666666666666" y2="378" fill="rgb(0, 0, 0)" stroke="rgb(60, 60, 60)" stroke-width="1px" opacity="0.25"></line><line x1="1033.5" y1="0" x2="1033.5" y2="378" fill="rgb(0, 0, 0)" stroke="rgb(60, 60, 60)" stroke-width="1px" opacity="0.25"></line><line x1="1148.3333333333335" y1="0" x2="1148.3333333333335" y2="378" fill="rgb(0, 0, 0)" stroke="rgb(60, 60, 60)" stroke-width="1px" opacity="0.25"></line><line x1="1263.1666666666665" y1="0" x2="1263.1666666666665" y2="378" fill="rgb(0, 0, 0)" stroke="rgb(60, 60, 60)" stroke-width="1px" opacity="0.25"></line><line x1="1378" y1="0" x2="1378" y2="378" fill="rgb(0, 0, 0)" stroke="rgb(60, 60, 60)" stroke-width="1px" opacity="0.25"></line></g><g><line x1="0" y1="378" x2="1378" y2="378" fill="rgb(0, 0, 0)" stroke="rgb(60, 60, 60)" stroke-width="1px" opacity="0.25"></line><line x1="0" y1="348.9230769230769" x2="1378" y2="348.9230769230769" fill="rgb(0, 0, 0)" stroke="rgb(60, 60, 60)" stroke-width="1px" opacity="0.25"></line><line x1="0" y1="319.8461538461538" x2="1378" y2="319.8461538461538" fill="rgb(0, 0, 0)" stroke="rgb(60, 60, 60)" stroke-width="1px" opacity="0.25"></line><line x1="0" y1="290.7692307692308" x2="1378" y2="290.7692307692308" fill="rgb(0, 0, 0)" stroke="rgb(60, 60, 60)" stroke-width="1px" opacity="0.25"></line><line x1="0" y1="261.6923076923077" x2="1378" y2="261.6923076923077" fill="rgb(0, 0, 0)" stroke="rgb(60, 60, 60)" stroke-width="1px" opacity="0.25"></line><line x1="0" y1="232.6153846153846" x2="1378" y2="232.6153846153846" fill="rgb(0, 0, 0)" stroke="rgb(60, 60, 60)" stroke-width="1px" opacity="0.25"></line><line x1="0" y1="203.53846153846152" x2="1378" y2="203.53846153846152" fill="rgb(0, 0, 0)" stroke="rgb(60, 60, 60)" stroke-width="1px" opacity="0.25"></line><line x1="0" y1="174.46153846153848" x2="1378" y2="174.46153846153848" fill="rgb(0, 0, 0)" stroke="rgb(60, 60, 60)" stroke-width="1px" opacity="0.25"></line><line x1="0" y1="145.38461538461536" x2="1378" y2="145.38461538461536" fill="rgb(0, 0, 0)" stroke="rgb(60, 60, 60)" stroke-width="1px" opacity="0.25"></line><line x1="0" y1="116.30769230769232" x2="1378" y2="116.30769230769232" fill="rgb(0, 0, 0)" stroke="rgb(60, 60, 60)" stroke-width="1px" opacity="0.25"></line><line x1="0" y1="87.23076923076928" x2="1378" y2="87.23076923076928" fill="rgb(0, 0, 0)" stroke="rgb(60, 60, 60)" stroke-width="1px" opacity="0.25"></line><line x1="0" y1="58.15384615384613" x2="1378" y2="58.15384615384613" fill="rgb(0, 0, 0)" stroke="rgb(60, 60, 60)" stroke-width="1px" opacity="0.25"></line><line x1="0" y1="29.076923076923094" x2="1378" y2="29.076923076923094" fill="rgb(0, 0, 0)" stroke="rgb(60, 60, 60)" stroke-width="1px" opacity="0.25"></line><line x1="0" y1="0" x2="1378" y2="0" fill="rgb(0, 0, 0)" stroke="rgb(60, 60, 60)" stroke-width="1px" opacity="0.25"></line></g></g></g><g><g><line x1="0" y1="348.9230769230769" x2="1378" y2="348.9230769230769" fill="rgb(0, 0, 0)" stroke="rgb(153, 153, 153)" stroke-width="1.5px"></line></g></g><g><g><line x1="114.83333333333333" y1="0" x2="114.83333333333333" y2="378" fill="rgb(0, 0, 0)" stroke="rgb(153, 153, 153)" stroke-width="1.5px"></line></g></g><g><g><g><g><g><path stroke="rgb(255, 112, 67)" stroke-width="2px" d="M149.28333333333333,-3.399373815320587L149.28333333333333,0.22865824875134422L151.58,4.965570196174326L153.87666666666667,10.210125480805118L153.87666666666667,15.006530102358283L153.87666666666667,19.7624250519072L153.87666666666667,23.51268004711983L153.87666666666667,25.723335948097485L156.17333333333332,29.670243579734574L156.17333333333332,34.22899213048652L156.17333333333332,37.00072657739605L163.06333333333333,40.58677483810652L163.06333333333333,44.85259397228663L163.06333333333333,48.41370413314547L165.35999999999999,52.53476314352321L165.35999999999999,56.07175450274377L167.65666666666667,59.07411700505571L167.65666666666667,62.68064200943894L167.65666666666667,65.5452183531221L169.95333333333335,63.456835103930246L169.95333333333335,64.56404876442843L169.95333333333335,67.63427887321978L169.95333333333335,70.0984644377047L169.95333333333335,72.6305065532652L172.25,75.4112238432046L174.54666666666668,78.13858248197886L174.54666666666668,80.94233982761972L174.54666666666668,83.82055934509646L176.84333333333333,86.2374455909927L176.84333333333333,86.85843188403277L179.14000000000001,87.73285658299915L179.14000000000001,86.77956872632376L179.14000000000001,89.0576549265599L179.14000000000001,91.75493473082685L181.43666666666664,92.01251810299237L183.73333333333332,94.45826544614096L186.03,95.90599607932069L186.03,97.97194789863414L186.03,99.95479838526597L186.03,102.20125703996524L186.03,104.31594706315968L188.32666666666665,105.89164070269521L188.32666666666665,107.48129179354885L190.62333333333333,109.07795532518321L190.62333333333333,109.8910403516773L192.92000000000002,110.64988653634754L192.92000000000002,112.99674356704122L192.92000000000002,114.96083175396501L195.21666666666667,116.50620310840111L197.51333333333335,118.23079081646381L197.51333333333335,119.59557975319638L197.51333333333335,120.35884481667432L197.51333333333335,121.4714424754676L199.80999999999997,122.63665131604017L202.10666666666665,124.07883926450714L202.10666666666665,125.99554665104546L202.10666666666665,124.62612127179275L206.7,125.38335258924008L206.7,127.11726639482487L211.29333333333332,128.81938538445957L213.59,130.21166800273292L213.59,131.5620098393033L213.59,132.85045044485278L215.88666666666668,134.31983920248697L218.18333333333334,135.1997696896139L220.48000000000002,135.28613334731142L220.48000000000002,136.39417447596117L222.77666666666664,136.77708389093308L222.77666666666664,137.97553603367822L225.07333333333332,136.95542748497994L227.37,138.2032498140901L227.37,139.59162626709826L229.66666666666666,140.93150886651378L229.66666666666666,141.73991381079344L229.66666666666666,142.34744005781315L231.96333333333334,142.9618446856204L231.96333333333334,143.96969807642134L231.96333333333334,145.28517289145265L231.96333333333334,146.1620436648135L234.26000000000002,146.89068932590325L238.85333333333335,147.79610249923448L238.85333333333335,148.70221425388038L241.14999999999998,149.57940849650703L243.44666666666666,149.82416102500025L243.44666666666666,150.6446922114821L243.44666666666666,151.11172369347256L245.74333333333334,152.18154411215724L245.74333333333334,152.1347762967183L245.74333333333334,152.93932510079577L252.63333333333333,154.0107789652579L252.63333333333333,154.21999607164835L252.63333333333333,154.952202313607L254.93,155.9111652537694L254.93,156.8248225463521L254.93,157.86227055604567L254.93,157.77673451100733L257.2266666666667,158.53897540736378L257.2266666666667,159.3742613239935L259.5233333333333,160.28083978363173L259.5233333333333,161.1579377530063L259.5233333333333,161.81504772077702L259.5233333333333,162.7984870413728L261.82,163.42022509830474L264.1166666666667,163.97076478408695L264.1166666666667,164.71707398675304L264.1166666666667,165.4839475411512L266.41333333333336,166.23437289336115L266.41333333333336,166.18325226394197L268.71000000000004,166.93769928111084L268.71000000000004,167.85387528343446L268.71000000000004,168.58887161973357L271.00666666666666,168.9949156653408L273.30333333333334,169.5031847894736L275.6,169.90091313245335L275.6,170.32097805959077L277.89666666666665,170.69045065676687L277.89666666666665,170.98222456343987L280.1933333333333,171.78485142307005L280.1933333333333,172.5946287538261L282.49,173.04844030120933L282.49,173.44467501552933L282.49,173.88534210632935L282.49,174.74170085158823L284.7866666666667,175.44798312426192L284.7866666666667,175.4973272966361L284.7866666666667,176.20291168723924L287.08333333333337,176.9343242324832L287.08333333333337,177.62471787804236L289.38,178.30296681620888L289.38,178.70883135659275L293.97333333333336,179.51775114087627L293.97333333333336,180.16148271805636L296.27,180.71112449270308L298.56666666666666,181.29197756927934L300.86333333333334,181.96251394003858L300.86333333333334,182.57649533261804L303.16,183.05656896206509L303.16,183.49944124632023L303.16,184.30006546249777L303.16,184.6428748248026L305.4566666666667,185.1908123053389L305.4566666666667,185.65538367337504L310.05,186.3044971388068L310.05,186.81139832966534L310.05,187.2585857031429L310.05,187.6121721079762L312.34666666666664,188.01556047489726L312.34666666666664,188.26862293652746L312.34666666666664,188.4063304103006L316.94,189.03114928726367L323.83,189.4868859228257L323.83,189.91527113286463L326.12666666666667,190.3766862160263L328.42333333333335,190.71014732220902L328.42333333333335,191.22038343962222L333.01666666666665,191.81449638295732L333.01666666666665,192.2893728617861L333.01666666666665,192.6607411031846L333.01666666666665,193.25473705262084L333.01666666666665,193.81433501960223L335.31333333333333,193.75082048853568L335.31333333333333,194.00944687028033L335.31333333333333,194.27805250860774L339.9066666666667,194.75859338132778L339.9066666666667,195.3869774144413L339.9066666666667,195.768022288881L342.2033333333333,196.2707224238884L342.2033333333333,196.73528328228173L342.2033333333333,196.84249706378094L342.2033333333333,196.86042545835434L344.5,197.20481550066896L346.7966666666666,197.54310299187784L346.7966666666666,197.03361717843984L351.39,197.1719013483881L351.39,197.58785048908683L353.68666666666667,197.81894291193083L353.68666666666667,198.29047113637L355.98333333333335,198.91379998253387L355.98333333333335,199.38867710072958L358.28000000000003,199.761432654326L358.28000000000003,200.2003393004251L358.28000000000003,200.526823480728L358.28000000000003,200.80442148896182L358.28000000000003,201.12719180861384L360.57666666666665,201.33731240803675L365.17,201.79365101690303L365.17,202.24118011270838L367.46666666666664,202.57129430035738L367.46666666666664,202.57383097949815L369.7633333333333,202.79738961000447L369.7633333333333,203.02564821555404L372.06,203.49128973315604L374.3566666666667,203.84170911078527L374.3566666666667,204.0695690993088L374.3566666666667,204.5009609509671L374.3566666666667,204.77576506268298L376.6533333333333,204.9737410538245L376.6533333333333,205.29572756931873L376.6533333333333,205.62169961179865L378.95000000000005,205.0961569178812L381.24666666666667,205.34225493362302L381.24666666666667,205.69717413737598L381.24666666666667,205.9642198639815L383.5433333333333,206.23738914856446L385.84000000000003,206.54881956958377L385.84000000000003,206.86857360587658L385.84000000000003,207.0849950292476L385.84000000000003,207.38994946418404L388.13666666666666,207.6244256832425L388.13666666666666,207.9721076029079L388.13666666666666,208.30014868763791L390.43333333333334,208.27531812851987L392.72999999999996,208.71768852749432L392.72999999999996,209.0158544908713L392.72999999999996,209.33348857304196L395.0266666666667,209.0683001512866L395.0266666666667,209.4523826077087L395.0266666666667,209.7483511026221L397.3233333333333,210.14903581452012L401.9166666666667,210.37723212925982L401.9166666666667,210.76086953326515L404.2133333333333,211.12294406999263L404.2133333333333,211.44456158564878L404.2133333333333,211.47371946175033L406.51,211.5161294261815L406.51,211.86114248558604L406.51,212.00399585990132L408.8066666666667,212.23412904609262L411.10333333333335,212.40884697677305L411.10333333333335,212.69508483014906L411.10333333333335,213.05706349712426L411.10333333333335,213.14753095358762L413.4,213.52281677544008L413.4,213.79954536830107L415.6966666666667,214.03504107030153L415.6966666666667,214.2870970680766L415.6966666666667,214.64243394110449L415.6966666666667,214.84137146687706L417.99333333333334,215.15828581511403L420.28999999999996,215.0688045393877L422.58666666666664,215.37421687649808L424.8833333333333,215.3589888465641L429.47666666666663,215.37420930976592L429.47666666666663,215.60506596576144L429.47666666666663,215.6485172483064L429.47666666666663,215.90798388376444L431.77333333333337,216.1197555783755L434.07,216.33478451534984L436.3666666666667,216.10050872761815L436.3666666666667,216.26113983117583L436.3666666666667,216.55262680362262L438.66333333333336,216.8772233730793L438.66333333333336,217.14787942832928L440.96000000000004,217.44900096661607L447.85,217.71124020031795L447.85,217.81746221307242L450.14666666666665,218.11000783512134L452.4433333333333,218.41915759589466L452.4433333333333,218.41365225743087L452.4433333333333,218.65879290091013L454.74,218.99395802018645L459.3333333333333,219.21099208217103L459.3333333333333,219.48790079295688L461.63000000000005,219.67868753150466L463.9266666666667,219.88232234978022L463.9266666666667,220.2074233292783L463.9266666666667,220.4700573774364L466.2233333333333,220.52219411160854L466.2233333333333,220.75072465871386L468.52000000000004,221.00521303563266L468.52000000000004,221.20754823131435L470.81666666666666,221.31234481126845L470.81666666666666,221.38042290577684L470.81666666666666,221.5634842239213L475.40999999999997,221.77853998418323L477.7066666666667,222.01442762698244L480.00333333333333,221.79965735425068L480.00333333333333,221.90582109053065L480.00333333333333,221.89199710155827L482.29999999999995,222.20813344236038L482.29999999999995,222.50227621886557L482.29999999999995,222.7976398309502L482.29999999999995,223.1142353870046L484.5966666666667,223.41477714803267L484.5966666666667,223.65954234334973L486.8933333333333,223.90368819391352L489.19,224.15905134884883L489.19,224.36147237715795L489.19,224.55386494592648L491.4866666666667,224.8048954692475L491.4866666666667,224.96808933632187L491.4866666666667,225.14298897292684L493.78333333333336,225.39637851538816L493.78333333333336,225.45441403266264L493.78333333333336,225.68864104782617L493.78333333333336,225.89984282301694L498.3766666666667,226.1484999191452L498.3766666666667,226.38264687687547L500.67333333333335,226.55041391693265L502.96999999999997,226.53158001831767L505.26666666666665,226.72611886963554L505.26666666666665,226.816571579134L505.26666666666665,226.93764097446783L505.26666666666665,227.0960184958935L507.56333333333333,227.31813536866744L509.86,227.55027674237533L509.86,227.68428380607145L512.1566666666666,227.9091622492783L512.1566666666666,228.10244777323717L514.4533333333334,228.29523448116566L514.4533333333334,228.4918109108112L516.75,228.72404560359215L516.75,228.91152563731578L516.75,229.10665489561256L519.0466666666666,229.000804493607L519.0466666666666,229.20079497280562L521.3433333333334,229.4062826817994L521.3433333333334,229.66166867915427L521.3433333333334,229.77064871377334L523.64,230.0471480024044L523.64,230.21414497095782L525.9366666666666,230.4705221821258L525.9366666666666,230.68045073146408L525.9366666666666,230.87078255731328L528.2333333333333,231.01263952059054L528.2333333333333,231.2199461092634L530.53,231.3913306564944L530.53,231.4743088864651L530.53,231.71420620804076L530.53,231.81790437391774L532.8266666666667,232.0268436294552L532.8266666666667,232.25793135333657L532.8266666666667,232.51050083716234L535.1233333333333,232.5204767408588L535.1233333333333,232.73437447067724L537.4200000000001,232.45388907871686L537.4200000000001,232.4773667703802L537.4200000000001,232.69392171469315L539.7166666666667,232.87625480340947L539.7166666666667,232.9541295608049L542.0133333333333,233.09430502857418L542.0133333333333,233.2524263611314L542.0133333333333,233.39582264355394L542.0133333333333,233.32469067414695L546.6066666666667,233.33393642496145L548.9033333333333,233.496002720805L548.9033333333333,233.61686312228105L551.2,233.82818068552155L551.2,233.7418395362535L551.2,233.92540858082822L551.2,234.12509952612L553.4966666666667,234.1743921621824L553.4966666666667,234.2718016857704L553.4966666666667,234.39855198824807L553.4966666666667,234.58613336628193L553.4966666666667,234.6057025489585L558.09,234.79471124015373L558.09,234.96505045931175L560.3866666666667,234.55899174653527L562.6833333333333,234.6809701243264L564.98,234.78321221160718L564.98,234.81993808578616L564.98,234.92381020904762L564.98,235.09841105381278L564.98,235.15035320626333L564.98,235.30131417229762L567.2766666666666,235.50084784319236L567.2766666666666,235.72609238028184L567.2766666666666,235.90456174093416L567.2766666666666,236.04921191766675L569.5733333333334,236.24963432535728L569.5733333333334,236.42408194273963L569.5733333333334,236.62542660946787L571.87,236.7168685335579L571.87,236.83483120947855L574.1666666666667,236.99011288415784L574.1666666666667,237.09290390800163L576.4633333333334,237.25049260303285L578.76,237.45741367984286L581.0566666666667,237.47667744010897L581.0566666666667,237.61706862724972L581.0566666666667,237.59105224181107L583.3533333333334,237.69803619963895L587.9466666666667,237.8726465917514L587.9466666666667,238.0200608289829L587.9466666666667,238.23276071122996L590.2433333333333,238.3873620049566L590.2433333333333,238.45337445676387L592.54,238.63890593342555L594.8366666666666,238.81544985740678L597.1333333333333,238.93426907658673L597.1333333333333,239.11134306087476L599.43,239.3288178877038L599.43,239.5079635755885L601.7266666666667,239.60173912800525L601.7266666666667,239.788948768891L601.7266666666667,239.9317456289118L604.0233333333333,240.05004810987717L604.0233333333333,239.9745566819534L604.0233333333333,240.12133801031695L606.32,240.08307774504593L608.6166666666667,240.16202612030293L610.9133333333334,240.31312034049586L613.21,240.38798141256288L613.21,240.47229035262055L613.21,240.53714787517782L613.21,240.74769704546353L613.21,240.9394606310383L613.21,241.08832693902295L615.5066666666667,241.10042446227305L617.8033333333333,241.2244770116833L617.8033333333333,241.22768671159832L620.1,241.40299232261478L620.1,241.55313104670336L622.3966666666666,241.63081571112826L626.99,241.78955103362475L626.99,241.80017709636874L626.99,241.93469086867879L629.2866666666666,241.9270546019676L629.2866666666666,241.9376251623935L629.2866666666666,241.86231054877067L629.2866666666666,242.0144208174775L631.5833333333333,242.20693754865746L631.5833333333333,242.2317925877063L631.5833333333333,242.32170067229322L631.5833333333333,242.38642353120093L631.5833333333333,242.39442075079265L633.88,242.53854951247976L636.1766666666666,242.70626103888887L636.1766666666666,242.81981553340185L638.4733333333334,242.96716746091522L638.4733333333334,243.08889986960133L640.77,243.25303783892815L643.0666666666667,243.21082755282114L643.0666666666667,243.18389167244723L643.0666666666667,243.29136868717015L645.3633333333333,243.44134663394635L645.3633333333333,243.65525917342407L645.3633333333333,243.8602438124782L647.66,243.99203445059302L647.66,244.15677341744055L649.9566666666667,244.33713094857234L649.9566666666667,244.4307125984886L649.9566666666667,244.5653196843204L649.9566666666667,244.6935130252978L652.2533333333333,244.87664702242878L652.2533333333333,245.00168251854157L654.55,245.0987057137218L654.55,245.23102858945887L656.8466666666667,245.3218493780885L656.8466666666667,245.42670245581985L656.8466666666667,245.56708673473634L661.4399999999999,245.6325636028731L661.4399999999999,245.7484569679228L661.4399999999999,245.84483269048604L666.0333333333333,245.7794535016468L666.0333333333333,245.93070037651574L666.0333333333333,245.95418957361525L668.3299999999999,246.05563056990437L668.3299999999999,246.10738567496372L670.6266666666667,246.21029110609007L670.6266666666667,246.26492685732765L670.6266666666667,246.39375590870915L670.6266666666667,246.4107233237172L672.9233333333333,246.50818977284206L675.22,246.4643493134808L675.22,246.55963378144773L677.5166666666667,246.7014964966624L677.5166666666667,246.87538520993076L682.11,247.0255359873106L682.11,247.15633490803987L682.11,247.1910400681482L684.4066666666666,247.17737734882314L691.2966666666667,247.26314678769958L691.2966666666667,247.34055534872905L691.2966666666667,247.42739794045463L691.2966666666667,247.4820563829541L691.2966666666667,247.59381431727067L693.5933333333332,247.59368473774197L693.5933333333332,247.66366387866898L693.5933333333332,247.77136021608422L695.89,247.93599630024354L695.89,248.07885123824977L695.89,248.21968939111886L698.1866666666667,248.30877926599752L700.4833333333333,248.2092235402512L700.4833333333333,248.3472386852778L702.78,248.33429393265303L702.78,248.11623921065274L702.78,248.24440192229721L705.0766666666667,248.30455509667055L707.3733333333333,248.4359077060426L709.6700000000001,248.55137167234878L709.6700000000001,248.69023361434574L711.9666666666667,248.59759696038714L711.9666666666667,248.57091781708206L711.9666666666667,248.7255004792155L714.2633333333333,248.737185854048L716.5600000000001,248.81420513757433L716.5600000000001,248.9925285459075L718.8566666666666,249.09593408365893L718.8566666666666,249.15512377350205L718.8566666666666,249.23375031939386L721.1533333333333,249.37980286424352L721.1533333333333,249.46387255014355L723.45,249.60650901198338L723.45,249.73111305112366L723.45,249.84902640211598L725.7466666666666,250.00051054871392L725.7466666666666,250.04191971942748L728.0433333333333,250.16807929479813L728.0433333333333,250.29144024350782L730.34,250.42997717234772L730.34,250.5471491032646L730.34,250.67138915466143L732.6366666666667,250.7763464560204L734.9333333333333,250.87111974108097L734.9333333333333,250.94991769153904L737.23,250.9989049423958L737.23,251.06170524937994L739.5266666666666,251.1043921872082L739.5266666666666,251.2400942755422L739.5266666666666,251.38017573484996L739.5266666666666,251.45161321730797L741.8233333333334,251.56126636821878L741.8233333333334,251.68798979844053L741.8233333333334,251.751826213068L744.12,251.81475504285285L746.4166666666666,251.9333516236704L748.7133333333334,251.96407014650714L748.7133333333334,252.06203616147496L751.0100000000001,252.09645435572946L751.0100000000001,252.09162254806137L753.3066666666666,252.16708872491492L753.3066666666666,252.25214871668376L755.6033333333334,252.40342984614136L755.6033333333334,252.4488521269708L755.6033333333334,252.44773254890166L755.6033333333334,252.557137157633L757.9000000000001,252.65067633002326L760.1966666666666,252.78127817439517L764.7900000000001,252.84297726874786L764.7900000000001,252.92868052283154L764.7900000000001,252.98130713507044L767.0866666666666,253.03005952880835L769.3833333333333,253.05338226731857L771.6800000000001,253.11503113292707L771.6800000000001,253.1822975446584L771.6800000000001,253.24481136620682L773.9766666666667,253.26918790078207L776.2733333333333,253.368840087884L778.5699999999999,253.49750202782838L780.8666666666667,253.5436909839966L780.8666666666667,253.57940777582724L783.1633333333334,253.68807509628874L783.1633333333334,253.8128153549036L783.1633333333334,253.61030977795554L785.4599999999999,253.48579534739042L785.4599999999999,253.41168668615188L787.7566666666667,253.57199742061948L787.7566666666667,253.6653048770204L787.7566666666667,253.76355988534328L787.7566666666667,253.89276104219874L790.0533333333334,253.9875293267919L790.0533333333334,254.1001222187138L792.3499999999999,254.15340362473444L792.3499999999999,254.25111741750266L792.3499999999999,254.33038512975833L794.6466666666666,254.30923084606098L796.9433333333334,254.4068679283808L796.9433333333334,254.30471544649635L799.2399999999999,254.36763516149352L799.2399999999999,254.42385684696092L799.2399999999999,254.53611630683258L801.5366666666666,254.62850985949356L801.5366666666666,254.7507685866227L801.5366666666666,254.75707232869016L803.8333333333334,254.84838682181837L803.8333333333334,254.88173121947025L803.8333333333334,254.98791101766824L803.8333333333334,255.0265089911156L808.4266666666666,255.10259365261223L808.4266666666666,255.1987713777108L810.7233333333334,255.2787452545819L810.7233333333334,255.3802522513338L815.3166666666667,255.4263996046899L815.3166666666667,255.4421486552739L815.3166666666667,255.50396143495863L817.6133333333333,255.56950360656674L819.91,255.55870374207487L822.2066666666667,255.66218817901105L824.5033333333334,255.7661649314299L826.8,255.76686471705767L826.8,255.82990135355118L826.8,255.9213929915869L826.8,255.88521822306893L826.8,255.88128938187697L829.0966666666667,255.98657886669042L829.0966666666667,256.0988732194294L831.3933333333334,256.1879725219121L831.3933333333334,256.28996219784915L835.9866666666667,256.3103290686455L835.9866666666667,256.32030947933123L835.9866666666667,256.42927356326516L838.2833333333333,256.4598548757163L838.2833333333333,256.5612844057967L838.2833333333333,256.67501436174706L840.5799999999999,256.631920960861L840.5799999999999,256.5474717895969L842.8766666666667,256.6118523110368L842.8766666666667,256.6208314795357L842.8766666666667,256.58868102605084L845.1733333333333,256.66011160074254L845.1733333333333,256.70075925666407L845.1733333333333,256.7369204969895L847.47,256.78437994984216L852.0633333333333,256.81359826484004L852.0633333333333,256.8493153596097L852.0633333333333,256.92517847827446L854.36,256.99477545199954L856.6566666666668,256.9928972456878L856.6566666666668,257.08857374012473L856.6566666666668,257.19332399011233L858.9533333333333,257.2138241965856L858.9533333333333,257.2659359100156L861.25,257.27729941001394L863.5466666666667,257.26298748617177L865.8433333333332,257.37668283534936L865.8433333333332,257.4736331948661L868.14,257.5391468321932L868.14,257.63494446850575L870.4366666666667,257.6651818916638L870.4366666666667,257.6488971017744L875.03,257.7054320991714L875.03,257.67633987010197L875.03,257.71450680223904L875.03,257.80317530174926L875.03,257.8497579197L879.6233333333333,257.8088409809553L881.9200000000001,257.80973872778867L881.9200000000001,257.79718589407753L881.9200000000001,257.8979467566563L881.9200000000001,257.8239427620022L881.9200000000001,257.79923307034875L881.9200000000001,257.86433729700786L884.2166666666667,257.90563062645697L886.5133333333333,257.9239634128444L886.5133333333333,257.9995295280949L886.5133333333333,257.9776759422757L886.5133333333333,258.0390433019932L888.8100000000001,258.1091707813936L888.8100000000001,258.1887125731476L888.8100000000001,258.2256553078048L895.7,258.3253491237069L895.7,258.1992725352011L895.7,258.26928907192325L897.9966666666666,258.36080932069694L897.9966666666666,258.4418411811261L900.2933333333333,258.4865194515238L902.59,258.57963383968445L904.8866666666667,258.6311430331573L904.8866666666667,258.7071942474772L904.8866666666667,258.7960395278917L904.8866666666667,258.80429271578396L907.1833333333333,258.83783111575826L909.48,258.8308161908056L909.48,258.8809288751948L916.37,258.94503935230966L916.37,258.9944535912014L918.6666666666666,258.9652649048001L918.6666666666666,259.04698171596556L920.9633333333334,259.0710083594071L920.9633333333334,259.17800762517544L920.9633333333334,259.2159656633084L923.2600000000001,259.2180726958138L923.2600000000001,259.29323344086276L923.2600000000001,259.1143335363171L925.5566666666666,259.0569157425171L925.5566666666666,259.1178558776989L932.4466666666666,259.19220021458045L934.7433333333333,259.2386940295259L934.7433333333333,259.3426821310116L934.7433333333333,259.4335359270841L937.0400000000001,259.41378086462294L937.0400000000001,259.50778098159805L937.0400000000001,259.587300545106L939.3366666666666,259.628870850817L939.3366666666666,259.72945119879L943.9300000000001,259.8433033069356L943.9300000000001,259.9182182807152L943.9300000000001,259.85010553500433L943.9300000000001,259.9331743791551L946.2266666666667,259.84399561358873L946.2266666666667,259.88382331826654L948.5233333333333,259.9462859374454L950.8199999999999,260.01145123844174L950.8199999999999,260.04933786606256L950.8199999999999,260.16894288338574L950.8199999999999,260.24069619126345L953.1166666666667,260.2981972900284L957.7099999999999,260.4207629133948L957.7099999999999,260.5261503775249L960.0066666666667,260.34237213068906L960.0066666666667,260.3749254018769L964.5999999999999,260.3339594851304L966.8966666666666,260.38756774323576L966.8966666666666,260.47033539498227L966.8966666666666,260.55597589926145L966.8966666666666,260.65858596541904L966.8966666666666,260.7597342655763L969.1933333333334,260.80858333482746L969.1933333333334,260.89477339384564L971.4899999999999,260.9355150231655L971.4899999999999,260.959508194347L971.4899999999999,261.00084801214547L971.4899999999999,261.116108732046L973.7866666666666,261.20180360267204L973.7866666666666,261.2230288200981L973.7866666666666,261.3012913153708L976.0833333333334,261.3253669699329L978.38,261.3718073984527L978.38,261.39626770794416L978.38,261.4870844852702L980.6766666666666,261.5625201383302L980.6766666666666,261.6281829437214L982.9733333333334,261.7053015140202L982.9733333333334,261.59768990417706L987.5666666666667,261.6436921212206L987.5666666666667,261.6871091078901L989.8633333333333,261.79636852087344L992.16,261.8219939523729L992.16,261.8189949426435L994.4566666666667,261.903820867679L996.7533333333334,261.9879812504786L996.7533333333334,262.0314511245267L999.05,262.0382451192278L999.05,262.0652397436348L1001.3466666666667,262.14490010907963L1005.9399999999999,262.1934038480108L1008.2366666666667,262.25145803689753L1008.2366666666667,262.29082360402816L1010.5333333333333,262.39004053093015L1010.5333333333333,262.467037143779L1010.5333333333333,262.5020710743861L1012.8299999999999,262.5701336036279L1012.8299999999999,262.6489808567222L1012.8299999999999,262.6423889689398L1015.1266666666667,262.71234087357584L1015.1266666666667,262.7001249930349L1015.1266666666667,262.77831747043746L1015.1266666666667,262.8719270063239L1015.1266666666667,262.8935753886481L1019.72,262.92939749576703L1022.0166666666667,263.02959657400413L1024.3133333333333,263.0843803579871L1024.3133333333333,263.1445025469367L1024.3133333333333,263.1783696011101L1024.3133333333333,263.24781664726635L1026.61,263.2988418720003L1026.61,263.4041905065229L1026.61,263.49504525788007L1028.9066666666668,263.53596665510304L1028.9066666666668,263.490643086869L1028.9066666666668,263.52277686423935L1031.2033333333334,263.63087166180077L1031.2033333333334,263.40318869187473L1033.5,263.39849577707514L1033.5,263.4046257595984L1035.7966666666666,263.4752719235694L1038.0933333333332,263.55822110575036L1038.0933333333332,263.53364902660815L1040.39,263.63261999869843L1042.6866666666667,263.58984777266903L1044.9833333333333,263.5957292005619L1044.9833333333333,263.5907857590486L1047.28,263.61443146667347L1049.5766666666668,263.6401189530386L1051.8733333333332,263.673262668029L1051.8733333333332,263.6423949410368L1054.17,263.6874596261827L1054.17,263.5690315527595L1056.4666666666667,263.6438164880234L1056.4666666666667,263.59892162622316L1056.4666666666667,263.6133166414606L1056.4666666666667,263.646417081496L1058.7633333333333,263.67029789353313L1058.7633333333333,263.7006677274426L1061.06,263.7438733192475L1061.06,263.7267222389383L1063.3566666666666,263.70815851031807L1063.3566666666666,263.6763636916688L1063.3566666666666,263.73318706131226L1063.3566666666666,263.7385410177857L1065.6533333333334,263.7398753342519L1065.6533333333334,263.807125176981L1065.6533333333334,263.78907527040343L1070.2466666666667,263.83598594163567L1070.2466666666667,263.8576655753414L1074.8400000000001,263.75373257393863L1074.8400000000001,263.82976782206674L1077.1366666666665,263.9236073046859L1077.1366666666665,263.9651339228817L1079.4333333333334,264.0092730379067L1079.4333333333334,264.0728955540541L1079.4333333333334,264.1441357464785L1081.73,264.167002611774L1081.73,264.2260592018517L1081.73,264.29387172039367L1086.3233333333333,264.2179351285313L1086.3233333333333,264.182221538485L1086.3233333333333,264.2148609563616L1090.9166666666665,264.169898648317L1095.51,264.1074761874515L1095.51,263.9560029622999L1095.51,263.710516018623L1097.8066666666666,263.72784565846166L1097.8066666666666,263.6818404391771L1100.1033333333332,263.7405077370238L1104.6966666666667,263.7596301365305L1106.9933333333333,263.710726433168L1109.29,263.80970372987485L1113.8833333333334,263.8231208465631L1118.4766666666667,263.8787170153208L1118.4766666666667,263.90859231450577L1118.4766666666667,263.9671604156756L1118.4766666666667,264.05217255886873L1120.7733333333333,264.0986734182282L1120.7733333333333,264.16225927554075L1120.7733333333333,264.198487989544L1123.07,264.23883874733525L1123.07,264.2823363602169L1123.07,264.28481704366385L1125.3666666666666,264.30412016086774L1125.3666666666666,264.33784025150607L1127.6633333333334,264.43368607063985L1129.96,264.4621026474335L1129.96,264.4782529386089L1129.96,264.5684611542449L1132.2566666666667,264.61360617741354L1134.5533333333333,264.5916872026862L1136.85,264.67699982119177L1139.1466666666668,264.7400689584707L1141.4433333333334,264.83633221651246L1143.74,264.83947733487884L1143.74,264.84201355907146L1143.74,264.9065483083238L1143.74,264.883555576302L1146.0366666666666,264.92932486759577L1148.3333333333335,264.9906549187481L1148.3333333333335,264.9922296410781L1150.6299999999999,265.0526018198365L1150.6299999999999,265.0835467602974L1152.9266666666667,265.15727200301217L1152.9266666666667,265.2100461255164L1155.2233333333334,265.2881098336485L1155.2233333333334,265.3033176474322L1157.52,265.39266685626967L1157.52,265.42698583198757L1159.8166666666666,265.4790523219143L1159.8166666666666,265.5321679490173L1162.1133333333335,265.540389108893L1162.1133333333335,265.59927180690937L1164.4099999999999,265.6200654975992L1164.4099999999999,265.6405334948954L1166.7066666666667,265.6303497154663L1166.7066666666667,265.59152782824594L1166.7066666666667,265.60537181521573L1166.7066666666667,265.64642764150756L1166.7066666666667,265.68023105565794L1169.0033333333333,265.7203044398788L1169.0033333333333,265.76439734315085L1171.3,265.7850907304037L1171.3,265.83328642333834L1173.5966666666666,265.7263606583806L1173.5966666666666,265.76709536569746L1173.5966666666666,265.8575026642447L1175.8933333333334,265.92322131149L1175.8933333333334,265.9276241446255L1175.8933333333334,265.9510183332716L1180.4866666666667,265.97519780823444L1182.7833333333333,265.95116661962976L1182.7833333333333,266.03019899349874L1182.7833333333333,265.934988638244L1185.08,265.97558959325306L1185.08,265.94806301870136L1185.08,265.64635854555604L1185.08,265.57394862698214L1185.08,265.5007328621548L1187.3766666666668,265.3056161122766L1187.3766666666668,265.16880117274115L1187.3766666666668,265.1622571004505L1189.6733333333332,265.1256807542795L1189.6733333333332,265.13341884359306L1189.6733333333332,265.0140444473931L1189.6733333333332,265.063372068622L1189.6733333333332,265.08378306782527L1191.97,265.1537373436972L1196.5633333333333,265.1612522939848L1196.5633333333333,265.1586953089389L1201.1566666666668,265.1267898405939L1203.4533333333334,265.17607620178524L1203.4533333333334,265.18137528861973L1205.75,265.22037488645014L1205.75,265.20561283849014L1210.3433333333332,265.20021970876996L1210.3433333333332,265.22481962368306L1212.64,265.20717127914793L1212.64,265.2101559662069L1212.64,265.0942075164291L1212.64,265.10499837774034L1214.9366666666667,265.0993209834794L1214.9366666666667,265.0803598271764L1214.9366666666667,265.1286634287876L1214.9366666666667,265.1658971417043L1217.2333333333333,265.1239682123523L1217.2333333333333,264.96191660746706L1217.2333333333333,264.94411756988455L1217.2333333333333,264.89431815246303L1219.53,264.905549859742L1219.53,264.82189189462855L1219.53,264.80463739250604L1219.53,264.8350882725925L1221.8266666666668,264.81084527058005L1221.8266666666668,264.8554271334109L1221.8266666666668,264.8982481641826L1224.1233333333332,264.93306891784744L1226.42,264.9644809299104L1228.7166666666667,265.0274689882741L1228.7166666666667,265.0216103770315L1228.7166666666667,265.06635998790165L1228.7166666666667,265.08704663669204L1231.0133333333333,265.09680731750063L1231.0133333333333,265.1049479666866L1231.0133333333333,265.1692158178931L1233.31,265.08476351478424L1233.31,265.0942267504258L1233.31,265.1309593397651L1233.31,265.19279603593975L1235.6066666666666,265.20686077260115L1235.6066666666666,265.27960454417195L1237.9033333333334,265.2589199092593L1237.9033333333334,265.3064766398257L1237.9033333333334,265.3772947409599L1240.2,265.366458952463L1240.2,265.4045078352352L1240.2,265.4248886464079L1242.4966666666667,265.45602943205284L1242.4966666666667,265.44164977463583L1242.4966666666667,265.44990265965737L1244.7933333333333,265.39050161425143L1247.0900000000001,265.4431153244819L1247.0900000000001,265.4882563240287L1249.3866666666665,265.37547455474567L1251.6833333333334,265.3476213470632L1251.6833333333334,265.4246949920778L1253.98,265.43179252438074L1256.2766666666666,265.4309809048975L1256.2766666666666,265.4515543577403L1256.2766666666666,265.47034933035013L1256.2766666666666,265.51193789751386L1258.5733333333333,265.4914396401515L1260.8700000000001,265.568438485647L1263.1666666666665,265.584567539178L1263.1666666666665,265.6418187570073L1263.1666666666665,265.69924673786244L1263.1666666666665,265.7730557561698" style="fill: none;" fill="none"></path></g></g></g></g><g opacity="0.2"><g><g><g><path stroke="rgb(255, 112, 67)" stroke-width="2px" d="M119.42666666666668,-159.57796080295861L119.42666666666668,94.46189736402954L119.42666666666668,-214.12885566858142L121.72333333333333,-30.25551724433899L124.02,141.72370250866965L124.02,-41.43617553894342L126.31666666666666,-28.552120575538083L126.31666666666666,139.2746527653474L126.31666666666666,153.72299987994708L128.61333333333334,142.52446878873386L128.61333333333334,-86.91531545382276L130.91,167.0848976006875L130.91,99.75016541664422L133.20666666666668,160.83284169894L133.20666666666668,78.76477253437048L133.20666666666668,28.672804630719725L135.50333333333333,134.02260691386005L140.09666666666666,101.24981220410422L140.09666666666666,132.63268826558044L140.09666666666666,78.28290027379995L142.39333333333335,166.32046184173L142.39333333333335,160.88691503268024L144.69,74.7511706719032L146.98666666666668,152.75212790415839L149.28333333333333,200.66011588619307L149.28333333333333,50.13064593535205L149.28333333333333,187.2315255541068L149.28333333333333,72.72255409680884L149.28333333333333,186.45482797347583L149.28333333333333,124.9498120913139L151.58,172.37611195674313L153.87666666666667,200.61560720663803L153.87666666666667,193.7592124755566L153.87666666666667,201.5792867357914L153.87666666666667,170.4872714831279L153.87666666666667,114.48198591745819L156.17333333333332,191.9245319916652L156.17333333333332,226.0023658138055L156.17333333333332,156.2519464401099L163.06333333333333,198.30124252576096L163.06333333333333,236.53733954292076L163.06333333333333,211.82985552686912L165.35999999999999,245.57429128426773L165.35999999999999,225.12003458921725L167.65666666666667,205.42601083792172L167.65666666666667,241.90990220354155L167.65666666666667,210.6220769240306L169.95333333333335,-44.290147029436525L169.95333333333335,122.73804809496954L169.95333333333335,231.85277123176135L169.95333333333335,204.23115480863132L169.95333333333335,212.84850744559213L172.25,232.02416593524126L174.54666666666668,234.31733239614047L174.54666666666668,244.13636522109692L174.54666666666668,254.05650391486975L176.84333333333333,231.4587681385187L176.84333333333333,124.75414288043979L179.14000000000001,141.91484394440286L179.14000000000001,26.817716662700377L179.14000000000001,234.48190294091518L179.14000000000001,266.46128629721125L181.43666666666664,108.9371728255199L183.73333333333332,257.4400192888884L186.03,193.73088680093107L186.03,239.4950707417268L186.03,237.63029896754486L186.03,260.2681293842884L186.03,255.07500418562154L188.32666666666665,219.68671525212434L188.32666666666665,223.75761838371938L190.62333333333333,227.34549023096378L190.62333333333333,170.86965184257582L192.92000000000002,168.26194582535675L192.92000000000002,293.33787790170084L192.92000000000002,267.6997952782191L195.21666666666667,238.106950205106L197.51333333333335,255.52070840505453L197.51333333333335,229.49763491062018L197.51333333333335,182.52315934346274L197.51333333333335,213.10810710833624L199.80999999999997,219.67459424642416L202.10666666666665,245.50408910558775L202.10666666666665,289.1264512607685L202.10666666666665,6.8228666644829445L206.7,191.2146461743575L206.7,279.4396825467165L211.29333333333332,279.8995496034622L213.59,255.058052108838L213.59,253.87545790122107L213.59,250.7273543385359L215.88666666666668,270.08482249768883L218.18333333333334,217.2991804251304L220.48000000000002,143.42226810638724L220.48000000000002,241.78289702763922L222.77666666666664,173.5427181353936L222.77666666666664,254.12893748512636L225.07333333333332,37.16678081108978L227.37,261.3917325310982L227.37,277.9059257977284L229.66666666666666,275.61976222350046L229.66666666666666,223.72907606913492L229.66666666666666,204.50860560398834L231.96333333333334,206.37772100934617L231.96333333333334,248.89827399758192L231.96333333333334,283.4177121279331L231.96333333333334,239.02251399938876L234.26000000000002,224.7048982679844L238.85333333333335,245.29564896913675L238.85333333333335,247.08461842170126L241.14999999999998,245.60312606279666L243.44666666666666,176.83417235887973L243.44666666666666,241.9247312087279L243.44666666666666,203.4812772549116L245.74333333333334,273.0923050630551L245.74333333333334,146.80765741605026L245.74333333333334,245.2940891614327L252.63333333333333,277.95116563714464L252.63333333333333,178.60598392669974L252.63333333333333,240.9430380669924L254.93,269.37785590382725L254.93,265.7354828589238L254.93,282.4418953450827L254.93,147.43015067393964L257.2266666666667,251.41019265697554L257.2266666666667,261.8779430068456L259.5233333333333,272.3277393201223L259.5233333333333,270.3290678033462L259.5233333333333,244.17924910096022L259.5233333333333,286.92501015846545L261.82,242.43662976760132L264.1166666666667,234.4186224089219L264.1166666666667,260.86594735085964L264.1166666666667,264.9494860080572L266.41333333333336,264.2188785786812L266.41333333333336,159.46393712667322L268.71000000000004,266.75703233709703L268.71000000000004,289.8652801765845L268.71000000000004,267.10811905448253L271.00666666666666,223.7724582209037L273.30333333333334,238.51063710451126L275.6,224.2436284675048L275.6,228.07785244400685L277.89666666666665,221.80942939336484L277.89666666666665,211.60218859406618L280.1933333333333,284.21444890476187L280.1933333333333,286.72137942910194L282.49,237.39620865996068L282.49,229.96804691736514L282.49,237.1244121675308L282.49,298.3682848272415L284.7866666666667,278.01268055347293L284.7866666666667,182.70510441294087L284.7866666666667,279.8704927689754L287.08333333333337,285.01991085593517L287.08333333333337,280.23635433155755L289.38,279.6863271399186L289.38,239.72148116276816L293.97333333333336,301.8072437827404L293.97333333333336,278.02420579928616L296.27,264.7354619766657L298.56666666666666,270.57909739590605L300.86333333333334,285.6022932254351L300.86333333333334,277.99346458911896L303.16,258.06832932967404L303.16,253.0717019897241L303.16,310.7468023225665L303.16,239.072861125836L305.4566666666667,272.65066284285143L305.4566666666667,260.1985825414841L310.05,291.002867432741L310.05,268.9963583522118L310.05,260.1362552253099L310.05,245.53139657240646L312.34666666666664,254.4295037640975L312.34666666666664,230.1440235559757L312.34666666666664,211.3081973378475L316.94,293.46386486979634L323.83,266.03817220949213L323.83,262.228266068376L326.12666666666667,268.6483100102498L328.42333333333335,247.55300484483058L328.42333333333335,278.61962989431163L333.01666666666665,294.07290478623827L333.01666666666665,274.41752960360964L333.01666666666665,257.19429541551153L333.01666666666665,296.96502657349293L333.01666666666665,291.980151951313L335.31333333333333,182.55666271310588L335.31333333333333,239.80399932311133L335.31333333333333,242.06039115098807L339.9066666666667,280.6367320555907L339.9066666666667,308.20183252944395L339.9066666666667,264.48991141525596L342.2033333333333,287.3448150708125L342.2033333333333,281.2796219656101L342.2033333333333,216.44167613983154L342.2033333333333,200.15245263851605L344.5,260.72281874601657L346.7966666666666,260.2111314111031L346.7966666666666,102.23636891291693L351.39,223.01409921279318L351.39,275.6571813604006L353.68666666666667,241.38007668806955L353.68666666666667,287.55614735071475L355.98333333333335,317.4217692120717L355.98333333333335,290.056957796216L358.28000000000003,271.232857215863L358.28000000000003,284.7097582587829L358.28000000000003,263.6531179100275L358.28000000000003,254.70213432036914L358.28000000000003,264.05522333773285L360.57666666666665,242.47184459291972L365.17,291.4959183151905L365.17,290.5708765227061L367.46666666666664,267.9912085189269L367.46666666666664,203.07856523532135L369.7633333333333,247.45869063872559L369.7633333333333,248.8083142546507L372.06,297.2584978938103L374.3566666666667,274.68589776869004L374.3566666666667,250.31752569629595L374.3566666666667,292.4024807191812L374.3566666666667,260.9890963354936L376.6533333333333,245.62855959397095L376.6533333333333,271.6719322525538L376.6533333333333,273.0779526657783L378.95000000000005,95.92473702247327L381.24666666666667,256.65912972505276L381.24666666666667,279.9862272510162L381.24666666666667,262.0711316901904L383.5433333333333,263.8463770013589L385.84000000000003,272.4721840127156L385.84000000000003,274.80562384197344L385.84000000000003,253.23753987825833L385.84000000000003,272.6620526886903L388.13666666666666,257.99550580749144L388.13666666666666,282.9351141235003L388.13666666666666,279.2854186479862L390.43333333333334,202.88276604047186L392.72999999999996,305.13489854335785L392.72999999999996,274.23574701410075L392.72999999999996,279.05961481882974L395.0266666666667,150.64818561535617L395.0266666666667,294.36353812309414L395.0266666666667,275.4099247593146L397.3233333333333,299.35363376828343L401.9166666666667,261.35783379353006L401.9166666666667,296.76560949132994L404.2133333333333,292.5742112145974L404.2133333333333,284.0436770411638L404.2133333333333,218.07810939733798L406.51,221.15493841354663L406.51,290.5409260483888L406.51,244.69165676373703L408.8066666666667,265.0703711051207L411.10333333333335,252.65673898045833L411.10333333333335,278.85263700210135L411.10333333333335,296.9983837111638L411.10333333333335,234.1959490271715L413.4,301.1254886640952L413.4,278.60793675253024L415.6966666666667,269.36701307388455L415.6966666666667,273.70265023524945L415.6966666666667,298.67494952105557L415.6966666666667,262.03918271225234L417.99333333333334,290.58743864756366L420.28999999999996,193.70316771819043L422.58666666666664,288.5303609978694L424.8833333333333,211.69981739154227L429.47666666666663,219.04311043024063L429.47666666666663,271.42816897080496L429.47666666666663,226.18830789052524L429.47666666666663,279.0419586621798L431.77333333333337,267.80852687358856L434.07,268.9809065071436L436.3666666666667,158.5654445611514L436.3666666666667,255.83105597816981L436.3666666666667,288.57700899701854L438.66333333333336,297.32682072084685L438.66333333333336,284.43190126350294L440.96000000000004,292.5325838464957L447.85,283.2962475189796L447.85,244.46272248717455L450.14666666666665,291.7124824501001L452.4433333333333,296.43018042697355L452.4433333333333,217.02032147004053L452.4433333333333,280.8836095367487L454.74,304.3197229980276L459.3333333333333,274.624718644298L459.3333333333333,290.3949161320925L461.63000000000005,268.67450178128024L463.9266666666667,272.328779191925L463.9266666666667,304.1787201727812L463.9266666666667,288.50112001941756L466.2233333333333,234.06594338783853L466.2233333333333,280.285872810162L468.52000000000004,287.4906462591428L468.52000000000004,274.2171647216265L470.81666666666666,248.84514304766287L470.81666666666666,239.3164402636198L470.81666666666666,269.9279047594621L475.40999999999997,278.7538491808451L477.7066666666667,284.68194168806076L480.00333333333333,164.58482914704544L480.00333333333333,250.26562959414264L480.00333333333333,218.18903988829024L482.29999999999995,307.121004942518L482.29999999999995,301.722613382798L482.29999999999995,302.5622990314777L482.29999999999995,308.8434848836981L484.5966666666667,305.0157628139624L484.5966666666667,290.2945305911394L486.8933333333333,290.5475010711413L489.19,294.050222582542L489.19,279.9095583695632L489.19,277.4893596527668L491.4866666666667,294.05593104545886L491.4866666666667,270.1059015656893L491.4866666666667,273.6448506942162L493.78333333333336,295.84734311355993L493.78333333333336,241.6321156162482L493.78333333333336,291.14933770895004L493.78333333333336,285.0775154210054L498.3766666666667,295.99970058065196L498.3766666666667,292.3258876617138L500.67333333333335,273.91930644214153L502.96999999999997,221.20034614893106L505.26666666666665,281.9327047856955L505.26666666666665,252.5500979606922L505.26666666666665,261.4680277086221L505.26666666666665,272.3801607741759L507.56333333333333,290.9853575080633L509.86,294.25627426344613L509.86,266.28667990634074L512.1566666666666,292.8480603706378L512.1566666666666,284.0554297589339L514.4533333333334,284.24060276379953L514.4533333333334,285.67626493939986L516.75,296.4460005599719L516.75,283.715196703489L516.75,286.2842216560474L519.0466666666666,197.90936250411548L519.0466666666666,288.0850521463614L521.3433333333334,290.05389775679663L521.3433333333334,305.2160139599672L521.3433333333334,262.08833831892565L523.64,312.2363780599374L523.64,279.97107328589146L525.9366666666666,307.0381239102437L525.9366666666666,293.5230834025603L525.9366666666666,287.9802525662459L528.2333333333333,273.6762743202539L528.2333333333333,293.71237798264394L530.53,283.1746366780538L530.53,256.6037457195612L530.53,304.5326123776344L530.53,263.3665519883999L532.8266666666667,295.7387144221709L532.8266666666667,302.88392813045243L532.8266666666667,309.876968515607L535.1233333333333,235.58318133996084L535.1233333333333,298.55118311253875L537.4200000000001,145.95400932201974L537.4200000000001,239.73394879240257L537.4200000000001,299.77702407195017L539.7166666666667,289.4839830169311L539.7166666666667,257.18500156127493L542.0133333333333,276.8065754943169L542.0133333333333,282.66958394188146L542.0133333333333,278.3094448011655L542.0133333333333,210.99643077300146L546.6066666666667,236.2425033908624L548.9033333333333,284.59041672142655L548.9033333333333,271.80298859568745L551.2,300.7387971694653L551.2,206.3442609676948L551.2,292.3002591545765L551.2,297.762694902145L553.4966666666667,249.916525132381L553.4966666666667,265.4467830337011L553.4966666666667,275.04982581963907L553.4966666666667,294.8743426501751L553.4966666666667,240.90845149755478L558.09,295.79767298698425L558.09,290.0575914680958L560.3866666666667,102.95375047280243L562.6833333333333,274.2969694664845L564.98,268.0582152582132L564.98,246.79722385223096L564.98,268.8691690323444L564.98,292.27524807132204L564.98,252.19481926010207L564.98,284.9394074472097L567.2766666666666,301.2440557135985L567.2766666666666,310.0914312429153L567.2766666666666,294.9462671165283L567.2766666666666,283.9994174975615L569.5733333333334,302.82160623027727L569.5733333333334,294.48463986011654L569.5733333333334,303.77213029792676L571.87,267.2728141672336L571.87,276.33129450449576L574.1666666666667,289.0849213806482L574.1666666666667,271.6460437774658L576.4633333333334,290.3282939287332L578.76,307.28798560683543L581.0566666666667,243.99044737678307L581.0566666666667,285.18115597734084L581.0566666666667,228.759607562652L583.3533333333334,274.0850522586933L587.9466666666667,297.37558095959514L587.9466666666667,288.3522450396648L587.9466666666667,310.99552665937404L590.2433333333333,291.37666884981667L590.2433333333333,261.1223407422121L592.54,302.4728646404468L594.8366666666666,299.6727769237298L597.1333333333333,279.970769989949L597.1333333333333,300.38298770097583L599.43,314.7220832843047L599.43,301.73030410133873L601.7266666666667,272.23373924195766L601.7266666666667,305.0560036863272L601.7266666666667,289.8080059874516L604.0233333333333,281.44774540571063L604.0233333333333,213.5087718803149L604.0233333333333,291.6751120571907L606.32,226.62020131257864L608.6166666666667,267.9931691105549L610.9133333333334,293.67503466972937L613.21,266.8749982107144L613.21,270.3565052541403L613.21,263.5684008541016L613.21,315.6504044641669L613.21,309.2825626283884L613.21,294.2388239147571L615.5066666666667,245.4274310561327L617.8033333333333,285.6747863716804L617.8033333333333,242.37983760237694L620.1,304.44273387468775L620.1,295.6388813131131L622.3966666666666,269.6654454492606L626.99,299.17481373021235L626.99,245.64843631019957L626.99,290.7349054675836L629.2866666666666,239.15183722285124L629.2866666666666,245.78595935610625L629.2866666666666,214.39533841609955L629.2866666666666,297.58497972786427L631.5833333333333,312.6612117273303L631.5833333333333,251.34358670161322L631.5833333333333,275.33863396484116L631.5833333333333,266.19547989964485L631.5833333333333,245.34133833646774L633.88,295.73983011795923L636.1766666666666,304.7181265904353L636.1766666666666,284.87840163478484L638.4733333333334,297.63635589411626L638.4733333333334,288.3294111879972L640.77,304.3560833071287L643.0666666666667,227.47090310316818L643.0666666666667,233.12282299078427L643.0666666666667,283.50332282368953L645.3633333333333,299.64851324833353L645.3633333333333,323.95669461614807L645.3633333333333,320.9380307209033L647.66,293.62970817432955L647.66,306.3066445050331L649.9566666666667,312.4914391155426L649.9566666666667,279.8518888125053L649.9566666666667,295.59837505679866L649.9566666666667,293.3744142307685L652.2533333333333,314.5344459999066L652.2533333333333,292.63818499445915L654.55,282.1229363336013L654.55,295.80737845714276L656.8466666666667,280.09131929507623L656.8466666666667,285.6328448756383L656.8466666666667,299.4841593435177L661.4399999999999,270.8203801501256L661.4399999999999,290.4018215307823L661.4399999999999,283.0372544481204L666.0333333333333,220.5088422321356L666.0333333333333,304.4838494308866L666.0333333333333,255.06208161207346L668.3299999999999,285.4511922701047L668.3299999999999,266.2385695874691L670.6266666666667,286.3001934370169L670.6266666666667,267.5832213163376L670.6266666666667,296.7399268242029L670.6266666666667,253.05187943348517L672.9233333333333,284.716409105521L675.22,229.2516619012906L675.22,284.02810062811926L677.5166666666667,302.57174453368555L677.5166666666667,315.4637664315792L682.11,306.34153978641217L682.11,298.9065213891176L682.11,260.9429682722458L684.4066666666666,241.75528626487807L691.2966666666667,281.3526512957536L691.2966666666667,278.15355068674455L691.2966666666667,282.04785975584616L691.2966666666667,269.30487531767443L691.2966666666667,292.2810865182143L693.5933333333332,247.54179372695776L693.5933333333332,275.72917623474046L693.5933333333332,291.0279543399811L695.89,314.16097495876824L695.89,305.62759738587414L695.89,305.0399398333751L698.1866666666667,284.30457654366126L700.4833333333333,207.9255810196583L700.4833333333333,304.2749056065312L702.78,243.081025325335L702.78,159.49543657669656L702.78,300.40765216029604L705.0766666666667,272.8229890981546L707.3733333333333,302.0529134961275L709.6700000000001,295.7509870758423L709.6700000000001,305.53648403516183L711.9666666666667,210.62008383640878L711.9666666666667,237.61776634592277L711.9666666666667,312.28054553155715L714.2633333333333,253.54837489128113L716.5600000000001,280.57038606817906L716.5600000000001,322.62250659729426L718.8566666666666,291.85282723147134L718.8566666666666,273.6639745865877L718.8566666666666,281.8368686838792L721.1533333333333,310.02698897914246L721.1533333333333,284.42223370533725L723.45,309.0016401776901L723.45,301.6899711569914L723.45,299.0865491949595L725.7466666666666,313.34439396170467L725.7466666666666,267.3814320266247L728.0433333333333,303.0688465833664L728.0433333333333,302.0902080650513L730.34,308.68130550246974L730.34,299.88281477987766L730.34,303.05491663400943L732.6366666666667,295.09025686520795L734.9333333333333,290.9399118606861L734.9333333333333,284.3099708786377L737.23,271.7664414346218L737.23,277.7212294007723L739.5266666666666,269.25005999207497L739.5266666666666,309.0031864453967L739.5266666666666,311.08770966988345L739.5266666666666,281.9416411839999L741.8233333333334,298.4247574485265L741.8233333333334,305.9194032865075L741.8233333333334,279.10713479381343L744.12,278.8170430568548L746.4166666666666,302.88984240133027L748.7133333333334,265.1801534042909L748.7133333333334,294.26584433363035L751.0100000000001,266.94338602973863L751.0100000000001,250.0045892756719L753.3066666666666,284.8064663364337L753.3066666666666,289.0890700358611L755.6033333333334,318.00434655753463L755.6033333333334,272.1712602778123L755.6033333333334,251.9609780884706L755.6033333333334,300.1842692826803L757.9000000000001,293.4238298053925L760.1966666666666,309.7833665133669L764.7900000000001,279.80668688508183L764.7900000000001,290.43084045327623L764.7900000000001,276.03928550390094L767.0866666666666,274.4179195555357L769.3833333333333,263.2982237453644L771.6800000000001,280.22967098882566L771.6800000000001,282.8052817961344L771.6800000000001,280.8097569747613L773.9766666666667,264.0314200222492L776.2733333333333,297.4208045510145L778.5699999999999,310.4450932678122L780.8666666666667,274.0132740243123L780.8666666666667,269.4278889023341L783.1633333333334,301.96696700843484L783.1633333333334,309.3018137967357L783.1633333333334,163.416251544769L785.4599999999999,197.95931967863672L785.4599999999999,220.32238021951454L787.7566666666667,325.2388565488733L787.7566666666667,295.42987249677L787.7566666666667,297.7968373596668L787.7566666666667,311.8658181182467L790.0533333333334,296.5625745218534L790.0533333333334,304.7448437133661L792.3499999999999,278.1488495996365L792.3499999999999,298.31043654221753L792.3499999999999,290.115780961055L794.6466666666666,244.74754987313196L796.9433333333334,298.5919818327977L796.9433333333334,208.02036100167496L799.2399999999999,282.9103305122027L799.2399999999999,279.95874105623136L799.2399999999999,305.583516570238L801.5366666666666,296.6926343211761L801.5366666666666,310.4781227375452L801.5366666666666,257.6338362281139L803.8333333333334,296.57004860043526L803.8333333333334,270.1348879921895L803.8333333333334,303.6166044714359L803.8333333333334,272.72466163681105L808.4266666666666,290.0304681452421L808.4266666666666,299.4026160629896L810.7233333333334,292.07834401268224L810.7233333333334,302.1429111510515L815.3166666666667,276.7105931605284L815.3166666666667,262.7144332161316L815.3166666666667,284.07985049830035L817.6133333333333,285.9046576160651L819.91,250.5543673313581L822.2066666666667,303.6692317334505L824.5033333333334,304.0572338998318L826.8,256.09224794461176L826.8,285.17406101868704L826.8,298.5604390547826L826.8,239.0069375863442L826.8,254.04609436484483L829.0966666666667,305.22419211841543L829.0966666666667,308.6719141602516L831.3933333333334,297.9490431787876L831.3933333333334,304.1468686828247L835.9866666666667,265.8779236318974L835.9866666666667,261.0140153467655L835.9866666666667,307.73180505862604L838.2833333333333,270.87431808389147L838.2833333333333,304.42348541433995L838.2833333333333,310.40144573209375L840.5799999999999,236.2517539171072L840.5799999999999,216.56448933252923L842.8766666666667,287.1270431681321L842.8766666666667,260.8815075159073L842.8766666666667,241.31621122818726L845.1733333333333,290.6292934876222L845.1733333333333,276.0522405734429L845.1733333333333,273.9714246002527L847.47,279.4284226848529L852.0633333333333,270.7696051597595L852.0633333333333,273.9280586964809L852.0633333333333,293.23994580828224L854.36,290.3462263013308L856.6566666666668,256.09186882468373L856.6566666666668,303.036962597416L856.6566666666668,307.55369993241936L858.9533333333333,267.08025373976966L858.9533333333333,282.3734696140656L861.25,262.75813491183976L863.5466666666667,250.3526755296267L865.8433333333332,312.3315750738749L865.8433333333332,304.38479080968176L868.14,289.2728348809939L868.14,304.08698398218706L870.4366666666667,272.3427795492686L870.4366666666667,249.73570659068915L875.03,285.206221220585L875.03,243.50985329197005L875.03,276.3194713787391L875.03,301.0711391144074L875.03,280.60469100567013L879.6233333333333,237.8006213032282L881.9200000000001,258.2491911993577L881.9200000000001,251.64610274021442L881.9200000000001,307.3236174640747L881.9200000000001,221.4855418228186L881.9200000000001,245.65340819725623L881.9200000000001,289.8987672982307L884.2166666666667,278.2448806774158L886.5133333333333,266.9631598419868L886.5133333333333,295.296525186071L886.5133333333333,247.18040577952678L886.5133333333333,288.38999455250223L888.8100000000001,292.8280590864328L888.8100000000001,297.6085447393931L888.8100000000001,276.5525705585113L895.7,307.8325751355061L895.7,195.5272111801001L895.7,293.1093119130685L897.9966666666666,303.94690458476543L897.9966666666666,298.84427531292806L900.2933333333333,280.78543372337634L902.59,305.0995510260646L904.8866666666667,284.39084257529333L904.8866666666667,296.7782775129263L904.8866666666667,303.3160869364555L904.8866666666667,262.9440444925657L907.1833333333333,275.67718264460564L909.48,255.30519497394562L909.48,284.09186860002L916.37,291.22985194967345L916.37,283.9030018838552L918.6666666666666,244.23749275390918L918.6666666666666,300.31933888105243L920.9633333333334,271.2179090586992L920.9633333333334,313.325313397325L920.9633333333334,278.443458279738L923.2600000000001,260.28641921281815L923.2600000000001,297.4395980674487L923.2600000000001,168.2292656875574L925.5566666666666,229.85922866601211L925.5566666666666,290.1365892291069L932.4466666666666,297.07014569754784L934.7433333333333,282.9497427367247L934.7433333333333,312.425683472019L934.7433333333333,305.8562283664942L937.0400000000001,249.31008489544575L937.0400000000001,307.6298245059756L937.0400000000001,300.3349586220888L939.3366666666666,280.9506812680226L939.3366666666666,311.3669721168967L943.9300000000001,318.34977626399353L943.9300000000001,298.45196742736374L943.9300000000001,224.78218457332022L943.9300000000001,302.74147652548095L946.2266666666667,213.84390306472778L946.2266666666667,280.44695003559957L948.5233333333333,292.22601664066315L950.8199999999999,293.7193104613286L950.8199999999999,279.6650910079479L950.8199999999999,322.151848162596L950.8199999999999,297.4599080635951L953.1166666666667,290.152252298135L957.7099999999999,324.1145439061981L957.7099999999999,315.3434581384063L960.0066666666667,164.66208295638745L960.0066666666667,277.3386757293573L964.5999999999999,238.9667400419712L966.8966666666666,288.3744398034536L966.8966666666666,303.71971425987203L966.8966666666666,305.3473383950499L966.8966666666666,314.37414326232215L966.8966666666666,313.75816545119653L969.1933333333334,286.4271173729346L969.1933333333334,306.1374162011422L971.4899999999999,282.3408111402622L971.4899999999999,273.5766740991519L971.4899999999999,282.75956534880856L971.4899999999999,321.83668576639434L973.7866666666666,306.3872399857411L973.7866666666666,272.4247344457186L973.7866666666666,302.64156217643847L976.0833333333334,274.05408357656916L978.38,285.9465449521175L978.38,274.35134609616716L978.38,309.62961171854L980.6766666666666,301.58679096056864L980.6766666666666,296.49798331810877L982.9733333333334,302.6946985423565L982.9733333333334,204.35058841797022L987.5666666666667,286.13738309190825L987.5666666666667,284.8245611890004L989.8633333333333,320.07299278103386L992.16,275.5019804938481L992.16,260.2165961540662L994.4566666666667,307.2665192949084L996.7533333333334,307.03383443905756L996.7533333333334,285.3183486473102L999.05,265.6809491652709L999.05,276.55131404674967L1001.3466666666667,304.9297242542872L1005.9399999999999,288.266704751895L1008.2366666666667,293.4854151297074L1008.2366666666667,283.48819052256067L1010.5333333333333,315.86154989210456L1010.5333333333333,303.998657162946L1010.5333333333333,281.41531440386404L1012.8299999999999,299.345282297868L1012.8299999999999,305.2874347384159L1012.8299999999999,259.074654434736L1015.1266666666667,300.60450747494514L1015.1266666666667,256.0773322834418L1015.1266666666667,305.2057912619068L1015.1266666666667,313.70746628481606L1015.1266666666667,274.6598034856411L1019.72,282.41557900607586L1022.0166666666667,317.5805663019419L1024.3133333333333,292.9349925701435L1024.3133333333333,295.9312098576472L1024.3133333333333,281.6626089169429L1024.3133333333333,301.1826707812456L1026.61,291.1940359484691L1026.61,321.0453270765451L1026.61,313.2469574321921L1028.9066666666668,285.9629283490089L1028.9066666666668,238.6306339777433L1028.9066666666668,281.1626526358036L1031.2033333333334,323.0182888461993L1031.2033333333334,138.21151383106528L1033.5,260.81598476033946L1033.5,266.78070566860526L1035.7966666666666,302.41522216338376L1038.0933333333332,309.3167023779108L1038.0933333333332,249.96759800269052L1040.39,318.31794373003333L1042.6866666666667,239.93742787379486L1044.9833333333333,266.85069662332535L1044.9833333333333,260.85272689736803L1047.28,276.72177178240736L1049.5766666666668,277.8906851766201L1051.8733333333332,282.0750209906927L1051.8733333333332,246.49059165441074L1054.17,288.74785126860326L1054.17,197.6589375436306L1056.4666666666667,305.2977982524496L1056.4666666666667,238.5733760366073L1056.4666666666667,271.64382321788713L1056.4666666666667,282.12666795689324L1058.7633333333333,277.0136778790217L1058.7633333333333,280.68315258278295L1061.06,287.92297837711294L1061.06,254.1209434706431L1063.3566666666666,253.30305180182825L1063.3566666666666,245.84119171362656L1063.3566666666666,295.6329128822455L1063.3566666666666,266.74650905109365L1065.6533333333334,264.490106391219L1065.6533333333334,301.6483058768969L1065.6533333333334,253.62459966081838L1070.2466666666667,290.2733215391636L1070.2466666666667,276.0850452792186L1074.8400000000001,205.08999142967738L1074.8400000000001,306.77999739922006L1077.1366666666665,316.971699697467L1077.1366666666665,287.45842106525714L1079.4333333333334,288.999678972822L1079.4333333333334,300.12182823052774L1079.4333333333334,304.54009728821427L1081.73,277.1432827344307L1081.73,297.76443885381406L1081.73,302.8339980359261L1086.3233333333333,221.0279224056464L1086.3233333333333,243.8542458346257L1086.3233333333333,282.8070636597963L1090.9166666666665,238.53897361113474L1095.51,228.49655249256355L1095.51,177.47826462067096L1095.51,123.45421647108523L1097.8066666666666,273.6363584078275L1097.8066666666666,237.3579283792239L1100.1033333333332,297.334625175366L1104.6966666666667,274.71766801866204L1106.9933333333333,235.66576449229166L1109.29,320.6126456266412L1113.8833333333334,271.5288903036943L1118.4766666666667,295.8325303563705L1118.4766666666667,281.09204967319965L1118.4766666666667,297.678757750071L1118.4766666666667,313.02086384709065L1120.7733333333333,290.9037654835444L1120.7733333333333,300.84274643774216L1120.7733333333333,285.1128764782961L1123.07,287.5498485439099L1123.07,289.4296388832422L1123.07,265.72002018185765L1125.3666666666666,275.4800836100028L1125.3666666666666,283.87499033717006L1127.6633333333334,320.0062026817065L1129.96,280.9502750680997L1129.96,273.8559121741698L1129.96,316.9855592388373L1132.2566666666667,290.86479737093816L1134.5533333333333,251.83696254400107L1136.85,314.35628129771123L1139.1466666666668,301.492796298403L1141.4433333333334,320.97257667034864L1143.74,266.67487163268606L1143.74,266.32312957942486L1143.74,302.62063475640923L1143.74,251.43707767587443L1146.0366666666666,291.7148167456572L1148.3333333333335,300.90812296133777L1148.3333333333335,265.9151044648427L1150.6299999999999,300.4589849985563L1150.6299999999999,283.2445463927893L1152.9266666666667,308.45560457729374L1152.9266666666667,296.2256560577796L1155.2233333333334,311.1986401608357L1155.2233333333334,274.25352773872703L1157.52,318.0137703957466L1157.52,285.65279199985355L1159.8166666666666,296.18564265737166L1159.8166666666666,296.87923173377146L1162.1133333333335,270.3956033507219L1162.1133333333335,300.39799001812935L1164.4099999999999,277.91728314757347L1164.4099999999999,277.75348167465285L1166.7066666666667,259.5994484871626L1166.7066666666667,242.58515812341983L1166.7066666666667,273.81512970190784L1166.7066666666667,290.0100119171234L1166.7066666666667,285.75375705269664L1169.0033333333333,289.53337151156023L1169.0033333333333,291.9838564946101L1171.3,278.09859996117075L1171.3,294.5313907632461L1173.5966666666666,202.01431060525087L1173.5966666666666,290.05541965250785L1173.5966666666666,319.79983145686293L1175.8933333333334,305.16128529035126L1175.8933333333334,268.55815529135555L1175.8933333333334,279.93758074824626L1180.4866666666667,280.44095452473715L1182.7833333333333,251.5644944676986L1182.7833333333333,313.37588799572904L1182.7833333333333,208.85952671445332L1185.08,290.33074196026877L1185.08,249.42480658567868L1185.08,84.42323494874518L1185.08,222.05104793952063L1185.08,221.46433277084276L1187.3766666666668,147.87300607791317L1187.3766666666668,182.77127708838538L1187.3766666666668,261.2184584759749L1189.6733333333332,243.0683735517355L1189.6733333333332,269.80292516717543L1189.6733333333332,192.93101957669626L1189.6733333333332,294.8688508272171L1189.6733333333332,277.4248821850006L1191.97,307.47776762682656L1196.5633333333333,269.71093984062855L1196.5633333333333,263.60964368627623L1201.1566666666668,245.7855369081864L1203.4533333333334,295.0730719004686L1203.4533333333334,268.397868801768L1205.75,288.9080348542103L1205.75,256.23362718178674L1210.3433333333332,261.92030695080757L1210.3433333333332,280.19524148335825L1212.64,254.46027747025857L1212.64,267.0288342455259L1212.64,194.39742296246385L1212.64,271.68866768937846L1214.9366666666667,261.6332481732735L1214.9366666666667,253.49712870900447L1214.9366666666667,294.655725851655L1214.9366666666667,287.9405857897722L1217.2333333333333,239.4611232601679L1217.2333333333333,165.7145848686879L1217.2333333333333,254.03634556669454L1217.2333333333333,234.35654422870047L1219.53,271.79733970875924L1219.53,213.45701659413484L1219.53,254.20395990289174L1219.53,283.5549589578922L1221.8266666666668,249.89799158389752L1221.8266666666668,292.2966520992609L1221.8266666666668,291.2720588296652L1224.1233333333332,286.3927853554487L1226.42,284.33544232180486L1228.7166666666667,303.89462936268404L1228.7166666666667,261.4042814007172L1228.7166666666667,292.7135432041608L1228.7166666666667,277.8755474594923L1231.0133333333333,271.1345839145092L1231.0133333333333,270.14369982251753L1231.0133333333333,304.97299267007753L1233.31,212.7478456886915L1233.31,270.9623876431814L1233.31,287.92278881714896L1233.31,303.584622997504L1235.6066666666666,273.9443879333826L1235.6066666666666,310.498167349742L1237.9033333333334,252.3932506304521L1237.9033333333334,294.90429312449237L1237.9033333333334,309.47893050312996L1240.2,258.614446170055L1240.2,289.1278865004961L1240.2,278.13992403333003L1242.4966666666667,284.8956028475211L1242.4966666666667,256.45978846687535L1242.4966666666667,270.60793217443506L1244.7933333333333,228.24280210870964L1247.0900000000001,298.3658692916998L1247.0900000000001,293.7518497831546L1249.3866666666665,194.71872168550127L1251.6833333333334,247.88746444537088L1251.6833333333334,313.7680252773257L1253.98,269.88625572736447L1256.2766666666666,264.92130114940494L1256.2766666666666,278.3788779079914L1256.2766666666666,277.28713166713715L1256.2766666666666,291.67491708122765L1258.5733333333333,252.58859488138785L1260.8700000000001,314.0646297530486L1263.1666666666665,275.7490854469629L1263.1666666666665,301.742609251004L1263.1666666666665,301.93265665494476L1263.1666666666665,312.3690267067689" style="fill: none;" fill="none"></path></g></g></g></g></g></g><g transform="translate(70, 378)" clip-path="url(#clip_1)"><clipPath id="clip_1"><rect width="1378" height="22"></rect></clipPath><g><g><line x1="0" y1="0" x2="0" y2="5" style="visibility: inherit;" fill="rgb(0, 0, 0)" stroke="rgb(204, 204, 204)" stroke-width="1px"></line><line x1="114.83333333333333" y1="0" x2="114.83333333333333" y2="5" style="visibility: inherit;" fill="rgb(0, 0, 0)" stroke="rgb(204, 204, 204)" stroke-width="1px"></line><line x1="229.66666666666666" y1="0" x2="229.66666666666666" y2="5" style="visibility: inherit;" fill="rgb(0, 0, 0)" stroke="rgb(204, 204, 204)" stroke-width="1px"></line><line x1="344.5" y1="0" x2="344.5" y2="5" style="visibility: inherit;" fill="rgb(0, 0, 0)" stroke="rgb(204, 204, 204)" stroke-width="1px"></line><line x1="459.3333333333333" y1="0" x2="459.3333333333333" y2="5" style="visibility: inherit;" fill="rgb(0, 0, 0)" stroke="rgb(204, 204, 204)" stroke-width="1px"></line><line x1="574.1666666666667" y1="0" x2="574.1666666666667" y2="5" style="visibility: inherit;" fill="rgb(0, 0, 0)" stroke="rgb(204, 204, 204)" stroke-width="1px"></line><line x1="689" y1="0" x2="689" y2="5" style="visibility: inherit;" fill="rgb(0, 0, 0)" stroke="rgb(204, 204, 204)" stroke-width="1px"></line><line x1="803.8333333333334" y1="0" x2="803.8333333333334" y2="5" style="visibility: inherit;" fill="rgb(0, 0, 0)" stroke="rgb(204, 204, 204)" stroke-width="1px"></line><line x1="918.6666666666666" y1="0" x2="918.6666666666666" y2="5" style="visibility: inherit;" fill="rgb(0, 0, 0)" stroke="rgb(204, 204, 204)" stroke-width="1px"></line><line x1="1033.5" y1="0" x2="1033.5" y2="5" style="visibility: inherit;" fill="rgb(0, 0, 0)" stroke="rgb(204, 204, 204)" stroke-width="1px"></line><line x1="1148.3333333333335" y1="0" x2="1148.3333333333335" y2="5" style="visibility: inherit;" fill="rgb(0, 0, 0)" stroke="rgb(204, 204, 204)" stroke-width="1px"></line><line x1="1263.1666666666665" y1="0" x2="1263.1666666666665" y2="5" style="visibility: inherit;" fill="rgb(0, 0, 0)" stroke="rgb(204, 204, 204)" stroke-width="1px"></line><line x1="1378" y1="0" x2="1378" y2="5" style="visibility: inherit;" fill="rgb(0, 0, 0)" stroke="rgb(204, 204, 204)" stroke-width="1px"></line></g><g transform="translate(0, 8)"><text x="0" y="0" dx="0em" dy="0.95em" style="text-anchor: middle; visibility: hidden; font-family: &quot;Helvetica Neue&quot;, sans-serif; font-size: 12px; font-weight: 200;" fill="rgb(50, 49, 63)" stroke="none" stroke-width="1px">-50</text><text x="114.83333333333333" y="0" dx="0em" dy="0.95em" style="text-anchor: middle; visibility: inherit; font-family: &quot;Helvetica Neue&quot;, sans-serif; font-size: 12px; font-weight: 200;" fill="rgb(50, 49, 63)" stroke="none" stroke-width="1px">0</text><text x="229.66666666666666" y="0" dx="0em" dy="0.95em" style="text-anchor: middle; visibility: inherit; font-family: &quot;Helvetica Neue&quot;, sans-serif; font-size: 12px; font-weight: 200;" fill="rgb(50, 49, 63)" stroke="none" stroke-width="1px">50</text><text x="344.5" y="0" dx="0em" dy="0.95em" style="text-anchor: middle; visibility: inherit; font-family: &quot;Helvetica Neue&quot;, sans-serif; font-size: 12px; font-weight: 200;" fill="rgb(50, 49, 63)" stroke="none" stroke-width="1px">100</text><text x="459.3333333333333" y="0" dx="0em" dy="0.95em" style="text-anchor: middle; visibility: inherit; font-family: &quot;Helvetica Neue&quot;, sans-serif; font-size: 12px; font-weight: 200;" fill="rgb(50, 49, 63)" stroke="none" stroke-width="1px">150</text><text x="574.1666666666667" y="0" dx="0em" dy="0.95em" style="text-anchor: middle; visibility: inherit; font-family: &quot;Helvetica Neue&quot;, sans-serif; font-size: 12px; font-weight: 200;" fill="rgb(50, 49, 63)" stroke="none" stroke-width="1px">200</text><text x="689" y="0" dx="0em" dy="0.95em" style="text-anchor: middle; visibility: inherit; font-family: &quot;Helvetica Neue&quot;, sans-serif; font-size: 12px; font-weight: 200;" fill="rgb(50, 49, 63)" stroke="none" stroke-width="1px">250</text><text x="803.8333333333334" y="0" dx="0em" dy="0.95em" style="text-anchor: middle; visibility: inherit; font-family: &quot;Helvetica Neue&quot;, sans-serif; font-size: 12px; font-weight: 200;" fill="rgb(50, 49, 63)" stroke="none" stroke-width="1px">300</text><text x="918.6666666666666" y="0" dx="0em" dy="0.95em" style="text-anchor: middle; visibility: inherit; font-family: &quot;Helvetica Neue&quot;, sans-serif; font-size: 12px; font-weight: 200;" fill="rgb(50, 49, 63)" stroke="none" stroke-width="1px">350</text><text x="1033.5" y="0" dx="0em" dy="0.95em" style="text-anchor: middle; visibility: inherit; font-family: &quot;Helvetica Neue&quot;, sans-serif; font-size: 12px; font-weight: 200;" fill="rgb(50, 49, 63)" stroke="none" stroke-width="1px">400</text><text x="1148.3333333333335" y="0" dx="0em" dy="0.95em" style="text-anchor: middle; visibility: inherit; font-family: &quot;Helvetica Neue&quot;, sans-serif; font-size: 12px; font-weight: 200;" fill="rgb(50, 49, 63)" stroke="none" stroke-width="1px">450</text><text x="1263.1666666666665" y="0" dx="0em" dy="0.95em" style="text-anchor: middle; visibility: inherit; font-family: &quot;Helvetica Neue&quot;, sans-serif; font-size: 12px; font-weight: 200;" fill="rgb(50, 49, 63)" stroke="none" stroke-width="1px">500</text><text x="1378" y="0" dx="0em" dy="0.95em" style="text-anchor: middle; visibility: hidden; font-family: &quot;Helvetica Neue&quot;, sans-serif; font-size: 12px; font-weight: 200;" fill="rgb(50, 49, 63)" stroke="none" stroke-width="1px">550</text></g><line x1="0" y1="0" x2="1378" y2="0" fill="rgb(0, 0, 0)" stroke="rgb(204, 204, 204)" stroke-width="1px"></line></g></g></g></g></svg>