<svg viewBox="0 0 1448 400" xmlns="http://www.w3.org/2000/svg"><g><g><g><g><g><line x1="58" y1="178.77763943068712" x2="53" y2="178.77763943068712" style="visibility: inherit;" fill="rgb(0, 0, 0)" stroke="rgb(204, 204, 204)" stroke-width="1px"></line><line x1="58" y1="23.928779481233676" x2="53" y2="23.928779481233676" style="visibility: inherit;" fill="rgb(0, 0, 0)" stroke="rgb(204, 204, 204)" stroke-width="1px"></line></g><g transform="translate(48, 0)"><text x="0" y="178.77763943068712" dx="0em" dy="0.3em" style="text-anchor: end; visibility: inherit; font-family: &quot;Helvetica Neue&quot;, sans-serif; font-size: 12px; font-weight: 200;" fill="rgb(50, 49, 63)" stroke="none" stroke-width="1px">0.02</text><text x="0" y="23.928779481233676" dx="0em" dy="0.3em" style="text-anchor: end; visibility: inherit; font-family: &quot;Helvetica Neue&quot;, sans-serif; font-size: 12px; font-weight: 200;" fill="rgb(50, 49, 63)" stroke="none" stroke-width="1px">0.03</text></g><line x1="58" y1="0" x2="58" y2="378" fill="rgb(0, 0, 0)" stroke="rgb(204, 204, 204)" stroke-width="1px"></line></g></g><g transform="translate(58, 0)" clip-path="url(#clip_0)"><clipPath id="clip_0"><rect width="1390" height="378"></rect></clipPath><g><g><g><line x1="0" y1="0" x2="0" y2="378" fill="rgb(0, 0, 0)" stroke="rgb(60, 60, 60)" stroke-width="1px" opacity="0.25"></line><line x1="115.83333333333333" y1="0" x2="115.83333333333333" y2="378" fill="rgb(0, 0, 0)" stroke="rgb(60, 60, 60)" stroke-width="1px" opacity="0.25"></line><line x1="231.66666666666666" y1="0" x2="231.66666666666666" y2="378" fill="rgb(0, 0, 0)" stroke="rgb(60, 60, 60)" stroke-width="1px" opacity="0.25"></line><line x1="347.5" y1="0" x2="347.5" y2="378" fill="rgb(0, 0, 0)" stroke="rgb(60, 60, 60)" stroke-width="1px" opacity="0.25"></line><line x1="463.3333333333333" y1="0" x2="463.3333333333333" y2="378" fill="rgb(0, 0, 0)" stroke="rgb(60, 60, 60)" stroke-width="1px" opacity="0.25"></line><line x1="579.1666666666667" y1="0" x2="579.1666666666667" y2="378" fill="rgb(0, 0, 0)" stroke="rgb(60, 60, 60)" stroke-width="1px" opacity="0.25"></line><line x1="695" y1="0" x2="695" y2="378" fill="rgb(0, 0, 0)" stroke="rgb(60, 60, 60)" stroke-width="1px" opacity="0.25"></line><line x1="810.8333333333334" y1="0" x2="810.8333333333334" y2="378" fill="rgb(0, 0, 0)" stroke="rgb(60, 60, 60)" stroke-width="1px" opacity="0.25"></line><line x1="926.6666666666666" y1="0" x2="926.6666666666666" y2="378" fill="rgb(0, 0, 0)" stroke="rgb(60, 60, 60)" stroke-width="1px" opacity="0.25"></line><line x1="1042.5" y1="0" x2="1042.5" y2="378" fill="rgb(0, 0, 0)" stroke="rgb(60, 60, 60)" stroke-width="1px" opacity="0.25"></line><line x1="1158.3333333333335" y1="0" x2="1158.3333333333335" y2="378" fill="rgb(0, 0, 0)" stroke="rgb(60, 60, 60)" stroke-width="1px" opacity="0.25"></line><line x1="1274.1666666666665" y1="0" x2="1274.1666666666665" y2="378" fill="rgb(0, 0, 0)" stroke="rgb(60, 60, 60)" stroke-width="1px" opacity="0.25"></line><line x1="1390" y1="0" x2="1390" y2="378" fill="rgb(0, 0, 0)" stroke="rgb(60, 60, 60)" stroke-width="1px" opacity="0.25"></line></g><g><line x1="0" y1="178.77763943068712" x2="1390" y2="178.77763943068712" fill="rgb(0, 0, 0)" stroke="rgb(60, 60, 60)" stroke-width="1px" opacity="0.25"></line><line x1="0" y1="23.928779481233676" x2="1390" y2="23.928779481233676" fill="rgb(0, 0, 0)" stroke="rgb(60, 60, 60)" stroke-width="1px" opacity="0.25"></line></g></g></g><g><g><line x1="115.83333333333333" y1="0" x2="115.83333333333333" y2="378" fill="rgb(0, 0, 0)" stroke="rgb(153, 153, 153)" stroke-width="1.5px"></line></g></g><g><g><g><g><g><path stroke="rgb(255, 112, 67)" stroke-width="2px" d="M134.36666666666667,-6.906439838986557L136.68333333333334,0.578769026097973L136.68333333333334,9.143380305030007L136.68333333333334,9.147461318439582L139,12.718733826587425L139,19.62452692540927L139,-12.048741285111134L143.63333333333333,-2.9900173499436846L143.63333333333333,1.8328025702571153L143.63333333333333,-1.3965009073203305L143.63333333333333,3.096976185523829L143.63333333333333,5.517258387047775L145.95,11.96860946625685L145.95,17.897987154090515L145.95,22.727511216096048L148.26666666666668,28.06721871321463L148.26666666666668,32.81679126265976L148.26666666666668,37.32518128383316L148.26666666666668,43.22281238090636L150.58333333333334,46.43975006719131L150.58333333333334,48.98053654959523L152.9,53.98468875867974L152.9,54.81400952046272L157.53333333333333,59.26364810336162L157.53333333333333,61.241860852257844L157.53333333333333,65.44580085037967L159.85,69.1831912263014L159.85,72.87965021321452L159.85,75.83650404724244L159.85,79.46442430663564L162.16666666666666,82.09120927691231L166.79999999999998,87.16076029687662L166.79999999999998,90.00719628079639L171.43333333333334,90.66134318642753L173.75,89.174124543652L173.75,88.82865691287896L173.75,86.9310832453566L176.0666666666667,89.80626851839583L178.38333333333333,88.56105030100468L180.70000000000002,90.27786980259322L183.01666666666665,90.4541135605391L183.01666666666665,93.49846926626566L183.01666666666665,94.09161674388218L192.28333333333333,94.23414230792412L192.28333333333333,92.91213486528056L192.28333333333333,94.41507883486383L192.28333333333333,96.08012440149815L194.60000000000002,96.4490326290088L194.60000000000002,97.79485635837165L194.60000000000002,97.97671417380309L194.60000000000002,101.15816955897282L196.91666666666666,103.04806503862488L196.91666666666666,104.14625021161959L196.91666666666666,106.33449407189119L196.91666666666666,108.2894453112333L199.23333333333335,108.15985473056372L199.23333333333335,111.3453610590879L201.54999999999998,113.23552764864593L201.54999999999998,115.3859529830525L206.18333333333334,118.45252993064452L206.18333333333334,118.44884019292414L206.18333333333334,120.10977309590498L206.18333333333334,121.30472903877279L206.18333333333334,122.7709307156801L208.5,123.72752033568139L208.5,125.47446370937791L208.5,126.80978238984252L208.5,128.57420127094036L210.81666666666666,128.9568312452894L210.81666666666666,130.32403857013892L213.13333333333333,129.66681111977303L215.45,130.4320539246471L215.45,131.76956833247635L220.08333333333331,132.52144010306912L220.08333333333331,133.73506040326313L222.4,134.84474170211632L224.71666666666664,137.2370991073122L227.03333333333333,139.0514511072975L227.03333333333333,139.60493522457955L227.03333333333333,141.27751594640208L229.35000000000002,142.84876704558607L229.35000000000002,142.9534317510359L231.66666666666666,145.15070642161706L231.66666666666666,147.2684443436095L231.66666666666666,148.64401210077995L233.98333333333335,149.98130131981577L233.98333333333335,151.30641556034527L233.98333333333335,152.68630543284047L233.98333333333335,154.2587899356106L236.3,156.18346350274967L236.3,157.19165559600674L238.61666666666665,158.231512351464L240.93333333333334,159.29340589501263L240.93333333333334,159.13474910624524L243.24999999999997,160.48130645171256L243.24999999999997,160.9655402230321L243.24999999999997,161.86372448561647L243.24999999999997,163.27084195576793L243.24999999999997,163.82197299202906L243.24999999999997,165.125024271952L245.56666666666666,165.78421687220194L245.56666666666666,166.52728255821611L245.56666666666666,168.32822975074038L245.56666666666666,168.61673353908273L245.56666666666666,170.29742098772124L245.56666666666666,171.8051316128773L245.56666666666666,173.428901033589L247.88333333333335,173.50224825407304L247.88333333333335,174.48332632386064L247.88333333333335,175.81072599312793L252.51666666666668,177.1770780738856L254.83333333333331,178.27684745845772L254.83333333333331,179.34567481734683L257.15,179.1047735407728L257.15,180.59709546789935L257.15,181.79256543890554L259.4666666666667,183.33918393895058L259.4666666666667,183.39567614434293L261.7833333333333,184.74946075405157L261.7833333333333,186.30971452742415L264.1,187.47620702218197L264.1,189.18051266200357L264.1,189.6769295895005L266.4166666666667,190.78699868003906L268.73333333333335,191.0189533569917L268.73333333333335,191.68218928108897L271.05,193.21120374217585L271.05,193.53148844376688L271.05,194.72670894450675L271.05,194.36569691131064L273.3666666666667,194.5011567577657L273.3666666666667,195.66469207741733L278,196.79875616211874L278,197.84691257228715L282.6333333333333,198.72844987209942L282.6333333333333,198.89581718689607L282.6333333333333,199.7325870300948L284.95,200.86454558551995L284.95,200.622018055833L284.95,201.34254273497072L284.95,202.8040330431326L284.95,204.12606416632923L287.26666666666665,205.3597494273147L287.26666666666665,205.79085162988113L289.58333333333337,206.22966682566602L289.58333333333337,207.3678375892425L289.58333333333337,208.50839758631673L294.2166666666667,208.64853283697906L294.2166666666667,209.91569607842354L296.53333333333336,210.142178116024L298.85,211.19781722792948L298.85,212.12341451347612L301.1666666666667,213.38380543791004L303.4833333333333,214.3441743971793L305.8,214.74860460973045L308.1166666666667,215.3939779370999L310.43333333333334,216.49590363876158L310.43333333333334,217.4108540008258L310.43333333333334,218.2404924699945L312.75,218.5133723159135L315.06666666666666,219.25679222952732L315.06666666666666,220.43657918512685L317.3833333333333,220.522280293283L317.3833333333333,220.78627182064838L317.3833333333333,221.1869109912379L319.7,221.9136131064488L319.7,222.87405417482728L319.7,223.36187530552868L322.01666666666665,223.82095792836392L322.01666666666665,224.6446447412925L324.3333333333333,225.51459713104853L326.65,225.37915782852994L328.96666666666664,226.5203107304829L328.96666666666664,227.395339301052L331.28333333333336,228.03155600732643L331.28333333333336,228.94817081562516L331.28333333333336,230.11209192307842L333.59999999999997,231.1173281843777L333.59999999999997,231.19774036589865L335.9166666666667,231.7392853254124L335.9166666666667,232.2684107356705L340.55,232.7178060110141L340.55,233.49506182448243L340.55,234.28387841712043L342.8666666666667,235.0861930859536L342.8666666666667,235.98026069927477L342.8666666666667,236.54962424366482L342.8666666666667,237.27457399780016L345.18333333333334,238.5323419265998L345.18333333333334,239.45126340802355L347.5,240.436719276807L347.5,240.69642852259742L349.81666666666666,240.55569875630724L349.81666666666666,240.65720978847867L354.45,241.19061487885733L354.45,241.54760210652307L359.08333333333337,241.85596932695222L359.08333333333337,242.44167111755056L359.08333333333337,242.82945328450967L361.40000000000003,243.90757636950653L363.71666666666664,244.5875746469842L366.0333333333333,244.8841845806159L366.0333333333333,245.1850954534451L366.0333333333333,246.2130337481497L370.6666666666667,246.55424283766126L370.6666666666667,246.8372726239882L372.9833333333333,246.96657055228425L372.9833333333333,247.77430721695873L377.6166666666667,247.64351778136677L377.6166666666667,248.666994446485L377.6166666666667,247.0767450151407L379.93333333333334,247.53478366655642L379.93333333333334,248.1384813393114L382.25000000000006,248.7715750716883L382.25000000000006,248.73224172129292L382.25000000000006,249.436592353287L384.56666666666666,250.20655870738494L384.56666666666666,250.70748327901066L386.8833333333333,250.56364545980549L386.8833333333333,250.9377151692648L389.20000000000005,251.94224560021178L391.5166666666667,252.42457873463854L391.5166666666667,253.4616063972774L391.5166666666667,254.33428793490657L391.5166666666667,254.96462188123235L391.5166666666667,255.60541630501538L391.5166666666667,255.6641800120776L391.5166666666667,256.39672049948774L391.5166666666667,257.2876534638925L393.8333333333333,257.96308038560267L393.8333333333333,258.78092907041014L396.15,259.2921528337882L398.4666666666667,259.312474631967L398.4666666666667,260.30449632905294L403.09999999999997,261.1668185695972L407.73333333333335,262.3743237992917L407.73333333333335,262.9924543913073L407.73333333333335,262.1453735771833L407.73333333333335,263.0334748270217L410.04999999999995,263.6779136264787L410.04999999999995,263.4691299501635L410.04999999999995,264.0824572261162L410.04999999999995,264.7308237462545L412.3666666666667,264.65329277240795L414.68333333333334,264.7485262366494L417,265.7430726340036L417,266.46409410426526L417,266.5033072170758L417,266.3336728007707L417,266.13868525460737L417,266.337089671661L419.3166666666667,265.967866754839L421.6333333333333,266.9343770075929L421.6333333333333,267.3434082998298L421.6333333333333,267.65666741921655L423.95,267.59758380311746L423.95,267.6175596002808L423.95,267.02860080418793L423.95,267.8694120082748L423.95,268.2025804954369L423.95,268.2817096649824L426.26666666666665,268.3496770237597L426.26666666666665,269.2191320217735L430.9,269.4503378480884L430.9,269.61256107262943L433.21666666666664,269.6757074138492L433.21666666666664,270.38090270039686L437.85,270.7272644787779L437.85,270.4652834979934L440.16666666666663,270.95669156194407L442.48333333333335,270.09171496239816L442.48333333333335,270.8356553577915L442.48333333333335,271.16539203237426L444.8,271.7005517521838L447.1166666666667,272.2332468243816L447.1166666666667,272.4291178773394L447.1166666666667,272.82953254259763L449.4333333333333,273.20198629042494L449.4333333333333,273.7796474576269L451.75,274.170837175044L454.06666666666666,274.1888714883738L454.06666666666666,274.6318879120596L456.3833333333333,275.08982984278623L456.3833333333333,275.56511540352034L458.70000000000005,276.01670469252446L458.70000000000005,275.32223363351L461.01666666666665,275.49939081268496L463.3333333333333,275.69594169872164L465.65000000000003,276.10755134503125L465.65000000000003,276.0016286649398L467.9666666666667,275.805817216667L470.2833333333333,275.5495510524015L470.2833333333333,275.105470739942L470.2833333333333,275.28220657937345L472.6,275.77784797282357L472.6,276.2675082081863L474.9166666666667,276.6619267835156L477.2333333333333,276.9902851784779L477.2333333333333,277.4761932569279L479.54999999999995,277.2841045197903L479.54999999999995,277.8159957641921L479.54999999999995,278.23298988836143L479.54999999999995,278.71332674999553L484.18333333333334,278.4874090053628L484.18333333333334,279.0761293650338L484.18333333333334,279.64205146079473L486.49999999999994,279.66574180907094L488.81666666666666,280.31628981778226L488.81666666666666,281.0378108375215L491.1333333333333,281.5359274127706L491.1333333333333,282.1275753058359L493.45,282.61343468908467L495.7666666666667,282.5322698927986L495.7666666666667,283.2847798134527L498.0833333333333,284.1036976345068L500.4,284.4028640469562L500.4,284.7459089767571L500.4,285.0663267104519L500.4,285.69831998876725L500.4,286.07225832731535L502.7166666666667,286.723787538782L502.7166666666667,287.4756893707786L502.7166666666667,288.075916315418L505.03333333333336,288.4673856567844L505.03333333333336,288.3041830774233L507.34999999999997,288.9422440089242L507.34999999999997,289.0532034374727L507.34999999999997,289.34262344461445L509.66666666666663,289.1336334928411L509.66666666666663,289.46228339140214L509.66666666666663,289.98190441348595L509.66666666666663,290.3355668515862L509.66666666666663,290.4211473269126L511.98333333333335,290.4340943504519L514.3,290.7499654551647L514.3,291.3286666423618L516.6166666666667,291.30285873217167L516.6166666666667,291.0344587100629L516.6166666666667,291.4102723780482L518.9333333333334,291.06373544534983L518.9333333333334,291.1929557569843L518.9333333333334,290.9264307579302L518.9333333333334,290.52386012502177L521.25,290.30509870989016L521.25,290.24650637394063L521.25,290.7346849920792L521.25,291.11868220853194L523.5666666666666,291.27008375067004L528.2,291.5953034416027L530.5166666666667,291.113513934443L532.8333333333334,291.1551303090383L532.8333333333334,291.3082832969146L532.8333333333334,291.4471704562373L535.15,291.65270020836454L535.15,291.96790861411483L537.4666666666667,291.6843331782177L537.4666666666667,292.19667302225463L537.4666666666667,291.7567209855229L539.7833333333333,291.8491730497738L539.7833333333333,291.8946588361035L542.1,291.75059005207856L542.1,292.39729032281826L544.4166666666666,292.5967825782176L546.7333333333333,292.8606446313849L546.7333333333333,293.4421667878938L549.0500000000001,293.305323812927L549.0500000000001,293.65927166844006L549.0500000000001,294.0249420476985L551.3666666666667,294.0017746468559L551.3666666666667,294.0207886282019L551.3666666666667,294.2171721337974L553.6833333333333,294.3612907345702L556,294.28706805703916L556,294.62003916032177L558.3166666666667,295.15409145864936L558.3166666666667,295.6758890938662L560.6333333333333,295.7818508512825L560.6333333333333,296.13462015740714L560.6333333333333,296.420263871753L562.95,296.27909238890607L562.95,296.6345794502105L565.2666666666667,297.0473789943005L565.2666666666667,297.13692360382277L565.2666666666667,297.6133917094667L567.5833333333334,298.1578956007341L567.5833333333334,298.62030282619367L569.9,299.1895596266895L569.9,299.3424845707212L574.5333333333333,299.7373607018276L579.1666666666667,299.61474194173326L579.1666666666667,299.4157859693917L579.1666666666667,299.0071134351676L579.1666666666667,299.0331949404879L579.1666666666667,299.0629385380972L581.4833333333333,298.9693990879282L581.4833333333333,299.05082015395124L583.8,298.6773740749044L583.8,298.7384528084687L586.1166666666667,298.85460354472934L588.4333333333334,298.4168428159612L588.4333333333334,297.5231049124812L588.4333333333334,297.36576980657514L590.75,297.2871817787381L590.75,297.733199612951L593.0666666666667,297.8526558039198L593.0666666666667,297.8736101014093L600.0166666666667,298.1543065510791L602.3333333333334,298.19945825048865L602.3333333333334,298.07480647595173L602.3333333333334,297.25474288571223L604.65,296.9157890557177L604.65,296.7578982093609L604.65,296.7407845056588L609.2833333333334,296.6960581449253L609.2833333333334,296.73659285709897L609.2833333333334,297.1070976593362L609.2833333333334,297.29246868357353L609.2833333333334,297.44464880363347L611.6,295.34988861965087L611.6,295.5613320726187L613.9166666666666,295.9496758439852L618.55,296.3333303544571L618.55,296.6794824883227L618.55,296.95138121213074L620.8666666666667,296.5898810558779L623.1833333333333,296.8028506194414L623.1833333333333,296.63462344328934L625.5,297.0272547666842L627.8166666666666,297.38789786793313L627.8166666666666,297.9187992184533L627.8166666666666,298.13767327361893L627.8166666666666,297.9029968713618L630.1333333333333,298.4369636567991L630.1333333333333,295.8352928579893L632.45,295.9377290160911L634.7666666666667,296.2691477329008L634.7666666666667,296.6557610344645L634.7666666666667,297.12070474271957L637.0833333333333,297.57080437385787L637.0833333333333,297.88659745512473L637.0833333333333,297.9333176111007L639.4,298.105766544118L639.4,298.1367757228372L641.7166666666667,298.4986256125575L641.7166666666667,298.7484784791802L646.35,298.89330558697253L646.35,298.7528520984878L646.35,298.5032579878967L646.35,298.355080665217L648.6666666666666,298.4499503399609L648.6666666666666,298.77112216074L648.6666666666666,299.10246031938505L648.6666666666666,299.36074580058596L650.9833333333333,299.4193138582553L650.9833333333333,299.6916351331457L653.3,299.95204787250316L653.3,299.89842162033193L653.3,300.3780929850142L655.6166666666667,300.4203730139542L655.6166666666667,300.5742106056561L657.9333333333333,300.433030612416L657.9333333333333,300.59644511349916L660.25,300.38545715370736L660.25,300.6116359149558L662.5666666666667,300.91680127663244L662.5666666666667,301.22487058034136L664.8833333333333,301.13559632720387L664.8833333333333,301.47888536888314L664.8833333333333,301.55320133493274L664.8833333333333,302.09182095015785L667.1999999999999,302.43874324892187L671.8333333333334,302.72179580513955L671.8333333333334,302.9240898373653L674.15,303.0037660661221L674.15,303.4684954373004L678.7833333333333,303.6998990270512L681.1,304.1179245691135L681.1,304.51247670574355L681.1,304.63551960016946L681.1,304.4860829874L683.4166666666666,304.5385044897579L683.4166666666666,304.9849306473548L683.4166666666666,305.26832845331825L685.7333333333333,305.3952696642939L685.7333333333333,305.7743462984463L688.05,305.8052118238591L688.05,305.90079287575327L690.3666666666667,306.08382514138583L690.3666666666667,306.4360501628863L692.6833333333334,306.30430449679454L692.6833333333334,306.2479967747789L692.6833333333334,306.4961848856696L692.6833333333334,306.6046728959613L692.6833333333334,307.0198942988892L692.6833333333334,306.53356563583196L692.6833333333334,306.62473793382577L695,306.36257670612423L697.3166666666667,306.78200340197526L697.3166666666667,306.8913908589983L701.95,307.0903995823028L701.95,306.7400913226185L701.95,306.6497421746665L704.2666666666668,306.7256355541127L706.5833333333333,306.2356710620263L708.9,304.72349277906943L708.9,304.773765675372L708.9,304.9596115289087L711.2166666666667,305.27740046933275L713.5333333333333,304.50400114747185L713.5333333333333,303.8727737810701L713.5333333333333,304.0986555324651L713.5333333333333,303.97025219138834L715.85,303.9589678587064L715.85,304.1512435739867L715.85,304.24606382145015L715.85,304.486678089745L715.85,304.4407546952231L718.1666666666667,304.54746854573364L722.8000000000001,304.944072018006L722.8000000000001,304.91447616962216L722.8000000000001,305.2874391374723L725.1166666666666,305.2215227308723L727.4333333333333,305.3277812656564L727.4333333333333,305.55401952143154L727.4333333333333,305.60975379299083L727.4333333333333,305.9995326615863L727.4333333333333,306.00221380086384L729.75,306.0192146155753L729.75,306.32282506024393L729.75,306.2718308271193L732.0666666666666,306.4596418915344L732.0666666666666,306.48409096754244L734.3833333333333,306.0712529576752L734.3833333333333,305.38655438835L734.3833333333333,305.7177519706772L734.3833333333333,305.8369296174608L736.7,306.11735029145495L739.0166666666667,306.2475429155564L741.3333333333334,306.5009638315566L743.6500000000001,306.480193464272L743.6500000000001,306.8282546534724L745.9666666666666,307.0468856531765L745.9666666666666,307.3554850741861L748.2833333333333,307.25369421132933L748.2833333333333,307.370275932318L750.6,307.14414631065415L750.6,306.5014628207993L750.6,306.03460137099944L752.9166666666666,305.9035496708139L752.9166666666666,305.7864523989328L752.9166666666666,305.4974941314876L752.9166666666666,305.7115032906868L752.9166666666666,306.0161240845836L755.2333333333333,305.9396311002714L755.2333333333333,305.6023912162217L757.5500000000001,305.5040231889726L757.5500000000001,305.6087011589188L759.8666666666667,305.5048202034242L759.8666666666667,305.8106840869503L762.1833333333334,305.95738582054054L762.1833333333334,306.1681973180199L762.1833333333334,306.302972842969L764.5000000000001,306.6303009531708L764.5000000000001,306.8076924677469L764.5000000000001,307.10210569897595L769.1333333333333,307.3261579408858L769.1333333333333,307.7180851980735L769.1333333333333,307.422186224025L769.1333333333333,307.4144313259512L771.45,307.3070066932067L773.7666666666667,307.4837162535043L776.0833333333334,307.841065830533L776.0833333333334,307.870510190415L776.0833333333334,308.16701022448905L776.0833333333334,308.56442503897745L776.0833333333334,308.61776742650034L778.4000000000001,308.868881337456L780.7166666666666,308.9491976771703L780.7166666666666,309.0967387202386L783.0333333333334,309.24366818636554L783.0333333333334,309.33493896645757L787.6666666666666,309.6468650307695L787.6666666666666,309.95888100646096L787.6666666666666,310.1884413167356L789.9833333333333,310.3782581613783L792.3,310.3032811781768L792.3,310.6708995530171L794.6166666666667,311.043647377743L796.9333333333334,311.25674534316227L796.9333333333334,311.4498560257313L799.2499999999999,309.6439766103249L801.5666666666666,310.0458541270313L803.8833333333333,310.3916544392065L803.8833333333333,310.85577691273284L806.1999999999999,311.113147295305L806.1999999999999,311.4484414869107L806.1999999999999,311.60364498051615L806.1999999999999,311.75424737360595L808.5166666666667,311.8820995729071L808.5166666666667,312.1633072243329L810.8333333333334,312.22558977765897L813.15,312.33855913966477L813.15,312.5231610976888L813.15,312.7333758410951L813.15,313.0243116602513L813.15,313.19376811693064L813.15,313.5342037409889L813.15,313.5930763602631L815.4666666666667,313.20047909798666L815.4666666666667,313.4615563188513L817.7833333333334,313.694992295441L820.0999999999999,313.7996691508424L820.0999999999999,313.9108908061473L822.4166666666666,314.1769252581769L824.7333333333333,314.1596273870628L824.7333333333333,314.26743320967677L824.7333333333333,314.4350835136306L827.05,314.4397971011251L827.05,314.5406088136971L827.05,314.760588682203L827.05,314.93054019126293L829.3666666666667,315.03231200976404L829.3666666666667,315.1232632095826L829.3666666666667,314.73240497741796L831.6833333333334,314.52519683419797L831.6833333333334,314.78033649527896L831.6833333333334,314.70925158480793L831.6833333333334,315.0571120888528L836.3166666666667,315.06807990703726L836.3166666666667,315.24309589841965L836.3166666666667,315.3851273512523L836.3166666666667,315.59795290661145L838.6333333333334,315.7659578496532L838.6333333333334,315.8229315260244L840.9499999999999,316.16156183994775L840.9499999999999,315.92767801193224L847.9,316.2931475160476L852.5333333333333,316.64830868977236L854.85,316.8398239139706L857.1666666666667,316.80218517486713L859.4833333333332,316.68715845998855L859.4833333333332,317.02380733211794L861.8,317.4232082007295L864.1166666666667,317.39258704807526L866.4333333333333,317.6215774831445L866.4333333333333,317.17280870332326L866.4333333333333,317.1772321556448L866.4333333333333,317.22264857577335L871.0666666666667,317.5572257897171L871.0666666666667,317.88752309154296L873.3833333333333,318.3066280301607L873.3833333333333,318.5092385734028L875.7,318.47695470434974L875.7,318.14357948616833L875.7,318.5607417986422L875.7,318.3956880260673L878.0166666666668,318.7157135524041L878.0166666666668,317.3485012598614L882.65,317.6687174817823L884.9666666666667,317.68485539557463L884.9666666666667,317.5123206125882L887.2833333333333,317.4999977094764L887.2833333333333,317.46721120363895L887.2833333333333,317.3616493937659L889.6,317.3556781737843L889.6,317.1024447599166L894.2333333333333,317.25682377750064L896.5500000000001,317.35200686091036L896.5500000000001,317.2842099452775L898.8666666666666,317.5899094003245L901.1833333333333,317.7518240171873L903.5,317.57628518331074L905.8166666666666,317.87518755782463L908.1333333333333,317.1047970424266L910.45,317.1712301330572L910.45,317.21902841376505L910.45,317.3095821182895L910.45,317.3640953374106L912.7666666666667,317.13585278689357L912.7666666666667,317.31669213284835L912.7666666666667,316.81392451850417L915.0833333333334,316.78161806084506L915.0833333333334,316.8410472232599L917.4000000000001,316.95174981786425L917.4000000000001,317.22365485216204L919.7166666666666,317.32978529953476L919.7166666666666,317.46661999839586L922.0333333333333,317.6314602826259L926.6666666666666,317.62018557289974L928.9833333333333,317.39234619739693L931.3000000000001,317.38363983717795L931.3000000000001,317.09500605887905L931.3000000000001,317.1256120506671L933.6166666666667,317.30827117819064L933.6166666666667,317.49911964468515L933.6166666666667,317.87058363609873L935.9333333333334,318.09396417776856L938.2500000000001,318.1491821925424L938.2500000000001,318.33816231283805L938.2500000000001,318.60592377644645L945.2,318.8131663764886L945.2,318.97645255626094L945.2,318.95093540162395L945.2,318.48925726779134L947.5166666666667,318.65995750452635L947.5166666666667,318.60708755739256L947.5166666666667,318.9117003021938L952.1500000000001,318.57964960443115L952.1500000000001,318.15703076395664L952.1500000000001,317.9836886841213L954.4666666666666,318.0827200141929L954.4666666666666,318.2610934653941L956.7833333333334,318.0815191465681L956.7833333333334,318.07081643844225L959.0999999999999,317.81965023984844L961.4166666666666,318.0348413101614L961.4166666666666,317.778777134146L968.3666666666667,318.10540461505695L972.9999999999999,318.2926988950241L972.9999999999999,318.13303605182887L977.6333333333333,318.3496544393191L977.6333333333333,318.0317304674849L977.6333333333333,318.22636278712423L979.9499999999999,318.36143888726025L982.2666666666667,318.41935941381814L982.2666666666667,318.2486040588806L984.5833333333334,318.349874825043L984.5833333333334,318.42096186491045L984.5833333333334,318.28375474856546L984.5833333333334,318.4326855303713L986.9,318.5075216536304L986.9,318.5295462810128L986.9,318.54512541232754L989.2166666666667,318.82327475565216L989.2166666666667,318.98958385332577L989.2166666666667,319.09956189337316L989.2166666666667,319.4115024250816L991.5333333333334,319.59926097165084L991.5333333333334,319.6162628480072L993.8499999999999,319.6794636618489L993.8499999999999,319.8652008973423L996.1666666666666,320.258614750458L1000.8,319.3695310575279L1000.8,318.95550677654364L1000.8,319.21494349351L1000.8,319.3308307971452L1005.4333333333334,319.35945356030095L1005.4333333333334,319.3203281477447L1005.4333333333334,319.3969031410323L1005.4333333333334,319.4177393605513L1005.4333333333334,319.4123247855978L1007.75,319.4809532703945L1007.75,319.65103321698L1007.75,319.8628438677398L1007.75,319.82470526183937L1007.75,319.937430434784L1010.0666666666667,320.25181886232383L1010.0666666666667,320.5938595048881L1010.0666666666667,320.39488793658575L1012.3833333333334,320.4013276236012L1012.3833333333334,320.5664664779757L1014.6999999999999,320.8410963659964L1017.0166666666667,320.3939176309138L1017.0166666666667,320.63984797174317L1019.3333333333333,320.79743850172633L1019.3333333333333,320.8120435423774L1019.3333333333333,321.2065054258269L1021.65,321.0809397214458L1023.9666666666667,321.0811980932087L1023.9666666666667,320.47783270233276L1026.2833333333333,320.7643876396441L1028.6,321.0938827760661L1028.6,321.26557780279046L1030.9166666666667,321.36014452475524L1033.2333333333333,321.3898346933411L1033.2333333333333,321.5728511729305L1035.55,321.746722034959L1035.55,321.94527797922933L1037.8666666666668,321.8317750739821L1037.8666666666668,321.7795903497399L1037.8666666666668,321.95670905963686L1042.5,322.23577885013833L1044.8166666666668,322.03255365932574L1047.1333333333332,322.3129756071166L1049.45,322.09890759161067L1051.7666666666667,321.95412704611647L1054.0833333333333,322.2965421331279L1054.0833333333333,322.58558303853505L1056.4,322.77761669364736L1056.4,322.9220415153358L1058.7166666666667,322.6313259748001L1058.7166666666667,322.24532872398413L1058.7166666666667,322.25607064461144L1058.7166666666667,321.8514414683632L1061.0333333333333,321.8292600570553L1061.0333333333333,322.1137455863162L1063.35,322.1514655472398L1063.35,321.6202936385007L1063.35,321.75288257383465L1065.6666666666667,321.8379644750626L1067.9833333333333,320.9696016771633L1067.9833333333333,321.06140361773487L1067.9833333333333,321.2697051553878L1070.3,321.56363163552305L1072.6166666666666,321.7188687108098L1072.6166666666666,321.45426439772694L1072.6166666666666,321.59840830786305L1074.9333333333334,321.88054781075624L1074.9333333333334,322.27882836381536L1074.9333333333334,322.4551962314317L1074.9333333333334,322.47639888221L1077.25,322.654845993806L1077.25,322.65222271358806L1079.5666666666666,321.6363268213538L1079.5666666666666,321.79202203235775L1079.5666666666666,321.66402099532576L1081.8833333333332,321.7036154997368L1084.2,321.5330374350198L1084.2,321.51204790955063L1086.5166666666667,321.5941782776943L1086.5166666666667,321.6243041917052L1086.5166666666667,321.67609891974894L1088.8333333333333,321.83910903300506L1088.8333333333333,322.05474516179993L1091.15,322.2618510645726L1093.4666666666667,322.43464176015846L1093.4666666666667,322.2945587476024L1093.4666666666667,322.12074449286257L1098.1000000000001,322.490418562746L1098.1000000000001,322.7260807192985L1100.4166666666665,322.94551063627546L1100.4166666666665,322.9991111368797L1100.4166666666665,322.9330081102163L1102.7333333333333,323.0369149547569L1102.7333333333333,323.03150879663406L1102.7333333333333,323.0329904149812L1105.05,322.35603006013986L1105.05,322.0592774573159L1105.05,321.9079131539106L1107.3666666666666,321.6682638997541L1107.3666666666666,321.51399118253465L1107.3666666666666,321.1042988642538L1109.6833333333334,321.0259732088178L1114.3166666666666,321.3863333975662L1116.6333333333334,321.28776362110614L1116.6333333333334,321.2409860125283L1116.6333333333334,321.01609830154644L1116.6333333333334,320.8993281419613L1116.6333333333334,320.6160314863554L1118.95,320.73597052464424L1121.2666666666667,320.9538345386432L1121.2666666666667,320.82663019428037L1123.5833333333333,320.7557365954665L1125.9,320.98542611728504L1125.9,321.2570941706632L1125.9,320.94694381742136L1128.2166666666667,320.94427089048514L1128.2166666666667,321.2621606726227L1128.2166666666667,320.9879183181562L1130.5333333333333,320.918932616146L1130.5333333333333,321.19624752574657L1130.5333333333333,321.3092173248706L1130.5333333333333,321.3897636275614L1132.85,321.4156559464479L1132.85,321.2397013627696L1132.85,321.2522345606064L1132.85,321.3590833679446L1135.1666666666667,321.4722364048341L1135.1666666666667,321.8644399443164L1135.1666666666667,321.6058225697907L1135.1666666666667,321.8605752704772L1135.1666666666667,321.74993212829935L1137.4833333333333,321.7290993968386L1139.8,321.9854043187264L1139.8,322.2592583372076L1142.1166666666666,321.65753018232243L1142.1166666666666,321.64110764555375L1142.1166666666666,321.6680628430627L1144.4333333333334,321.67016315666757L1144.4333333333334,321.5638102400026L1144.4333333333334,321.88303527168847L1146.75,322.0380827023168L1146.75,322.07896604067594L1149.0666666666666,321.98655142528565L1149.0666666666666,322.13822337751145L1149.0666666666666,322.36357163686307L1149.0666666666666,322.42956121044557L1151.3833333333334,322.12676445357397L1153.7,322.229912095753L1153.7,322.4668387111678L1153.7,322.45944722642315L1156.0166666666667,322.5707794984124L1158.3333333333335,322.63992204188503L1158.3333333333335,322.86417572735525L1162.9666666666667,322.60958581908557L1162.9666666666667,322.75009764021166L1165.2833333333333,323.1020020200013L1165.2833333333333,323.16473314440407L1165.2833333333333,323.30377048563236L1167.6,323.37647186223865L1169.9166666666667,323.5035888079259L1172.2333333333333,323.3694213504169L1174.55,323.4878851911397L1174.55,323.6415295362243L1176.8666666666668,323.82084827275384L1176.8666666666668,324.0065432827681L1176.8666666666668,324.28330246882797L1179.1833333333334,324.48537076013037L1179.1833333333334,324.2821502824866L1179.1833333333334,324.40982514180837L1179.1833333333334,324.50765806213883L1181.5,324.8074301927978L1183.8166666666666,324.91714672640336L1183.8166666666666,325.11068207779715L1186.1333333333334,325.3018502312407L1186.1333333333334,325.2186715125043L1188.45,325.04516839058925L1188.45,324.9293978034528L1190.7666666666667,325.1713631822305L1193.0833333333333,325.14256477698046L1193.0833333333333,325.3627181536331L1195.4,325.5590688677543L1197.7166666666667,325.65290353123584L1200.0333333333333,325.72576196604024L1200.0333333333333,326.0213841036602L1200.0333333333333,326.12789789285466L1202.35,326.30396834880617L1202.35,326.2969278619796L1204.6666666666667,326.4203036650918L1206.9833333333333,326.6353929220304L1206.9833333333333,326.8340783778911L1206.9833333333333,326.7556177631663L1209.3,326.9401700525761L1209.3,326.99301596678816L1209.3,327.3069117997348L1216.25,327.55822739569055L1216.25,327.5978714395617L1216.25,327.7025239558896L1216.25,327.83806147546903L1216.25,328.11442671270225L1218.5666666666668,328.2582663727295L1218.5666666666668,328.3503439161207L1220.8833333333332,328.33799225540565L1220.8833333333332,328.59263259384556L1223.2,328.8109850635186L1223.2,328.9172964263574L1230.15,329.07277388375155L1230.15,329.1688826250956L1232.4666666666667,329.36619680574654L1232.4666666666667,329.6819996872873L1234.7833333333333,329.753315479693L1234.7833333333333,329.76343934822177L1237.1,329.79595290659654L1241.7333333333333,329.94151777591657L1241.7333333333333,330.1575762513391L1246.3666666666666,330.3542791585425L1246.3666666666666,330.4741693206969L1246.3666666666666,330.6565976938955L1248.6833333333334,331.03092372378364L1248.6833333333334,330.7510744468534L1251,330.9200152902476L1251,331.13041933832505L1253.3166666666666,330.780346036252L1255.6333333333332,330.9836416571155L1255.6333333333332,331.25858694391115L1255.6333333333332,331.51074445988723L1255.6333333333332,331.6887663787632L1260.2666666666667,331.9067887120988L1260.2666666666667,331.9126302119894L1260.2666666666667,332.2232590325114L1262.5833333333333,332.3639841447752L1262.5833333333333,332.4784446479858L1262.5833333333333,332.6323093618778L1264.9,332.7874913394643L1264.9,333.03163759424643L1264.9,332.52211711480356L1267.2166666666667,332.40485279973444L1267.2166666666667,332.6939952628L1269.5333333333333,332.87362407462075L1274.1666666666665,332.99152445282095L1274.1666666666665,333.1648434029153L1274.1666666666665,333.34633544719816" style="fill: none;" fill="none"></path></g></g></g></g><g opacity="0.2"><g><g><g><path stroke="rgb(255, 112, 67)" stroke-width="2px" d="M118.15,-125.91390560475458L118.15,98.30669444691267L118.15,-49.439546909980606L120.46666666666667,-129.50273165127504L122.78333333333333,58.28828387963722L122.78333333333333,-29.058773643619702L122.78333333333333,-65.74621561253616L122.78333333333333,209.05429545930804L125.1,-38.81033539608973L125.1,-140.10946476652657L125.1,232.3680587392841L127.41666666666666,134.3722508999809L129.73333333333335,155.17187824615107L129.73333333333335,35.07287607656974L134.36666666666667,-3.764479376658471L134.36666666666667,204.46009093229992L136.68333333333334,166.8096752217396L136.68333333333334,221.5648476595759L136.68333333333334,9.22823895091608L139,95.6255824088226L139,212.71108327947823L139,-406.455486465616L141.31666666666666,81.88470851302236L143.63333333333333,173.03262646684487L143.63333333333333,152.50096597740207L143.63333333333333,-78.64739080789957L143.63333333333333,154.12547123409902L143.63333333333333,82.06570823204476L145.95,279.1645566903554L145.95,265.7103146005983L145.95,218.1883672334598L148.26666666666668,261.15222006264594L148.26666666666668,239.61346381845678L148.26666666666668,237.68456102878764L148.26666666666668,348.1822655037745L150.58333333333334,186.55251602629116L150.58333333333334,158.2211187202731L152.9,321.94309859261233L152.9,88.8210014499482L157.53333333333333,302.112312822622L157.53333333333333,152.95741043267353L157.53333333333333,304.769631480087L159.85,279.26925915038123L159.85,286.05086654537223L159.85,239.9169382859379L159.85,299.54020087126037L162.16666666666666,231.23360551103855L166.79999999999998,475.9268227052319L166.79999999999998,263.2438529967992L171.43333333333334,124.66764884494299L173.75,20.551845387269793L173.75,71.41590105151363L173.75,-1.4567129257874285L176.0666666666667,287.57666300819125L178.38333333333333,26.26023326296439L180.70000000000002,199.8929806233251L183.01666666666665,100.51397873668839L183.01666666666665,327.6243082845168L183.01666666666665,130.30697860471074L192.28333333333333,102.7600354641994L192.28333333333333,20.860352759836417L192.28333333333333,199.5407790387017L192.28333333333333,216.65643254997116L194.60000000000002,120.40018003076091L194.60000000000002,195.31391074029864L194.60000000000002,109.94425545619924L194.60000000000002,405.81183007415825L196.91666666666666,256.32686143639484L196.91666666666666,186.78896908197925L196.91666666666666,297.39067682945756L196.91666666666666,276.5484474025893L199.23333333333335,99.15017625111886L199.23333333333335,458.55588717955874L201.54999999999998,282.67396715014877L201.54999999999998,318.8581461157203L206.18333333333334,465.69319642967946L206.18333333333334,118.17222395215401L206.18333333333334,273.5694702727649L206.18333333333334,226.52354724558327L206.18333333333334,258.5130137028473L208.5,207.680012096087L208.5,298.8978793426421L208.5,253.3572206282402L208.5,309.38791510542967L210.81666666666666,161.8650720861515L210.81666666666666,265.816172048448L213.13333333333333,78.03235673444777L215.45,201.91919571867768L215.45,268.97021201744445L220.08333333333331,204.2916412634392L220.08333333333331,258.98609758145494L222.4,248.95191667104274L224.71666666666664,453.80853791235484L227.03333333333333,354.63248016411904L227.03333333333333,193.97123161963617L227.03333333333333,339.90740785995064L229.35000000000002,328.2936511715305L229.35000000000002,152.94457908191427L231.66666666666666,449.0913605134781L231.66666666666666,438.8055441663234L231.66666666666666,312.9976572812225L233.98333333333335,310.4873175809064L233.98333333333335,311.8141125505621L233.98333333333335,323.4878525932797L233.98333333333335,358.8528557205175L236.3,430.50452709799157L236.3,277.6260660416408L238.61666666666665,284.442200471554L240.93333333333334,290.0304454677446L240.93333333333334,142.83132021872504L243.24999999999997,339.39860556142133L243.24999999999997,216.56944562322332L243.24999999999997,273.5468593132936L243.24999999999997,358.8575292971645L243.24999999999997,229.53958023170557L243.24999999999997,345.95424479675853L245.56666666666666,247.2897949346964L245.56666666666666,260.62708657989634L245.56666666666666,460.12391342755575L245.56666666666666,202.99313166632052L245.56666666666666,439.84448863763043L245.56666666666666,435.5825278580319L247.88333333333335,182.21567659737224L247.88333333333335,313.0797781593004L247.88333333333335,380.59184783989207L252.51666666666668,392.1165685444197L254.83333333333331,342.11096568256187L254.83333333333331,338.88309675748076L257.15,150.63915502422063L257.15,433.20587573453025L257.15,370.71221641907897L259.4666666666667,454.7104928561196L259.4666666666667,190.59387890529044L261.7833333333333,413.9765953956091L264.1,520.5838133947814L264.1,260.76055056465316L266.4166666666667,374.9616302474149L268.73333333333335,223.02193803524932L268.73333333333335,292.2329291868839L271.05,487.88924132106877L271.05,239.40588984855603L271.05,406.4486269293145L271.05,147.99551259829272L273.3666666666667,213.59918691798822L273.3666666666667,405.1294464182319L278,383.4888310247183L282.6333333333333,349.22577331452396L282.6333333333333,223.40244145997076L282.6333333333333,343.05081660171703L284.95,412.859732017441L284.95,167.13328146599767L284.95,323.7542081372428L284.95,516.3961229925108L287.26666666666665,453.73491416860867L287.26666666666665,275.9716767143658L289.58333333333337,278.242767790138L289.58333333333337,434.7705069352212L289.58333333333337,438.3304811361037L294.2166666666667,230.57387945353318L294.2166666666667,480.84628956767324L296.53333333333336,246.6580990092778L298.85,424.4184800392102L303.4833333333333,406.60059715170945L305.8,284.6863694869304L308.1166666666667,334.82033138409054L310.43333333333334,452.6793633968361L310.43333333333334,383.2124477662117L312.75,265.5534137034857L315.06666666666666,365.1674996806444L315.06666666666666,490.3915971925261L317.3833333333333,234.90102709801621L317.3833333333333,267.1940989975859L317.3833333333333,294.4500664253587L319.7,368.2712247310116L319.7,432.8627845458557L319.7,316.17861387654494L322.01666666666665,310.97272682120683L322.01666666666665,399.91765710385675L324.3333333333333,414.6868271059298L326.65,202.7551060061839L328.96666666666664,504.8795086945965L328.96666666666664,421.5969269305475L331.28333333333336,359.42528118818825L331.28333333333336,437.99653530795797L333.59999999999997,471.2006923801698L333.59999999999997,245.77863010673434L335.9166666666667,343.4411615319424L335.9166666666667,341.58189786077315L340.55,323.87801625374544L340.55,409.39973348888003L342.8666666666667,450.906732227984L342.8666666666667,359.45470705143134L342.8666666666667,402.96123072345364L347.5,493.81559028189474L347.5,293.1055873852428L349.81666666666666,214.80672798004835L349.81666666666666,260.46402235247587L354.45,359.73972150894167L354.45,317.01659333830463L359.08333333333337,306.4166514749213L359.08333333333337,376.89298108128065L359.08333333333337,326.73639671729757L361.40000000000003,549.84664356339L363.71666666666664,408.4487983011709L366.0333333333333,308.178101364706L366.0333333333333,309.7648818775423L366.0333333333333,537.9260072511529L370.6666666666667,321.3441404765306L370.6666666666667,308.054813246898L372.9833333333333,273.8275853396612L372.9833333333333,460.01719451706924L377.6166666666667,222.08127832346906L377.6166666666667,549.119967009429L377.6166666666667,12.815865045727548L379.93333333333334,355.1093984383765L379.93333333333334,398.1688091778982L382.25000000000006,408.6278618743357L382.25000000000006,240.67858425407815L382.25000000000006,434.14640479267587L384.56666666666666,458.7874195337912L384.56666666666666,373.376747823276L386.8833333333333,221.4844123213501L386.8833333333333,339.35275858068064L389.20000000000005,563.3292244023871L391.5166666666667,371.83429398789656L391.5166666666667,584.6338923654866L391.5166666666667,427.28206694286075L391.5166666666667,268.5976692461077L391.5166666666667,462.43837661161507L396.15,392.8386158475695L398.4666666666667,263.831878221978L398.4666666666667,588.9134502051429L407.73333333333335,435.3120336790789L407.73333333333335,107.70099661878305L407.73333333333335,547.7717989683849L410.04999999999995,447.80613191042426L410.04999999999995,218.75340229537917L410.04999999999995,438.44039882783096L410.04999999999995,452.75518899172624L412.3666666666667,247.25707042535277L414.68333333333334,287.3446527033791L417,618.2480854002836L417,486.69024233210513L417,275.73796609676L417,228.66513990872087L417,223.01435020267735L417,316.0680785235453L419.3166666666667,187.59627027247205L421.6333333333333,616.1551846172454L421.6333333333333,379.37434247699855L421.6333333333333,350.64380518342085L423.95,253.74543531096592L423.95,272.43276383152573L423.95,146.7219561453449L423.95,557.2640456774188L423.95,358.7303657131623L423.95,287.9769549407029L426.26666666666665,285.2579428029766L426.26666666666665,579.5639997832807L430.9,330.7392761168749L430.9,311.6967982898876L433.21666666666664,285.55820987796716L433.21666666666664,503.36739276100593L437.85,368.0129605119454L437.85,210.3498925208194L440.16666666666663,418.83204284431855L442.48333333333335,98.84637161949576L442.48333333333335,527.3276406592561L442.48333333333335,364.74375344742623L444.8,438.48768158854466L447.1166666666667,438.6726565954138L447.1166666666667,325.7101830302098L447.1166666666667,391.4825350629631L451.75,390.81301973786736L454.06666666666666,278.86222351783726L454.06666666666666,410.73778842349526L458.70000000000005,416.7491682286716L458.70000000000005,126.98557975855934L461.01666666666665,324.996811457183L463.3333333333333,331.19205162242497L465.65000000000003,403.74995968105463L465.65000000000003,248.99850836860685L467.9666666666667,227.17432923918903L470.2833333333333,212.91914701351087L470.2833333333333,172.10007651892857L470.2833333333333,325.69009078150214L472.6,439.0430865369216L474.9166666666667,401.2158063834041L477.2333333333333,377.9449769885255L477.2333333333333,438.91988626082104L479.54999999999995,228.40801765866865L479.54999999999995,460.0245483617067L479.54999999999995,439.9852559669327L484.18333333333334,221.053325862473L484.18333333333334,490.0651118991831L484.18333333333334,480.5616035762455L486.49999999999994,286.2753287158694L488.81666666666666,524.7915725002014L493.45,451.08316477753493L495.7666666666667,260.38892431615346L495.7666666666667,592.9164671288715L505.03333333333336,422.5924941861784L505.03333333333336,243.77030182054207L507.34999999999997,542.5482730898891L507.34999999999997,322.7827908243198L507.34999999999997,384.7581226801108L509.66666666666663,232.4772642628865L509.66666666666663,400.48799414338094L509.66666666666663,411.9863442585708L509.66666666666663,316.5564031095557L511.98333333333335,294.28379294496375L514.3,398.2685748400641L514.3,520.1764799257883L516.6166666666667,283.69000735033916L516.6166666666667,218.29343409624855L516.6166666666667,424.757959513651L518.9333333333334,199.13874065605418L518.9333333333334,332.186107514735L518.9333333333334,218.03196423539157L518.9333333333334,184.9787478282382L521.25,229.22852888086692L521.25,272.86439709208435L521.25,478.97367618329787L521.25,431.0378654103673L523.5666666666666,340.6048969217707L528.2,407.0860023665543L530.5166666666667,166.1587762510048L532.8333333333334,304.1809133690002L532.8333333333334,341.7367183134355L532.8333333333334,336.99397583683145L535.15,361.32313216942373L535.15,405.08196899841005L537.4666666666667,212.3286910508799L537.4666666666667,499.32673012245556L537.4666666666667,174.3769251623808L539.7833333333333,321.9668498145028L539.7833333333333,306.44723227358287L542.1,248.93024705665607L542.1,584.2656711094631L544.4166666666666,361.5018065188043L546.7333333333333,387.18283928775963L546.7333333333333,545.7918671533635L549.0500000000001,252.1019692042539L549.0500000000001,427.4217908413892L549.0500000000001,433.4907156131259L551.3666666666667,286.65854784099554L551.3666666666667,300.1683059626413L551.3666666666667,363.2263106428997L553.6833333333333,343.86072978927643L556,271.05504205721854L556,421.19833853325116L558.3166666666667,519.8832114251378L560.6333333333333,331.9302732294775L560.6333333333333,433.10724957703735L560.6333333333333,403.50685637183074L562.95,252.64799877826647L562.95,435.9106376328023L565.2666666666667,464.8736522470693L565.2666666666667,327.8461624323987L565.2666666666667,500.5197530979789L569.9,560.4654515742217L569.9,353.97818437047476L574.5333333333333,461.32703572657164L579.1666666666667,260.6992342039208L579.1666666666667,238.02754209015623L579.1666666666667,181.9121024895215L579.1666666666667,307.90298476816906L579.1666666666667,309.2150856909138L581.4833333333333,268.64271522420216L581.4833333333333,327.6281684850582L583.8,189.44157345234188L583.8,320.0578625586693L586.1166666666667,340.5621374788848L588.4333333333334,172.54645333538195L588.4333333333334,73.44951675890434L588.4333333333334,247.02276146555778L590.75,271.2613429616935L590.75,493.6409867717862L593.0666666666667,341.3442182134396L593.0666666666667,305.1662547180528L600.0166666666667,410.0312394046299L602.3333333333334,314.1525085322676L602.3333333333334,257.14220049004973L602.3333333333334,84.62384600709152L604.65,194.16821871938794L604.65,245.34498881282346L604.65,290.80971805955386L609.2833333333334,281.3580062946314L609.2833333333334,311.2191721903958L609.2833333333334,456.3211105849736L609.2833333333334,368.8379738820907L609.2833333333334,355.26686624087597L611.6,-115.43885685145926L618.55,408.7715109625264L620.8666666666667,185.44569152186537L623.1833333333333,381.7907924705901L623.1833333333333,240.6764093036077L625.5,473.01492802061534L627.8166666666666,386.6569330941492L627.8166666666666,221.3106311861049L630.1333333333333,568.3089266097174L630.1333333333333,-178.54769694780055L632.45,335.11297531990874L634.7666666666667,441.35546753044247L637.0833333333333,435.8857772997418L637.0833333333333,315.4887882640396L639.4,367.4963724486913L639.4,309.7383442680324L641.7166666666667,462.961107881633L641.7166666666667,404.5545497792866L646.35,356.70837186367L646.35,249.91306927736758L646.35,215.48810422173173L646.35,246.84036545933753L648.6666666666666,335.5782888116296L648.6666666666666,442.84279872129065L648.6666666666666,411.03764475443455L650.9833333333333,322.065440937407L650.9833333333333,418.9504970251L653.3,413.3544781474869L653.3,280.18624952822404L653.3,546.4030864783663L655.6166666666667,316.7694934483645L655.6166666666667,363.8781202220813L657.9333333333333,250.2734773465935L657.9333333333333,368.45367707133806L660.25,227.4537718851006L660.25,398.4820307140715L662.5666666666667,442.3524771051433L664.8833333333333,268.3551602981795L664.8833333333333,463.29709415525275L664.8833333333333,331.27086269337434L664.8833333333333,601.8093299376915L671.8333333333334,390.59547612305346L674.15,335.2229487534778L674.15,548.0063849333924L681.1,501.7180473514461L681.1,356.0372739674767L681.1,250.07408982395833L683.4166666666666,325.6635204711898L683.4166666666666,539.7591260011573L683.4166666666666,437.09485793077806L685.7333333333333,358.9876429711369L685.7333333333333,495.62175763965433L688.05,318.1978221258146L688.05,345.7282570526313L690.3666666666667,386.53705168824376L690.3666666666667,480.5812005471451L692.6833333333334,257.24129742554936L692.6833333333334,284.4689604219019L692.6833333333334,421.0561437847814L692.6833333333334,352.58575224061497L692.6833333333334,525.0451273650845L692.6833333333334,149.2408363811592L692.6833333333334,345.06558033947067L695,213.3936731116071L697.3166666666667,529.5937080591382L697.3166666666667,353.7215313306373L701.95,397.252803479987L701.95,186.3893500419078L701.95,271.74092241919584L704.2666666666668,338.79218090028036L706.5833333333333,146.2489561814142L708.9,-61.07808270450471L708.9,325.80519788913375L708.9,389.41528884597096L711.2166666666667,463.85127634160455L713.5333333333333,74.34129912323135L713.5333333333333,106.63786145618235L713.5333333333333,410.1900859652229L713.5333333333333,254.59665681324043L715.85,299.34755433805776L715.85,392.8922278705592L715.85,345.4963765037554L715.85,419.5964382219991L715.85,285.9100796313197L718.1666666666667,351.5141099702242L722.8000000000001,520.1838710453768L722.8000000000001,292.8190823649999L722.8000000000001,504.39795681172996L725.1166666666666,278.71706103479175L727.4333333333333,352.43196385265026L727.4333333333333,414.1206900278114L727.4333333333333,329.65856993343067L727.4333333333333,519.0626661265931L727.4333333333333,307.1281212055145L729.75,313.22551098941415L729.75,461.78712377034856L729.75,285.38374833110527L732.0666666666666,395.22766882546756L732.0666666666666,316.9491216015281L734.3833333333333,162.38695834191634L734.3833333333333,89.84984342893705L734.3833333333333,480.84546590313806L734.3833333333333,360.1184041027023L736.7,449.07172654187764L739.0166666666667,366.13425489356865L741.3333333333334,433.51590562610784L743.6500000000001,297.71681148678215L743.6500000000001,495.40431500007486L745.9666666666666,469.76926841666227L748.2833333333333,265.90342600280076L748.2833333333333,361.07365010760697L750.6,220.5007097185656L750.6,98.41901268477096L750.6,144.37075612769235L752.9166666666666,253.1277824813323L752.9166666666666,258.23622364947647L752.9166666666666,197.29130887599078L752.9166666666666,412.0640376615694L752.9166666666666,468.46722133619124L755.2333333333333,274.0552224676655L755.2333333333333,181.42356164772937L757.5500000000001,264.8717731174016L757.5500000000001,354.2756394584265L759.8666666666667,262.61420254945267L759.8666666666667,470.6786751922508L762.1833333333334,376.35309112685206L762.1833333333334,412.0999090470566L762.1833333333334,370.6432888813477L764.5000000000001,487.43182300574335L769.1333333333333,538.7464946120247L769.1333333333333,194.85207560259536L769.1333333333333,303.99309521708767L771.45,262.39414518267387L773.7666666666667,395.39530707870364L776.0833333333334,513.5313401592878L776.0833333333334,321.2157281392241L776.0833333333334,470.5481964069106L776.0833333333334,547.3504391955521L776.0833333333334,333.24327255499793L778.4000000000001,442.0462125901661L780.7166666666666,346.75830775316524L780.7166666666666,381.81575885227085L783.0333333333334,381.72848955328413L783.0333333333334,352.7730894366289L787.6666666666666,484.87938873390607L789.9833333333333,407.58024857856714L792.3,277.7994848014441L792.3,529.6263289510954L806.1999999999999,388.040526338534L808.5166666666667,375.7008026139349L808.5166666666667,470.2396465756614L810.8333333333334,342.0557651309287L813.15,368.36625267944333L813.15,409.0091830953354L813.15,517.453392951708L813.15,341.9664084237651L815.4666666666667,164.05925692968702L815.4666666666667,459.8166896918726L817.7833333333334,441.7879573995486L820.0999999999999,366.0646965704743L820.0999999999999,369.7631103548601L822.4166666666666,464.77507453775087L824.7333333333333,306.14610194965064L824.7333333333333,368.474776463055L824.7333333333333,402.5447741796649L827.05,316.6605220920212L827.05,365.1703100091766L827.05,435.61729818215645L827.05,404.8581712356724L829.3666666666667,366.36247772278557L829.3666666666667,360.7096832568701L829.3666666666667,164.03810774486683L831.6833333333334,227.2303306254797L831.6833333333334,460.25106412231077L831.6833333333334,282.38913759907047L831.6833333333334,531.6692948390507L836.3166666666667,320.31990360148006L836.3166666666667,409.26270925435807L838.6333333333334,405.87113015441827L838.6333333333334,344.0885757957991L840.9499999999999,527.2598256376938L840.9499999999999,217.67807629373826L847.9,551.1249113930237L854.85,422.2279521072075L857.1666666666667,299.10460413160496L859.4833333333332,264.9444151886153L859.4833333333332,528.5980180200447L861.8,586.1477486659344L864.1166666666667,302.8719613186214L866.4333333333333,448.5357194352929L866.4333333333333,145.1836512064828L866.4333333333333,319.3282118574459L866.4333333333333,339.9315979263165L871.0666666666667,529.4916743513749L873.3833333333333,432.82238416516856L875.7,303.0401457955738L875.7,182.5551602555776L875.7,610.5260831701104L875.7,245.12001645566943L878.0166666666668,520.7338671668464L882.65,520.399450316834L884.9666666666667,325.70101205474066L884.9666666666667,240.86822899740355L887.2833333333333,311.4781111013467L887.2833333333333,301.6348887012804L887.2833333333333,268.52671348232343L889.6,314.41681845607104L889.6,208.81311730914086L894.2333333333333,402.5574910079865L896.5500000000001,367.7079403000663L896.5500000000001,285.0530099223337L898.8666666666666,511.19128445219775L901.1833333333333,408.16036998231L903.5,238.93191181970894L905.8166666666666,506.646481535539L908.1333333333333,51.47762252283127L910.45,351.8595926209614L910.45,341.8798802314144L910.45,365.51958909762243L910.45,345.6794689655703L912.7666666666667,217.11781399567727L912.7666666666667,420.9067604809376L912.7666666666667,123.13010992072026L915.0833333333334,300.88109769045616L915.0833333333334,347.9766975171529L917.4000000000001,377.22283146161317L917.4000000000001,487.07580257272406L919.7166666666666,375.03577152562156L919.7166666666666,393.71972899013053L922.0333333333333,411.6691183300333L926.6666666666666,311.9568678885488L928.9833333333333,216.57525722459638L931.3000000000001,312.9945487121297L931.3000000000001,193.1407908097076L931.3000000000001,333.0001516292832L933.6166666666667,423.76477740626336L935.9333333333334,453.4282221583096L938.2500000000001,347.43303003980856L938.2500000000001,429.6869597332786L945.2,413.44277339172027L945.2,306.08263313923203L945.2,134.1870965121083L947.5166666666667,418.34810316663254L947.5166666666667,292.33890669277775L947.5166666666667,520.946097782529L952.1500000000001,177.2396401592473L952.1500000000001,145.76910330287282L952.1500000000001,237.59422737398492L954.4666666666666,373.03822289494315L954.4666666666666,423.90115901001514L956.7833333333334,234.88623726834493L956.7833333333334,312.56431925285057L959.0999999999999,205.7552087526877L961.4166666666666,450.2507948676807L961.4166666666666,203.6434099398124L968.3666666666667,543.0028789356468L972.9999999999999,430.91453590090606L972.9999999999999,242.87595337555507L977.6333333333333,452.3513843673215L977.6333333333333,180.2554923924161L977.6333333333333,436.52299833180507L979.9499999999999,396.4953228543741L982.2666666666667,350.0142057485746L982.2666666666667,237.88044724086092L984.5833333333334,375.54435708727135L984.5833333333334,357.6907696044549L984.5833333333334,252.25999210668698L984.5833333333334,406.0998439695157L986.9,360.08363801435416L986.9,330.3126084599162L986.9,326.84953969114423L989.2166666666667,504.1787129859875L991.5333333333334,434.8266556040704L991.5333333333334,328.7373193348916L993.8499999999999,354.77971387900857L993.8499999999999,433.9992379788665L996.1666666666666,623.3595607816706L1000.8,11.88118571995335L1000.8,145.0095578671015L1000.8,490.9349239818192L1000.8,386.7710576423816L1005.4333333333334,334.9542312545721L1005.4333333333334,298.9683749056559L1005.4333333333334,362.71805255019297L1005.4333333333334,330.73646979881534L1005.4333333333334,316.5227063779728L1007.75,358.17624692734876L1007.75,423.9770227189635L1007.75,454.96836609466783L1007.75,299.85552832828284L1007.75,385.99073806655935L1010.0666666666667,572.4646482059454L1010.0666666666667,225.83432267690696L1012.3833333333334,323.89377463878856L1012.3833333333334,422.21597601751586L1014.6999999999999,508.9976557935705L1017.0166666666667,133.01516482021427L1017.0166666666667,484.5337779757143L1019.3333333333333,417.5311004540969L1019.3333333333333,328.82031427688656L1019.3333333333333,635.7905399241611L1021.65,258.3002556790028L1023.9666666666667,321.2217707123111L1023.9666666666667,83.58956312496292L1026.2833333333333,521.619326032697L1028.6,428.81182020885433L1030.9166666666667,376.868185074039L1033.2333333333333,337.97696124564686L1033.2333333333333,437.7378500358217L1035.55,450.0694994386155L1037.8666666666668,264.1659040590014L1037.8666666666668,294.15807683557L1037.8666666666668,434.3060933955778L1042.5,518.5594858888426L1044.8166666666668,223.96832338420802L1047.1333333333332,520.3055407346609L1049.45,219.30258440482442L1051.7666666666667,249.44278272415607L1054.0833333333333,583.3843093548946L1056.4,412.6220797996915L1058.7166666666667,188.32008400654766L1058.7166666666667,152.42281483520043L1058.7166666666667,328.26240116056334L1058.7166666666667,145.24528350550142L1061.0333333333333,309.699105063311L1061.0333333333333,526.4772148619588L1063.35,343.74429659254264L1063.35,102.66796801345964L1063.35,403.9102226846456L1065.6666666666667,372.5276155735107L1067.9833333333333,8.224931203732183L1067.9833333333333,376.15075445810254L1067.9833333333333,460.267602025499L1072.6166666666666,420.39802161601784L1072.6166666666666,196.18226256135674L1072.6166666666666,412.4737288041356L1074.9333333333334,437.3028157526262L1074.9333333333334,334.59770601903045L1077.25,439.2971346010605L1077.25,321.1766861253954L1079.5666666666666,-28.039166498097245L1079.5666666666666,421.6865776560831L1079.5666666666666,255.45717074122842L1081.8833333333332,344.7706234410579L1084.2,235.51017329444446L1084.2,309.8097920237484L1086.5166666666667,371.2243450309732L1086.5166666666667,339.1014156334L1086.5166666666667,352.2628877297356L1088.8333333333333,427.88203407231026L1093.4666666666667,436.1849060252896L1093.4666666666667,249.8429734779953L1093.4666666666667,234.04412123857185L1098.1000000000001,629.5549689806244L1100.4166666666665,474.9601591350606L1100.4166666666665,354.9481311084193L1100.4166666666665,286.8701031118063L1102.7333333333333,387.72631325007677L1102.7333333333333,319.94604444750564L1102.7333333333333,323.8836070255011L1105.05,54.523775385891895L1105.05,181.18725653592304L1105.05,243.54718201007802L1107.3666666666666,204.00998023923654L1107.3666666666666,241.68855469628994L1107.3666666666666,137.42968519438202L1109.6833333333334,278.3554577853722L1114.3166666666666,621.767569903789L1116.6333333333334,268.25124932410404L1116.6333333333334,295.13194744095694L1116.6333333333334,209.14825220289708L1116.6333333333334,258.70317665710076L1116.6333333333334,184.19968238752605L1118.95,397.4530176904234L1121.2666666666667,474.3873569865096L1121.2666666666667,253.35773948408837L1123.5833333333333,281.6657915619565L1125.9,485.25542666216006L1125.9,525.2220111065288L1125.9,173.19554620749207L1128.2166666666667,319.3909395938193L1128.2166666666667,574.8830808898429L1128.2166666666667,187.4452829023083L1130.5333333333333,282.6479162326524L1130.5333333333333,532.0100993042299L1130.5333333333333,393.8035989668756L1130.5333333333333,371.6684316740879L1132.85,336.87792218262143L1132.85,230.03014278771627L1132.85,328.66906154548366L1132.85,389.8160878238031L1135.1666666666667,675.0995401625455L1135.1666666666667,193.69356393767293L1135.1666666666667,512.1645657565849L1135.1666666666667,261.63287256044197L1137.4833333333333,309.6532058228019L1139.8,514.3179810783635L1139.8,532.3077170050126L1142.1166666666666,70.71926296826638L1142.1166666666666,312.0636731888347L1142.1166666666666,337.94051122263477L1144.4333333333334,322.9142990857643L1144.4333333333334,263.31054979312285L1144.4333333333334,582.9643754029717L1146.75,427.1689409963893L1146.75,347.1287503702007L1149.0666666666666,270.74819787439833L1149.0666666666666,424.88453336463294L1149.0666666666666,487.31731462485607L1149.0666666666666,363.8390836209147L1151.3833333333334,174.5776718306977L1153.7,389.2007303779912L1153.7,498.78157690849525L1153.7,318.0775062712913L1156.0166666666667,395.55853271001905L1158.3333333333335,366.3327472786874L1158.3333333333335,487.93039430006695L1162.9666666666667,194.53970155894623L1162.9666666666667,417.7154386584207L1165.2833333333333,629.6659406755541L1165.2833333333333,362.72830090421917L1165.2833333333333,417.3527965354244L1167.6,369.6897803354098L1169.9166666666667,408.64279574560254L1172.2333333333333,250.26043893852062L1174.55,402.3043205212433L1179.1833333333334,471.3009811848584L1179.1833333333334,217.95786569319228L1179.1833333333334,410.53939613628893L1186.1333333333334,463.33560561067543L1186.1333333333334,277.86215705511876L1188.45,232.10691895394834L1188.45,260.43428969241154L1190.7666666666667,510.7932901013554L1193.0833333333333,308.0295167815688L1193.0833333333333,490.28335419865726L1197.7166666666667,387.5568457661717L1200.0333333333333,372.9254676134861L1200.0333333333333,570.0406264366998L1202.35,452.57211829679136L1202.35,322.0200237544365L1204.6666666666667,410.4523566786346L1206.9833333333333,473.2812365962386L1206.9833333333333,281.4986141859002L1209.3,461.0972738829138L1209.3,360.85936503178755L1209.3,595.5064622547981L1216.25,525.3098227320577L1216.25,352.7667508285262L1216.25,398.1654925278314L1218.5666666666668,389.79136548186347L1220.8833333333332,320.7961323338508L1220.8833333333332,531.1144296971073L1232.4666666666667,603.9538908507977L1234.7833333333333,376.7273862322733L1234.7833333333333,336.0935144413471L1237.1,350.52325042110294L1241.7333333333333,433.08973562541394L1248.6833333333334,691.3087307491759L1248.6833333333334,187.15704790487496L1251,454.19486580116245L1251,492.02709260360035L1253.3166666666666,158.0371405945636L1255.6333333333332,485.4059138134181L1260.2666666666667,500.88159137081516L1260.2666666666667,335.58995237748763L1260.2666666666667,604.7156033952747L1264.9,529.4322043945336L1264.9,99.91031287967706L1267.2166666666667,264.93064332962706L1267.2166666666667,580.255848321566" style="fill: none;" fill="none"></path></g></g></g></g></g></g><g transform="translate(58, 378)" clip-path="url(#clip_1)"><clipPath id="clip_1"><rect width="1390" height="22"></rect></clipPath><g><g><line x1="0" y1="0" x2="0" y2="5" style="visibility: inherit;" fill="rgb(0, 0, 0)" stroke="rgb(204, 204, 204)" stroke-width="1px"></line><line x1="115.83333333333333" y1="0" x2="115.83333333333333" y2="5" style="visibility: inherit;" fill="rgb(0, 0, 0)" stroke="rgb(204, 204, 204)" stroke-width="1px"></line><line x1="231.66666666666666" y1="0" x2="231.66666666666666" y2="5" style="visibility: inherit;" fill="rgb(0, 0, 0)" stroke="rgb(204, 204, 204)" stroke-width="1px"></line><line x1="347.5" y1="0" x2="347.5" y2="5" style="visibility: inherit;" fill="rgb(0, 0, 0)" stroke="rgb(204, 204, 204)" stroke-width="1px"></line><line x1="463.3333333333333" y1="0" x2="463.3333333333333" y2="5" style="visibility: inherit;" fill="rgb(0, 0, 0)" stroke="rgb(204, 204, 204)" stroke-width="1px"></line><line x1="579.1666666666667" y1="0" x2="579.1666666666667" y2="5" style="visibility: inherit;" fill="rgb(0, 0, 0)" stroke="rgb(204, 204, 204)" stroke-width="1px"></line><line x1="695" y1="0" x2="695" y2="5" style="visibility: inherit;" fill="rgb(0, 0, 0)" stroke="rgb(204, 204, 204)" stroke-width="1px"></line><line x1="810.8333333333334" y1="0" x2="810.8333333333334" y2="5" style="visibility: inherit;" fill="rgb(0, 0, 0)" stroke="rgb(204, 204, 204)" stroke-width="1px"></line><line x1="926.6666666666666" y1="0" x2="926.6666666666666" y2="5" style="visibility: inherit;" fill="rgb(0, 0, 0)" stroke="rgb(204, 204, 204)" stroke-width="1px"></line><line x1="1042.5" y1="0" x2="1042.5" y2="5" style="visibility: inherit;" fill="rgb(0, 0, 0)" stroke="rgb(204, 204, 204)" stroke-width="1px"></line><line x1="1158.3333333333335" y1="0" x2="1158.3333333333335" y2="5" style="visibility: inherit;" fill="rgb(0, 0, 0)" stroke="rgb(204, 204, 204)" stroke-width="1px"></line><line x1="1274.1666666666665" y1="0" x2="1274.1666666666665" y2="5" style="visibility: inherit;" fill="rgb(0, 0, 0)" stroke="rgb(204, 204, 204)" stroke-width="1px"></line><line x1="1390" y1="0" x2="1390" y2="5" style="visibility: inherit;" fill="rgb(0, 0, 0)" stroke="rgb(204, 204, 204)" stroke-width="1px"></line></g><g transform="translate(0, 8)"><text x="0" y="0" dx="0em" dy="0.95em" style="text-anchor: middle; visibility: hidden; font-family: &quot;Helvetica Neue&quot;, sans-serif; font-size: 12px; font-weight: 200;" fill="rgb(50, 49, 63)" stroke="none" stroke-width="1px">-50</text><text x="115.83333333333333" y="0" dx="0em" dy="0.95em" style="text-anchor: middle; visibility: inherit; font-family: &quot;Helvetica Neue&quot;, sans-serif; font-size: 12px; font-weight: 200;" fill="rgb(50, 49, 63)" stroke="none" stroke-width="1px">0</text><text x="231.66666666666666" y="0" dx="0em" dy="0.95em" style="text-anchor: middle; visibility: inherit; font-family: &quot;Helvetica Neue&quot;, sans-serif; font-size: 12px; font-weight: 200;" fill="rgb(50, 49, 63)" stroke="none" stroke-width="1px">50</text><text x="347.5" y="0" dx="0em" dy="0.95em" style="text-anchor: middle; visibility: inherit; font-family: &quot;Helvetica Neue&quot;, sans-serif; font-size: 12px; font-weight: 200;" fill="rgb(50, 49, 63)" stroke="none" stroke-width="1px">100</text><text x="463.3333333333333" y="0" dx="0em" dy="0.95em" style="text-anchor: middle; visibility: inherit; font-family: &quot;Helvetica Neue&quot;, sans-serif; font-size: 12px; font-weight: 200;" fill="rgb(50, 49, 63)" stroke="none" stroke-width="1px">150</text><text x="579.1666666666667" y="0" dx="0em" dy="0.95em" style="text-anchor: middle; visibility: inherit; font-family: &quot;Helvetica Neue&quot;, sans-serif; font-size: 12px; font-weight: 200;" fill="rgb(50, 49, 63)" stroke="none" stroke-width="1px">200</text><text x="695" y="0" dx="0em" dy="0.95em" style="text-anchor: middle; visibility: inherit; font-family: &quot;Helvetica Neue&quot;, sans-serif; font-size: 12px; font-weight: 200;" fill="rgb(50, 49, 63)" stroke="none" stroke-width="1px">250</text><text x="810.8333333333334" y="0" dx="0em" dy="0.95em" style="text-anchor: middle; visibility: inherit; font-family: &quot;Helvetica Neue&quot;, sans-serif; font-size: 12px; font-weight: 200;" fill="rgb(50, 49, 63)" stroke="none" stroke-width="1px">300</text><text x="926.6666666666666" y="0" dx="0em" dy="0.95em" style="text-anchor: middle; visibility: inherit; font-family: &quot;Helvetica Neue&quot;, sans-serif; font-size: 12px; font-weight: 200;" fill="rgb(50, 49, 63)" stroke="none" stroke-width="1px">350</text><text x="1042.5" y="0" dx="0em" dy="0.95em" style="text-anchor: middle; visibility: inherit; font-family: &quot;Helvetica Neue&quot;, sans-serif; font-size: 12px; font-weight: 200;" fill="rgb(50, 49, 63)" stroke="none" stroke-width="1px">400</text><text x="1158.3333333333335" y="0" dx="0em" dy="0.95em" style="text-anchor: middle; visibility: inherit; font-family: &quot;Helvetica Neue&quot;, sans-serif; font-size: 12px; font-weight: 200;" fill="rgb(50, 49, 63)" stroke="none" stroke-width="1px">450</text><text x="1274.1666666666665" y="0" dx="0em" dy="0.95em" style="text-anchor: middle; visibility: inherit; font-family: &quot;Helvetica Neue&quot;, sans-serif; font-size: 12px; font-weight: 200;" fill="rgb(50, 49, 63)" stroke="none" stroke-width="1px">500</text><text x="1390" y="0" dx="0em" dy="0.95em" style="text-anchor: middle; visibility: hidden; font-family: &quot;Helvetica Neue&quot;, sans-serif; font-size: 12px; font-weight: 200;" fill="rgb(50, 49, 63)" stroke="none" stroke-width="1px">550</text></g><line x1="0" y1="0" x2="1390" y2="0" fill="rgb(0, 0, 0)" stroke="rgb(204, 204, 204)" stroke-width="1px"></line></g></g></g></g></svg>