<svg viewBox="0 0 1448 400" xmlns="http://www.w3.org/2000/svg"><g><g><g><g><g><line x1="70" y1="378" x2="65" y2="378" style="visibility: inherit;" fill="rgb(0, 0, 0)" stroke="rgb(204, 204, 204)" stroke-width="1px"></line><line x1="70" y1="343.6363636363636" x2="65" y2="343.6363636363636" style="visibility: inherit;" fill="rgb(0, 0, 0)" stroke="rgb(204, 204, 204)" stroke-width="1px"></line><line x1="70" y1="309.27272727272725" x2="65" y2="309.27272727272725" style="visibility: inherit;" fill="rgb(0, 0, 0)" stroke="rgb(204, 204, 204)" stroke-width="1px"></line><line x1="70" y1="274.90909090909093" x2="65" y2="274.90909090909093" style="visibility: inherit;" fill="rgb(0, 0, 0)" stroke="rgb(204, 204, 204)" stroke-width="1px"></line><line x1="70" y1="240.54545454545453" x2="65" y2="240.54545454545453" style="visibility: inherit;" fill="rgb(0, 0, 0)" stroke="rgb(204, 204, 204)" stroke-width="1px"></line><line x1="70" y1="206.18181818181816" x2="65" y2="206.18181818181816" style="visibility: inherit;" fill="rgb(0, 0, 0)" stroke="rgb(204, 204, 204)" stroke-width="1px"></line><line x1="70" y1="171.81818181818178" x2="65" y2="171.81818181818178" style="visibility: inherit;" fill="rgb(0, 0, 0)" stroke="rgb(204, 204, 204)" stroke-width="1px"></line><line x1="70" y1="137.4545454545455" x2="65" y2="137.4545454545455" style="visibility: inherit;" fill="rgb(0, 0, 0)" stroke="rgb(204, 204, 204)" stroke-width="1px"></line><line x1="70" y1="103.09090909090907" x2="65" y2="103.09090909090907" style="visibility: inherit;" fill="rgb(0, 0, 0)" stroke="rgb(204, 204, 204)" stroke-width="1px"></line><line x1="70" y1="68.72727272727275" x2="65" y2="68.72727272727275" style="visibility: inherit;" fill="rgb(0, 0, 0)" stroke="rgb(204, 204, 204)" stroke-width="1px"></line><line x1="70" y1="34.363636363636374" x2="65" y2="34.363636363636374" style="visibility: inherit;" fill="rgb(0, 0, 0)" stroke="rgb(204, 204, 204)" stroke-width="1px"></line><line x1="70" y1="0" x2="65" y2="0" style="visibility: inherit;" fill="rgb(0, 0, 0)" stroke="rgb(204, 204, 204)" stroke-width="1px"></line></g><g transform="translate(60, 0)"><text x="0" y="378" dx="0em" dy="0.3em" style="text-anchor: end; visibility: hidden; font-family: &quot;Helvetica Neue&quot;, sans-serif; font-size: 12px; font-weight: 200;" fill="rgb(50, 49, 63)" stroke="none" stroke-width="1px">-0.01</text><text x="0" y="343.6363636363636" dx="0em" dy="0.3em" style="text-anchor: end; visibility: inherit; font-family: &quot;Helvetica Neue&quot;, sans-serif; font-size: 12px; font-weight: 200;" fill="rgb(50, 49, 63)" stroke="none" stroke-width="1px">0</text><text x="0" y="309.27272727272725" dx="0em" dy="0.3em" style="text-anchor: end; visibility: inherit; font-family: &quot;Helvetica Neue&quot;, sans-serif; font-size: 12px; font-weight: 200;" fill="rgb(50, 49, 63)" stroke="none" stroke-width="1px">0.01</text><text x="0" y="274.90909090909093" dx="0em" dy="0.3em" style="text-anchor: end; visibility: inherit; font-family: &quot;Helvetica Neue&quot;, sans-serif; font-size: 12px; font-weight: 200;" fill="rgb(50, 49, 63)" stroke="none" stroke-width="1px">0.02</text><text x="0" y="240.54545454545453" dx="0em" dy="0.3em" style="text-anchor: end; visibility: inherit; font-family: &quot;Helvetica Neue&quot;, sans-serif; font-size: 12px; font-weight: 200;" fill="rgb(50, 49, 63)" stroke="none" stroke-width="1px">0.03</text><text x="0" y="206.18181818181816" dx="0em" dy="0.3em" style="text-anchor: end; visibility: inherit; font-family: &quot;Helvetica Neue&quot;, sans-serif; font-size: 12px; font-weight: 200;" fill="rgb(50, 49, 63)" stroke="none" stroke-width="1px">0.04</text><text x="0" y="171.81818181818178" dx="0em" dy="0.3em" style="text-anchor: end; visibility: inherit; font-family: &quot;Helvetica Neue&quot;, sans-serif; font-size: 12px; font-weight: 200;" fill="rgb(50, 49, 63)" stroke="none" stroke-width="1px">0.05</text><text x="0" y="137.4545454545455" dx="0em" dy="0.3em" style="text-anchor: end; visibility: inherit; font-family: &quot;Helvetica Neue&quot;, sans-serif; font-size: 12px; font-weight: 200;" fill="rgb(50, 49, 63)" stroke="none" stroke-width="1px">0.06</text><text x="0" y="103.09090909090907" dx="0em" dy="0.3em" style="text-anchor: end; visibility: inherit; font-family: &quot;Helvetica Neue&quot;, sans-serif; font-size: 12px; font-weight: 200;" fill="rgb(50, 49, 63)" stroke="none" stroke-width="1px">0.07</text><text x="0" y="68.72727272727275" dx="0em" dy="0.3em" style="text-anchor: end; visibility: inherit; font-family: &quot;Helvetica Neue&quot;, sans-serif; font-size: 12px; font-weight: 200;" fill="rgb(50, 49, 63)" stroke="none" stroke-width="1px">0.08</text><text x="0" y="34.363636363636374" dx="0em" dy="0.3em" style="text-anchor: end; visibility: inherit; font-family: &quot;Helvetica Neue&quot;, sans-serif; font-size: 12px; font-weight: 200;" fill="rgb(50, 49, 63)" stroke="none" stroke-width="1px">0.09</text><text x="0" y="0" dx="0em" dy="0.3em" style="text-anchor: end; visibility: hidden; font-family: &quot;Helvetica Neue&quot;, sans-serif; font-size: 12px; font-weight: 200;" fill="rgb(50, 49, 63)" stroke="none" stroke-width="1px">0.1</text></g><line x1="70" y1="0" x2="70" y2="378" fill="rgb(0, 0, 0)" stroke="rgb(204, 204, 204)" stroke-width="1px"></line></g></g><g transform="translate(70, 0)" clip-path="url(#clip_0)"><clipPath id="clip_0"><rect width="1378" height="378"></rect></clipPath><g><g><g><line x1="0" y1="0" x2="0" y2="378" fill="rgb(0, 0, 0)" stroke="rgb(60, 60, 60)" stroke-width="1px" opacity="0.25"></line><line x1="98.42857142857142" y1="0" x2="98.42857142857142" y2="378" fill="rgb(0, 0, 0)" stroke="rgb(60, 60, 60)" stroke-width="1px" opacity="0.25"></line><line x1="196.85714285714283" y1="0" x2="196.85714285714283" y2="378" fill="rgb(0, 0, 0)" stroke="rgb(60, 60, 60)" stroke-width="1px" opacity="0.25"></line><line x1="295.28571428571433" y1="0" x2="295.28571428571433" y2="378" fill="rgb(0, 0, 0)" stroke="rgb(60, 60, 60)" stroke-width="1px" opacity="0.25"></line><line x1="393.71428571428567" y1="0" x2="393.71428571428567" y2="378" fill="rgb(0, 0, 0)" stroke="rgb(60, 60, 60)" stroke-width="1px" opacity="0.25"></line><line x1="492.14285714285705" y1="0" x2="492.14285714285705" y2="378" fill="rgb(0, 0, 0)" stroke="rgb(60, 60, 60)" stroke-width="1px" opacity="0.25"></line><line x1="590.5714285714284" y1="0" x2="590.5714285714284" y2="378" fill="rgb(0, 0, 0)" stroke="rgb(60, 60, 60)" stroke-width="1px" opacity="0.25"></line><line x1="688.9999999999999" y1="0" x2="688.9999999999999" y2="378" fill="rgb(0, 0, 0)" stroke="rgb(60, 60, 60)" stroke-width="1px" opacity="0.25"></line><line x1="787.4285714285712" y1="0" x2="787.4285714285712" y2="378" fill="rgb(0, 0, 0)" stroke="rgb(60, 60, 60)" stroke-width="1px" opacity="0.25"></line><line x1="885.8571428571428" y1="0" x2="885.8571428571428" y2="378" fill="rgb(0, 0, 0)" stroke="rgb(60, 60, 60)" stroke-width="1px" opacity="0.25"></line><line x1="984.2857142857141" y1="0" x2="984.2857142857141" y2="378" fill="rgb(0, 0, 0)" stroke="rgb(60, 60, 60)" stroke-width="1px" opacity="0.25"></line><line x1="1082.7142857142858" y1="0" x2="1082.7142857142858" y2="378" fill="rgb(0, 0, 0)" stroke="rgb(60, 60, 60)" stroke-width="1px" opacity="0.25"></line><line x1="1181.1428571428573" y1="0" x2="1181.1428571428573" y2="378" fill="rgb(0, 0, 0)" stroke="rgb(60, 60, 60)" stroke-width="1px" opacity="0.25"></line><line x1="1279.5714285714284" y1="0" x2="1279.5714285714284" y2="378" fill="rgb(0, 0, 0)" stroke="rgb(60, 60, 60)" stroke-width="1px" opacity="0.25"></line><line x1="1378" y1="0" x2="1378" y2="378" fill="rgb(0, 0, 0)" stroke="rgb(60, 60, 60)" stroke-width="1px" opacity="0.25"></line></g><g><line x1="0" y1="378" x2="1378" y2="378" fill="rgb(0, 0, 0)" stroke="rgb(60, 60, 60)" stroke-width="1px" opacity="0.25"></line><line x1="0" y1="343.6363636363636" x2="1378" y2="343.6363636363636" fill="rgb(0, 0, 0)" stroke="rgb(60, 60, 60)" stroke-width="1px" opacity="0.25"></line><line x1="0" y1="309.27272727272725" x2="1378" y2="309.27272727272725" fill="rgb(0, 0, 0)" stroke="rgb(60, 60, 60)" stroke-width="1px" opacity="0.25"></line><line x1="0" y1="274.90909090909093" x2="1378" y2="274.90909090909093" fill="rgb(0, 0, 0)" stroke="rgb(60, 60, 60)" stroke-width="1px" opacity="0.25"></line><line x1="0" y1="240.54545454545453" x2="1378" y2="240.54545454545453" fill="rgb(0, 0, 0)" stroke="rgb(60, 60, 60)" stroke-width="1px" opacity="0.25"></line><line x1="0" y1="206.18181818181816" x2="1378" y2="206.18181818181816" fill="rgb(0, 0, 0)" stroke="rgb(60, 60, 60)" stroke-width="1px" opacity="0.25"></line><line x1="0" y1="171.81818181818178" x2="1378" y2="171.81818181818178" fill="rgb(0, 0, 0)" stroke="rgb(60, 60, 60)" stroke-width="1px" opacity="0.25"></line><line x1="0" y1="137.4545454545455" x2="1378" y2="137.4545454545455" fill="rgb(0, 0, 0)" stroke="rgb(60, 60, 60)" stroke-width="1px" opacity="0.25"></line><line x1="0" y1="103.09090909090907" x2="1378" y2="103.09090909090907" fill="rgb(0, 0, 0)" stroke="rgb(60, 60, 60)" stroke-width="1px" opacity="0.25"></line><line x1="0" y1="68.72727272727275" x2="1378" y2="68.72727272727275" fill="rgb(0, 0, 0)" stroke="rgb(60, 60, 60)" stroke-width="1px" opacity="0.25"></line><line x1="0" y1="34.363636363636374" x2="1378" y2="34.363636363636374" fill="rgb(0, 0, 0)" stroke="rgb(60, 60, 60)" stroke-width="1px" opacity="0.25"></line><line x1="0" y1="0" x2="1378" y2="0" fill="rgb(0, 0, 0)" stroke="rgb(60, 60, 60)" stroke-width="1px" opacity="0.25"></line></g></g></g><g><g><line x1="0" y1="343.6363636363636" x2="1378" y2="343.6363636363636" fill="rgb(0, 0, 0)" stroke="rgb(153, 153, 153)" stroke-width="1.5px"></line></g></g><g><g><line x1="98.42857142857142" y1="0" x2="98.42857142857142" y2="378" fill="rgb(0, 0, 0)" stroke="rgb(153, 153, 153)" stroke-width="1.5px"></line></g></g><g><g><g><g><g><path stroke="rgb(255, 112, 67)" stroke-width="2px" d="M106.25528333333331,-8.701102841937086L106.61564126984126,1.992961204462972L109.42987817460318,16.822553544976586L109.62782896825397,3.3673780735159653L113.58000952380951,18.404553452107336L115.35746547619047,22.938396728514192L115.90647817460317,36.07487946769646L116.58727579365079,42.73085462713533L117.87258888888888,53.90264428682002L118.48475992063491,61.33827427123725L118.76965595238094,70.06502412251518L119.61668849206349,77.68276694986139L121.32551785714284,82.61510218084499L121.42312619047618,87.91355087124941L122.2715257936508,93.9042640862404L122.94084007936507,98.14128024610119L124.08370515873015,102.47464388880468L125.17571547619048,107.4545441853038L125.2908222222222,110.26115205772737L126.08590634920634,112.97866161377425L126.49465833333335,116.4577951807716L126.6444884920635,119.33597814821792L127.51694841269843,113.30342936461528L130.20049404761903,116.90676953522046L130.87609682539681,120.13755041834241L134.0878757936508,123.561711736423L135.80272023809525,127.3534696348892L136.01762261904761,129.84914324411565L136.27271666666664,131.910458962042L138.045798015873,135.19360641134946L138.1748488095238,138.30061659402503L139.63569285714286,140.76251863467658L143.09545714285713,141.853217813838L143.63790793650793,143.86799963922078L148.40294444444444,146.040472252463L149.73692499999999,147.85159635283333L150.137748015873,150.20368820227318L150.44615753968253,152.11596866672375L152.67720515873015,153.71992885623106L154.92575119047618,154.93031522392988L157.510048015873,157.0856682703888L158.39344444444444,159.0256917350507L159.1141603174603,161.1651025343203L159.9084242063492,162.30086895600002L167.12952698412695,163.2786885275744L167.52296785714285,165.0695490338587L167.84668849206346,166.84047936016643L169.04532976190475,168.43615079347134L169.74389920634923,170.22179397265495L170.73091904761904,170.7414313539512L170.8750075396825,171.56132085313354L171.72395396825394,172.6275580732537L171.9724861111111,174.16244953930436L172.77139801587302,175.580402904623L173.00379880952383,177.1980978887506L173.65452103174601,177.99450538173576L177.13752539682537,179.05086952507307L177.2217365079365,180.2958642845621L180.57486984126982,181.27870010905153L180.82285515873016,182.30732938682263L181.0456865079365,183.46991574075284L181.89490634920634,184.4660626853564L181.99661587301586,185.4681783269385L183.5952599206349,186.68225761187944L184.06306904761905,187.3932630697219L184.2003222222222,187.70650285572964L185.74838492063492,188.54235622506718L186.39664642857142,189.31145244936204L187.62208214285712,189.80771537985962L189.6817,190.52821504290898L189.81403174603173,191.55166193680105L193.1772813492063,192.52740907597286L196.12713095238095,192.98777481042094L207.0950813492063,191.83942522077203L207.17546468253968,189.97846811569562L207.38954682539682,189.01898420536764L208.04272976190478,188.5218565663035L209.97630436507936,187.3783385222045L210.57261746031745,187.43044481047016L210.65737539682536,187.5430097866668L211.20310714285716,186.19104131335317L212.23852103174602,186.13376280110649L212.7139857142857,185.89345299162974L213.2520619047619,186.11356596548111L213.2936206349206,186.34700537053288L215.71687738095235,185.87217410637268L215.84647499999997,186.3181299056226L217.53425158730158,185.23705866490636L219.33166666666665,185.68448443648106L220.2243591269841,186.12318262688234L221.043776984127,184.80717514091006L221.07166507936506,185.41785398231443L221.53263888888887,185.42203512205336L222.07044166666665,185.60009942349788L222.70503253968252,185.57993854756518L224.04967619047616,185.9362906127851L224.09068809523805,186.319295886052L224.20825555555555,186.71943431184346L224.37831825396822,187.28505776554408L224.52486746031744,187.72986205565581L224.6547384920635,187.10824200624688L225.0905583333333,187.2658202069152L226.26705317460315,187.52102969701676L226.77669444444444,187.5454206705403L227.0388972222222,187.90260664583968L230.31875595238094,188.18978360556335L231.94556150793653,188.18984542969747L232.23510555555555,188.48771083932323L234.39670634920634,188.56458447175032L234.51372698412695,188.75649256898282L235.39767023809523,189.4099123035936L236.67314047619047,190.08428089033936L237.7317944444444,190.4703738509791L238.71361944444445,190.67474045410447L239.0665952380952,190.39794817280264L242.07796269841268,190.78053405071708L242.5129623015873,191.3658769499618L244.1214492063492,191.58587643910246L245.49644166666664,191.771219412892L248.42605873015873,192.05885466742416L249.21676825396824,192.29677480455288L249.45873849206347,192.71430587441364L250.26202500000002,193.06085961187205L251.0500003968254,193.49581549372402L254.03730753968253,194.14213690721746L255.31633214285716,194.47577378480116L259.38772063492064,194.75764642067068L259.64500198412696,195.06567188004882L259.9651682539682,195.5440246760939L260.57187103174607,195.79607902404018L260.8327067460317,196.47673322548883L261.39374960317457,196.6823803604303L261.5731083333333,197.11513936631218L261.7554746031746,197.36690081407204L263.6442095238095,197.61908918076375L264.15385079365075,198.01119756888014L265.59774325396825,198.34124970282022L266.0622714285714,198.743584041342L266.5319944444444,199.2829815731413L269.1761686507936,199.71792304724784L269.42743492063494,199.61620600618625L272.59136666666666,199.98545628737824L274.22473412698406,200.118241540155L275.0474329365079,200.34189229658026L275.73916706349206,200.03482046972496L279.62217420634926,200.22099625334877L279.89722738095236,200.49980596233692L282.2078380952381,200.55077671774217L284.97204047619044,200.62274008367504L286.1482619047619,200.979206887977L286.49194166666666,201.16450474880725L288.5236714285714,201.40978529313327L290.44548928571425,201.7192744802857L291.8759845238095,202.27152510261752L292.72575119047616,202.54952622335787L292.84413888888884,202.92574727600766L293.35514722222223,203.33982913031554L293.4021742063492,203.55554177341682L294.7377952380952,203.89129735452408L296.13083293650794,204.21580290838872L299.33878412698414,204.60650192448946L301.21548888888884,204.80762034056215L302.89779722222215,205.29180504200795L304.9194107142857,205.75458306884644L305.5367765873016,205.92611140068647L305.8438190476191,206.35185329742814L306.49317420634924,206.53858115911342L306.61046825396824,206.98554504836943L313.463830952381,206.94797724852103L313.60053730158734,207.2300621755958L313.65713373015865,207.5824407192534L315.31756904761903,207.70456170266283L315.49009246031744,207.8749024117727L318.66167976190474,208.18376600835072L318.684373015873,208.5964514794154L319.0592218253968,208.792317940175L319.6579956349206,209.06089488875978L322.24311269841263,209.37891291536044L322.4804349206349,209.63783257856483L325.4939896825397,209.93894437408747L327.1057575396825,210.28922741021225L330.4269015873016,210.30518584747068L330.987671031746,210.4704855592737L331.69280238095234,210.69070289955775L333.9935702380952,210.92453394383762L335.25099523809524,210.99653736770063L336.6068488095238,211.03437454102914L337.7004996031746,211.1413844131317L337.83201111111106,211.42274439475986L341.820828968254,211.63228183592298L342.4701841269841,212.05828025475404L342.60962460317455,212.2939822781364L344.3427876984127,212.654258976595L347.252719047619,212.81042280404012L347.58682936507927,213.16431853307165L348.3649619047619,213.38466654373107L350.43578968253956,213.50185258703075L351.28911071428564,213.62530222522454L352.24933611111106,213.9626350316095L352.88146626984127,214.1736832332077L354.9818226190476,214.4595924404647L355.4086198412698,214.77493431420146L355.68230595238094,215.06934570614823L356.90774166666654,215.39886078880306L358.3128095238095,215.59717188501216L360.1526035714286,215.86059812013326L360.351648015873,216.0538859966682L360.4407805555556,216.34963796427064L360.5586214285714,216.41172818677308L360.66880674603175,216.68297027279937L361.6809805555555,217.01206076622103L363.1907654761905,217.19757727808957L364.2283666666667,217.33856129729008L368.4903238095238,217.67672065323956L373.038544047619,217.99976103035118L375.5386297619047,218.21056879776089L376.6924313492063,218.39515444520075L377.3751428571428,218.7263239215299L377.7508119047619,218.85577949607804L378.13632380952384,219.1443454608492L378.1551892857143,219.44527781492326L382.6572027777778,219.51695129270553L384.6096428571429,219.5525600989956L384.8622761904762,219.8114700192221L385.19857380952374,220.02730160913308L385.2475146825396,220.18705506304684L385.3574265873016,220.30190251809668L385.45175396825397,220.58881050924956L389.006119047619,220.65579617529866L389.34487738095237,220.9876624926711L390.41610833333334,221.1215144573509L390.4759857142857,221.38396288813055L391.04987896825395,221.6008599201267L391.17974999999996,221.8073101431059L392.5809900793651,222.06883502562158L392.6654746031746,222.3383697210808L398.92006349206343,222.617971406436L399.03216269841266,222.79950476352215L400.8828932539682,223.02680884796672L405.0032226190476,223.18723206489855L405.6173075396825,223.27112161483922L407.37917896825394,223.51220254634455L408.9053686507936,223.6368425194645L410.8758539682539,223.90042811227352L413.5856472222222,224.17451450489364L413.95694166666664,224.27472554549618L414.4783396825396,224.4920996231872L415.83063888888887,224.77319760095648L416.8657793650793,224.70065110852826L418.67686507936503,224.9130166869692L420.7225388888889,224.95569397652466L421.2155019841269,225.24382636180826L423.14688928571417,225.38723209753505L423.20539960317456,225.50261311691474L425.34977539682535,225.567157703475L425.5540146825396,225.6568743882613L426.3581214285714,225.92594374473677L430.13531785714275,226.20870142417908L431.2005337301588,226.41321398697897L431.2721678571428,226.59258689674502L433.0466162698412,226.80703403387406L435.577871031746,227.00820622129876L437.1374170634921,227.2893722695601L438.0342107142857,227.34222305396207L439.6254726190475,227.5678091268488L441.86663650793645,227.73917196676047L442.9652087301587,227.9425062646804L444.00417698412696,228.034196792277L445.22742539682537,228.25202566629613L445.59516547619046,228.33858298736382L448.44521944444443,228.4648826977345L449.26217658730155,228.5786473443131L449.55336111111103,228.8154319144668L451.89951547619046,228.9595037459853L454.0239321428571,229.19403205939017L454.6590698412698,229.2282199174586L455.4415769841269,229.45697577468206L456.35231468253966,229.57326195554805L458.2683908730159,229.72677269519136L459.7565761904762,229.93583545685462L460.17845198412687,230.01687242484047L461.0429829365079,230.17251065358388L463.3680845238095,230.34407378126434L464.49372460317466,230.35732393015746L464.6952297619048,230.60543307553885L464.9626273809524,230.7222778633674L465.2201821428571,230.88369274900697L466.09674325396827,231.01495826010057L466.7086408730159,231.146953242005L468.2577972222222,231.21395040974033L468.31740119047606,231.433395215238L471.05781666666667,231.64493303311556L471.69104047619044,231.75442414630726L471.8014992063492,231.9666213616229L471.98550595238083,232.1903340347789L472.1069011904761,232.26732505381838L472.1369765873015,232.4806756049931L473.84963373015876,232.63724918760929L475.43406031746036,232.8168867263899L476.5000964285714,232.9582852840848L476.705155952381,233.14782539095512L478.71665317460315,233.21362794271127L478.81234761904756,233.361571802726L479.38295992063485,233.56587450223194L480.50504563492063,233.70629740198433L481.0822198412698,233.818664786097L481.5199535714286,234.03571559823527L481.5601452380951,234.1162852942006L483.08414761904754,234.2773929474634L483.5864067460317,234.4479339022208L484.13350555555553,234.63857718615537L484.4583198412698,234.81663378989808L488.2210253968253,235.01605271376152L490.61256626984124,235.20307864319219L492.7402638888888,235.41135714415867L492.7432714285714,235.57883799651248L492.94559682539676,235.7273251881585L494.8127321428571,235.9226659051877L496.2664674603175,236.13075738432497L496.90543293650796,236.21730898813195L497.7273115079364,236.37783173255062L499.63873968253966,236.54966381081763L500.0742861111111,236.61044274867865L501.3918619047619,236.67289194085953L502.2115531746031,236.7794652572542L504.9049416666666,236.89828223189738L505.5966757936507,237.01306354803344L507.09771150793654,237.08808483546736L507.9608753968254,237.2786523706961L508.58781071428564,237.44142360598306L509.2841928571428,237.61152925504112L510.4095595238095,237.7677805219301L513.1179857142857,237.9768666757896L514.5689869047619,237.96062615504468L514.6023432539682,238.0795331371609L515.8056325396825,238.28001414058812L516.425459126984,238.21481038843189L518.8238353174603,238.41560494309726L519.015771031746,238.62614074953876L519.2793408730158,238.7752540206843L520.210311111111,238.8797486939856L520.5561781746031,239.06155185838742L522.167946031746,239.18668065955686L522.8170277777778,239.26052193239747L523.2285138888888,239.43685419233273L524.0419166666667,239.47828278635816L526.6721468253968,239.63243209354047L527.977419047619,239.80162856502923L530.3058015873015,239.97195294111486L534.7143079365079,240.14045327692475L534.7175888888888,240.2977030443647L535.2020761904762,240.45763958341007L535.3040591269842,240.57499624500812L535.4497880952381,240.66746105294115L536.9598464285713,240.80957852248036L538.3479626984126,241.0036340796241L539.6958873015872,241.12208756536313L539.736078968254,241.26219013840742L541.2800404761904,241.39573934024855L543.3095829365079,241.60313489673732L543.4301579365078,241.80092117704365L545.3708412698412,241.9979787596156L547.3038690476191,242.15174315294325L549.5819436507936,242.29250727551616L557.7796765873015,242.3738754034441L558.0910936507935,242.57707222025064L558.9206277777778,242.59978866432624L559.6410702380952,242.53543294804416L560.6122321428571,242.6306995196828L560.9693091269841,242.80341715530483L563.6041873015872,242.96718226299208L564.228115079365,242.99759353610895L564.554023015873,243.14539291492522L564.9679698412698,243.24744625659756L565.1153392857142,243.28688875722332L566.548842063492,243.38940085100558L567.0295015873015,243.48096438289107L572.9754075396825,243.62503616248L573.1451968253969,243.7624473686869L573.6422611111111,243.92962042194014L576.6230063492063,244.11832407701456L577.3429019841269,244.2928767077116L578.8187837301588,244.4569208940747L580.7742313492063,244.56978242712137L581.2261825396824,244.72873069496598L582.8431452380952,244.84391222621994L582.8789623015872,244.9343907356707L583.150461111111,244.9757097800086L584.4874492063491,245.13104158721853L584.8860849206349,245.23647044415614L587.0884242063491,245.31600686567495L587.9040142857142,245.48886081864336L589.1830388888887,245.6160496660381L589.6579567460317,245.68666049358757L590.8590587301586,245.7710014345505L590.878471031746,245.9100353587032L592.0880488095237,246.07157514406597L592.1903051587301,246.22591391791678L594.0648226190476,246.35711629847714L594.4582634920635,246.43072911181778L595.4403619047617,246.51220452233255L599.0105849206349,246.52784502279385L600.2393015873015,246.63274532112183L600.7598793650792,246.77919294175345L600.9354103174603,246.87099417555265L602.8320742063491,246.9537736425977L602.956476984127,247.07941595365347L603.0704900793651,247.0617833776859L603.1186107142856,247.1484115736838L603.3742515873015,247.22634208386674L603.4923658730157,247.38440882611067L605.9353083333333,247.52439004325808L606.7150813492062,247.5437026546777L607.6031257936507,247.67730269199637L609.7543369047619,247.75860626064508L609.8891293650793,247.90246230591444L610.9551654761904,248.00346864882277L610.9587198412698,248.08692951820777L612.8332373015871,248.1948278538718L613.2578472222222,248.34255976930862L614.4228587301586,248.46665468384788L614.9437099206349,248.53964657386646L616.8070174603173,248.68415229581822L617.2510396825396,248.82615401327203L618.3947249999999,248.9684451753978L618.6200170634919,249.09011218936553L619.0230273809523,249.2405630099518L623.8132178571427,249.37728449538355L624.0951063492063,249.3671708357438L625.9253309523809,249.48399724317142L627.3979317460316,249.4806803500905L630.0727281746032,249.52903979520275L632.7032317460316,249.55675585815143L633.0439039682539,249.61695141143426L633.548076984127,249.70842053032771L634.0147924603174,249.8081370504883L634.2173912698411,249.93845636604095L634.4708448412697,249.8798335481246L634.4847888888887,249.99342219510038L637.1612257936507,250.15356623711853L638.2245277777777,250.17086928506325L638.9769595238093,250.33177982916948L642.1594833333332,250.4296697798103L642.5611265873015,250.51341346260912L643.162361111111,250.64041845459144L643.2115753968253,250.72006254252807L643.3203936507936,250.83066920788406L643.45190515873,250.93697814781734L643.7892964285714,250.9932492125548L643.9648273809523,251.12429970136375L645.0013349206349,251.14127370766505L648.3085349206349,251.22033707934912L649.3417615079364,251.23229531503785L652.1406873015871,251.35532065124949L652.3859384920634,251.36544579029032L652.5866234126984,251.40625639368508L656.1144674603174,251.50902243499667L658.0089440476189,251.5139408853595L659.4572111111111,251.53949966096724L660.1574210317459,251.6436965395025L660.2170249999999,251.6681972914473L663.4493099206348,251.793950298205L664.9618289682538,251.8820733381218L665.0219797619047,252.0344937963926L665.2442642857142,252.1207944021509L665.7560928571428,252.18428551353708L666.0016174603173,252.21576677860048L666.1435186507936,252.2506974258873L666.8524777777777,252.38266981923437L667.8009464285714,252.47183680178205L672.2056249999999,252.6087116578764L673.3011896825396,252.73396666600672L673.7197845238094,252.81223493505007L674.5791206349206,252.8800458188946L676.1476892857143,253.02636546758202L676.3262277777777,253.05071066396303L676.9342976190476,253.13659372508448L677.064442063492,253.17315489816087L678.0074424603174,253.2507184536989L679.4557095238093,253.32988198842025L679.5464825396824,253.4003062241303L680.1578333333332,253.45723851050508L682.3503297619047,253.5732646380043L682.9983178571428,253.70779347657194L683.1949015873015,253.79248132960234L684.4299067460316,253.84119513197112L685.1809714285713,253.90680308441785L686.9242507936508,253.95634169212792L691.3073297619047,254.0174891397764L694.3091277777777,254.15097458451967L694.8157615079365,254.25383629206425L695.4837087301588,254.32618625918087L697.1914444444444,254.38667761459806L697.2537825396824,254.50403422971047L697.9578202380952,254.55467700788284L699.1140825396825,254.65193831500812L699.309846031746,254.748721178467L700.1445749999999,254.8853098205295L700.7345996031746,254.94276822818875L701.5903813492063,254.98397468441428L703.1425452380951,255.0754696297127L703.5619603174603,255.1809185207315L704.2700992063492,255.26384321015286L705.4583507936508,255.34399543065558L706.0412666666666,255.3484535615005L707.5207027777776,255.3550517207093L708.3289107142856,255.45775425653363L709.4993904761903,255.4941846555774L709.8078,255.55380118548538L710.5605051587302,255.57806173497008L711.5888103174602,255.66486140685208L714.1282674603174,255.77659264387853L715.4209626984126,255.86260988178844L715.5584892857142,255.9690634803561L715.5962202380953,256.05508056492084L717.491517063492,256.1602850539709L718.0695115079365,256.25946442132596L719.990509126984,256.26308834027714L720.4233214285714,256.3280835078407L720.6754079365078,256.3225849063201L721.0278369047619,256.3317632721441L721.9612678571427,256.4283582291494L722.787521031746,256.5055563773816L725.2405797619048,256.6105676029229L726.082144047619,256.7121024610087L727.743673015873,256.75253705332835L728.1439492063492,256.7995942534418L730.9458825396825,256.8811609620002L731.5706305555553,256.93753777956863L732.6642813492064,257.01511316413826L734.5850055555554,257.0871193226453L736.533071031746,257.17209780114575L736.8299972222221,257.2773848891465L738.2902944444444,257.3488599732659L740.1957075396824,257.43962835778086L740.3362416666665,257.5690309450812L742.0193702380951,257.64263362533234L744.6031202380951,257.72717541523105L745.8662869047618,257.74570113450784L748.4694492063492,257.8424545765921L748.4853071428571,257.9377153020127L748.6840781746031,258.0600007587298L749.9442373015872,258.1747220748838L750.5525805555556,258.2510019436003L752.0497884920634,258.34587652439683L753.3752932539683,258.46362015413445L754.3891075396824,258.5228328112243L754.5534285714284,258.57613797898966L754.7180230158729,258.5816642004489L754.7327873015872,258.67390250466974L755.8524123015873,258.7898963631412L755.994586904762,258.8904267932368L755.9986880952381,258.9472533140383L756.6239829365078,259.0434819351384L756.9616476190475,259.1234814527367L758.6920765873015,259.19308153710494L760.5731559523808,259.27382968793444L761.5571682539681,259.2105306303974L763.3873928571429,259.21929727006795L764.6202107142857,259.2491422589927L765.5068880952381,259.32386440895175L765.5462595238095,259.3994415370588L767.0194071428571,259.4698962703716L767.1071726190474,259.53600636346516L768.3943996031745,259.61010756338993L768.5628218253968,259.72069427666963L770.073426984127,259.8201529087959L770.3637912698412,259.92265506723345L771.3059714285713,259.984436523209L771.4599027777778,260.07847732030416L775.7232269841269,260.17881995861995L775.7817373015873,260.1151221606175L775.8033369047617,260.1843774711847L776.1543988095237,260.1489640684119L777.4916603174602,260.24752872602716L778.2337023809523,260.30669706007643L779.490307142857,260.3829429542781L780.0010420634919,260.40970022460397L785.9332773809523,260.44644801953257L790.2742507936508,260.5009332543395L791.7025587301587,260.59064670385175L794.6436591269842,260.6900614792918L797.1002722222222,260.757338373269L797.6635023809523,260.784892627049L798.3812107142857,260.8991661499507L801.3860162698413,260.97034829776055L802.1357138888889,260.98662323506034L802.2959337301586,261.0711630898833L803.4584845238094,261.1132271989653L807.4068373015872,261.1189267122287L808.0725972222222,261.2005855264097L809.6190194444443,261.2701566653402L809.6365178571427,261.3809566908838L811.0500615079363,261.4420040646548L811.1394674603174,261.50463514009425L812.4037277777777,261.5762259061984L812.4132972222221,261.68420999716255L814.2727769841268,261.77655100335426L814.4923273809522,261.82440080114725L818.1784773809522,261.904923045151L819.6663892857142,262.00568342739234L820.1076773809522,262.09436449247374L821.5474686507936,262.15674533976534L821.9296996031745,262.2662167365229L823.5575988095237,262.3591141451883L824.3917809523808,262.41942463338046L827.2702698412697,262.47163242850536L829.5672099206348,262.4687722007212L830.1074734126983,262.5402177868249L831.8860230158729,262.62305367092574L834.1291007936508,262.6925022922332L837.1166813492063,262.7538176533933L839.1065789682539,262.8340218225608L839.7679642857142,262.89494556358227L841.4792543650793,262.9891007992678L841.7687984126983,263.07928195427047L841.8122710317459,263.19588088119224L842.8094071428569,263.25736202225585L843.4289603174601,263.3503090086691L844.9078496031746,263.4255888391339L846.7170214285713,263.36708821796486L846.749284126984,263.4214408972716L847.4929666666667,263.4957143322533L847.8831265873014,263.5453379231619L851.1911468253968,263.5583490453825L852.8198662698412,263.6347476677794L857.5654904761903,263.6828233909934L857.7948837301586,263.7152402793934L860.0737785714284,263.7601014324206L860.9142492063492,263.7602578816193L861.033457142857,263.7281712938809L862.7953285714285,263.75107932871276L862.9984742063492,263.8063522710857L863.1781063492061,263.87023995582484L865.2656123015872,263.8938503451369L867.2478543650792,263.9058040372327L867.4529138888888,263.98656390135056L867.5420464285713,264.02495601608575L872.3754361111111,264.0875295060766L873.1967678571427,264.17400696343304L873.8021035714283,264.2317869026393L874.9742238095237,264.3225642098262L875.0666373015872,264.37428550652277L875.5311654761905,264.45330839849197L878.6220960317459,264.5074877182905L879.3649583333333,264.5668736399007L880.416776984127,264.5287804058097L880.6735115079364,264.55338319816576L881.979057142857,264.5994894494926L883.5916452380951,264.6348696911337L884.0064123015871,264.6381569193443L885.6840726190475,264.707383481515L888.0028857142855,264.7456037553689L888.3252392857142,264.8056405946446L893.4380567460316,264.89711801205885L898.0516226190475,264.93826162158564L899.2849873015872,265.03017693613174L903.0594496031745,265.0653660476532L903.3719603174602,265.1403894497168L903.4132456349205,265.24162473513877L904.1809884920633,265.2931803012708L906.836099206349,265.3254492312242L908.6302333333332,265.268753455037L908.6395293650793,265.3271173930029L909.3821182539682,265.4039106220033L911.0163059523808,265.46576415263786L911.0272424603174,265.52314917423166L912.295057142857,265.586577726741L912.469221031746,265.6078396656463L913.4507726190475,265.6771110330876L913.9144805555554,265.7092531495998L914.3913123015872,265.7879982939761L915.109294047619,265.8607979115649L915.6416285714284,265.9028995111642L916.7049305555554,265.9766276763098L917.1309075396825,266.05356288875674L919.3299658730157,266.1282906080867L923.0021718253968,266.1164472355516L923.326986111111,266.1858101982614L923.3712789682539,266.26507564396394L924.1253511904761,266.32748438897596L927.7349456349206,266.3790286476711L927.741780952381,266.4309101248086L927.7797853174601,266.4970234962793L928.2639992063491,266.5083491196708L928.9180023809522,266.5196088444472L929.3283948412696,266.5411448251772L929.4891615079365,266.6127200471103L930.2744027777777,266.6934869129425L931.1711964285713,266.71528514248723L932.7654658730157,266.78479068606185L933.3943150793649,266.8609526447174L933.8993083333331,266.8767001469894L934.2170138888887,266.90260657008713L937.165223015873,266.97117783714145L938.5478710317459,266.9998329785972L939.0132194444443,267.0333754539691L939.562232142857,267.10975794995744L941.2478214285713,267.175759404568L941.4012059523809,267.21009062145436L943.4939067460317,267.2141780647316L944.5123690476189,267.2903255602491L945.5084115079364,267.3626764226575L946.1304253968253,267.38019771056065L947.9765079365078,267.4526376188846L948.3702222222222,267.45881849364747L950.5616249999999,267.47219737398945L954.3049182539681,267.5390504100993L955.4401277777777,267.61097767301777L955.7211960317459,267.6436650155151L957.2591424603173,267.6803875337359L958.2229222222221,267.73473098950416L962.5340936507935,267.75988467665746L962.8343007936506,267.818239972835L966.3903063492063,267.880765647816L967.1547682539682,267.9550166087663L969.941117063492,268.01398808433123L971.1189789682539,268.0726724264947L974.0844130952379,268.1178765897405L975.9868186507935,268.1921085862317L976.4201777777776,268.278714048851L976.6402749999999,268.3565418678508L978.6949714285713,268.37464055819527L979.1523908730159,268.41612142053L979.5458317460317,268.4689840660031L980.9317607142856,268.52782756486585L981.1543186507936,268.5578287532727L983.3629464285713,268.5561173940395L984.5476436507936,268.63308698441205L984.6097083333333,268.6881764298567L985.1967253968254,268.74498612657976L987.2459535714285,268.7209292525995L988.0104154761904,268.73060053344784L988.387725,268.8119191623028L988.8205373015873,268.85722376774544L990.1567051587302,268.8609089906475L990.4703095238095,268.93706310517535L990.5102277777778,269.00627300640434L991.2998436507936,269.0647306177001L992.2494059523809,269.06319776029255L993.199515079365,269.15524246574785L994.4481908730158,269.1845276140581L994.679498015873,269.2521696199932L995.170547222222,269.26310932416243L995.9298142857142,269.30452219628523L998.5302424603174,269.36386978842495L998.9100126984127,269.4068142114638L999.4888273809523,269.44342871869117L999.7477492063493,269.5007389051833L1001.2088666666667,269.52443491336135L1002.1228853174601,269.5768605999839L1002.2940416666667,269.65008459821667L1003.9440873015873,269.6975631919346L1005.5028130952381,269.7170299198421L1006.2530575396825,269.76878967923545L1006.9759607142859,269.8072968472003L1010.8868559523809,269.81206019745537L1011.4224714285715,269.8421695157595L1011.8692277777776,269.8936135834318L1012.0496801587301,269.8766291345609L1012.6085357142857,269.93178783723016L1014.0138769841269,269.9707213272037L1014.5423837301587,270.0404115412741L1014.577107142857,270.0908298357709L1016.8447920634919,270.1520018442747L1017.85450515873,270.2363771077082L1017.9715257936508,270.2665040546908L1018.402971031746,270.33018828716934L1018.5872511904761,270.3648882374781L1019.5934099206347,270.30915622468297L1020.9673087301587,270.3766162998537L1025.4277634920634,270.42579248429405L1026.1823825396825,270.4811160738527L1026.2340575396825,270.5520229774786L1026.469465873016,270.6177386780648L1027.3364575396824,270.6731380154723L1027.3741884920635,270.72692202901493L1028.9129551587303,270.7458267343625L1031.0956087301586,270.7897197587306L1031.9584992063492,270.82774408063295L1034.3404706349206,270.83464623642953L1034.6119694444444,270.92488493861L1035.6082853174603,270.975742247512L1035.8097904761905,271.0347596512079L1036.8050126984126,271.08281133094994L1037.132561111111,271.1540595531228L1038.4331853174604,271.1852170284602L1039.0475436507936,271.24758492921535L1039.6599880952378,271.2624269354521L1040.0837777777779,271.3061982692876L1041.005451984127,271.3501993930272L1041.4598638888888,271.35006750309105L1041.714957936508,271.4253175996157L1043.4697206349206,271.50431115067L1043.4888595238097,271.57992229843785L1044.005882936508,271.6516936260856L1044.011351190476,271.7143438745445L1044.2987079365078,271.7687671973191L1045.7160793650792,271.8025026924082L1047.3423380952381,271.84547298821695L1047.4547107142855,271.8888094920692L1049.3593035714284,271.8975482614734L1050.2451607142857,271.95942528337747L1051.6737420634918,272.01433696860727L1053.009363095238,272.0923179972185L1053.8457325396823,272.1574416802325L1054.6599555555556,272.2092058909727L1055.3456746031745,272.27169346659264L1055.803094047619,272.31764319129786L1056.9667384920633,272.35289999693606L1059.0184273809525,272.36819903980864L1059.9083857142857,272.4162719377349L1061.163896825397,272.48157023767635L1061.810517857143,272.5301919007212L1064.7029507936509,272.59382294481367L1068.0571777777777,272.64880087922273L1070.328963888889,272.6899556888034L1070.3388067460317,272.73707718804525L1070.7295134920635,272.7799586274629L1072.0446285714286,272.8161502383716L1075.040138095238,272.85330051300684L1077.183967063492,272.88707423200026L1079.4601277777776,272.9178387897281L1079.5612904761904,272.96179453050775L1080.5351865079365,273.0152724208316L1081.7896039682537,273.02912356385633L1082.2101126984128,273.0544442117483L1082.8135345238095,273.07799917581065L1084.3255067460316,273.14357236253545L1084.352301190476,273.2039891153586L1084.4171000000001,273.2645134529125L1085.7497134920634,273.32227472094826L1087.7048876984127,273.3652238293522L1088.219176984127,273.4119608707647L1089.2668944444445,273.44061493225223L1090.477019047619,273.49884856462376L1091.5250099206348,273.5418777566009L1092.096715873016,273.5978624574259L1093.9370567460317,273.6393158147195L1095.3372031746032,273.6757788526734L1096.8612055555557,273.71074872568227L1098.8762571428572,273.69964805350514L1101.0783230158731,273.74455040119665L1102.5164738095239,273.7865208528493L1102.7382115079365,273.8264432080624L1103.019553174603,273.86151727689196L1105.1365876984125,273.9069555154733L1107.377478174603,273.96373031696623L1107.449659126984,274.0097519129578L1109.149465873016,274.0664839841557L1110.8093543650793,274.11375264253786L1110.8312273809524,274.1873392438962L1111.6850952380953,274.23382869216164L1116.4968853174603,274.27885322941427L1117.0759734126984,274.2682372148082L1117.203657142857,274.3308631042754L1118.0454948412696,274.37981519053795L1118.4044857142856,274.45639891999326L1119.9213793650795,274.47471237128775L1120.421998015873,274.5120246756576L1120.563899206349,274.5568842133125L1123.366926190476,274.55980944700514L1123.6553765873016,274.60356248794693L1130.2016968253968,274.65510069962124L1131.3150333333333,274.6991747897973L1132.3441587301586,274.74988762416683L1134.0704865079365,274.8003435322099L1134.5440373015872,274.84811574155106L1135.279244047619,274.86935981092597L1139.4222666666667,274.8928267895252L1140.0079166666667,274.9267013338456L1144.684094047619,274.96983570477687L1145.7156801587303,275.0046738013534L1146.021628968254,275.07645930609567L1146.1473988095238,275.1497695239599L1149.6066162698412,275.1540600263835L1149.6774301587302,275.2184635948771L1149.8740138888888,275.22969106487074L1151.9407404761905,275.2531306831197L1152.5255702380953,275.27562612425794L1153.537744047619,275.33648649467574L1153.7726055555556,275.3734539168491L1157.7956,275.40356386519454L1158.1556845238094,275.43100292586996L1158.7763313492064,275.4431693322874L1158.8971797619047,275.4921166483491L1159.7141369047617,275.5469691125876L1160.441688095238,275.5857754450575L1161.6200968253968,275.6243600466426L1163.708423015873,275.66023764338996L1163.9074674603173,275.67048216970124L1165.719920238095,275.7071410834278L1168.8329972222223,275.72647473524825L1169.6327293650795,275.7266009730611L1170.552763095238,275.78096100847455L1172.878138095238,275.82647672891187L1174.5642742063492,275.8976205904598L1176.0644896825397,275.9167684258047L1177.0219809523808,275.95792304988265L1179.550228174603,275.9838754830872L1180.4478420634919,275.9961877741231L1182.4257095238095,276.0339321833114L1183.5281095238095,276.029648262358L1183.8794448412698,276.04638525886725L1184.7972912698413,276.08612223471573L1185.0348869047618,276.10419519370464L1185.5018757936507,276.1427357916125L1185.6675638888887,276.1885709079129L1187.8915027777778,276.2297123770338L1187.9489194444443,276.27097226138295L1188.4457103174602,276.2828167773396L1188.5266404761906,276.30944165372796L1189.1297888888887,276.3290332930024L1189.7542634920635,276.3509749946664L1190.1296591269843,276.3903899239562L1194.465711111111,276.40713036515336L1195.6990757936508,276.4463119967326L1196.2489087301587,276.5019341353496L1197.5801551587301,276.5394070960509L1198.095538095238,276.597861697682L1198.4332027777778,276.62911165358724L1200.259873015873,276.6754446176435L1200.786465873016,276.7189811449167L1201.6004154761904,276.76062261942633L1201.7805944444444,276.77105211475725L1202.1565369047619,276.8186845084372L1202.2970710317459,276.8637718135508L1203.4631761904764,276.8928622899495L1205.284378174603,276.86944834688916L1205.4336615079364,276.8899892055744L1206.8461115079365,276.91510254607124L1207.4257464285713,276.9698016894801L1208.2804345238096,277.01552351031575L1210.377509920635,277.04396618664254L1211.462684920635,277.0577014423176L1212.3444408730159,277.1115230617981L1213.453402777778,277.1621765815039L1215.497436111111,277.2149712316118L1215.5280583333333,277.2603978130043L1216.2597107142856,277.2845119758295L1216.5708543650794,277.3068004575282L1217.7585591269842,277.34288658091236L1217.9288952380953,277.377413384009L1219.4165337301588,277.36977965645303L1220.366916269841,277.41958198114776L1221.4944702380953,277.45412327663973L1223.3878531746032,277.47373822179236L1223.6011150793652,277.44459420243675L1224.5200551587302,277.43365223206223L1224.8817801587302,277.48419401569106L1226.061555952381,277.4890559873686L1226.1925206349206,277.48418819402855L1226.5906095238095,277.5341190046593L1226.6209583333332,277.5735353688101L1226.811526984127,277.53421597673383L1226.9036670634919,277.58841550488034L1228.283580952381,277.6246027121394L1231.707528174603,277.6068710281564L1233.5240821428572,277.6295391613998L1233.7758952380952,277.6732100838962L1233.8942829365078,277.7029337935013L1235.657248015873,277.7368941427131L1238.5603440476189,277.7833517430056L1239.866709920635,277.8261345350623L1241.179090873016,277.8478365084473L1241.304313888889,277.88097001265794L1242.34109484127,277.90430358768964L1245.2119281746031,277.8808770024784L1246.3547932539682,277.9152182957893L1246.9193904761905,277.94805428408927L1249.9542714285715,278.01170875623126L1250.754276984127,277.9714094994322L1252.0477924603176,278.00303467789973L1252.3695992063492,278.04625053497887L1252.3726067460318,278.0462094765602L1253.9873821428573,278.07250806050286L1254.1290099206349,278.0756869507009L1255.8107714285713,278.08915685231045L1256.5987468253968,278.12672243178054L1257.7030607142856,278.1386075878686L1257.9239781746032,278.1662563276481L1258.696369047619,278.19531416040155L1260.845392857143,278.22884680216526L1263.3277067460317,278.2432940088607L1263.9568293650793,278.28455127446625L1264.3631206349205,278.33258674410126L1264.444871031746,278.3835645311169L1265.0061873015873,278.4190294095616L1265.4625130952381,278.4053696531938L1266.690136111111,278.4287141981266" style="fill: none;" fill="none"></path></g></g></g></g><g opacity="0.2"><g><g><g><path stroke="rgb(255, 112, 67)" stroke-width="2px" d="M99.47574206349206,-259.6681674502113L99.65264007936507,24.772596928206383L99.8166876984127,-102.15756443413824L100.21422976190478,-87.33348288319331L102.75833492063491,126.2357286702503L102.91964841269841,101.0621851411733L103.92471349206349,111.09831877730113L104.45732142857143,104.17242594740611L105.98487817460318,-11.75263426520604L106.25528333333331,194.37627090649173L106.61564126984126,118.92420489679688L109.42987817460318,193.62518410791048L109.62782896825397,-170.33036632971334L113.58000952380951,227.35292677174914L115.35746547619047,90.40451540188354L115.90647817460317,244.480943266641L116.58727579365079,154.8694791035219L117.87258888888888,253.09526442126793L118.48475992063491,201.2109149857001L118.76965595238094,242.77895820411769L119.61668849206349,235.90734353119674L121.32551785714284,189.8872881044041L121.42312619047618,208.32616689530286L122.2715257936508,235.89787045663053L122.94084007936507,202.7006071670489L124.08370515873015,213.6336873471737L125.17571547619048,240.04566255618224L125.2908222222222,187.71687870675865L126.08590634920634,190.61528108336708L126.49465833333335,219.22953490506518L126.6444884920635,207.1462442522699L127.51694841269843,-76.58561411229044L130.20049404761903,233.81691760637543L130.87609682539681,228.0827631598169L134.0878757936508,241.27438433468342L135.80272023809525,261.36065639555454L136.01762261904761,220.45547876845706L136.27271666666664,208.73169129545036L138.045798015873,260.7076415216381L138.1748488095238,260.06608394736594L139.63569285714286,239.6087938005274L143.09545714285713,186.69100873849607L143.63790793650793,228.62404695966026L148.40294444444444,239.5090256834572L149.73692499999999,227.50486720692027L150.137748015873,255.89502520859241L150.44615753968253,239.8688040944663L152.67720515873015,228.8529753278602L154.92575119047618,212.77997130697423L157.510048015873,262.14959708804435L158.39344444444444,255.43677162717688L159.1141603174603,269.515853470022L159.9084242063492,220.89902348139069L167.12952698412695,214.65420630845156L167.52296785714285,260.8579433709383L167.84668849206346,263.2372980700298L169.04532976190475,256.8003439022736L169.74389920634923,270.7911085269668L170.73091904761904,200.49781009554863L170.8750075396825,219.28337781266734L171.72395396825394,235.691511048512L171.9724861111111,266.38812588019806L172.77139801587302,262.1110583164475L173.00379880952383,277.4353502081199L173.65452103174601,228.0885750190778L177.13752539682537,246.4850874041969L177.2217365079365,260.9358082034371L180.57486984126982,245.85645929656246L180.82285515873016,250.85398618470538L181.0456865079365,262.02726641161877L181.89490634920634,252.70474332300097L181.99661587301586,255.04819634963167L183.5952599206349,272.10814112289387L184.06306904761905,238.0817853862589L184.2003222222222,210.32837801358917L185.74838492063492,249.68153318898246L186.39664642857142,246.2796945057132L187.62208214285712,227.0257472585548L189.6817,245.2289833196185L189.81403174603173,270.1970891451294L193.1772813492063,268.40720291164786L196.12713095238095,229.21260652216998L207.0950813492063,100.42231735858053L207.17546468253968,40.12158922173762L207.38954682539682,110.87357648394328L208.04272976190478,147.57702949372208L209.97630436507936,92.1467930349437L210.57261746031745,191.81754226034337L210.65737539682536,197.12341132489118L211.20310714285716,69.88949710672551L212.23852103174602,181.15415027195755L212.7139857142857,164.78250117464498L213.2520619047619,205.6508042189208L213.2936206349206,207.27958417751572L215.71687738095235,142.86213946613398L215.84647499999997,227.1177512949163L217.53425158730158,85.35088614983994L219.33166666666665,227.43027314543724L220.2243591269841,227.45199720967898L221.043776984127,59.63822226632726L221.07166507936506,244.0531187369065L221.53263888888887,185.82726916128937L222.07044166666665,203.0186336419799L222.70503253968252,183.58960093422368L224.04967619047616,221.4371709254655L224.09068809523805,224.8199162429029L224.20825555555555,227.30183617635205L224.37831825396822,245.15879295766354L224.52486746031744,233.6404111845927L224.6547384920635,122.39078692414546L225.0905583333333,203.8124516877261L226.26705317460315,214.54767262393776L226.77669444444444,190.15020432797346L227.0388972222222,226.36622924696314L230.31875595238094,219.37044048851186L231.94556150793653,188.19661312482572L232.23510555555555,221.35906926610252L234.39670634920634,197.11639612913132L234.51372698412695,210.2756872366775L235.39767023809523,263.25920135460115L236.67314047619047,266.89867979423565L237.7317944444444,234.790276018056L238.71361944444445,214.31483981284228L239.0665952380952,158.1355135820129L242.07796269841268,235.71169893849978L242.5129623015873,260.62498894604767L244.1214492063492,217.81046833504328L245.49644166666664,214.02771604332057L248.42605873015873,226.8516987155784L249.21676825396824,221.28489765253934L249.45873849206347,243.9524161138318L250.26202500000002,235.89253225109795L251.0500003968254,247.63415214690295L254.03730753968253,275.15406743369317L255.31633214285716,236.58633895218372L259.38772063492064,230.58071051131594L259.64500198412696,234.48105694218114L259.9651682539682,257.1714067933234L260.57187103174607,228.48819794979963L260.8327067460317,285.3510833192955L261.39374960317457,223.712718649344L261.5731083333333,254.37259331345558L261.7554746031746,230.8951397782022L263.6442095238095,231.42253400249913L264.15385079365075,250.90874439613384L265.59774325396825,243.15226775001395L266.0622714285714,253.71562919156116L266.5319944444444,273.4475058520382L269.1761686507936,259.8949541354721L269.42743492063494,185.4554381831126L272.59136666666666,251.7089439657601L274.22473412698406,218.83245946331456L275.0474329365079,232.05423445864156L275.73916706349206,156.23064470562068L279.62217420634926,226.93863337690178L279.89722738095236,240.74963361024857L282.2078380952381,207.95263332399455L284.97204047619044,211.1345366591757L286.1482619047619,253.3528872443871L286.49194166666666,228.54717423970047L288.5236714285714,237.865274426612L290.44548928571425,247.9811291057955L291.8759845238095,285.2900459956039L292.72575119047616,244.57670452919874L292.84413888888884,260.12041971087456L293.35514722222223,266.64097376167774L293.4021742063492,236.71428946608845L294.7377952380952,255.78652010045266L296.13083293650794,254.64621795172042L299.33878412698414,265.65343134105206L301.21548888888884,236.4019724388014L302.89779722222215,281.7616073516282L304.9194107142857,279.2327444932678L305.5367765873016,233.30485952171412L305.8438190476191,274.66463591564786L306.49317420634924,236.6567405380986L306.61046825396824,279.4527438486164L313.463830952381,200.82559127699244L313.60053730158734,253.43698638406664L313.65713373015865,265.5981162664565L315.31756904761903,227.9124782437628L315.49009246031744,236.2039403752847L318.66167976190474,259.8074690117077L318.684373015873,277.9163199663162L319.0592218253968,241.8552950295535L319.6579956349206,254.62064065039158L322.24311269841263,263.589293198152L322.4804349206349,253.9886393601244L325.4939896825397,261.76614879207176L327.1057575396825,270.8694022081115L330.4269015873016,213.07832195000216L330.987671031746,239.33142473751846L331.69280238095234,249.32167796926066L333.9935702380952,252.1362308345058L335.25099523809524,223.74606643210757L336.6068488095238,217.7652408047156L337.7004996031746,230.26526992971245L337.83201111111106,261.93578083406794L341.820828968254,249.4226046177474L342.4701841269841,289.23633683811534L342.60962460317455,255.18883950330996L344.3427876984127,278.51451902226967L347.252719047619,241.48535866628993L347.58682936507927,278.4355148605325L348.3649619047619,254.20431182465768L350.43578968253956,235.30602092092687L351.28911071428564,236.69526010751724L352.24933611111106,277.27649698880583L352.88146626984127,253.9564629102295L354.9818226190476,268.58546953309667L355.4086198412698,274.72807991233736L355.68230595238094,271.2813081321391L356.90774166666654,278.5794415866787L358.3128095238095,253.78104461187667L360.1526035714286,266.79452717981553L360.351648015873,253.58216125179422L360.4407805555556,274.0101104703816L360.5586214285714,228.56690127741206L360.66880674603175,270.00090049071747L361.6809805555555,281.9652976569804L363.1907654761905,253.9620507440784L364.2283666666667,245.39077447219327L368.4903238095238,285.2323178472844L373.038544047619,282.79315476390445L375.5386297619047,260.6613706729629L376.6924313492063,255.71278373626143L377.3751428571428,285.9426512230526L377.7508119047619,245.23398228667L378.13632380952384,278.1727714565667L378.1551892857143,281.24241885813797L382.6572027777778,234.29214591329747L384.6096428571429,226.92140262235293L384.8622761904762,273.59504258768123L385.19857380952374,265.0329577584158L385.2475146825396,253.6254621635784L385.3574265873016,244.43161287090996L385.45175396825397,281.0951701551676L389.006119047619,234.8352731222456L389.34487738095237,291.498167806051L390.41610833333334,249.6658642115918L390.4759857142857,277.55812893536955L391.04987896825395,268.19551169872284L391.17974999999996,266.31963171064854L392.5809900793651,278.6605707894672L392.6654746031746,280.874300301075L398.92006349206343,283.5587904128161L399.03216269841266,262.50754489140076L400.8828932539682,272.92395206337625L405.0032226190476,258.5279254683039L405.6173075396825,241.8170314891772L407.37917896825394,276.9967916607857L408.9053686507936,251.38548967513168L410.8758539682539,282.7872340923006L413.5856472222222,285.61984980648214L413.95694166666664,246.8179187585007L414.4783396825396,273.56021623719823L415.83063888888887,288.4431524642489L416.8657793650793,208.21250280196014L418.67686507936503,273.34271316501224L420.7225388888889,234.72109697081825L421.2155019841269,291.3960954275998L423.14688928571417,258.4220702607523L423.20539960317456,252.17038510875267L425.34977539682535,240.53477403792468L425.5540146825396,246.53061576864937L426.3581214285714,288.7345903231339L430.13531785714275,292.4290734021501L431.2005337301588,274.4654005156322L431.2721678571428,268.87501917779446L433.0466162698412,277.5209727206013L435.577871031746,274.73618963225323L437.1374170634921,294.2100306227803L438.0342107142857,239.96151861142027L439.6254726190475,281.60297815772617L441.86663650793645,268.91626545651394L442.9652087301587,276.9563518735495L444.00417698412696,250.2057462524284L445.22742539682537,281.08983835036105L445.59516547619046,249.39989484169266L448.44521944444443,259.2918393219059L449.26217658730155,256.43195651471615L449.55336111111103,286.9666201756759L451.89951547619046,264.45020365444094L454.0239321428571,287.14432993395764L454.6590698412698,237.7015054496852L455.4415769841269,286.32477456873113L456.35231468253966,258.5688069056381L458.2683908730159,268.11920864338225L459.7565761904762,282.37818289209497L460.17845198412687,250.4052184793082L461.0429829365079,269.4463479857553L463.3680845238095,273.76450821079993L464.49372460317466,233.7206506864591L464.6952297619048,293.76863655380225L464.9626273809524,260.5554066530683L465.2201821428571,272.21662062812936L466.09674325396827,264.72516604445195L466.7086408730159,265.14246137982065L468.2577972222222,248.51884770122442L468.31740119047606,288.2769896157763L471.05781666666667,286.59688223492014L471.69104047619044,260.27826801619744L471.8014992063492,287.40343132479626L471.98550595238083,290.80061668022114L472.1069011904761,252.49487631700254L472.1369765873015,288.69052132422274L473.84963373015876,274.003664939241L475.43406031746036,280.40874989195305L476.5000964285714,270.5231869356199L476.705155952381,283.64133417606354L478.71665317460315,250.79164311289787L478.81234761904756,272.990494011478L479.38295992063485,288.44070738689464L480.50504563492063,271.5258542719212L481.0822198412698,264.1641296039928L481.5199535714286,292.80976618555457L481.5601452380951,255.99200260910118L483.08414761904754,278.13741384582084L483.5864067460317,281.0000233623114L484.13350555555553,286.816356730732L484.4583198412698,283.6786696111614L488.2210253968253,289.8848007958044L490.61256626984124,286.79735937579113L492.7402638888888,293.0191339349205L492.7432714285714,282.02337784523314L492.94559682539676,277.01184616847473L494.8127321428571,290.3749043900858L496.2664674603175,294.2872137779539L496.90543293650796,260.46863200989634L497.7273115079364,281.4708799733357L499.63873968253966,284.94304983453316L500.0742861111111,253.77132830972022L501.3918619047619,254.35012676499105L502.2115531746031,267.02303310009563L504.9049416666666,270.70135754617775L505.5966757936507,269.75001763213766L507.09771150793654,258.53856987573886L507.9608753968254,291.9026232849468L508.58781071428564,284.2138599197973L509.2841928571428,286.61257041448897L510.4095595238095,282.88898003372276L513.1179857142857,298.5038712891665L514.5689869047619,233.24773944237015L514.6023432539682,272.66979843378067L515.8056325396825,296.7422762648626L516.425459126984,219.15462080727923L518.8238353174603,297.2532398253679L519.015771031746,300.4668299549005L519.2793408730158,282.67946506765753L520.210311111111,269.720292660323L520.5561781746031,292.8468775952404L522.167946031746,276.29323665391314L522.8170277777778,261.2097912823612L523.2285138888888,291.97524272244084L524.0419166666667,251.8510208820755L526.6721468253968,285.77741007913244L527.977419047619,290.56939045136625L530.3058015873015,291.19719286533916L534.7143079365079,290.9347662973133L534.7175888888888,287.8102294694294L535.2020761904762,288.8934179395437L535.3040591269842,276.19742418554694L535.4497880952381,268.7985241006721L536.9598464285713,284.1454745625908L538.3479626984126,300.3117051585154L539.6958873015872,277.406470132145L539.736078968254,284.2751148681749L541.2800404761904,282.4891266768629L543.3095829365079,305.5625823851336L543.4301579365078,302.93352256105703L545.3708412698412,303.0413043871522L547.3038690476191,289.88994057882917L549.5819436507936,286.0915193097158L557.7796765873015,267.74768490005624L558.0910936507935,306.08152765103364L558.9206277777778,249.714880971746L559.6410702380952,222.3342326825315L560.6122321428571,272.6000561226498L560.9693091269841,297.2558641230518L563.6041873015872,294.70914963971484L564.228115079365,252.62687849050218L564.554023015873,290.04475814036346L564.9679698412698,275.70035020058805L565.1153392857142,255.85644163191319L566.548842063492,276.1277394809506L567.0295015873015,272.7849923006513L572.9754075396825,289.8316427658905L573.1451968253969,287.926082611084L573.6422611111111,297.7719194611365L576.6230063492063,305.02283475954425L577.3429019841269,300.74815466661346L578.8187837301588,297.62429311532867L580.7742313492063,281.2248232622038L581.2261825396824,296.4589353244413L582.8431452380952,282.40767743777144L582.8789623015872,274.5027231492779L583.150461111111,258.50652784109116L584.4874492063491,296.1021236499602L584.8860849206349,279.9029645188288L587.0884242063491,271.5220074355602L587.9040142857142,302.5572494789958L589.1830388888887,287.6930001716722L589.6579567460317,269.09350156106734L590.8590587301586,273.7855473973534L590.878471031746,292.1840248053724L592.0880488095237,299.94369541379535L592.1903051587301,297.7992729639465L594.0648226190476,290.28651996431023L594.4582634920635,271.1267882043665L595.4403619047617,273.90011399307036L599.0105849206349,251.79575701328838L600.2393015873015,282.033913440325L600.7598793650792,296.2983987141739L600.9354103174603,277.9729599912058L602.8320742063491,275.05384486507285L602.956476984127,289.8124469884417L603.0704900793651,241.05303442613646L603.1186107142856,276.7261945659464L603.3742515873015,273.885686756535L603.4923658730157,301.56149172647434L605.9353083333333,295.5945556746288L606.7150813492062,254.18839961967683L607.6031257936507,293.73123071071774L609.7543369047619,275.83835625513035L609.8891293650793,297.6799410276792L610.9551654761904,283.0199260874228L610.9587198412698,277.0752389593558L612.8332373015871,285.74127157980746L613.2578472222222,299.84646198424423L614.4228587301586,291.81067685511977L614.9437099206349,274.08176659860396L616.8070174603173,299.3449682979421L617.2510396825396,298.70119287209076L618.3947249999999,299.0373173999515L618.6200170634919,291.98057132688433L619.0230273809523,302.37524803389203L623.8132178571427,297.75148194283247L624.0951063492063,245.78227488154712L625.9253309523809,290.9696790575981L627.3979317460316,248.30069815570656L630.0727281746032,266.7639829150655L632.7032317460316,259.45236313072115L633.0439039682539,271.1475201560692L633.548076984127,282.48348763720554L634.0147924603174,285.60228621417826L634.2173912698411,296.80116614496166L634.4708448412697,228.76163696700874L634.4847888888887,290.9849831936034L637.1612257936507,308.0481027269905L638.2245277777777,256.43721791153604L638.9769595238093,308.7084720351479L642.1594833333332,286.00541674277997L642.5611265873015,281.00126510316676L643.162361111111,296.9586880132556L643.2115753968253,279.8164971105077L643.3203936507936,291.3087735223499L643.45190515873,289.9095652049238L643.7892964285714,271.6576644236391L643.9648273809523,299.3327461115339L645.0013349206349,257.3960722779686L648.3085349206349,280.40446780622005L649.3417615079364,255.65389065579933L652.1406873015871,296.92173982208425L652.3859384920634,255.12198391963136L652.5866234126984,266.5730684589256L656.1144674603174,289.7653632475571L658.0089440476189,253.34799708967859L659.4572111111111,261.0861932621761L660.1574210317459,290.62840514562345L660.2170249999999,260.850332907655L663.4493099206348,299.0008460628715L664.9618289682538,285.01786792142826L665.0219797619047,309.44219046357L665.2442642857142,284.67879585921764L665.7560928571428,276.1765898222273L666.0016174603173,264.1316011141647L666.1435186507936,265.49381643533707L666.8524777777777,302.49865083193237L667.8009464285714,286.3878537240353L672.2056249999999,304.75581887093455L673.3011896825396,300.5315092917193L673.7197845238094,282.7278737588362L674.5791206349206,278.8404951989651L676.1476892857143,309.13295538588005L676.3262277777777,262.4009151959961L676.9342976190476,286.17431910200554L677.064442063492,267.26006478748536L678.0074424603174,283.1833238222382L679.4557095238093,283.92847074703735L679.5464825396824,280.66408125514334L680.1578333333332,275.53262557495725L682.3503297619047,298.6330987479199L682.9983178571428,306.03547762740743L683.1949015873015,286.78517879410225L684.4299067460316,272.8488075394522L685.1809714285713,279.54627765850586L686.9242507936508,273.3460735461929L691.3073297619047,277.9881489141421L694.3091277777777,306.56017074530774L694.8157615079365,294.7018816152757L695.4837087301588,282.8200058097189L697.1914444444444,278.2467894527045L697.2537825396824,300.8649359135465L697.9578202380952,274.5913348008286L699.1140825396825,293.19175511598587L699.309846031746,293.15729040652514L700.1445749999999,309.1731679473411L700.7345996031746,277.8144716132771L701.5903813492063,271.41124287112194L703.1425452380951,291.6055559874936L703.5619603174603,297.3454710875045L704.2700992063492,288.4716036915779L705.4583507936508,287.4894762851975L706.0412666666666,257.1390767260031L707.5207027777776,258.0091658234596L708.3289107142856,296.8312079527161L709.4993904761903,270.1917957446792L709.8078,279.6412132274021L710.5605051587302,265.39470759305084L711.5888103174602,290.8385601842945L714.1282674603174,301.11961440267885L715.4209626984126,290.8213422311978L715.5584892857142,299.2965308034962L715.5962202380953,291.1156444149938L717.491517063492,299.1038529473272L718.0695115079365,296.8022254651243L719.990509126984,257.7466208420017L720.4233214285714,282.9736360365694L720.6754079365078,254.06512803652072L721.0278369047619,260.1053524017334L721.9612678571427,296.19914905591446L722.787521031746,288.3354858512228L725.2405797619048,299.96984558010644L726.082144047619,298.6954930255359L727.743673015873,273.4954088858583L728.1439492063492,276.3122340088541L730.9458825396825,290.7511038637974L731.5706305555553,280.3804842856797L732.6642813492064,289.31821492585266L734.5850055555554,287.11309439079326L736.533071031746,292.65688164328986L736.8299972222221,301.3037280873819L738.2902944444444,287.27805390276694L740.1957075396824,295.5002921819687L740.3362416666665,311.9046585905281L742.0193702380951,288.5907276042483L744.6031202380951,293.3238020945679L745.8662869047618,265.5567291717638L748.4694492063492,298.69262229989874L748.4853071428571,298.21259024807L748.6840781746031,309.8310089687055L749.9442373015872,306.8093990162015L750.5525805555556,290.6327704407952L752.0497884920634,298.675839596174L753.3752932539683,308.58249614523214L754.3891075396824,283.7613029845736L754.5534285714284,281.32716447114944L754.7180230158729,260.94345707107675L754.7327873015872,298.1473732502623L755.8524123015873,308.49581751295113L755.994586904762,302.0272789624604L755.9986880952381,283.36347225714815L756.6239829365078,300.4440881752155L756.9616476190475,293.5873135856607L758.6920765873015,289.21637937426567L760.5731559523808,294.15188962763006L761.5571682539681,231.83347341689196L763.3873928571429,263.01586495204407L764.6202107142857,272.1909985217181L765.5068880952381,291.7683104493401L765.5462595238095,292.25780597464603L767.0194071428571,290.1409706541083L767.1071726190474,288.35299183699215L768.3943996031745,291.9520944966511L768.5628218253968,308.04924845695496L770.073426984127,303.3414120294831L770.3637912698412,304.83325165442443L771.3059714285713,287.08819556642663L771.4599027777778,301.3872223584489L775.7232269841269,304.31190291588956L775.7817373015873,232.0636947317557L775.8033369047617,290.7219261540608L776.1543988095237,244.51395821164954L777.4916603174602,303.81874297491527L778.2337023809523,286.49543712762267L779.490307142857,294.1728744080121L780.0010420634919,272.282605713064L785.9332773809523,276.7728174545548L790.2742507936508,284.7379449687221L791.7025587301587,300.54816398092294L794.6436591269842,305.0234940343282L797.1002722222222,290.79628018831664L797.6635023809523,273.10301237485623L798.3812107142857,312.0481788705696L801.3860162698413,292.8708419136026L802.1357138888889,268.2892503318461L802.2959337301586,299.0510437569835L803.4584845238094,280.0338273630901L807.4068373015872,263.6857201362198L808.0725972222222,298.02068687975407L809.6190194444443,292.6780360429124L809.6365178571427,311.4622788097371L811.0500615079363,289.0686506168409L811.1394674603174,289.8822021010247L812.4037277777777,294.0524287454107L812.4132972222221,310.7286531918428L814.2727769841268,303.7664938481017L814.4923273809522,283.60903611237353L818.1784773809522,298.6081647195599L819.6663892857142,307.988502366299L820.1076773809522,302.61281098154456L821.5474686507936,290.6924188069322L821.9296996031745,312.40241105244917L823.5575988095237,304.9549390578812L824.3917809523808,290.1059138774872L827.2702698412697,286.4666402610865L829.5672099206348,261.15265200083905L830.1074734126983,295.45406293801284L831.8860230158729,300.82881981676275L834.1291007936508,294.76111073385584L837.1166813492063,291.09975141219115L839.1065789682539,299.95524872433054L839.7679642857142,291.1251974986358L841.4792543650793,306.66827260770583L841.7687984126983,304.96310958469456L841.8122710317459,317.41153445602816L842.8094071428569,291.87742362645537L843.4289603174601,306.66761013255876L844.9078496031746,298.54935484853655L846.7170214285713,236.04095228693703L846.749284126984,288.83894776078785L847.4929666666667,298.26843658292836L847.8831265873014,286.80404173379594L851.1911468253968,269.66359502889895L852.8198662698412,299.5239646021615L857.5654904761903,286.29244450141084L857.7948837301586,278.9777779714628L860.0737785714284,284.90534955805L860.9142492063492,263.83408256552434L861.033457142857,248.5703543438153L862.7953285714285,274.5849788798527L862.9984742063492,289.9756687032905L863.1781063492061,294.15183522145855L865.2656123015872,275.09713937613094L867.2478543650792,269.584181220694L867.4529138888888,302.3923379724676L867.5420464285713,282.3026223209771L872.3754361111111,293.9101534065875L873.1967678571427,305.43447505344045L873.8021035714283,291.8301350623369L874.9742238095237,307.7292953634804L875.0666373015872,289.1326514766975L875.5311654761905,302.3217379640449L878.6220960317459,290.498832047663L879.3649583333333,293.0868088115345L880.416776984127,246.21484234929085L880.6735115079364,276.39432332055134L881.979057142857,286.81357881562275L883.5916452380951,281.6994435001503L884.0064123015871,266.22534901581025L885.6840726190475,298.1681916117668L888.0028857142855,283.23916375637054L888.3252392857142,293.8864611190828L893.4380567460316,309.2542939497666L898.0516226190475,284.9098492684689L899.2849873015872,309.6941486441276L903.0594496031745,282.18269831754947L903.3719603174602,301.6731011867523L903.4132456349205,314.59007360718465L904.1809884920633,290.45098021965134L906.836099206349,281.0883533819155L908.6302333333332,237.5447452677922L908.6395293650793,293.8966158709743L909.3821182539682,303.0337835340337L911.0163059523808,295.8064357089725L911.0272424603174,293.70108649134636L912.295057142857,296.76430756395513L912.469221031746,276.06974250213665L913.4507726190475,299.79709318415684L913.9144805555554,281.5573025765744L914.3913123015872,304.6540601280602L915.109294047619,301.8291348862377L915.6416285714284,286.7254280163483L916.7049305555554,302.4781525067308L917.1309075396825,304.1816097362475L919.3299658730157,303.1999527832324L923.0021718253968,260.23511432111263L923.326986111111,300.6658029251478L923.3712789682539,305.7073284042152L924.1253511904761,297.4131843684749L927.7349456349206,292.07896328785205L927.741780952381,292.3249431902712L927.7797853174601,299.52724177390337L928.2639992063491,272.17228279872376L928.9180023809522,272.15620417486537L929.3283948412696,277.3327465694059L929.4891615079365,302.5144414231181L930.2744027777777,307.2458581253886L931.1711964285713,277.6708265190775L932.7654658730157,301.7519869350574L933.3943150793649,305.21466131914747L933.8993083333331,274.8146433315494L934.2170138888887,279.9742430042137L937.165223015873,301.60417176783085L938.5478710317459,281.48671536960387L939.0132194444443,284.0076477283781L939.562232142857,305.801006230441L941.2478214285713,300.6410353156653L941.4012059523809,284.63422760367393L943.4939067460317,269.2906887287443L944.5123690476189,306.0123069990765L945.5084115079364,304.18950823220337L946.1304253968253,276.30717743526804L947.9765079365078,304.39574922688985L948.3702222222222,270.61398123475635L950.5616249999999,274.30827549235386L954.3049182539681,301.7309317466887L955.4401277777777,304.43313266743314L955.7211960317459,284.3934130871838L957.2591424603173,286.51572102850133L958.2229222222221,295.6344289976087L962.5340936507935,280.68589492954993L962.8343007936506,297.8342465311289L966.3903063492063,300.07217718796295L967.1547682539682,306.21915286237544L969.941117063492,298.43258960341865L971.1189789682539,298.3715202760967L974.0844130952379,291.4786999977448L975.9868186507935,306.5898701142181L976.4201777777776,313.11858189038253L976.6402749999999,308.68925065479493L978.6949714285713,277.76262573220515L979.1523908730159,289.95261328802866L979.5458317460317,295.9401596777818L980.9317607142856,299.13528371263635L981.1543186507936,284.17731817473066L983.3629464285713,267.6643154431473L984.5476436507936,308.7792928686196L984.6097083333333,297.44832115417177L985.1967253968254,298.43030454421586L987.2459535714285,256.1387968605215L988.0104154761904,273.7934394925833L988.387725,311.42024524171245L988.8205373015873,292.6168899068778L990.1567051587302,270.79534580761737L990.4703095238095,308.94776957956225L990.5102277777778,305.4013288935477L991.2998436507936,299.83319327912545L992.2494059523809,268.2556721229445L993.199515079365,317.688837911595L994.4481908730158,284.63989864696157L994.679498015873,304.9824237755754L995.170547222222,275.0468936765736L995.9298142857142,291.21884332123125L998.5302424603174,300.79653455452484L998.9100126984127,292.1719146316702L999.4888273809523,288.8701705025001L999.7477492063493,299.93493602018464L1001.2088666666667,282.1191327070648L1002.1228853174601,297.46621758423066L1002.2940416666667,308.63790082999253L1003.9440873015873,294.9994961748069L1005.5028130952381,280.10016448795795L1006.2530575396825,297.40043412216687L1006.9759607142859,290.38203479891473L1010.8868559523809,272.3593760214069L1011.4224714285715,285.9578273445368L1011.8692277777776,297.45230240578L1012.0496801587301,260.77015741304916L1012.6085357142857,299.5314982567321L1014.0138769841269,290.88152825832367L1014.5423837301587,307.50255284322935L1014.577107142857,297.2165700657801L1016.8447920634919,303.0915884910659L1017.85450515873,315.70918935266405L1017.9715257936508,286.5168411555615L1018.402971031746,304.71044092354447L1018.5872511904761,289.11376293409955L1019.5934099206347,240.17079675062135L1020.9673087301587,306.88810554417694L1025.4277634920634,297.0639831572771L1026.1823825396825,300.47458763488316L1026.2340575396825,309.02632249011236L1026.469465873016,306.3052682307633L1027.3364575396824,300.78352827917445L1027.3741884920635,299.983856769448L1028.9129551587303,281.0380372743715L1031.0956087301586,294.7061701017347L1031.9584992063492,291.5637208419767L1034.3404706349206,274.6017615835775L1034.6119694444444,320.2170030908151L1035.6082853174603,298.7791377136653L1035.8097904761905,303.3259254727851L1036.8050126984126,297.39583200013095L1037.132561111111,310.20163020965725L1038.4331853174604,288.27511420304126L1039.0475436507936,305.484519130127L1039.6599880952378,279.4166437536478L1040.0837777777779,295.37390344522214L1041.005451984127,295.5640178106048L1041.4598638888888,271.2774292921478L1041.714957936508,312.90294142947954L1043.4697206349206,315.0806892595508L1043.4888595238097,313.32424041899765L1044.005882936508,311.30815252661705L1044.011351190476,306.3590215282007L1044.2987079365078,301.8883480030027L1045.7160793650792,290.4878195984797L1047.3423380952381,295.66486124965274L1047.4547107142855,295.9304657781666L1049.3593035714284,276.7494099993597L1050.2451607142857,306.34169476276094L1051.6737420634918,302.5506279278885L1053.009363095238,315.4919679124247L1053.8457325396823,308.4302644770254L1054.6599555555556,301.06390248306775L1055.3456746031745,307.13146114891225L1055.803094047619,297.97175652940166L1056.9667384920633,292.0526050979441L1059.0184273809525,280.92325945469463L1059.9083857142857,299.31926298209214L1061.163896825397,309.053087126125L1061.810517857143,299.78299238465047L1064.7029507936509,308.2873938706788L1068.0571777777777,303.5125290399248L1070.328963888889,295.81161389635366L1070.3388067460317,299.2315506325527L1070.7295134920635,296.9091495939276L1072.0446285714286,293.1967956877568L1075.040138095238,293.7899925762957L1077.183967063492,291.9355550205166L1079.4601277777776,290.2825259112499L1079.5612904761904,297.7911888469349L1080.5351865079365,303.2466844841838L1081.7896039682537,280.86527527733284L1082.2101126984128,287.39032903855497L1082.8135345238095,286.42439546910197L1084.3255067460316,310.32612113112754L1084.352301190476,307.4887368760326L1084.4171000000001,307.63643042946404L1085.7497134920634,306.14993861114436L1087.7048876984127,297.79313786801964L1088.219176984127,300.0144234367392L1089.2668944444445,289.76266214116055L1090.477019047619,306.69513965533537L1091.5250099206348,298.0892802605575L1092.096715873016,305.56014690886843L1093.9370567460317,297.32324136590415L1095.3372031746032,294.5241334526376L1096.8612055555557,293.72030147097325L1098.8762571428572,267.3431718146259L1101.0783230158731,299.4757159291343L1102.5164738095239,297.85544893619686L1102.7382115079365,296.7378309606151L1103.019553174603,294.00538980960846L1105.1365876984125,300.0225139544769L1107.377478174603,306.6190478239547L1107.449659126984,300.49962407486004L1109.149465873016,306.7452893440019L1110.8093543650793,301.3614370335232L1110.8312273809524,316.6369105875492L1111.6850952380953,301.07161215760493L1116.4968853174603,300.28994909064335L1117.0759734126984,268.1307939575477L1117.203657142857,310.56316561996937L1118.0454948412696,302.7217001332478L1118.4044857142856,318.8283975761045L1119.9213793650795,285.0930636511608L1120.421998015873,296.1617720160972L1120.563899206349,300.60455437749624L1123.366926190476,276.2595688348467L1123.6553765873016,300.0453357432376L1130.2016968253968,304.64535834098405L1131.3150333333333,300.36441833796823L1132.3441587301586,304.3021386082877L1134.0704865079365,304.22387693077326L1134.5440373015872,302.72650707851756L1135.279244047619,287.27557042105633L1139.4222666666667,288.6069214411757L1140.0079166666667,294.73701840097254L1144.684094047619,300.2132971957326L1145.7156801587303,295.4073344374245L1146.021628968254,317.1467556211759L1146.1473988095238,318.143905531615L1149.6066162698412,277.67207466065884L1149.6774301587302,313.0422404306856L1149.8740138888888,281.82813009755176L1151.9407404761905,289.03834957968104L1152.5255702380953,288.51480219174516L1153.537744047619,311.1794435266744L1153.7726055555556,297.1601156619462L1157.7956,293.161124441434L1158.1556845238094,291.6246173496951L1158.7763313492064,282.6283488693562L1158.8971797619047,304.41918548535216L1159.7141369047617,307.9862653125416L1160.441688095238,298.55133907361466L1161.6200968253968,298.4744151478464L1163.708423015873,296.92178142680365L1163.9074674603173,281.7456887459213L1165.719920238095,297.4614842473106L1168.8329972222223,287.20740268853575L1169.6327293650795,275.8016160875559L1170.552763095238,308.10568045824766L1172.878138095238,302.9104063388976L1174.5642742063492,318.2602019235492L1176.0644896825397,287.32606574893L1177.0219809523808,300.4966253347018L1179.550228174603,291.4686284552921L1180.4478420634919,283.34738083183765L1182.4257095238095,298.5848308727145L1183.5281095238095,273.4684426269748L1183.8794448412698,286.05956048450685L1184.7972912698413,299.875326058404L1185.0348869047618,286.93110894750464L1185.5018757936507,299.2465507340702L1185.6675638888887,303.6835212362083L1187.8915027777778,300.925521986051L1187.9489194444443,301.0543141954324L1188.4457103174602,283.40211344036186L1188.5266404761906,292.32325659895486L1189.1297888888887,288.12042145566505L1189.7542634920635,289.5654813742096L1190.1296591269843,300.1438781212677L1194.465711111111,286.5024267204783L1195.6990757936508,300.09024643762547L1196.2489087301587,310.08880141106516L1197.5801551587301,299.18188419870353L1198.095538095238,311.94125794212925L1198.4332027777778,295.53609144281256L1200.259873015873,304.7262635183605L1200.786465873016,303.0939215557142L1201.6004154761904,302.0038907094435L1201.7805944444444,283.09756049378353L1202.1565369047619,305.73107829825443L1202.2970710317459,304.24899658018893L1203.4631761904764,294.5732910287651L1205.284378174603,262.62990757145667L1205.4336615079364,289.3902486969124L1206.8461115079365,292.2077778997746L1207.4257464285713,310.29997736554253L1208.2804345238096,304.8933064666661L1210.377509920635,294.39727746288884L1211.462684920635,285.4431321607395L1212.3444408730159,309.9907550893047L1213.453402777778,308.1256987289949L1215.497436111111,309.5077947053042L1215.5280583333333,305.064001029188L1216.2597107142856,292.05305634913117L1216.5708543650794,290.9658354216001L1217.7585591269842,299.47145624594253L1217.9288952380953,298.5631036081097L1219.4165337301588,272.6827727055008L1220.366916269841,308.01671996712685L1221.4944702380953,298.68860264393413L1223.3878531746032,289.53968644819474L1223.6011150793652,259.50573878532106L1224.5200551587302,270.6944063576785L1224.8817801587302,308.6326394331726L1226.061555952381,280.48730600286615L1226.1925206349206,274.48048702695155L1226.5906095238095,308.36329688064075L1226.6209583333332,301.92573464390904L1226.811526984127,253.22694015773857L1226.9036670634919,311.115241043947L1228.283580952381,300.02310602163726L1231.707528174603,266.62489513781935L1233.5240821428572,291.6774713451212L1233.7758952380952,304.75358821790326L1233.8942829365078,296.14589501510966L1235.657248015873,298.8214593143626L1238.5603440476189,306.6445067118515L1239.866709920635,304.4205264374614L1241.179090873016,291.34628177705133L1241.304313888889,298.50222310220653L1242.34109484127,292.43517649444664L1245.2119281746031,263.28326808458024L1246.3547932539682,299.32692465118384L1246.9193904761905,298.43353691087526L1249.9542714285715,317.747886209664L1250.754276984127,252.79957648028028L1252.0477924603176,297.76868069375104L1252.3695992063492,305.0722003592686L1252.3726067460318,278.0205173858187L1253.9873821428573,294.53852548517966L1254.1290099206349,280.0672327523882L1255.8107714285713,286.5329453823241L1256.5987468253968,301.6891894116998L1257.7030607142856,285.5978185073896L1257.9239781746032,295.5290762470527L1258.696369047619,296.4537955414165L1260.845392857143,299.31150210174644L1263.3277067460317,287.3318968103691L1263.9568293650793,304.25437319007784L1264.3631206349205,308.58677183023906L1264.444871031746,310.50972915847194L1265.0061873015873,300.782049711455L1265.4625130952381,269.7869306193157L1266.690136111111,293.16623222082853" style="fill: none;" fill="none"></path></g></g></g></g></g></g><g transform="translate(70, 378)" clip-path="url(#clip_1)"><clipPath id="clip_1"><rect width="1378" height="22"></rect></clipPath><g><g><line x1="0" y1="0" x2="0" y2="5" style="visibility: inherit;" fill="rgb(0, 0, 0)" stroke="rgb(204, 204, 204)" stroke-width="1px"></line><line x1="98.42857142857142" y1="0" x2="98.42857142857142" y2="5" style="visibility: inherit;" fill="rgb(0, 0, 0)" stroke="rgb(204, 204, 204)" stroke-width="1px"></line><line x1="196.85714285714283" y1="0" x2="196.85714285714283" y2="5" style="visibility: inherit;" fill="rgb(0, 0, 0)" stroke="rgb(204, 204, 204)" stroke-width="1px"></line><line x1="295.28571428571433" y1="0" x2="295.28571428571433" y2="5" style="visibility: inherit;" fill="rgb(0, 0, 0)" stroke="rgb(204, 204, 204)" stroke-width="1px"></line><line x1="393.71428571428567" y1="0" x2="393.71428571428567" y2="5" style="visibility: inherit;" fill="rgb(0, 0, 0)" stroke="rgb(204, 204, 204)" stroke-width="1px"></line><line x1="492.14285714285705" y1="0" x2="492.14285714285705" y2="5" style="visibility: inherit;" fill="rgb(0, 0, 0)" stroke="rgb(204, 204, 204)" stroke-width="1px"></line><line x1="590.5714285714284" y1="0" x2="590.5714285714284" y2="5" style="visibility: inherit;" fill="rgb(0, 0, 0)" stroke="rgb(204, 204, 204)" stroke-width="1px"></line><line x1="688.9999999999999" y1="0" x2="688.9999999999999" y2="5" style="visibility: inherit;" fill="rgb(0, 0, 0)" stroke="rgb(204, 204, 204)" stroke-width="1px"></line><line x1="787.4285714285712" y1="0" x2="787.4285714285712" y2="5" style="visibility: inherit;" fill="rgb(0, 0, 0)" stroke="rgb(204, 204, 204)" stroke-width="1px"></line><line x1="885.8571428571428" y1="0" x2="885.8571428571428" y2="5" style="visibility: inherit;" fill="rgb(0, 0, 0)" stroke="rgb(204, 204, 204)" stroke-width="1px"></line><line x1="984.2857142857141" y1="0" x2="984.2857142857141" y2="5" style="visibility: inherit;" fill="rgb(0, 0, 0)" stroke="rgb(204, 204, 204)" stroke-width="1px"></line><line x1="1082.7142857142858" y1="0" x2="1082.7142857142858" y2="5" style="visibility: inherit;" fill="rgb(0, 0, 0)" stroke="rgb(204, 204, 204)" stroke-width="1px"></line><line x1="1181.1428571428573" y1="0" x2="1181.1428571428573" y2="5" style="visibility: inherit;" fill="rgb(0, 0, 0)" stroke="rgb(204, 204, 204)" stroke-width="1px"></line><line x1="1279.5714285714284" y1="0" x2="1279.5714285714284" y2="5" style="visibility: inherit;" fill="rgb(0, 0, 0)" stroke="rgb(204, 204, 204)" stroke-width="1px"></line><line x1="1378" y1="0" x2="1378" y2="5" style="visibility: inherit;" fill="rgb(0, 0, 0)" stroke="rgb(204, 204, 204)" stroke-width="1px"></line></g><g transform="translate(0, 8)"><text x="0" y="0" dx="0em" dy="0.95em" style="text-anchor: middle; visibility: hidden; font-family: &quot;Helvetica Neue&quot;, sans-serif; font-size: 12px; font-weight: 200;" fill="rgb(50, 49, 63)" stroke="none" stroke-width="1px">-0.1</text><text x="98.42857142857142" y="0" dx="0em" dy="0.95em" style="text-anchor: middle; visibility: inherit; font-family: &quot;Helvetica Neue&quot;, sans-serif; font-size: 12px; font-weight: 200;" fill="rgb(50, 49, 63)" stroke="none" stroke-width="1px">0</text><text x="196.85714285714283" y="0" dx="0em" dy="0.95em" style="text-anchor: middle; visibility: inherit; font-family: &quot;Helvetica Neue&quot;, sans-serif; font-size: 12px; font-weight: 200;" fill="rgb(50, 49, 63)" stroke="none" stroke-width="1px">0.1</text><text x="295.28571428571433" y="0" dx="0em" dy="0.95em" style="text-anchor: middle; visibility: inherit; font-family: &quot;Helvetica Neue&quot;, sans-serif; font-size: 12px; font-weight: 200;" fill="rgb(50, 49, 63)" stroke="none" stroke-width="1px">0.2</text><text x="393.71428571428567" y="0" dx="0em" dy="0.95em" style="text-anchor: middle; visibility: inherit; font-family: &quot;Helvetica Neue&quot;, sans-serif; font-size: 12px; font-weight: 200;" fill="rgb(50, 49, 63)" stroke="none" stroke-width="1px">0.3</text><text x="492.14285714285705" y="0" dx="0em" dy="0.95em" style="text-anchor: middle; visibility: inherit; font-family: &quot;Helvetica Neue&quot;, sans-serif; font-size: 12px; font-weight: 200;" fill="rgb(50, 49, 63)" stroke="none" stroke-width="1px">0.4</text><text x="590.5714285714284" y="0" dx="0em" dy="0.95em" style="text-anchor: middle; visibility: inherit; font-family: &quot;Helvetica Neue&quot;, sans-serif; font-size: 12px; font-weight: 200;" fill="rgb(50, 49, 63)" stroke="none" stroke-width="1px">0.5</text><text x="688.9999999999999" y="0" dx="0em" dy="0.95em" style="text-anchor: middle; visibility: inherit; font-family: &quot;Helvetica Neue&quot;, sans-serif; font-size: 12px; font-weight: 200;" fill="rgb(50, 49, 63)" stroke="none" stroke-width="1px">0.6</text><text x="787.4285714285712" y="0" dx="0em" dy="0.95em" style="text-anchor: middle; visibility: inherit; font-family: &quot;Helvetica Neue&quot;, sans-serif; font-size: 12px; font-weight: 200;" fill="rgb(50, 49, 63)" stroke="none" stroke-width="1px">0.7</text><text x="885.8571428571428" y="0" dx="0em" dy="0.95em" style="text-anchor: middle; visibility: inherit; font-family: &quot;Helvetica Neue&quot;, sans-serif; font-size: 12px; font-weight: 200;" fill="rgb(50, 49, 63)" stroke="none" stroke-width="1px">0.8</text><text x="984.2857142857141" y="0" dx="0em" dy="0.95em" style="text-anchor: middle; visibility: inherit; font-family: &quot;Helvetica Neue&quot;, sans-serif; font-size: 12px; font-weight: 200;" fill="rgb(50, 49, 63)" stroke="none" stroke-width="1px">0.9</text><text x="1082.7142857142858" y="0" dx="0em" dy="0.95em" style="text-anchor: middle; visibility: inherit; font-family: &quot;Helvetica Neue&quot;, sans-serif; font-size: 12px; font-weight: 200;" fill="rgb(50, 49, 63)" stroke="none" stroke-width="1px">1</text><text x="1181.1428571428573" y="0" dx="0em" dy="0.95em" style="text-anchor: middle; visibility: inherit; font-family: &quot;Helvetica Neue&quot;, sans-serif; font-size: 12px; font-weight: 200;" fill="rgb(50, 49, 63)" stroke="none" stroke-width="1px">1.1</text><text x="1279.5714285714284" y="0" dx="0em" dy="0.95em" style="text-anchor: middle; visibility: inherit; font-family: &quot;Helvetica Neue&quot;, sans-serif; font-size: 12px; font-weight: 200;" fill="rgb(50, 49, 63)" stroke="none" stroke-width="1px">1.2</text><text x="1378" y="0" dx="0em" dy="0.95em" style="text-anchor: middle; visibility: hidden; font-family: &quot;Helvetica Neue&quot;, sans-serif; font-size: 12px; font-weight: 200;" fill="rgb(50, 49, 63)" stroke="none" stroke-width="1px">1.3</text></g><line x1="0" y1="0" x2="1378" y2="0" fill="rgb(0, 0, 0)" stroke="rgb(204, 204, 204)" stroke-width="1px"></line></g></g></g></g></svg>