<svg viewBox="0 0 1448 400" xmlns="http://www.w3.org/2000/svg"><g><g><g><g><g><line x1="70" y1="378" x2="65" y2="378" style="visibility: inherit;" fill="rgb(0, 0, 0)" stroke="rgb(204, 204, 204)" stroke-width="1px"></line><line x1="70" y1="343.6363636363636" x2="65" y2="343.6363636363636" style="visibility: inherit;" fill="rgb(0, 0, 0)" stroke="rgb(204, 204, 204)" stroke-width="1px"></line><line x1="70" y1="309.27272727272725" x2="65" y2="309.27272727272725" style="visibility: inherit;" fill="rgb(0, 0, 0)" stroke="rgb(204, 204, 204)" stroke-width="1px"></line><line x1="70" y1="274.90909090909093" x2="65" y2="274.90909090909093" style="visibility: inherit;" fill="rgb(0, 0, 0)" stroke="rgb(204, 204, 204)" stroke-width="1px"></line><line x1="70" y1="240.54545454545453" x2="65" y2="240.54545454545453" style="visibility: inherit;" fill="rgb(0, 0, 0)" stroke="rgb(204, 204, 204)" stroke-width="1px"></line><line x1="70" y1="206.18181818181816" x2="65" y2="206.18181818181816" style="visibility: inherit;" fill="rgb(0, 0, 0)" stroke="rgb(204, 204, 204)" stroke-width="1px"></line><line x1="70" y1="171.81818181818178" x2="65" y2="171.81818181818178" style="visibility: inherit;" fill="rgb(0, 0, 0)" stroke="rgb(204, 204, 204)" stroke-width="1px"></line><line x1="70" y1="137.4545454545455" x2="65" y2="137.4545454545455" style="visibility: inherit;" fill="rgb(0, 0, 0)" stroke="rgb(204, 204, 204)" stroke-width="1px"></line><line x1="70" y1="103.09090909090907" x2="65" y2="103.09090909090907" style="visibility: inherit;" fill="rgb(0, 0, 0)" stroke="rgb(204, 204, 204)" stroke-width="1px"></line><line x1="70" y1="68.72727272727275" x2="65" y2="68.72727272727275" style="visibility: inherit;" fill="rgb(0, 0, 0)" stroke="rgb(204, 204, 204)" stroke-width="1px"></line><line x1="70" y1="34.363636363636374" x2="65" y2="34.363636363636374" style="visibility: inherit;" fill="rgb(0, 0, 0)" stroke="rgb(204, 204, 204)" stroke-width="1px"></line><line x1="70" y1="0" x2="65" y2="0" style="visibility: inherit;" fill="rgb(0, 0, 0)" stroke="rgb(204, 204, 204)" stroke-width="1px"></line></g><g transform="translate(60, 0)"><text x="0" y="378" dx="0em" dy="0.3em" style="text-anchor: end; visibility: hidden; font-family: &quot;Helvetica Neue&quot;, sans-serif; font-size: 12px; font-weight: 200;" fill="rgb(50, 49, 63)" stroke="none" stroke-width="1px">-5e-3</text><text x="0" y="343.6363636363636" dx="0em" dy="0.3em" style="text-anchor: end; visibility: inherit; font-family: &quot;Helvetica Neue&quot;, sans-serif; font-size: 12px; font-weight: 200;" fill="rgb(50, 49, 63)" stroke="none" stroke-width="1px">0</text><text x="0" y="309.27272727272725" dx="0em" dy="0.3em" style="text-anchor: end; visibility: inherit; font-family: &quot;Helvetica Neue&quot;, sans-serif; font-size: 12px; font-weight: 200;" fill="rgb(50, 49, 63)" stroke="none" stroke-width="1px">5e-3</text><text x="0" y="274.90909090909093" dx="0em" dy="0.3em" style="text-anchor: end; visibility: inherit; font-family: &quot;Helvetica Neue&quot;, sans-serif; font-size: 12px; font-weight: 200;" fill="rgb(50, 49, 63)" stroke="none" stroke-width="1px">0.01</text><text x="0" y="240.54545454545453" dx="0em" dy="0.3em" style="text-anchor: end; visibility: inherit; font-family: &quot;Helvetica Neue&quot;, sans-serif; font-size: 12px; font-weight: 200;" fill="rgb(50, 49, 63)" stroke="none" stroke-width="1px">0.015</text><text x="0" y="206.18181818181816" dx="0em" dy="0.3em" style="text-anchor: end; visibility: inherit; font-family: &quot;Helvetica Neue&quot;, sans-serif; font-size: 12px; font-weight: 200;" fill="rgb(50, 49, 63)" stroke="none" stroke-width="1px">0.02</text><text x="0" y="171.81818181818178" dx="0em" dy="0.3em" style="text-anchor: end; visibility: inherit; font-family: &quot;Helvetica Neue&quot;, sans-serif; font-size: 12px; font-weight: 200;" fill="rgb(50, 49, 63)" stroke="none" stroke-width="1px">0.025</text><text x="0" y="137.4545454545455" dx="0em" dy="0.3em" style="text-anchor: end; visibility: inherit; font-family: &quot;Helvetica Neue&quot;, sans-serif; font-size: 12px; font-weight: 200;" fill="rgb(50, 49, 63)" stroke="none" stroke-width="1px">0.03</text><text x="0" y="103.09090909090907" dx="0em" dy="0.3em" style="text-anchor: end; visibility: inherit; font-family: &quot;Helvetica Neue&quot;, sans-serif; font-size: 12px; font-weight: 200;" fill="rgb(50, 49, 63)" stroke="none" stroke-width="1px">0.035</text><text x="0" y="68.72727272727275" dx="0em" dy="0.3em" style="text-anchor: end; visibility: inherit; font-family: &quot;Helvetica Neue&quot;, sans-serif; font-size: 12px; font-weight: 200;" fill="rgb(50, 49, 63)" stroke="none" stroke-width="1px">0.04</text><text x="0" y="34.363636363636374" dx="0em" dy="0.3em" style="text-anchor: end; visibility: inherit; font-family: &quot;Helvetica Neue&quot;, sans-serif; font-size: 12px; font-weight: 200;" fill="rgb(50, 49, 63)" stroke="none" stroke-width="1px">0.045</text><text x="0" y="0" dx="0em" dy="0.3em" style="text-anchor: end; visibility: hidden; font-family: &quot;Helvetica Neue&quot;, sans-serif; font-size: 12px; font-weight: 200;" fill="rgb(50, 49, 63)" stroke="none" stroke-width="1px">0.05</text></g><line x1="70" y1="0" x2="70" y2="378" fill="rgb(0, 0, 0)" stroke="rgb(204, 204, 204)" stroke-width="1px"></line></g></g><g transform="translate(70, 0)" clip-path="url(#clip_0)"><clipPath id="clip_0"><rect width="1378" height="378"></rect></clipPath><g><g><g><line x1="0" y1="0" x2="0" y2="378" fill="rgb(0, 0, 0)" stroke="rgb(60, 60, 60)" stroke-width="1px" opacity="0.25"></line><line x1="114.83333333333333" y1="0" x2="114.83333333333333" y2="378" fill="rgb(0, 0, 0)" stroke="rgb(60, 60, 60)" stroke-width="1px" opacity="0.25"></line><line x1="229.66666666666666" y1="0" x2="229.66666666666666" y2="378" fill="rgb(0, 0, 0)" stroke="rgb(60, 60, 60)" stroke-width="1px" opacity="0.25"></line><line x1="344.5" y1="0" x2="344.5" y2="378" fill="rgb(0, 0, 0)" stroke="rgb(60, 60, 60)" stroke-width="1px" opacity="0.25"></line><line x1="459.3333333333333" y1="0" x2="459.3333333333333" y2="378" fill="rgb(0, 0, 0)" stroke="rgb(60, 60, 60)" stroke-width="1px" opacity="0.25"></line><line x1="574.1666666666667" y1="0" x2="574.1666666666667" y2="378" fill="rgb(0, 0, 0)" stroke="rgb(60, 60, 60)" stroke-width="1px" opacity="0.25"></line><line x1="689" y1="0" x2="689" y2="378" fill="rgb(0, 0, 0)" stroke="rgb(60, 60, 60)" stroke-width="1px" opacity="0.25"></line><line x1="803.8333333333334" y1="0" x2="803.8333333333334" y2="378" fill="rgb(0, 0, 0)" stroke="rgb(60, 60, 60)" stroke-width="1px" opacity="0.25"></line><line x1="918.6666666666666" y1="0" x2="918.6666666666666" y2="378" fill="rgb(0, 0, 0)" stroke="rgb(60, 60, 60)" stroke-width="1px" opacity="0.25"></line><line x1="1033.5" y1="0" x2="1033.5" y2="378" fill="rgb(0, 0, 0)" stroke="rgb(60, 60, 60)" stroke-width="1px" opacity="0.25"></line><line x1="1148.3333333333335" y1="0" x2="1148.3333333333335" y2="378" fill="rgb(0, 0, 0)" stroke="rgb(60, 60, 60)" stroke-width="1px" opacity="0.25"></line><line x1="1263.1666666666665" y1="0" x2="1263.1666666666665" y2="378" fill="rgb(0, 0, 0)" stroke="rgb(60, 60, 60)" stroke-width="1px" opacity="0.25"></line><line x1="1378" y1="0" x2="1378" y2="378" fill="rgb(0, 0, 0)" stroke="rgb(60, 60, 60)" stroke-width="1px" opacity="0.25"></line></g><g><line x1="0" y1="378" x2="1378" y2="378" fill="rgb(0, 0, 0)" stroke="rgb(60, 60, 60)" stroke-width="1px" opacity="0.25"></line><line x1="0" y1="343.6363636363636" x2="1378" y2="343.6363636363636" fill="rgb(0, 0, 0)" stroke="rgb(60, 60, 60)" stroke-width="1px" opacity="0.25"></line><line x1="0" y1="309.27272727272725" x2="1378" y2="309.27272727272725" fill="rgb(0, 0, 0)" stroke="rgb(60, 60, 60)" stroke-width="1px" opacity="0.25"></line><line x1="0" y1="274.90909090909093" x2="1378" y2="274.90909090909093" fill="rgb(0, 0, 0)" stroke="rgb(60, 60, 60)" stroke-width="1px" opacity="0.25"></line><line x1="0" y1="240.54545454545453" x2="1378" y2="240.54545454545453" fill="rgb(0, 0, 0)" stroke="rgb(60, 60, 60)" stroke-width="1px" opacity="0.25"></line><line x1="0" y1="206.18181818181816" x2="1378" y2="206.18181818181816" fill="rgb(0, 0, 0)" stroke="rgb(60, 60, 60)" stroke-width="1px" opacity="0.25"></line><line x1="0" y1="171.81818181818178" x2="1378" y2="171.81818181818178" fill="rgb(0, 0, 0)" stroke="rgb(60, 60, 60)" stroke-width="1px" opacity="0.25"></line><line x1="0" y1="137.4545454545455" x2="1378" y2="137.4545454545455" fill="rgb(0, 0, 0)" stroke="rgb(60, 60, 60)" stroke-width="1px" opacity="0.25"></line><line x1="0" y1="103.09090909090907" x2="1378" y2="103.09090909090907" fill="rgb(0, 0, 0)" stroke="rgb(60, 60, 60)" stroke-width="1px" opacity="0.25"></line><line x1="0" y1="68.72727272727275" x2="1378" y2="68.72727272727275" fill="rgb(0, 0, 0)" stroke="rgb(60, 60, 60)" stroke-width="1px" opacity="0.25"></line><line x1="0" y1="34.363636363636374" x2="1378" y2="34.363636363636374" fill="rgb(0, 0, 0)" stroke="rgb(60, 60, 60)" stroke-width="1px" opacity="0.25"></line><line x1="0" y1="0" x2="1378" y2="0" fill="rgb(0, 0, 0)" stroke="rgb(60, 60, 60)" stroke-width="1px" opacity="0.25"></line></g></g></g><g><g><line x1="0" y1="343.6363636363636" x2="1378" y2="343.6363636363636" fill="rgb(0, 0, 0)" stroke="rgb(153, 153, 153)" stroke-width="1.5px"></line></g></g><g><g><line x1="114.83333333333333" y1="0" x2="114.83333333333333" y2="378" fill="rgb(0, 0, 0)" stroke="rgb(153, 153, 153)" stroke-width="1.5px"></line></g></g><g><g><g><g><g><path stroke="rgb(255, 112, 67)" stroke-width="2px" d="M142.39333333333335,-3.731355358641224L144.69,2.031726808831081L144.69,4.161383010016664L144.69,0.10366919370960659L146.98666666666668,6.067130753220738L146.98666666666668,8.670570794930256L146.98666666666668,10.24428785020433L146.98666666666668,15.539007003702409L149.28333333333333,19.108498388096052L149.28333333333333,24.01629290329845L151.58,24.210023526754583L151.58,28.082359534647367L156.17333333333332,32.71334866479202L156.17333333333332,36.16637056727336L156.17333333333332,40.242509211080005L156.17333333333332,44.143394176584934L158.47,46.36430494871763L158.47,50.15441984349269L158.47,51.599286149207614L160.76666666666668,53.96743359195642L165.35999999999999,56.70961054030454L165.35999999999999,58.82259167625398L169.95333333333335,61.4811824929115L172.25,64.83781802455366L172.25,67.44530917432706L172.25,70.55631774176788L174.54666666666668,73.63296301170755L176.84333333333333,76.6372127989817L179.14000000000001,79.20318722002048L181.43666666666664,81.80650815941783L181.43666666666664,83.12448913182845L181.43666666666664,85.25129148416295L190.62333333333333,86.47572534127863L190.62333333333333,88.18957114608997L190.62333333333333,89.80165720324896L190.62333333333333,92.00908070804633L192.92000000000002,93.87789288806806L192.92000000000002,96.12121591665812L192.92000000000002,97.70787791981729L192.92000000000002,97.40726559113921L195.21666666666667,98.55586523111594L195.21666666666667,99.9145005148543L195.21666666666667,100.97810586492187L195.21666666666667,102.54162531257384L195.21666666666667,104.36217700664395L197.51333333333335,106.15782978823205L199.80999999999997,107.77749706017204L199.80999999999997,109.08432658603954L204.40333333333334,110.50604453089494L204.40333333333334,112.16124170904664L204.40333333333334,113.76923705685374L204.40333333333334,115.36965488453109L204.40333333333334,116.8718579376706L206.7,118.48846153046162L206.7,119.658192436908L206.7,120.83290905153848L206.7,122.07550702075082L208.99666666666667,123.44969564979615L208.99666666666667,124.17628009358629L211.29333333333332,125.6271376031248L213.59,126.28958226397495L213.59,127.21312256744585L215.88666666666668,128.75297997652862L215.88666666666668,130.0188462844571L220.48000000000002,130.92379856620943L222.77666666666664,132.1274568247054L225.07333333333332,133.42518755943544L225.07333333333332,133.50374580027173L225.07333333333332,133.9571636627099L225.07333333333332,134.9488221614372L227.37,135.89195169686076L229.66666666666666,136.9907843531595L229.66666666666666,137.96535955930977L229.66666666666666,138.98932215050775L229.66666666666666,139.34335437726043L231.96333333333334,139.8249561889609L231.96333333333334,140.61785640216735L231.96333333333334,141.70558991758833L234.26000000000002,142.68440602912412L234.26000000000002,143.4958909521411L236.55666666666667,143.90389723414665L238.85333333333335,144.85854983509842L238.85333333333335,145.79302911995578L238.85333333333335,146.61944283170277L238.85333333333335,147.1466910556432L241.14999999999998,147.93133657864408L241.14999999999998,148.54643176461423L241.14999999999998,149.56564624005193L241.14999999999998,150.6039310623393L243.44666666666666,151.66972335776416L243.44666666666666,152.1059524118621L243.44666666666666,152.889047240957L243.44666666666666,153.83172265562106L243.44666666666666,154.47154914137334L243.44666666666666,155.3158322184326L243.44666666666666,155.96912148054636L245.74333333333334,156.79783018568241L245.74333333333334,157.8187083426879L245.74333333333334,155.32695991456924L250.33666666666667,156.05782995393753L250.33666666666667,156.75665072109615L252.63333333333333,157.32208742383096L254.93,158.0865655309513L254.93,158.3425591637402L254.93,158.68793452422318L254.93,159.22304316308592L257.2266666666667,160.0967855023734L257.2266666666667,160.79046793424004L259.5233333333333,161.52443897930905L261.82,162.22419630639413L261.82,162.76872442007783L261.82,163.31828126467045L264.1166666666667,163.7734608048311L266.41333333333336,164.1412570998433L266.41333333333336,164.86382831213837L268.71000000000004,165.06639799654155L268.71000000000004,165.301484517084L268.71000000000004,165.83328804245448L268.71000000000004,166.42666607438775L271.00666666666666,167.03240675309735L271.00666666666666,167.59057491843097L275.6,167.88791861163426L275.6,168.39632056972331L280.1933333333333,168.7627504429647L280.1933333333333,169.40430422235642L280.1933333333333,169.6662039580837L282.49,170.358438922918L282.49,170.6922330907192L282.49,170.82059907696208L282.49,171.37804107589344L282.49,171.76428745279577L284.7866666666667,172.33369815631238L284.7866666666667,172.39959653512514L287.08333333333337,172.9780712498793L287.08333333333337,173.16430428164801L287.08333333333337,173.6600689941943L289.38,174.13053419472809L291.6766666666667,174.6207842606632L293.97333333333336,174.80489998011362L296.27,175.4746829239989L296.27,176.12064803459018L296.27,176.69176167940637L300.86333333333334,177.21961191077517L300.86333333333334,177.5595750911951L305.4566666666667,178.000830799106L307.75333333333333,178.49803004575253L307.75333333333333,178.29418788769675L307.75333333333333,178.65510187367846L307.75333333333333,179.2336945195682L310.05,179.3743430136006L312.34666666666664,179.8471187126088L314.6433333333333,180.30846370883165L314.6433333333333,180.65211508328653L314.6433333333333,180.75855145131916L316.94,180.8787817325266L316.94,181.16936225384762L316.94,181.41453768838358L319.2366666666667,181.84850980552963L319.2366666666667,182.21040482452364L321.53333333333336,182.63460614728731L323.83,182.95887367186586L326.12666666666667,183.30075135574475L326.12666666666667,183.5741817398039L328.42333333333335,183.82435598809295L328.42333333333335,184.21956373292667L328.42333333333335,184.8081832206469L330.71999999999997,185.3081699055174L330.71999999999997,185.70552715774045L330.71999999999997,186.0702913778237L333.01666666666665,186.49632891562962L337.61,186.6174663399742L337.61,187.00132324449635L337.61,187.5468050248246L339.9066666666667,188.03875771473525L339.9066666666667,188.27181490063407L339.9066666666667,188.3926712713991L339.9066666666667,188.54786913448433L342.2033333333333,188.7841058346075L342.2033333333333,189.13777033029044L342.2033333333333,189.51805606478567L344.5,189.75070954090987L346.7966666666666,190.10012237610434L346.7966666666666,190.56467731400306L349.09333333333336,191.10975395685728L351.39,191.50226145257153L355.98333333333335,191.63099740689438L355.98333333333335,191.9547355511425L355.98333333333335,192.33070230014982L358.28000000000003,192.490316190665L360.57666666666665,192.8119977757636L362.8733333333333,193.03719520318703L362.8733333333333,193.20516627580497L362.8733333333333,193.53157059530352L367.46666666666664,193.76942321049893L367.46666666666664,194.14574072567137L367.46666666666664,194.49646238319312L369.7633333333333,194.7635635956713L372.06,195.1529117630284L374.3566666666667,195.37930976261572L374.3566666666667,195.70687475094607L376.6533333333333,195.94617048634666L376.6533333333333,196.25079262924118L376.6533333333333,196.53122894567161L378.95000000000005,196.76269542593894L378.95000000000005,196.99150523131013L381.24666666666667,197.3438056128815L381.24666666666667,197.7493119252696L381.24666666666667,198.03244453935463L383.5433333333333,198.26209394426706L385.84000000000003,198.37279170355038L385.84000000000003,198.6175547783032L385.84000000000003,198.8446691997028L385.84000000000003,199.0032985008557L388.13666666666666,199.33801289195324L388.13666666666666,199.6862676493978L388.13666666666666,199.7287568173378L388.13666666666666,200.02868189801046L388.13666666666666,200.3194420742402L390.43333333333334,200.48579089535767L390.43333333333334,200.8012239866445L390.43333333333334,201.0025976575335L395.0266666666667,201.32595263226088L395.0266666666667,201.64165375843083L399.61999999999995,201.9191179869077L401.9166666666667,202.2491445782089L404.2133333333333,202.4323776658688L404.2133333333333,202.600975848281L404.2133333333333,202.9916196838669L404.2133333333333,203.14382027327164L406.51,203.43134768722203L406.51,203.67846015906318L406.51,203.99514387902093L408.8066666666667,204.2729832004879L411.10333333333335,204.4529124102895L413.4,204.71620937748642L413.4,204.96908997607224L413.4,205.24292153370905L413.4,205.41470406610517L413.4,205.68232462192117L413.4,205.83670829927357L415.6966666666667,206.06796031982532L417.99333333333334,206.302606139591L417.99333333333334,206.61961132102485L417.99333333333334,206.58915758174274L417.99333333333334,206.74750505388704L417.99333333333334,207.01573292205032L420.28999999999996,206.99929833907052L420.28999999999996,207.25095148031687L420.28999999999996,207.3996302968413L420.28999999999996,207.61520541659638L420.28999999999996,207.83499584764715L422.58666666666664,208.19228227261135L427.18,208.42388972548832L427.18,208.5250589271387L427.18,208.68482406335153L429.47666666666663,208.89743811441582L434.07,209.15955145317935L434.07,209.42688249776185L436.3666666666667,209.6259159692069L438.66333333333336,209.62838211593626L438.66333333333336,209.73298316346634L438.66333333333336,209.75741503481666L440.96000000000004,209.8377950022474L443.25666666666666,210.01558094894716L443.25666666666666,210.15985512939082L443.25666666666666,210.45796660575655L445.5533333333333,210.6651737329396L445.5533333333333,210.80949938471642L447.85,211.03258167493436L450.14666666666665,211.25942322851728L450.14666666666665,211.39391187409714L452.4433333333333,211.59224129536688L452.4433333333333,211.57737189160352L454.74,211.64929427427066L454.74,211.8465589278513L454.74,212.04570737467984L459.3333333333333,212.29430216876966L461.63000000000005,212.44184447465113L461.63000000000005,212.6760623726243L463.9266666666667,212.74559371750522L466.2233333333333,212.79474500259036L466.2233333333333,212.94662051199478L466.2233333333333,213.15780193260628L466.2233333333333,213.41469019557255L468.52000000000004,213.53197005448277L468.52000000000004,213.7421905511298L470.81666666666666,213.88710961950193L473.11333333333334,213.96526967766468L473.11333333333334,213.98194046525646L475.40999999999997,214.20495087718874L475.40999999999997,214.23638412341168L475.40999999999997,214.48134777897252L477.7066666666667,214.62468187278273L480.00333333333333,214.84807495921558L480.00333333333333,215.10555849076715L482.29999999999995,215.21949030738338L484.5966666666667,215.4759021102881L484.5966666666667,215.72517354132776L486.8933333333333,215.8992619466188L486.8933333333333,216.15825056904396L489.19,216.37734025905164L491.4866666666667,216.4780640114835L491.4866666666667,216.69895330396434L491.4866666666667,216.80105483527998L493.78333333333336,217.00397709267213L496.08,217.22753408162637L496.08,217.44700633092108L496.08,217.58498339842015L496.08,217.74600539180824L496.08,217.92383262235057L498.3766666666667,218.11361004657047L498.3766666666667,218.33660307286138L500.67333333333335,218.53891923626634L500.67333333333335,218.7926514000513L502.96999999999997,218.98381306262627L502.96999999999997,219.1969259473023L502.96999999999997,219.4060832413192L502.96999999999997,219.58099750983934L502.96999999999997,219.75345168533363L502.96999999999997,219.91315944263408L505.26666666666665,220.05113408737424L505.26666666666665,220.29027041674428L507.56333333333333,220.45496057600107L507.56333333333333,220.58764702632877L509.86,220.77987049761626L509.86,220.90220131034394L512.1566666666666,221.06890522235443L512.1566666666666,221.24021016530224L512.1566666666666,221.51517509962903L514.4533333333334,221.68911620167148L514.4533333333334,221.93854228923328L514.4533333333334,222.01450438428822L516.75,222.16688447154002L516.75,222.3731129435562L516.75,222.57115985803705L516.75,222.74736748034536L516.75,222.74190447631722L521.3433333333334,222.92359007698784L525.9366666666666,223.1239834831703L528.2333333333333,223.22150671290055L528.2333333333333,223.40858419858898L528.2333333333333,223.60076803090928L530.53,223.7428429430318L530.53,223.8923204489854L532.8266666666667,224.01919988860087L532.8266666666667,224.27034777389255L532.8266666666667,224.43680278549644L535.1233333333333,224.6330338510078L535.1233333333333,224.84051052662124L537.4200000000001,224.96860767420424L537.4200000000001,225.1960057748662L539.7166666666667,225.4156466484831L539.7166666666667,225.49910744837692L542.0133333333333,225.69217070549223L542.0133333333333,225.81073336790797L544.3100000000001,225.99962345976783L544.3100000000001,226.0896918246387L544.3100000000001,226.20856018870012L546.6066666666667,226.29904607186043L546.6066666666667,226.3764584046225L548.9033333333333,226.5233388896917L551.2,226.76340628488626L551.2,226.86181988432685L551.2,227.02581306200022L553.4966666666667,227.13257061466877L555.7933333333333,227.31220318431704L555.7933333333333,227.49457085641401L555.7933333333333,227.56111493156823L555.7933333333333,227.70715385403042L558.09,227.73292138073217L558.09,227.8791116674752L560.3866666666667,228.00502348087366L560.3866666666667,228.1833983632343L560.3866666666667,228.38823542764112L562.6833333333333,228.558825558354L564.98,228.6911370970061L564.98,228.76875882689276L567.2766666666666,228.88566975165412L571.87,229.02654585020255L571.87,229.2082876451942L571.87,229.3362157719259L571.87,229.2003032555033L574.1666666666667,229.2864674005519L574.1666666666667,229.24200269871565L576.4633333333334,229.37728349724492L578.76,229.47778134071828L578.76,229.59725278863934L578.76,229.75762232978323L581.0566666666667,229.9438346240612L581.0566666666667,230.06199746640013L583.3533333333334,230.16702374537576L585.65,230.3021487862452L585.65,230.41537122824198L585.65,230.47858490700975L587.9466666666667,230.62324651500842L594.8366666666666,230.63420035210052L597.1333333333333,230.71519783295477L597.1333333333333,230.81843054710237L597.1333333333333,230.8988773759922L599.43,230.98700770545705L599.43,231.14375231330092L599.43,231.2324060039043L601.7266666666667,231.35915812115564L601.7266666666667,231.53290108304432L604.0233333333333,231.53963051819494L604.0233333333333,231.69906188091653L604.0233333333333,231.85003017527316L604.0233333333333,231.9735302718101L606.32,232.12739988452512L608.6166666666667,232.28352126624293L610.9133333333334,232.4469097305024L610.9133333333334,232.58962005642766L613.21,232.69951345601274L615.5066666666667,232.8267768168804L615.5066666666667,232.9737537722778L617.8033333333333,233.10203556169725L620.1,233.2181861311524L620.1,233.30126430255143L622.3966666666666,233.45450485623923L622.3966666666666,233.58692296329338L622.3966666666666,233.7524932436102L624.6933333333333,233.84510767833126L624.6933333333333,233.95423055607296L626.99,234.0526442750276L626.99,234.1322762275348L629.2866666666666,234.12157777132012L629.2866666666666,234.2371664772184L631.5833333333333,234.32727881912578L631.5833333333333,234.35153821067414L631.5833333333333,234.43460690101458L631.5833333333333,234.5139304191175L633.88,234.64702350455926L633.88,234.79151340545815L636.1766666666666,234.89819028227222L638.4733333333334,235.0270108493216L640.77,235.0916911334057L640.77,235.13555146363626L640.77,235.27061275942037L643.0666666666667,235.37955105118473L643.0666666666667,235.5103665210489L643.0666666666667,235.56244884160662L643.0666666666667,235.66372763562006L643.0666666666667,235.70403498147067L643.0666666666667,235.72949484944274L645.3633333333333,235.79841494016318L647.66,235.93218973011452L647.66,235.97552214600245L649.9566666666667,236.08896734107623L649.9566666666667,236.18008591811753L652.2533333333333,236.3079750117627L652.2533333333333,236.4597641228318L654.55,236.52201105480813L654.55,236.6581214369219L654.55,236.7920252544241L654.55,236.92143690750385L656.8466666666667,237.06589077127424L656.8466666666667,237.18289200866468L659.1433333333333,237.28999842833161L659.1433333333333,237.3940708148088L659.1433333333333,237.4308200950573L663.7366666666667,237.50089819114433L666.0333333333333,237.54644527495591L666.0333333333333,237.67777346982243L668.3299999999999,237.73078792225206L670.6266666666667,237.75199445467817L672.9233333333333,237.8309918730445L675.22,237.93057180623654L675.22,238.02311155945807L675.22,238.06294306970378L675.22,238.10240745522654L675.22,238.19595786267172L675.22,238.29577265144383L677.5166666666667,238.37245567539412L679.8133333333334,238.51402525865893L679.8133333333334,238.5215650166362L679.8133333333334,238.45926246436125L684.4066666666666,238.50646471476398L684.4066666666666,238.60656792825844L684.4066666666666,238.59924432035223L684.4066666666666,238.67031533214669L684.4066666666666,238.7398979218851L684.4066666666666,238.77230069554977L684.4066666666666,238.89293077052488L684.4066666666666,238.85866834504588L686.7033333333334,238.97407701700624L686.7033333333334,239.01564295731728L691.2966666666667,239.0871598462588L691.2966666666667,239.19059674302724L693.5933333333332,239.24694119390387L693.5933333333332,239.1366769683523L693.5933333333332,239.18389637193604L698.1866666666667,239.27600215686348L700.4833333333333,239.2836014988372L702.78,239.40388089282143L702.78,239.433125597012L702.78,239.54598131603106L705.0766666666667,239.68143887571296L705.0766666666667,239.70141162452248L707.3733333333333,239.79721581419145L707.3733333333333,239.93538921425494L707.3733333333333,239.96184441950302L707.3733333333333,240.08821616099127L707.3733333333333,240.2037044180605L709.6700000000001,240.31011650848114L709.6700000000001,240.3384330906815L709.6700000000001,240.33490141671263L709.6700000000001,240.4020419037867L714.2633333333333,240.46601089853962L716.5600000000001,240.48397652253274L716.5600000000001,240.57609967893694L716.5600000000001,240.62071175298854L718.8566666666666,240.70145718248835L718.8566666666666,240.80177086829934L718.8566666666666,240.8526858781744L721.1533333333333,240.9343606370466L721.1533333333333,240.9301582761061L723.45,240.9925459704364L723.45,241.064117715845L723.45,241.10936675948594L725.7466666666666,241.14818836888642L725.7466666666666,241.11231328184275L725.7466666666666,241.18972428446673L725.7466666666666,241.28650438008586L725.7466666666666,241.35292095184641L728.0433333333333,241.39826413898152L728.0433333333333,241.49342643192296L730.34,241.53518958319538L732.6366666666667,241.56442004196586L734.9333333333333,241.6624540084546L737.23,241.7736018063431L739.5266666666666,241.8012121761545L739.5266666666666,241.8866694642746L739.5266666666666,242.01048311866975L741.8233333333334,242.102597633558L741.8233333333334,242.18877475788705L741.8233333333334,242.27568438733428L741.8233333333334,242.38237576241656L744.12,242.4264928306653L744.12,242.52402685443346L746.4166666666666,242.5908315133311L746.4166666666666,242.61615761823637L746.4166666666666,242.69122329220917L746.4166666666666,242.77629981249095L748.7133333333334,242.88832334484113L748.7133333333334,242.96334914670862L751.0100000000001,243.03679625184546L751.0100000000001,243.14029393865698L751.0100000000001,243.25231260856262L753.3066666666666,243.3590971628173L753.3066666666666,243.41802673707798L755.6033333333334,243.55954824940076L755.6033333333334,243.65589448173313L755.6033333333334,243.77219453040226L757.9000000000001,243.8478874725519L760.1966666666666,243.92072340187335L762.4933333333333,244.03873956570527L762.4933333333333,244.11897970085263L762.4933333333333,244.16776306343445L764.7900000000001,244.25760785731626L764.7900000000001,244.3448919554257L767.0866666666666,244.43426075631558L767.0866666666666,244.54619966360616L767.0866666666666,244.5925820155049L769.3833333333333,244.6834383951915L769.3833333333333,244.77493658639685L769.3833333333333,244.87151749967651L771.6800000000001,244.86722823247533L773.9766666666667,244.9518359369717L776.2733333333333,244.90402738750527L776.2733333333333,245.01953043149422L778.5699999999999,245.10637869529162L778.5699999999999,245.19273303543676L780.8666666666667,245.3125881057374L783.1633333333334,245.3867041118406L785.4599999999999,245.47265898651105L785.4599999999999,245.5517226417078L787.7566666666667,245.64130552367152L787.7566666666667,245.76446548407466L787.7566666666667,245.87141248433915L790.0533333333334,245.96763487606964L794.6466666666666,246.06538783702206L794.6466666666666,246.01873550557514L796.9433333333334,246.10602312219856L796.9433333333334,246.10875254590317L796.9433333333334,246.16091883445097L796.9433333333334,246.2636810942524L799.2399999999999,246.3306599906277L799.2399999999999,246.39652555168527L801.5366666666666,246.5057499888407L803.8333333333334,246.58110276973287L803.8333333333334,246.5996785196019L803.8333333333334,246.60858885570158L803.8333333333334,246.67374971516412L803.8333333333334,246.72195434237298L806.13,246.7667668771185L806.13,246.7973536498505L806.13,246.89559015965162L806.13,247.01068837765905L806.13,247.08386322560793L808.4266666666666,247.10017556594784L810.7233333333334,247.19160849334216L813.02,247.27841954942156L815.3166666666667,247.30461166920017L815.3166666666667,247.41267221603144L817.6133333333333,247.53641396206694L817.6133333333333,247.47187010134255L817.6133333333333,247.5610342876131L819.91,247.62539598868145L819.91,247.6764873200298L819.91,247.7131633933128L819.91,247.74463408028942L819.91,247.80328161726797L819.91,247.87257054408116L822.2066666666667,247.9906809277925L822.2066666666667,248.1038799690189L824.5033333333334,248.14831774681204L824.5033333333334,248.235745869458L829.0966666666667,248.3048702373644L829.0966666666667,248.40778961817398L829.0966666666667,248.42977989747186L829.0966666666667,248.4792849796879L831.3933333333334,248.5699455343241L831.3933333333334,248.59205458182643L833.6899999999999,248.68443453689648L833.6899999999999,248.76274572537798L840.5799999999999,248.81993599066087L842.8766666666667,248.90782721407464L845.1733333333333,248.99932284979798L849.7666666666667,249.09447681850943L852.0633333333333,249.05665977841133L852.0633333333333,249.1216307948025L852.0633333333333,249.17608313444327L856.6566666666668,249.25097109250854L856.6566666666668,249.36009730863546L856.6566666666668,249.44700340847174L856.6566666666668,249.46243162184078L858.9533333333333,249.56352281452126L861.25,249.66555354444057L863.5466666666667,249.66278622327405L863.5466666666667,249.68491905162176L863.5466666666667,249.76046552471453L865.8433333333332,249.8780949326356L865.8433333333332,249.97690882073363L868.14,250.03839140172124L868.14,250.08942888997234L870.4366666666667,250.05804575922687L870.4366666666667,250.1187114823058L875.03,250.11855803960583L875.03,250.17687154830531L877.3266666666667,250.2019743958242L877.3266666666667,250.21044894430707L877.3266666666667,250.27819200483057L879.6233333333333,250.36597304829195L879.6233333333333,250.44950465259242L881.9200000000001,250.53759347191033L884.2166666666667,250.58150758473664L886.5133333333333,250.6357825202873L886.5133333333333,250.71439688239207L888.8100000000001,250.79078624078994L891.1066666666666,250.78282150474297L895.7,250.87700215480208L897.9966666666666,250.92671929237565L897.9966666666666,250.97866683297838L900.2933333333333,251.04088062495697L900.2933333333333,251.06962160542972L900.2933333333333,251.0853255598206L902.59,251.16566204546288L902.59,251.164418747649L902.59,251.1806299162065L904.8866666666667,251.1777202375323L907.1833333333333,251.2421464580902L907.1833333333333,251.32675921448225L907.1833333333333,251.3516926294733L907.1833333333333,251.43665618978758L909.48,251.50847442068803L911.7766666666666,251.59746226184348L914.0733333333334,251.66253818333234L918.6666666666666,251.70788628169248L918.6666666666666,251.7292158838158L920.9633333333334,251.77265343936295L920.9633333333334,251.85464550443788L923.2600000000001,251.8274549021438L923.2600000000001,251.84735487573562L923.2600000000001,251.90753810648556L925.5566666666666,251.96149211733092L927.8533333333334,252.0153230749799L930.1500000000001,252.08970034378996L930.1500000000001,252.09185933769305L930.1500000000001,252.17576623200375L934.7433333333333,252.19212335428904L934.7433333333333,252.20812266528458L934.7433333333333,252.27118013278272L937.0400000000001,252.32776058925708L937.0400000000001,252.32092434198583L937.0400000000001,252.39465076918026L939.3366666666666,252.4484748803526L941.6333333333333,252.50860884493937L941.6333333333333,252.5673196681536L943.9300000000001,252.62892676166592L943.9300000000001,252.6988670346953L946.2266666666667,252.7243305058384L946.2266666666667,252.8039055500538L948.5233333333333,252.81476438187298L948.5233333333333,252.88271377387795L950.8199999999999,252.94563803456418L953.1166666666667,253.01363207577526L957.7099999999999,253.08162206748727L962.3033333333334,253.15102030396963L964.5999999999999,253.13215832814475L966.8966666666666,253.1568746815428L969.1933333333334,253.14460563615037L969.1933333333334,253.17522627775514L969.1933333333334,253.25399927732118L971.4899999999999,253.28417918052875L971.4899999999999,253.33877565299423L973.7866666666666,253.28914931757137L973.7866666666666,253.31846386683014L973.7866666666666,253.3818831409855L976.0833333333334,253.41574489804213L976.0833333333334,253.45972536893618L976.0833333333334,253.52158145349654L978.38,253.53840040692842L978.38,253.5789432276456L978.38,253.62843059016961L980.6766666666666,253.69621219210816L980.6766666666666,253.73818116376196L980.6766666666666,253.7961693276926L980.6766666666666,253.80385572727326L982.9733333333334,253.83633696884408L982.9733333333334,253.85910896059283L985.27,253.74604371907563L989.8633333333333,253.81688895165234L989.8633333333333,253.83980642710947L989.8633333333333,253.88530362616558L992.16,253.94992316227217L994.4566666666667,253.92578629939572L994.4566666666667,253.92595668365243L994.4566666666667,253.96895659870762L996.7533333333334,254.01412935128235L996.7533333333334,254.06886754148235L996.7533333333334,254.09441534328653L996.7533333333334,254.1387577497863L996.7533333333334,254.21726997510862L996.7533333333334,254.2585053897197L999.05,254.31402114520486L999.05,254.36199875201845L1001.3466666666667,254.40020149815595L1001.3466666666667,254.4526502991078L1001.3466666666667,254.5311668574531L1001.3466666666667,254.51928107689986L1005.9399999999999,254.53344826210446L1005.9399999999999,254.609976641226L1008.2366666666667,254.54904407495812L1008.2366666666667,254.59846794859948L1010.5333333333333,254.6526062293592L1010.5333333333333,254.6726880785141L1012.8299999999999,254.73170894391245L1012.8299999999999,254.78014847913772L1015.1266666666667,254.84386519867923L1015.1266666666667,254.89960982997945L1017.4233333333333,254.94527667828788L1017.4233333333333,254.97897566260212L1019.72,255.00634168324012L1022.0166666666667,255.05158498917675L1024.3133333333333,255.0761207476964L1024.3133333333333,255.16226724558365L1026.61,255.19060954553302L1026.61,255.23048672202788L1028.9066666666668,255.25411887204314L1028.9066666666668,255.28397601946142L1033.5,255.32351311720558L1033.5,255.42120644962364L1038.0933333333332,255.48484892048705L1038.0933333333332,255.55089152068552L1040.39,255.60797454920512L1042.6866666666667,255.6739249453724L1042.6866666666667,255.73549923213946L1044.9833333333333,255.76275687361357L1044.9833333333333,255.8160374966672L1047.28,255.83908636273833L1047.28,255.91935312443556L1049.5766666666668,255.95328740482492L1049.5766666666668,255.99293400878815L1051.8733333333332,256.0431422649089L1051.8733333333332,256.1275940797634L1051.8733333333332,256.18218144005056L1054.17,256.22583581236546L1054.17,256.25736414029484L1056.4666666666667,256.3181930476166L1056.4666666666667,256.3692446597205L1056.4666666666667,256.4159598499583L1058.7633333333333,256.46371769119344L1061.06,256.4576488807952L1061.06,256.51691812426037L1061.06,256.4917954304462L1061.06,256.5609813328778L1063.3566666666666,256.58543551625326L1063.3566666666666,256.56945241419817L1063.3566666666666,256.6342295067305L1065.6533333333334,256.6059724228969L1065.6533333333334,256.62693894881863L1067.95,256.6840344369052L1067.95,256.73496175105447L1067.95,256.72752912009423L1070.2466666666667,256.70108650817076L1070.2466666666667,256.751499262846L1072.5433333333333,256.7777821447013L1074.8400000000001,256.8411132115286L1074.8400000000001,256.893389114501L1074.8400000000001,256.92707023706765L1077.1366666666665,256.96895574203194L1077.1366666666665,257.0077509240796L1077.1366666666665,257.0453264312672L1079.4333333333334,257.1216241070855L1081.73,257.13357042019555L1081.73,257.172550649055L1084.0266666666666,257.229667971875L1088.6200000000001,257.29805602075095L1088.6200000000001,257.30802380676914L1088.6200000000001,257.3798365405142L1088.6200000000001,257.3928881577659L1088.6200000000001,257.45657616721144L1090.9166666666665,257.44470915837866L1090.9166666666665,257.4755269816437L1090.9166666666665,257.55116901461224L1093.2133333333334,257.6062399093573L1095.51,257.66658996240676L1095.51,257.74534120669523L1095.51,257.76959562901686L1095.51,257.83601954483663L1097.8066666666666,257.9147019639179L1097.8066666666666,257.9869023804748L1104.6966666666667,258.0101065281751L1104.6966666666667,258.07757745165384L1104.6966666666667,258.1279552841814L1104.6966666666667,258.1887476615197L1104.6966666666667,258.2231107575733L1104.6966666666667,258.2369539008899L1106.9933333333333,258.29925644667037L1109.29,258.2892675181741L1111.5866666666666,258.3385429895054L1113.8833333333334,258.383160356404L1113.8833333333334,258.4430767052698L1113.8833333333334,258.51541055519493L1113.8833333333334,258.5220596320721L1116.18,258.5704407148609L1116.18,258.6275189920024L1118.4766666666667,258.6239055724319L1118.4766666666667,258.663536230988L1118.4766666666667,258.710789514266L1118.4766666666667,258.71988605903334L1120.7733333333333,258.75111574465484L1120.7733333333333,258.8119169329465L1120.7733333333333,258.84954823823466L1120.7733333333333,258.9250992190507L1120.7733333333333,258.97625431326895L1123.07,259.02073127146855L1123.07,258.9493465057161L1125.3666666666666,258.98148411823047L1125.3666666666666,259.01330812424123L1125.3666666666666,259.06146399379554L1125.3666666666666,259.1280248842231L1127.6633333333334,259.1393429566775L1127.6633333333334,259.2089099422983L1129.96,259.25774623530384L1129.96,259.30375224072077L1129.96,259.335588885574L1132.2566666666667,259.37597155461737L1132.2566666666667,259.44101373524285L1134.5533333333333,259.50230694115805L1134.5533333333333,259.56944157917644L1136.85,259.6067268368772L1136.85,259.6713130448025L1136.85,259.7091785659258L1136.85,259.74904303298945L1139.1466666666668,259.7715789597612L1141.4433333333334,259.80759368187995L1141.4433333333334,259.84651042012246L1143.74,259.8365808526934L1143.74,259.8473759355348L1146.0366666666666,259.81800743128736L1146.0366666666666,259.8617552408032L1150.6299999999999,259.90574844260016L1150.6299999999999,259.96055696861856L1152.9266666666667,259.93750003340926L1152.9266666666667,259.97970604532L1152.9266666666667,260.00581712025905L1155.2233333333334,259.9942465996244L1157.52,260.0585914208096L1159.8166666666666,260.0492383914382L1162.1133333333335,260.0958369356081L1162.1133333333335,260.1459260833268L1164.4099999999999,260.15648365886705L1164.4099999999999,260.2101806977263L1166.7066666666667,260.2457062494582L1166.7066666666667,260.2856101494112L1169.0033333333333,260.310077230956L1169.0033333333333,260.34771890672073L1169.0033333333333,260.3892431048471L1169.0033333333333,260.4488330140673L1171.3,260.461187151546L1173.5966666666666,260.5211915733419L1173.5966666666666,260.5562076300775L1175.8933333333334,260.607026905104L1175.8933333333334,260.63899303459874L1175.8933333333334,260.70711863546586L1178.19,260.76166934586405L1180.4866666666667,260.7684487079604L1182.7833333333333,260.79234164517294L1185.08,260.7896481328632L1187.3766666666668,260.83779194131773L1187.3766666666668,260.87955481938843L1187.3766666666668,260.8765054172753L1189.6733333333332,260.92257867409984L1191.97,260.95171815326273L1191.97,261.00390945307714L1194.2666666666667,261.0193830921379L1194.2666666666667,260.9778103393529L1194.2666666666667,260.9783118815303L1196.5633333333333,260.92885090101413L1196.5633333333333,260.966654737178L1196.5633333333333,260.993535092714L1198.86,260.97445015734365L1203.4533333333334,261.01715836571293L1203.4533333333334,261.0489786620813L1203.4533333333334,261.04570379344636L1203.4533333333334,261.08465433845413L1205.75,261.1413989816585L1205.75,261.21011410857574L1208.0466666666666,261.2715439625903L1208.0466666666666,261.31234133529654L1208.0466666666666,261.34747454225896L1210.3433333333332,261.35636209177585L1210.3433333333332,261.41295718182914L1217.2333333333333,261.45840400544694L1217.2333333333333,261.5023502291132L1219.53,261.5354692402821L1219.53,261.5779054764735L1221.8266666666668,261.6224397507501L1221.8266666666668,261.6512331776636L1224.1233333333332,261.69914335242413L1228.7166666666667,261.73382216576783L1228.7166666666667,261.77217703977175L1233.31,261.83268334979994L1233.31,261.8772134377236L1235.6066666666666,261.925504259486L1235.6066666666666,261.96541947321276L1235.6066666666666,262.02301828863654L1240.2,262.0665344213541L1240.2,262.03231895899853L1240.2,262.0895073765355L1242.4966666666667,262.1372991879382L1242.4966666666667,262.1593716440439L1242.4966666666667,262.05995652230513L1244.7933333333333,262.12367265952633L1247.0900000000001,262.1654161201522L1249.3866666666665,262.20024369935805L1249.3866666666665,262.23595427417825L1249.3866666666665,262.28206187484017L1249.3866666666665,262.3326325303109L1249.3866666666665,262.383147533985L1251.6833333333334,262.42571336429677L1251.6833333333334,262.48054897517534L1251.6833333333334,262.52287251194014L1253.98,262.5671597760397L1253.98,262.61799989970626L1256.2766666666666,262.65398551711326L1260.8700000000001,262.7141529558115L1260.8700000000001,262.766051782414L1263.1666666666665,262.8115709699372L1263.1666666666665,262.8339253901413" style="fill: none;" fill="none"></path></g></g></g></g><g opacity="0.2"><g><g><g><path stroke="rgb(255, 112, 67)" stroke-width="2px" d="M124.02,-40.143310725688934L124.02,73.05079010399908L124.02,-84.83318006450486L126.31666666666666,121.50909971107137L128.61333333333334,108.12062420628291L128.61333333333334,111.80974667722529L133.20666666666668,172.13461835275996L133.20666666666668,131.21874511241913L135.50333333333333,113.51100845770401L135.50333333333333,206.55764628540385L135.50333333333333,213.43557207421824L137.8,135.33302941105583L137.8,176.32147408344528L137.8,167.23771727897903L140.09666666666666,137.62657597661018L140.09666666666666,167.7345672385259L142.39333333333335,208.7063060159033L142.39333333333335,105.54840282960373L142.39333333333335,227.50887406143275L142.39333333333335,213.6814751679247L144.69,172.2700833190571L144.69,69.13490271026438L144.69,-127.62267383662135L146.98666666666668,199.5512707260522L146.98666666666668,95.65538942813873L146.98666666666668,64.34408727017319L146.98666666666668,202.66340614719823L149.28333333333333,148.7001776966182L149.28333333333333,206.92026021805677L151.58,31.616304435513257L151.58,179.84137415885925L156.17333333333332,218.649270683527L156.17333333333332,178.1174026023258L156.17333333333332,211.7138791761615L156.17333333333332,211.97523362257263L158.47,144.04000107537618L158.47,220.46337726441297L158.47,117.90290504693985L160.76666666666668,164.89670292897657L165.35999999999999,187.77023515918037L165.35999999999999,161.8210772492669L169.95333333333335,193.60206468538806L172.25,234.83508110046387L172.25,201.97488004511052L172.25,234.01149967854673L174.54666666666668,238.19458538158372L176.84333333333333,240.16714833676815L179.14000000000001,221.3002721965313L181.43666666666664,228.42829995534638L181.43666666666664,158.5970059308139L181.43666666666664,209.0428305891427L190.62333333333333,158.89641909436747L190.62333333333333,191.16791977123782L190.62333333333333,188.17926715720785L190.62333333333333,228.78768792206589L192.92000000000002,211.42626895145938L192.92000000000002,239.32631695812398L192.92000000000002,200.4780574549328L192.92000000000002,77.65537001869899L195.21666666666667,175.09720721028066L195.21666666666667,191.71911189501935L195.21666666666667,173.83786435831678L195.21666666666667,211.10166253014043L195.21666666666667,232.4610902098092L197.51333333333335,234.17229871858248L199.80999999999997,224.74830491976306L199.80999999999997,204.67343895272776L204.40333333333334,215.815067589283L204.40333333333334,236.29540034993127L204.40333333333334,235.8492121371356L204.40333333333334,238.35165279832754L204.40333333333334,233.69193702936172L206.7,245.69426489824596L206.7,212.77741101655093L206.7,215.42905260216105L206.7,223.27921027486974L208.99666666666667,236.6317265006629L208.99666666666667,184.68582768331873L211.29333333333332,247.78232255442575L213.59,182.67022624611855L213.59,206.65962265296415L215.88666666666668,262.62330842289055L215.88666666666668,241.223805797371L220.48000000000002,211.24740706248716L222.77666666666664,240.05984016440132L225.07333333333332,250.9731421010061L225.07333333333332,140.69088517264888L225.07333333333332,175.85095671090212L225.07333333333332,227.4726971577514L227.37,224.74216022274712L229.66666666666666,241.50366474281657L229.66666666666666,231.54069140553474L229.66666666666666,238.23128074407578L229.66666666666666,173.9753519540483L231.96333333333334,187.3700233616612L231.96333333333334,219.60899554870346L231.96333333333334,251.04720490222627L234.26000000000002,241.95682334628972L234.26000000000002,226.52579934759572L236.55666666666667,186.01633380759847L238.85333333333335,244.24834088168362L238.85333333333335,243.91881230202588L238.85333333333335,234.1365186599168L238.85333333333335,203.45307652245867L241.14999999999998,232.4260014295578L241.14999999999998,215.3312879123471L241.14999999999998,261.13587569784033L241.14999999999998,265.1853206415068L243.44666666666666,270.23384851488197L243.44666666666666,201.0215431045402L243.44666666666666,241.39417392286387L243.44666666666666,261.207787855105L243.44666666666666,227.91771403767845L243.44666666666666,252.9782463474707L243.44666666666666,232.11539979685435L245.74333333333334,254.12198568609625L245.74333333333334,278.6113492060791L245.74333333333334,-141.69684632257986L250.33666666666667,243.8227246024392L250.33666666666667,241.28718578679994L252.63333333333333,226.2147368626161L254.93,251.90093374387783L254.93,189.9816220050508L254.93,201.67631177739665L254.93,226.29521959207275L257.2266666666667,270.37771123376757L257.2266666666667,248.9502502368255L259.5233333333333,255.44443969699466L261.82,252.37567559561944L261.82,233.39546819979492L261.82,235.0749931145798L264.1166666666667,223.60243413936007L266.41333333333336,212.80362839048558L266.41333333333336,261.09198591925883L268.71000000000004,192.21893179145727L268.71000000000004,197.01593033292076L268.71000000000004,238.03599459203807L268.71000000000004,247.50153550370172L271.00666666666666,250.31878947534346L271.00666666666666,244.81683416800067L275.6,209.28329306569967L275.6,239.61176373741844L280.1933333333333,220.4058987444097L280.1933333333333,260.372800339352L280.1933333333333,207.0265250720761L282.49,269.6994070911949L282.49,218.8797864317894L282.49,189.46161421862516L282.49,252.80442823063242L282.49,228.51331439885226L284.7866666666667,256.4792194759304L284.7866666666667,182.1939226172187L287.08333333333337,259.4473705643957L287.08333333333337,201.1602724411271L287.08333333333337,248.60793940722942L289.38,245.6525897708806L291.6766666666667,249.56584646620533L293.97333333333336,203.10665642673317L296.27,278.99801066653293L296.27,276.50810902768916L296.27,265.9285729513927L300.86333333333334,260.141337283633L300.86333333333334,231.25172422690824L305.4566666666667,248.0617590519515L307.75333333333333,257.85922241481865L307.75333333333333,145.58651890267026L307.75333333333333,236.86850855973634L307.75333333333333,273.0421414700421L310.05,202.29568443515083L312.34666666666664,257.29014666243035L314.6433333333333,256.26439830796284L314.6433333333333,237.51767659729177L314.6433333333333,198.45978051424026L316.94,200.97416493025693L316.94,229.97893985022196L316.94,222.801050435413L319.2366666666667,255.4648772152987L319.2366666666667,243.90019899064842L321.53333333333336,255.2968005497347L323.83,238.7716300379146L326.12666666666667,242.42725110866806L326.12666666666667,231.08883855017748L328.42333333333335,227.5041887299581L328.42333333333335,253.54771254414862L328.42333333333335,288.5497885603796L330.71999999999997,273.8399983739311L330.71999999999997,256.39152952893215L330.71999999999997,251.25782079317355L333.01666666666665,262.9835732890801L337.61,208.4647426144643L337.61,256.54460929334164L337.61,286.81775208901274L339.9066666666667,277.9700028557669L339.9066666666667,231.06597515669736L339.9066666666667,210.682965435765L339.9066666666667,217.29839744892988L342.2033333333333,232.73938097737053L342.2033333333333,255.2297017384659L342.2033333333333,260.8937362310561L344.5,233.60610329292038L346.7966666666666,256.2479612434452L346.7966666666666,278.8863756033507L349.09333333333336,295.1812287894162L351.39,266.7608849636533L355.98333333333335,216.4185024391521L355.98333333333335,254.55007904632527L355.98333333333335,265.32743596217847L358.28000000000003,223.60900128429586L360.57666666666665,255.78641128810966L362.8733333333333,237.304148375988L362.8733333333333,226.35794670744374L362.8733333333333,258.21628691797906L367.46666666666664,241.09600890089163L367.46666666666664,269.3243629485369L367.46666666666664,264.84199209646744L369.7633333333333,248.55029446834865L372.06,273.8673230734738L374.3566666666667,241.33053150366652L374.3566666666667,262.45236423205245L376.6533333333333,244.89598554643717L376.6533333333333,258.80564017052L376.6533333333333,254.34202984652734L378.95000000000005,244.66208381408993L378.95000000000005,244.522355964238L381.24666666666667,270.80622064119035L381.24666666666667,282.6268831030889L381.24666666666667,257.51924785023385L383.5433333333333,246.6931238025427L385.84000000000003,221.80521267381582L385.84000000000003,250.6215310164473L385.84000000000003,247.27752929384056L385.84000000000003,232.95613516460764L388.13666666666666,271.2426413460211L388.13666666666666,274.77278258312833L388.13666666666666,208.9230474016883L388.13666666666666,265.1646142927083L388.13666666666666,263.69231928478587L390.43333333333334,236.87241300263187L390.43333333333334,270.04419500177556L390.43333333333334,245.36453789608046L395.0266666666667,272.81176013702697L395.0266666666667,271.68097586794335L399.61999999999995,263.6910903453827L401.9166666666667,275.9793194451115L404.2133333333333,243.51000432941046L404.2133333333333,240.52834770896217L404.2133333333333,291.17213082245803L404.2133333333333,237.61793757026845L406.51,268.77971236678684L406.51,260.03214089707893L406.51,276.4586058123545L408.8066666666667,268.0620693618601L411.10333333333335,245.90127077969638L413.4,265.5714828453281L413.4,263.6110300638459L413.4,268.95335766402155L413.4,245.51376442340288L413.4,268.3576612919569L413.4,242.11063279346988L415.6966666666667,260.5795245888558L417.99333333333334,261.7932686683806L417.99333333333334,281.8289045854048L417.99333333333334,199.3408276547085L417.99333333333334,244.55647183412853L417.99333333333334,271.2649926814166L420.28999999999996,203.05020202289927L420.28999999999996,267.91208114813674L420.28999999999996,243.351432742043L420.28999999999996,259.9063346264037L420.28999999999996,261.31487200205976L422.58666666666664,295.39797017520124L427.18,265.12897505001587L427.18,233.3708894117312L427.18,248.04141754453832L429.47666666666663,261.43287578766996L434.07,274.1230000758713L434.07,275.8843198689547L436.3666666666667,259.2542030526833L438.66333333333336,210.2451557733796L438.66333333333336,235.971632423726L438.66333333333336,215.90430651198733L440.96000000000004,230.12092075564644L443.25666666666666,255.01093132252043L443.25666666666666,246.78142181851646L443.25666666666666,286.3506783070889L445.5533333333333,263.5698605938391L445.5533333333333,247.76644875380126L447.85,268.32219486886805L450.14666666666665,269.68281000852585L450.14666666666665,246.13138328221712L452.4433333333333,262.9662401229143L452.4433333333333,207.71469273350456L454.74,230.3860004246235L454.74,263.382216908715L454.74,264.2204303904013L459.3333333333333,277.60664643889123L461.63000000000005,251.3136927309361L461.63000000000005,274.55594518645245L463.9266666666667,231.16672258485445L466.2233333333333,225.8526093851436L466.2233333333333,253.4062757004391L466.2233333333333,269.5712709562345L466.2233333333333,282.2259608249773L468.52000000000004,245.03283947028896L468.52000000000004,270.36006443202496L470.81666666666666,253.02334586327726L473.11333333333334,235.12982173399493L473.11333333333334,218.5082754899155L475.40999999999997,274.9174069884148L475.40999999999997,222.81662980263883L475.40999999999997,281.5262462537397L477.7066666666667,253.95821670916945L480.00333333333333,276.3131493126804L480.00333333333333,286.13676604222167L482.29999999999995,246.7319058017297L484.5966666666667,286.58210935917765L484.5966666666667,285.03116222945124L486.8933333333333,264.42730825733054L486.8933333333333,288.5392081602053L489.19,277.76516682045025L491.4866666666667,244.77275236763737L491.4866666666667,278.9084133031693L491.4866666666667,245.629342333837L493.78333333333336,274.4443421269005L496.08,280.66893940622157L496.08,279.88620741800827L496.08,256.9376330754974L496.08,263.7862691418691L496.08,268.8959431512789L498.3766666666667,272.6462949676947L498.3766666666667,282.57250893522394L500.67333333333335,276.9624325633049L500.67333333333335,292.24394200200385L502.96999999999997,274.45760443129325L502.96999999999997,281.1918659237298L502.96999999999997,280.39843832227314L502.96999999999997,270.7114770940759L502.96999999999997,270.28667370704085L502.96999999999997,266.824124137109L505.26666666666665,260.6757403029637L505.26666666666665,290.868934829804L507.56333333333333,269.1775110905821L507.56333333333333,259.9354003234343L509.86,277.91816977614707L509.86,257.35079994255847L512.1566666666666,270.8553846180439L512.1566666666666,272.520770328966L512.1566666666666,304.01898968964815L514.4533333333334,274.00209036063063L514.4533333333334,297.12786880406463L514.4533333333334,244.96621431274846L516.75,268.3142387663776L516.75,284.9716802821918L516.75,282.82403186640954L516.75,276.4783776551485L516.75,221.07227833433583L521.3433333333334,278.5770797187632L525.9366666666666,284.6468114311045L528.2333333333333,253.229622061957L528.2333333333333,281.1020701378584L528.2333333333333,283.00174162469125L530.53,267.7539640123194L530.53,270.2995967729525L532.8266666666667,263.4979676387527L532.8266666666667,302.5882193920287L532.8266666666667,276.4584585956552L535.1233333333333,286.0952125286514L535.1233333333333,289.9672485481609L537.4200000000001,265.26594418693674L537.4200000000001,296.88748633658344L539.7166666666667,294.8116924715313L539.7166666666667,251.92574935880572L542.0133333333333,286.95456760850817L542.0133333333333,263.5135918110609L544.3100000000001,286.19519827040756L544.3100000000001,254.8539919202978L544.3100000000001,264.25123708491975L546.6066666666667,255.31961913813245L546.6066666666667,251.2565982544964L548.9033333333333,273.8299044289372L551.2,304.2456746033647L551.2,258.6915728314356L551.2,280.1766531643542L553.4966666666667,261.80516761812294L555.7933333333333,285.774177712473L555.7933333333333,286.9695261053064L555.7933333333333,249.30768598209727L555.7933333333333,275.5307693644003L558.09,236.18836100805888L558.09,275.9485383534973L560.3866666666667,269.4909866492857L560.3866666666667,287.0745428177443L560.3866666666667,296.1529742181301L562.6833333333333,285.1078877327117L564.98,272.639516598799L564.98,254.603224274787L567.2766666666666,267.8744512796402L571.87,276.1012596772476L571.87,290.0593837994066L571.87,272.2542953017083L571.87,183.51339388977397L574.1666666666667,258.30760607665235L574.1666666666667,214.23630290410736L576.4633333333334,275.12058523568237L578.76,263.52613083340907L578.76,270.15267450701106L578.76,284.3019595132633L581.0566666666667,293.4004123847593L581.0566666666667,270.4067705300721L583.3533333333334,266.0955934971571L585.65,276.61600606685334L585.65,269.2964557829228L585.65,252.2278828309341L587.9466666666667,280.49026313830507L594.8366666666666,234.41731851209292L597.1333333333333,258.74217697165227L597.1333333333333,266.6067170758139L597.1333333333333,258.8403257050297L599.43,261.65458413687617L599.43,285.7897570796988L599.43,262.1974745189602L601.7266666666667,275.7136445086111L601.7266666666667,292.44370866228235L604.0233333333333,233.90319939364085L604.0233333333333,287.7991626140746L604.0233333333333,285.06987382065165L604.0233333333333,275.5900336869738L606.32,286.56887265768916L608.6166666666667,287.62243216687983L610.9133333333334,290.4670268398794L610.9133333333334,283.35871011696076L613.21,271.86469590799373L615.5066666666667,278.2642634348436L615.5066666666667,285.54403960704803L617.8033333333333,279.0677593783899L620.1,274.91148631681097L620.1,263.17610072818667L622.3966666666666,288.65765359591353L622.3966666666666,281.3736081394282L622.3966666666666,293.60869841142136L624.6933333333333,267.38569183783096L624.6933333333333,273.5428894717585L626.99,269.8187422278252L626.99,263.12320512804115L629.2866666666666,230.21988878195936L629.2866666666666,276.4652753689072L631.5833333333333,267.3051899061962L631.5833333333333,243.24496946551582L631.5833333333333,264.9399104037068L631.5833333333333,263.69400907646525L633.88,283.6908629943024L633.88,288.12609889967877L636.1766666666666,274.3423017520796L638.4733333333334,282.73988152092153L640.77,259.08878908915955L640.77,251.4357609775933L640.77,285.54939061403275L643.0666666666667,276.001888405193L643.0666666666667,284.37245711006904L643.0666666666667,255.0487724149769L643.0666666666667,273.61993501132184L643.0666666666667,250.83516164936805L643.0666666666667,245.30284769833088L645.3633333333333,261.75650289790195L647.66,286.40043115073985L647.66,252.35016870227724L649.9566666666667,279.02860613709146L649.9566666666667,270.72551388632166L652.2533333333333,284.8733395270326L652.2533333333333,294.19505932453L654.55,260.2370857447386L654.55,288.5980948399414L654.55,287.9726414924318L654.55,286.4648800614205L656.8466666666667,292.4570413746617L656.8466666666667,282.11929272521627L659.1433333333333,278.49198206581855L659.1433333333333,277.4928479303013L659.1433333333333,251.61276025528258L663.7366666666667,264.58774885670704L666.0333333333333,255.17937282946974L666.0333333333333,288.60003425993705L668.3299999999999,258.3194474198601L670.6266666666667,246.00069965828547L672.9233333333333,268.6068095537749L675.22,276.78561250594527L675.22,274.1874873909083L675.22,253.65325411612338L675.22,253.57300181280482L675.22,274.92581754245543L675.22,277.5456859239123L677.5166666666667,268.5727768933231L679.8133333333334,294.35450141064143L679.8133333333334,241.50009313767606L679.8133333333334,213.80945128473368L684.4066666666666,257.2103680128401L684.4066666666666,278.3328280123797L684.4066666666666,235.68843870000407L684.4066666666666,266.9606068188494L684.4066666666666,266.4795282483101L684.4066666666666,251.70936641367996L684.4066666666666,287.1277968585491L684.4066666666666,225.1380451294509L686.7033333333334,285.2593481134285L686.7033333333334,255.71074190464884L691.2966666666667,267.854877859354L691.2966666666667,280.85988586599177L693.5933333333332,261.9787489080971L693.5933333333332,194.58561305295336L693.5933333333332,258.2904777337204L698.1866666666667,276.59988903863865L700.4833333333333,242.3675835403529L702.78,288.28728198327804L702.78,251.3359544561668L702.78,285.5459726263176L705.0766666666667,294.9740500883623L705.0766666666667,247.8659160367467L707.3733333333333,279.01680959896606L707.3733333333333,296.58124039796263L707.3733333333333,250.82305787639183L707.3733333333333,292.04463619400155L707.3733333333333,287.7533846213059L709.6700000000001,284.1853830895641L709.6700000000001,252.0303884284063L709.6700000000001,238.87459851801395L709.6700000000001,268.20310295982796L714.2633333333333,266.99125989594245L716.5600000000001,247.9440625011921L716.5600000000001,278.88330325484276L716.5600000000001,259.19758863069796L718.8566666666666,274.3716362796047L718.8566666666666,282.6901350779967L718.8566666666666,262.14306194673884L721.1533333333333,275.1345260170373L721.1533333333333,239.16803980415517L723.45,267.18888871371746L723.45,271.1582541736689L723.45,260.1616403866898L725.7466666666666,257.5166043503718L725.7466666666666,225.96553099426356L725.7466666666666,273.9179912209511L725.7466666666666,282.2595134309747L725.7466666666666,269.5094015381553L728.0433333333333,260.64702024514025L728.0433333333333,281.94569223306394L730.34,259.3121360242367L732.6366666666667,254.0234465084293L734.9333333333333,283.5040514035658L737.23,289.27587412297726L739.5266666666666,253.61709641462022L739.5266666666666,278.5069981691512L739.5266666666666,295.13799188489264L741.8233333333334,281.6807405786081L741.8233333333334,279.2649081417105L741.8233333333334,279.71639615568245L741.8233333333334,288.4056954153559L744.12,261.4822573892095L744.12,284.7078231518919L746.4166666666666,271.5219178253954L746.4166666666666,253.59846390106463L746.4166666666666,275.28482786633754L746.4166666666666,279.76467683234L748.7133333333334,291.65555205873466L748.7133333333334,275.66663757643914L751.0100000000001,275.093298940496L751.0100000000001,288.3708050576123L751.0100000000001,292.2696121138605L753.3066666666666,290.14599522406405L753.3066666666666,269.27065445618194L755.6033333333334,305.7248663936149L755.6033333333334,286.03126287460327L755.6033333333334,294.98875895684415L757.9000000000001,277.2240558402105L760.1966666666666,276.0777626118877L762.4933333333333,296.20863173156977L762.4933333333333,279.63439645415L762.4933333333333,265.7871105047789L764.7900000000001,284.1241089390083L764.7900000000001,283.1236114488407L767.0866666666666,284.1887498714707L767.0866666666666,294.40272448076445L767.0866666666666,265.276518186385L769.3833333333333,285.2505535158244L769.3833333333333,285.67917173559016L769.3833333333333,288.1012896854769L771.6800000000001,242.944980236617L773.9766666666667,282.91563905775547L776.2733333333333,223.4258381074125L776.2733333333333,296.97324966503817L778.5699999999999,284.2187628759579L778.5699999999999,284.1300552135164L780.8666666666667,299.4211401383985L783.1633333333334,278.8869452679699L785.4599999999999,284.37105535106224L785.4599999999999,281.37474106794053L787.7566666666667,286.279393420978L787.7566666666667,301.701517210088L787.7566666666667,294.5030942660841L790.0533333333334,289.7749195315621L794.6466666666666,290.62264769253403L794.6466666666666,224.72856508059934L796.9433333333334,285.98780194466764L796.9433333333334,247.3573079434308L796.9433333333334,270.052266317335L796.9433333333334,293.3827911859209L799.2399999999999,277.07838811657643L799.2399999999999,276.6687224466692L801.5366666666666,296.7648548260331L803.8333333333334,281.29493041472L803.8333333333334,255.16723065213722L803.8333333333334,250.72302732955325L803.8333333333334,276.797447448427L803.8333333333334,269.03270106423986L806.13,267.53156438469887L806.13,260.98673878068274L806.13,292.52065499059177L806.13,300.52854895591736L806.13,281.14745768633753L808.4266666666666,254.70242912796408L810.7233333333334,289.85202267766L813.02,287.8285995532166L815.3166666666667,259.5531041581522L815.3166666666667,298.0035649375482L817.6133333333333,305.53448639810085L817.6133333333333,217.18577027320862L817.6133333333333,289.44703593850136L819.91,277.8941798548807L819.91,271.7313367805698L819.91,265.0003844635053L819.91,262.59490840137005L819.91,275.5085844478824L819.91,280.6413906812668L822.2066666666667,303.91077261418104L822.2066666666667,301.7581572349776L824.5033333333334,269.2343431372534L824.5033333333334,289.76683541455054L829.0966666666667,281.17732347412544L829.0966666666667,297.40550989793104L829.0966666666667,258.91038165173745L829.0966666666667,272.0993465252898L831.3933333333334,291.87358319082045L831.3933333333334,259.16387600654906L833.6899999999999,292.9056138579141L833.6899999999999,286.2901210378517L840.5799999999999,276.2557155977596L842.8766666666667,291.11735980957747L845.1733333333333,292.98732872713697L849.7666666666667,294.8905974220146L852.0633333333333,230.83632990717888L852.0633333333333,280.4584067247131L852.0633333333333,275.4676326025616L856.6566666666668,285.44822713868183L856.6566666666668,302.16275993057275L856.6566666666668,291.5428352728486L856.6566666666668,256.94353454492307L858.9533333333333,298.63436609167945L861.25,299.2448609423908L863.5466666666667,248.31665516576984L863.5466666666667,260.46251931651074L863.5466666666667,286.5865706652403L865.8433333333332,307.2782425988804L865.8433333333332,298.24605964462864L868.14,280.10312802412295L868.14,275.07258619097144L870.4366666666667,234.67982508919457L870.4366666666667,279.876734343442L875.03,250.04321261563086L875.03,278.8403479822657L877.3266666666667,262.55379013717175L877.3266666666667,254.38463307917118L877.3266666666667,283.67970652878284L879.6233333333333,293.6918630450964L879.6233333333333,291.72022819519043L881.9200000000001,294.10439303991467L884.2166666666667,272.32261665165424L886.5133333333333,277.53370376473123L886.5133333333333,289.7141830419952L888.8100000000001,288.7251876565543L891.1066666666666,246.82358980178833L895.7,297.7410167557272L897.9966666666666,275.6907491115006L897.9966666666666,276.87967757609755L900.2933333333333,282.0917696031657L900.2933333333333,265.42860583825546L900.2933333333333,258.93885848197067L902.59,291.38194342228496L902.59,250.54140672764993L902.59,259.31205921552396L904.8866666666667,249.71679478883743L907.1833333333333,283.6220295862718L907.1833333333333,293.894167593257L907.1833333333333,263.9076845144684L907.1833333333333,294.2647760327567L909.48,287.74588937109166L911.7766666666666,296.54216716573995L914.0733333333334,284.5622962442311L918.6666666666666,274.65643018484116L918.6666666666666,262.53364065154034L920.9633333333334,273.79716471514917L920.9633333333334,293.4681128642776L923.2600000000001,238.01403370093215L923.2600000000001,261.96674754673785L923.2600000000001,282.54100456156516L925.5566666666666,279.45070201700383L927.8533333333334,279.46818880059504L930.1500000000001,290.05720435218376L930.1500000000001,253.19501973688602L930.1500000000001,295.0898168202151L934.7433333333333,260.565923045982L934.7433333333333,260.4065385664051L934.7433333333333,284.61396290497345L937.0400000000001,281.3759252022613L937.0400000000001,248.80790449001572L937.0400000000001,290.3170514276082L939.3366666666666,280.15987686135554L941.6333333333333,283.4977594898506L941.6333333333333,282.8514717790213L943.9300000000001,284.4367972084067L943.9300000000001,288.8429354131222L946.2266666666667,265.89574362743986L946.2266666666667,294.0037832273678L948.5233333333333,258.442136536945L948.5233333333333,288.1287936053493L950.8199999999999,285.6153500960632L953.1166666666667,288.3481528880921L957.7099999999999,288.44662805849856L962.3033333333334,289.2817563902248L964.5999999999999,243.3030432530425L966.8966666666666,266.04856096208096L969.1933333333334,246.7393946512179L969.1933333333334,269.1757252880118L969.1933333333334,294.45354624566704L971.4899999999999,269.0831195834008L971.4899999999999,281.94555781781673L973.7866666666666,227.2629837691784L973.7866666666666,268.7061744251034L973.7866666666666,286.7018157379194L976.0833333333334,271.22245345603335L976.0833333333334,276.6083187948574L976.0833333333334,286.10802678222007L978.38,262.4067462574352L978.38,274.9756023897366L978.38,279.76893331516874L980.6766666666666,289.5321143892678L980.6766666666666,275.9467717531052L980.6766666666666,284.50883097946644L980.6766666666666,257.8784629973498L982.9733333333334,271.0700713707642L982.9733333333334,265.95202521167016L985.27,193.65058218890968L989.8633333333333,291.50505498728967L989.8633333333333,266.04212183166635L989.8633333333333,278.13132675533944L992.16,288.41659585183316L994.4566666666667,241.04046340015802L994.4566666666667,254.01699457656252L994.4566666666667,276.9641927629709L996.7533333333334,278.1923128732226L996.7533333333334,283.39222431860185L996.7533333333334,267.792259556326L996.7533333333334,277.93413958766246L996.7533333333334,296.38543898747724L996.7533333333334,276.42470116642386L999.05,284.1822659359737L999.05,280.19673224199903L1001.3466666666667,274.98901191082865L1001.3466666666667,282.7432931079106L1001.3466666666667,296.9187250801108L1001.3466666666667,248.09722547504035L1005.9399999999999,262.1946774016727L1005.9399999999999,296.02951381355524L1008.2366666666667,221.5425524792888L1008.2366666666667,281.39343118803066L1010.5333333333333,284.0282004597512L1010.5333333333333,265.57832522148436L1012.8299999999999,286.81045526130634L1012.8299999999999,281.1298428882252L1015.1266666666667,289.53289527784693L1015.1266666666667,285.2737689492377L1017.4233333333333,279.8489871959795L1017.4233333333333,273.3714844286442L1019.72,269.95479606091976L1022.0166666666667,279.7858376326886L1024.3133333333333,268.50077512589365L1024.3133333333333,302.33594757589424L1026.61,270.72360006923026L1026.61,277.10314612496984L1028.9066666666668,268.2270160723816L1028.9066666666668,271.687530211427L1033.5,277.06301997331053L1033.5,309.1818473318761L1038.0933333333332,290.535857047547L1038.0933333333332,291.95337144149977L1040.39,287.0975278250196L1042.6866666666667,292.0846183293245L1042.6866666666667,289.7576951777393L1044.9833333333333,270.8358368006619L1044.9833333333333,285.3032122891058L1047.28,268.6053245853294L1047.28,300.4129998487505L1049.5766666666668,274.77890167724L1049.5766666666668,278.005168444731L1051.8733333333332,283.9416050369089L1051.8733333333332,303.0910988355225L1051.8733333333332,286.56229271130127L1054.17,280.54060484875333L1054.17,273.83206147361886L1056.4666666666667,290.2526441216469L1056.4666666666667,284.87178415060043L1056.4666666666667,282.51802595501596L1058.7633333333333,283.1693894416094L1061.06,253.06136617606336L1061.06,289.7117507660931L1061.06,242.41034039042214L1061.06,295.3705270622264L1063.3566666666666,270.31362076374614L1063.3566666666666,247.5898015160452L1063.3566666666666,293.0557140843435L1065.6533333333334,240.7058398425579L1065.6533333333334,268.4338555349545L1067.95,288.86120308529246L1067.95,285.4581226611679L1067.95,252.53226935863495L1070.2466666666667,241.76437911662188L1070.2466666666667,285.2501694722609L1072.5433333333333,271.6470712220127L1074.8400000000001,292.6974974504926L1074.8400000000001,286.5132567489689L1074.8400000000001,276.0255774923346L1077.1366666666665,280.73776001280004L1077.1366666666665,279.0396281873638L1077.1366666666665,278.400746116584L1079.4333333333334,300.5170084468343L1081.73,263.93334502523595L1081.73,279.3766328150576L1084.0266666666666,289.78960279713976L1088.6200000000001,296.312243484638L1088.6200000000001,262.99874300983817L1088.6200000000001,298.4092621572993L1088.6200000000001,264.8553696139292L1088.6200000000001,293.8984752818942L1090.9166666666665,250.64941257915712L1090.9166666666665,275.13559493828905L1090.9166666666665,300.9298456765034L1093.2133333333334,289.2113548043099L1095.51,292.3270618305965L1095.51,303.00749895247543L1095.51,271.72007790343326L1095.51,296.0693967376243L1097.8066666666666,303.23734582486475L1097.8066666666666,299.60632274435324L1104.6966666666667,271.39577871696514L1104.6966666666667,297.0277070423419L1104.6966666666667,287.23169984465295L1104.6966666666667,293.33468332886696L1104.6966666666667,278.10393164781004L1104.6966666666667,266.2517456100746L1106.9933333333333,294.39685181460595L1109.29,252.49757102267307L1111.5866666666666,286.9296879863197L1113.8833333333334,284.29021418094635L1113.8833333333334,293.25854349204087L1113.8833333333334,300.57651919736105L1113.8833333333334,262.3911796916615L1116.18,286.74373409287494L1116.18,291.8891497565941L1118.4766666666667,256.5167277306318L1118.4766666666667,281.7907690595497L1118.4766666666667,286.3059820370241L1118.4766666666667,264.0359038588675L1120.7733333333333,277.01468169011855L1120.7733333333333,294.3945027481426L1120.7733333333333,280.88802985846996L1120.7733333333333,303.2021738351746L1120.7733333333333,288.97710743275553L1123.07,285.12341589412904L1123.07,217.0255600999702L1125.3666666666666,277.8689161891287L1125.3666666666666,277.72952117703176L1125.3666666666666,287.40249681879175L1125.3666666666666,298.3282321657647L1127.6633333333334,265.80962185832584L1127.6633333333334,300.2365446327762L1129.96,288.07929039001465L1129.96,286.4737642691894L1129.96,278.15052893351424L1132.2566666666667,283.2579498873516L1132.2566666666667,297.93293612585825L1134.5533333333333,295.80054704099894L1134.5533333333333,299.3543261594393L1136.85,281.7176215621558L1136.85,297.99843155524945L1136.85,282.1949109028686L1136.85,283.43796390701425L1139.1466666666668,273.17237064242363L1141.4433333333334,281.23799595643175L1141.4433333333334,283.0194652351466L1143.74,253.92001717605376L1143.74,266.2840116701343L1146.0366666666666,242.2950249097564L1146.0366666666666,285.9818812730637L1150.6299999999999,286.19007128883493L1150.6299999999999,292.72864658385515L1152.9266666666667,246.1433206363158L1152.9266666666667,285.2470395172184L1152.9266666666667,275.6481010737744L1155.2233333333334,253.05810180577362L1157.52,298.6568934470415L1159.8166666666666,254.4349363852631L1162.1133333333335,288.085921542211L1162.1133333333335,290.2526441216469L1164.4099999999999,266.5064497021111L1164.4099999999999,292.5281822444363L1166.7066666666667,281.64115848866373L1166.7066666666667,284.3337775224989L1169.0033333333333,275.0649117204276L1169.0033333333333,283.06237570264125L1169.0033333333333,285.46321123838425L1169.0033333333333,296.4551460946148L1171.3,267.93086727911776L1173.5966666666666,296.82531928474253L1173.5966666666666,281.7555650662292L1175.8933333333334,291.3939415832812L1175.8933333333334,280.0170190564611L1175.8933333333334,302.031954692846L1178.19,293.8734132390131L1180.4866666666667,264.8861123011871L1182.7833333333333,275.3138423575596L1185.08,259.1515482081608L1187.3766666666668,290.1359876888719L1187.3766666666668,286.31090419536287L1187.3766666666668,259.0183939039707L1189.6733333333332,289.0146412903612L1191.97,278.73015948317266L1191.97,292.86691506816584L1194.2666666666667,270.47211554240096L1194.2666666666667,235.56518631902608L1194.2666666666667,261.28508942371064L1196.5633333333333,230.65597024830905L1196.5633333333333,284.1193403980949L1196.5633333333333,277.4666049534624L1198.86,249.27127225155178L1203.4533333333334,287.2229692543095L1203.4533333333334,280.5862164226445L1203.4533333333334,259.0337172421542L1203.4533333333334,285.0297476689924L1205.75,296.04733023453844L1205.75,303.5059522938999L1208.0466666666666,299.1066756675189L1208.0466666666666,286.45539418540216L1208.0466666666666,283.01319892433554L1210.3433333333332,266.84047799218786L1210.3433333333332,296.3569141517986L1217.2333333333333,289.53633886846626L1217.2333333333333,288.66993658921933L1219.53,282.0222769203511L1219.53,287.8443197364157L1221.8266666666668,289.20438441363245L1221.8266666666668,279.49514225802636L1224.1233333333332,291.4082856103778L1228.7166666666667,283.25132513588125L1228.7166666666667,285.58511946689L1233.31,299.42140896889293L1233.31,289.5577492971312L1235.6066666666666,291.9619900191372L1235.6066666666666,286.80739571425045L1235.6066666666666,297.89240672845733L1240.2,289.1823723167181L1240.2,240.69906787438825L1240.2,297.7678101950071L1242.4966666666667,291.9712422686544L1242.4966666666667,275.9463301030072L1242.4966666666667,199.92579000917348L1244.7933333333333,301.96990605443716L1247.0900000000001,288.2861682569439L1249.3866666666665,284.00641878897494L1249.3866666666665,284.608304663138L1249.3866666666665,291.1852299083363L1249.3866666666665,294.0523455359719L1249.3866666666665,294.08673343671995L1251.6833333333334,289.1561485420574L1251.6833333333334,296.9364902952855L1251.6833333333334,289.1325426643545L1253.98,290.4278639974919L1253.98,294.61985311047596L1256.2766666666666,285.3188108585098L1260.8700000000001,300.6316294487227L1260.8700000000001,295.49179521812636L1263.1666666666665,291.5312883630395L1263.1666666666665,276.9463731416247" style="fill: none;" fill="none"></path></g></g></g></g></g></g><g transform="translate(70, 378)" clip-path="url(#clip_1)"><clipPath id="clip_1"><rect width="1378" height="22"></rect></clipPath><g><g><line x1="0" y1="0" x2="0" y2="5" style="visibility: inherit;" fill="rgb(0, 0, 0)" stroke="rgb(204, 204, 204)" stroke-width="1px"></line><line x1="114.83333333333333" y1="0" x2="114.83333333333333" y2="5" style="visibility: inherit;" fill="rgb(0, 0, 0)" stroke="rgb(204, 204, 204)" stroke-width="1px"></line><line x1="229.66666666666666" y1="0" x2="229.66666666666666" y2="5" style="visibility: inherit;" fill="rgb(0, 0, 0)" stroke="rgb(204, 204, 204)" stroke-width="1px"></line><line x1="344.5" y1="0" x2="344.5" y2="5" style="visibility: inherit;" fill="rgb(0, 0, 0)" stroke="rgb(204, 204, 204)" stroke-width="1px"></line><line x1="459.3333333333333" y1="0" x2="459.3333333333333" y2="5" style="visibility: inherit;" fill="rgb(0, 0, 0)" stroke="rgb(204, 204, 204)" stroke-width="1px"></line><line x1="574.1666666666667" y1="0" x2="574.1666666666667" y2="5" style="visibility: inherit;" fill="rgb(0, 0, 0)" stroke="rgb(204, 204, 204)" stroke-width="1px"></line><line x1="689" y1="0" x2="689" y2="5" style="visibility: inherit;" fill="rgb(0, 0, 0)" stroke="rgb(204, 204, 204)" stroke-width="1px"></line><line x1="803.8333333333334" y1="0" x2="803.8333333333334" y2="5" style="visibility: inherit;" fill="rgb(0, 0, 0)" stroke="rgb(204, 204, 204)" stroke-width="1px"></line><line x1="918.6666666666666" y1="0" x2="918.6666666666666" y2="5" style="visibility: inherit;" fill="rgb(0, 0, 0)" stroke="rgb(204, 204, 204)" stroke-width="1px"></line><line x1="1033.5" y1="0" x2="1033.5" y2="5" style="visibility: inherit;" fill="rgb(0, 0, 0)" stroke="rgb(204, 204, 204)" stroke-width="1px"></line><line x1="1148.3333333333335" y1="0" x2="1148.3333333333335" y2="5" style="visibility: inherit;" fill="rgb(0, 0, 0)" stroke="rgb(204, 204, 204)" stroke-width="1px"></line><line x1="1263.1666666666665" y1="0" x2="1263.1666666666665" y2="5" style="visibility: inherit;" fill="rgb(0, 0, 0)" stroke="rgb(204, 204, 204)" stroke-width="1px"></line><line x1="1378" y1="0" x2="1378" y2="5" style="visibility: inherit;" fill="rgb(0, 0, 0)" stroke="rgb(204, 204, 204)" stroke-width="1px"></line></g><g transform="translate(0, 8)"><text x="0" y="0" dx="0em" dy="0.95em" style="text-anchor: middle; visibility: hidden; font-family: &quot;Helvetica Neue&quot;, sans-serif; font-size: 12px; font-weight: 200;" fill="rgb(50, 49, 63)" stroke="none" stroke-width="1px">-50</text><text x="114.83333333333333" y="0" dx="0em" dy="0.95em" style="text-anchor: middle; visibility: inherit; font-family: &quot;Helvetica Neue&quot;, sans-serif; font-size: 12px; font-weight: 200;" fill="rgb(50, 49, 63)" stroke="none" stroke-width="1px">0</text><text x="229.66666666666666" y="0" dx="0em" dy="0.95em" style="text-anchor: middle; visibility: inherit; font-family: &quot;Helvetica Neue&quot;, sans-serif; font-size: 12px; font-weight: 200;" fill="rgb(50, 49, 63)" stroke="none" stroke-width="1px">50</text><text x="344.5" y="0" dx="0em" dy="0.95em" style="text-anchor: middle; visibility: inherit; font-family: &quot;Helvetica Neue&quot;, sans-serif; font-size: 12px; font-weight: 200;" fill="rgb(50, 49, 63)" stroke="none" stroke-width="1px">100</text><text x="459.3333333333333" y="0" dx="0em" dy="0.95em" style="text-anchor: middle; visibility: inherit; font-family: &quot;Helvetica Neue&quot;, sans-serif; font-size: 12px; font-weight: 200;" fill="rgb(50, 49, 63)" stroke="none" stroke-width="1px">150</text><text x="574.1666666666667" y="0" dx="0em" dy="0.95em" style="text-anchor: middle; visibility: inherit; font-family: &quot;Helvetica Neue&quot;, sans-serif; font-size: 12px; font-weight: 200;" fill="rgb(50, 49, 63)" stroke="none" stroke-width="1px">200</text><text x="689" y="0" dx="0em" dy="0.95em" style="text-anchor: middle; visibility: inherit; font-family: &quot;Helvetica Neue&quot;, sans-serif; font-size: 12px; font-weight: 200;" fill="rgb(50, 49, 63)" stroke="none" stroke-width="1px">250</text><text x="803.8333333333334" y="0" dx="0em" dy="0.95em" style="text-anchor: middle; visibility: inherit; font-family: &quot;Helvetica Neue&quot;, sans-serif; font-size: 12px; font-weight: 200;" fill="rgb(50, 49, 63)" stroke="none" stroke-width="1px">300</text><text x="918.6666666666666" y="0" dx="0em" dy="0.95em" style="text-anchor: middle; visibility: inherit; font-family: &quot;Helvetica Neue&quot;, sans-serif; font-size: 12px; font-weight: 200;" fill="rgb(50, 49, 63)" stroke="none" stroke-width="1px">350</text><text x="1033.5" y="0" dx="0em" dy="0.95em" style="text-anchor: middle; visibility: inherit; font-family: &quot;Helvetica Neue&quot;, sans-serif; font-size: 12px; font-weight: 200;" fill="rgb(50, 49, 63)" stroke="none" stroke-width="1px">400</text><text x="1148.3333333333335" y="0" dx="0em" dy="0.95em" style="text-anchor: middle; visibility: inherit; font-family: &quot;Helvetica Neue&quot;, sans-serif; font-size: 12px; font-weight: 200;" fill="rgb(50, 49, 63)" stroke="none" stroke-width="1px">450</text><text x="1263.1666666666665" y="0" dx="0em" dy="0.95em" style="text-anchor: middle; visibility: inherit; font-family: &quot;Helvetica Neue&quot;, sans-serif; font-size: 12px; font-weight: 200;" fill="rgb(50, 49, 63)" stroke="none" stroke-width="1px">500</text><text x="1378" y="0" dx="0em" dy="0.95em" style="text-anchor: middle; visibility: hidden; font-family: &quot;Helvetica Neue&quot;, sans-serif; font-size: 12px; font-weight: 200;" fill="rgb(50, 49, 63)" stroke="none" stroke-width="1px">550</text></g><line x1="0" y1="0" x2="1378" y2="0" fill="rgb(0, 0, 0)" stroke="rgb(204, 204, 204)" stroke-width="1px"></line></g></g></g></g></svg>