<svg viewBox="0 0 1448 400" xmlns="http://www.w3.org/2000/svg"><g><g><g><g><g><line x1="58" y1="357.4171745314173" x2="53" y2="357.4171745314173" style="visibility: inherit;" fill="rgb(0, 0, 0)" stroke="rgb(204, 204, 204)" stroke-width="1px"></line><line x1="58" y1="325.00249375263536" x2="53" y2="325.00249375263536" style="visibility: inherit;" fill="rgb(0, 0, 0)" stroke="rgb(204, 204, 204)" stroke-width="1px"></line><line x1="58" y1="296.0065737315232" x2="53" y2="296.0065737315232" style="visibility: inherit;" fill="rgb(0, 0, 0)" stroke="rgb(204, 204, 204)" stroke-width="1px"></line><line x1="58" y1="105.24782426176762" x2="53" y2="105.24782426176762" style="visibility: inherit;" fill="rgb(0, 0, 0)" stroke="rgb(204, 204, 204)" stroke-width="1px"></line></g><g transform="translate(48, 0)"><text x="0" y="357.4171745314173" dx="0em" dy="0.3em" style="text-anchor: end; visibility: inherit; font-family: &quot;Helvetica Neue&quot;, sans-serif; font-size: 12px; font-weight: 200;" fill="rgb(50, 49, 63)" stroke="none" stroke-width="1px">8e-3</text><text x="0" y="325.00249375263536" dx="0em" dy="0.3em" style="text-anchor: end; visibility: inherit; font-family: &quot;Helvetica Neue&quot;, sans-serif; font-size: 12px; font-weight: 200;" fill="rgb(50, 49, 63)" stroke="none" stroke-width="1px">9e-3</text><text x="0" y="296.0065737315232" dx="0em" dy="0.3em" style="text-anchor: end; visibility: inherit; font-family: &quot;Helvetica Neue&quot;, sans-serif; font-size: 12px; font-weight: 200;" fill="rgb(50, 49, 63)" stroke="none" stroke-width="1px">0.01</text><text x="0" y="105.24782426176762" dx="0em" dy="0.3em" style="text-anchor: end; visibility: inherit; font-family: &quot;Helvetica Neue&quot;, sans-serif; font-size: 12px; font-weight: 200;" fill="rgb(50, 49, 63)" stroke="none" stroke-width="1px">0.02</text></g><line x1="58" y1="0" x2="58" y2="378" fill="rgb(0, 0, 0)" stroke="rgb(204, 204, 204)" stroke-width="1px"></line></g></g><g transform="translate(58, 0)" clip-path="url(#clip_0)"><clipPath id="clip_0"><rect width="1390" height="378"></rect></clipPath><g><g><g><line x1="0" y1="0" x2="0" y2="378" fill="rgb(0, 0, 0)" stroke="rgb(60, 60, 60)" stroke-width="1px" opacity="0.25"></line><line x1="115.83333333333333" y1="0" x2="115.83333333333333" y2="378" fill="rgb(0, 0, 0)" stroke="rgb(60, 60, 60)" stroke-width="1px" opacity="0.25"></line><line x1="231.66666666666666" y1="0" x2="231.66666666666666" y2="378" fill="rgb(0, 0, 0)" stroke="rgb(60, 60, 60)" stroke-width="1px" opacity="0.25"></line><line x1="347.5" y1="0" x2="347.5" y2="378" fill="rgb(0, 0, 0)" stroke="rgb(60, 60, 60)" stroke-width="1px" opacity="0.25"></line><line x1="463.3333333333333" y1="0" x2="463.3333333333333" y2="378" fill="rgb(0, 0, 0)" stroke="rgb(60, 60, 60)" stroke-width="1px" opacity="0.25"></line><line x1="579.1666666666667" y1="0" x2="579.1666666666667" y2="378" fill="rgb(0, 0, 0)" stroke="rgb(60, 60, 60)" stroke-width="1px" opacity="0.25"></line><line x1="695" y1="0" x2="695" y2="378" fill="rgb(0, 0, 0)" stroke="rgb(60, 60, 60)" stroke-width="1px" opacity="0.25"></line><line x1="810.8333333333334" y1="0" x2="810.8333333333334" y2="378" fill="rgb(0, 0, 0)" stroke="rgb(60, 60, 60)" stroke-width="1px" opacity="0.25"></line><line x1="926.6666666666666" y1="0" x2="926.6666666666666" y2="378" fill="rgb(0, 0, 0)" stroke="rgb(60, 60, 60)" stroke-width="1px" opacity="0.25"></line><line x1="1042.5" y1="0" x2="1042.5" y2="378" fill="rgb(0, 0, 0)" stroke="rgb(60, 60, 60)" stroke-width="1px" opacity="0.25"></line><line x1="1158.3333333333335" y1="0" x2="1158.3333333333335" y2="378" fill="rgb(0, 0, 0)" stroke="rgb(60, 60, 60)" stroke-width="1px" opacity="0.25"></line><line x1="1274.1666666666665" y1="0" x2="1274.1666666666665" y2="378" fill="rgb(0, 0, 0)" stroke="rgb(60, 60, 60)" stroke-width="1px" opacity="0.25"></line><line x1="1390" y1="0" x2="1390" y2="378" fill="rgb(0, 0, 0)" stroke="rgb(60, 60, 60)" stroke-width="1px" opacity="0.25"></line></g><g><line x1="0" y1="357.4171745314173" x2="1390" y2="357.4171745314173" fill="rgb(0, 0, 0)" stroke="rgb(60, 60, 60)" stroke-width="1px" opacity="0.25"></line><line x1="0" y1="325.00249375263536" x2="1390" y2="325.00249375263536" fill="rgb(0, 0, 0)" stroke="rgb(60, 60, 60)" stroke-width="1px" opacity="0.25"></line><line x1="0" y1="296.0065737315232" x2="1390" y2="296.0065737315232" fill="rgb(0, 0, 0)" stroke="rgb(60, 60, 60)" stroke-width="1px" opacity="0.25"></line><line x1="0" y1="105.24782426176762" x2="1390" y2="105.24782426176762" fill="rgb(0, 0, 0)" stroke="rgb(60, 60, 60)" stroke-width="1px" opacity="0.25"></line></g></g></g><g><g><line x1="115.83333333333333" y1="0" x2="115.83333333333333" y2="378" fill="rgb(0, 0, 0)" stroke="rgb(153, 153, 153)" stroke-width="1.5px"></line></g></g><g><g><g><g><g><path stroke="rgb(255, 112, 67)" stroke-width="2px" d="M141.31666666666666,-0.6545812308149266L143.63333333333333,3.2891964696343052L144.79166666666669,7.517914553701189L144.79166666666669,7.059193844833658L147.10833333333335,4.914245160939402L148.26666666666668,9.990709810805697L149.425,11.300671256828707L149.425,13.388392017179797L154.05833333333334,17.01915597497799L154.05833333333334,17.22188436081541L155.21666666666667,19.453471848073036L155.21666666666667,20.601466538100226L156.375,23.75570549896139L156.375,27.478565609394764L157.53333333333333,30.343563122563467L158.69166666666666,32.249936502209266L158.69166666666666,33.629482583212734L161.00833333333333,36.38352968141413L161.00833333333333,39.66642649039568L161.00833333333333,41.75039744849312L161.00833333333333,43.76569096729082L161.00833333333333,45.46921074326241L162.16666666666666,47.083264187074406L162.16666666666666,49.51675844758989L163.325,50.06932054129794L164.48333333333332,51.60054698885017L171.43333333333334,54L171.43333333333334,57.238987793530896L172.59166666666667,59.83665530071977L174.90833333333333,61.06324759513626L174.90833333333333,63.32600473236869L176.0666666666667,65.8012948413716L177.225,66.37314084834748L178.38333333333333,68.49542459471292L179.54166666666669,68.7284918065074L180.70000000000002,68.68228022508055L180.70000000000002,70.3841044721417L180.70000000000002,71.58017309149415L180.70000000000002,73.0685835402569L181.85833333333332,75.53635318786041L181.85833333333332,77.88589950499727L181.85833333333332,79.1147063998277L184.175,79.33789915785093L185.33333333333334,81.55592400062835L185.33333333333334,81.99614578998143L186.49166666666665,83.09751986915518L186.49166666666665,85.03086770405963L186.49166666666665,86.05990780240353L187.65,87.80141106140456L188.80833333333334,89.08280435514735L188.80833333333334,89.7941857828693L189.96666666666667,91.5037705450685L189.96666666666667,93.76899028645516L191.12500000000003,94.75065918639535L192.28333333333333,96.58412693444444L193.44166666666666,96.7565034645321L194.60000000000002,97.16994986638684L196.91666666666666,97.7972250772375L196.91666666666666,99.17069744007819L199.23333333333335,100.10525652855199L199.23333333333335,101.45867841606605L200.39166666666665,103.27945177303474L200.39166666666665,104.33694707605076L200.39166666666665,103.48599119081388L201.54999999999998,103.20992048657729L201.54999999999998,103.5964413204718L202.70833333333334,105.0910519389858L205.02499999999998,106.766777726452L205.02499999999998,108.33269758037312L207.34166666666667,109.22018549705132L207.34166666666667,110.10466260139833L208.5,111.65187631201053L209.65833333333336,113.71438023591719L211.975,115.19393752682146L213.13333333333333,115.93440967622394L213.13333333333333,116.98341345048289L214.29166666666669,118.22988976661202L215.45,119.21198803588567L216.60833333333332,119.6387985657534L217.76666666666668,120.15955895864687L217.76666666666668,120.15318619862734L218.925,121.10181900004602L223.55833333333334,122.28604821434305L223.55833333333334,122.89165346957967L224.71666666666664,124.41509227589526L228.19166666666666,124.96728053236043L230.50833333333333,125.33506934301525L230.50833333333333,126.30253045609109L231.66666666666666,126.99833976042882L235.14166666666665,128.21256798296685L237.45833333333334,129.15670329302904L238.61666666666665,129.56314264756256L240.93333333333334,130.27468446728832L243.24999999999997,131.0546167633186L244.40833333333333,132.0644470200005L244.40833333333333,132.72916090026456L247.88333333333335,133.8901856760583L249.04166666666666,135.0028656819376L250.2,134.77243154524007L250.2,135.6006814632614L251.35833333333335,136.34714692849147L252.51666666666668,137.48422920269496L253.67499999999998,138.6372930182283L253.67499999999998,139.3390635189821L253.67499999999998,139.79284292230744L254.83333333333331,140.59001470397317L254.83333333333331,141.75996453544673L259.4666666666667,141.3776598621381L261.7833333333333,142.16816771124908L262.94166666666666,142.37991356618144L265.2583333333333,143.15958021249122L266.4166666666667,144.03689767127807L266.4166666666667,145.16671738854518L266.4166666666667,145.50351903559422L269.89166666666665,146.32199746292414L269.89166666666665,146.81866875306764L269.89166666666665,147.97312639720454L276.84166666666664,148.24653743832835L276.84166666666664,149.21227188910873L278,150.12148237131984L280.31666666666666,151.11229259876882L281.475,151.72051788125475L281.475,152.38556089715888L281.475,152.64989145088637L282.6333333333333,152.6039976064699L283.7916666666667,152.58908082028373L284.95,152.73911759637937L286.10833333333335,153.16293577840082L286.10833333333335,153.79629105493487L287.26666666666665,153.79018978445856L288.425,154.11164708886716L290.7416666666667,154.86290880466197L290.7416666666667,155.25984042009568L291.9,156.25978789852286L294.2166666666667,156.0160705340783L295.375,156.84478326170287L297.69166666666666,157.49954405223195L297.69166666666666,158.48947434161187L297.69166666666666,159.23659299714592L300.0083333333333,159.28816118510514L302.325,160.06088256796994L303.4833333333333,160.43247382574933L304.6416666666667,161.24496115977345L306.9583333333333,162.37221298646762L308.1166666666667,162.9797923393169L309.275,163.62013474720212L310.43333333333334,164.44838683376878L310.43333333333334,164.6676307647553L311.59166666666664,165.41689730326604L312.75,166.4064680936512L312.75,166.1458245141985L313.9083333333333,166.6973883759178L315.06666666666666,166.90473158284252L315.06666666666666,167.2627373555913L316.225,167.9735847360266L316.225,168.03519640091588L317.3833333333333,168.19126672916858L318.54166666666663,168.55798868240777L322.01666666666665,169.26640290066632L323.175,169.92041283797047L325.4916666666667,170.82400660896099L326.65,171.67996152711933L327.80833333333334,172.51610932363815L328.96666666666664,173.20027460237918L331.28333333333336,173.1412902715732L332.44166666666666,173.79122806411763L334.7583333333333,173.483889775306L335.9166666666667,173.91098423072054L337.075,174.68866678708258L338.23333333333335,175.49173158891656L338.23333333333335,176.36542681972927L339.39166666666665,176.99915229846155L340.55,177.3740945107201L340.55,177.82442015418056L341.7083333333333,178.6814026423857L347.5,179.49451829965363L347.5,180.0328175971164L347.5,179.7431083437618L347.5,180.25589563961495L348.65833333333336,180.7922902878764L348.65833333333336,181.58520833242486L349.81666666666666,181.94968706650067L354.45,182.67152231024392L362.5583333333333,183.4335545608252L362.5583333333333,183.76946362912736L363.71666666666664,184.61992592625376L367.19166666666666,185.05325687136934L367.19166666666666,185.3947252158553L371.82500000000005,185.4229329226199L371.82500000000005,185.90991571425548L371.82500000000005,186.10615010855068L372.9833333333333,185.860833788149L374.14166666666665,186.19047339550133L375.3,186.79182158693735L376.4583333333333,187.28921895710374L376.4583333333333,187.96149521569305L377.6166666666667,188.24875381496827L377.6166666666667,189.02743209508165L381.0916666666667,189.3276328868655L381.0916666666667,189.32357828697414L382.25000000000006,189.88104292784277L382.25000000000006,190.07520661955138L384.56666666666666,190.55233889955537L384.56666666666666,190.72626536837305L384.56666666666666,191.0966999290995L385.725,191.17703600852516L388.0416666666667,191.8112554162531L390.3583333333333,192.21506546831247L390.3583333333333,192.9302078365872L394.9916666666667,193.24891663021288L394.9916666666667,193.23919706294916L397.30833333333334,193.91520956483564L399.62499999999994,194.46482186377924L399.62499999999994,194.60609019302697L399.62499999999994,194.92423710833742L400.7833333333333,195.53071967767028L401.94166666666666,195.34872403739166L403.09999999999997,195.78547860407252L403.09999999999997,196.06800816204102L404.2583333333333,196.5292181778767L404.2583333333333,196.77680567642977L404.2583333333333,196.3204467260269L404.2583333333333,196.39902425287755L406.575,196.84150255415787L406.575,197.09656932461218L411.2083333333333,197.63094065336222L412.3666666666667,197.9489470503185L412.3666666666667,198.4666592355994L412.3666666666667,199.12531518288372L414.68333333333334,199.64019999255828L415.8416666666667,200.27210348125215L415.8416666666667,200.45266207614023L415.8416666666667,200.50247005859688L419.3166666666667,200.8115181000526L420.47499999999997,201.10826997009508L421.6333333333333,201.62519662077779L422.79166666666663,202.2591615937487L422.79166666666663,202.67235101541522L422.79166666666663,203.29174599901535L423.95,203.35217347226376L425.10833333333335,203.65452606868723L425.10833333333335,204.13176480385383L426.26666666666665,204.74185379975467L427.425,205.03837655440074L429.7416666666666,205.70569038634358L430.9,206.32990001575985L430.9,206.41881213959186L432.05833333333334,206.87122893717748L434.375,207.0732746085541L434.375,207.3267259262201L435.53333333333336,207.5718656110819L435.53333333333336,207.84181015601902L439.0083333333334,208.09315657860517L439.0083333333334,208.46804981262534L439.0083333333334,209.0349804061095L440.16666666666663,209.54420064949355L440.16666666666663,209.94891457442372L440.16666666666663,210.35949645161847L442.48333333333335,210.73831724536336L442.48333333333335,210.8492720559956L442.48333333333335,211.37932741353112L445.95833333333337,211.8469796023038L445.95833333333337,212.22860240572248L445.95833333333337,211.99712852322838L445.95833333333337,212.3925990373327L447.1166666666667,212.70660543386361L448.27500000000003,213.16152555586405L454.06666666666666,213.64942545160605L455.225,213.3509895963682L456.3833333333333,213.61186647747957L456.3833333333333,214.03310163971315L457.5416666666667,214.39155643952165L459.8583333333333,214.64333638956018L461.01666666666665,214.6822676680781L461.01666666666665,214.83879737489065L462.175,214.83836796977405L462.175,215.26649232902133L464.4916666666667,215.70274548200666L464.4916666666667,215.96831722199744L464.4916666666667,216.4254211698605L464.4916666666667,216.59256087320907L465.65000000000003,217.20865933697982L467.9666666666667,217.62542055192793L467.9666666666667,217.80625349152572L470.2833333333333,218.25147030723653L470.2833333333333,218.5149381132131L472.6,218.62225985471662L472.6,219.0353431372785L473.7583333333333,219.43087796921182L473.7583333333333,219.91279653138648L476.07500000000005,220.3974809883155L476.07500000000005,220.50005378474114L478.3916666666667,220.64844756997718L481.8666666666667,220.97431398845112L486.49999999999994,221.24996524851224L487.6583333333333,221.49653973992213L487.6583333333333,221.95130608639738L488.81666666666666,222.3977525489702L491.1333333333333,222.69131365678962L491.1333333333333,223.0441845690882L493.45,223.2929877211481L494.60833333333335,223.213321465814L494.60833333333335,223.65298791880366L495.7666666666667,223.62832404736537L495.7666666666667,223.99512462347212L496.92499999999995,224.3636288165782L499.2416666666667,224.71594260579033L500.4,225.21713734895357L508.5083333333333,225.53544526044732L509.66666666666663,225.81233326752988L510.825,225.8158278068188L513.1416666666667,226.01905244548243L514.3,226.32893215084664L515.4583333333334,226.20841576017193L516.6166666666667,226.49883124501983L517.775,226.99152664927752L521.25,227.3057858940545L523.5666666666666,227.7304218355625L523.5666666666666,227.98125194871568L525.8833333333333,228.42113061546917L527.0416666666666,228.8997366073154L527.0416666666666,228.9888664918027L527.0416666666666,229.3969316531999L530.5166666666667,229.27993937156594L531.675,229.66411680242675L531.675,229.72306082925L533.9916666666667,230.2151346348816L533.9916666666667,230.685212499923L535.15,230.97740472830995L535.15,231.30432450509124L536.3083333333333,231.50397300550887L537.4666666666667,231.92573415338217L542.1,232.2127210304652L544.4166666666666,232.52183037986427L544.4166666666666,233.10557857778574L546.7333333333333,233.27497551213577L546.7333333333333,233.2861439206703L546.7333333333333,233.70057138161198L549.0500000000001,233.88783934122975L550.2083333333333,234.18012037464314L550.2083333333333,234.58018475087528L550.2083333333333,234.6338402389174L551.3666666666667,234.73973306127496L551.3666666666667,234.82773144354883L552.525,235.08196169146322L552.525,235.48901169363683L552.525,235.86619484530212L554.8416666666667,236.1779445838728L556,236.5267293940597L558.3166666666667,236.9471484509392L558.3166666666667,236.82666481606802L558.3166666666667,237.25068947571913L560.6333333333333,237.60413922052933L560.6333333333333,238.04815365370942L560.6333333333333,238.12994827590137L560.6333333333333,238.46130775806992L561.7916666666666,238.82386790835267L561.7916666666666,238.93278691646276L562.95,239.45319640925905L562.95,239.88749531905748L564.1083333333333,240.1712028253752L564.1083333333333,240.30730921304948L567.5833333333334,240.56792391243638L568.7416666666667,240.83598011812663L569.9,241.0856078412603L571.0583333333333,241.4428811679267L572.2166666666667,241.74817814474457L573.375,242.1445960538218L575.6916666666667,242.19056246872088L575.6916666666667,242.53480813667622L576.85,242.79910557213483L576.85,243.00719465749643L579.1666666666667,243.18395355212994L582.6416666666667,243.2369707970962L583.8,243.70403685465016L584.9583333333334,243.89359214527462L586.1166666666667,244.15528079826737L587.275,244.53333394285653L587.275,244.81319759738543L588.4333333333334,245.17856958598355L589.5916666666667,245.63820904234043L590.75,245.91473027774126L591.9083333333333,246.26404881376237L591.9083333333333,246.37021731557883L593.0666666666667,246.76892485944106L594.225,247.22173356095865L595.3833333333333,247.54369440026525L595.3833333333333,247.8380169332626L595.3833333333333,248.13802397874753L596.5416666666666,248.44571626239392L597.7,248.802052746471L598.8583333333333,249.16210794574334L600.0166666666667,249.55710365292745L600.0166666666667,249.82972795549296L601.175,250.19037560209895L601.175,250.29061471424168L603.4916666666667,250.51023051495667L604.65,250.95311060691392L604.65,251.32299619352716L606.9666666666666,251.49708028619222L606.9666666666666,251.5408990729351L608.125,251.77813858978084L608.125,251.80949641804622L609.2833333333334,252.12874995719935L609.2833333333334,252.64759658597055L609.2833333333334,253.02366461905297L610.4416666666666,253.28685479034044L611.6,253.49102949454095L611.6,253.86540958152094L612.7583333333333,254.1545985961006L616.2333333333333,254.32965071404408L616.2333333333333,254.64265924948347L616.2333333333333,255.01684284126213L618.55,255.3806470547495L618.55,255.59925244751048L620.8666666666667,256.0677011797351L620.8666666666667,256.54284066074854L622.025,256.56911580777205L622.025,256.3280937162926L625.5,256.70668537688965L625.5,256.40290078707596L627.8166666666666,256.7163389348903L627.8166666666666,257.06977497377534L628.975,257.5010991639773L630.1333333333333,257.85120794525403L631.2916666666666,257.7948708204095L631.2916666666666,257.86768216256166L632.45,258.14912838672933L632.45,258.43961478344784L632.45,258.8011894293958L633.6083333333333,259.0590073462234L634.7666666666667,259.26160433025905L634.7666666666667,259.5388250107816L635.9250000000001,259.88721917200075L640.5583333333333,260.278943906593L640.5583333333333,260.6974577782122L640.5583333333333,260.79267369897144L642.875,261.01096504685654L644.0333333333333,261.366880804298L646.35,261.57190287910225L646.35,261.9431007432821L647.5083333333333,262.2098537525385L647.5083333333333,262.55886896400705L647.5083333333333,262.8580285357043L648.6666666666666,263.08517834006585L649.825,263.37950823092217L649.825,263.5698170436469L650.9833333333333,263.8725118050037L650.9833333333333,264.26288697290926L652.1416666666667,264.36443633039437L652.1416666666667,264.565760066792L653.3,264.8105663793454L654.4583333333334,264.96871396620844L655.6166666666667,265.272134147167L656.775,265.66070744728665L657.9333333333333,266.07303921490154L659.0916666666667,266.3426494415789L662.5666666666667,266.5226499043723L662.5666666666667,266.7830269835986L662.5666666666667,266.9341193111868L666.0416666666667,266.89194029408355L666.0416666666667,267.3139423058469L666.0416666666667,267.6325411203453L667.1999999999999,267.84716076061494L668.3583333333333,268.0768163165459L669.5166666666667,268.3912959568714L674.15,268.68343061783315L675.3083333333334,268.8225502142675L675.3083333333334,269.0067943273304L678.7833333333333,269.2010959767732L678.7833333333333,269.5503060509034L681.1,269.33937457851806L683.4166666666666,269.52413860148965L684.575,269.70434306275456L685.7333333333333,269.6975276847697L685.7333333333333,269.8631275387979L688.05,270.08021007576275L688.05,270.3371779666118L689.2083333333334,270.37457465556935L689.2083333333334,270.4709699909648L690.3666666666667,270.6548762625822L691.525,270.8955082497072L691.525,270.9819887031188L692.6833333333334,271.10926100438246L695,271.27491157332105L695,271.44376675523966L697.3166666666667,271.6141962108832L699.6333333333333,271.9453275956712L700.7916666666666,272.04741972798627L703.1083333333333,272.18379025985587L704.2666666666668,272.4372875123626L704.2666666666668,272.64024712234357L705.425,272.90305825827943L705.425,273.0150976576375L705.425,273.18866265839085L705.425,273.4449283076125L706.5833333333333,273.73392482435383L708.9,273.5940065275407L711.2166666666667,273.7374878698362L711.2166666666667,273.9503649353587L713.5333333333333,274.2633291397772L714.6916666666666,274.4677498812461L715.85,274.3146632063488L717.0083333333333,274.639163395141L720.4833333333333,274.81288601493884L721.6416666666667,275.1164252590394L721.6416666666667,275.30915333666866L722.8000000000001,275.4103245061211L722.8000000000001,275.5650070293048L723.9583333333334,275.498309478111L725.1166666666666,275.7232193052543L725.1166666666666,275.7333269479691L725.1166666666666,275.88055492940475L726.275,276.0318217016193L726.275,276.25224537733624L726.275,276.31796694953255L727.4333333333333,276.50139879622486L727.4333333333333,276.7318044822973L729.75,276.9971207177825L730.9083333333334,277.0366043682586L730.9083333333334,277.0293311968013L733.2249999999999,276.8611107342913L734.3833333333333,277.0309446543304L734.3833333333333,277.20853562649927L737.8583333333333,277.168863047273L740.175,277.1600945566597L741.3333333333334,277.406231277064L741.3333333333334,277.5333713770057L742.4916666666667,277.4844289421303L743.6500000000001,277.73855196335904L743.6500000000001,278.04188279448607L744.8083333333334,278.09150143751305L745.9666666666666,278.1603761276305L747.125,278.1871368355661L748.2833333333333,278.20234361510154L748.2833333333333,278.4178013534371L748.2833333333333,278.67521986085626L748.2833333333333,278.80490189864975L749.4416666666667,278.9769425584945L750.6,279.0766469579837L750.6,279.0327807132546L751.7583333333334,279.069555525403L752.9166666666666,278.9569295738479L752.9166666666666,279.2128675161055L752.9166666666666,279.35908316611466L756.3916666666667,279.48464439230094L756.3916666666667,279.6401696798488L756.3916666666667,279.8489819026208L761.025,280.0783746419202L761.025,280.28635140221786L761.025,280.46115948985107L766.8166666666666,280.7136725932548L766.8166666666666,280.98345848546404L766.8166666666666,281.2729318559992L769.1333333333333,281.34630912491093L769.1333333333333,281.6176358187995L771.45,281.96865727309597L771.45,282.08044771778884L772.6083333333332,282.36132605888906L772.6083333333332,282.371222623732L773.7666666666667,282.55260926324013L776.0833333333334,282.7717343169825L778.4000000000001,283.0134619038553L779.5583333333333,283.1204061134139L779.5583333333333,283.2188227252985L780.7166666666666,283.1813273343636L786.5083333333333,283.4619879310062L787.6666666666666,283.63118548061124L787.6666666666666,283.5759391217081L787.6666666666666,283.7356136215149L796.9333333333334,283.9228973674213L796.9333333333334,283.9662911559984L798.0916666666667,284.24360204785023L798.0916666666667,284.39074441902153L798.0916666666667,284.6916280979063L799.2499999999999,284.77109420127226L800.4083333333333,284.57794519261915L800.4083333333333,284.62206922877215L801.5666666666666,284.7116896284486L801.5666666666666,284.8492980774389L802.725,285.1030348239178L802.725,285.23393283614024L805.0416666666667,285.47609100998193L805.0416666666667,285.71955378127495L807.3583333333333,285.72044245100915L809.6750000000001,285.94818163785305L809.6750000000001,285.9844465120523L810.8333333333334,286.1828931015717L810.8333333333334,286.28458166187386L814.3083333333333,286.4663031184421L816.625,286.5914539822734L817.7833333333334,286.67797140607667L820.0999999999999,286.8674524288701L820.0999999999999,286.953711126542L821.2583333333333,287.01382675252404L822.4166666666666,287.2587545350723L822.4166666666666,287.61985162156526L822.4166666666666,287.85090229831036L823.575,288.0191613567129L827.05,287.92548440316824L828.2083333333334,288.1923053686377L829.3666666666667,288.2332764698857L829.3666666666667,288.3599730842289L830.5250000000001,288.57974801189437L830.5250000000001,288.6280267812318L832.8416666666666,288.8569054858906L834,288.8996082365136L834,289.17187881483295L834,289.3903825616262L835.1583333333333,289.5871497019718L836.3166666666667,289.84824414246543L838.6333333333334,290.12731218188253L838.6333333333334,290.31886292335L839.7916666666666,290.5299291029096L840.9499999999999,290.5988315184434L842.1083333333333,290.82228910994075L843.2666666666667,291.0211297779407L844.4250000000001,291.1554921426003L844.4250000000001,291.4837624670913L845.5833333333333,291.5044040899272L846.7416666666667,291.6169766039107L850.2166666666667,291.9109918170292L850.2166666666667,292.12527918022647L851.3750000000001,292.1998599846522L851.3750000000001,292.4075531633675L853.6916666666666,292.66569703069365L853.6916666666666,292.8954401858131L854.85,293.07359676276735L854.85,293.35312407975L854.85,293.4424200893036L856.0083333333333,293.65122569366247L857.1666666666667,293.6204116406742L857.1666666666667,293.9272771947272L860.6416666666667,294.0523950244963L862.9583333333334,294.32132807450125L864.1166666666667,294.56902535005L866.4333333333333,294.66170449375903L867.5916666666666,294.7153246818376L868.75,294.44438912353L869.9083333333334,294.74783811035235L871.0666666666667,295.0224054326484L872.2249999999999,295.26669923965386L873.3833333333333,295.2892868292829L873.3833333333333,295.3104928118038L873.3833333333333,295.3974354879465L873.3833333333333,295.3883622732677L875.7,295.5588256364737L878.0166666666668,295.7189039142859L878.0166666666668,295.8305810254581L882.65,295.8167838453433L883.8083333333334,295.39750500544295L883.8083333333334,295.282996178684L884.9666666666667,295.3646714217805L886.1249999999999,295.30997797592784L888.4416666666666,295.5185840302999L888.4416666666666,295.680811097208L891.9166666666667,295.81948650639515L891.9166666666667,295.892460099022L893.0749999999999,296.1491020270636L896.5500000000001,296.28338853977556L898.8666666666666,296.2771609571471L900.025,296.41005135792295L902.3416666666667,296.66399461487043L903.5,296.8707429246651L905.8166666666666,296.90383064024394L905.8166666666666,297.04791447579373L906.9749999999999,297.21451920923215L908.1333333333333,297.3399388574052L909.2916666666666,297.511935697441L910.45,297.6832964102806L911.6083333333333,297.85392442495396L911.6083333333333,297.7719612260012L911.6083333333333,297.97427308257534L913.925,298.1373867194317L915.0833333333334,298.296820412555L916.2416666666667,298.543243003133L918.5583333333334,298.61027928168505L918.5583333333334,298.78645453800954L919.7166666666666,298.93363996125635L922.0333333333333,299.19286219846117L922.0333333333333,299.2966209085989L924.35,299.29370728205686L924.35,299.2714771335667L925.5083333333334,299.364780557695L927.8249999999999,299.3879004668769L927.8249999999999,299.55041622566597L928.9833333333333,299.7169994010468L928.9833333333333,299.85251655428226L931.3000000000001,300.12423979225076L931.3000000000001,300.2198389192748L931.3000000000001,300.4546860641637L934.775,300.66752564638836L934.775,300.8432070022438L934.775,301.02258934681333L935.9333333333334,301.26483057786044L938.2500000000001,301.3209189829221L938.2500000000001,301.3738098784552L941.725,301.6253627582845L942.8833333333333,301.7397572116084L944.0416666666667,302.0118397937603L945.2,302.10807896352657L945.2,302.26787004080506L945.2,302.4559350786675L946.3583333333332,302.53985446416374L949.8333333333334,302.7582451348908L950.9916666666667,302.8605976143275L955.625,303.1572370540315L956.7833333333334,303.2952420542144L957.9416666666667,303.21684923279685L957.9416666666667,303.38002942598814L957.9416666666667,303.5137765508957L957.9416666666667,303.4946221253486L957.9416666666667,303.7624470380414L959.0999999999999,304.00569896400856L960.2583333333333,304.19577659831305L960.2583333333333,304.2903682462309L962.575,304.3816346832556L963.7333333333333,304.55155684555996L963.7333333333333,304.75589981984695L964.8916666666668,304.80624951019115L967.2083333333333,304.84506907223823L969.525,304.9363846679101L969.525,305.0858121221308L970.6833333333334,305.0939457259238L970.6833333333334,305.09174007775823L970.6833333333334,305.27208473621863L972.9999999999999,305.40443323394464L972.9999999999999,305.5781659922304L976.475,305.68354488705324L976.475,305.93161718975045L977.6333333333333,306.0700163438145L977.6333333333333,305.98102481065484L978.7916666666667,306.0182869734321L979.9499999999999,305.9076181580296L981.1083333333333,305.8915306028407L983.4250000000001,305.8709912823865L986.9,305.88367529767953L988.0583333333333,305.9427098471997L988.0583333333333,306.00059182270775L991.5333333333334,306.0950684559656L991.5333333333334,306.3607392007338L992.6916666666666,306.191580440968L993.8499999999999,306.26639663590583L995.0083333333333,306.21127884958526L996.1666666666666,306.43977058321036L997.325,306.59626864438053L997.325,306.698448924724L999.6416666666667,306.7675142849264L1003.1166666666667,306.88882809039524L1004.2750000000001,307.1660272948382L1004.2750000000001,307.37970887481083L1006.5916666666666,307.499287729117L1007.75,307.7878605676323L1007.75,307.959546549546L1008.9083333333333,307.956160808434L1008.9083333333333,308.1889665955475L1010.0666666666667,308.3543674538786L1013.5416666666666,308.5635846608044L1014.6999999999999,308.5549031795315L1014.6999999999999,308.78313216679567L1015.8583333333333,309.01183722024075L1015.8583333333333,309.3064622910289L1015.8583333333333,309.41870723179386L1020.4916666666667,309.38472945400514L1022.8083333333334,309.3237840819782L1022.8083333333334,309.55040694332246L1022.8083333333334,309.657786122721L1023.9666666666667,309.7467183950974L1023.9666666666667,309.5443290200815L1023.9666666666667,309.82275286454814L1025.125,310.0496658288549L1026.2833333333333,310.12759971371923L1027.4416666666666,310.3345366402136L1027.4416666666666,310.3655514255762L1027.4416666666666,310.5024258608358L1028.6,310.741859013104L1029.7583333333334,310.8166635401482L1030.9166666666667,310.923191966023L1032.075,310.94208542544834L1032.075,310.9832792937093L1032.075,311.1831692528981L1039.025,311.33770250348266L1039.025,311.33912114818804L1039.025,311.46527543374697L1041.3416666666667,311.6356032503383L1042.5,311.3281712184031L1045.975,311.03623373193443L1045.975,311.1986209234202L1049.45,311.33900999479704L1049.45,311.25313622391775L1049.45,311.36670883921863L1050.6083333333333,311.3103093631317L1052.925,311.4811080320655L1056.4,311.64735945212163L1056.4,311.7941511320934L1057.5583333333334,311.7908708160233L1061.0333333333333,311.97235373985325L1063.35,312.0443829547137L1064.5083333333334,312.07683445437806L1065.6666666666667,312.21742354653895L1065.6666666666667,312.21911488490093L1069.1416666666667,312.27008550915275L1070.3,312.2638277983071L1070.3,312.30975698940796L1070.3,312.5452144299352L1072.6166666666666,312.6656017924256L1072.6166666666666,312.85679869213646L1073.7749999999999,312.9365354618079L1074.9333333333334,313.1308841899962L1078.4083333333333,313.22999991146406L1083.0416666666667,313.32638728255637L1083.0416666666667,313.4112215098453L1084.2,313.6200022370194L1085.3583333333333,313.6611105764466L1086.5166666666667,313.82760490405906L1086.5166666666667,314.0208744836334L1087.675,314.11326164085096L1087.675,314.32023636084114L1087.675,314.5177196703374L1088.8333333333333,314.46602382210983L1089.9916666666668,314.5594656928939L1092.3083333333334,314.5010921375407L1094.625,314.37815153140735L1094.625,314.59512528282266L1096.9416666666666,314.79606311391694L1096.9416666666666,315.0380191796903L1096.9416666666666,315.1359683400587L1099.2583333333334,315.12572751953655L1099.2583333333334,315.27499649046774L1099.2583333333334,315.45701139961244L1102.7333333333333,315.6528265516812L1102.7333333333333,315.8459566903369L1102.7333333333333,316.03017718790386L1103.8916666666667,316.03426913181613L1103.8916666666667,316.2038092212591L1103.8916666666667,316.4068064454449L1107.3666666666666,315.6293644684537L1112,315.64887405871093L1112,315.7748128827556L1112,315.85077267765394L1113.1583333333333,316.03325482745026L1115.475,316.2112591955336L1116.6333333333334,315.9222683230304L1121.2666666666667,315.9302460172878L1122.425,316.01516904369214L1122.425,316.14135144713873L1123.5833333333333,316.2154691226391L1123.5833333333333,316.34369849366743L1123.5833333333333,316.4117010704362L1124.7416666666668,316.248708066679L1125.9,316.4525062686787L1128.2166666666667,316.4434883376117L1129.375,316.5799223977738L1129.375,316.5947710080385L1130.5333333333333,316.6574387399682L1130.5333333333333,316.87150771242244L1130.5333333333333,316.82028036669396L1132.85,316.97163714349733L1132.85,317.1461502550668L1136.325,317.2775605283464L1137.4833333333333,317.3527863830905L1137.4833333333333,317.5238931872884L1138.6416666666667,317.66251751766595L1138.6416666666667,317.9054249848743L1140.9583333333333,317.86236282352786L1143.275,318.0703583671443L1143.275,318.17323969886917L1145.5916666666667,318.1376562487966L1146.75,318.20525666472L1147.9083333333333,318.28170871979097L1149.0666666666666,318.4572674537599L1150.225,318.6138299398582L1153.7,318.7672130535714L1154.8583333333333,318.82003784904407L1156.0166666666667,318.84826953479455L1157.175,318.9150265649077L1158.3333333333335,319.15680393274084L1159.4916666666666,319.182112497319L1161.8083333333334,319.321574996738L1161.8083333333334,319.45186823728017L1164.125,319.37626141741566L1167.6,319.33337765074094L1168.7583333333332,319.39591497418587L1168.7583333333332,319.5109046283363L1171.075,319.7437819082894L1172.2333333333333,319.8445018262642L1172.2333333333333,319.65840016018973L1174.55,319.7967996051956L1175.7083333333333,319.8761242845493L1175.7083333333333,319.97188520625076L1176.8666666666668,320.14705782211803L1176.8666666666668,320.3893927494088L1178.025,320.41610775792435L1178.025,320.58556952516545L1179.1833333333334,320.708628461626L1180.3416666666667,320.8990999828419L1180.3416666666667,320.9836443287241L1180.3416666666667,321.0562991795692L1181.5,320.9896629297592L1181.5,321.1116776206534L1186.1333333333334,321.25583980117267L1186.1333333333334,321.4148332907046L1188.45,321.5617655938918L1189.6083333333333,321.54040889127236L1190.7666666666667,321.7108526169953L1190.7666666666667,321.8951058845895L1190.7666666666667,321.8666176930328L1190.7666666666667,321.9973778652111L1191.925,322.0375054183713L1193.0833333333333,322.2589256539535L1194.2416666666666,322.33879792644314L1194.2416666666666,322.5267549637926L1196.5583333333334,322.64308629222177L1196.5583333333334,322.76382916465064L1196.5583333333334,322.88061202638363L1198.875,323.001710574309L1198.875,322.99578836608373L1200.0333333333333,323.0059408789873L1201.1916666666666,323.0723932053796L1201.1916666666666,323.2976301376889L1202.35,323.4560170300823L1204.6666666666667,323.4599852976212L1206.9833333333333,323.6971768309542L1208.1416666666667,323.85590422872883L1208.1416666666667,323.9999999999999L1210.4583333333333,324.16476750705147L1212.775,323.88974947890665L1215.0916666666667,324.02558325437985L1215.0916666666667,324.1986039914932L1216.25,324.2107248642319L1218.5666666666668,324.35812472510986L1219.725,324.4652602131163L1222.0416666666667,324.5441968904472L1223.2,324.6887677818692L1223.2,324.88405743092875L1225.5166666666667,325.109629552401L1225.5166666666667,324.88587957771813L1226.675,325.11768391708983L1227.8333333333333,324.97796916795977L1228.9916666666666,325.1639882519355L1228.9916666666666,325.3317693359339L1230.15,325.5384227454032L1230.15,325.7159799786649L1230.15,325.870239498959L1231.3083333333334,326.00515932553355L1232.4666666666667,326.10750969710716L1233.625,326.1841760790037L1235.9416666666666,326.43985219473757L1237.1,326.4674336152669L1237.1,326.4515767997656L1237.1,326.6436569335836L1238.2583333333334,326.8169939425303L1239.4166666666667,326.9635844122684L1239.4166666666667,326.756861819676L1240.575,326.58852844702983L1244.05,326.5681915639726L1245.2083333333335,326.59618160298294L1245.2083333333335,326.7567421562857L1251,326.87655783001424L1251,327.03970291027883L1253.3166666666666,327.21174253904945L1253.3166666666666,327.11592535569116L1254.475,327.19441578878485L1256.7916666666667,327.32291440004315L1256.7916666666667,327.3819766182292L1256.7916666666667,327.4628728649358L1257.95,327.6066890757834L1259.1083333333333,327.6704608241349L1260.2666666666667,327.72324603211433L1263.7416666666668,327.9598028176395L1264.9,328.1390499845199L1266.0583333333334,328.208150095195L1270.6916666666666,328.2788565085331L1273.0083333333334,328.3394819281833L1274.1666666666665,328.3230781633711L1274.1666666666665,328.44669882186236" style="fill: none;" fill="none"></path></g></g></g></g><g opacity="0.2"><g><g><g><path stroke="rgb(255, 112, 67)" stroke-width="2px" d="M119.30833333333332,-29.92331250404294L119.30833333333332,35.99501614782048L120.46666666666667,66.26774899444672L120.46666666666667,21.714595289879355L121.62499999999999,25.7002114381325L122.78333333333333,185.16727664495417L125.1,0.516726778868815L126.25833333333334,4.0613611660688775L127.41666666666666,56.648054049204234L129.73333333333335,17.956115428296926L129.73333333333335,81.79759418396787L130.89166666666665,119.54010873061645L130.89166666666665,76.86021502629603L134.36666666666667,148.8656928446301L134.36666666666667,120.66414776709439L136.68333333333334,51.726753359594625L136.68333333333334,159.40291607709352L137.84166666666667,130.68394567044098L137.84166666666667,232.74892299471247L139,47.61849684029232L141.31666666666666,27.445844627053987L143.63333333333333,124.47335539700384L144.79166666666669,146.81966707736277L144.79166666666669,-4.881365583767661L147.10833333333335,-48.512656564008125L148.26666666666668,218.8780629863328L149.425,53.1093065815129L149.425,86.14856043126719L154.05833333333334,165.99790321097632L154.05833333333334,23.881754190125207L155.21666666666667,106.82939273433345L155.21666666666667,63.29543787333256L156.375,167.75071115368868L156.375,215.20361577947062L157.53333333333333,166.37719558446693L158.69166666666666,117.25887877037667L158.69166666666666,93.99155467060615L161.00833333333333,178.71915987808478L161.00833333333333,226.77375458235926L161.00833333333333,147.78915501486452L161.00833333333333,148.37473976769095L161.00833333333333,133.24296503370044L162.16666666666666,131.55802773607329L162.16666666666666,193.59376334389793L163.325,77.28055465960944L164.48333333333332,136.95661442102664L171.43333333333334,207.18588309133278L171.43333333333334,301.5008268233183L172.59166666666667,239.96098858269423L174.90833333333333,133.15870390101057L174.90833333333333,219.8528826718134L176.0666666666667,247.4922273888107L177.225,99.44228960346561L178.38333333333333,222.56709894463847L179.54166666666669,82.18429799362275L180.70000000000002,66.0488939055673L180.70000000000002,193.6556375828633L180.70000000000002,153.56017775251124L180.70000000000002,181.581809355663L181.85833333333332,295.0894569788945L181.85833333333332,286.41596903164725L181.85833333333332,170.08701548235857L184.175,93.97381615550802L185.33333333333334,285.9289678287995L185.33333333333334,112.58275079507177L186.49166666666665,168.6627993732989L186.49166666666665,263.07820008063237L186.49166666666665,167.67236668944577L187.65,247.74741073128797L188.80833333333334,198.63248686080746L188.80833333333334,145.9301443035824L189.96666666666667,256.04310691146185L189.96666666666667,349.08400337883313L191.12500000000003,179.36552270694716L192.28333333333333,288.0629144161769L193.44166666666666,110.16912973557965L194.60000000000002,130.95615274478808L196.91666666666666,151.55871346016593L196.91666666666666,236.8717556548659L199.23333333333335,187.01518633104564L199.23333333333335,240.66551135136714L200.39166666666665,317.3625138460904L200.39166666666665,209.2994289352143L200.39166666666665,40.5150170400683L201.54999999999998,80.90644080226332L201.54999999999998,138.65784474278803L202.70833333333334,279.0126801718145L205.02499999999998,315.12309282190154L205.02499999999998,299.79854283035775L207.34166666666667,202.1980498494021L207.34166666666667,203.83819238137852L208.5,308.3489685450726L209.65833333333336,434.45777331014546L211.975,304.89331293040135L213.13333333333333,195.61224049630317L213.13333333333333,239.7086384799394L214.29166666666669,273.78215187956755L215.45,234.92532451911586L216.60833333333332,164.5032001807444L217.76666666666668,176.55181858707894L217.76666666666668,119.5247749393119L218.925,237.1238757441603L223.55833333333334,278.67292211290834L223.55833333333334,192.48176583902753L224.71666666666664,355.38289912853526L228.19166666666666,188.90202025485493L230.50833333333333,166.59556007164565L230.50833333333333,253.3647226527368L231.66666666666666,212.88857077659725L235.14166666666665,304.0892966753399L237.45833333333334,256.3396750394624L238.61666666666665,177.70030570478932L240.93333333333334,221.9803303234608L243.24999999999997,234.4500155226655L244.40833333333333,276.7818234655583L244.40833333333333,219.7790786088177L247.88333333333335,312.6972049315525L249.04166666666666,305.326917816596L250.2,109.52603504714654L250.2,253.58599655652162L251.35833333333335,241.1032468859415L252.51666666666668,320.7707004614139L253.67499999999998,327.63372470009955L253.67499999999998,239.21497356211327L253.67499999999998,200.57253462603822L254.83333333333331,259.5210570717537L254.83333333333331,343.216845885621L259.4666666666667,98.08583281152164L261.7833333333333,263.07015013620696L262.94166666666666,170.09567707566492L265.2583333333333,264.09659567244114L266.4166666666667,285.9999413640193L266.4166666666667,348.7812379084447L266.4166666666667,192.40664529859754L269.89166666666665,279.53890546873396L269.89166666666665,220.28502761976458L269.89166666666665,367.04578815642503L276.84166666666664,186.77733942923743L276.84166666666664,321.4026377837766L278,310.0363849130168L280.31666666666666,332.9079317836138L281.475,249.28280768355253L281.475,261.97879119341525L281.475,191.386037536826L282.6333333333333,146.3655881320184L283.7916666666667,150.5330003667255L284.95,174.4681988250266L286.10833333333335,220.09300909794618L286.10833333333335,261.850420408797L287.26666666666665,152.92643254584337L288.425,204.30611014578542L290.7416666666667,291.9287116367944L290.7416666666667,219.56343466970293L291.9,363.22841267685664L294.2166666666667,122.55133887022421L295.375,317.9380305252493L297.69166666666666,276.90305356535055L297.69166666666666,369.56540638180377L297.69166666666666,302.7462723789067L300.0083333333333,167.15230842304763L302.325,312.3883092005975L303.4833333333333,223.70894361930834L304.6416666666667,326.7688432400348L306.9583333333333,436.68215453970737L308.1166666666667,278.00361646271637L309.275,287.31005567229056L310.43333333333334,339.6670917245723L310.43333333333334,201.47881050042147L311.59166666666664,320.3929559513477L312.75,399.9204968842271L312.75,127.41964832229317L313.9083333333333,273.6063338757859L315.06666666666666,202.57565095313907L315.06666666666666,232.50065527604136L316.225,318.59222884258384L316.225,178.31837176506897L317.3833333333333,195.174638959838L318.54166666666663,237.16468676262528L322.01666666666665,323.3132601450997L323.175,309.43684991525384L325.4916666666667,392.0599647145058L326.65,377.03905900141746L327.80833333333334,372.3246791248576L328.96666666666664,325.1606065094553L331.28333333333336,163.21984952193887L332.44166666666666,317.58666032050553L334.7583333333333,124.91074434905323L335.9166666666667,260.4790856022417L337.075,362.20699579202704L338.23333333333335,373.29519125940334L338.23333333333335,402.56373661032535L339.39166666666665,321.3733785157733L340.55,253.81619948170206L340.55,273.1161779237634L341.7083333333333,404.57432615417696L347.5,389.42556854439937L347.5,300.5893211283044L347.5,131.52861472493944L347.5,294.99822411101917L348.65833333333336,302.8565330913244L348.65833333333336,390.6395358291003L349.81666666666666,259.47735379189925L354.45,367.26170245059336L362.5583333333333,384.3798792293243L362.5583333333333,255.42308166333584L363.71666666666664,425.61153388571665L367.19166666666666,282.5521033822953L367.19166666666666,259.49243703639826L371.82500000000005,190.8623073153009L371.82500000000005,300.0891441888093L371.82500000000005,226.76440761750902L372.9833333333333,142.11776551513833L374.14166666666665,259.08615169774646L375.3,339.79333666830786L376.4583333333333,307.6020080306764L376.4583333333333,368.3331882531264L377.6166666666667,251.7737733653833L377.6166666666667,415.91439838641975L381.0916666666667,256.70690223911595L381.0916666666667,188.514768494155L382.25000000000006,333.5532378215136L382.25000000000006,232.26259384861913L384.56666666666666,309.4500104109684L384.56666666666666,228.51877699171143L384.56666666666666,279.39141363932754L385.725,208.12405291734902L388.0416666666667,368.50601577903916L390.3583333333333,291.43771404387917L390.3583333333333,405.7062085467577L394.9916666666667,269.0316630459274L394.9916666666667,191.21991450896323L397.30833333333334,392.93366980996893L399.62499999999994,344.38317960123345L399.62499999999994,226.14620043290606L399.62499999999994,272.212563619565L400.7833333333333,369.59807215290954L401.94166666666666,159.05267948165044L403.09999999999997,310.117499047661L403.09999999999997,264.676814630273L404.2583333333333,320.0537111373651L404.2583333333333,256.3914941438127L404.2583333333333,111.73333240256619L404.2583333333333,214.08415572245207L406.575,316.23069124972903L406.575,259.7300623139516L411.2083333333333,351.4464850915719L412.3666666666667,279.18513976156464L412.3666666666667,347.3078996293321L412.3666666666667,408.94754115852805L414.68333333333334,348.777325821262L415.8416666666667,399.6050970155536L415.8416666666667,244.41563734954102L415.8416666666667,211.98286454292497L419.3166666666667,281.63974378556355L420.47499999999997,278.52534031391906L421.6333333333333,355.7218662017362L422.79166666666663,408.71204214879975L422.79166666666663,319.10107713894666L422.79166666666663,404.73670914829967L423.95,217.6871218262945L425.10833333333335,284.63400361053016L425.10833333333335,346.46895253963476L426.26666666666665,405.61876379402577L427.425,285.1183470888175L429.7416666666666,438.2376330027236L430.9,417.2162587849319L430.9,228.29569682426666L432.05833333333334,343.05784954598613L434.375,259.94938863301434L434.375,275.70433847789303L435.53333333333336,273.6514889315191L435.53333333333336,281.85663083477283L439.0083333333334,276.56037160236065L439.0083333333334,318.5268808492742L439.0083333333334,399.906364258186L440.16666666666663,374.3935754473164L440.16666666666663,332.4264939270247L440.16666666666663,335.5730870544799L442.48333333333335,324.37552639268927L442.48333333333335,239.64247014412527L442.48333333333335,389.42778193155755L445.95833333333337,362.47931427371884L445.95833333333337,328.65790738755624L445.95833333333337,159.6201862623691L445.95833333333337,335.0612094796423L447.1166666666667,305.5600968575698L448.27500000000003,361.29129833368734L454.06666666666666,377.05884314442557L455.225,146.64158002992957L456.3833333333333,289.40330299188037L456.3833333333333,350.0484471229037L457.5416666666667,325.74694199105426L459.8583333333333,288.14121551037476L461.01666666666665,224.86704468778973L461.01666666666665,258.4437665058932L462.175,214.72747807790205L462.175,357.3570001551228L464.4916666666667,361.8993513757108L464.4916666666667,295.69634234942816L464.4916666666667,373.2012074754739L464.4916666666667,264.3009288042731L465.65000000000003,461.78972215116534L467.9666666666667,357.87726306520705L467.9666666666667,270.300427232724L470.2833333333333,372.44045791035313L470.2833333333333,299.3271669200315L472.6,248.81570479499456L472.6,360.1989924279143L473.7583333333333,353.3340155365152L473.7583333333333,395.0273741307777L476.07500000000005,397.5955974368992L476.07500000000005,249.7014639496368L478.3916666666667,264.09842164604675L481.8666666666667,327.7932585776689L486.49999999999994,308.92445692347746L487.6583333333333,298.7224551193963L487.6583333333333,387.80388280358204L488.81666666666666,384.69845909672705L491.1333333333333,318.36534400637356L491.1333333333333,343.27365908283286L493.45,302.5262770681825L494.60833333333335,201.96580410312365L494.60833333333335,385.4624941400745L495.7666666666667,216.83791598481554L495.7666666666667,352.3492020717999L496.92499999999995,353.90330498746675L499.2416666666667,347.47270846736535L500.4,423.43128516691536L508.5083333333333,334.42108498850075L509.66666666666663,318.1130091056875L510.825,226.80931182271678L513.1416666666667,290.9480689943364L514.3,333.0029659844297L515.4583333333334,193.74902299533238L516.6166666666667,325.6974881212085L517.775,426.0746082017373L521.25,337.1615709755374L523.5666666666666,390.22159138373223L523.5666666666666,312.32507039441305L525.8833333333333,400.15016028388527L527.0416666666666,423.17114503946243L527.0416666666666,256.2952093774165L527.0416666666666,385.9161006652023L530.5166666666667,196.97778866178493L531.675,375.02222644138294L531.675,247.65163012035708L533.9916666666667,436.94266604678154L533.9916666666667,424.6325141488078L535.15,335.1048414545429L535.15,351.2654630960757L536.3083333333333,298.5541259214742L537.4666666666667,400.5085972608434L542.1,335.26244091703654L544.4166666666666,345.7113920323304L544.4166666666666,513.2088411453126L546.7333333333333,289.7783022598826L546.7333333333333,236.68157224991444L546.7333333333333,401.44492349206513L549.0500000000001,297.5845332600812L550.2083333333333,341.6486386401757L550.2083333333333,395.9226709606554L550.2083333333333,251.5428294688856L551.3666666666667,269.26006704168657L551.3666666666667,263.2687159260033L552.525,327.1678758826141L552.525,403.2759749262047L552.525,387.6375096914579L554.8416666666667,355.20092277486833L556,374.2424181236837L558.3166666666667,414.6424507793009L558.3166666666667,201.61511969870702L558.3166666666667,418.2213256209142L560.6333333333333,432.6026917316198L560.6333333333333,265.14903896349017L560.6333333333333,369.94192573156096L561.7916666666666,387.0869052822279L561.7916666666666,275.7885122307335L562.95,492.0413054720833L562.95,431.87394282926215L564.1083333333333,349.84917232361363L564.1083333333333,287.6302693769094L567.5833333333334,339.99405974447257L568.7416666666667,343.96954452874434L569.9,335.9845382889514L571.0583333333333,390.5923654315005L572.2166666666667,363.81341597111873L573.375,414.9083883604615L575.6916666666667,257.5081831280853L575.6916666666667,386.11873599899553L576.85,345.9981950825627L576.85,320.9650853515518L579.1666666666667,308.04349314665984L582.6416666666667,261.1722206844784L583.8,468.00948512285845L584.9583333333334,314.59499474180427L586.1166666666667,347.6536329717333L587.275,410.9932687596793L587.275,357.7483480781602L588.4333333333334,404.9395466617557L589.5916666666667,468.604776968205L590.75,358.01779720435303L591.9083333333333,397.8747047562275L591.9083333333333,284.35938707049775L593.0666666666667,429.62101591557746L595.3833333333333,385.1550769941134L595.3833333333333,370.8312196310222L595.3833333333333,374.4587209953642L596.5416666666666,379.23361409090063L600.0166666666667,434.0628086721701L600.0166666666667,363.2436942691012L601.175,413.585015209769L601.175,286.92089423043234L603.4916666666667,338.49008444076014L604.65,472.59361574259265L604.65,422.3001185086108L606.9666666666666,319.2131545992727L606.9666666666666,267.10784783455597L608.125,349.3148582022409L608.125,262.90167836371546L609.2833333333334,394.16086565634896L609.2833333333334,431.2619600388051L610.4416666666666,365.2274756629233L611.6,336.2488275069568L611.6,432.3731977489287L612.7583333333333,380.989889851769L616.2333333333333,324.084128119042L616.2333333333333,395.76398684476237L618.55,429.08186871276223L618.55,346.64533625017276L620.8666666666667,511.674138450353L620.8666666666667,519.0345947761209L622.025,266.09686809163725L622.025,181.47976570147677L625.5,443.30383334060775L625.5,164.72727212763095L627.8166666666666,401.4854555455341L630.1333333333333,427.1181243211062L631.2916666666666,238.14846369855184L631.2916666666666,285.59061254290674L632.45,385.831152325079L632.45,438.0415250322104L633.6083333333333,374.16882839475284L634.7666666666667,345.51118190500216L634.7666666666667,386.1827159298832L640.5583333333333,486.5381051957604L640.5583333333333,298.33295741072146L642.875,356.39345852035166L644.0333333333333,440.5385305355733L646.35,350.46451733723893L646.35,453.11829499652424L647.5083333333333,406.0067790418489L648.6666666666666,364.57577751576764L649.825,404.12584607047864L649.825,346.1561934200893L650.9833333333333,410.53780864883004L650.9833333333333,474.25568454011875L652.1416666666667,305.5531445170327L652.1416666666667,353.47891208255857L653.3,377.6211349956898L654.4583333333334,332.49118911523806L655.6166666666667,414.3431001196612L659.0916666666667,394.99560454257943L662.5666666666667,345.57377987632503L662.5666666666667,390.37689413916075L662.5666666666667,331.89011878678775L666.0416666666667,251.17689270178033L666.0416666666667,512.2727470735091L666.0416666666667,429.9653408389462L667.1999999999999,366.2387975681588L668.3583333333333,375.0936191251077L669.5166666666667,428.9135691352684L674.15,414.4364755106249L675.3083333333334,328.8810510081153L675.3083333333334,351.90420928479693L678.7833333333333,357.5959931262567L678.7833333333333,457.3812357612394L681.1,197.3583728768407L683.4166666666666,353.3052600089394L684.575,351.22586473895194L685.7333333333333,267.03872169734433L685.7333333333333,344.06154876043297L688.05,372.31887878113275L688.05,396.57850962483883L689.2083333333334,285.53634945934186L689.2083333333334,311.4649981769964L690.3666666666667,355.19164278963217L691.525,388.0225401318898L691.525,307.6445444809198L692.6833333333334,327.01943309881983L695,346.6814769867415L695,348.6685548106858L697.3166666666667,349.8075956862349L699.6333333333333,452.6534101639297L700.7916666666666,316.31536286287223L703.1083333333333,333.1751488117914L704.2666666666668,399.65357643836126L704.2666666666668,369.5292960462935L705.425,406.6393637148447L705.425,322.40393488048727L705.425,354.16325139367L705.425,403.65779941423125L706.5833333333333,426.39171608357873L708.9,221.9831506897625L711.2166666666667,339.2876841371097L711.2166666666667,378.0507659107218L713.5333333333333,445.77772842497075L714.6916666666666,373.9327147668778L715.85,217.94186656492286L717.0083333333333,456.18665472571524L720.4833333333333,357.25829747579144L721.6416666666667,441.1842008708784L721.6416666666667,368.7995676820925L722.8000000000001,320.5859250897161L722.8000000000001,348.1421943851132L723.9583333333334,249.25421632312424L725.1166666666666,389.266629108495L725.1166666666666,279.95085775527036L725.1166666666666,344.92639508907257L726.275,347.3541349976461L726.275,387.7775332442781L726.275,305.14689693436026L727.4333333333333,366.15504697831534L727.4333333333333,395.1774202146025L729.75,419.10761867062445L730.9083333333334,294.08854766924026L730.9083333333334,273.9963861096395L733.2249999999999,214.00484256511095L734.3833333333333,359.7339299241313L734.3833333333333,364.4960981160992L737.8583333333333,260.9314295468661L740.175,273.48269751059104L741.3333333333334,408.20962576704795L741.3333333333334,337.44478086779543L742.4916666666667,257.48253467360973L743.6500000000001,414.7537036763274L743.6500000000001,452.1351089244277L744.8083333333334,300.068750223577L745.9666666666666,309.2081085615365L747.125,289.8531579457543L748.2833333333333,284.77955919619L748.2833333333333,390.7643866294913L748.2833333333333,419.7222813600568L748.2833333333333,340.988286982514L749.4416666666667,365.09022924045564L750.6,325.7187304961451L750.6,260.7571584294256L751.7583333333334,295.40975207799113L752.9166666666666,234.16994873809946L752.9166666666666,420.90245209199907L752.9166666666666,351.3415116777453L756.3916666666667,340.1698615082745L756.3916666666667,357.14615501535906L756.3916666666667,390.06412161568426L761.025,390.30925996532335L761.025,369.84537616154114L766.8166666666666,421.832030254702L766.8166666666666,451.41197521821715L769.1333333333333,315.5857637064859L769.1333333333333,437.9070152112212L771.45,508.7509942448482L771.45,336.33401277491413L772.6083333333332,447.0194829344332L772.6083333333332,286.7756890949206L773.7666666666667,377.3718454216568L776.0833333333334,402.41147759962143L778.4000000000001,418.78983956431296L779.5583333333333,335.2176903986551L779.5583333333333,330.84446319550017L780.7166666666666,266.98898746117686L786.5083333333333,450.22580134211125L787.6666666666666,371.84916947948363L787.6666666666666,259.95444740388155L787.6666666666666,366.3983150195916L796.9333333333334,383.9385149547125L796.9333333333334,304.1362829795049L798.0916666666667,449.9570104474993L798.0916666666667,360.01286664020074L798.0916666666667,471.1035084329338L799.2499999999999,323.11545657649185L800.4083333333333,208.9346103779427L800.4083333333333,305.3012804446658L801.5666666666666,328.53802329940436L801.5666666666666,355.4725963122328L802.725,434.03802712575936L802.725,352.1402087942834L805.0416666666667,425.97479567019786L805.0416666666667,427.4301362931547L807.3583333333333,286.12532653555974L809.6750000000001,416.3340815598705L809.6750000000001,303.0538883949175L810.8333333333334,396.2252438939403L810.8333333333334,337.25085039698627L814.3083333333333,385.61465444129686L816.625,350.96363813902843L817.7833333333334,329.5779181068635L820.0999999999999,391.6114529316737L820.0999999999999,329.8236316419401L821.2583333333333,316.20611404709587L822.4166666666666,432.7749905575285L823.575,379.59757610688274L827.05,247.62583053611516L828.2083333333334,452.71529962936637L829.3666666666667,307.9532978197054L829.3666666666667,354.66770439626583L830.5250000000001,416.564380043677L830.5250000000001,312.1033462097372L832.8416666666666,424.0772231090277L834,309.6079046801343L834,460.22220325377964L839.7916666666666,413.87976585149113L840.9499999999999,325.1623162048354L842.1083333333333,423.8504033770122L843.2666666666667,405.9754745990441L844.4250000000001,363.4252730994459L844.4250000000001,520.6202338887024L845.5833333333333,301.4666803648905L846.7416666666667,351.0174407518806L850.2166666666667,486.978684438996L850.2166666666667,419.46897381404887L851.3750000000001,330.2204459751486L851.3750000000001,415.15039814696524L854.85,476.753154635262L854.85,339.9596285068435L856.0083333333333,418.2492788458001L857.1666666666667,279.20698512268393L857.1666666666667,505.47050275643863L860.6416666666667,362.0276848049114L862.9583333333334,469.58932553367544L864.1166666666667,451.3531274984871L866.4333333333333,343.50733421076995L867.5916666666666,321.9383987135091L868.75,187.2734902798375L869.9083333333334,505.1153069732749L872.2249999999999,450.4868348436559L873.3833333333333,306.4905069580617L873.3833333333333,305.82460195601976L873.3833333333333,341.3765763266602L873.3833333333333,291.0007418988583L875.7,394.6418877503545L878.0166666666668,387.74236865203443L878.0166666666668,356.7159367747594L882.65,289.14468710423466L883.8083333333334,142.02154457845643L883.8083333333334,244.17815110720582L884.9666666666667,338.7181448087928L886.1249999999999,269.66175045687595L888.4416666666666,424.0370600718152L888.4416666666666,390.10468924894855L891.9166666666667,374.44685971073335L891.9166666666667,334.5004296020788L893.0749999999999,466.21688170936073L896.5500000000001,372.3130278293944L898.8666666666666,293.2111708300099L900.025,371.7067087085355L902.3416666666667,465.2106474807732L903.5,425.429262241216L905.8166666666666,313.86463049175813L905.8166666666666,380.1313314078891L906.9749999999999,396.01556618343864L908.1333333333333,368.2980891498528L909.2916666666666,400.4386143613282L911.6083333333333,400.0358843966837L911.6083333333333,259.53167530063035L911.6083333333333,424.4771731317318L916.2416666666667,463.18406969678233L918.5583333333334,334.5923293485125L918.5583333333334,405.9262890964363L922.0333333333333,476.78058956760043L922.0333333333333,357.4435302235405L924.35,297.8246311665819L924.35,288.2461250770571L925.5083333333334,351.2293105721763L927.8249999999999,311.36809162547496L927.8249999999999,397.62981917596545L931.3000000000001,492.433328677928L931.3000000000001,353.83470414464387L931.3000000000001,457.76284540750356L935.9333333333334,466.2003980907816L938.2500000000001,331.6793740878726L938.2500000000001,329.93694465235427L941.725,476.0804463900696L942.8833333333333,367.8859347700052L944.0416666666667,497.6455212179876L945.2,356.7478634157053L945.2,400.1528732526275L945.2,422.1175944087228L946.3583333333332,349.69252909694086L949.8333333333334,448.0867086803117L950.9916666666667,361.67357772714985L955.625,528.0796981069075L956.7833333333334,386.13776127279016L957.9416666666667,265.296219478979L957.9416666666667,404.6783482682556L957.9416666666667,383.64708480617327L957.9416666666667,293.7078872552447L957.9416666666667,498.3516147599062L960.2583333333333,427.17566434765195L960.2583333333333,358.727469488157L962.575,356.76310897423247L963.7333333333333,411.9166691695295L963.7333333333333,440.2671697282184L964.8916666666668,332.5421132565068L967.2083333333333,325.997603015395L969.525,357.6117666558513L969.525,397.5434573238699L970.6833333333334,309.4047721614629L970.6833333333334,303.9332699573882L970.6833333333334,421.85853054529076L972.9999999999999,417.1373387978521L976.475,367.88675014291175L976.475,484.1996798776408L977.6333333333333,391.24435812927123L977.6333333333333,262.4817324255491L978.7916666666667,326.5173645556507L979.9499999999999,252.6941924185831L981.1083333333333,297.4785029859775L983.4250000000001,295.1654648915436L986.9,312.7155606945576L988.0583333333333,339.32383137980185L988.0583333333333,338.7200306402396L991.5333333333334,361.7648609416626L991.5333333333334,505.8400021482752L992.6916666666666,228.05667833038237L993.8499999999999,349.507520158835L995.0083333333333,278.1893781527681L996.1666666666666,468.45509583352776L997.325,406.72071402595844L997.325,367.86122512478283L999.6416666666667,346.61727114307035L1003.1166666666667,381.3353017282927L1007.75,421.0185257320784L1008.9083333333333,306.1328613995363L1008.9083333333333,476.57239962877816L1013.5416666666666,454.68667743755304L1014.6999999999999,303.88813818509817L1014.6999999999999,473.3956827271147L1015.8583333333333,378.4707792235806L1020.4916666666667,291.48258905621464L1022.8083333333334,277.9747848105592L1022.8083333333334,473.7033401317369L1022.8083333333334,375.57557697655056L1023.9666666666667,363.2045921011736L1023.9666666666667,216.57249470662592L1023.9666666666667,531.9252565463566L1025.125,475.4258819179539L1026.2833333333333,356.5493327844253L1027.4416666666666,456.7537169108644L1027.4416666666666,327.9416013361473L1027.4416666666666,398.3649261234394L1028.6,489.9589608159527L1029.7583333333334,355.4130175821633L1030.9166666666667,376.9223443029703L1032.075,321.55862727502017L1032.075,334.7027852685165L1032.075,452.2914330030382L1039.025,413.5954278251636L1039.025,312.1247333403089L1039.025,392.0168735268268L1041.3416666666667,427.2024158883591L1042.5,178.750777463459L1045.975,183.7285361422277L1045.975,420.47041141167466L1049.45,403.09591751073646L1049.45,267.2239431267379L1049.45,383.1964960551287L1050.6083333333333,281.5667483472393L1052.925,428.3708915720856L1056.4,409.1188466945206L1057.5583333333334,309.96408481657505L1061.0333333333333,438.6364443640934L1063.35,355.63644865123723L1064.5083333333334,330.8810019813545L1065.6666666666667,405.08418203237085L1065.6666666666667,313.1695061972537L1069.1416666666667,342.48656198538947L1070.3,308.7704174556906L1070.3,339.4293905024297L1070.3,493.3736441452064L1072.6166666666666,449.64429002768367L1073.7749999999999,362.047330963895L1074.9333333333334,453.1372569521567L1078.4083333333333,375.83883016101055L1083.0416666666667,374.058616825424L1083.0416666666667,366.159842433964L1084.2,468.16476911953L1085.3583333333333,338.00034292935015L1086.5166666666667,429.49709438798584L1086.5166666666667,453.98869184135947L1087.675,372.3353500473615L1087.675,467.8567294172578L1087.675,458.92524443061666L1088.8333333333333,286.5127447828378L1089.9916666666668,373.7223317021708L1092.3083333333334,283.09118721078676L1094.625,251.91506186707872L1094.625,479.26671248922685L1096.9416666666666,507.4012904394648L1096.9416666666666,377.81769994845666L1099.2583333333334,309.3233297653145L1099.2583333333334,417.7528375654987L1102.7333333333333,449.7543459138762L1103.8916666666667,318.3979829889486L1103.8916666666667,436.75679632928586L1103.8916666666667,468.72081186395053L1107.3666666666666,49.91546113976392L1112,327.1402932720791L1112,400.22091202777256L1112,363.66222256891933L1113.1583333333333,449.1364931847024L1115.475,445.26435674221716L1116.6333333333334,185.2611502393674L1121.2666666666667,320.59178239546895L1122.425,370.27645697522826L1122.425,401.28439550177194L1123.5833333333333,363.0215892878574L1123.5833333333333,403.25782764040775L1123.5833333333333,359.106008246348L1124.7416666666668,234.77443631186142L1125.9,471.82050889108893L1128.2166666666667,311.2380329743336L1129.375,410.5142802363327L1129.375,325.3995539148353L1130.5333333333333,355.9323873300041L1130.5333333333333,483.78783785313414L1130.5333333333333,288.3854767132285L1132.85,423.8986567882136L1136.325,407.6483038191877L1137.4833333333333,365.44383127118203L1137.4833333333333,442.5037806401925L1138.6416666666667,519.3023113886037L1140.9583333333333,293.63700716824883L1143.275,480.09104645329757L1143.275,386.62395630288154L1145.5916666666667,297.9284977838357L1146.75,361.27973125619854L1147.9083333333333,367.56877160508054L1149.0666666666666,448.6245886462283L1153.7,428.85684835918994L1154.8583333333333,352.0077326084454L1156.0166666666667,336.09757070525995L1157.175,361.63092418799647L1158.3333333333335,521.8473232784554L1159.4916666666666,334.6269508133452L1161.8083333333334,417.87573151987107L1161.8083333333334,410.3942602950663L1164.125,277.7383879861403L1167.6,294.9320404681198L1168.7583333333332,359.41106049067395L1168.7583333333332,398.3226206747227L1172.2333333333333,387.6604486453287L1172.2333333333333,226.34999263931115L1174.55,418.1667460926922L1175.7083333333333,371.9360559463489L1175.7083333333333,384.22098352318125L1176.8666666666668,526.8590776432623L1178.025,336.9165660975472L1178.025,447.51751778762235L1180.3416666666667,468.85697225013473L1180.3416666666667,377.17274144920674L1180.3416666666667,368.64899811572855L1181.5,283.55449647366794L1181.5,406.62093582644115L1188.45,428.6163666849945L1189.6083333333333,308.9378884389568L1190.7666666666667,450.7670954188695L1190.7666666666667,464.7531954177395L1190.7666666666667,305.1496260538558L1190.7666666666667,415.3719562787652L1191.925,347.49060087571024L1193.0833333333333,506.4500745557275L1194.2416666666666,375.64009582045196L1194.2416666666666,469.93390749118623L1198.875,408.79922048661996L1198.875,319.41294407706084L1200.0333333333333,329.2629424912157L1201.1916666666666,366.9078974612259L1201.1916666666666,513.8032792532306L1202.35,442.6285046661947L1204.6666666666667,325.8949283784399L1206.9833333333333,529.7739672263334L1210.4583333333333,449.91788694470495L1212.775,192.46761979551596L1215.0916666666667,423.26406470088784L1215.0916666666667,458.38358615379155L1216.25,331.7554220537352L1218.5666666666668,434.22073498388244L1219.725,399.76251822063205L1222.0416666666667,377.97508067658833L1223.2,432.2176311640994L1225.5166666666667,518.8276353514684L1225.5166666666667,213.08505049383382L1226.675,527.0880735505145L1227.8333333333333,249.95627666063893L1228.9916666666666,474.0066681412586L1235.9416666666666,563.2659228133025L1237.1,344.15956786403467L1237.1,316.7674405692048L1237.1,483.41180404406936L1239.4166666666667,437.91693054354874L1239.4166666666667,221.1264239104488L1240.575,237.69926526404686L1244.05,314.16478452517026L1245.2083333333335,344.6491783975669L1245.2083333333335,451.52957311893584L1253.3166666666666,463.8295299411342L1253.3166666666666,272.8527412565043L1254.475,381.3748474317411L1256.7916666666667,422.65097189367634L1256.7916666666667,367.17498445797423L1256.7916666666667,383.59590042626695L1257.95,437.1036878293112L1259.1083333333333,370.9822814004587L1260.2666666666667,363.0919958063834L1263.7416666666668,542.2490035948296L1264.9,473.39971127079224L1266.0583333333334,375.5893180514682L1270.6916666666666,376.89588140831006L1273.0083333333334,369.5026641523555L1274.1666666666665,318.1635075831805L1274.1666666666665,420.2483350905195" style="fill: none;" fill="none"></path></g></g></g></g></g></g><g transform="translate(58, 378)" clip-path="url(#clip_1)"><clipPath id="clip_1"><rect width="1390" height="22"></rect></clipPath><g><g><line x1="0" y1="0" x2="0" y2="5" style="visibility: inherit;" fill="rgb(0, 0, 0)" stroke="rgb(204, 204, 204)" stroke-width="1px"></line><line x1="115.83333333333333" y1="0" x2="115.83333333333333" y2="5" style="visibility: inherit;" fill="rgb(0, 0, 0)" stroke="rgb(204, 204, 204)" stroke-width="1px"></line><line x1="231.66666666666666" y1="0" x2="231.66666666666666" y2="5" style="visibility: inherit;" fill="rgb(0, 0, 0)" stroke="rgb(204, 204, 204)" stroke-width="1px"></line><line x1="347.5" y1="0" x2="347.5" y2="5" style="visibility: inherit;" fill="rgb(0, 0, 0)" stroke="rgb(204, 204, 204)" stroke-width="1px"></line><line x1="463.3333333333333" y1="0" x2="463.3333333333333" y2="5" style="visibility: inherit;" fill="rgb(0, 0, 0)" stroke="rgb(204, 204, 204)" stroke-width="1px"></line><line x1="579.1666666666667" y1="0" x2="579.1666666666667" y2="5" style="visibility: inherit;" fill="rgb(0, 0, 0)" stroke="rgb(204, 204, 204)" stroke-width="1px"></line><line x1="695" y1="0" x2="695" y2="5" style="visibility: inherit;" fill="rgb(0, 0, 0)" stroke="rgb(204, 204, 204)" stroke-width="1px"></line><line x1="810.8333333333334" y1="0" x2="810.8333333333334" y2="5" style="visibility: inherit;" fill="rgb(0, 0, 0)" stroke="rgb(204, 204, 204)" stroke-width="1px"></line><line x1="926.6666666666666" y1="0" x2="926.6666666666666" y2="5" style="visibility: inherit;" fill="rgb(0, 0, 0)" stroke="rgb(204, 204, 204)" stroke-width="1px"></line><line x1="1042.5" y1="0" x2="1042.5" y2="5" style="visibility: inherit;" fill="rgb(0, 0, 0)" stroke="rgb(204, 204, 204)" stroke-width="1px"></line><line x1="1158.3333333333335" y1="0" x2="1158.3333333333335" y2="5" style="visibility: inherit;" fill="rgb(0, 0, 0)" stroke="rgb(204, 204, 204)" stroke-width="1px"></line><line x1="1274.1666666666665" y1="0" x2="1274.1666666666665" y2="5" style="visibility: inherit;" fill="rgb(0, 0, 0)" stroke="rgb(204, 204, 204)" stroke-width="1px"></line><line x1="1390" y1="0" x2="1390" y2="5" style="visibility: inherit;" fill="rgb(0, 0, 0)" stroke="rgb(204, 204, 204)" stroke-width="1px"></line></g><g transform="translate(0, 8)"><text x="0" y="0" dx="0em" dy="0.95em" style="text-anchor: middle; visibility: hidden; font-family: &quot;Helvetica Neue&quot;, sans-serif; font-size: 12px; font-weight: 200;" fill="rgb(50, 49, 63)" stroke="none" stroke-width="1px">-100</text><text x="115.83333333333333" y="0" dx="0em" dy="0.95em" style="text-anchor: middle; visibility: inherit; font-family: &quot;Helvetica Neue&quot;, sans-serif; font-size: 12px; font-weight: 200;" fill="rgb(50, 49, 63)" stroke="none" stroke-width="1px">0</text><text x="231.66666666666666" y="0" dx="0em" dy="0.95em" style="text-anchor: middle; visibility: inherit; font-family: &quot;Helvetica Neue&quot;, sans-serif; font-size: 12px; font-weight: 200;" fill="rgb(50, 49, 63)" stroke="none" stroke-width="1px">100</text><text x="347.5" y="0" dx="0em" dy="0.95em" style="text-anchor: middle; visibility: inherit; font-family: &quot;Helvetica Neue&quot;, sans-serif; font-size: 12px; font-weight: 200;" fill="rgb(50, 49, 63)" stroke="none" stroke-width="1px">200</text><text x="463.3333333333333" y="0" dx="0em" dy="0.95em" style="text-anchor: middle; visibility: inherit; font-family: &quot;Helvetica Neue&quot;, sans-serif; font-size: 12px; font-weight: 200;" fill="rgb(50, 49, 63)" stroke="none" stroke-width="1px">300</text><text x="579.1666666666667" y="0" dx="0em" dy="0.95em" style="text-anchor: middle; visibility: inherit; font-family: &quot;Helvetica Neue&quot;, sans-serif; font-size: 12px; font-weight: 200;" fill="rgb(50, 49, 63)" stroke="none" stroke-width="1px">400</text><text x="695" y="0" dx="0em" dy="0.95em" style="text-anchor: middle; visibility: inherit; font-family: &quot;Helvetica Neue&quot;, sans-serif; font-size: 12px; font-weight: 200;" fill="rgb(50, 49, 63)" stroke="none" stroke-width="1px">500</text><text x="810.8333333333334" y="0" dx="0em" dy="0.95em" style="text-anchor: middle; visibility: inherit; font-family: &quot;Helvetica Neue&quot;, sans-serif; font-size: 12px; font-weight: 200;" fill="rgb(50, 49, 63)" stroke="none" stroke-width="1px">600</text><text x="926.6666666666666" y="0" dx="0em" dy="0.95em" style="text-anchor: middle; visibility: inherit; font-family: &quot;Helvetica Neue&quot;, sans-serif; font-size: 12px; font-weight: 200;" fill="rgb(50, 49, 63)" stroke="none" stroke-width="1px">700</text><text x="1042.5" y="0" dx="0em" dy="0.95em" style="text-anchor: middle; visibility: inherit; font-family: &quot;Helvetica Neue&quot;, sans-serif; font-size: 12px; font-weight: 200;" fill="rgb(50, 49, 63)" stroke="none" stroke-width="1px">800</text><text x="1158.3333333333335" y="0" dx="0em" dy="0.95em" style="text-anchor: middle; visibility: inherit; font-family: &quot;Helvetica Neue&quot;, sans-serif; font-size: 12px; font-weight: 200;" fill="rgb(50, 49, 63)" stroke="none" stroke-width="1px">900</text><text x="1274.1666666666665" y="0" dx="0em" dy="0.95em" style="text-anchor: middle; visibility: inherit; font-family: &quot;Helvetica Neue&quot;, sans-serif; font-size: 12px; font-weight: 200;" fill="rgb(50, 49, 63)" stroke="none" stroke-width="1px">1k</text><text x="1390" y="0" dx="0em" dy="0.95em" style="text-anchor: middle; visibility: hidden; font-family: &quot;Helvetica Neue&quot;, sans-serif; font-size: 12px; font-weight: 200;" fill="rgb(50, 49, 63)" stroke="none" stroke-width="1px">1.1k</text></g><line x1="0" y1="0" x2="1390" y2="0" fill="rgb(0, 0, 0)" stroke="rgb(204, 204, 204)" stroke-width="1px"></line></g></g></g></g></svg>