<svg viewBox="0 0 1448 400" xmlns="http://www.w3.org/2000/svg"><g><g><g><g><g><line x1="70" y1="378" x2="65" y2="378" style="visibility: inherit;" fill="rgb(0, 0, 0)" stroke="rgb(204, 204, 204)" stroke-width="1px"></line><line x1="70" y1="340.2" x2="65" y2="340.2" style="visibility: inherit;" fill="rgb(0, 0, 0)" stroke="rgb(204, 204, 204)" stroke-width="1px"></line><line x1="70" y1="302.4" x2="65" y2="302.4" style="visibility: inherit;" fill="rgb(0, 0, 0)" stroke="rgb(204, 204, 204)" stroke-width="1px"></line><line x1="70" y1="264.6" x2="65" y2="264.6" style="visibility: inherit;" fill="rgb(0, 0, 0)" stroke="rgb(204, 204, 204)" stroke-width="1px"></line><line x1="70" y1="226.79999999999998" x2="65" y2="226.79999999999998" style="visibility: inherit;" fill="rgb(0, 0, 0)" stroke="rgb(204, 204, 204)" stroke-width="1px"></line><line x1="70" y1="188.99999999999997" x2="65" y2="188.99999999999997" style="visibility: inherit;" fill="rgb(0, 0, 0)" stroke="rgb(204, 204, 204)" stroke-width="1px"></line><line x1="70" y1="151.19999999999996" x2="65" y2="151.19999999999996" style="visibility: inherit;" fill="rgb(0, 0, 0)" stroke="rgb(204, 204, 204)" stroke-width="1px"></line><line x1="70" y1="113.40000000000003" x2="65" y2="113.40000000000003" style="visibility: inherit;" fill="rgb(0, 0, 0)" stroke="rgb(204, 204, 204)" stroke-width="1px"></line><line x1="70" y1="75.59999999999997" x2="65" y2="75.59999999999997" style="visibility: inherit;" fill="rgb(0, 0, 0)" stroke="rgb(204, 204, 204)" stroke-width="1px"></line><line x1="70" y1="37.80000000000001" x2="65" y2="37.80000000000001" style="visibility: inherit;" fill="rgb(0, 0, 0)" stroke="rgb(204, 204, 204)" stroke-width="1px"></line><line x1="70" y1="0" x2="65" y2="0" style="visibility: inherit;" fill="rgb(0, 0, 0)" stroke="rgb(204, 204, 204)" stroke-width="1px"></line></g><g transform="translate(60, 0)"><text x="0" y="378" dx="0em" dy="0.3em" style="text-anchor: end; visibility: hidden; font-family: &quot;Helvetica Neue&quot;, sans-serif; font-size: 12px; font-weight: 200;" fill="rgb(50, 49, 63)" stroke="none" stroke-width="1px">-5e-3</text><text x="0" y="340.2" dx="0em" dy="0.3em" style="text-anchor: end; visibility: inherit; font-family: &quot;Helvetica Neue&quot;, sans-serif; font-size: 12px; font-weight: 200;" fill="rgb(50, 49, 63)" stroke="none" stroke-width="1px">0</text><text x="0" y="302.4" dx="0em" dy="0.3em" style="text-anchor: end; visibility: inherit; font-family: &quot;Helvetica Neue&quot;, sans-serif; font-size: 12px; font-weight: 200;" fill="rgb(50, 49, 63)" stroke="none" stroke-width="1px">5e-3</text><text x="0" y="264.6" dx="0em" dy="0.3em" style="text-anchor: end; visibility: inherit; font-family: &quot;Helvetica Neue&quot;, sans-serif; font-size: 12px; font-weight: 200;" fill="rgb(50, 49, 63)" stroke="none" stroke-width="1px">0.01</text><text x="0" y="226.79999999999998" dx="0em" dy="0.3em" style="text-anchor: end; visibility: inherit; font-family: &quot;Helvetica Neue&quot;, sans-serif; font-size: 12px; font-weight: 200;" fill="rgb(50, 49, 63)" stroke="none" stroke-width="1px">0.015</text><text x="0" y="188.99999999999997" dx="0em" dy="0.3em" style="text-anchor: end; visibility: inherit; font-family: &quot;Helvetica Neue&quot;, sans-serif; font-size: 12px; font-weight: 200;" fill="rgb(50, 49, 63)" stroke="none" stroke-width="1px">0.02</text><text x="0" y="151.19999999999996" dx="0em" dy="0.3em" style="text-anchor: end; visibility: inherit; font-family: &quot;Helvetica Neue&quot;, sans-serif; font-size: 12px; font-weight: 200;" fill="rgb(50, 49, 63)" stroke="none" stroke-width="1px">0.025</text><text x="0" y="113.40000000000003" dx="0em" dy="0.3em" style="text-anchor: end; visibility: inherit; font-family: &quot;Helvetica Neue&quot;, sans-serif; font-size: 12px; font-weight: 200;" fill="rgb(50, 49, 63)" stroke="none" stroke-width="1px">0.03</text><text x="0" y="75.59999999999997" dx="0em" dy="0.3em" style="text-anchor: end; visibility: inherit; font-family: &quot;Helvetica Neue&quot;, sans-serif; font-size: 12px; font-weight: 200;" fill="rgb(50, 49, 63)" stroke="none" stroke-width="1px">0.035</text><text x="0" y="37.80000000000001" dx="0em" dy="0.3em" style="text-anchor: end; visibility: inherit; font-family: &quot;Helvetica Neue&quot;, sans-serif; font-size: 12px; font-weight: 200;" fill="rgb(50, 49, 63)" stroke="none" stroke-width="1px">0.04</text><text x="0" y="0" dx="0em" dy="0.3em" style="text-anchor: end; visibility: hidden; font-family: &quot;Helvetica Neue&quot;, sans-serif; font-size: 12px; font-weight: 200;" fill="rgb(50, 49, 63)" stroke="none" stroke-width="1px">0.045</text></g><line x1="70" y1="0" x2="70" y2="378" fill="rgb(0, 0, 0)" stroke="rgb(204, 204, 204)" stroke-width="1px"></line></g></g><g transform="translate(70, 0)" clip-path="url(#clip_0)"><clipPath id="clip_0"><rect width="1378" height="378"></rect></clipPath><g><g><g><line x1="0" y1="0" x2="0" y2="378" fill="rgb(0, 0, 0)" stroke="rgb(60, 60, 60)" stroke-width="1px" opacity="0.25"></line><line x1="114.83333333333333" y1="0" x2="114.83333333333333" y2="378" fill="rgb(0, 0, 0)" stroke="rgb(60, 60, 60)" stroke-width="1px" opacity="0.25"></line><line x1="229.66666666666666" y1="0" x2="229.66666666666666" y2="378" fill="rgb(0, 0, 0)" stroke="rgb(60, 60, 60)" stroke-width="1px" opacity="0.25"></line><line x1="344.5" y1="0" x2="344.5" y2="378" fill="rgb(0, 0, 0)" stroke="rgb(60, 60, 60)" stroke-width="1px" opacity="0.25"></line><line x1="459.3333333333333" y1="0" x2="459.3333333333333" y2="378" fill="rgb(0, 0, 0)" stroke="rgb(60, 60, 60)" stroke-width="1px" opacity="0.25"></line><line x1="574.1666666666667" y1="0" x2="574.1666666666667" y2="378" fill="rgb(0, 0, 0)" stroke="rgb(60, 60, 60)" stroke-width="1px" opacity="0.25"></line><line x1="689" y1="0" x2="689" y2="378" fill="rgb(0, 0, 0)" stroke="rgb(60, 60, 60)" stroke-width="1px" opacity="0.25"></line><line x1="803.8333333333334" y1="0" x2="803.8333333333334" y2="378" fill="rgb(0, 0, 0)" stroke="rgb(60, 60, 60)" stroke-width="1px" opacity="0.25"></line><line x1="918.6666666666666" y1="0" x2="918.6666666666666" y2="378" fill="rgb(0, 0, 0)" stroke="rgb(60, 60, 60)" stroke-width="1px" opacity="0.25"></line><line x1="1033.5" y1="0" x2="1033.5" y2="378" fill="rgb(0, 0, 0)" stroke="rgb(60, 60, 60)" stroke-width="1px" opacity="0.25"></line><line x1="1148.3333333333335" y1="0" x2="1148.3333333333335" y2="378" fill="rgb(0, 0, 0)" stroke="rgb(60, 60, 60)" stroke-width="1px" opacity="0.25"></line><line x1="1263.1666666666665" y1="0" x2="1263.1666666666665" y2="378" fill="rgb(0, 0, 0)" stroke="rgb(60, 60, 60)" stroke-width="1px" opacity="0.25"></line><line x1="1378" y1="0" x2="1378" y2="378" fill="rgb(0, 0, 0)" stroke="rgb(60, 60, 60)" stroke-width="1px" opacity="0.25"></line></g><g><line x1="0" y1="378" x2="1378" y2="378" fill="rgb(0, 0, 0)" stroke="rgb(60, 60, 60)" stroke-width="1px" opacity="0.25"></line><line x1="0" y1="340.2" x2="1378" y2="340.2" fill="rgb(0, 0, 0)" stroke="rgb(60, 60, 60)" stroke-width="1px" opacity="0.25"></line><line x1="0" y1="302.4" x2="1378" y2="302.4" fill="rgb(0, 0, 0)" stroke="rgb(60, 60, 60)" stroke-width="1px" opacity="0.25"></line><line x1="0" y1="264.6" x2="1378" y2="264.6" fill="rgb(0, 0, 0)" stroke="rgb(60, 60, 60)" stroke-width="1px" opacity="0.25"></line><line x1="0" y1="226.79999999999998" x2="1378" y2="226.79999999999998" fill="rgb(0, 0, 0)" stroke="rgb(60, 60, 60)" stroke-width="1px" opacity="0.25"></line><line x1="0" y1="188.99999999999997" x2="1378" y2="188.99999999999997" fill="rgb(0, 0, 0)" stroke="rgb(60, 60, 60)" stroke-width="1px" opacity="0.25"></line><line x1="0" y1="151.19999999999996" x2="1378" y2="151.19999999999996" fill="rgb(0, 0, 0)" stroke="rgb(60, 60, 60)" stroke-width="1px" opacity="0.25"></line><line x1="0" y1="113.40000000000003" x2="1378" y2="113.40000000000003" fill="rgb(0, 0, 0)" stroke="rgb(60, 60, 60)" stroke-width="1px" opacity="0.25"></line><line x1="0" y1="75.59999999999997" x2="1378" y2="75.59999999999997" fill="rgb(0, 0, 0)" stroke="rgb(60, 60, 60)" stroke-width="1px" opacity="0.25"></line><line x1="0" y1="37.80000000000001" x2="1378" y2="37.80000000000001" fill="rgb(0, 0, 0)" stroke="rgb(60, 60, 60)" stroke-width="1px" opacity="0.25"></line><line x1="0" y1="0" x2="1378" y2="0" fill="rgb(0, 0, 0)" stroke="rgb(60, 60, 60)" stroke-width="1px" opacity="0.25"></line></g></g></g><g><g><line x1="0" y1="340.2" x2="1378" y2="340.2" fill="rgb(0, 0, 0)" stroke="rgb(153, 153, 153)" stroke-width="1.5px"></line></g></g><g><g><line x1="114.83333333333333" y1="0" x2="114.83333333333333" y2="378" fill="rgb(0, 0, 0)" stroke="rgb(153, 153, 153)" stroke-width="1.5px"></line></g></g><g><g><g><g><g><path stroke="rgb(255, 112, 67)" stroke-width="2px" d="M137.8,-4.945233335404623L140.09666666666666,1.2561161686238052L140.09666666666666,5.359351079412079L142.39333333333335,11.009477666765179L142.39333333333335,10.406307957165552L142.39333333333335,11.9659812286896L142.39333333333335,15.973393861391742L144.69,20.94935831508087L144.69,21.398437284292697L144.69,27.470405825054115L146.98666666666668,32.92332671593829L146.98666666666668,35.10637836558766L146.98666666666668,40.89062291296949L146.98666666666668,42.61334956449565L149.28333333333333,45.791867560582716L149.28333333333333,46.45836924214262L151.58,49.90852673478332L151.58,49.35008668261685L156.17333333333332,49.85113344148709L156.17333333333332,52.84090405095566L156.17333333333332,56.290647829852276L156.17333333333332,57.09761726506849L158.47,59.456702912524975L158.47,62.06734147436174L158.47,61.46316939407319L160.76666666666668,61.89401227498581L165.35999999999999,64.32930578487992L165.35999999999999,67.24239553467402L169.95333333333335,70.72601942870511L172.25,73.70891038939465L172.25,75.62633894516341L172.25,77.77868513848313L174.54666666666668,79.01713043209429L176.84333333333333,80.89519783579101L179.14000000000001,83.34207834663647L181.43666666666664,85.71819413493932L181.43666666666664,87.78561914066478L181.43666666666664,90.08097359505507L190.62333333333333,92.5450716466878L190.62333333333333,93.7325057925068L190.62333333333333,96.33570622539366L190.62333333333333,98.16382335235102L192.92000000000002,99.97769929758852L192.92000000000002,101.74691465709697L192.92000000000002,103.78327424284743L192.92000000000002,104.51124733771087L195.21666666666667,106.5268338523021L195.21666666666667,107.73909797047708L195.21666666666667,109.144130278381L195.21666666666667,110.62028639746444L195.21666666666667,112.39295432792414L197.51333333333335,113.81915405302266L199.80999999999997,114.94416566287049L199.80999999999997,116.47433765460903L204.40333333333334,117.79540299337867L204.40333333333334,118.94074155275462L204.40333333333334,120.46692668397816L204.40333333333334,121.74761522775674L204.40333333333334,122.62379648780771L206.7,123.0148623251599L206.7,123.84596644769303L206.7,125.21029899259878L206.7,126.72518096999963L208.99666666666667,128.09708323961817L208.99666666666667,129.43675547395443L211.29333333333332,130.67997994727457L213.59,130.4787067782044L213.59,131.51046582386138L215.88666666666668,132.27845927147752L215.88666666666668,132.51411250282575L220.48000000000002,132.08334998293654L222.77666666666664,133.3227281769593L225.07333333333332,134.3422581213535L225.07333333333332,135.3732773706831L225.07333333333332,136.09100524209938L225.07333333333332,137.44292850961415L227.37,138.39571806014158L229.66666666666666,139.1375336079657L229.66666666666666,139.80332419072292L229.66666666666666,140.85943684204202L229.66666666666666,141.39304302705574L231.96333333333334,142.0364595978764L231.96333333333334,142.6284578565533L231.96333333333334,143.14303694129893L234.26000000000002,144.32071165025624L234.26000000000002,144.93678200411833L236.55666666666667,145.2979121619849L238.85333333333335,146.30843769107568L238.85333333333335,147.17401035742566L238.85333333333335,148.0001698747041L238.85333333333335,148.74874265621983L241.14999999999998,148.9189647662857L241.14999999999998,149.75202198357695L241.14999999999998,150.81853774551303L241.14999999999998,151.30663333845635L243.44666666666666,152.2048853286544L243.44666666666666,152.8436277445131L243.44666666666666,153.78112267726203L243.44666666666666,154.49405552602335L243.44666666666666,155.26100785167316L243.44666666666666,155.04183134612595L243.44666666666666,155.61816173711418L245.74333333333334,156.54748049846899L245.74333333333334,156.8970859380415L245.74333333333334,157.6491432997059L250.33666666666667,158.36033722223547L250.33666666666667,158.43844003310846L252.63333333333333,158.83175280124362L254.93,159.41208897676216L254.93,159.87408632947503L254.93,160.13432908958532L254.93,160.80171575821427L257.2266666666667,161.46233600890517L257.2266666666667,162.27533227040138L259.5233333333333,163.06971598209344L261.82,163.8522481678558L261.82,164.4911423548292L261.82,165.20637157525803L264.1166666666667,165.90805673236227L266.41333333333336,166.8200747864912L266.41333333333336,167.5326407412916L268.71000000000004,166.83441004861547L268.71000000000004,167.56478796511428L268.71000000000004,168.18781167192387L268.71000000000004,168.72583402902941L271.00666666666666,169.4026652303751L271.00666666666666,170.1042725881041L275.6,170.07777965746843L275.6,170.7044500214708L280.1933333333333,171.1283443083782L280.1933333333333,171.57058056675012L280.1933333333333,171.6888971899237L282.49,172.06595090335168L282.49,172.55893356171856L282.49,173.2915619426413L282.49,173.86803550996228L282.49,174.2929088400062L284.7866666666667,174.85638890693053L284.7866666666667,175.34251139375493L287.08333333333337,175.70566013180093L287.08333333333337,176.23690872334643L287.08333333333337,176.70601287891998L289.38,177.2564514802918L291.6766666666667,177.74344341863366L293.97333333333336,178.12523448415013L296.27,178.5401631427917L296.27,178.9989492379313L296.27,179.02322982053315L300.86333333333334,179.52662229240758L300.86333333333334,179.81339840034485L305.4566666666667,180.23554024374545L307.75333333333333,180.70912328388405L307.75333333333333,181.29911687943812L307.75333333333333,181.67552851548137L307.75333333333333,182.2267782537649L310.05,182.70782975432115L312.34666666666664,183.21656434096016L314.6433333333333,183.51911487464014L314.6433333333333,183.69306723167585L314.6433333333333,183.9158197820666L316.94,184.30351148231995L316.94,184.60260772895117L316.94,185.0453755479873L319.2366666666667,185.5071018955836L319.2366666666667,185.5922728682166L321.53333333333336,186.01821138743958L323.83,186.32541055232687L326.12666666666667,186.53175268033726L326.12666666666667,186.86180664697187L328.42333333333335,186.93451047401786L328.42333333333335,187.03810322632916L328.42333333333335,187.48654539707906L330.71999999999997,187.4593199665487L330.71999999999997,187.82610336197223L330.71999999999997,188.40239772946123L333.01666666666665,188.7931255534811L337.61,189.2204432010777L337.61,189.55236762210941L337.61,190.0035713386925L339.9066666666667,189.10853139560712L339.9066666666667,189.42377522168863L339.9066666666667,189.3758826932787L339.9066666666667,189.7230985793466L342.2033333333333,189.9800226996048L342.2033333333333,189.70171969576367L342.2033333333333,190.0695257047546L344.5,190.19923488472702L346.7966666666666,190.42173626351044L346.7966666666666,190.7959310050203L349.09333333333336,190.9143292575432L351.39,191.0174909513315L355.98333333333335,191.12908361971307L355.98333333333335,191.35616098826804L355.98333333333335,191.59481960160056L358.28000000000003,191.95549579873503L360.57666666666665,192.3288591358962L362.8733333333333,192.71137286491992L362.8733333333333,193.00355032676512L362.8733333333333,193.3851747007821L367.46666666666664,193.64053854840262L367.46666666666664,193.6871741311069L367.46666666666664,193.9954086647275L369.7633333333333,194.31148283325626L372.06,194.30535164563184L374.3566666666667,194.49598791224372L374.3566666666667,194.88416669073752L376.6533333333333,195.08169141255325L376.6533333333333,195.14978403689395L376.6533333333333,195.45546353393405L378.95000000000005,195.67243607511259L378.95000000000005,195.96859072296832L381.24666666666667,196.33464447340853L381.24666666666667,196.65124288154885L381.24666666666667,196.959045003209L383.5433333333333,197.23058396678027L385.84000000000003,197.50317395225477L385.84000000000003,197.7280029806204L385.84000000000003,198.0013912485929L385.84000000000003,198.26559159138992L388.13666666666666,198.57648060943868L388.13666666666666,198.87912722617835L388.13666666666666,199.15838086582463L388.13666666666666,199.36694210702382L388.13666666666666,199.55766135879261L390.43333333333334,199.84107847756079L390.43333333333334,200.0548479736044L390.43333333333334,200.3125718178983L395.0266666666667,200.62613475536406L395.0266666666667,200.9215275755151L399.61999999999995,201.05612269497098L401.9166666666667,201.3239310119957L404.2133333333333,201.54871022013103L404.2133333333333,201.5775617584263L404.2133333333333,201.49520369773276L404.2133333333333,201.7422990026826L406.51,202.09666466091613L406.51,202.32999447015075L406.51,202.66523655055056L408.8066666666667,202.88011265485542L411.10333333333335,203.09151654965288L413.4,203.35446556329248L413.4,203.61204869572714L413.4,203.8185710146701L413.4,204.13051061307246L413.4,204.40729567323368L413.4,204.52687274416857L415.6966666666667,204.54278713745094L417.99333333333334,204.4083356458285L417.99333333333334,204.59631357419167L417.99333333333334,204.77426564115754L417.99333333333334,204.95985257738968L417.99333333333334,205.22325201006456L420.28999999999996,205.45664132322116L420.28999999999996,205.62919458478885L420.28999999999996,205.84324119565156L420.28999999999996,206.0083862674289L420.28999999999996,206.13029973853253L422.58666666666664,206.2182418834971L427.18,206.4057197148604L427.18,206.60270864498244L427.18,206.7599509772458L429.47666666666663,206.82799906925877L434.07,206.96020293539746L434.07,207.01513836148627L436.3666666666667,207.23073758139762L438.66333333333336,207.3520029067165L438.66333333333336,207.56595321344784L438.66333333333336,207.6962297608164L440.96000000000004,207.9009100657294L443.25666666666666,208.0869722030928L443.25666666666666,208.28208893492666L443.25666666666666,208.34618694094567L445.5533333333333,208.34660507409797L445.5533333333333,208.4870217973434L447.85,208.76036699787335L450.14666666666665,208.9029854152146L450.14666666666665,209.03364311694284L452.4433333333333,209.1288031450486L452.4433333333333,209.3251672388935L454.74,209.5724386999816L454.74,209.84065511134213L454.74,209.90095428531944L459.3333333333333,210.07932911765278L461.63000000000005,210.08652957087497L461.63000000000005,210.27416525816383L463.9266666666667,210.47930620192056L466.2233333333333,210.79014401735694L466.2233333333333,210.73095290627302L466.2233333333333,210.9765664232699L466.2233333333333,211.15665420633056L468.52000000000004,211.30598408813293L468.52000000000004,211.45935966675137L470.81666666666666,211.55834206769381L473.11333333333334,211.66790977642972L473.11333333333334,211.85822674050485L475.40999999999997,212.00302900080797L475.40999999999997,212.18004592598476L475.40999999999997,212.30567628563156L477.7066666666667,212.39568503300245L480.00333333333333,212.59849693922797L480.00333333333333,212.79412428648362L482.29999999999995,213.04289595703648L484.5966666666667,213.0611328481056L484.5966666666667,213.16766863083737L486.8933333333333,213.31938845674864L486.8933333333333,213.44659625019793L489.19,213.54551687592308L491.4866666666667,213.7066346492453L491.4866666666667,213.724082189254L491.4866666666667,213.87259483166292L493.78333333333336,213.95797030421775L496.08,214.1227551111716L496.08,214.27263922688783L496.08,214.41970959061513L496.08,214.46752296878216L496.08,214.49784889839358L498.3766666666667,214.58616652792583L498.3766666666667,214.76722250522565L500.67333333333335,214.86261726352348L500.67333333333335,215.15143650261706L502.96999999999997,215.26804189167368L502.96999999999997,215.46897108889598L502.96999999999997,215.5438022859711L502.96999999999997,215.60762385460467L502.96999999999997,215.72691422878478L502.96999999999997,215.65984474483258L505.26666666666665,215.7757045515687L505.26666666666665,215.99629407558623L507.56333333333333,216.1762787330837L507.56333333333333,216.28571694980306L509.86,216.45591242550555L509.86,216.63247363627926L512.1566666666666,216.7975602013383L512.1566666666666,217.01371684719211L512.1566666666666,217.19502497467383L514.4533333333334,217.38727879869032L514.4533333333334,217.5515540667189L514.4533333333334,217.58976015963196L516.75,217.79495420524157L516.75,217.90925727138475L516.75,217.87505646275187L516.75,217.98843153478504L516.75,218.07698612301797L521.3433333333334,218.07361212312222L525.9366666666666,218.16425037369373L528.2333333333333,218.26139700583522L528.2333333333333,218.47391274640154L528.2333333333333,218.54172433013994L530.53,218.55900667074093L530.53,218.65204374986277L532.8266666666667,218.76845909240254L532.8266666666667,218.91521493220765L532.8266666666667,219.02778796772523L535.1233333333333,219.02128098365066L535.1233333333333,219.1658384303836L537.4200000000001,219.2304065330782L537.4200000000001,219.34487959690748L539.7166666666667,219.48578894922395L539.7166666666667,219.53493545295646L542.0133333333333,219.71053527637937L542.0133333333333,219.79335023474297L544.3100000000001,219.95550167846378L544.3100000000001,220.09831591116296L544.3100000000001,220.1383953012503L546.6066666666667,220.28145502082415L546.6066666666667,220.26617192029562L548.9033333333333,220.25890102804323L551.2,220.2576405288494L551.2,220.2744524011363L551.2,220.41718199659292L553.4966666666667,220.54240505705133L555.7933333333333,220.6150412012577L555.7933333333333,220.8245288865189L555.7933333333333,220.88348753587638L555.7933333333333,221.05426151652537L558.09,221.19061364233733L558.09,221.32322371973885L560.3866666666667,221.48037613896926L560.3866666666667,221.50010603230282L560.3866666666667,221.63460958952854L562.6833333333333,221.7060731569453L564.98,221.85864101822676L564.98,221.8831583674664L567.2766666666666,221.85693268487665L571.87,221.98726342669684L571.87,222.05734384658575L571.87,222.2583605413067L571.87,222.39054812478352L574.1666666666667,222.48170325751985L574.1666666666667,222.61194647328952L576.4633333333334,222.68202804140873L578.76,222.75134347226333L578.76,222.82948507604613L578.76,222.98258023171388L581.0566666666667,223.10019953677372L581.0566666666667,223.14843042503222L583.3533333333334,223.2102092012038L585.65,223.25461956213204L585.65,223.43971577620775L585.65,223.5234463183841L587.9466666666667,223.6406713693434L594.8366666666666,223.78738358723234L597.1333333333333,223.87501975645094L597.1333333333333,223.79624563087063L597.1333333333333,223.83775142533563L599.43,223.8487747774323L599.43,223.89944057384534L599.43,223.80727018716055L601.7266666666667,223.82021506244L601.7266666666667,223.75944619418442L604.0233333333333,223.66953124014492L604.0233333333333,223.75555465013477L604.0233333333333,223.87090097668116L604.0233333333333,223.93976306499476L606.32,224.08045433121245L608.6166666666667,224.21071890563937L610.9133333333334,224.20422326333207L610.9133333333334,224.2591633750978L613.21,224.3469562114417L615.5066666666667,224.29438271800436L615.5066666666667,224.28532521294338L617.8033333333333,224.31188745577296L620.1,224.39923895162593L620.1,224.54951497567933L622.3966666666666,224.65565964902524L622.3966666666666,224.73367600662976L622.3966666666666,224.8363543430815L624.6933333333333,224.91468906172574L624.6933333333333,225.00683531668943L626.99,225.03605056856512L626.99,225.068841158763L629.2866666666666,225.07357141444731L629.2866666666666,225.12642369014839L631.5833333333333,225.20251814464532L631.5833333333333,225.29611515221745L631.5833333333333,225.4955061345281L631.5833333333333,225.6166210752538L633.88,225.77982608365423L633.88,225.8438134642198L636.1766666666666,225.83939899988357L638.4733333333334,225.7576819172577L640.77,225.9143251803335L640.77,225.9627799479513L640.77,225.9654239310544L643.0666666666667,226.0594593391089L643.0666666666667,226.12632569032513L643.0666666666667,226.24153036287018L643.0666666666667,226.2920804326566L643.0666666666667,226.13302531509183L643.0666666666667,226.22157005855595L645.3633333333333,226.1177362276163L647.66,226.22704773667635L647.66,226.19330796416384L649.9566666666667,226.19556899077764L649.9566666666667,226.0781874650352L652.2533333333333,226.16608756127565L652.2533333333333,226.2625009444697L654.55,226.32243280546885L654.55,226.22046692652782L654.55,226.24832228681353L654.55,226.2482699678862L656.8466666666667,226.25403507930326L656.8466666666667,226.3731970844837L659.1433333333333,226.46760990955156L659.1433333333333,226.46587179576434L659.1433333333333,226.3981940546883L663.7366666666667,226.47462123288807L666.0333333333333,226.522185605968L666.0333333333333,226.47517217131022L668.3299999999999,226.47441393962924L670.6266666666667,226.61141229448106L672.9233333333333,226.64278623166396L675.22,226.61098148864227L675.22,226.66541622272075L675.22,226.77180849241864L675.22,226.78707971358213L675.22,226.78969920169556L675.22,226.86549293581305L677.5166666666667,226.89133906110527L679.8133333333334,227.04787456811766L679.8133333333334,227.11975490966785L679.8133333333334,227.27055147188085L684.4066666666666,227.12868876686423L684.4066666666666,227.18588945717565L684.4066666666666,227.2606071683105L684.4066666666666,227.3225453379789L684.4066666666666,227.32893486787913L684.4066666666666,227.3798489532525L684.4066666666666,227.46159639730848L684.4066666666666,227.50123269411137L686.7033333333334,227.56694621388257L686.7033333333334,227.58413701195138L691.2966666666667,227.52526753113892L691.2966666666667,227.61198718568218L693.5933333333332,227.76227530254016L693.5933333333332,227.8753510208631L693.5933333333332,227.912424095484L698.1866666666667,228.0047485716085L700.4833333333333,228.0303141984264L702.78,228.05536277750966L702.78,228.13300188324993L702.78,228.15675206818955L705.0766666666667,228.10796878286192L705.0766666666667,228.12899012891398L707.3733333333333,228.01185139833336L707.3733333333333,227.69626738737128L707.3733333333333,227.71891998428686L707.3733333333333,227.66518417754045L707.3733333333333,227.55430788028704L709.6700000000001,227.5685896410492L709.6700000000001,227.4840581324803L709.6700000000001,227.53619792018304L709.6700000000001,227.39127754542582L714.2633333333333,227.4018041499016L716.5600000000001,227.44246982941425L716.5600000000001,227.43708651840407L716.5600000000001,227.46627068550134L718.8566666666666,227.33154894094886L718.8566666666666,227.35768919587957L718.8566666666666,227.38406758467386L721.1533333333333,227.43395767790713L721.1533333333333,227.53828454264496L723.45,227.62662044666018L723.45,227.61339497404398L723.45,227.50686349764354L725.7466666666666,227.02011776244825L725.7466666666666,227.09451105031775L725.7466666666666,226.9571730075959L725.7466666666666,227.02493599116656L725.7466666666666,226.73422473565589L728.0433333333333,226.7462713146433L728.0433333333333,226.8373538014692L730.34,226.77180261792932L732.6366666666667,226.82653322421785L734.9333333333333,226.7231572454985L737.23,226.69705604323522L739.5266666666666,226.5902929302614L739.5266666666666,226.51558193283788L739.5266666666666,226.36822490552473L741.8233333333334,226.1313831470792L741.8233333333334,226.04427849309423L741.8233333333334,225.98914822261554L741.8233333333334,226.05396459155432L744.12,225.96358914404817L744.12,226.01104801477973L746.4166666666666,226.05978450276353L746.4166666666666,226.05254543270067L746.4166666666666,226.09370889768724L746.4166666666666,226.14335619414572L748.7133333333334,226.19526402270492L748.7133333333334,226.09538287090342L751.0100000000001,225.94422215951437L751.0100000000001,225.94799143765002L751.0100000000001,225.9746773268154L753.3066666666666,225.74525056067947L753.3066666666666,225.65815685223978L755.6033333333334,225.66137443169592L755.6033333333334,225.68199563115203L755.6033333333334,225.64095175774398L757.9000000000001,225.68836474073058L760.1966666666666,225.63955050870632L762.4933333333333,225.62770148760814L762.4933333333333,225.6494097430172L762.4933333333333,225.5246216229855L764.7900000000001,225.36308006415496L764.7900000000001,225.25345759281686L767.0866666666666,225.25387378034617L767.0866666666666,225.24082267301725L767.0866666666666,225.17566045842608L769.3833333333333,225.14401356237178L769.3833333333333,224.9811000275758L769.3833333333333,225.01379300236638L771.6800000000001,224.98460394433098L773.9766666666667,224.99829475732398L776.2733333333333,225.0525710877083L776.2733333333333,224.8492265447656L778.5699999999999,224.8635909458782L778.5699999999999,224.6808564880193L780.8666666666667,224.3579180527709L783.1633333333334,224.42313799425122L785.4599999999999,224.3224574032111L785.4599999999999,224.25332775685976L787.7566666666667,224.1699961497858L787.7566666666667,224.2332539785039L787.7566666666667,224.2443446837686L790.0533333333334,224.21634608167753L794.6466666666666,224.18098556697217L794.6466666666666,224.0808890677541L796.9433333333334,224.1135576561877L796.9433333333334,223.97250299212848L796.9433333333334,223.82405780650677L796.9433333333334,223.85295093180093L799.2399999999999,223.9167189530914L799.2399999999999,223.90861152694097L801.5366666666666,223.89910418045207L803.8333333333334,223.92090363271905L803.8333333333334,223.86059408118L803.8333333333334,223.80559205942782L803.8333333333334,223.73572751404322L803.8333333333334,223.61213962305922L806.13,223.58525829137776L806.13,223.57308071226709L806.13,223.56209465468856L806.13,223.2673599728624L806.13,223.17942871120295L808.4266666666666,223.22477222633074L810.7233333333334,223.220795215241L813.02,223.2762550448962L815.3166666666667,223.35509118836615L815.3166666666667,223.3620402165005L817.6133333333333,223.35497314171639L817.6133333333333,223.30037600074175L817.6133333333333,223.3541266216432L819.91,223.22003968882373L819.91,223.271512455193L819.91,223.24642690487403L819.91,223.17839812358233L819.91,223.07745614649002L819.91,223.01688957206377L822.2066666666667,222.96942020538737L822.2066666666667,222.9076152994979L824.5033333333334,222.79088442601082L824.5033333333334,222.8789015221426L829.0966666666667,222.87379417916162L829.0966666666667,222.90126805266533L829.0966666666667,222.75927020205089L829.0966666666667,222.79939827634558L831.3933333333334,222.7690637577586L831.3933333333334,222.7890757850907L833.6899999999999,222.80085313608114L833.6899999999999,222.87342207766963L840.5799999999999,222.96761077102622L842.8766666666667,222.96283226434133L845.1733333333333,222.91965229796222L849.7666666666667,222.8937709941931L852.0633333333333,222.9558658195673L852.0633333333333,222.9289803550654L852.0633333333333,222.82748156073893L856.6566666666668,222.85365268286495L856.6566666666668,222.94939128588248L856.6566666666668,222.98184492090658L856.6566666666668,222.97385858657037L858.9533333333333,222.94661360255486L861.25,222.91732113727087L863.5466666666667,222.88048181489373L863.5466666666667,222.88393375443184L863.5466666666667,222.84197827334333L865.8433333333332,222.9296112985144L865.8433333333332,222.90925143999485L868.14,222.91398841035434L868.14,222.96516541839418L870.4366666666667,222.97036212932048L870.4366666666667,222.96936436687744L875.03,223.01838247175914L875.03,223.0517901935018L877.3266666666667,223.09371427907135L877.3266666666667,222.88331778730202L877.3266666666667,222.87729043678928L879.6233333333333,222.905567654183L879.6233333333333,222.86946130342324L881.9200000000001,222.85474642323283L884.2166666666667,222.7962963540193L886.5133333333333,222.73745029581772L886.5133333333333,222.7776548233785L888.8100000000001,222.6978613532491L891.1066666666666,222.62447133767094L895.7,222.65396269950975L897.9966666666666,222.66583128959147L897.9966666666666,222.61100305249172L900.2933333333333,222.65723349657367L900.2933333333333,222.6704255902044L900.2933333333333,222.63562869413371L902.59,222.5891590419491L902.59,222.4662651888946L902.59,222.50998359547341L904.8866666666667,222.55031546551902L907.1833333333333,222.52931198030802L907.1833333333333,222.49200229615133L907.1833333333333,222.44740404865038L907.1833333333333,222.46380018572424L909.48,222.48330510019383L911.7766666666666,222.60326451047828L914.0733333333334,222.4819960433739L918.6666666666666,222.52495296837313L918.6666666666666,222.37807745752352L920.9633333333334,222.37065097659152L920.9633333333334,222.4094027217306L923.2600000000001,222.40774104023978L923.2600000000001,222.4715436852253L923.2600000000001,222.46239486485314L925.5566666666666,222.5296056946478L927.8533333333334,222.4374633872419L930.1500000000001,222.36685836210475L930.1500000000001,222.37251794551844L930.1500000000001,222.38862667019666L934.7433333333333,222.33393029573514L934.7433333333333,222.36956176454376L934.7433333333333,222.4090409920432L937.0400000000001,222.50261489203655L937.0400000000001,222.42155993280625L937.0400000000001,222.36495765742933L939.3366666666666,222.21046037284853L941.6333333333333,222.28352123980636L941.6333333333333,222.27063470433734L943.9300000000001,222.36814646309574L943.9300000000001,222.38602320119907L946.2266666666667,222.2806483176473L946.2266666666667,222.3038075043651L948.5233333333333,222.31691117153477L948.5233333333333,222.2693666656932L950.8199999999999,222.26796733671824L953.1166666666667,222.297485864305L957.7099999999999,222.3497264448666L962.3033333333334,222.42653135588984L964.5999999999999,222.5230967634448L966.8966666666666,222.56599616051676L969.1933333333334,222.5392074254108L969.1933333333334,222.41530876927746L969.1933333333334,222.39773641854654L971.4899999999999,222.4724761810152L971.4899999999999,222.5197617070754L973.7866666666666,222.48922227191136L973.7866666666666,222.36985613474616L973.7866666666666,222.38329123919334L976.0833333333334,222.2256602399404L976.0833333333334,222.26693938888667L976.0833333333334,222.2762098706388L978.38,222.36742325548727L978.38,222.360023833849L978.38,222.32499600304223L980.6766666666666,222.4084790279073L980.6766666666666,222.37786287128512L980.6766666666666,222.37568162980733L980.6766666666666,222.44972310187075L982.9733333333334,222.50300589004482L982.9733333333334,222.52507358648603L985.27,222.5715824346567L989.8633333333333,222.60530249670117L989.8633333333333,222.59236994292206L989.8633333333333,222.5364480540491L992.16,222.6322762507932L994.4566666666667,222.6666036093536L994.4566666666667,222.57298477542398L994.4566666666667,222.5093333853666L996.7533333333334,222.48273521615928L996.7533333333334,222.53243325398412L996.7533333333334,222.56940943172307L996.7533333333334,222.63907344868034L996.7533333333334,222.638222152775L996.7533333333334,222.7199862154782L999.05,222.4831571380425L999.05,222.4718506631546L1001.3466666666667,222.5130757530939L1001.3466666666667,222.4798292782605L1001.3466666666667,222.48455859634942L1001.3466666666667,222.55130498232387L1005.9399999999999,222.60797665714594L1005.9399999999999,222.53436588104375L1008.2366666666667,222.53876026996988L1008.2366666666667,222.57186214115674L1010.5333333333333,222.64761978236209L1010.5333333333333,222.67384585006272L1012.8299999999999,222.6833589140132L1012.8299999999999,222.674175427756L1015.1266666666667,222.70135116369985L1015.1266666666667,222.72699321331203L1017.4233333333333,222.70897418528597L1017.4233333333333,222.6870568074504L1019.72,222.74260604634705L1022.0166666666667,222.80032694259265L1024.3133333333333,222.85633682852816L1024.3133333333333,222.7729305948963L1026.61,222.75226536872484L1026.61,222.79206801532771L1028.9066666666668,222.77177841377002L1028.9066666666668,222.7402382790206L1033.5,222.7654816555907L1033.5,222.8306884848464L1038.0933333333332,222.87779955984715L1038.0933333333332,222.88067936576428L1040.39,222.9243910294924L1042.6866666666667,222.94860983266386L1042.6866666666667,222.9486714180806L1044.9833333333333,222.89988072183056L1044.9833333333333,222.85556418959712L1047.28,222.85981785010532L1047.28,222.9484221190696L1049.5766666666668,223.01044731600274L1049.5766666666668,222.96066126778462L1051.8733333333332,222.99938541058734L1051.8733333333332,223.04262069189016L1051.8733333333332,223.0331333185478L1054.17,223.03700801624208L1054.17,223.11247564592267L1056.4666666666667,223.08581758427735L1056.4666666666667,223.09316158633902L1056.4666666666667,223.12825982158927L1058.7633333333333,223.23560463977878L1061.06,223.25137173338655L1061.06,223.27685343808474L1061.06,223.2570112300435L1061.06,223.15164945636388L1063.3566666666666,223.2314120827961L1063.3566666666666,223.29739593522862L1063.3566666666666,223.25768326876937L1065.6533333333334,223.31092680324332L1065.6533333333334,223.3255059166986L1067.95,223.25962644487862L1067.95,223.2612446146002L1067.95,223.31421675135232L1070.2466666666667,223.39606107990625L1070.2466666666667,223.34121716348315L1072.5433333333333,223.23160542771544L1074.8400000000001,223.04958447245022L1074.8400000000001,223.11886130720305L1074.8400000000001,223.15652406259196L1077.1366666666665,223.20350277503718L1077.1366666666665,223.28972675458706L1077.1366666666665,223.33237263862995L1079.4333333333334,223.34659321767717L1081.73,223.3791037817238L1081.73,223.41908492495241L1084.0266666666666,223.49880915474722L1088.6200000000001,223.55863086898287L1088.6200000000001,223.61352966783048L1088.6200000000001,223.5715313852432L1088.6200000000001,223.53195322221572L1088.6200000000001,223.59855138152454L1090.9166666666665,223.61750545328096L1090.9166666666665,223.6651124228557L1090.9166666666665,223.71711068191976L1093.2133333333334,223.7240495045167L1095.51,223.72431003369255L1095.51,223.76751803537363L1095.51,223.82452227656157L1095.51,223.79434985024648L1097.8066666666666,223.7904455985347L1097.8066666666666,223.72027081383962L1104.6966666666667,223.68124059299703L1104.6966666666667,223.65880287511217L1104.6966666666667,223.6392135350581L1104.6966666666667,223.5212603151846L1104.6966666666667,223.5353207566674L1104.6966666666667,223.5435852889536L1106.9933333333333,223.44620367843194L1109.29,223.4437751949724L1111.5866666666666,223.45710232329344L1113.8833333333334,223.46604568694363L1113.8833333333334,223.50036958892773L1113.8833333333334,223.5393030668336L1113.8833333333334,223.61178741372646L1116.18,223.63314903854413L1116.18,223.64152967496224L1118.4766666666667,223.63886409236818L1118.4766666666667,223.6152075631317L1118.4766666666667,223.65793948740514L1118.4766666666667,223.6901625027516L1120.7733333333333,223.66443187758838L1120.7733333333333,223.7234796683391L1120.7733333333333,223.6721896365404L1120.7733333333333,223.60015680788604L1120.7733333333333,223.60647068692788L1123.07,223.6060945175554L1123.07,223.61323346090663L1125.3666666666666,223.65796306327888L1125.3666666666666,223.69950149622903L1125.3666666666666,223.6037914363924L1125.3666666666666,223.68874879658114L1127.6633333333334,223.72685579437245L1127.6633333333334,223.75682628563123L1129.96,223.77098205037677L1129.96,223.8373518997223L1129.96,223.85791489418025L1132.2566666666667,223.9455910479626L1132.2566666666667,223.9832448957549L1134.5533333333333,224.01271646206087L1134.5533333333333,224.08993333388304L1136.85,224.13277404635468L1136.85,224.08479952162858L1136.85,224.12327895810418L1136.85,224.1162722112425L1139.1466666666668,224.0872901898096L1141.4433333333334,224.03489553315822L1141.4433333333334,224.09247282129616L1143.74,224.12426687389285L1143.74,224.1669112561292L1146.0366666666666,224.19428585789052L1146.0366666666666,224.20182354560487L1150.6299999999999,224.2591171702938L1150.6299999999999,224.2100563602671L1152.9266666666667,224.24625730140536L1152.9266666666667,224.25897583351346L1152.9266666666667,224.15646425978431L1155.2233333333334,224.15981283919922L1157.52,224.12645844291433L1159.8166666666666,224.16205141301808L1162.1133333333335,224.14871089489552L1162.1133333333335,224.06011992930164L1164.4099999999999,224.10968489498723L1164.4099999999999,224.15126965853918L1166.7066666666667,224.23223743911382L1166.7066666666667,224.27819557808135L1169.0033333333333,224.27487254757824L1169.0033333333333,224.37314000971347L1169.0033333333333,224.37120469413514L1169.0033333333333,224.45850915118885L1171.3,224.49632997650937L1173.5966666666666,224.55446182218637L1173.5966666666666,224.60649130756192L1175.8933333333334,224.6192868751145L1175.8933333333334,224.670442018413L1175.8933333333334,224.69118490786556L1178.19,224.55651905583707L1180.4866666666667,224.51439877115428L1182.7833333333333,224.48417622661566L1185.08,224.45133585962554L1187.3766666666668,224.4124286620371L1187.3766666666668,224.47926189023326L1187.3766666666668,224.50942271520412L1189.6733333333332,224.5731761050289L1191.97,224.63585868111824L1191.97,224.60476084125472L1194.2666666666667,224.58630612990208L1194.2666666666667,224.62170142589258L1194.2666666666667,224.6221011490756L1196.5633333333333,224.71461208128926L1196.5633333333333,224.79020186837653L1196.5633333333333,224.861253883201L1198.86,224.85466873813417L1203.4533333333334,224.85022819233126L1203.4533333333334,224.88150511880872L1203.4533333333334,224.91362275163243L1203.4533333333334,224.94393974012402L1205.75,224.93429015421685L1205.75,224.9776632842524L1208.0466666666666,225.0360411862358L1208.0466666666666,225.01474683635485L1208.0466666666666,225.0380037512554L1210.3433333333332,225.05396861994532L1210.3433333333332,225.06147633343016L1217.2333333333333,225.09918156461228L1217.2333333333333,225.1500232764597L1219.53,225.15679322998832L1219.53,225.14077341769655L1221.8266666666668,225.1568672931025L1221.8266666666668,225.09311411637412L1224.1233333333332,225.10945349821938L1228.7166666666667,225.17273257329563L1228.7166666666667,225.11221791978966L1233.31,225.1521851004707L1233.31,225.1392840806583L1235.6066666666666,225.19681848505758L1235.6066666666666,225.25510438261418L1235.6066666666666,225.28604705051256L1240.2,225.30881855210401L1240.2,225.3604230525451L1240.2,225.24621383523933L1242.4966666666667,225.29629272207794L1242.4966666666667,225.34902632831324L1242.4966666666667,225.35959566363465L1244.7933333333333,225.35761177370398L1247.0900000000001,225.39588007584047L1249.3866666666665,225.38279745096625L1249.3866666666665,225.3634852949437L1249.3866666666665,225.37946392299247L1249.3866666666665,225.4366294754159L1249.3866666666665,225.44906373258854L1251.6833333333334,225.45222046733278L1251.6833333333334,225.50289036099176L1251.6833333333334,225.50303488431308L1253.98,225.50809572429503L1253.98,225.56701606044672L1256.2766666666666,225.50773178540726L1260.8700000000001,225.49535176011634L1260.8700000000001,225.495552333699L1263.1666666666665,225.5441562644631L1263.1666666666665,225.54068476293776" style="fill: none;" fill="none"></path></g></g></g></g><g opacity="0.2"><g><g><g><path stroke="rgb(255, 112, 67)" stroke-width="2px" d="M119.42666666666668,-134.58617548942573L121.72333333333333,7.654235851764668L121.72333333333333,103.29641674160956L121.72333333333333,-54.99315719604493L121.72333333333333,20.08834261894225L124.02,72.24838156700133L124.02,169.0845974206924L124.02,24.298486751317967L126.31666666666666,-226.76887403726585L128.61333333333334,130.0766999691725L128.61333333333334,101.45079810619353L133.20666666666668,162.78322343230244L133.20666666666668,90.79663340449332L135.50333333333333,75.70972267985343L135.50333333333333,141.70928221642973L135.50333333333333,24.106075805425633L137.8,141.16078991889955L137.8,128.77761628925802L137.8,48.08897931575774L140.09666666666666,148.24228439927097L140.09666666666666,106.61727983951567L142.39333333333335,155.946002420783L142.39333333333335,-5.6532397449016685L142.39333333333335,55.00926766991614L142.39333333333335,130.4612965553999L144.69,167.936679688096L144.69,35.09935353398322L144.69,218.60028136968612L146.98666666666668,209.84300639927386L146.98666666666668,108.04539319574832L146.98666666666668,239.73606896102427L146.98666666666668,103.49744562506675L149.28333333333333,161.18911620676514L149.28333333333333,71.29759211540221L151.58,181.8073206067085L151.58,27.464508605003346L156.17333333333332,69.96834565401076L156.17333333333332,175.7480374395847L156.17333333333332,201.41139653027057L156.17333333333332,91.81670431494712L158.47,163.20933256745334L158.47,179.37648486793037L158.47,33.73825449943541L160.76666666666668,82.0756467103958L165.35999999999999,180.72262924611564L165.35999999999999,209.24263749718665L169.95333333333335,243.84760670810937L172.25,224.77782883197068L172.25,174.55317166149612L172.25,190.86488564014434L174.54666666666668,145.25829535424705L176.84333333333333,183.12379505932327L179.14000000000001,218.84404790103434L181.43666666666664,219.54355124831199L181.43666666666664,206.1741025418043L181.43666666666664,223.68316770046948L190.62333333333333,238.2872767791152L190.62333333333333,165.08081909716125L190.62333333333333,255.19610681086778L190.62333333333333,211.43946525156497L192.92000000000002,214.07058354914187L192.92000000000002,214.68680832982062L192.92000000000002,235.68095617443322L192.92000000000002,152.34311309158798L195.21666666666667,240.84317118376492L195.21666666666667,189.65323459804057L195.21666666666667,205.392531645298L195.21666666666667,213.11441492736338L195.21666666666667,237.12263714969157L197.51333333333335,215.49482446610926L199.80999999999997,196.19141880869864L199.80999999999997,228.40001699030398L204.40333333333334,215.6489193856716L204.40333333333334,204.8372379362583L204.40333333333334,236.3358208581805L204.40333333333334,220.16043786406516L204.40333333333334,190.76076630949973L206.7,153.78668804168697L206.7,190.00799227952956L206.7,235.07560238689183L206.7,250.1051235616207L208.99666666666667,241.09080311357974L208.99666666666667,241.00391261726617L211.29333333333332,235.35346750617026L213.59,113.34835377037524L213.59,220.26635963916777L215.88666666666668,199.0453783839941L215.88666666666668,153.21598906517025L220.48000000000002,93.8488477885723L222.77666666666664,244.4581284418702L225.07333333333332,226.69089127779006L225.07333333333332,229.69920628219842L225.07333333333332,202.40586709678172L225.07333333333332,263.5802828192711L227.37,228.15597586780785L229.66666666666666,209.69357248842715L229.66666666666666,203.7302272439003L229.66666666666666,243.2173636972904L229.66666666666666,193.5912518620491L231.96333333333334,205.55632878541945L231.96333333333334,201.60513114631175L231.96333333333334,194.86977640986441L234.26000000000002,263.76154818087815L234.26000000000002,207.97216762304305L236.55666666666667,182.57202174961563L238.85333333333335,251.51521247327327L238.85333333333335,238.06419611424207L238.85333333333335,235.4903265506029L238.85333333333335,228.69102728068827L241.14999999999998,167.24935692250725L241.14999999999998,240.20242330133914L241.14999999999998,267.5666914924979L241.14999999999998,205.1711126089096L243.44666666666666,252.13097960203885L243.44666666666666,224.46761124283074L243.44666666666666,259.7364996045828L243.44666666666666,235.70114214420317L243.44666666666666,243.30004379600285L243.44666666666666,129.68859706521036L243.44666666666666,222.79424574673175L245.74333333333334,265.68735447227954L245.74333333333334,198.26320197880267L245.74333333333334,247.29661234170197L250.33666666666667,243.76246937066315L250.33666666666667,167.88588736653324L252.63333333333333,206.75287027359008L254.93,230.62913384735583L254.93,216.97380055189132L254.93,192.526373308897L254.93,244.4540306970477L257.2266666666667,244.84368257671593L257.2266666666667,265.5986544907093L259.5233333333333,264.7202092453837L261.82,264.6678186625242L261.82,247.35741667896508L261.82,258.5952495083213L264.1166666666667,258.1378229007125L266.41333333333336,287.48730764240025L266.41333333333336,262.42835183143615L268.71000000000004,73.24324641823767L268.71000000000004,266.0967276290059L268.71000000000004,252.7754379853606L268.71000000000004,242.23730564564465L271.00666666666666,262.46364735513924L271.00666666666666,267.1762932881713L275.6,166.38950642645355L275.6,258.48658182173966L280.1933333333333,230.87029528319835L280.1933333333333,234.27704204320906L280.1933333333333,188.56690977215763L282.49,226.17601879388093L282.49,243.72742731571196L282.49,279.6821809977293L282.49,258.07439234554766L282.49,236.71717867702245L284.7866666666667,258.1255015030503L284.7866666666667,247.593790371716L287.08333333333337,229.98844229131936L287.08333333333337,256.098244343698L287.08333333333337,247.6234391748905L289.38,260.9363925129175L291.6766666666667,252.19043210595845L293.97333333333336,236.81309547722338L296.27,242.67257485985755L296.27,250.29749226272105L296.27,182.81708378791805L300.86333333333334,258.60619795024394L300.86333333333334,225.10543719381093L305.4566666666667,247.26164069473742L307.75333333333333,256.3007799580693L307.75333333333333,275.9670472562313L307.75333333333333,242.38861944973468L307.75333333333333,271.60206187963485L310.05,261.1043014794588L312.34666666666664,266.5498382270336L314.6433333333333,233.33109666109084L314.6433333333333,212.47775774896144L314.6433333333333,220.96137095689772L316.94,249.1026053622365L316.94,234.84259419590234L316.94,259.7862076431513L319.2366666666667,263.83152667880057L319.2366666666667,200.11079203784465L321.53333333333336,258.97797324210404L323.83,239.20036979466676L326.12666666666667,222.21787188649176L326.12666666666667,244.216079865396L328.42333333333335,199.62842692136763L328.42333333333335,205.21055516302584L328.42333333333335,266.52251288741826L330.71999999999997,182.6385572969913L330.71999999999997,253.0733130544424L330.71999999999997,291.392778814584L333.01666666666665,258.9411569058895L337.61,266.28768112957476L337.61,249.68705501854419L337.61,272.11707517951726L339.9066666666667,25.491057229042042L339.9066666666667,247.3091168001294L339.9066666666667,180.54276500344272L339.9066666666667,254.04511929005383L342.2033333333333,237.7844933465123L342.2033333333333,137.69315433204176L342.2033333333333,259.1028910920024L344.5,214.6495343416929L346.7966666666666,232.5437875136733L346.7966666666666,261.9382488772273L349.09333333333336,213.52010574638842L351.39,210.79751339256762L355.98333333333335,212.615729239583L355.98333333333335,235.26197232753037L355.98333333333335,237.93216001689433L358.28000000000003,262.2737429335713L360.57666666666665,265.42081799805163L362.8733333333333,267.9019179984927L362.8733333333333,250.67118969261645L362.8733333333333,269.0130475580692L367.46666666666664,244.45141151994466L367.46666666666664,203.0037717193365L367.46666666666664,255.8191400438547L369.7633333333333,257.96000048965215L372.06,193.06581113934516L374.3566666666667,233.18877395689486L374.3566666666667,273.9804788723588L376.6533333333333,235.48691880404948L376.6533333333333,209.1327587932348L376.6533333333333,258.4700429856777L378.95000000000005,240.57246655672787L378.95000000000005,257.48904146701096L381.24666666666667,272.6649408459663L381.24666666666667,262.91927151829003L381.24666666666667,261.6289677143097L383.5433333333333,254.49575152695178L385.84000000000003,255.20482331961392L385.84000000000003,245.49666032642125L385.84000000000003,256.3022937297821L385.84000000000003,254.8147349104285L388.13666666666666,265.36285110265015L388.13666666666666,264.1321617409587L388.13666666666666,259.5864672258496L388.13666666666666,244.66102313697337L388.13666666666666,241.12603527009486L390.43333333333334,261.8348547488451L390.43333333333334,246.98091701120137L390.43333333333334,257.08826512545346L395.0266666666667,269.94716439843177L395.0266666666667,266.4553859129548L399.61999999999995,231.02108806818723L401.9166666666667,261.1541221708059L404.2133333333333,251.94024436622857L404.2133333333333,208.0679224848747L404.2133333333333,182.90441785454746L404.2133333333333,257.7104957073927L406.51,282.63582420051097L406.51,255.54055676311253L406.51,279.37521625757216L408.8066666666667,252.2134836807847L411.10333333333335,251.79035984426736L413.4,264.1293172582984L413.4,263.3444864720106L413.4,251.8686464846134L413.4,276.94632377922534L413.4,269.22891140431165L413.4,232.6226514995098L415.6966666666667,208.294185590744L417.99333333333334,172.61231918334957L417.99333333333334,249.19396676570176L417.99333333333334,247.12884419113396L417.99333333333334,249.2728448331356L417.99333333333334,268.31594512313603L420.28999999999996,261.53819069713353L420.28999999999996,247.2232542604208L420.28999999999996,257.6015323072672L420.28999999999996,246.06691573262214L420.28999999999996,235.79454537928103L422.58666666666664,227.68296797275542L427.18,252.30642926394938L427.18,254.98060908615588L427.18,245.49507614672183L429.47666666666663,223.6422043338418L434.07,239.72625408768653L434.07,220.67186739742755L436.3666666666667,260.9896350324154L438.66333333333336,237.67998677194117L438.66333333333336,261.23431686758994L438.66333333333336,240.47291670441626L440.96000000000004,259.5500522151589L443.25666666666666,255.17692063450812L443.25666666666666,257.8091795414686L443.25666666666666,224.66414809674023L445.5533333333333,208.45336396694182L445.5533333333333,244.44302592873572L447.85,278.9579644471407L450.14666666666665,245.6345754906535L450.14666666666665,242.7816086679697L452.4433333333333,233.77845492660998L452.4433333333333,260.33538289815186L454.74,273.98983609378337L454.74,279.9125559300184L454.74,225.69868080765008L459.3333333333333,256.9430556938052L461.63000000000005,211.98357817232608L461.63000000000005,259.847124633193L463.9266666666667,264.82785601615905L466.2233333333333,293.36943023353814L466.2233333333333,194.96243332028388L466.2233333333333,276.58797529041766L466.2233333333333,259.3957953572273L468.52000000000004,251.41535282582043L468.52000000000004,252.76741147488354L470.81666666666666,238.28911442756652L473.11333333333334,241.33717474043368L473.11333333333334,263.5317505940795L475.40999999999997,251.42406229376792L475.40999999999997,260.49986299574374L475.40999999999997,246.68985743522643L477.7066666666667,237.09575538039206L480.00333333333333,268.4008008286357L480.00333333333333,266.7612522885203L482.29999999999995,281.85068361908196L484.5966666666667,218.11845135390757L484.5966666666667,242.78826222270726L486.8933333333333,255.6120771959424L486.8933333333333,248.9980495020747L489.19,241.26257747858762L491.4866666666667,258.96683469861745L491.4866666666667,218.63786515295504L491.4866666666667,255.8050232425332L493.78333333333336,238.12485259473323L496.08,260.8856846809387L496.08,256.91422362327575L496.08,256.36587214171885L496.08,228.13857805430888L496.08,223.1904244467616L498.3766666666667,239.9643034905195L498.3766666666667,266.92264147549866L500.67333333333335,242.41007980406283L500.67333333333335,298.7598586499691L502.96999999999997,249.10611872076987L502.96999999999997,273.9196534126997L502.96999999999997,237.3653264388442L502.96999999999997,234.2637771785259L502.96999999999997,250.68186354339122L502.96999999999997,195.95952306389808L505.26666666666665,249.8889217570424L505.26666666666665,281.10105682611464L507.56333333333333,269.4236106097698L507.56333333333333,248.7392790287733L509.86,267.0464046344161L509.86,269.2390783175826L512.1566666666666,266.10101547539233L512.1566666666666,281.7207456797361L512.1566666666666,271.5969150558114L514.4533333333334,275.2078238546848L514.4533333333334,267.0722232431173L514.4533333333334,229.13361188471316L516.75,279.93668474704026L516.75,252.60479718893765L516.75,207.46996153593062L516.75,252.5599050566554L516.75,245.14140978902577L521.3433333333334,217.04009671211242L525.9366666666666,245.99112153500317L528.2333333333333,248.1536324366927L528.2333333333333,284.0123918697238L528.2333333333333,239.50120903998612L530.53,223.91262732893227L530.53,247.53664020895957L532.8266666666667,254.99130405932664L532.8266666666667,264.6795063883066L532.8266666666667,254.20988101959227L535.1233333333333,216.98320705890654L535.1233333333333,264.5422882631421L537.4200000000001,239.5425103649497L537.4200000000001,255.43464202880858L539.7166666666667,264.0064271584153L539.7166666666667,235.09645723253487L542.0133333333333,275.43147482424973L542.0133333333333,246.12845935374497L544.3100000000001,271.6299927279353L544.3100000000001,265.7075756460428L544.3100000000001,232.96541870087384L546.6066666666667,266.1634744003415L546.6066666666667,215.35421971678733L548.9033333333333,217.9171267569065L551.2,219.850811702013L551.2,225.71188934594392L551.2,266.676410664618L553.4966666666667,261.2122087597847L555.7933333333333,244.25469864606856L555.7933333333333,289.14404277205466L555.7933333333333,240.15114516466855L555.7933333333333,276.97790880203246L558.09,265.9336416095495L558.09,264.92728617489337L560.3866666666667,273.2596278235316L560.3866666666667,228.01400520354508L560.3866666666667,266.1314317256212L562.6833333333333,245.3955896615982L564.98,272.53532678335904L564.98,230.04314929693936L567.2766666666666,213.11089452803134L571.87,265.53817403018473L571.87,245.5217889368534L571.87,289.69662225320934L571.87,266.82532355636357L574.1666666666667,253.18386767506598L574.1666666666667,266.5657011464238L576.4633333333334,246.379125867784L578.76,246.23519082069396L578.76,249.3552010551095L578.76,275.0527784273028L581.0566666666667,263.181970757246L581.0566666666667,239.6160796701908L583.3533333333334,244.34418719708918L585.65,238.47618844807147L585.65,287.00256977677344L585.65,252.33177613914012L587.9466666666667,264.0498970493674L594.8366666666666,274.45726767629384L597.1333333333333,254.19913676083087L597.1333333333333,196.4871605157852L597.1333333333333,238.2538822710514L599.43,227.6846788868308L599.43,241.5630998879671L599.43,191.61388580203055L601.7266666666667,228.35002731978892L601.7266666666667,202.45509636104106L604.0233333333333,192.08884399831294L604.0233333333333,254.0251445442438L604.0233333333333,264.5331704288721L604.0233333333333,248.2597724765539L606.32,273.8592222377658L608.6166666666667,270.3844050362706L610.9133333333334,221.89758595526217L610.9133333333334,243.80406640917062L613.21,255.6356638714671L615.5066666666667,205.52380029559134L615.5066666666667,221.04566339850425L617.8033333333333,233.8296274513006L620.1,255.75485051125287L620.1,278.5886393532157L622.3966666666666,262.8930586248636L622.3966666666666,252.88800627440213L622.3966666666666,261.9561536282301L624.6933333333333,253.28383293449878L624.6933333333333,258.4365499064326L626.99,235.65363083481787L626.99,237.00663295090197L629.2866666666666,226.79867886453866L629.2866666666666,244.43498533666133L631.5833333333333,253.05038117319344L631.5833333333333,259.60854012966155L631.5833333333333,298.7178286023438L631.5833333333333,270.1701605737209L633.88,285.9196914218366L633.88,249.4630449682474L636.1766666666666,224.20713689625262L638.4733333333334,195.4911128103733L640.77,284.03070146664976L640.77,243.97046160399913L640.77,226.94968991428613L643.0666666666667,261.1246141836047L643.0666666666667,251.1021921828389L643.0666666666667,269.3447466239333L643.0666666666667,245.23670699894427L643.0666666666667,166.42472450137134L643.0666666666667,259.51593250483273L645.3633333333333,187.00972449481483L647.66,267.466205213964L647.66,213.44357226490973L649.9566666666667,227.05138016939162L649.9566666666667,181.57579098343845L652.2533333333333,259.54579253196715L652.2533333333333,262.93479647934436L654.55,249.15550288259982L654.55,187.31009904742237L654.55,236.89517710804938L654.55,226.2282403975725L656.8466666666667,228.464679685235L656.8466666666667,272.1394790008664L659.1433333333333,262.7865876674652L659.1433333333333,225.79618178755044L659.1433333333333,200.2806301832199L663.7366666666667,256.0155431225896L666.0333333333333,244.93607897758483L666.0333333333333,208.24580122232436L668.3299999999999,226.1799475595355L670.6266666666667,279.89966422766446L672.9233333333333,238.86544604301451L675.22,214.20110587477683L675.22,247.93841634392737L675.22,268.41443181484937L675.22,232.77361326366662L675.22,227.81816538870333L675.22,256.66966852247714L677.5166666666667,237.07040146440266L679.8133333333334,288.7914853401482L679.8133333333334,255.51557600945233L679.8133333333334,286.9327426560223L684.4066666666666,170.9155571132898L684.4066666666666,249.8861547231674L684.4066666666666,256.9575456574559L684.4066666666666,251.97744794636964L684.4066666666666,229.87616971582173L684.4066666666666,247.70770345330237L684.4066666666666,260.1489425495267L684.4066666666666,243.3738595291972L686.7033333333334,253.9217081710696L686.7033333333334,234.48887855261563L691.2966666666667,203.84497818052768L691.2966666666667,262.5467780649662L693.5933333333332,288.39505317136644L693.5933333333332,273.5623680844903L693.5933333333332,242.9134546637535L698.1866666666667,265.4172553539276L700.4833333333333,238.4054143399L702.78,238.23549170494078L702.78,259.73273981809615L702.78,237.83732749968766L705.0766666666667,208.19505114555358L705.0766666666667,236.72214244008063L707.3733333333333,180.05848478972908L707.3733333333333,98.31879739165305L707.3733333333333,237.01896843016146L707.3733333333333,205.57226915359496L707.3733333333333,181.90349791646L709.6700000000001,233.4571692019701L709.6700000000001,192.58088317215442L709.6700000000001,249.0953462988138L709.6700000000001,167.38366719782348L714.2633333333333,231.766743850708L716.5600000000001,244.3285777464509L716.5600000000001,225.1985658377409L716.5600000000001,239.6188255816698L718.8566666666666,171.15369100570675L718.8566666666666,238.273174059391L718.8566666666666,238.41432799100875L721.1533333333333,248.3247379258275L721.1533333333333,271.2842402279377L723.45,264.7185124129057L723.45,222.05241311788558L723.45,182.6513997137546L725.7466666666666,21.79275099635123L725.7466666666666,258.5040218800306L725.7466666666666,168.89260892271992L725.7466666666666,255.71320418715476L725.7466666666666,103.49079911112784L728.0433333333333,231.8601963713765L728.0433333333333,265.55534653812646L730.34,198.86921760141848L732.6366666666667,250.15459925383328L734.9333333333333,182.60155085921284L737.23,215.54194149076937L739.5266666666666,180.9009163498878L739.5266666666666,194.5002752959728L739.5266666666666,163.13843172490593L741.8233333333334,124.36938632726671L741.8233333333334,188.5690924197435L741.8233333333334,202.23900016844271L741.8233333333334,254.01371732801198L744.12,186.92715000808235L744.12,246.5371706753969L746.4166666666666,247.16609001606702L746.4166666666666,222.91342534571885L746.4166666666666,243.96693416386842L746.4166666666666,247.72831187099217L748.7133333333334,248.79231032431125L748.7133333333334,182.55779933631416L751.0100000000001,159.96907253265377L751.0100000000001,227.59523962140082L751.0100000000001,237.65192918926476L753.3066666666666,125.22353377640249L753.3066666666666,187.44981665611263L755.6033333333334,227.07474153935908L755.6033333333334,234.75169044435023L755.6033333333334,207.5659276217222L757.9000000000001,246.5947221636772L760.1966666666666,204.08808287680148L762.4933333333333,220.38975667655467L762.4933333333333,235.2577900931239L762.4933333333333,170.22220742404457L764.7900000000001,153.6828362613916L764.7900000000001,176.55020971298214L767.0866666666666,225.43900911211966L767.0866666666666,219.42798357903956L767.0866666666666,196.1169553220272L769.3833333333333,211.01376448273658L769.3833333333333,152.15065990090366L769.3833333333333,239.64722112268208L771.6800000000001,211.90343980193137L773.9766666666667,231.14141531735658L776.2733333333333,249.4364377900958L776.2733333333333,133.38405881524088L778.5699999999999,231.33264340907334L778.5699999999999,142.28557158708568L780.8666666666667,78.56741387844085L783.1633333333334,253.90238117873668L785.4599999999999,178.76002070009704L785.4599999999999,192.93131780326365L787.7566666666667,186.36771630942818L787.7566666666667,252.96382863521575L787.7566666666667,229.2875871106982L790.0533333333334,211.46938864588736L794.6466666666666,208.06313474178313L794.6466666666666,178.4010385394096L796.9433333333334,239.03986070752143L796.9433333333334,159.44805343151089L796.9433333333334,155.83847534358497L796.9433333333334,237.10118383616208L799.2399999999999,253.19044378101825L799.2399999999999,220.1823910742998L801.5366666666666,219.52434394955634L803.8333333333334,233.96356456428765L803.8333333333334,196.04447734057902L803.8333333333334,198.4078481465578L803.8333333333334,191.43752787709235L803.8333333333334,166.41144555509086L806.13,211.12924766242503L806.13,217.92382959723471L806.13,218.45971886515616L806.13,86.2229305922985L806.13,182.24658195376392L808.4266666666666,244.35680430829524L810.7233333333334,221.36521708667277L813.02,249.18201148957013L815.3166666666667,260.2220542028546L815.3166666666667,226.61537871211766L817.6133333333333,220.04261713922023L817.6133333333333,197.68160384595393L817.6133333333333,248.6041590616107L819.91,160.16004715561863L819.91,247.5059493675828L819.91,211.42238427400588L819.91,191.07722204625605L819.91,175.39211098551746L819.91,194.37313255369662L822.2066666666667,200.4947549521923L822.2066666666667,193.61321915388106L824.5033333333334,167.40129735767837L824.5033333333334,264.68977187275885L829.0966666666667,220.4449706196785L829.0966666666667,235.98099276870488L829.0966666666667,155.08287091255184L829.0966666666667,241.945464541018L831.3933333333334,208.27990685105323L831.3933333333334,232.3581709384918L833.6899999999999,228.43853015899657L833.6899999999999,257.64906473904847L840.5799999999999,268.1525774717331L842.8766666666667,220.66796679496764L845.1733333333333,202.16018546819686L849.7666666666667,210.43750327527522L852.0633333333333,252.8732839643955L852.0633333333333,209.96160161197184L852.0633333333333,173.8202104389667L856.6566666666668,235.5035210072994L856.6566666666668,269.2742189437151L856.6566666666668,238.70183196365832L856.6566666666668,219.10130460262297L858.9533333333333,209.7215807855129L861.25,208.6833727777004L863.5466666666667,204.96042374968528L863.5466666666667,224.5648587539792L863.5466666666667,202.39023652374743L865.8433333333332,265.69229007214307L865.8433333333332,212.96375591754912L868.14,225.2303480029106L868.14,248.01661849468945L870.4366666666667,225.51683105975388L870.4366666666667,222.47993745356797L875.03,247.08788786530494L875.03,239.47305288612841L877.3266666666667,243.72239314466714L877.3266666666667,119.25140161514281L877.3266666666667,219.90543421804904L879.6233333333333,236.8622895374894L879.6233333333333,205.0302825540304L881.9200000000001,215.57708915770053L884.2166666666667,193.858689558506L886.5133333333333,193.57414272129535L886.5133333333333,242.72271238714455L888.8100000000001,183.0730027377605L891.1066666666666,186.14265013933178L895.7,237.32877765297889L897.9966666666666,228.57755776941775L897.9966666666666,195.27367886602877L900.2933333333333,245.73083728998898L900.2933333333333,229.26119115650653L900.2933333333333,205.23373347222804L902.59,199.32654563784598L902.59,160.8846016645431L902.59,244.43888593912123L904.8866666666667,242.80061178356408L907.1833333333333,211.9732000350952L907.1833333333333,203.72205991744994L907.1833333333333,199.98857785463332L907.1833333333333,230.72870482206343L909.48,232.32492428719996L911.7766666666666,283.19064617604016L914.0733333333334,161.1735560417175L918.6666666666666,244.2634362772107L918.6666666666666,147.97887403964992L920.9633333333334,218.60513952076434L920.9633333333334,242.07709227204322L923.2600000000001,221.5635704666376L923.2600000000001,254.91600975841283L923.2600000000001,217.8056145876646L925.5566666666666,256.7730767324567L927.8533333333334,175.44646595120426L930.1500000000001,186.32497866153713L930.1500000000001,225.26434097886084L930.1500000000001,230.62740885168313L934.7433333333333,194.33288734853267L934.7433333333333,240.62794805020093L934.7433333333333,242.65831724256276L937.0400000000001,270.5430553525686L937.0400000000001,180.76892953813072L937.0400000000001,193.25064618587493L939.3366666666666,142.6673659354448L941.6333333333333,259.9343601286411L941.6333333333333,215.62351618409156L943.9300000000001,272.7136702135205L943.9300000000001,231.62444930970668L946.2266666666667,167.77369928061958L946.2266666666667,234.2944468975067L948.5233333333333,229.107624296844L948.5233333333333,197.60752056241034L950.8199999999999,221.54144827723502L953.1166666666667,237.63740402162074L957.7099999999999,249.5226734921336L962.3033333333334,262.4133971750736L964.5999999999999,272.8440446823835L966.8966666666666,244.9416904941201L969.1933333333334,208.55380800068377L969.1933333333334,157.6733497202396L969.1933333333334,213.20711408257483L971.4899999999999,261.59815013855695L971.4899999999999,247.2958448946476L973.7866666666666,206.47304077148436L973.7866666666666,159.71251991093155L973.7866666666666,229.44197774380444L976.0833333333334,139.33305491209032L976.0833333333334,243.9937244027853L976.0833333333334,227.15999857038258L978.38,270.46267759501933L978.38,218.4549452036619L978.38,203.82239129841327L980.6766666666666,266.54567007422446L980.6766666666666,206.1768062084913L980.6766666666666,221.22041602134703L980.6766666666666,261.6995587617159L982.9733333333334,250.77352066040038L982.9733333333334,234.24397845268248L985.27,247.29156408905982L989.8633333333333,240.54366264939307L989.8633333333333,215.70648495554923L989.8633333333333,192.73497809171675L992.16,273.7449782386422L994.4566666666667,240.9920629531145L994.4566666666667,172.55157117247578L994.4566666666667,188.4702255249023L996.7533333333334,208.24637856781482L996.7533333333334,249.15577043294905L996.7533333333334,242.3947519853711L996.7533333333334,260.0227432742715L996.7533333333334,222.1809992238879L996.7533333333334,266.6724537357688L999.05,95.06583575606345L999.05,216.38359856307505L1001.3466666666667,244.73073408454655L1001.3466666666667,204.54683315455912L1001.3466666666667,225.03770471066235L1001.3466666666667,258.6153228253126L1005.9399999999999,253.25447984486817L1005.9399999999999,182.69392613768574L1008.2366666666667,224.91915174275636L1008.2366666666667,240.51791444867848L1010.5333333333333,263.75394411832093L1010.5333333333333,236.91615868806838L1012.8299999999999,227.85385519713162L1012.8299999999999,217.678626742959L1015.1266666666667,237.4965246811509L1015.1266666666667,236.69884443730115L1017.4233333333333,212.88257550895213L1017.4233333333333,210.7248101055622L1019.72,253.0859020024538L1022.0166666666667,254.35600575506686L1024.3133333333333,253.5019498363137L1024.3133333333333,177.09981445670124L1026.61,211.4266932427883L1026.61,244.62384772002696L1028.9066666666668,211.6337772130966L1028.9066666666668,205.41204873919486L1033.5,236.64557375460862L1033.5,258.71400665938853L1038.0933333333332,248.8241628974676L1038.0933333333332,224.46801960915326L1040.39,247.03770105242728L1042.6866666666667,236.31961998045443L1042.6866666666667,222.98269976377486L1044.9833333333333,195.91933418512343L1044.9833333333333,198.32939956784247L1047.28,225.21582283526658L1047.28,272.0637340888381L1049.5766666666668,257.4199712321162L1049.5766666666668,195.31889487504958L1051.8733333333332,244.51664451956748L1051.8733333333332,247.08568409532307L1051.8733333333332,217.75301982164382L1054.17,225.1951510503888L1054.17,265.18006492853164L1056.4666666666667,208.21415987312793L1056.4666666666667,227.19337899684905L1056.4666666666667,242.73936387598513L1058.7633333333333,283.26167375296353L1061.06,232.07509562820195L1061.06,237.5483520001173L1061.06,212.13530738353728L1061.06,164.04939841926094L1063.3566666666666,268.0088677302003L1063.3566666666666,260.36854505985974L1063.3566666666666,200.92889059782027L1065.6533333333334,253.27082153856753L1065.6533333333334,231.53546769618987L1067.95,186.13208894133564L1067.95,224.17389728575944L1067.95,253.2137065798044L1070.2466666666667,269.6276811182499L1070.2466666666667,192.33758133351802L1072.5433333333333,161.21981408894058L1074.8400000000001,119.99410730302333L1074.8400000000001,262.37156779021024L1074.8400000000001,244.51277208030223L1077.1366666666665,249.86255396604537L1077.1366666666665,272.25653227865695L1077.1366666666665,247.5694573715329L1079.4333333333334,231.43474907130002L1081.73,241.8839350014925L1081.73,246.19331215023993L1084.0266666666666,268.9458924204111L1088.6200000000001,257.68587403446435L1088.6200000000001,254.9558606788516L1088.6200000000001,199.57626868486403L1088.6200000000001,200.9024735212326L1088.6200000000001,261.70562088936566L1090.9166666666665,234.4710019648075L1090.9166666666665,250.94615400284528L1090.9166666666665,253.536717300117L1093.2133333333334,227.70623077154158L1095.51,223.87393814027308L1095.51,248.60125121176242L1095.51,256.6118072390556L1095.51,206.42720517218112L1097.8066666666666,221.54151868522166L1097.8066666666666,183.26851163506504L1104.6966666666667,201.16605286002158L1104.6966666666667,210.70578586757182L1104.6966666666667,212.3222687512636L1104.6966666666667,155.32889049947258L1104.6966666666667,231.67001031786202L1104.6966666666667,228.32851767987012L1106.9933333333333,167.02407952845093L1109.29,222.03571234345435L1111.5866666666666,231.18991233855485L1113.8833333333334,228.65900572836398L1113.8833333333334,243.44488710612058L1113.8833333333334,246.17856871783732L1113.8833333333334,265.79067115187644L1116.18,236.0724597841501L1116.18,228.52523759454488L1118.4766666666667,222.08442058861255L1118.4766666666667,209.80998505353926L1118.4766666666667,248.6127277135849L1118.4766666666667,242.52128217816352L1120.7733333333333,208.61679498553275L1120.7733333333333,258.27992734014987L1120.7733333333333,193.63458093702792L1120.7733333333333,181.3849149316549L1120.7733333333333,227.30936207324265L1123.07,223.38532783538102L1123.07,227.80588623583316L1125.3666666666666,249.94576916545628L1125.3666666666666,248.1289262741804L1125.3666666666666,167.27583032548424L1125.3666666666666,273.7233277827501L1127.6633333333334,246.1851237013936L1127.6633333333334,241.43214103281497L1129.96,232.12524019628762L1129.96,263.0337478637695L1129.96,236.01031065434216L1132.2566666666667,275.7965472757816L1132.2566666666667,246.26676880270242L1134.5533333333333,241.46597207039594L1134.5533333333333,269.8496845409274L1136.85,249.5381632491946L1136.85,195.61548147797583L1136.85,246.97357345819472L1136.85,219.95260756909846L1139.1466666666668,206.85338471531867L1141.4433333333334,192.85768513083457L1141.4433333333334,258.3768439337611L1143.74,243.0688521310687L1143.74,249.5938911706209L1146.0366666666666,240.52758850604295L1146.0366666666666,228.70228551775216L1150.6299999999999,258.48995436429976L1150.6299999999999,194.87832393944262L1152.9266666666667,245.90404797792434L1152.9266666666667,231.8731373593211L1152.9266666666667,162.74516087472435L1155.2233333333334,226.16717555075883L1157.52,204.1182738214731L1159.8166666666666,245.52728780061005L1162.1133333333335,216.13553714454173L1162.1133333333335,170.8113955378532L1164.4099999999999,253.9210604175925L1164.4099999999999,249.17939935326575L1166.7066666666667,272.99551338404416L1166.7066666666667,251.9749625444412L1169.0033333333333,222.2709243044257L1169.0033333333333,283.67208542749285L1169.0033333333333,223.20258390605449L1169.0033333333333,277.2109240338206L1171.3,247.36392941772937L1173.5966666666666,259.7256356522441L1173.5966666666666,256.1060877934098L1175.8933333333334,232.37099223285912L1175.8933333333334,255.68094324767588L1175.8933333333334,237.273774933815L1178.19,142.81567331850525L1180.4866666666667,198.93128928244113L1182.7833333333333,206.11570615768431L1185.08,204.4789739370346L1187.3766666666668,200.73522638976573L1187.3766666666668,265.1771077930927L1187.3766666666668,242.88750932067632L1189.6733333333332,263.4452755048871L1191.97,262.8794558018446L1191.97,205.6194002598524L1194.2666666666667,213.312458512187L1194.2666666666667,246.2581649467349L1194.2666666666667,224.86659922152757L1196.5633333333333,281.3364659294486L1196.5633333333333,271.0846195042133L1196.5633333333333,268.4040114328265L1198.86,220.81655580997466L1203.4533333333334,222.12550364881753L1203.4533333333334,244.08512101024388L1203.4533333333334,244.64578684866427L1203.4533333333334,243.58149972259997L1205.75,218.99843853414058L1205.75,251.67488370537757L1208.0466666666666,260.9914515584707L1208.0466666666666,211.89123105704783L1208.0466666666666,239.37993128299712L1210.3433333333332,234.90518689602612L1210.3433333333332,229.69702363461255L1217.2333333333333,248.3942094862461L1217.2333333333333,256.58040527701377L1219.53,229.34456125348805L1219.53,215.22511963248252L1221.8266666666668,235.12447961121796L1221.8266666666668,185.58389235734936L1224.1233333333332,235.24151880741118L1228.7166666666667,264.43612006008624L1228.7166666666667,187.54119214117523L1233.31,249.9812547907233L1233.31,217.1198267161846L1235.6066666666666,260.98273504972457L1235.6066666666666,261.53041765540837L1235.6066666666666,244.5554463610053L1240.2,239.4982307821512L1240.2,257.53569379895924L1240.2,153.9941803783178L1242.4966666666667,256.55793808847665L1242.4966666666667,258.28763701468705L1242.4966666666667,231.96539998501538L1244.7933333333333,224.1169442653656L1247.0900000000001,249.34206996560096L1249.3866666666665,217.19153020977973L1249.3866666666665,213.2645951628685L1249.3866666666665,235.39588127732276L1249.3866666666665,261.2928963124752L1249.3866666666665,233.25289451032876L1251.6833333333334,227.43458267748355L1251.6833333333334,257.3413043886423L1251.6833333333334,225.59389964193105L1253.98,228.69182289093732L1253.98,262.65504442602395L1256.2766666666666,188.16871036291118L1260.8700000000001,217.69346874654292L1260.8700000000001,225.6220276325941L1263.1666666666665,256.2101507976651L1263.1666666666665,223.34910996705293" style="fill: none;" fill="none"></path></g></g></g></g></g></g><g transform="translate(70, 378)" clip-path="url(#clip_1)"><clipPath id="clip_1"><rect width="1378" height="22"></rect></clipPath><g><g><line x1="0" y1="0" x2="0" y2="5" style="visibility: inherit;" fill="rgb(0, 0, 0)" stroke="rgb(204, 204, 204)" stroke-width="1px"></line><line x1="114.83333333333333" y1="0" x2="114.83333333333333" y2="5" style="visibility: inherit;" fill="rgb(0, 0, 0)" stroke="rgb(204, 204, 204)" stroke-width="1px"></line><line x1="229.66666666666666" y1="0" x2="229.66666666666666" y2="5" style="visibility: inherit;" fill="rgb(0, 0, 0)" stroke="rgb(204, 204, 204)" stroke-width="1px"></line><line x1="344.5" y1="0" x2="344.5" y2="5" style="visibility: inherit;" fill="rgb(0, 0, 0)" stroke="rgb(204, 204, 204)" stroke-width="1px"></line><line x1="459.3333333333333" y1="0" x2="459.3333333333333" y2="5" style="visibility: inherit;" fill="rgb(0, 0, 0)" stroke="rgb(204, 204, 204)" stroke-width="1px"></line><line x1="574.1666666666667" y1="0" x2="574.1666666666667" y2="5" style="visibility: inherit;" fill="rgb(0, 0, 0)" stroke="rgb(204, 204, 204)" stroke-width="1px"></line><line x1="689" y1="0" x2="689" y2="5" style="visibility: inherit;" fill="rgb(0, 0, 0)" stroke="rgb(204, 204, 204)" stroke-width="1px"></line><line x1="803.8333333333334" y1="0" x2="803.8333333333334" y2="5" style="visibility: inherit;" fill="rgb(0, 0, 0)" stroke="rgb(204, 204, 204)" stroke-width="1px"></line><line x1="918.6666666666666" y1="0" x2="918.6666666666666" y2="5" style="visibility: inherit;" fill="rgb(0, 0, 0)" stroke="rgb(204, 204, 204)" stroke-width="1px"></line><line x1="1033.5" y1="0" x2="1033.5" y2="5" style="visibility: inherit;" fill="rgb(0, 0, 0)" stroke="rgb(204, 204, 204)" stroke-width="1px"></line><line x1="1148.3333333333335" y1="0" x2="1148.3333333333335" y2="5" style="visibility: inherit;" fill="rgb(0, 0, 0)" stroke="rgb(204, 204, 204)" stroke-width="1px"></line><line x1="1263.1666666666665" y1="0" x2="1263.1666666666665" y2="5" style="visibility: inherit;" fill="rgb(0, 0, 0)" stroke="rgb(204, 204, 204)" stroke-width="1px"></line><line x1="1378" y1="0" x2="1378" y2="5" style="visibility: inherit;" fill="rgb(0, 0, 0)" stroke="rgb(204, 204, 204)" stroke-width="1px"></line></g><g transform="translate(0, 8)"><text x="0" y="0" dx="0em" dy="0.95em" style="text-anchor: middle; visibility: hidden; font-family: &quot;Helvetica Neue&quot;, sans-serif; font-size: 12px; font-weight: 200;" fill="rgb(50, 49, 63)" stroke="none" stroke-width="1px">-50</text><text x="114.83333333333333" y="0" dx="0em" dy="0.95em" style="text-anchor: middle; visibility: inherit; font-family: &quot;Helvetica Neue&quot;, sans-serif; font-size: 12px; font-weight: 200;" fill="rgb(50, 49, 63)" stroke="none" stroke-width="1px">0</text><text x="229.66666666666666" y="0" dx="0em" dy="0.95em" style="text-anchor: middle; visibility: inherit; font-family: &quot;Helvetica Neue&quot;, sans-serif; font-size: 12px; font-weight: 200;" fill="rgb(50, 49, 63)" stroke="none" stroke-width="1px">50</text><text x="344.5" y="0" dx="0em" dy="0.95em" style="text-anchor: middle; visibility: inherit; font-family: &quot;Helvetica Neue&quot;, sans-serif; font-size: 12px; font-weight: 200;" fill="rgb(50, 49, 63)" stroke="none" stroke-width="1px">100</text><text x="459.3333333333333" y="0" dx="0em" dy="0.95em" style="text-anchor: middle; visibility: inherit; font-family: &quot;Helvetica Neue&quot;, sans-serif; font-size: 12px; font-weight: 200;" fill="rgb(50, 49, 63)" stroke="none" stroke-width="1px">150</text><text x="574.1666666666667" y="0" dx="0em" dy="0.95em" style="text-anchor: middle; visibility: inherit; font-family: &quot;Helvetica Neue&quot;, sans-serif; font-size: 12px; font-weight: 200;" fill="rgb(50, 49, 63)" stroke="none" stroke-width="1px">200</text><text x="689" y="0" dx="0em" dy="0.95em" style="text-anchor: middle; visibility: inherit; font-family: &quot;Helvetica Neue&quot;, sans-serif; font-size: 12px; font-weight: 200;" fill="rgb(50, 49, 63)" stroke="none" stroke-width="1px">250</text><text x="803.8333333333334" y="0" dx="0em" dy="0.95em" style="text-anchor: middle; visibility: inherit; font-family: &quot;Helvetica Neue&quot;, sans-serif; font-size: 12px; font-weight: 200;" fill="rgb(50, 49, 63)" stroke="none" stroke-width="1px">300</text><text x="918.6666666666666" y="0" dx="0em" dy="0.95em" style="text-anchor: middle; visibility: inherit; font-family: &quot;Helvetica Neue&quot;, sans-serif; font-size: 12px; font-weight: 200;" fill="rgb(50, 49, 63)" stroke="none" stroke-width="1px">350</text><text x="1033.5" y="0" dx="0em" dy="0.95em" style="text-anchor: middle; visibility: inherit; font-family: &quot;Helvetica Neue&quot;, sans-serif; font-size: 12px; font-weight: 200;" fill="rgb(50, 49, 63)" stroke="none" stroke-width="1px">400</text><text x="1148.3333333333335" y="0" dx="0em" dy="0.95em" style="text-anchor: middle; visibility: inherit; font-family: &quot;Helvetica Neue&quot;, sans-serif; font-size: 12px; font-weight: 200;" fill="rgb(50, 49, 63)" stroke="none" stroke-width="1px">450</text><text x="1263.1666666666665" y="0" dx="0em" dy="0.95em" style="text-anchor: middle; visibility: inherit; font-family: &quot;Helvetica Neue&quot;, sans-serif; font-size: 12px; font-weight: 200;" fill="rgb(50, 49, 63)" stroke="none" stroke-width="1px">500</text><text x="1378" y="0" dx="0em" dy="0.95em" style="text-anchor: middle; visibility: hidden; font-family: &quot;Helvetica Neue&quot;, sans-serif; font-size: 12px; font-weight: 200;" fill="rgb(50, 49, 63)" stroke="none" stroke-width="1px">550</text></g><line x1="0" y1="0" x2="1378" y2="0" fill="rgb(0, 0, 0)" stroke="rgb(204, 204, 204)" stroke-width="1px"></line></g></g></g></g></svg>